<svg width="878" height="589" viewBox="0 0 878 589" fill="none" xmlns="http://www.w3.org/2000/svg">
<g clip-path="url(#clip0_397_21178)">
<path d="M771.752 18.1647C771.524 17.48 771.269 16.8084 770.989 16.1628C770.963 16.6323 770.924 17.1018 770.859 17.5648C771.165 17.7539 771.465 17.956 771.752 18.1647Z" fill="#FF8A8A"/>
<path d="M737.069 46.3466C737.728 43.8492 738.243 41.3453 738.7 38.8023L738.836 37.9089C738.843 37.8372 738.856 37.7655 738.863 37.6742C738.954 36.6244 739.084 35.5811 739.176 34.5313C739.573 29.9342 739.697 25.3111 739.795 20.701C739.808 20.1924 739.821 19.6903 739.834 19.1882C735.041 18.8166 730.757 15.1194 729.284 10.5028C728.906 9.32256 728.593 8.13581 728.247 6.94905C728.143 6.5839 728.025 6.22527 727.914 5.86011C722 6.21875 716.203 6.62303 710.25 6.42089C696.126 5.94488 682.016 4.9081 667.912 4.18431C665.923 4.07998 663.928 4.00173 661.939 3.93652C661.183 4.32776 660.367 4.64727 659.474 4.86245C645.513 8.26621 631.109 9.47905 616.803 10.3724C604.584 11.1418 592.52 12.2634 580.366 13.7827C573.995 14.5782 567.625 15.3737 561.248 16.1692C559.891 16.3387 558.535 16.4039 557.172 16.4105C553.605 18.1449 550.052 19.912 546.55 21.7835C545.689 22.2464 544.835 22.7094 543.981 23.1854C542.827 24.4569 541.699 25.7545 540.603 27.0782C540.505 27.1956 540.238 27.5151 539.971 27.8476C539.99 27.8476 538.98 29.1322 538.784 29.4061C536.919 31.9752 535.25 34.6812 533.535 37.3416C532.994 38.1828 532.589 39.0761 532.127 39.9499C531.996 40.3411 531.84 40.7324 531.709 41.1236C531.018 43.1515 530.444 45.212 529.883 47.2791C527.914 54.5691 525.834 63.0459 520.95 69.1427C521.296 71.4445 521.276 73.7919 520.807 76.1263C519.444 82.9077 513.797 89.0892 507.12 90.915C501.845 92.3626 496.1 91.5019 490.89 90.2304C486.111 91.7888 480.868 92.3561 476.16 92.6169C467.846 93.0733 459.519 92.2778 451.232 91.7105C441.125 91.0193 430.972 91.3519 420.859 91.5866C395.637 92.1735 370.454 93.6798 345.285 95.3686C320.35 97.0444 295.422 99.2353 270.428 99.6918C245.5 100.148 220.558 99.8874 195.637 99.131C170.545 98.3681 145.506 96.6206 120.421 95.6946C95.9756 94.7948 71.5168 94.5861 47.058 94.534C34.3623 94.5079 21.4906 94.8991 8.69068 94.4949C8.6646 94.697 8.63851 94.8991 8.61895 95.0817C8.39725 97.3639 8.26032 99.6461 8.14947 101.935C7.91472 106.734 7.78431 111.54 7.48436 116.339C7.9082 117.102 8.27335 117.891 8.55374 118.706C9.41446 121.171 10.1578 123.668 10.8164 126.172C14.4614 127.45 17.2914 130.476 18.6672 134.434C24.7901 152.085 30.2739 169.951 35.7121 187.831C35.7447 187.942 35.7773 188.046 35.8099 188.157C36.0251 188.594 36.2468 189.024 36.4555 189.461C43.7716 204.804 49.138 221.034 54.4719 237.192C55.1957 237.89 55.8543 238.679 56.4281 239.559C60.497 245.825 63.3334 252.815 65.9808 259.773C67.1349 262.798 68.2956 265.824 69.4889 268.837C69.8084 269.652 70.1344 270.46 70.467 271.269C70.6626 271.751 70.78 272.012 70.7995 272.045C70.6952 271.797 70.5974 271.549 70.4865 271.301C70.7278 271.843 70.8191 272.084 70.7995 272.045C71.6407 274.02 72.3514 275.983 72.9709 278.05C75.9052 287.877 79.1329 297.619 82.1976 307.406C83.0126 307.628 83.8147 307.934 84.5971 308.345C88.0726 310.171 90.6613 313.425 92.6045 316.77C93.0544 317.546 93.5239 318.302 93.9999 319.058C95.0171 319.137 96.0408 319.228 97.0581 319.326C106.832 320.258 116.698 319.893 126.505 319.919C136.084 319.939 145.728 320.291 155.294 319.899C165.596 319.482 175.821 319.56 186.11 320.16C195.526 320.708 204.818 321.471 214.26 321.327C224.021 321.178 233.861 320.917 243.602 321.667C252.686 322.371 261.749 323.036 270.845 323.388C280.489 323.76 290.127 324.986 299.777 325.462C315.922 326.257 332.1 325.468 348.252 326.101C350.377 321.021 356.207 319.195 361.41 319.978C362.036 320.069 362.31 320.115 362.414 320.141C362.558 320.154 362.754 320.173 363.04 320.206C364.006 320.31 364.971 320.421 365.936 320.512C367.69 320.682 369.444 320.806 371.198 320.982C375.143 321.373 379.088 321.719 383.052 321.882C391.06 322.214 399.099 322.103 407.1 321.725C414.873 321.354 422.626 320.702 430.359 319.919C434.233 319.528 438.106 319.065 441.979 318.68C442.018 318.674 442.044 318.674 442.077 318.674C442.22 318.648 442.435 318.602 442.768 318.543C443.727 318.374 444.692 318.237 445.65 318.093C447.365 317.832 449.08 317.585 450.801 317.35C465.192 315.368 479.603 314.318 494.131 315.113C499.034 315.381 503.899 315.948 508.763 316.561C508.242 305.906 510.517 295.356 513.817 285.145C519.118 268.758 526.454 253.141 532.876 237.172C535.054 229.282 537.265 221.406 539.56 213.555C542.468 203.611 545.318 193.726 548.558 183.899C548.611 183.645 548.663 183.397 548.715 183.143C551.232 170.695 553.684 158.214 558.189 146.301C559.037 144.065 560.289 142.121 561.867 140.615C562.174 138.281 562.506 135.946 562.949 133.632C562.956 133.586 562.969 133.534 562.982 133.488C561.841 132.073 561.156 130.306 561.215 128.428C561.626 116.3 567.377 104.608 572.15 93.6993C575.658 85.6855 578.156 76.4914 582.844 68.9145C584.794 62.6416 587.793 57.0535 595.181 55.182C599.393 54.1127 603.853 54.38 608.287 55.2864C611.587 54.9473 614.84 54.8234 617.82 54.7582C623.265 54.6343 628.834 55.1038 634.265 54.706C633.542 54.7191 636.339 54.2887 636.704 54.23C638.608 53.904 640.512 53.728 642.416 53.9757C656.025 52.9194 669.888 53.917 683.444 54.7582C689.065 55.1038 694.692 55.5928 700.326 55.795C708.229 56.0754 716.145 56.6753 724.054 57.0795C728.436 57.0339 732.818 57.1513 737.193 57.4969C738.113 57.5686 738.993 57.7186 739.841 57.9338C739.86 57.8946 739.886 57.8555 739.906 57.8229C737.154 54.8104 735.967 50.5263 737.069 46.3466ZM165.44 147.377C167.565 148.922 169.013 151.394 168.941 154.119C167.859 192.708 170.18 231.239 169.932 269.815C169.9 275.285 165.805 279.811 160.478 280.528C155.528 281.193 149.51 278.037 148.512 272.716C145.487 256.545 143.993 240.055 143.139 223.636C142.415 209.753 142.259 195.845 142.442 181.943C142.578 171.784 143.472 161.546 142.944 151.4C142.585 144.547 142.318 137.251 144.15 130.567C145.734 124.777 149.477 119.286 155.848 118.432C157.713 118.184 159.186 118.223 161.09 118.634C162.258 118.888 163.275 119.664 164.409 119.984C160.288 118.83 164.507 120.01 165.674 120.721C166.744 121.373 167.787 122.273 168.674 123.166C173.832 128.369 171.139 135.477 165.759 138.007C165.727 138.203 165.681 138.398 165.642 138.594C165.629 138.731 165.616 138.861 165.603 138.998C165.472 140.609 165.42 142.226 165.407 143.836C165.394 145.023 165.414 146.203 165.44 147.377ZM269.887 257.954C269.757 262.72 269.333 267.617 268.159 272.247C267.52 274.764 266.588 277.652 265.205 279.817C263.112 283.097 259.852 284.962 256.187 285.986C249.471 287.857 243.778 282.888 243.009 276.498C242.546 274.496 242.572 272.501 243.107 270.499C243.42 269.743 243.746 268.993 244.065 268.243C243.694 267.304 243.452 266.293 243.381 265.244C241.75 241.574 246.706 217.585 242.181 194.13C240.205 183.906 238.777 173.59 237.479 163.268C236.501 155.515 235.412 147.638 238.327 140.12C239.938 135.972 242.618 132.191 247.137 130.926C252.001 129.563 256.826 131.721 259.826 135.581C265.851 143.328 265.799 155.065 266.496 164.396C267.285 174.946 267.422 185.536 267.631 196.112C267.839 206.767 269.059 217.343 269.737 227.972C270.369 237.974 270.161 247.944 269.887 257.954ZM360.693 221.353C360.373 226.635 359.689 231.891 359.676 237.185C359.663 242.089 359.963 246.986 360.113 251.883C360.452 262.733 360.048 273.616 355.183 283.527C352.262 289.481 344.026 290.883 338.647 287.864C329.648 282.81 327.112 272.397 325.945 262.942C325.162 256.623 325.299 250.259 325.514 243.915C325.84 234.362 326.062 224.822 326.662 215.276C327.673 199.203 329.303 183.182 331.037 167.174C329.831 163.255 328.755 159.297 328.162 155.215C327.275 149.131 326.955 143.047 330.3 137.564C333.02 133.097 337.375 130.045 342.285 128.441C346.159 127.176 350.756 129.282 352.757 132.699C354.74 136.09 354.159 139.957 352.027 142.995C352.034 143.008 352.04 143.015 352.047 143.028C352.092 142.982 352.099 142.976 352.053 143.034C352.979 144.554 353.488 146.275 353.325 148.029C353.149 149.927 352.979 151.831 352.81 153.728C353.207 155.45 353.67 157.151 354.166 158.847C356.631 167.311 359.558 175.22 360.282 184.082C361.286 196.49 361.449 208.938 360.693 221.353ZM439.13 273.512C432.472 273.812 428.592 268.048 427.823 262.205C425.332 243.243 422.828 224.262 421.778 205.156C421.25 195.532 421.204 185.92 421.491 176.289C421.746 167.871 421.98 159.453 421.289 151.055C418.727 144.691 417.82 137.916 421.635 131.597C424.608 126.681 430.679 124.705 435.928 126.915C440.929 129.028 443.466 134.062 442.755 139.272C442.866 139.637 442.97 140.015 443.068 140.387C444.646 142.043 445.624 144.195 445.383 146.51C445.305 147.253 445.239 148.003 445.168 148.746C445.22 149.372 445.259 149.992 445.311 150.598C445.709 155.723 445.722 160.875 445.591 166.013C445.396 173.766 444.992 181.499 444.874 189.246C446.309 213.555 449.765 237.805 450.436 262.199C450.612 268.543 445.115 273.244 439.13 273.512Z" fill="#FF8A8A"/>
<path d="M869.369 305.482C869.382 290.244 869.675 275.012 869.499 259.773C869.421 252.92 869.134 246.106 868.736 239.305C863.748 227.815 858.349 216.548 852.852 205.319C852.382 204.511 851.913 203.709 851.437 202.907C848.509 197.912 845.849 192.611 842.484 187.909C839.257 183.404 836.361 178.676 833.636 173.851C828.171 164.181 823.829 153.598 817.425 144.502C814.576 140.452 811.511 136.501 809.027 132.288C808.662 131.884 808.297 131.473 807.931 131.069C801.098 123.446 794.329 115.817 788.2 107.621C787.815 107.53 787.424 107.445 787.033 107.367C786.479 107.256 785.872 107.151 785.67 107.112C785.214 107.06 784.764 107.008 784.307 106.969C782.671 106.819 781.034 106.728 779.391 106.669C776.678 106.571 773.946 106.519 771.233 106.578C763.715 106.734 756.236 108.143 749.285 106.662C746.768 108.521 743.782 109.923 740.684 110.836C733.14 113.059 725.113 113.144 717.314 112.824C709.855 112.524 702.356 112.368 694.916 111.748C686.883 111.083 678.888 110.007 670.907 108.886C666.923 108.325 662.946 107.738 658.961 107.164C657.26 106.923 655.551 106.682 653.849 106.447C653.686 106.428 653.543 106.408 653.419 106.389C653.341 106.382 653.249 106.369 653.139 106.356C652.187 106.239 651.241 106.115 650.289 105.997C643.006 105.104 635.689 104.419 628.354 104.198C624.396 104.08 620.438 104.093 616.486 104.269C614.465 104.361 612.45 104.491 610.435 104.667C609.62 104.739 608.805 104.817 607.99 104.902C607.899 104.915 603.862 105.417 606.321 105.078C601.978 105.678 597.863 104.928 594.896 102.326C593.475 106.91 592.021 111.475 590.612 116.065C591.564 117.291 592.249 118.745 592.555 120.427C593.931 127.946 593.697 135.379 593.299 142.963C592.901 150.611 593.155 158.038 594.127 165.648C595.17 173.779 596.116 181.747 596.018 189.963C595.914 198.844 595.444 207.719 594.89 216.58C593.931 231.878 592.712 247.169 592.692 262.505C592.673 277.02 592.999 291.541 592.999 306.063C592.999 312.153 593.625 319.104 590.371 324.568C587.385 329.583 582.273 333.208 577.017 335.471C562.561 341.704 546.937 343.791 531.255 343.4C516.356 343.028 501.749 339.683 486.837 339.39C479.684 339.246 472.531 339.507 465.41 340.133C463.519 340.296 461.628 340.485 459.737 340.7C458.981 340.785 458.224 340.87 457.468 340.968C457.546 340.961 456.464 341.098 455.766 341.183C455.081 341.281 453.797 341.457 453.888 341.444C453.119 341.555 452.356 341.672 451.593 341.789C450.047 342.024 448.502 342.298 446.957 342.526C431.861 344.795 416.336 345.962 401.078 346.347C386.472 346.719 371.715 345.799 357.559 342.037C357.494 342.037 357.435 342.044 357.37 342.037C336.152 341.033 314.973 343.387 293.755 342.937C288.89 342.833 284.02 342.572 279.155 342.604C277.166 342.617 275.178 342.728 273.195 342.865C272.772 342.898 272.491 342.904 272.302 342.911C272.172 342.976 271.898 343.074 271.376 343.23C269.844 343.68 268.005 343.856 266.46 344.013C257.318 344.939 247.948 344.163 238.773 344.13C229.383 344.098 220.007 344.658 210.624 344.9C201.169 345.141 191.766 344.234 182.318 343.908C173.665 343.609 165.084 343.928 156.457 344.13C156.437 344.293 156.418 344.463 156.398 344.626C157.161 346.36 157.37 348.297 156.705 350.123C156.111 351.759 155.531 353.396 154.964 355.039C154.52 357.719 154.018 360.386 153.451 363.033C152.649 377.744 152.551 392.52 152.727 407.217C152.844 417.044 154.338 426.922 155.335 436.684C156.118 444.319 156.776 451.962 157.07 459.63C163.936 461.469 170.711 463.646 177.629 465.335C177.701 465.355 177.773 465.375 177.844 465.394C178.849 464.755 179.931 464.279 181.059 464.057C186.263 463.027 191.512 462.186 196.669 460.953C199.036 460.393 201.384 459.741 203.692 458.952C204.579 454.003 206.581 449.216 208.726 444.756C209.528 443.087 210.395 441.431 211.458 439.918C211.791 439.448 212.182 438.992 212.56 438.536C212.554 438.47 212.697 438.151 213.108 437.368C214.138 435.406 215.612 433.58 216.916 431.793C219.309 428.513 221.832 425.331 224.082 421.947C225.406 419.958 226.508 417.911 227.642 415.818C228.079 415.009 228.536 414.227 229.044 413.457C229.357 412.994 229.964 412.205 230.466 411.566C230.414 411.625 230.368 411.684 230.316 411.742C230.42 411.618 230.505 411.508 230.59 411.403C231.274 410.543 231.666 410.08 230.59 411.403C230.551 411.456 230.505 411.508 230.466 411.566C233.602 407.732 236.745 404.518 241.244 402.242C244.792 400.449 248.56 399.086 252.297 397.73C252.799 397.547 253.307 397.364 253.81 397.175C253.914 397.136 253.999 397.104 254.083 397.071C254.579 396.823 255.114 396.491 255.316 396.393C257.95 395.141 260.637 394 263.323 392.872C267.04 391.32 270.802 389.918 274.669 388.783C281.711 386.723 289.138 385.445 296.52 385.08C302.362 381.93 309.77 381.2 316.655 381.663C319.355 381.845 322.041 382.217 324.721 382.595C325.412 382.693 326.11 382.791 326.795 382.915C326.971 382.947 327.101 382.973 327.212 382.993C330.394 383.404 333.531 383.906 336.615 384.604C336.889 384.578 337.156 384.538 337.436 384.512C352.506 383.195 365.429 391.046 377.336 399.255C387.156 406.024 397.015 413.431 402.336 424.471C407.892 435.993 408.909 450.149 401.984 461.41C401.241 462.623 400.393 463.81 399.467 464.944C399.03 466.874 398.45 468.804 397.706 470.715C399.102 470.904 400.491 471.106 401.88 471.328C412.756 468.935 424.161 468.309 435.102 467.826C466.44 466.437 497.739 465.048 529.116 464.924C537.606 464.892 546.227 464.488 554.703 465.016C563.571 465.57 572.439 466.118 581.314 466.6C583.603 466.724 585.891 466.848 588.18 466.959C588.689 466.744 589.197 466.535 589.706 466.333C591.623 465.537 593.41 464.468 595.138 463.327C599.05 460.425 603.184 457.654 606.594 454.153C610.402 449.555 614.002 444.789 617.588 440.016C619.89 436.56 622.309 433.202 624.754 429.85C625.237 429.224 625.713 428.605 626.195 427.979C634.313 409.454 645.959 392.148 662.711 380.704C667.529 377.411 672.929 374.875 678.465 373.049C684.757 370.982 691.356 370.623 697.909 370.102C711.615 369.013 725.12 368.165 738.793 370.082C763.878 373.603 785.227 390.283 800.165 410.151C800.478 410.19 800.791 410.23 801.111 410.249C801.111 410.64 801.117 411.032 801.117 411.429C801.509 411.958 801.893 412.492 802.271 413.02C808.668 422.025 813.637 431.93 817.967 442.07C818.893 444.248 819.812 446.426 820.712 448.61C820.979 449.262 821.097 450.938 820.966 449.269C820.947 449.047 820.934 448.897 820.92 448.786C820.881 448.564 820.888 448.493 820.92 448.786C820.96 449.021 821.051 449.419 821.221 449.712C821.546 450.286 821.905 450.847 822.244 451.414C822.466 451.694 822.681 452.027 822.825 452.177C823.516 452.92 824.344 453.546 825.035 454.276C825.237 454.42 825.433 454.57 825.641 454.707C827.2 455.737 828.843 456.559 830.499 457.413C830.519 457.419 830.532 457.426 830.545 457.439C830.89 457.569 831.23 457.7 831.575 457.83C832.625 458.208 833.688 458.547 834.757 458.86C836.837 459.467 838.95 459.956 841.076 460.347C841.558 460.438 842.041 460.51 842.523 460.588C843.325 460.36 845.216 460.888 845.966 460.94C848.196 461.103 850.426 461.175 852.663 461.162C854.997 461.149 857.332 461.032 859.653 460.823C860.122 460.777 864.022 460.399 861.785 460.608C859.562 460.817 863.2 460.347 863.8 460.236C865.874 459.845 867.928 459.362 869.949 458.763C870.132 458.71 870.308 458.652 870.49 458.593C867.549 444.73 869.942 430.45 872.466 416.685C872.655 415.661 872.825 414.638 873.033 413.62C873.079 413.392 873.151 412.877 873.183 412.642C873.275 411.749 873.366 410.856 873.451 409.962C873.783 394.072 874.109 378.181 874.52 362.297C873.32 360.986 872.472 359.395 872.199 357.576C869.597 340.263 869.349 322.925 869.369 305.482ZM683.009 252.763C672.479 254.993 661.257 256.343 650.478 256.343C645.027 256.343 639.184 256.271 634.033 254.335C626.521 251.511 621.403 246.041 618.912 238.385C616.48 230.919 617.216 223.284 618.534 215.707C618.573 215.472 618.618 215.244 618.658 215.015C617.966 213.535 617.64 211.905 617.842 210.223C618.338 206.063 618.736 201.889 619.107 197.716C618.273 183.593 616.643 169.286 619.968 155.339C620.236 154.204 620.692 153.167 621.285 152.222C621.259 151.968 621.233 151.713 621.22 151.459C621.057 147.84 622.883 144.495 625.582 142.2C627.128 140.054 629.338 138.411 632.031 137.818C653.321 133.136 686.804 130.019 697.231 154.726C700.009 161.305 701.365 168.256 702.356 175.305C703.725 185.06 704.619 194.86 704.573 204.719C704.482 220.734 702.865 248.551 683.009 252.763ZM789.224 292.252C789.074 292.546 788.937 292.839 788.813 293.126C789.061 291.3 789.302 289.474 789.55 287.649C789.713 286.912 789.856 286.175 789.974 285.438C790.345 286.853 790.697 288.268 791.043 289.69C790.287 290.452 789.635 291.294 789.224 292.252ZM804.821 248.688C800.518 252.874 794.74 253.572 789.009 253.572C784.881 253.572 780.76 253.213 776.646 252.959C775.765 252.907 774.872 252.9 773.992 252.815C773.913 252.809 773.848 252.802 773.783 252.796C770.888 253.565 767.836 253.944 764.869 254.296C751.626 255.874 737.874 248.225 734.235 234.897C732.807 229.68 733.329 224.425 733.381 219.11C733.44 212.87 733.381 206.63 733.381 200.396V162.133C733.381 161.462 733.446 160.816 733.551 160.177C732.364 156.793 731.725 153.285 731.601 149.666C731.334 141.9 739.706 135.418 747.166 137.811C748.235 138.157 749.265 138.555 750.257 138.998C752.174 138.033 754.364 137.524 756.36 137.374C773.692 136.051 783.936 156.467 789.563 169.71C795.021 182.556 799.213 195.793 802.969 209.219C803.061 209.558 803.204 209.936 803.341 210.327C803.491 210.601 803.641 211.012 803.706 211.54C803.791 211.71 803.876 211.886 803.96 212.055C804.404 212.935 804.847 213.816 805.271 214.702C807.938 220.251 810.155 225.755 810.742 231.923C811.335 238.053 809.275 244.358 804.821 248.688Z" fill="#FF8A8A"/>
<path d="M568.406 304.608C568.406 303.669 568.412 302.73 568.406 301.792C567.878 302.065 567.323 302.3 566.763 302.502C567.31 303.213 567.858 303.911 568.406 304.608Z" fill="#FF8A8A"/>
<path d="M821.323 491.92C821.088 490.531 820.847 489.142 820.625 487.753C820.058 484.16 819.523 480.541 819.243 476.916C819.184 476.16 819.067 475.279 819.1 474.51C819.113 474.223 819.223 473.29 819.295 473.186C819.158 471.732 818.787 470.226 818.663 468.798C818.441 466.124 818.389 463.444 818.193 460.771C818.122 459.806 817.639 456.956 818.122 459.434C817.9 458.28 817.685 457.126 817.346 455.998C817.235 455.62 817.13 455.3 817.059 455.078C816.641 454.133 815.905 452.477 816.087 452.842C815.624 451.851 815.155 450.866 814.653 449.894C813.361 447.384 811.96 444.939 810.525 442.513C808.934 439.814 807.291 437.16 805.504 434.591C804.754 433.508 803.965 432.445 803.196 431.369C803.105 431.246 802.844 430.9 802.668 430.665C802.329 430.241 801.99 429.811 801.65 429.387C798.136 425.064 794.321 420.976 790.2 417.226C789.124 416.248 788.029 415.29 786.914 414.364C786.451 413.979 785.975 413.601 785.505 413.216C783.275 411.632 781.078 410.001 778.854 408.417C774.414 405.261 769.902 402.19 765.161 399.503C762.814 398.173 760.408 396.999 757.975 395.852C759.149 396.419 756.678 395.323 756.019 395.082C754.826 394.645 753.626 394.241 752.407 393.876C747.06 392.259 741.465 391.333 735.955 390.413C734.801 390.224 733.647 390.048 732.499 389.872C732.656 389.898 732.486 389.872 731.463 389.716C731.808 389.768 732.154 389.82 732.499 389.872C732.304 389.84 731.593 389.729 731.345 389.696C730.589 389.605 729.839 389.514 729.083 389.429C726.448 389.142 723.801 388.92 721.153 388.79C718.147 388.64 715.135 388.601 712.129 388.712C710.825 388.757 709.514 388.835 708.217 388.94C707.643 388.985 705.621 389.22 705.667 389.188C703.013 389.598 700.379 390.146 697.797 390.863C696.545 391.209 695.306 391.6 694.08 392.024C693.402 392.259 692.737 392.533 692.058 392.767C687.455 395.076 683.014 397.632 678.802 400.612C678.124 401.094 677.452 401.583 676.781 402.079C676.748 402.105 676.67 402.164 676.572 402.242C676.279 402.483 675.868 402.816 675.737 402.92C675.353 403.233 674.968 403.552 674.59 403.872C672.692 405.47 670.847 407.139 669.06 408.86C665.48 412.316 662.122 416 658.973 419.847C658.575 420.33 655.83 423.923 657.493 421.673C656.795 422.612 656.091 423.545 655.4 424.49C654.024 426.388 652.687 428.311 651.383 430.261C645.684 438.79 640.676 447.762 635.994 456.885C634.84 459.134 633.758 461.41 632.662 463.686C632.656 463.699 632.656 463.705 632.649 463.718C632.48 464.155 632.297 464.592 632.128 465.029C631.632 466.32 631.156 467.618 630.719 468.928C629.043 473.89 627.765 478.989 626.911 484.154C626.839 484.571 626.781 484.988 626.715 485.406C626.683 485.654 626.65 485.94 626.637 486.103C626.52 487.505 626.363 488.901 626.278 490.303C626.128 492.755 626.076 495.213 626.128 497.665C626.181 500.168 626.376 502.653 626.637 505.144C626.605 504.713 626.872 506.702 627.009 507.426C627.23 508.626 627.478 509.819 627.759 511.012C628.398 513.731 629.187 516.411 630.139 519.033C630.315 519.522 630.53 520.011 630.693 520.506C630.712 520.565 630.726 520.604 630.739 520.65C631.228 521.706 631.71 522.769 632.238 523.806C634.488 528.22 636.894 532.556 639.183 536.951C641.582 541.561 644.054 546.145 646.949 550.468C647.431 551.186 647.92 551.896 648.429 552.594C648.533 552.744 648.931 553.246 649.179 553.559C649.257 553.651 649.322 553.722 649.348 553.755C649.798 554.263 650.229 554.779 650.692 555.281C652.465 557.217 654.402 559.01 656.417 560.699C656.684 560.928 657.78 561.775 657.656 561.69C657.812 561.808 657.969 561.925 658.132 562.043C659.142 562.773 660.166 563.477 661.203 564.155C663.439 565.622 665.754 566.972 668.108 568.244C670.482 569.522 672.907 570.708 675.366 571.817C676.018 572.11 676.67 572.397 677.322 572.684C677.354 572.697 677.381 572.71 677.413 572.723C678.593 573.199 679.774 573.675 680.96 574.132C691.602 578.233 702.668 581.044 713.72 583.821C716.778 584.591 719.856 585.295 722.953 585.862C724.075 586.071 725.196 586.26 726.324 586.43C726.422 586.417 728.633 586.651 729.109 586.684C732.271 586.925 735.447 586.945 738.616 586.808C739.972 586.749 741.322 586.664 742.671 586.547C743.441 586.482 744.204 586.391 744.973 586.319C745.091 586.306 745.319 586.28 745.541 586.241C747.366 585.941 749.179 585.602 750.985 585.223C753.144 584.565 755.289 583.847 757.421 583.045C758.334 582.7 759.247 582.348 760.153 581.983C760.844 581.709 762.618 580.972 761.02 581.65C763.524 580.587 766.015 579.524 768.578 578.605C772.236 577.294 775.874 575.951 779.63 574.96C780.817 574.647 782.01 574.523 783.178 574.562C785.075 572.795 786.927 570.976 788.727 569.111C790.005 567.787 791.263 566.437 792.502 565.075C793.767 563.386 795.039 561.71 796.284 560.028C799.812 555.261 803.255 550.429 806.795 545.682C810.519 536.325 813.407 526.668 816.172 516.992C817.698 511.638 819.556 506.343 820.828 500.925C821.056 499.966 821.251 499.008 821.434 498.043C821.441 497.997 821.473 497.73 821.506 497.469C821.525 497.019 821.571 496.308 821.577 496.139C821.597 495.578 821.584 495.017 821.597 494.456C821.61 494.085 821.617 493.824 821.63 493.635C821.538 493.041 821.421 492.468 821.323 491.92ZM756.971 502.366C755.204 507.172 750.62 510.171 745.482 509.48C745.052 509.421 744.621 509.33 744.197 509.219C743.258 512.492 742.189 515.74 740.983 518.928C739.965 520.982 738.818 522.971 737.559 524.882C737.181 525.299 736.803 525.716 736.412 526.12C734.338 527.444 732.219 528.69 730.067 529.87C729.402 530.209 728.73 530.535 728.059 530.848C727.785 530.822 727.511 530.789 727.237 530.763C726.142 530.528 725.04 530.294 723.944 530.079C722.927 529.883 721.903 529.713 720.88 529.511C718.421 528.174 715.872 527.007 713.453 525.605C710.727 523.232 708.047 520.813 705.419 518.348C703 516.007 700.874 513.405 698.788 510.764C696.538 507.426 694.725 503.807 692.854 500.24C691.641 497.893 690.37 495.578 689.189 493.217C688.42 490.87 687.82 488.47 687.357 486.045C686.992 480.972 687.155 475.873 687.266 470.78C687.122 465.101 687.161 459.421 687.566 453.761C689.568 456.356 691.576 458.952 693.578 461.54C693.584 461.547 693.597 461.553 693.604 461.56C695.723 459.519 698.227 457.817 700.842 456.506C702.413 455.717 704.011 455 705.634 454.355C706.697 453.37 707.825 452.444 709.064 451.609C718.539 445.18 730.765 446.725 740.467 451.727C749.466 456.363 754.839 466.007 757.18 475.547C757.969 478.768 758.595 482.322 758.882 485.934C759.227 486.645 759.475 487.427 759.606 488.268C760.408 493.4 759.716 498.395 756.971 502.366Z" fill="#524545"/>
<path d="M385.493 583.463C385.904 583.756 386.302 584.082 386.674 584.428C387.104 584.102 387.534 583.77 387.971 583.443C387.671 583.052 387.391 582.641 387.137 582.224C386.595 582.641 386.041 583.059 385.493 583.463Z" fill="#524545"/>
<path d="M400.322 505.763C400.316 505.731 400.309 505.698 400.303 505.659L400.159 505.033C399.696 502.933 399.442 500.756 399.201 498.63C398.914 496.126 398.81 493.622 398.868 491.099C398.979 485.647 399.709 480.229 399.938 474.784C400.035 472.508 400.035 470.239 399.853 467.97C399.827 467.631 399.618 466.164 399.612 465.988C399.501 465.401 399.39 464.781 399.357 464.631C398.594 460.765 397.382 457.094 396.071 453.39C396.403 454.342 395.686 452.425 395.308 451.649C394.891 450.788 394.454 449.934 393.991 449.099C393.769 448.702 391.18 443.857 390.75 443.987C390.802 443.974 392.348 445.859 391.004 444.359C390.711 444.033 390.424 443.694 390.131 443.374C389.289 442.461 388.364 441.672 387.438 440.851C385.625 439.24 383.838 437.61 382.058 435.967C374.096 428.598 366.428 420.924 358.753 413.262C357.117 411.632 355.474 410.015 353.746 408.482C353.074 407.889 352.383 407.322 351.705 406.748C351.633 406.689 351.587 406.65 351.535 406.604C351.418 406.533 351.287 406.441 351.111 406.324C349.625 405.32 348.138 404.329 346.56 403.468C345.784 403.044 344.962 402.692 344.18 402.275C344.069 402.242 343.984 402.21 343.958 402.203C342.25 401.629 340.548 401.101 338.787 400.716C338.618 400.677 337.907 400.547 337.301 400.436C336.785 400.384 335.768 400.26 335.494 400.24C331.184 399.927 326.939 400.195 322.655 400.697C318.293 401.205 313.924 401.675 309.562 402.19C308.18 402.353 306.797 402.542 305.415 402.699C305.369 402.705 305.337 402.705 305.297 402.712C305.037 402.751 304.776 402.783 304.515 402.822C302.246 403.142 299.983 403.494 297.72 403.885C293.228 404.668 288.761 405.607 284.373 406.82C282.214 407.413 280.076 408.078 277.963 408.821C277.181 409.095 276.405 409.395 275.629 409.695C275.505 409.806 275.374 409.917 275.25 410.028C274.95 410.099 274.651 410.165 274.357 410.23C274.181 410.308 274.005 410.38 273.862 410.452C266.304 414.005 259.138 418.811 252.422 423.747C252.337 423.812 252.272 423.858 252.2 423.91C251.848 424.197 251.483 424.477 251.131 424.764C250.387 425.364 249.65 425.977 248.92 426.597C247.349 427.933 245.81 429.309 244.31 430.731C241.343 433.541 238.526 436.521 235.925 439.67C235.273 440.459 233.831 442.481 235.24 440.479C234.705 441.242 234.131 441.979 233.597 442.735C232.443 444.378 231.347 446.067 230.317 447.789C229.208 449.64 228.185 451.538 227.239 453.475C226.835 454.303 226.463 455.15 226.072 455.985C226.072 455.992 226.072 455.992 226.065 455.998C225.987 456.226 225.928 456.422 225.909 456.474C224.474 460.256 223.379 464.162 222.649 468.139C222.583 468.505 222.492 468.889 222.42 469.268C222.414 469.346 222.414 469.437 222.401 469.574C222.336 470.539 222.212 471.498 222.146 472.456C222.003 474.667 221.957 476.897 221.899 479.107C221.834 481.559 221.905 484.017 222.088 486.462C222.166 487.532 222.277 488.595 222.394 489.657C222.401 489.586 222.629 491.216 222.727 491.751C223.601 496.771 224.846 501.721 226.307 506.592C229.241 516.366 233.114 525.788 236.824 535.282C235.938 533.007 237.255 536.267 237.587 536.971C237.998 537.851 238.422 538.725 238.865 539.586C239.811 541.451 240.828 543.277 241.917 545.063C242.999 546.843 244.147 548.578 245.366 550.26C245.666 550.671 246.084 551.18 246.292 551.427C246.481 551.649 246.442 551.603 246.292 551.427C246.188 551.31 246.025 551.114 245.771 550.827C246.508 551.675 247.199 552.562 247.942 553.403C250.752 556.598 253.869 559.382 257.084 562.154C257.469 562.428 257.84 562.714 258.225 562.988C259.197 563.68 260.181 564.345 261.185 564.99C263.057 566.196 264.98 567.135 266.95 568.159C267.041 568.205 267.119 568.244 267.184 568.283C267.21 568.296 267.23 568.303 267.256 568.309C267.804 568.524 268.345 568.746 268.893 568.955C270.171 569.444 271.462 569.894 272.76 570.324C274.983 571.054 277.226 571.706 279.495 572.287C282.143 572.958 284.81 573.532 287.496 574.028C288.65 574.236 289.804 574.439 290.959 574.621C291.435 574.693 293.834 575.012 293.645 574.999C297.981 575.488 302.317 575.86 306.641 576.447C307.097 576.434 307.977 576.584 308.016 576.61C308.877 576.701 309.738 576.779 310.605 576.806C310.97 576.819 311.349 576.806 311.714 576.825C317.465 574.191 324.083 576.447 327.507 581.761C327.865 582.315 328.152 582.909 328.393 583.509C331.53 582.681 334.647 581.768 337.724 580.737C339.746 580.059 341.761 579.342 343.756 578.579C344.591 578.26 345.425 577.934 346.26 577.595C346.534 577.484 346.827 577.36 347.068 577.255C354.085 574.126 360.873 570.565 367.269 566.288C368.913 565.186 370.497 564.012 372.108 562.864C369.982 564.384 372.779 562.323 372.994 562.147C373.686 561.586 374.364 561.013 375.035 560.432C376.509 559.161 377.878 557.772 379.339 556.487C379.554 556.298 379.711 556.168 379.822 556.083C380.278 555.457 380.741 554.838 381.197 554.212C386.01 547.521 390.515 540.538 396.169 534.513C396.299 533.587 396.43 532.661 396.566 531.735C397.212 527.249 397.897 522.769 398.77 518.322C399.246 515.89 399.722 513.458 400.133 511.013C400.14 510.986 400.14 510.954 400.146 510.921C400.231 509.519 400.244 509.689 400.212 510.152C400.238 509.898 400.264 509.643 400.283 509.382C400.355 508.359 400.394 507.335 400.361 506.311C400.348 506.142 400.335 505.953 400.322 505.763ZM344.63 502.653C342.119 509.245 334.836 510.152 330.793 506.376C331.08 507.289 331.373 508.209 331.654 509.128C331.686 510.765 331.673 512.395 331.634 514.032C331.236 514.273 330.839 514.514 330.434 514.749C329.548 515.257 328.648 515.74 327.735 516.216C324.305 517.298 320.777 518.074 317.224 518.694C315.613 518.785 314.002 518.798 312.385 518.7C308.969 518.472 305.539 518.557 302.122 518.407C300.642 518.12 299.161 517.807 297.694 517.468C295.673 516.47 293.639 515.499 291.637 514.462C287.992 512.317 284.301 510.25 280.558 508.274C278.237 506.044 276.065 503.657 273.979 501.199C272.76 499.308 271.684 497.326 270.706 495.291C269.767 492.846 268.88 490.381 268.162 487.858C267.21 484.076 266.422 480.248 265.652 476.427C265.502 474.588 265.313 472.75 265.267 470.911C265.43 470.324 265.593 469.744 265.756 469.157C266.787 469.567 267.869 469.776 269.01 469.776C271.364 470.304 273.712 470.2 276.065 469.463L280.291 467.677C281.908 466.718 283.323 465.557 284.542 464.194C284.607 463.79 284.686 463.386 284.777 462.988C285.749 458.835 288.103 455.105 291.252 452.223C291.493 451.623 291.728 451.023 291.956 450.416C292.224 450.599 292.504 450.769 292.778 450.938C296.853 447.802 301.952 446.008 307.071 446.335C308.89 446.452 310.625 446.811 312.261 447.365C318.619 445.682 325.642 447.704 330.526 452.164C335.097 456.344 337.848 462.304 339.661 468.126C339.902 468.889 340.131 469.685 340.352 470.487C342.087 474.575 343.534 478.866 344.525 483.124C345.947 489.208 346.919 496.648 344.63 502.653Z" fill="#524545"/>
<path d="M595.402 335.327C595.519 277.802 595.636 220.277 595.76 162.746C595.793 146.308 595.825 129.876 595.864 113.437C595.884 103.787 580.887 103.774 580.867 113.437C580.75 170.962 580.632 228.487 580.508 286.018C580.476 302.457 580.443 318.889 580.404 335.327C580.385 344.978 595.382 344.991 595.402 335.327Z" fill="black"/>
<path d="M589.1 119.84C598.75 119.84 598.763 104.843 589.1 104.843C579.449 104.843 579.43 119.84 589.1 119.84Z" fill="black"/>
<path d="M592.321 116.86C643.456 115.517 694.577 118.014 745.634 120.564C759.855 121.275 774.077 121.992 788.246 123.42C792.282 123.824 795.745 119.684 795.745 115.921C795.745 111.526 792.295 108.833 788.246 108.422C763.148 105.892 737.848 105.123 712.659 103.962C687.014 102.776 661.348 101.811 635.677 101.543C621.227 101.393 606.771 101.485 592.328 101.863C582.69 102.117 582.651 117.114 592.321 116.86Z" fill="black"/>
<path d="M786.096 123.622C799.156 145.199 811.956 166.939 824.469 188.842C836.187 209.355 848.726 230.013 855.188 252.913C861.806 276.368 861.389 300.996 861.552 325.149C861.722 350.964 861.872 376.779 861.715 402.594C861.63 416.913 861.454 431.226 861.135 445.539C861.089 447.488 861.057 449.445 860.998 451.394C860.998 451.466 860.861 452.868 860.946 452.933C860.47 452.542 863.469 450.201 863.397 449.999C863.254 449.562 855.025 449.953 853.734 449.953C846.45 449.947 839.173 449.934 831.89 449.927C822.239 449.914 822.226 464.911 831.89 464.924C838.743 464.931 845.596 464.944 852.449 464.951C858.383 464.957 866.175 466.287 871.268 462.59C877.039 458.397 876.028 450.533 876.158 444.241C876.308 437.303 876.426 430.359 876.517 423.421C876.869 396.523 876.804 369.626 876.654 342.722C876.504 316.281 877.436 289.429 872.885 263.268C868.497 238.079 856.727 215.38 844.279 193.341C829.601 167.35 814.506 141.593 799.045 116.052C794.057 107.81 781.081 115.335 786.096 123.622Z" fill="black"/>
<path d="M832.473 452.789C832.655 432.399 823.918 413.196 810.472 398.166C796.394 382.426 777.152 372.214 756.892 366.861C735.537 361.214 712.324 360.027 690.408 362.557C678.821 363.894 667.586 366.47 657.062 371.627C647.45 376.335 638.928 383.41 631.781 391.326C614.782 410.145 602.941 433.808 596.837 458.339C594.509 467.702 608.966 471.699 611.3 462.323C616.184 442.702 624.889 423.91 637.337 407.921C642.925 400.748 649.446 393.967 657.049 388.933C665.375 383.417 674.68 380.254 684.461 378.467C694.249 376.674 704.343 376.361 714.274 376.472C724.113 376.59 733.953 377.346 743.623 379.211C761.998 382.758 780.047 389.898 793.936 402.75C807.975 415.746 817.645 433.547 817.469 452.796C817.391 462.44 832.388 462.453 832.473 452.789Z" fill="black"/>
<path d="M676.236 392.037C639.949 410.966 616.781 452.059 618.196 492.82C618.92 513.549 625.851 534.174 640.047 549.588C648.067 558.3 658.265 565.27 668.588 570.976C678.597 576.505 689.349 580.939 700.421 583.808C721.437 589.253 744.24 589.26 764.708 581.565C783.637 574.445 800.526 561.847 811.2 544.476C822.963 525.338 825.813 501.297 822.95 479.322C820.4 459.708 813.56 440.57 802.11 424.347C790.262 407.55 774.313 394.378 755.057 386.977C734.426 379.048 710.613 378.605 689.597 385.353C684.185 387.088 678.916 389.331 673.869 391.939C665.288 396.367 672.865 409.317 681.44 404.889C698.367 396.145 718.438 393.472 737.093 397.345C754.803 401.023 770.263 410.191 782.353 423.486C806.179 449.679 815.888 490.688 804.197 524.458C798.485 540.961 785.9 554.068 770.772 562.401C754.477 571.38 736.056 574.178 717.701 571.961C697.702 569.548 678.525 560.967 662.282 549.256C646.998 538.236 637.673 522.652 634.328 504.198C628.166 470.187 644.116 432.328 672.135 412.14C675.838 409.473 679.738 407.1 683.787 404.987C692.368 400.52 684.791 387.571 676.236 392.037Z" fill="black"/>
<path d="M687.83 451.589C671.613 466.117 668.19 490.635 677.977 509.695C687.915 529.041 710.411 541.378 732.04 537.596C743.77 535.549 752.834 527.535 759.987 518.471C767.049 509.525 772.109 499.705 773.041 488.216C774.574 469.358 764.069 449.138 747.018 440.55C727.143 430.534 700.845 435.386 686.513 452.685C683.931 455.802 683.461 460.236 686.513 463.287C689.173 465.948 694.52 466.424 697.115 463.287C706.185 452.346 720.896 447.879 734.133 451.531C747.239 455.143 756.629 467.793 757.966 480.724C758.735 488.19 757.49 494.632 753.636 501.407C749.385 508.88 743.105 516.893 735.32 520.884C721.346 528.05 703.479 519.749 694.69 508.215C684.048 494.241 685.039 474.196 698.426 462.199C701.445 459.492 701.178 454.348 698.426 451.596C695.433 448.59 690.855 448.877 687.83 451.589Z" fill="black"/>
<path d="M597.678 454.224C551.897 453.376 506.109 452.952 460.321 452.959C447.365 452.965 434.402 453.004 421.445 453.069C411.795 453.122 411.775 468.119 421.445 468.067C467.233 467.813 513.027 467.989 558.809 468.595C571.765 468.765 584.721 468.973 597.678 469.214C607.335 469.397 607.335 454.4 597.678 454.224Z" fill="black"/>
<path d="M588.354 331.859C532.902 335.301 477.399 337.799 421.863 339.344C366.548 340.883 311.201 341.47 255.861 341.118C224.516 340.916 193.178 340.407 161.84 339.605C152.183 339.357 152.19 354.355 161.84 354.602C217.376 356.03 272.938 356.513 328.494 356.043C383.828 355.574 439.162 354.152 494.45 351.792C525.769 350.455 557.068 348.806 588.354 346.869C592.396 346.621 595.852 343.602 595.852 339.37C595.852 335.49 592.416 331.604 588.354 331.859Z" fill="black"/>
<path d="M606.526 137.928C604.348 165.608 603.879 193.412 605.189 221.144C605.522 228.239 605.972 235.327 606.539 242.408C607.087 249.242 607.152 256.871 613.555 261.024C618.706 264.363 625.455 263.887 631.324 264.057C638.196 264.259 645.063 264.402 651.935 264.493C658.808 264.585 665.681 264.611 672.554 264.585C679.583 264.559 686.886 264.969 693.87 264.187C697.384 263.796 700.742 262.179 702.548 258.964C704.342 255.769 704.381 251.804 704.824 248.251C705.691 241.28 706.37 234.29 706.859 227.287C708.782 199.842 707.739 172.298 704.035 145.049C703.533 141.365 702.979 137.654 700.331 134.798C697.475 131.727 693.733 130.932 689.722 130.619C681.839 129.999 673.903 129.732 666 129.412C650.39 128.786 634.767 128.499 619.15 128.519C609.499 128.532 609.486 143.529 619.15 143.516C631.35 143.497 643.543 143.666 655.737 144.045C661.938 144.234 668.139 144.481 674.34 144.775C677.333 144.918 680.326 145.075 683.319 145.238C684.604 145.31 685.882 145.381 687.166 145.46C687.545 145.479 690.505 145.903 690.694 145.773C687.91 147.709 688.66 141.782 688.894 144.631C688.933 145.094 689.077 145.577 689.155 146.033C689.351 147.207 689.488 148.387 689.644 149.568C690.048 152.73 690.414 155.906 690.746 159.081C691.379 165.217 691.874 171.373 692.22 177.534C692.898 189.643 693.022 201.785 692.585 213.9C692.337 220.701 691.92 227.502 691.32 234.283C691.02 237.674 690.681 241.065 690.29 244.443C690.094 246.131 689.892 247.82 689.677 249.509C689.501 250.898 689.618 251.38 689.096 252.065C689.996 251.165 690.89 250.272 691.789 249.372C691.033 249.887 686.971 249.45 685.451 249.47C682.23 249.516 679.009 249.548 675.788 249.568C669.561 249.607 663.333 249.6 657.1 249.548C650.657 249.489 644.215 249.385 637.773 249.229C634.767 249.157 631.761 249.072 628.755 248.974C626.427 248.903 623.708 249.105 622.045 248.524C621.132 248.205 621.967 248.524 622.071 248.727C621.934 248.459 621.967 247.364 621.921 246.901C621.634 243.686 621.386 240.465 621.158 237.244C620.708 231.017 620.35 224.789 620.082 218.556C619.534 205.873 619.352 193.171 619.535 180.475C619.743 166.273 620.421 152.078 621.536 137.922C621.856 133.879 617.865 130.423 614.038 130.423C609.708 130.43 606.845 133.872 606.526 137.928Z" fill="black"/>
<path d="M723.516 144.482C725.948 181.108 726.444 217.832 724.996 254.511C724.618 264.161 739.616 264.148 739.994 254.511C741.441 217.832 740.946 181.108 738.514 144.482C738.246 140.439 735.26 136.983 731.015 136.983C727.168 136.983 723.249 140.42 723.516 144.482Z" fill="black"/>
<path d="M737.854 146.327C746.526 145.055 757.376 143.653 765.24 147.605C774.636 152.326 777.825 165.211 781.092 174.418C785.532 186.95 789.425 199.685 793.481 212.342C795.555 218.817 797.635 225.298 799.708 231.773C800.745 235.014 801.782 238.248 802.825 241.489C803.347 243.106 803.862 244.73 804.383 246.347C804.644 247.155 804.905 247.964 805.159 248.779C805.531 250.468 805.701 250.396 805.661 248.564C806.307 247.462 806.946 246.36 807.592 245.258C810.461 244.397 810.832 244.11 808.72 244.384C807.865 244.443 807.011 244.501 806.164 244.553C804.886 244.638 803.601 244.716 802.323 244.788C799.336 244.964 796.35 245.114 793.357 245.245C787.169 245.512 780.968 245.695 774.773 245.779C762.593 245.949 750.412 245.76 738.238 245.238C734.189 245.062 730.74 248.811 730.74 252.737C730.74 256.943 734.176 260.059 738.238 260.236C755.746 260.985 773.28 261.044 790.795 260.346C794.85 260.183 798.906 259.988 802.962 259.746C807.161 259.499 812.456 259.929 816.16 257.621C820.815 254.719 821.096 249.529 819.622 244.788C818.357 240.726 817.027 236.69 815.729 232.64C810.422 216.078 805.185 199.489 799.793 182.953C797.191 174.972 794.485 167.017 791.342 159.231C788.486 152.15 785.402 144.86 779.69 139.552C767.209 127.965 749.408 129.575 733.863 131.851C729.853 132.438 727.649 137.518 728.627 141.078C729.807 145.388 733.83 146.914 737.854 146.327Z" fill="black"/>
<path d="M152.232 351.341C147.792 384.649 148.007 418.328 152.591 451.609C153.054 454.967 153.458 458.377 155.336 461.312C157.814 465.185 161.818 467.232 166.265 467.852C173.953 468.915 182.103 468.171 189.85 468.165C193.671 468.158 197.961 468.686 201.698 467.702C206.66 466.398 209.04 462.59 210.866 458.123C213.304 452.157 215.893 446.282 218.86 440.55C224.957 428.767 232.338 417.636 241.956 408.429C252.03 398.785 264.296 392.356 277.682 388.607C304.541 381.095 334.973 382.295 360.005 395.264C384.881 408.155 403.98 433.358 405.402 461.742C405.604 465.785 408.701 469.241 412.901 469.241C416.806 469.241 420.601 465.804 420.399 461.742C419.036 434.525 404.73 409.238 383.382 392.571C360.129 374.418 329.86 367.134 300.694 369.456C285.109 370.701 269.688 374.235 255.525 380.958C242.928 386.937 231.882 396.053 223.046 406.799C214.289 417.454 207.292 429.321 201.6 441.861C200.048 445.277 198.581 448.74 197.166 452.215C197.049 452.509 196.331 453.989 196.396 454.126C196.396 454.119 197.133 453.526 197.212 453.526C200.27 453.461 196.364 453.148 196.116 453.148C194.864 453.154 193.606 453.148 192.354 453.154C188.591 453.161 184.829 453.161 181.06 453.167C176.998 453.174 172.707 453.565 168.664 453.115C168.567 453.102 167.386 453.043 167.432 452.861C167.386 453.043 170.294 452.933 168.208 453.852C168.09 453.904 167.158 448.44 167.132 448.238C166.539 443.895 166.05 439.533 165.632 435.17C164.745 425.944 164.204 416.684 164.022 407.419C163.65 388.665 164.745 369.919 167.223 351.328C167.758 347.305 163.396 343.83 159.725 343.83C155.238 343.843 152.774 347.305 152.232 351.341Z" fill="black"/>
<path d="M242.256 409.388C228.236 423.003 219.512 440.876 212.593 458.899C208.831 468.699 206.249 479.093 206.125 489.637C206.001 500.298 208.257 511.083 212.241 520.943C227.095 557.706 262.046 582.999 301.469 586.403C321.833 588.164 342.588 583.827 360.853 574.77C369.662 570.402 378.184 564.742 384.842 557.445C391.702 549.927 396.403 540.954 399.885 531.454C413.396 494.606 412.144 447.944 385.755 416.958C359.099 385.659 312.124 381.18 274.898 392.702C269.851 394.26 264.947 396.197 260.129 398.349C256.432 399.998 255.551 405.384 257.436 408.605C259.666 412.414 263.982 412.948 267.693 411.298C298.183 397.703 339.635 396.914 366.5 419.038C393.599 441.359 397.544 481.134 389.706 513.294C385.664 529.882 378.915 545.506 364.367 555.411C349.852 565.296 332.292 570.923 314.772 571.686C280.838 573.16 248.105 555.763 231.236 526.1C226.495 517.767 223.053 508.58 221.683 499.059C220.216 488.829 221.716 478.787 224.865 469.026C230.59 451.322 239.38 433.084 252.858 419.997C259.796 413.255 249.187 402.652 242.256 409.388Z" fill="black"/>
<path d="M286.899 441.502C270.323 452.815 258.534 471.875 260.529 492.48C262.505 512.89 276.746 531.063 297.71 534.18C308.391 535.764 318.654 533.058 327.79 527.418C336.482 522.058 344.926 514.781 349.49 505.469C358.782 486.52 353.983 463.796 339.109 449.164C325.794 436.064 296.36 424.418 283.906 445.095C278.918 453.383 291.881 460.934 296.856 452.665C297.932 450.879 299.066 450.116 301.146 449.516C303.605 448.805 306.754 448.779 309.095 449.183C315.407 450.285 321.53 453.578 326.336 457.758C337.212 467.226 342.52 481.943 337.381 495.878C334.956 502.45 329.876 507.673 324.288 511.729C318.172 516.163 311.266 519.847 303.631 519.736C289.546 519.528 278.689 508.423 275.938 495.01C272.677 479.12 281.539 463.268 294.469 454.446C297.808 452.163 299.308 447.853 297.162 444.189C295.226 440.883 290.263 439.207 286.899 441.502Z" fill="black"/>
<path d="M256.941 416.646C257.488 416.183 258.036 415.674 258.63 415.27C256.941 416.424 258.969 415.042 259.288 414.813C260.468 413.972 261.688 413.183 262.927 412.427C266.272 410.386 267.843 405.613 265.62 402.17C263.455 398.812 258.943 397.293 255.363 399.477C252.187 401.414 249.194 403.644 246.345 406.037C243.326 408.567 243.541 414.064 246.345 416.639C249.54 419.593 253.72 419.345 256.941 416.646Z" fill="black"/>
<path d="M98.6168 315.55C74.6796 259.16 52.4443 202.045 31.8848 144.338C26.0488 127.958 20.3563 111.533 14.7877 95.0617C13.4901 91.2276 9.62993 88.7041 5.56106 89.8256C1.81823 90.8559 -0.979112 95.1986 0.325011 99.0523C20.2064 157.907 41.8222 216.176 65.1595 273.746C71.8562 290.263 78.7028 306.714 85.6668 323.12C87.2514 326.85 92.7482 327.672 95.9238 325.813C99.784 323.551 100.201 319.293 98.6168 315.55Z" fill="black"/>
<path d="M12.6406 97.787C78.3749 99.7497 144.109 101.712 209.87 102.73C275.382 103.747 340.914 103.825 406.414 102.032C443.366 101.021 480.306 99.4041 517.199 97.0372C521.242 96.7763 524.698 93.7768 524.698 89.5384C524.698 85.6782 521.262 81.7789 517.199 82.0397C451.608 86.239 385.887 88.0583 320.166 88.3908C254.627 88.7234 189.088 87.5888 123.569 85.9325C86.5909 85.0001 49.619 83.8916 12.6406 82.7896C2.98353 82.5027 2.99657 97.5001 12.6406 97.787Z" fill="black"/>
<path d="M105.051 328.891C156.245 328.754 207.438 328.617 258.631 328.48C309.61 328.343 360.588 328.206 411.559 328.069C440.413 327.991 469.26 327.913 498.114 327.841C507.765 327.815 507.784 312.818 498.114 312.844C446.921 312.981 395.727 313.118 344.534 313.255C293.556 313.392 242.578 313.528 191.606 313.665C162.752 313.744 133.905 313.822 105.051 313.894C95.4009 313.92 95.3813 328.917 105.051 328.891Z" fill="black"/>
<path d="M508.141 312.29C529.196 244.429 550.251 176.563 571.306 108.703C577.214 89.6692 583.115 70.6355 589.023 51.6018C591.892 42.3621 577.416 38.4106 574.56 47.6177C553.505 115.478 532.45 183.344 511.395 251.204C505.487 270.238 499.586 289.272 493.678 308.305C490.816 317.539 505.285 321.497 508.141 312.29Z" fill="black"/>
<path d="M593.825 59.3617C638.954 53.9691 684.624 54.0343 729.74 59.5508C734.044 60.079 736.867 55.6645 737.239 52.0521C737.8 46.5552 738.361 41.0648 738.928 35.568C739.417 30.7818 740.232 25.8914 740.141 21.0661C739.952 10.6136 734.005 2.43019 723.357 0.969571C718.349 0.284907 713.25 0.552254 708.209 0.584857C702.602 0.61746 696.994 0.669619 691.38 0.741346C680.164 0.884799 668.949 1.09346 657.733 1.37385C635.517 1.93462 613.315 2.77578 591.119 3.90385C579.916 4.47114 568.714 5.11016 557.518 5.82091C552.373 6.14694 546.668 5.9448 541.705 7.47714C536.75 9.00297 532.961 12.2502 530.157 16.5473C527.347 20.8444 525.873 26.0153 524.243 30.8405C522.267 36.6895 520.305 42.545 518.348 48.4005C514.371 60.3202 510.439 72.2464 506.546 84.1922C505.294 88.0394 508.007 92.3821 511.782 93.4189C515.851 94.5339 519.75 92.043 521.009 88.1828C527.301 68.8688 533.522 49.509 540.225 30.3319C541.099 27.8345 542.168 24.9133 543.857 23.1788C545.944 21.027 550.365 21.2878 553.638 21.0791C563.973 20.4075 574.308 19.8011 584.65 19.2469C625.58 17.0755 666.562 15.8561 707.551 15.5953C711.946 15.5692 717.299 15.0541 721.296 15.7257C724.426 16.2539 724.915 17.4602 725.104 20.1337C725.443 24.8089 724.524 29.6603 724.048 34.303C723.441 40.2172 722.835 46.1379 722.235 52.0521C724.732 49.5547 727.236 47.0508 729.734 44.5534C684.618 39.0369 638.947 38.9782 593.818 44.3643C589.795 44.8468 586.319 47.4681 586.319 51.863C586.326 55.5406 589.775 59.8442 593.825 59.3617Z" fill="black"/>
<path d="M442.472 126.595C436.062 116.012 421.097 118.327 414.772 127.665C411.519 132.464 410.69 138.365 410.24 144.012C409.745 150.272 409.471 156.564 409.23 162.837C408.219 188.691 408.734 214.611 410.769 240.4C411.271 246.796 411.871 253.18 412.562 259.564C413.194 265.426 413.69 271.477 415.496 277.124C417.315 282.816 420.243 288.144 425.401 291.443C430.891 294.951 438.123 294.716 442.733 289.852C446.723 285.64 448.771 279.067 450.375 273.609C452.064 267.878 452.99 261.944 453.603 256.017C454.841 244.09 454.287 232.047 454.013 220.088C453.355 190.856 452.696 161.618 452.031 132.386C451.816 122.748 436.819 122.716 437.034 132.386C437.536 154.745 438.044 177.098 438.547 199.457C438.794 210.444 439.088 221.431 439.283 232.418C439.446 241.854 439.557 251.472 437.94 260.803C437.105 265.621 435.906 270.434 434.08 274.979C433.917 275.389 431.85 279.654 431.791 279.608C431.524 279.393 433.519 278.937 433.552 278.891C433.545 278.897 433.01 278.493 432.671 278.193C429.952 275.794 429.17 270.786 428.537 267.252C427.677 262.4 427.305 257.445 426.829 252.548C424.671 230.41 423.634 208.168 423.725 185.926C423.777 173.524 424.175 161.122 424.925 148.739C425.179 144.547 424.925 139.252 427.429 135.639C427.54 135.476 427.494 135.568 427.742 135.281C428.485 134.42 427.116 135.659 428.055 135.007C428.642 134.603 428.283 134.798 428.035 134.903C428.524 134.701 429.046 134.609 429.548 134.459C428.524 134.759 429.633 134.538 429.868 134.498C429.255 134.603 429.424 134.44 430.096 134.544C430.004 134.531 429.131 134.101 429.959 134.505C430.722 134.877 429.646 134.381 429.515 134.166C434.517 142.408 447.486 134.883 442.472 126.595Z" fill="black"/>
<path d="M320.161 131.467C315.851 144.71 316.255 158.86 316.34 172.618C316.425 187.022 316.666 201.42 317.051 215.817C317.436 230.215 317.97 244.606 318.648 258.997C319.19 270.467 319.242 284.245 329.584 291.672C340.166 299.268 354.421 293.295 360.804 283.162C368.049 271.666 366.868 255.723 367.175 242.695C367.853 214.037 366.745 185.353 364.378 156.786C363.302 143.817 363.53 126.146 350.932 118.347C340.199 111.703 324.113 117.519 323.304 130.847C323.056 134.896 326.93 138.346 330.803 138.346C335.067 138.346 338.054 134.903 338.302 130.847C338.289 131.101 338.145 132.321 338.354 130.834C338.328 131.017 337.8 131.812 338.269 131.173C338.823 130.417 338.034 131.414 338.067 131.427C337.786 131.297 339.175 130.854 338.067 131.369C338.373 131.225 338.628 130.997 338.941 130.873C340.036 130.456 337.956 131.323 339.071 130.867C339.391 130.736 339.762 130.678 340.095 130.606C338.771 130.886 340.271 130.632 340.603 130.606C340.962 130.58 341.334 130.606 341.692 130.632C340.44 130.541 341.562 130.612 341.849 130.691C342.201 130.782 342.547 130.873 342.886 130.997C344.027 131.395 341.992 130.547 343.049 131.121C343.753 131.499 343.133 131.121 342.99 130.971C343.427 131.434 343.922 131.793 344.346 132.275C344.979 132.999 345.305 133.573 345.813 134.551C347.47 137.759 348.024 141.984 348.382 145.61C348.989 151.674 349.471 157.751 349.934 163.828C351.786 188.359 352.68 212.968 352.275 237.563C352.178 243.765 351.988 249.966 351.721 256.16C351.493 261.338 351.271 266.424 349.784 271.419C348.702 275.051 346.492 278.2 342.983 279.648C340.616 280.626 338.393 280.156 336.991 278.317C335.433 276.283 334.461 271.745 334.207 268.954C333.692 263.294 333.568 257.588 333.32 251.915C332.779 239.676 332.348 227.43 332.029 215.178C331.657 201.211 331.429 187.237 331.344 173.27C331.266 160.601 330.659 147.664 334.63 135.464C335.882 131.617 333.17 127.274 329.394 126.237C325.319 125.115 321.42 127.6 320.161 131.467Z" fill="black"/>
<path d="M228.806 137.1C228.389 166.848 227.978 196.595 227.561 226.335C227.372 239.937 226.224 253.937 227.717 267.487C229.106 280.085 233.821 295.206 246.764 300.298C253.304 302.868 260.268 301.185 265.524 296.719C270.532 292.461 273.003 286.103 273.936 279.745C276.068 265.276 275.937 250.227 276.081 235.634C276.224 220.838 275.97 206.036 275.624 191.248C275.279 176.505 275.194 161.683 273.903 146.986C273.244 139.487 272.077 131.636 267.787 125.246C263.607 119.012 256.865 114.494 249.262 114.044C234.525 113.17 224.816 131.03 234.649 142.382C237.303 145.447 242.532 145.101 245.251 142.382C248.29 139.344 247.912 134.851 245.251 131.78C245.493 132.06 245.799 132.732 245.18 131.525C245.33 131.825 245.453 131.956 245.467 132.301C245.499 133.358 245.61 130.065 245.447 131.734C245.532 130.828 246.119 130.176 246.712 129.445C246.229 130.032 247.723 129.002 246.96 129.25C246.269 129.471 247.436 129.1 247.455 129.1C247.612 129.067 248.89 128.995 249.203 129.041C250.676 129.276 252.215 130.221 253.435 131.33C256.923 134.486 258.006 139.624 258.619 144.091C259.375 149.633 259.518 155.319 259.76 160.901C260.836 185.77 261.331 210.744 261.083 235.634C260.96 248.212 260.601 260.81 259.642 273.355C259.342 277.287 259.003 282.302 255.978 285.151C253.552 287.433 251.707 286.755 249.385 284.388C242.956 277.848 242.33 267.03 242.193 258.397C241.998 246.432 242.441 234.427 242.61 222.462C243.008 194.012 243.406 165.556 243.804 137.107C243.934 127.45 228.937 127.443 228.806 137.1Z" fill="black"/>
<path d="M138.783 137.824C136.364 165.719 134.962 193.699 134.63 221.698C134.473 234.961 133.932 248.498 135.119 261.722C136.162 273.348 140.081 289.591 153.129 293.151C159.78 294.964 166.072 291.828 169.913 286.448C173.329 281.662 174.497 275.559 175.442 269.879C177.685 256.414 177.803 242.806 177.913 229.191C178.142 200.996 178.363 172.794 178.592 144.599C178.65 137.087 179.139 129.295 176.022 122.266C173.238 115.986 167.546 111.154 160.595 110.47C153.409 109.759 146.608 114.265 143.159 120.394C139.201 127.417 139.846 135.411 141.02 143.06C141.633 147.063 146.667 149.28 150.246 148.296C154.524 147.122 156.102 143.092 155.482 139.069C154.889 135.196 154.224 129.843 156.865 126.758C158.469 124.88 159.754 125.102 161.058 126.413C163.685 129.047 163.653 133.924 163.653 137.7C163.659 143.471 163.568 149.241 163.522 155.012C163.327 179.086 163.138 203.167 162.942 227.241C162.851 238.574 162.903 249.946 161.651 261.22C161.11 266.065 160.477 271.379 158.678 275.937C158.697 275.891 158.143 277.072 157.934 277.424C157.563 278.05 157.393 278.297 157.158 278.558C156.937 278.813 156.513 278.532 156.924 278.708C157.576 278.976 156.278 278.232 156.265 278.219C150.083 272.005 149.907 261.8 149.725 253.578C149.464 241.88 149.51 230.169 149.679 218.464C150.07 191.541 151.459 164.643 153.787 137.817C154.139 133.774 150.09 130.319 146.288 130.319C141.933 130.325 139.135 133.774 138.783 137.824Z" fill="black"/>
</g>
<defs>
<clipPath id="clip0_397_21178">
<rect width="877.005" height="588.29" fill="white"/>
</clipPath>
</defs>
</svg>
