<svg width="27" height="27" viewBox="0 0 27 27" fill="none" xmlns="http://www.w3.org/2000/svg">
<g filter="url(#filter0_di_351_19639)">
<path d="M1.88895 6.11824C1.88895 6.11824 1.25332 3.71509 1.88895 2.41687C2.49121 1.18679 3.29381 0.597404 4.60328 0.196048C5.61676 -0.114585 7.31762 0.196048 7.31762 0.196048L13.4866 6.11824L19.6555 0.196048C19.6555 0.196048 21.6909 -0.24506 22.8634 0.196048C24.0768 0.652547 24.775 1.24566 25.331 2.41687C25.9508 3.72269 25.331 6.11824 25.331 6.11824L19.6555 12.0404L25.331 17.2223C25.331 17.2223 25.8545 19.5764 25.331 20.9237C24.8121 22.259 24.1901 23.0975 22.8634 23.6381C21.7032 24.1107 19.6555 23.6381 19.6555 23.6381L13.4866 18.2094L7.31762 23.6381C7.31762 23.6381 5.6089 23.9733 4.60328 23.6381C3.18112 23.164 2.45216 22.313 1.88895 20.9237C1.34587 19.5841 1.88895 17.2223 1.88895 17.2223L7.31762 12.0404L1.88895 6.11824Z" fill="#F9F2E7"/>
</g>
<defs>
<filter id="filter0_di_351_19639" x="0.606445" y="0" width="27" height="26.8481" filterUnits="userSpaceOnUse" color-interpolation-filters="sRGB">
<feFlood flood-opacity="0" result="BackgroundImageFix"/>
<feColorMatrix in="SourceAlpha" type="matrix" values="0 0 0 0 0 0 0 0 0 0 0 0 0 0 0 0 0 0 127 0" result="hardAlpha"/>
<feOffset dy="2"/>
<feGaussianBlur stdDeviation="0.5"/>
<feComposite in2="hardAlpha" operator="out"/>
<feColorMatrix type="matrix" values="0 0 0 0 0.164706 0 0 0 0 0.109804 0 0 0 0 0.00784314 0 0 0 0.24 0"/>
<feBlend mode="normal" in2="BackgroundImageFix" result="effect1_dropShadow_351_19639"/>
<feBlend mode="normal" in="SourceGraphic" in2="effect1_dropShadow_351_19639" result="shape"/>
<feColorMatrix in="SourceAlpha" type="matrix" values="0 0 0 0 0 0 0 0 0 0 0 0 0 0 0 0 0 0 127 0" result="hardAlpha"/>
<feOffset dx="2" dy="2"/>
<feGaussianBlur stdDeviation="1"/>
<feComposite in2="hardAlpha" operator="arithmetic" k2="-1" k3="1"/>
<feColorMatrix type="matrix" values="0 0 0 0 1 0 0 0 0 1 0 0 0 0 1 0 0 0 1 0"/>
<feBlend mode="normal" in2="shape" result="effect2_innerShadow_351_19639"/>
</filter>
</defs>
</svg>
