<svg width="41" height="43" viewBox="0 0 41 43" fill="none" xmlns="http://www.w3.org/2000/svg">
<g filter="url(#filter0_di_848_14789)">
<path d="M2.14285 10.1947C2.14285 10.1947 1.14688 6.42913 2.14285 4.39493C3.08654 2.46751 4.34415 1.54399 6.39598 0.9151C7.98401 0.428365 10.6491 0.9151 10.6491 0.9151L20.3153 10.1947L29.9815 0.9151C29.9815 0.9151 33.1707 0.223923 35.0079 0.9151C36.9093 1.63039 38.0033 2.55976 38.8744 4.39493C39.8457 6.44105 38.8744 10.1947 38.8744 10.1947L29.9815 19.4742L38.8744 27.5938C38.8744 27.5938 39.6948 31.2824 38.8744 33.3935C38.0614 35.4858 37.0868 36.7998 35.0079 37.6467C33.1901 38.3873 29.9815 37.6467 29.9815 37.6467L20.3153 29.1404L10.6491 37.6467C10.6491 37.6467 7.9717 38.1719 6.39598 37.6467C4.16758 36.9039 3.02536 35.5704 2.14285 33.3935C1.2919 31.2945 2.14285 27.5938 2.14285 27.5938L10.6491 19.4742L2.14285 10.1947Z" fill="#F9F2E7"/>
</g>
<defs>
<filter id="filter0_di_848_14789" x="0.316198" y="0.60791" width="41.7579" height="41.5199" filterUnits="userSpaceOnUse" color-interpolation-filters="sRGB">
<feFlood flood-opacity="0" result="BackgroundImageFix"/>
<feColorMatrix in="SourceAlpha" type="matrix" values="0 0 0 0 0 0 0 0 0 0 0 0 0 0 0 0 0 0 127 0" result="hardAlpha"/>
<feOffset dy="2.76799"/>
<feGaussianBlur stdDeviation="0.691999"/>
<feComposite in2="hardAlpha" operator="out"/>
<feColorMatrix type="matrix" values="0 0 0 0 0.164706 0 0 0 0 0.109804 0 0 0 0 0.00784314 0 0 0 0.24 0"/>
<feBlend mode="normal" in2="BackgroundImageFix" result="effect1_dropShadow_848_14789"/>
<feBlend mode="normal" in="SourceGraphic" in2="effect1_dropShadow_848_14789" result="shape"/>
<feColorMatrix in="SourceAlpha" type="matrix" values="0 0 0 0 0 0 0 0 0 0 0 0 0 0 0 0 0 0 127 0" result="hardAlpha"/>
<feOffset dx="2.76799" dy="2.76799"/>
<feGaussianBlur stdDeviation="1.384"/>
<feComposite in2="hardAlpha" operator="arithmetic" k2="-1" k3="1"/>
<feColorMatrix type="matrix" values="0 0 0 0 1 0 0 0 0 1 0 0 0 0 1 0 0 0 1 0"/>
<feBlend mode="normal" in2="shape" result="effect2_innerShadow_848_14789"/>
</filter>
</defs>
</svg>
