<svg width="392" height="736" viewBox="0 0 392 736" fill="none" xmlns="http://www.w3.org/2000/svg">
<g clip-path="url(#clip0_397_21362)">
<path d="M327.215 136.597C313.638 136.928 300.067 137.252 286.489 137.583C275.818 137.841 275.851 153.703 286.489 154.133C298.12 154.603 309.745 154.305 321.33 153.239C325.779 152.829 329.605 149.731 329.605 144.964C329.605 140.324 325.812 136.881 321.33 136.689C270.648 134.531 219.886 134.511 169.203 136.63C164.735 136.815 160.928 140.297 160.928 144.905C160.928 149.307 164.715 153.286 169.203 153.18C192.128 152.637 215.007 154.471 237.515 158.873C238.25 153.458 238.984 148.036 239.713 142.621C190.844 141.886 141.989 140.668 93.1465 138.953C79.3505 138.47 65.5545 137.94 51.7584 137.378C52.4933 142.793 53.2281 148.215 53.9563 153.63C70.4135 150.783 87.3341 153.279 103.566 156.351C104.301 150.935 105.036 145.514 105.764 140.099C79.0724 140.529 52.3741 140.959 25.6824 141.389C16.2225 141.542 14.6204 154.802 23.4845 157.642C35.2813 161.428 47.3098 164.361 59.5303 166.433C60.9999 161.11 62.4629 155.795 63.9326 150.472C56.1011 149.333 48.3028 148.718 40.3853 148.963C35.9168 149.102 32.1104 152.67 32.1104 157.238C32.1104 162.097 35.9235 165.049 40.3853 165.513C49.0906 166.42 57.8157 166.625 66.5607 166.135C71.0225 165.883 74.8356 162.514 74.8356 157.86C74.8356 153.378 71.049 149.578 66.5607 149.585C58.246 149.598 49.9578 150.108 41.7027 151.121C37.2673 151.664 33.4278 154.537 33.4278 159.396C33.4278 164.156 37.2276 167.333 41.7027 167.671C71.519 169.941 101.448 170.623 131.337 169.663C160.789 168.717 189.884 165.374 219.177 162.467C235.363 160.859 251.959 159.793 268.125 162.236C268.86 156.821 269.595 151.399 270.323 145.984C239.812 145.56 209.307 145.136 178.796 144.713C169.329 144.58 167.734 158.303 176.598 160.965C203.164 168.955 231.438 168.644 258.917 168.267C287.548 167.876 316.147 166.439 344.732 164.798C352.292 164.361 359.964 164.248 367.491 163.394C375.62 162.474 382.624 158.376 383.326 149.565C383.578 146.361 381.042 143.131 378.242 142.005C374.952 140.681 371.874 141.502 369.206 143.713C369.689 143.316 374.958 142.912 375.329 142.899C375.475 142.892 375.905 143.561 375.905 143.561C375.991 143.435 376.024 143.72 375.985 143.726C376.004 143.72 375.885 142.204 375.879 142.091C375.654 138.761 375.223 135.676 373.754 132.651C371.887 128.812 368.464 125.68 364.618 123.873C355.615 119.65 345.678 120.378 336.013 120.596C311.903 121.146 287.787 121.741 263.677 122.198C239.554 122.655 215.424 122.933 191.301 122.688C167.336 122.443 143.405 121.099 119.448 120.742C106.287 120.543 93.0935 120.808 79.9992 122.225C73.0747 122.979 66.2231 124.131 59.3515 125.27C53.3803 126.256 47.1377 127.024 41.1599 125.773C40.4251 131.188 39.6902 136.61 38.962 142.025C121.738 149.062 204.878 151.684 287.932 149.817C310.268 149.314 332.948 148.062 355.052 152.087C365.499 153.994 369.583 139.688 359.454 136.127C350.65 133.035 341.594 132.598 332.425 133.935C334.55 138.98 336.675 144.018 338.8 149.062C339.568 148.466 340.303 147.99 341.157 147.526C340.296 147.99 342.646 147.294 341.481 147.4C343.01 147.261 343.772 147.361 344.553 147.765C348.525 149.803 353.53 148.797 355.873 144.799C358.038 141.098 356.893 135.524 352.907 133.479C345.85 129.858 336.933 129.771 330.452 134.776C322.919 140.595 327.281 151.293 336.827 149.903C343.01 149.002 349.227 150.042 355.059 152.094C356.528 146.772 357.991 141.456 359.461 136.133C338.807 132.373 317.927 132.539 297.022 133.055C276.076 133.571 255.124 133.876 234.172 133.863C192.638 133.829 151.104 132.684 109.63 130.42C86.0565 129.136 62.5026 127.481 38.9753 125.482C29.7206 124.694 27.6684 139.834 36.7775 141.734C49.5606 144.402 61.8605 141.277 74.5113 139.456C86.1558 137.782 97.9856 137.305 109.729 137.239C134.296 137.106 158.856 138.768 183.423 139.132C232.98 139.874 282.544 138.364 332.088 137.232C338.118 137.093 344.248 136.623 350.273 137.034C350.703 137.06 351.133 137.106 351.557 137.139C352.153 137.206 352.126 137.192 351.491 137.106C351.775 137.153 352.053 137.199 352.338 137.245C353.437 137.464 354.536 137.682 355.608 138.007C355.999 138.126 356.383 138.258 356.773 138.391C357.568 138.669 356.151 137.914 357.329 138.675C357.647 138.881 357.991 139.059 358.316 139.264C359.057 139.741 357.707 138.179 358.68 139.602C358.773 139.741 359.62 140.41 358.971 139.9C358.329 139.39 359.481 141.178 358.918 139.741C359.296 140.708 359.282 141.436 359.368 142.627C359.613 145.944 360.004 149.228 361.752 152.134C365.949 159.131 374.78 160.495 380.916 155.411C376.21 153.458 371.496 151.511 366.789 149.559C366.862 148.605 367.379 147.758 367.729 146.924C367.769 146.824 368.391 146.401 368.391 146.427C368.391 146.421 366.915 146.864 366.147 147.003C367.385 146.778 366.081 146.997 365.849 147.01C364.969 147.05 364.088 147.116 363.208 147.169C361.447 147.275 359.693 147.374 357.932 147.48C351.338 147.87 344.738 148.254 338.138 148.625C325.163 149.353 312.188 150.029 299.2 150.565C273.468 151.631 247.544 152.61 221.806 151.399C207.97 150.75 194.3 149.009 181.007 145.011C180.272 150.426 179.537 155.847 178.809 161.263C209.32 161.686 239.825 162.11 270.336 162.534C274.414 162.593 277.989 159.343 278.466 155.358C278.903 151.684 276.659 146.897 272.541 146.282C242.427 141.74 212.591 147.023 182.595 149.87C152.614 152.71 122.473 153.908 92.3587 153.451C75.4579 153.193 58.5704 152.405 41.7226 151.127C41.7226 156.642 41.7226 162.163 41.7226 167.677C49.9777 166.665 58.2592 166.148 66.5805 166.142C66.5805 160.627 66.5805 155.106 66.5805 149.592C57.8422 150.088 49.1171 149.883 40.4052 148.969C40.4052 154.484 40.4052 160.005 40.4052 165.519C46.7868 165.321 53.2281 165.519 59.5501 166.439C63.9657 167.082 68.4408 165.347 69.7316 160.66C70.8239 156.688 68.3812 151.233 63.9524 150.479C51.7386 148.407 39.7101 145.474 27.9067 141.687C27.1719 147.103 26.4371 152.524 25.7089 157.939C52.4006 157.509 79.0989 157.079 105.791 156.649C109.875 156.582 113.43 153.557 113.92 149.472C114.37 145.686 112.093 141.171 107.995 140.396C88.625 136.736 69.1822 134.293 49.5871 137.676C45.5886 138.364 43.0995 143.051 43.6622 146.752C44.2845 150.896 47.5812 153.756 51.7915 153.928C100.62 155.92 149.476 157.43 198.331 158.436C212.134 158.721 225.936 158.965 239.746 159.171C248.861 159.31 251.278 144.739 241.943 142.919C218.006 138.238 193.624 136.06 169.236 136.636C169.236 142.151 169.236 147.672 169.236 153.186C219.919 151.068 270.681 151.088 321.363 153.246C321.363 147.731 321.363 142.21 321.363 136.696C309.772 137.762 298.147 138.066 286.522 137.59C286.522 143.104 286.522 148.625 286.522 154.14C300.1 153.809 313.671 153.484 327.248 153.153C337.847 152.888 337.887 136.338 327.215 136.597Z" fill="#FFBD14"/>
<path d="M47.5421 112.983C55.9958 86.5361 64.4495 60.0959 72.9032 33.6491C75.4321 25.7383 78.4177 17.2118 85.3819 12.6837C91.3134 8.83089 98.8403 8.75806 105.91 8.81764C171.494 9.32076 237.078 9.83051 302.662 10.3336C304.754 10.3469 306.932 10.3866 308.799 11.3332C311.229 12.5712 312.672 15.1066 313.936 17.5163C330.44 48.9148 341.111 83.3717 345.242 118.597C244.751 118.067 144.26 117.544 43.7621 117.014C34.1698 116.961 23.5845 117.273 16.5011 123.747C6.23354 133.127 8.84181 149.638 12.2776 163.116C13.1977 166.73 14.3298 170.656 17.3882 172.788C20.0494 174.641 23.5381 174.668 26.7819 174.628C138.752 173.185 250.716 171.742 362.686 170.305C365.943 170.265 369.306 170.199 372.291 168.902C378.269 166.307 381.215 159.501 382.367 153.087C384.512 141.138 381.864 127.778 373.092 119.384C364.321 110.997 348.89 109.487 340.184 117.948C352.623 109.686 372.079 116.141 377.104 130.201C379.13 135.875 379.024 142.058 378.799 148.075C378.501 155.973 377.541 164.897 371.272 169.716C367.929 172.284 363.421 173.337 360.753 176.601C358.323 179.573 357.992 183.677 357.76 187.504C349.532 324.438 339.668 461.273 328.163 597.975C327.779 602.529 327.328 607.289 324.872 611.149C319.742 619.205 308.508 620.033 298.955 619.986C219.814 619.642 140.672 619.304 61.5368 618.96C43.8548 474.916 32.9054 330.045 28.7282 184.982C28.5958 180.454 29.1254 174.846 33.3026 173.092" fill="#FFBD14"/>
<path d="M55.5194 115.188C60.0805 100.915 64.6417 86.6423 69.2029 72.3763C73.5985 58.6266 77.597 44.6585 82.4759 31.0744C83.9786 26.8972 86.2096 22.1109 89.5526 19.8403C93.9218 16.8745 99.5686 17.0797 104.845 17.093C119.726 17.1393 134.608 17.3181 149.483 17.4372C179.412 17.6689 209.348 17.9006 239.276 18.1323C254.244 18.2449 269.205 18.364 284.173 18.4766C290.892 18.5295 298.34 18.6487 304.642 18.6487C306.621 18.6487 305.191 19.0988 304.596 18.3442C306.959 21.3364 304.265 17.6358 305.522 19.4563C306.343 20.6413 306.959 22.0249 307.621 23.2959C309.177 26.3014 310.686 29.3399 312.136 32.405C324.952 59.4608 333.419 88.8865 336.974 118.617C339.734 115.856 342.488 113.102 345.249 110.342C283.981 110.017 222.72 109.7 161.452 109.375C131.04 109.216 100.628 109.058 70.2157 108.899C62.5034 108.859 54.7912 108.819 47.0789 108.78C40.5053 108.746 33.9913 108.753 27.4905 109.892C14.8529 112.096 4.49269 121.033 1.92414 133.823C-0.320028 144.984 1.65272 157.324 5.06863 168.075C7.41871 175.469 12.2447 181.215 20.2217 182.486C27.5235 183.651 35.2954 182.811 42.6634 182.718C73.3006 182.321 103.938 181.93 134.575 181.533C195.631 180.745 256.68 179.964 317.736 179.176C333.081 178.978 348.446 178.945 363.791 178.58C370.775 178.415 377.601 176.912 382.572 171.623C386.862 167.055 389.411 160.951 390.443 154.821C392.502 142.608 390.96 129.129 383.479 118.888C375.687 108.217 363.103 102.563 349.929 104.516C344.011 105.39 338.735 108.065 334.352 112.123C327.501 118.465 336.418 130.188 344.382 125.118C345.289 124.542 346.215 123.986 347.195 123.549C345.917 124.118 348.215 123.257 348.592 123.158C349.108 123.019 349.625 122.92 350.141 122.787C351.452 122.456 348.963 122.867 350.307 122.728C351.505 122.602 352.71 122.569 353.908 122.622C354.312 122.642 354.709 122.675 355.113 122.701C356.476 122.787 353.967 122.463 355.311 122.721C356.238 122.9 357.158 123.099 358.072 123.357C358.337 123.43 361.203 124.469 359.899 123.906C361.011 124.383 362.083 124.972 363.103 125.607C363.421 125.799 365.314 127.196 364.367 126.422C365.188 127.097 365.969 127.838 366.691 128.62C367.048 129.004 367.419 129.407 367.737 129.824C367.492 129.507 367.035 128.778 367.843 130.089C368.406 130.996 368.962 131.923 369.372 132.909C368.809 131.559 369.485 133.432 369.518 133.578C369.71 134.359 369.941 135.107 370.113 135.895C370.345 136.941 370.458 137.974 370.531 139.046C370.756 142.376 370.65 145.732 370.497 149.069C370.305 153.266 369.908 157.833 368.028 161.077C367.128 162.626 366.519 163.136 364.645 164.195C362.004 165.691 359.409 166.916 357.019 168.842C351.538 173.251 350.062 179.805 349.572 186.505C349.082 193.211 348.757 199.936 348.347 206.649C344.991 261.509 341.37 316.349 337.484 371.175C333.585 426.22 329.421 481.239 324.992 536.244C323.899 549.828 322.787 563.412 321.662 576.996C321.079 584.007 320.51 591.018 319.908 598.028C319.696 600.458 319.57 602.358 318.815 604.714C318.2 606.641 317.253 607.806 316.386 608.494C315.234 609.408 313.645 610.03 312.255 610.441C311.096 610.778 309.918 611.036 308.727 611.255C307.72 611.44 307.892 611.407 306.33 611.533C300.385 612.01 294.374 611.745 288.423 611.718C274.793 611.659 261.162 611.599 247.532 611.539C192.354 611.301 137.177 611.063 81.9993 610.825C75.1873 610.798 68.3687 610.765 61.5568 610.739C64.3173 613.499 67.0712 616.253 69.8318 619.013C62.7021 560.87 56.6514 502.601 51.7129 444.233C46.7546 385.646 42.9017 326.974 40.1611 268.241C39.3998 251.87 38.7179 235.486 38.1287 219.108C37.8308 210.806 37.5528 202.505 37.2946 194.204C37.1821 190.576 36.9371 186.922 37.01 183.287C37.0497 181.209 36.8643 182.221 37.4005 180.242C37.4667 180.004 37.7117 178.713 37.5329 179.938C37.4667 180.388 35.7257 181.175 37.5065 180.282C41.4983 178.276 42.6303 172.642 40.4722 168.962C38.0956 164.897 33.1571 163.977 29.1521 165.996C22.9491 169.114 20.8175 175.932 20.4931 182.4C20.1357 189.55 20.8307 196.878 21.0624 204.034C21.5589 219.108 22.1283 234.175 22.7704 249.242C24.0414 279.158 25.6037 309.06 27.4573 338.949C31.1579 398.721 36.0103 458.42 42.008 518.006C45.4041 551.715 49.1642 585.384 53.2885 619.007C53.8379 623.469 56.6382 627.262 61.5634 627.282C119.157 627.533 176.757 627.778 234.351 628.03C248.644 628.089 262.93 628.156 277.222 628.215C289.542 628.268 302.808 629.665 314.923 626.845C320.318 625.587 325.7 622.979 329.434 618.802C334.154 613.525 335.577 606.978 336.272 600.14C337.695 586.099 338.636 571.998 339.787 557.931C344.481 500.523 348.89 443.094 353.007 385.64C357.112 328.41 360.925 271.154 364.453 213.885C364.897 206.642 365.34 199.4 365.777 192.158C365.923 189.695 365.936 186.591 366.327 184.492C366.823 181.771 367.373 181.506 369.524 180.321C374.794 177.409 379.56 174.529 382.552 169.041C385.498 163.633 386.478 157.555 386.915 151.485C387.795 139.231 387.16 126.389 378.402 116.929C371.603 109.581 360.7 105.311 350.717 106.151C345.481 106.595 340.496 108.005 336.034 110.845C339.377 115.174 342.72 119.51 346.063 123.84C348.532 121.549 352.034 120.523 355.735 120.623C356.331 120.636 356.953 120.662 357.549 120.735C356.456 120.609 357.939 120.815 358.058 120.841C359.257 121.086 360.435 121.404 361.594 121.801C362.401 122.072 365.314 123.621 365.91 124.078C373.503 129.917 375.522 139.926 374.648 149.214C374.324 152.63 373.02 157.661 370.881 159.945C369.59 161.329 369.101 161.567 367.081 161.898C363.97 162.408 360.574 162.103 357.43 162.143C343.104 162.328 328.778 162.514 314.453 162.699C258.031 163.427 201.602 164.149 145.18 164.877C116.966 165.241 88.7582 165.605 60.5439 165.969C53.4937 166.062 46.4368 166.148 39.3865 166.241C35.8581 166.287 32.3363 166.334 28.8078 166.38C27.0734 166.4 23.7369 166.85 22.5387 166.334C21.9297 166.069 21.8767 165.758 21.4199 164.798C20.791 163.46 21.6847 165.579 21.2015 164.156C20.9963 163.553 20.8241 162.944 20.6586 162.335C19.9437 159.747 19.3346 157.125 18.7984 154.497C17.8518 149.83 17.2957 145.779 17.6267 140.555C17.8385 137.285 19.05 133.167 21.0956 130.943C24.1805 127.58 28.0267 126.369 32.9056 125.72C37.3873 125.124 43.9014 125.343 49.0914 125.369C56.1417 125.409 63.1986 125.442 70.2488 125.482C98.4565 125.627 126.664 125.78 154.872 125.925C211.287 126.223 267.703 126.514 324.125 126.812C331.175 126.852 338.232 126.885 345.282 126.925C349.366 126.945 354.087 123.099 353.557 118.65C350.035 89.1513 342.416 60.6259 330.652 33.345C327.812 26.7581 324.734 20.2706 321.397 13.9154C319.861 10.9894 318.107 8.18251 315.552 6.05088C311.825 2.93287 307.422 2.19143 302.696 2.10537C286.854 1.82072 270.999 1.86044 255.158 1.74128C223.468 1.49635 191.772 1.25141 160.082 1.00647C144.234 0.887309 128.392 0.761527 112.544 0.642368C105.189 0.582788 97.6886 0.198826 90.4463 1.82734C83.2107 3.45585 77.3189 7.65953 72.9762 13.5844C68.5673 19.5953 66.3894 26.9965 64.1452 34.0136C61.4641 42.4077 58.7764 50.8019 56.0953 59.196C50.5941 76.4079 45.0929 93.6132 39.5918 110.825C36.3082 120.954 52.2822 125.31 55.5194 115.188Z" fill="black"/>
<path d="M99.9993 109.62C104.958 98.7174 109.916 87.8209 114.874 76.9178C116.046 74.336 117.357 71.602 119.8 70.1588C121.666 69.0533 123.924 68.8878 126.089 68.7488C171.952 65.8227 217.954 65.0614 263.896 66.4649C265.909 66.5245 268.014 66.6171 269.742 67.6499C271.966 68.9805 273.065 71.5556 274.032 73.9587C279.334 87.2185 284.63 100.472 289.933 113.731" fill="#FFBD14"/>
<path d="M107.149 113.797C110.333 106.787 113.524 99.7827 116.708 92.7722C118.304 89.2702 119.892 85.7617 121.488 82.2597C122.057 81.0019 122.6 79.7176 123.275 78.5128C123.381 78.3208 124.42 76.9042 124.228 77.0167C123.778 77.2815 123.95 77.308 124.506 77.1888C127.34 76.5533 130.928 76.7188 133.953 76.5401C138.104 76.2951 142.255 76.07 146.412 75.8648C154.283 75.4742 162.154 75.1432 170.025 74.8784C201.649 73.8126 233.279 73.8855 264.909 74.7725C267.021 74.8321 265.532 75.0373 265.214 74.5739C266.187 75.9906 266.359 76.9373 267.014 78.5658C268.623 82.5841 270.225 86.6024 271.834 90.6207C275.21 99.0546 278.58 107.495 281.956 115.929C283.611 120.073 287.483 122.986 292.137 121.708C296.076 120.622 299.585 115.704 297.916 111.527C294.706 103.49 291.488 95.4533 288.278 87.4233C286.669 83.405 285.067 79.3866 283.458 75.3683C281.85 71.3434 280.519 67.0934 277.679 63.737C271.801 56.8059 261.593 58.0902 253.404 57.8982C244.652 57.693 235.901 57.5672 227.142 57.5209C210.069 57.4282 193.003 57.6334 175.937 58.1365C158.672 58.6463 141.103 58.7985 123.917 60.6455C118.403 61.2413 113.908 63.2604 110.558 67.7951C108.162 71.0389 106.738 74.9248 105.077 78.5724C101.006 87.5292 96.9343 96.4794 92.8564 105.436C91.0094 109.501 91.6913 114.34 95.8221 116.756C99.377 118.848 105.289 117.888 107.149 113.797Z" fill="black"/>
<path d="M61.781 557.686C113.635 559.182 165.536 559.307 217.397 558.069L61.781 557.686Z" fill="#FFBD14"/>
<path d="M61.7813 565.961C113.642 567.444 165.529 567.569 217.397 566.345C228.029 566.093 228.068 549.543 217.397 549.795C165.529 551.02 113.642 550.894 61.7813 549.411C51.1298 549.106 51.1364 565.656 61.7813 565.961Z" fill="black"/>
<path d="M274.647 558.977C292.66 558.52 310.693 558.639 328.706 559.334L274.647 558.977Z" fill="#FFBD14"/>
<path d="M274.647 567.252C292.667 566.808 310.693 566.927 328.706 567.609C333.174 567.775 336.981 563.684 336.981 559.334C336.981 554.714 333.187 551.231 328.706 551.059C310.693 550.384 292.667 550.265 274.647 550.702C264.015 550.96 263.976 567.51 274.647 567.252Z" fill="black"/>
<path d="M176.405 400.779C161.662 393.199 151.964 377.742 151.984 361.543C152.004 342.861 164.072 326.205 175.617 312.138C183.74 302.241 192.081 292.523 200.33 282.732C196.987 283.162 193.644 283.593 190.3 284.023C208.28 296.886 220.282 317.123 225.975 338.313C229.087 349.885 230.894 362.344 227.266 373.949C225.889 378.344 223.718 382.574 220.686 386.871C219.574 388.453 218.362 389.883 216.661 391.67C214.735 393.696 212.676 395.629 210.458 397.337C202.183 403.699 191.605 407.333 180.966 407.029C176.71 406.903 172.4 410.921 172.691 415.304C173.698 430.384 176.796 445.193 182.284 459.287C183.78 463.12 187.024 465.867 191.36 465.211C195.484 464.589 198.39 461.292 198.536 457.082C199.012 443.18 199.496 429.278 199.972 415.376C200.124 410.908 196.06 407.101 191.697 407.101C187.083 407.101 183.575 410.895 183.422 415.376C182.946 429.278 182.462 443.18 181.986 457.082C187.401 456.347 192.823 455.612 198.238 454.884C193.293 442.187 190.142 428.908 189.235 415.304C186.474 418.064 183.72 420.818 180.96 423.578C205.943 424.3 230.351 408.293 240.44 385.54C252.051 359.338 243.088 327.099 229.246 303.373C221.494 290.08 211.147 278.681 198.642 269.73C195.894 267.764 190.804 268.426 188.612 271.021C180.602 280.534 172.513 289.988 164.595 299.587C157.326 308.398 150.183 317.5 144.795 327.609C139.433 337.658 135.798 348.634 135.447 360.086C135.123 370.731 138.036 381.475 143.179 390.763C148.853 401.011 157.611 409.71 168.044 415.072C172.016 417.111 177.027 416.105 179.364 412.106C181.542 408.399 180.397 402.831 176.405 400.779Z" fill="black"/>
<path d="M179.317 333.579C182.495 350.99 182.965 368.784 181.131 386.374C180.668 390.822 185.269 394.649 189.406 394.649C194.265 394.649 197.218 390.836 197.681 386.374C199.68 367.255 198.727 348.077 195.278 329.177C194.477 324.775 189.135 322.286 185.096 323.398C180.469 324.676 178.51 329.171 179.317 333.579Z" fill="black"/>
<path d="M216.775 352.559C218.556 350.52 220.336 348.488 222.124 346.449C223.58 344.781 224.547 342.867 224.547 340.597C224.547 338.564 223.646 336.141 222.124 334.745C218.999 331.878 213.465 331.263 210.42 334.745C208.639 336.784 206.858 338.816 205.071 340.855C203.614 342.523 202.648 344.436 202.648 346.707C202.648 348.739 203.548 351.162 205.071 352.559C208.195 355.425 213.73 356.041 216.775 352.559Z" fill="black"/>
<path d="M219.025 377.729C221.316 375.948 223.606 374.167 225.897 372.38C227.446 371.175 228.32 368.388 228.32 366.528C228.32 364.496 227.42 362.073 225.897 360.676C224.321 359.226 222.249 358.154 220.045 358.253C217.701 358.359 216.027 359.253 214.193 360.676C211.902 362.457 209.612 364.237 207.321 366.025C205.772 367.23 204.898 370.017 204.898 371.877C204.898 373.909 205.799 376.332 207.321 377.729C208.897 379.179 210.969 380.251 213.173 380.152C215.517 380.046 217.192 379.152 219.025 377.729Z" fill="black"/>
<path d="M159.982 353.274C163.153 356.895 167.422 359.417 172.003 360.827C176.141 362.098 181.212 359.318 182.185 355.048C183.204 350.566 180.835 346.23 176.406 344.867C176.068 344.761 175.731 344.648 175.393 344.536C174.294 344.185 175.644 344.502 175.896 344.761C175.439 344.291 174.36 343.96 173.804 343.596C173.586 343.457 172.606 342.708 173.559 343.47C174.519 344.244 173.553 343.443 173.367 343.278C172.771 342.748 172.222 342.172 171.692 341.57C168.833 338.3 162.875 338.425 159.988 341.57C156.784 345.059 156.93 349.792 159.982 353.274Z" fill="black"/>
<path d="M160.115 381.31C162.154 382.581 164.186 383.859 166.225 385.13C169.899 387.427 175.499 386.03 177.545 382.164C179.69 378.1 178.498 373.294 174.579 370.844C172.54 369.573 170.508 368.295 168.469 367.024C164.795 364.727 159.194 366.124 157.149 369.99C155.004 374.055 156.196 378.861 160.115 381.31Z" fill="black"/>
<path d="M259.718 431.939C277.817 425.154 290.699 410.543 298.087 392.974C301.993 383.68 304.363 373.915 305.766 363.945C307.07 354.671 307.713 345.33 306.594 335.996C305.29 325.1 302.112 314.461 295.591 305.498C292.97 301.89 288.402 300.116 284.271 302.532C280.71 304.617 278.657 310.218 281.305 313.852C293.208 330.223 292.003 352.076 287.753 370.93C283.55 389.585 273.62 409.114 255.315 415.978C251.132 417.547 248.278 421.572 249.536 426.16C250.642 430.172 255.514 433.515 259.718 431.939Z" fill="black"/>
<path d="M282.643 327.589C282.809 323.703 282.981 319.817 283.146 315.931C283.219 314.203 283.299 312.475 283.371 310.747C283.418 309.682 283.583 308.57 283.51 307.51C283.411 305.968 283.577 307.603 283.385 307.855C282.398 308.841 281.405 309.834 280.419 310.82C279.254 311.582 276.996 310.887 279.38 311.522C280.558 311.84 281.743 312.111 282.921 312.416C285.079 312.985 287.231 313.594 289.369 314.236C293.844 315.587 298.253 317.109 302.622 318.764C306.8 320.353 311.698 317.003 312.804 312.985C314.081 308.331 311.215 304.399 307.025 302.804C302.086 300.93 297.088 299.229 292.017 297.752C286.913 296.27 280.465 293.668 275.149 295.118C267.947 297.084 267.126 303.783 266.855 310.085C266.603 315.918 266.352 321.743 266.093 327.575C265.901 332.044 270.032 335.85 274.368 335.85C279.009 335.864 282.445 332.07 282.643 327.589Z" fill="black"/>
<path d="M247.385 241.509C237.872 234.194 225.996 230.878 214.305 229.071C201.615 227.104 188.322 225.178 175.466 226.005C150.151 227.634 130.02 242.794 115.383 262.654C106.87 274.199 100.442 287.095 94.0533 299.891C92.0607 303.889 92.9875 308.854 97.0191 311.211C100.687 313.356 106.34 312.257 108.339 308.245C118.117 288.644 128.272 267.632 146.139 254.041C153.706 248.288 162.51 244.098 172.063 242.853C183.615 241.351 195.743 243.105 207.208 244.641C218.489 246.157 229.809 248.705 239.037 255.809C242.579 258.536 248.305 256.351 250.357 252.843C252.853 248.56 250.94 244.243 247.385 241.509Z" fill="black"/>
<path d="M73.8688 282.414C76.0666 289.246 78.7874 295.932 82.0047 302.347C84.9109 308.133 88.4062 316.348 94.5164 319.268C101.58 322.637 109.742 318.414 116.548 316.176C124.028 313.72 131.509 311.257 138.989 308.801C143.233 307.405 145.993 303.082 144.769 298.62C143.623 294.462 138.85 291.437 134.587 292.841C128.351 294.886 122.122 296.938 115.886 298.984C112.98 299.937 110.067 300.897 107.161 301.85C105.916 302.261 104.665 302.671 103.42 303.082C102.699 303.313 100.448 303.929 100.554 304.048C101.567 304.207 102.354 304.704 102.924 305.538C102.633 305.107 102.348 304.664 102.07 304.22C101.335 303.062 100.627 301.89 99.9316 300.705C98.548 298.335 97.2439 295.919 96.0258 293.463C93.5433 288.465 91.5308 283.321 89.8163 278.012C88.4459 273.762 84.0767 271.015 79.6347 272.233C75.4708 273.385 72.4918 278.144 73.8688 282.414Z" fill="black"/>
<path d="M88.9627 382.574C89.6115 414.919 92.2462 449.621 111.908 476.703C121.579 490.029 134.038 499.635 149.277 505.838C162.736 511.319 177.498 514.715 192.062 514.954C208.394 515.218 224.751 510.723 236.753 499.244C244.466 491.87 232.748 480.179 225.049 487.54C217.059 495.18 206.05 498.172 195.028 498.397C182.304 498.655 170.21 495.948 157.963 491.532C145.497 487.037 134.826 479.689 126.763 469.137C119.097 459.108 114.072 447.159 110.941 434.859C106.592 417.779 105.863 400.117 105.513 382.574C105.301 371.936 88.7509 371.903 88.9627 382.574Z" fill="black"/>
<path d="M226.022 489.606C226.446 489.546 228.498 489.824 229.193 490.102C230.881 490.784 232.026 491.764 232.834 492.916C234.304 495.014 234.356 498.192 233.224 500.423C231.205 504.408 232.179 509.393 236.19 511.743C239.878 513.901 245.485 512.776 247.51 508.777C251.721 500.476 251.529 490.466 245.855 482.867C240.063 475.108 230.96 472.261 221.62 473.645C217.198 474.3 214.761 479.894 215.84 483.827C217.145 488.566 221.587 490.261 226.022 489.606Z" fill="black"/>
</g>
<defs>
<clipPath id="clip0_397_21362">
<rect width="390.987" height="735.815" fill="white" transform="translate(0.772217)"/>
</clipPath>
</defs>
</svg>
