<svg width="66" height="71" viewBox="0 0 66 71" fill="none" xmlns="http://www.w3.org/2000/svg">
<path d="M52.2652 9.23366C49.7651 11.8183 50.5152 15.0241 50.3402 18.4407C50.3764 20.0123 50.2845 21.5842 50.0651 23.144C49.3401 21.0364 48.5401 18.8178 47.5651 16.7102C47.5651 14.1921 47.4526 11.0529 47.2526 8.67902C46.9776 5.28464 46.0025 0.514775 42.0399 0.692259C39.1148 0.836465 38.2898 3.19921 38.7398 5.52868C39.3399 8.46827 41.6399 10.4761 43.965 12.9497C45.0842 14.0741 46.1119 15.2677 47.0401 16.5216C47.1276 16.6658 47.4776 17.4867 47.5401 17.6309V17.6863C48.2026 19.2171 48.7901 20.8367 49.3401 22.4008C48.2026 20.4262 46.5775 17.9082 45.315 16.1555C43.24 13.3047 38.9773 9.59973 35.7397 12.6724C33.3522 14.9464 35.3897 17.4756 37.1773 19.1506C39.4399 21.2804 41.9899 21.6465 45.3525 22.3564C46.8414 22.5455 48.2931 22.9189 49.6651 23.4657C49.7401 23.4657 49.7901 23.7208 49.8026 23.7874C49.8114 23.8388 49.8114 23.8912 49.8026 23.9427H49.9026C50.8111 26.9038 51.4878 29.9171 51.9277 32.9611C51.9277 33.194 51.9277 33.4381 52.0027 33.671C50.3277 31.6188 48.4901 29.4557 46.6651 27.5589C44.34 25.1296 39.5273 22.2787 36.8523 25.6288C34.8897 28.1024 36.9773 30.2655 38.9523 31.6188C41.4524 33.3382 44.04 33.316 47.3776 33.4381C48.1901 33.4381 50.9902 33.2384 51.9902 33.8152V33.8929L51.8902 33.9927H52.0027C52.1152 35.6366 52.1152 37.285 52.0027 38.929C51.7527 40.5818 51.0152 42.2568 50.5777 43.8431C49.8025 41.913 48.7298 40.0875 47.3901 38.4187C45.4025 35.9006 41.0649 32.6283 37.8148 35.1685C35.4147 37.0543 36.8398 39.3838 38.5023 40.9035C40.6149 42.8225 43.165 42.9889 46.29 43.4659C47.7 43.5369 49.0922 43.7795 50.4277 44.1869C49.7151 46.6495 48.8151 49.0789 48.1651 51.5747C47.1035 49.7988 45.8068 48.1416 44.3025 46.6384C42.0149 44.5197 37.5023 42.9445 34.7647 45.5846C32.7397 47.5369 34.0022 49.5669 35.8898 50.7317C38.2648 52.1959 40.6274 51.8409 43.7025 51.6856C44.44 51.6856 47.1401 51.2197 48.0776 51.6856C47.198 54.4953 46.8765 57.4194 47.1276 60.3269C47.0909 60.3167 47.0517 60.3167 47.0151 60.3269C47.0151 60.3269 47.0901 60.3269 47.1151 60.3269C47.1401 60.3269 47.2776 60.571 47.1151 60.4822C45.2025 59.1954 44.14 57.6868 42.1149 56.1449C39.6149 54.3035 35.1397 53.3606 32.7772 56.3335C31.0271 58.552 33.0272 60.4378 35.1022 61.2365C37.7273 62.246 39.8274 61.7357 42.8275 61.1145C43.5775 60.9592 46.09 60.2049 47.1276 60.5598C48.0174 63.9054 49.3825 67.1371 51.1902 70.1773L51.4902 69.9443C49.6985 66.9411 48.3619 63.7408 47.5151 60.4267C49.7941 61.0053 52.1167 61.439 54.4653 61.7246C58.0154 62.013 63.2155 61.181 64.228 57.2875C64.9906 54.4367 62.4155 53.4161 59.8154 53.6712C56.5278 54.004 54.2653 55.8898 51.3527 57.7645C50.1838 58.7034 48.896 59.5186 47.5151 60.1938C46.9651 57.3651 47.7401 54.5254 48.4401 51.6856C50.6817 52.2644 52.9667 52.7018 55.2778 52.9946C58.7904 53.3496 63.9155 52.1405 64.9156 48.3135C65.6406 45.4959 63.278 44.2313 60.7154 44.5752C57.4779 45.0189 55.6528 46.9158 52.8027 48.8348C52.1277 49.3007 49.7151 51.2974 48.5151 51.5525C49.1151 49.223 50.0026 46.7937 50.7027 44.4421C50.4777 44.4421 50.3027 44.4421 51.1402 44.2979C53.5816 44.0965 56.0042 43.7444 58.3904 43.2441C61.278 42.5008 66.3031 39.3283 65.3031 35.4791C64.5656 32.595 61.8905 32.2844 59.6154 33.7487C56.7278 35.5901 56.2653 37.9306 54.3153 40.6927C53.7902 41.4138 52.1402 44.0205 50.7777 44.3755C51.2402 42.6229 52.1027 40.7482 52.3777 39.0066C52.5027 37.3149 52.5027 35.6178 52.3777 33.9262C54.6164 33.5064 56.8022 32.8896 58.9029 32.0847C62.478 30.5983 65.7406 26.9821 64.4405 23.1551C63.478 20.3264 60.6904 19.9493 58.3404 21.5466C55.4153 23.5766 55.1903 26.25 53.9403 29.4114C53.5731 30.7997 53.0409 32.1495 52.3527 33.4381C52.3214 33.2766 52.3006 33.1136 52.2902 32.95C51.8471 29.8392 51.1452 26.7618 50.1902 23.743C52.1558 22.4864 54.0421 21.1347 55.8403 19.6941C58.8029 17.1983 61.053 12.5837 58.7029 9.31132C56.9903 6.84873 54.1903 7.19259 52.2652 9.23366Z" fill="#678B28"/>
<path d="M9.41444 35.5012C8.77693 37.4757 10.0645 39.1064 10.927 41.0476C11.3941 41.9111 11.7869 42.8048 12.102 43.721C11.102 42.7115 10.0395 41.6577 8.92693 40.6927C8.22691 39.295 7.27689 37.5756 6.42686 36.2556C5.32683 34.4363 3.43928 32.007 1.28922 32.9277C-0.298326 33.6488 -0.0983175 35.1463 0.814208 36.3443C1.97674 37.8418 3.81429 38.4519 5.81435 39.3061C6.75379 39.6822 7.66047 40.1197 8.52692 40.615C8.61442 40.6705 9.03944 41.0476 9.11444 41.1031C9.91446 41.813 10.7145 42.5784 11.4395 43.3216C10.1895 42.4786 8.65192 41.4358 7.45189 40.737C5.50184 39.6277 2.08924 38.5185 1.20172 40.9256C0.501696 42.7115 2.35176 43.6655 3.8268 44.2534C5.67685 44.9301 7.18939 44.5751 9.26445 44.2534C10.1518 44.0354 11.0688 43.9271 11.9895 43.9317C11.9895 43.9317 12.127 44.0538 12.1395 44.087C12.1481 44.1199 12.1481 44.154 12.1395 44.1869C13.4738 45.6323 14.6974 47.1554 15.8021 48.746L16.0396 49.1231C14.5271 48.3577 12.902 47.559 11.352 46.9046C9.37695 46.0726 5.90185 45.5513 5.36433 48.0138C4.96432 49.8331 6.72687 50.5652 8.21441 50.8869C10.077 51.2862 11.5145 50.6983 13.4021 50.0327C14.2255 49.6102 15.1344 49.3351 16.0771 49.223V49.3006H16.1396C16.6621 50.1945 17.1294 51.1128 17.5397 52.0516C17.7931 53.0591 17.9892 54.0772 18.1272 55.1021C17.1503 54.2005 16.0402 53.4206 14.8271 52.7838C13.0145 51.8298 9.68945 50.9646 8.57692 53.1055C7.7644 54.6806 9.21445 55.6568 10.5645 56.1338C12.277 56.7328 13.7396 56.2669 15.5646 55.8343C16.3669 55.5611 17.2085 55.3894 18.0647 55.324C18.3647 56.8437 18.5397 58.3967 18.8772 59.9275C17.7891 59.1732 16.6011 58.5399 15.3396 58.0417C13.4896 57.3651 10.527 57.4871 9.75196 59.5614C9.17694 61.0922 10.4395 61.9464 11.8145 62.1793C13.5521 62.4677 14.7646 61.7467 16.4271 60.9813C16.8272 60.7927 18.2147 59.9607 18.9272 60.0051C19.2241 61.7624 19.8673 63.4596 20.8273 65.0191C20.8273 65.0191 20.9773 65.1189 20.8273 65.0967C19.4022 64.7972 18.3272 64.1982 16.8272 63.7878C14.9521 63.2997 12.1645 63.7878 11.6895 66.0063C11.327 67.6147 12.9395 68.2249 14.3521 68.2249C16.1021 68.2249 17.1147 67.4595 18.6147 66.45C18.9897 66.206 20.1772 65.2298 20.8523 65.1966C22.3015 66.8568 23.9815 68.3476 25.8524 69.6337L25.9649 69.434C24.1207 68.1543 22.477 66.6621 21.0773 64.9969C22.5059 64.8181 23.918 64.5475 25.3024 64.1871C27.365 63.5548 30.0025 61.9686 29.49 59.5725C29.115 57.8088 27.4025 57.8199 26.0274 58.5409C24.2899 59.4505 23.5273 60.9702 22.4648 62.6896C22.082 63.4774 21.5953 64.2221 21.0148 64.9081C20.0395 63.3844 19.4029 61.7086 19.1397 59.9718C20.5465 59.7971 21.9376 59.5339 23.3023 59.1843C25.3524 58.6074 27.8775 56.7993 27.3525 54.4587C26.9649 52.7283 25.2899 52.5397 23.9648 53.3495C22.2898 54.3145 21.8148 55.7677 20.7648 57.4649C20.3561 58.3471 19.8136 59.1756 19.1522 59.9275C18.8272 58.4965 18.6397 56.9546 18.3647 55.4904C18.2397 55.4904 18.1397 55.568 18.5647 55.3129C19.8727 54.6537 21.126 53.9123 22.3148 53.0943C23.7149 52.0516 25.6149 49.1786 23.9648 47.2263C22.7148 45.7953 21.1648 46.2057 20.3147 47.5258C19.2272 49.1897 19.6272 50.5874 19.3147 52.5508C19.2272 53.0722 19.0522 54.8914 18.3897 55.3906C18.1522 54.2813 18.1147 53.0833 17.7647 52.0627C17.362 51.0943 16.8815 50.1527 16.3271 49.2452C17.454 48.5178 18.4967 47.6929 19.4397 46.7826C21.0148 45.163 21.8023 42.4231 20.0147 40.5928C19.7849 40.3014 19.4693 40.0717 19.1023 39.9286C18.7354 39.7856 18.3312 39.7348 17.9339 39.7817C17.5366 39.8286 17.1615 39.9715 16.8495 40.1948C16.5375 40.418 16.3006 40.713 16.1646 41.0476C15.1146 42.8224 15.7396 44.3754 15.9271 46.3943C16.1165 47.2453 16.2045 48.1116 16.1896 48.9789C16.1896 48.9235 16.0771 48.8125 16.0146 48.7238C14.8867 47.0962 13.6337 45.5395 12.2645 44.0648C12.9992 42.9335 13.6627 41.767 14.2521 40.5706C15.2021 38.5296 15.1521 35.468 12.927 34.159C11.377 33.1274 9.91446 33.9482 9.41444 35.5012Z" fill="#678B28"/>
</svg>
