<svg width="397" height="745" viewBox="0 0 397 745" fill="none" xmlns="http://www.w3.org/2000/svg">
<g clip-path="url(#clip0_397_21264)">
<path d="M272.332 167.282C283.112 167.282 283.125 150.532 272.332 150.532C261.558 150.532 261.538 167.282 272.332 167.282Z" fill="#7284FC"/>
<path d="M64.5101 136.08C56.6577 137.312 49.3614 141.373 43.9142 147.135C39.6932 151.597 41.328 159.55 47.6126 161.131C68.175 166.303 89.8496 165.942 110.184 159.891C117.715 157.654 118.593 145.513 110.184 143.738C93.4274 140.2 76.329 140.347 59.6593 144.3C55.2574 145.346 52.6444 150.357 53.8102 154.605C55.0564 159.148 59.6861 161.453 64.1148 160.454C94.9484 153.52 126.814 157.573 158.002 159.108C174.149 159.905 190.23 159.711 206.356 158.545C222.624 157.372 238.838 155.516 255.099 154.19C263.581 153.5 272.157 152.682 280.673 152.863C286.703 152.99 293.376 153.694 297.986 157.446C299.963 152.682 301.932 147.912 303.909 143.148C270.811 146.398 237.666 149.091 204.48 151.228C199.965 151.516 196.105 154.873 196.105 159.603C196.105 164.079 199.938 168.065 204.48 167.978C238.195 167.349 271.903 166.712 305.617 166.082C310.14 165.995 313.992 162.297 313.992 157.707C313.992 152.709 310.127 149.902 305.617 149.332C289.745 147.322 273.859 149.232 258.087 151.228C253.598 151.798 249.712 154.672 249.712 159.603C249.712 164.313 253.551 167.771 258.087 167.978C281.906 169.064 305.718 170.149 329.536 171.235C335.493 171.503 341.442 171.777 347.399 172.045C352.665 172.286 358.105 172.957 363.358 172.374C369.073 171.737 374.547 169.379 377.475 164.166C379.981 159.711 380.014 153.868 377.381 149.473C373.274 142.612 365.207 143.141 358.628 145.486C352.598 147.637 346.816 150.418 341.429 153.882C334.568 158.297 337.114 169.446 345.657 169.486C359.204 169.553 371.613 162.592 379.01 151.329C380.825 148.562 380.329 144.508 378.353 142.029C376.061 139.155 373.06 138.552 369.549 139.028C357.489 140.669 345.918 144.676 335.252 150.525C331.285 152.702 330.005 158.156 332.25 161.982C334.675 166.129 339.627 166.98 343.707 164.983C353.657 160.119 362.728 153.486 370.46 145.56C375.164 140.743 372.068 130.586 364.537 131.262C351.144 132.468 338.943 137.701 329.041 146.853C322.622 152.796 329.416 162.632 337.188 160.85C349.127 158.116 360.075 151.938 368.718 143.275C373.931 138.056 369.991 129.138 362.795 128.977C347.191 128.629 331.647 135.316 321.376 147.114C319.145 149.681 318.22 153.024 319.647 156.26C320.86 159.014 324.016 161.808 327.299 161.406C343.513 159.429 358.454 152.468 369.737 140.502C374.554 135.396 371.298 126.003 363.814 126.204C345.114 126.699 327.419 133.862 313.537 146.364C308.472 150.927 312.19 161.479 319.46 160.662C334.977 158.913 349.228 149.882 355.908 135.45C358.755 129.306 355.251 123.617 348.678 122.847C330.709 120.75 312.92 129.895 302.951 144.696C299.226 150.23 304.237 157.051 310.18 157.299C320.686 157.741 331.399 156.434 341.463 153.352C346.642 151.764 351.72 149.707 356.571 147.289C358.521 146.317 360.363 145.051 362.353 144.16C360.725 144.89 362.728 144.166 363.144 144.086C362.125 144.207 362.092 144.247 363.043 144.213C360.216 144.146 358.42 142.23 357.663 138.451C357.864 147.952 371.318 149.748 374.112 140.676C376.618 132.549 372.484 123.356 364.638 120.026C356.765 116.69 347.338 120.14 343.211 127.577C341.02 131.524 342.226 136.723 346.213 139.034C353.543 143.289 365.924 139.242 365.924 129.507C365.924 124.683 362.28 120.649 357.824 119.296C354.179 118.184 350.514 118.793 346.883 119.638C332.049 123.068 318.481 130.23 306.75 139.838C311.413 141.071 316.083 142.304 320.746 143.537C318.79 135.215 310.683 130.15 302.468 129.869C293.35 129.554 285.913 135.456 279.447 141.145C273.94 145.989 278.375 155.563 285.37 155.443C295.849 155.262 304.532 148.595 307.909 138.786C309.356 134.565 306.241 129.547 302.06 128.482C292.164 125.969 281.263 128.917 274.476 136.696C269.491 142.404 273.069 150.337 280.398 150.994C292.03 152.039 303.433 147.684 311.962 139.858C316.203 135.966 314.569 126.713 308.264 125.862C294.562 124.013 281.37 125.989 269.008 132.321C265.739 133.996 264.218 138.351 265.163 141.781C266.208 145.58 269.531 147.55 273.236 147.932C285.886 149.232 299.031 145.748 309.416 138.425C312.485 136.26 314.307 132.77 313.262 128.964C312.284 125.42 308.86 122.82 305.189 122.813C287.594 122.793 269.987 125.507 253.25 130.927C249.304 132.2 246.617 135.912 247.253 140.113C247.91 144.501 251.213 146.92 255.481 147.376C269.812 148.89 284.023 146.049 297.008 139.952C304.626 136.374 300.767 124.073 292.78 124.348C273.102 125.024 253.511 128.06 234.57 133.46C225.646 136.006 227.167 150.17 236.795 149.908C265.377 149.138 293.886 145.567 321.785 139.302C331.078 137.212 328.913 122.807 319.56 122.854C288.418 123.008 257.344 125.038 226.282 127.095C226.282 132.676 226.282 138.264 226.282 143.845C244.681 142.156 263.086 140.475 281.484 138.786C285.986 138.371 289.859 135.235 289.859 130.411C289.859 126.036 286.027 121.829 281.484 122.036C245.498 123.691 209.559 126.184 173.694 129.507C169.191 129.922 165.319 133.058 165.319 137.882C165.319 142.518 169.151 146.143 173.694 146.257C190.605 146.692 207.408 145.567 224.158 143.228C228.225 142.659 230.704 137.688 230.155 134.043C229.545 129.996 226.182 126.753 221.927 126.78C188.132 126.988 154.344 127.195 120.549 127.41C120.549 132.991 120.549 138.579 120.549 144.16C136.401 142.947 152.247 141.728 168.099 140.515C172.608 140.167 176.474 136.91 176.474 132.14C176.474 127.758 172.642 123.564 168.099 123.765C134.599 125.225 101.092 126.686 67.5921 128.147C63.0696 128.341 59.2171 131.852 59.2171 136.522C59.2171 140.944 63.0495 145.044 67.5921 144.897C80.5299 144.468 93.4006 143.115 106.164 140.991C110.218 140.314 112.724 135.53 112.161 131.805C111.538 127.684 108.194 124.616 103.933 124.542C83.4042 124.174 62.8753 124.435 42.3665 125.326C42.3665 130.907 42.3665 136.495 42.3665 142.076C50.7081 141.486 59.0429 140.897 67.3844 140.314C66.6407 134.833 65.897 129.346 65.16 123.865C59.0965 126.029 52.4836 125.051 46.1989 126.177C39.854 127.316 33.4488 130.74 30.0385 136.374C26.2663 142.612 27.3048 150.029 31.9614 155.463C36.3633 160.595 44.1755 162.571 50.0313 158.659C57.1535 153.902 54.1184 143.738 45.8036 143.054C39.2577 142.512 32.5577 145.285 28.2161 150.196C23.9749 155 25.7036 162.19 31.9145 164.193C40.3766 166.926 49.703 166.859 58.0915 163.865C61.6023 162.612 64.2421 159.67 64.2421 155.791C64.2421 152.408 61.6693 148.28 58.0915 147.717C48.1486 146.156 38.1388 147.771 29.7906 153.654C26.7153 155.818 24.8995 159.315 25.9448 163.114C26.923 166.665 30.34 169.251 34.0183 169.265C94.8948 169.479 155.778 168.648 216.628 166.752C233.793 166.216 250.952 165.593 268.104 164.896C272.626 164.709 276.479 161.178 276.479 156.521C276.479 152.126 272.647 147.959 268.104 148.146C207.274 150.632 146.405 152.073 85.5281 152.454C68.3559 152.562 51.1838 152.582 34.0183 152.521C35.4253 157.721 36.839 162.927 38.246 168.126C42.7953 164.923 48.2559 163.034 53.6427 163.878C53.6427 158.491 53.6427 153.111 53.6427 147.724C47.8337 149.794 42.2392 149.949 36.37 148.052C37.6028 152.716 38.8356 157.386 40.0684 162.049C41.9377 159.932 43.0901 159.583 45.8103 159.811C44.4033 154.612 42.9896 149.406 41.5826 144.207C40.5977 144.769 40.7585 144.81 42.0583 144.334C42.7015 143.999 43.3648 143.952 44.0348 144.187C44.2626 144.294 44.4837 144.408 44.7115 144.515C43.9946 144.073 43.874 144.006 44.3363 144.321C44.8321 145.098 43.5323 143.289 44.4435 144.367C43.6395 143.416 44.3363 143.932 44.3966 144.917C44.3095 143.49 44.6847 144.883 44.3363 145.037C43.7735 145.285 45.3212 144.099 44.5373 144.816C45.0934 144.3 46.085 143.63 46.5808 143.429C53.1335 140.77 61.877 142.8 69.6155 140.039C73.5284 138.639 76.262 135.148 75.6121 130.854C75.0292 127.001 71.6055 123.296 67.3844 123.591C59.0429 124.18 50.7081 124.77 42.3665 125.353C37.8507 125.668 33.9915 128.977 33.9915 133.728C33.9915 138.11 37.8239 142.297 42.3665 142.103C62.8753 141.218 83.4109 140.957 103.933 141.319C103.189 135.838 102.446 130.351 101.709 124.87C90.4191 126.746 79.0291 127.798 67.5854 128.18C67.5854 133.761 67.5854 139.349 67.5854 144.93C101.086 143.47 134.592 142.009 168.093 140.548C168.093 134.967 168.093 129.38 168.093 123.798C152.24 125.011 136.395 126.23 120.542 127.443C116.033 127.792 112.167 131.048 112.167 135.818C112.167 140.341 116 144.22 120.542 144.193C154.337 143.986 188.126 143.778 221.921 143.563C221.177 138.083 220.433 132.596 219.696 127.115C204.474 129.239 189.044 129.936 173.687 129.54C173.687 135.121 173.687 140.709 173.687 146.29C209.552 142.967 245.498 140.475 281.477 138.82C281.477 133.239 281.477 127.651 281.477 122.07C263.079 123.758 244.674 125.44 226.276 127.128C221.773 127.544 217.901 130.679 217.901 135.503C217.901 139.805 221.74 144.18 226.276 143.878C257.337 141.821 288.412 139.791 319.553 139.637C318.81 134.157 318.066 128.669 317.329 123.189C290.844 129.138 263.93 132.468 236.788 133.192C237.532 138.672 238.275 144.16 239.012 149.64C256.573 144.635 274.516 141.754 292.767 141.125C291.36 135.925 289.946 130.719 288.539 125.52C278.187 130.378 266.777 131.852 255.461 130.653C256.205 136.133 256.948 141.62 257.685 147.101C273.109 142.11 288.961 139.57 305.175 139.59C303.768 134.391 302.354 129.185 300.948 123.986C292.653 129.842 283.32 132.247 273.223 131.209C274.63 136.408 276.043 141.614 277.45 146.813C285.41 142.733 294.884 140.837 303.802 142.043C302.569 137.379 301.336 132.709 300.103 128.046C294.549 133.145 287.621 134.927 280.385 134.277C282.362 139.041 284.331 143.811 286.308 148.575C289.544 144.863 293.363 143.59 297.597 144.669C295.648 141.232 293.698 137.801 291.748 134.364C290.877 136.904 287.869 138.679 285.363 138.726C287.34 143.49 289.31 148.26 291.286 153.024C294.187 150.471 298.368 146.947 301.457 146.605C300.391 146.726 304.17 146.994 302.354 146.625C302.629 146.679 304.88 147.382 303.547 146.907C304.974 147.416 303.52 146.545 304.505 147.51C304.076 146.82 304.117 146.893 304.633 147.731C304.324 146.96 304.311 147.054 304.592 148.026C306.16 154.679 314.006 155.476 318.589 151.724C324.183 147.141 330.548 143.356 337.154 140.435C340.136 139.115 343.245 138.056 346.374 137.138C348.196 136.602 350.032 136.126 351.888 135.711C352.611 135.55 354.119 134.773 352.893 135.456C353.161 135.456 353.429 135.456 353.704 135.456C351.74 135.369 350.327 134.15 349.469 131.785C349.75 129.634 350.032 127.483 350.313 125.333C349.556 127.028 350.635 124.884 351.647 124.535C352.397 124.274 353.925 124.194 354.662 124.622C355.66 128.441 356.665 132.261 357.663 136.08C358.112 135.276 357.777 135.188 357.643 135.798C357.556 136.18 358.387 135.349 357.971 135.544C357.268 135.879 359.399 135.215 358.059 135.483C359.211 135.249 358.675 135.952 358.152 135.416C357.456 134.706 358.172 135.523 358.353 136.053C358.233 135.704 358.012 135.537 358.105 135.121C357.489 137.875 358.796 133.507 357.945 136.26C363.425 137.004 368.913 137.748 374.393 138.485C374.246 131.457 368.417 127.041 361.63 127.55C355.392 128.019 350.481 131.932 344.906 134.364C333.959 139.135 322.046 141.078 310.16 140.582C312.572 144.783 314.984 148.984 317.389 153.185C324.23 143.027 336.498 138.21 348.652 139.631C346.24 135.43 343.828 131.229 341.422 127.028C337.161 136.234 328.632 142.914 319.433 143.945C321.409 148.709 323.379 153.479 325.356 158.243C335.908 148.743 349.704 143.362 363.794 142.987C361.817 138.224 359.847 133.453 357.871 128.689C349.784 137.265 338.702 143.302 327.279 144.689C329.255 149.453 331.225 154.223 333.201 158.987C340.866 150.183 351.399 145.5 362.775 145.761C360.799 140.997 358.829 136.227 356.853 131.463C350.112 138.217 341.958 142.605 332.712 144.729C335.426 149.392 338.146 154.062 340.86 158.726C347.325 152.742 355.868 148.816 364.511 148.039C362.534 143.275 360.564 138.505 358.588 133.741C351.767 140.729 343.995 146.257 335.225 150.545C338.046 155.369 340.86 160.186 343.68 165.01C353.121 159.831 363.311 156.655 373.978 155.201C370.822 151.101 367.673 147.001 364.517 142.9C360.37 149.212 352.953 152.796 345.63 152.756C347.037 157.955 348.451 163.161 349.858 168.36C354.193 165.573 358.729 163.148 363.606 161.459C364.343 161.205 365.087 160.957 365.837 160.729C367.305 160.454 367.311 160.314 365.844 160.3C365.167 159.918 364.484 159.536 363.807 159.148C362.695 156.823 362.353 156.361 362.782 157.741C362.561 157.185 362.548 156.622 362.742 156.059C362.501 156.863 362.481 156.977 362.695 156.401C363.459 155.342 364.202 155.356 362.842 155.704C363.747 155.476 361.388 155.818 362.34 155.758C360.986 155.838 359.653 155.851 358.293 155.811C355.312 155.717 352.337 155.543 349.355 155.409C343.399 155.141 337.449 154.866 331.493 154.598C307.018 153.486 282.536 152.367 258.061 151.255C258.061 156.836 258.061 162.424 258.061 168.005C273.832 166.009 289.718 164.106 305.591 166.109C305.591 160.528 305.591 154.94 305.591 149.359C271.876 149.995 238.168 150.625 204.454 151.255C204.454 156.836 204.454 162.424 204.454 168.005C237.639 165.875 270.791 163.181 303.882 159.925C307.259 159.597 310.2 158.096 311.534 154.779C312.686 151.925 312.405 147.751 309.805 145.634C297.457 135.59 282.074 135.678 266.938 136.609C250.215 137.641 233.559 139.53 216.869 140.984C199.844 142.465 182.813 143.316 165.721 142.719C149.346 142.15 133.018 140.689 116.643 140.106C97.5413 139.423 78.3457 140.126 59.6325 144.334C61.1199 149.721 62.6006 155.101 64.088 160.488C77.7494 157.252 91.9668 157.017 105.709 159.925C105.709 154.538 105.709 149.158 105.709 143.771C88.1947 148.984 69.7763 149.473 52.0414 145.011C53.2742 149.674 54.507 154.344 55.7398 159.007C59.4181 155.121 63.6525 153.091 68.9455 152.26C73.4145 151.557 75.8935 145.969 74.7947 141.955C73.5016 137.165 68.9924 135.376 64.5101 136.08Z" fill="#7284FC"/>
<path d="M47.8338 114.043C56.3898 87.2767 64.9457 60.5167 73.5016 33.7501C76.061 25.7436 79.0828 17.114 86.1312 12.5311C92.1344 8.63171 99.7524 8.55801 106.908 8.61831C173.285 9.12751 239.662 9.64342 306.04 10.1526C308.157 10.166 310.361 10.2062 312.251 11.1643C314.709 12.4172 316.17 14.9833 317.45 17.4221C334.153 49.2004 344.953 84.074 349.134 119.725C247.428 119.189 145.721 118.66 44.0081 118.124C34.2998 118.07 23.5864 118.385 16.4174 124.938C6.02564 134.431 8.66545 151.141 12.1428 164.783C13.0741 168.441 14.2198 172.414 17.3152 174.571C20.0086 176.447 23.5395 176.474 26.8225 176.434C140.147 174.973 253.464 173.513 366.789 172.059C370.085 172.019 373.489 171.952 376.51 170.638C382.561 168.012 385.542 161.124 386.708 154.632C388.879 142.539 386.199 129.018 377.321 120.522C368.444 112.033 352.826 110.506 344.015 119.068C356.605 110.707 376.296 117.239 381.381 131.47C383.432 137.212 383.324 143.47 383.097 149.56C382.795 157.553 381.824 166.585 375.479 171.463C372.095 174.062 367.532 175.127 364.832 178.431C362.373 181.439 362.038 185.593 361.804 189.466C353.476 328.056 343.493 466.545 331.848 604.901C331.46 609.51 331.004 614.328 328.518 618.234C323.326 626.388 311.956 627.225 302.288 627.178C222.189 626.83 142.09 626.488 61.9977 626.14C44.1019 480.354 33.0201 333.731 28.7923 186.913C28.6583 182.33 29.1944 176.655 33.4221 174.88" fill="#7284FC"/>
<path d="M55.9073 116.274C60.5236 101.829 65.1399 87.3836 69.7562 72.9451C74.2051 59.0291 78.2519 44.8921 83.1898 31.1436C84.7107 26.9159 86.9686 22.0717 90.3521 19.7736C94.7742 16.772 100.489 16.9797 105.829 16.9931C120.891 17.04 135.953 17.2209 151.008 17.3415C181.298 17.576 211.596 17.8105 241.887 18.045C257.035 18.1589 272.178 18.2795 287.326 18.3934C294.127 18.447 301.664 18.5676 308.043 18.5676C310.046 18.5676 308.599 19.0232 307.996 18.2594C310.388 21.2878 307.661 17.5425 308.934 19.385C309.765 20.5843 310.388 21.9846 311.058 23.2711C312.632 26.3129 314.16 29.3882 315.627 32.4903C328.599 59.8733 337.168 89.6549 340.766 119.745C343.56 116.951 346.347 114.164 349.141 111.37C287.132 111.041 225.13 110.72 163.121 110.392C132.341 110.231 101.561 110.07 70.7813 109.909C62.9758 109.869 55.1703 109.829 47.3648 109.789C40.7116 109.755 34.1188 109.762 27.5394 110.914C14.749 113.145 4.26347 122.19 1.66386 135.135C-0.607453 146.431 1.38916 158.92 4.84637 169.801C7.22488 177.285 12.1092 183.1 20.1827 184.387C27.5729 185.566 35.4387 184.715 42.8958 184.621C73.9036 184.219 104.911 183.824 135.919 183.422C197.713 182.625 259.501 181.834 321.295 181.037C336.826 180.836 352.377 180.802 367.908 180.434C374.976 180.266 381.884 178.745 386.916 173.392C391.257 168.769 393.837 162.591 394.882 156.387C396.966 144.026 395.404 130.384 387.833 120.019C379.948 109.219 367.211 103.497 353.878 105.474C347.888 106.358 342.548 109.065 338.113 113.172C331.178 119.591 340.203 131.456 348.263 126.324C349.181 125.741 350.119 125.179 351.111 124.736C349.818 125.313 352.142 124.442 352.524 124.341C353.047 124.2 353.57 124.1 354.092 123.966C355.419 123.631 352.9 124.046 354.26 123.905C355.472 123.778 356.692 123.745 357.904 123.798C358.313 123.818 358.715 123.852 359.124 123.879C360.504 123.966 357.965 123.638 359.325 123.899C360.263 124.08 361.194 124.281 362.119 124.542C362.387 124.616 365.288 125.668 363.968 125.098C365.094 125.581 366.179 126.177 367.211 126.82C367.532 127.014 369.449 128.428 368.49 127.644C369.321 128.328 370.112 129.078 370.842 129.869C371.204 130.257 371.579 130.666 371.901 131.088C371.653 130.766 371.191 130.029 372.008 131.356C372.577 132.274 373.14 133.212 373.556 134.21C372.986 132.843 373.67 134.739 373.703 134.887C373.897 135.677 374.132 136.435 374.306 137.232C374.541 138.29 374.655 139.336 374.728 140.421C374.956 143.791 374.849 147.188 374.695 150.565C374.5 154.813 374.098 159.436 372.196 162.719C371.284 164.287 370.668 164.802 368.772 165.874C366.099 167.389 363.472 168.628 361.053 170.578C355.506 175.04 354.012 181.673 353.516 188.454C353.02 195.241 352.692 202.048 352.276 208.842C348.879 264.365 345.215 319.868 341.282 375.358C337.335 431.068 333.121 486.752 328.639 542.423C327.533 556.171 326.408 569.92 325.269 583.668C324.679 590.764 324.103 597.859 323.493 604.954C323.279 607.413 323.151 609.336 322.388 611.721C321.764 613.671 320.806 614.85 319.929 615.547C318.763 616.472 317.155 617.101 315.748 617.517C314.575 617.858 313.383 618.12 312.177 618.341C311.158 618.529 311.333 618.495 309.751 618.622C303.735 619.105 297.651 618.837 291.628 618.81C277.832 618.75 264.037 618.689 250.242 618.629C194.397 618.388 138.552 618.147 82.7074 617.905C75.8131 617.879 68.912 617.845 62.0177 617.818C64.8116 620.612 67.5988 623.399 70.3928 626.193C63.1768 567.347 57.053 508.373 52.0548 449.299C47.0365 390.004 43.137 330.622 40.3632 271.179C39.5927 254.61 38.9026 238.027 38.3063 221.451C38.0048 213.049 37.7234 204.648 37.4621 196.246C37.3482 192.574 37.1003 188.876 37.174 185.197C37.2142 183.094 37.0266 184.119 37.5693 182.115C37.6363 181.874 37.8842 180.568 37.7033 181.807C37.6363 182.263 35.8742 183.06 37.6765 182.156C41.7166 180.125 42.8623 174.424 40.6781 170.699C38.2728 166.585 33.2746 165.653 29.2211 167.697C22.9431 170.853 20.7857 177.754 20.4574 184.3C20.0956 191.536 20.7991 198.953 21.0336 206.195C21.5361 221.451 22.1123 236.7 22.7622 251.95C24.0487 282.227 25.6298 312.491 27.5059 342.742C31.2512 403.236 36.1623 463.657 42.2325 523.964C45.6696 558.081 49.4753 592.157 53.6494 626.187C54.2055 630.703 57.0396 634.542 62.0244 634.562C120.315 634.816 178.612 635.064 236.902 635.319C251.367 635.379 265.826 635.446 280.291 635.506C292.76 635.56 306.187 636.974 318.448 634.12C323.909 632.846 329.356 630.207 333.134 625.979C337.912 620.639 339.352 614.013 340.056 607.092C341.496 592.881 342.447 578.61 343.613 564.372C348.364 506.27 352.826 448.147 356.993 389.997C361.147 332.075 365.006 274.127 368.578 216.165C369.026 208.835 369.475 201.505 369.918 194.175C370.065 191.683 370.078 188.541 370.474 186.417C370.976 183.663 371.532 183.395 373.71 182.196C379.043 179.248 383.867 176.333 386.895 170.779C389.877 165.305 390.869 159.154 391.311 153.01C392.202 140.609 391.559 127.611 382.695 118.036C375.814 110.599 364.779 106.278 354.675 107.129C349.375 107.578 344.33 109.005 339.814 111.879C343.198 116.261 346.581 120.649 349.965 125.031C352.464 122.713 356.008 121.674 359.754 121.775C360.357 121.788 360.986 121.815 361.589 121.889C360.484 121.761 361.985 121.969 362.105 121.996C363.318 122.244 364.511 122.565 365.683 122.967C366.501 123.242 369.449 124.81 370.052 125.272C377.736 131.182 379.78 141.312 378.896 150.712C378.567 154.17 377.247 159.262 375.083 161.573C373.777 162.973 373.281 163.215 371.237 163.55C368.088 164.065 364.651 163.757 361.469 163.797C346.97 163.985 332.471 164.173 317.972 164.36C260.868 165.097 203.757 165.828 146.652 166.565C118.097 166.933 89.5481 167.302 60.9926 167.67C53.8571 167.764 46.7149 167.851 39.5793 167.945C36.0082 167.992 32.4438 168.039 28.8727 168.085C27.1173 168.106 23.7404 168.561 22.5277 168.039C21.9113 167.771 21.8577 167.456 21.3954 166.484C20.7589 165.131 21.6634 167.275 21.1743 165.834C20.9666 165.225 20.7924 164.608 20.6249 163.992C19.9013 161.372 19.2849 158.719 18.7422 156.059C17.7841 151.335 17.2213 147.235 17.5563 141.949C17.7707 138.639 18.9968 134.471 21.0671 132.22C24.1894 128.817 28.0821 127.591 33.02 126.934C37.5559 126.331 44.1487 126.552 49.4016 126.579C56.5371 126.619 63.6793 126.653 70.8149 126.693C99.3637 126.84 127.913 126.994 156.461 127.142C213.559 127.443 270.657 127.738 327.761 128.039C334.897 128.08 342.039 128.113 349.174 128.153C353.308 128.173 358.085 124.281 357.549 119.778C353.985 89.923 346.273 61.0525 334.367 33.4417C331.493 26.7752 328.377 20.2091 325.001 13.7771C323.446 10.8157 321.671 7.97488 319.084 5.81747C315.312 2.66176 310.857 1.91135 306.073 1.82425C290.04 1.53615 273.993 1.57636 257.96 1.45576C225.887 1.20786 193.807 0.959955 161.734 0.712053C145.694 0.591453 129.661 0.46415 113.621 0.34355C106.178 0.28325 98.5865 -0.105357 91.2566 1.54285C83.9335 3.19106 77.9705 7.44558 73.5753 13.4421C69.1131 19.5257 66.9087 27.0164 64.6374 34.1184C61.9239 42.614 59.2037 51.1097 56.4902 59.6053C50.9225 77.0254 45.3547 94.4388 39.787 111.859C36.4638 122.11 52.631 126.519 55.9073 116.274Z" fill="black"/>
<path d="M100.925 110.64C105.943 99.6047 110.962 88.5764 115.98 77.5415C117.166 74.9285 118.492 72.1614 120.965 70.7008C122.854 69.5819 125.139 69.4144 127.33 69.2737C173.747 66.3122 220.306 65.5417 266.804 66.9621C268.841 67.0224 270.972 67.1162 272.72 68.1614C274.972 69.5082 276.084 72.1145 277.062 74.5466C282.429 87.9667 287.789 101.38 293.155 114.8" fill="#7284FC"/>
<path d="M108.161 114.867C111.384 107.772 114.613 100.683 117.836 93.588C119.45 90.0436 121.058 86.4926 122.673 82.9483C123.249 81.6753 123.799 80.3755 124.482 79.1561C124.589 78.9618 125.641 77.528 125.447 77.6419C124.991 77.9099 125.166 77.9367 125.728 77.8161C128.596 77.1729 132.227 77.3404 135.289 77.1595C139.49 76.9116 143.691 76.6838 147.899 76.4761C155.865 76.0808 163.831 75.7458 171.798 75.4778C203.804 74.3991 235.817 74.4728 267.829 75.3706C269.967 75.4309 268.459 75.6386 268.137 75.1696C269.122 76.6034 269.297 77.5615 269.96 79.2097C271.588 83.2766 273.209 87.3435 274.837 91.4105C278.254 99.9463 281.665 108.489 285.082 117.025C286.757 121.219 290.676 124.167 295.386 122.874C299.373 121.775 302.924 116.797 301.236 112.569C297.986 104.435 294.73 96.3015 291.48 88.1743C289.852 84.1074 288.231 80.0405 286.603 75.9736C284.975 71.9 283.628 67.5986 280.754 64.2016C274.804 57.1867 264.473 58.4865 256.185 58.2922C247.327 58.0845 238.47 57.9572 229.606 57.9103C212.326 57.8165 195.054 58.0242 177.781 58.5334C160.307 59.0493 142.525 59.2034 125.132 61.0727C119.551 61.6757 115.002 63.7192 111.611 68.3088C109.186 71.5918 107.745 75.5247 106.064 79.2164C101.943 88.2816 97.8227 97.34 93.6955 106.405C91.8262 110.519 92.5163 115.417 96.6971 117.862C100.295 119.979 106.278 119.008 108.161 114.867Z" fill="black"/>
<path d="M62.2454 564.125C114.727 565.639 167.255 565.766 219.743 564.513L62.2454 564.125Z" fill="#7284FC"/>
<path d="M62.2455 572.499C114.734 574 167.248 574.127 219.743 572.888C230.503 572.633 230.544 555.883 219.743 556.138C167.248 557.377 114.734 557.25 62.2455 555.749C51.4651 555.441 51.4718 572.191 62.2455 572.499Z" fill="black"/>
<path d="M277.685 565.43C295.916 564.968 314.167 565.089 332.397 565.792L277.685 565.43Z" fill="#7284FC"/>
<path d="M277.685 573.806C295.922 573.357 314.167 573.477 332.397 574.167C336.92 574.335 340.773 570.194 340.773 565.792C340.773 561.116 336.933 557.592 332.397 557.417C314.167 556.734 295.922 556.613 277.685 557.055C266.925 557.317 266.885 574.067 277.685 573.806Z" fill="black"/>
<path d="M169.078 229.33C158.847 233.377 152.602 241.397 148.589 251.414C144.676 261.196 142.619 272.673 143.604 283.178C145.514 303.567 157.386 322.407 175.543 332.176C179.201 334.146 183.811 333.409 186.35 330.018C189.01 326.454 188.4 322.354 185.694 319.024C179.436 311.325 168.22 312.015 159.302 312.437C149.808 312.886 140.073 313.972 131.028 317.007C113.3 322.95 99.0422 336.558 95.5447 355.398C93.5481 366.132 94.801 376.597 99.3303 386.533C101.206 390.647 107.169 391.659 110.787 389.535C115.015 387.062 115.672 382.205 113.789 378.078C112.442 375.123 111.491 370.962 111.317 367.599C111.082 362.916 111.384 360.135 112.683 355.673C113.742 352.035 115.089 349.154 117.507 345.663C118.278 344.557 119.685 342.929 121.112 341.556C122.68 340.042 124.027 338.976 125.862 337.797C133.038 333.174 141.976 330.849 150.25 329.898C155.182 329.328 160.16 329.1 165.125 329.013C166.103 328.993 167.081 328.98 168.059 329C168.702 329.013 169.339 329.04 169.975 329.08C171.047 329.167 171.255 329.188 170.592 329.134C172.796 329.536 172.448 329.161 173.841 330.876C177.225 326.494 180.608 322.106 183.992 317.724C171.315 310.903 162.197 297.852 160.455 284.183C159.403 275.922 160.837 267.393 163.409 259.527C164.542 256.07 165.661 253.457 167.945 250.268C169.238 248.459 171.731 246.201 173.533 245.491C177.734 243.829 180.675 239.89 179.382 235.186C178.277 231.18 173.305 227.655 169.078 229.33Z" fill="black"/>
<path d="M216.32 331.472C237.083 327.097 250.717 306.475 251.575 286.086C252.057 274.649 248.721 263.286 243.481 253.209C240.734 247.936 237.317 243.079 233.585 238.456C230.048 234.074 226.055 229.773 220.882 227.34C216.789 225.418 211.851 226.195 209.425 230.342C207.301 233.98 208.32 239.87 212.427 241.799C219.542 245.142 224.802 253.859 228.493 260.673C232.56 268.184 235.026 276.499 234.859 284.974C234.591 298.656 225.686 312.404 211.864 315.319C207.435 316.25 204.869 321.449 206.015 325.623C207.274 330.213 211.877 332.41 216.32 331.472Z" fill="black"/>
<path d="M219.274 331.533C226.39 327.7 234.108 323.714 242.316 323.305C249.726 322.93 256.848 324.9 263.354 328.766C277.095 336.933 284.144 352.142 286.569 367.472C287.28 371.941 292.861 374.426 296.874 373.321C301.638 372.014 303.433 367.505 302.723 363.016C299.581 343.164 288.733 323.861 270.885 313.764C262.295 308.907 252.225 306.073 242.316 306.555C230.979 307.111 220.661 311.774 210.819 317.074C206.839 319.218 205.586 324.726 207.817 328.531C210.169 332.551 215.274 333.684 219.274 331.533Z" fill="black"/>
<path d="M197.479 346.407C187.081 366.547 194.799 390.198 212.031 403.765C229.13 417.233 252.781 421.098 273.297 413.735C277.551 412.208 280.412 408.033 279.146 403.43C278.013 399.317 273.122 396.047 268.841 397.581C253.799 402.982 237.063 401.266 223.87 391.853C212.46 383.719 205.11 368.081 211.944 354.855C214.021 350.835 212.983 345.763 208.943 343.398C205.184 341.207 199.563 342.373 197.479 346.407Z" fill="black"/>
<path d="M183.034 350.983C188.997 366.051 191.724 384.362 175.731 393.542C168.79 397.528 160.093 400.764 152.1 401.682C145.018 402.499 138.264 400.831 135.162 394.634C133.139 390.587 127.424 389.455 123.705 391.632C119.584 394.037 118.667 399.029 120.703 403.089C125.822 413.313 137.386 418.506 148.421 418.6C160.167 418.7 173.031 414.097 183.255 408.523C193.392 402.995 200.909 393.923 203.462 382.554C206.202 370.339 203.723 357.978 199.188 346.527C197.526 342.327 193.586 339.385 188.883 340.678C184.883 341.784 181.359 346.755 183.034 350.983Z" fill="black"/>
<path d="M142.8 334.534C140.957 346.386 142.686 358.513 149.125 368.818C155.135 378.439 164.153 385.307 174.739 389.2C178.987 390.761 183.911 387.451 185.044 383.35C186.33 378.681 183.456 374.614 179.195 373.046C165.955 368.182 156.676 353.622 158.954 338.99C159.644 334.527 157.815 329.985 153.105 328.685C149.125 327.593 143.497 330.038 142.8 334.534Z" fill="black"/>
<path d="M223.281 387.766C245.29 378.171 256.513 354.427 252.701 331.224C251.964 326.755 246.43 324.27 242.396 325.375C237.652 326.682 235.81 331.198 236.547 335.68C239.254 352.149 229.371 366.962 214.825 373.301C210.678 375.11 209.727 381.18 211.824 384.758C214.323 389.039 219.113 389.582 223.281 387.766Z" fill="black"/>
<path d="M179.04 302.716C183.938 298.253 193.178 297.054 200.038 296.277C208.688 295.292 214.812 299.144 221.458 304.297C225.029 307.064 229.82 307.781 233.304 304.297C236.192 301.409 236.902 295.238 233.304 292.451C223.328 284.719 213.271 278.16 200.038 279.527C188.541 280.713 176.019 282.83 167.195 290.87C163.852 293.918 164.099 299.62 167.195 302.716C170.525 306.046 175.684 305.771 179.04 302.716Z" fill="black"/>
</g>
<defs>
<clipPath id="clip0_397_21264">
<rect width="395.512" height="744.866" fill="white" transform="translate(0.585938)"/>
</clipPath>
</defs>
</svg>
