<svg width="13" height="30" viewBox="0 0 13 30" fill="none" xmlns="http://www.w3.org/2000/svg">
<g filter="url(#filter0_di_351_19642)">
<path d="M8.86288 0H3.74326C2.02612 0 0.731357 1.5601 1.04781 3.24783L3.79323 17.8901C4.0347 19.1779 5.15918 20.1112 6.46946 20.1112C7.80241 20.1112 8.9394 19.1462 9.15611 17.831L11.5688 3.1883C11.844 1.51821 10.5555 0 8.86288 0Z" fill="#F9F2E7"/>
<path d="M8.7804 24.4533C8.7804 25.8417 7.65489 26.9672 6.2665 26.9672C4.87812 26.9672 3.75261 25.8417 3.75261 24.4533C3.75261 23.065 4.87812 21.9394 6.2665 21.9394C7.65489 21.9394 8.7804 23.065 8.7804 24.4533Z" fill="#F9F2E7"/>
</g>
<defs>
<filter id="filter0_di_351_19642" x="0" y="0" width="13.6064" height="29.9672" filterUnits="userSpaceOnUse" color-interpolation-filters="sRGB">
<feFlood flood-opacity="0" result="BackgroundImageFix"/>
<feColorMatrix in="SourceAlpha" type="matrix" values="0 0 0 0 0 0 0 0 0 0 0 0 0 0 0 0 0 0 127 0" result="hardAlpha"/>
<feOffset dy="2"/>
<feGaussianBlur stdDeviation="0.5"/>
<feComposite in2="hardAlpha" operator="out"/>
<feColorMatrix type="matrix" values="0 0 0 0 0.164706 0 0 0 0 0.109804 0 0 0 0 0.00784314 0 0 0 0.24 0"/>
<feBlend mode="normal" in2="BackgroundImageFix" result="effect1_dropShadow_351_19642"/>
<feBlend mode="normal" in="SourceGraphic" in2="effect1_dropShadow_351_19642" result="shape"/>
<feColorMatrix in="SourceAlpha" type="matrix" values="0 0 0 0 0 0 0 0 0 0 0 0 0 0 0 0 0 0 127 0" result="hardAlpha"/>
<feOffset dx="2" dy="2"/>
<feGaussianBlur stdDeviation="1"/>
<feComposite in2="hardAlpha" operator="arithmetic" k2="-1" k3="1"/>
<feColorMatrix type="matrix" values="0 0 0 0 1 0 0 0 0 1 0 0 0 0 1 0 0 0 1 0"/>
<feBlend mode="normal" in2="shape" result="effect2_innerShadow_351_19642"/>
</filter>
</defs>
</svg>
