<?xml version="1.0" encoding="utf-8"?>
<!-- Generator: Adobe Adobe Illustrator 24.2.0, SVG Export Plug-In . SVG Version: 6.00 Build 0)  -->
<svg version="1.1" xmlns="http://www.w3.org/2000/svg" xmlns:xlink="http://www.w3.org/1999/xlink" x="0px" y="0px" width="1728px"
	 height="1296px" viewBox="0 0 1728 1296" style="enable-background:new 0 0 1728 1296;" xml:space="preserve">
<style type="text/css">
	.st0{display:none;}
	.st1{display:inline;}
	.st2{fill:#9E9E9E;}
	.st3{fill:#FFFFFF;stroke:#000000;stroke-width:9;stroke-miterlimit:10;}
	.st4{fill:#FFFFFF;stroke:#4B4B4B;stroke-width:10;stroke-miterlimit:10;}
	.st5{fill:#9C9C9C;stroke:#FFFFFF;stroke-miterlimit:10;}
	.st6{fill:#FFFFFF;stroke:#FFFFFF;stroke-miterlimit:10;}
	.st7{fill:#FFFFFF;}
	.st8{fill:#4D4D4D;}
	.st9{fill:#A39477;}
	.st10{fill:#854822;}
</style>
<g id="Layer_2" class="st0">
	<g class="st1">
		<g>
			<path d="M492.01,108.42c-78.5,59.19-144.49,133.38-194.57,218c-12.53,21.17-24.26,42.94-34.58,65.28
				c-2.68,5.8-3.59,11.53-5.66,17.43c-2.32,6.64-5.67,13.04-8.32,19.57c-5.22,12.9-9.78,26.07-13.79,39.4
				c-1.96,6.53-3.79,13.11-5.49,19.71c-0.35,1.34-0.57,2.93-1.07,4.19c1.24-3.17,0.28-1.16-0.18-0.49c-2.4,3.53-3.04,9.2-4.04,13.28
				c-3.37,13.79-6.28,27.69-8.71,41.67c-4.99,28.77-8.11,57.9-8.99,87.08c-0.95,31.31,0.68,62.67,4.71,93.74
				c2.16,16.67,4.86,33.25,8.3,49.7c1.67,8.01,3.51,16,5.49,23.94c2.13,8.55,3.21,18.66,11.78,23.28c-1.79-1.79-3.59-3.59-5.38-5.38
				c-1.52-2.17,0.34,3.1,0.56,4.02c0.54,2.27,1.09,4.53,1.67,6.78c1.31,5.09,2.74,10.15,4.28,15.18c2.74,8.96,5.84,17.8,9.25,26.53
				c7.09,18.11,15.32,35.76,24.55,52.87c18.26,33.85,40.02,65.66,61.76,97.34c23.69,34.52,52.41,66.12,81.99,95.66
				c7.13,7.12,14.48,14.04,22.12,20.61c3.63,3.12,6.79,6.11,9.88,9.75c3.49,4.11,8.42,7.16,12.68,10.45
				c16.42,12.69,32.87,25.35,50.01,37.05c8.21,5.61,16.57,10.99,25.12,16.08c4.09,2.44,7.77,4.76,11.51,7.62
				c4.25,3.24,9.51,5.46,14.26,7.92c18.46,9.55,37.35,18.21,56.6,26.04c18.04,7.34,36.46,13.77,55.15,19.24
				c4.62,1.35,9.25,2.65,13.9,3.88c2.69,0.72,5.38,1.41,8.07,2.09c1.02,0.26,2.04,0.51,3.05,0.76c1.58,0.39,4.38,1.52,1.48,0.24
				c9.39,4.18,19.73,5.91,29.81,7.99c82.67,17.07,167.87,18.18,250.91,2.97c40.64-7.44,80.52-18.87,118.99-33.92
				c2.28-0.89,4.7-1.65,6.89-2.74c0.06-0.03,3.33-1.42,1.24-0.78c1.55-0.47,3.28-0.34,4.86-0.78c5.43-1.49,10.57-4.8,15.76-7.01
				c9.86-4.2,19.91-7.74,29.62-12.32c9.53-4.5,18.95-9.21,28.36-13.96c9.08-4.59,18.93-8.6,27.36-14.33
				c9.07-6.17,15.25-13.56,19.46-23.67c3.11-7.48-3.36-16.5-10.48-18.45c-8.63-2.37-15.33,2.96-18.45,10.48
				c-0.51,1.22-2.84,3.63-5.25,5.51c0.3-0.24,0.91-0.69-0.42,0.23c-0.94,0.66-1.92,1.26-2.91,1.84c-2.18,1.29-4.46,2.39-6.72,3.53
				c-9.49,4.77-18.95,9.61-28.46,14.35c-8.56,4.26-17.15,8.81-26.02,12.39c-4.58,1.85-9.25,3.49-13.82,5.37
				c-4.9,2.02-11.49,3.93-15.89,7.01c-2.2,1.53,1.06,0.06,1.5-0.15c-0.92,0.45-4.17,0.52-5.73,1.02c-2.33,0.74-4.61,1.87-6.88,2.76
				c-4.92,1.94-9.86,3.83-14.82,5.65c-9.23,3.39-18.54,6.58-27.92,9.55c-19.32,6.12-38.93,11.34-58.74,15.61
				c-77.49,16.7-158.45,18.21-236.51,4.35c-10.24-1.82-20.43-3.88-30.56-6.18c-2.46-0.56-4.92-1.13-7.37-1.72
				c-1.04-0.25-2.1-0.59-3.16-0.76c-2.52-0.42,0.03,0,0.53,0.25c-4.78-2.38-9.58-3.47-14.74-4.79c-19.07-4.9-37.9-10.75-56.37-17.57
				c-17.29-6.38-34.19-13.66-50.78-21.69c-8.74-4.23-18.2-8.22-26.37-13.47c-4.11-2.64-7.85-5.63-12.15-8.14
				c-4.49-2.62-8.94-5.31-13.33-8.09c-16.4-10.35-32.11-21.74-47.55-33.46c-7.42-5.63-15.93-11-22.66-17.45
				c-3.29-3.15-5.75-6.75-9.27-9.72c-4.02-3.39-7.95-6.87-11.81-10.43c-29.01-26.75-55.91-56.79-79.89-88.09
				c-22.83-29.79-43.65-61.96-62.52-94.39c-18.31-31.47-33.55-64.14-43.15-99.31c-2.65-9.72-3.01-23.35-12.87-28.66
				c1.79,1.79,3.59,3.59,5.38,5.38c1.43,2.04-0.29-1.95-0.46-2.6c-0.48-1.81-0.94-3.62-1.4-5.44c-0.73-2.9-1.45-5.8-2.14-8.7
				c-1.72-7.23-3.32-14.48-4.79-21.76c-2.57-12.74-4.79-25.57-6.48-38.46c-3.55-27.07-5.12-54.43-4.8-81.74
				c0.3-26.44,2.32-52.93,6.35-79.07c2.1-13.6,4.66-27.12,7.67-40.55c1.48-6.59,3.48-13.14,4.76-19.76
				c0.66-3.42-1.65,2.61,0.46-0.61c0.81-1.24,1.36-3.07,1.82-4.49c1.11-3.4,1.79-7,2.72-10.45c3.55-13.12,7.6-26.1,12.26-38.87
				c2.2-6.03,4.49-12.03,6.99-17.94c2.57-6.06,5.88-11.97,7.43-18.4c1.36-5.6,1.74-7.2,4.35-12.65c2.74-5.71,5.55-11.39,8.43-17.03
				c5.45-10.68,11.14-21.24,17.07-31.66c22.62-39.75,48.67-77.47,78.14-112.17c33.41-39.34,71.3-75.58,112.3-106.49
				c6.46-4.87,9.81-12.95,5.38-20.52C508.81,107.44,498.52,103.52,492.01,108.42L492.01,108.42z"/>
		</g>
	</g>
	<g class="st1">
		<g>
			<path d="M1234.62,1186.25c48.46-32.41,92.52-70.99,130.51-115.23c9.78-11.39,19.13-23.13,28.21-35.08
				c8.74-11.5,18.72-23.35,25.61-36.07c2.18-4.03,2.28-5.22,4.87-9.02c2.23-3.28,4.43-6.59,6.58-9.92
				c4.19-6.49,8.22-13.08,12.06-19.78c7.83-13.65,14.86-27.74,21.06-42.2c26.19-61.13,47.62-124.59,55.5-190.95
				c3.89-32.84,5.76-65.7,3.26-98.73c-0.58-7.67-0.18-15.39-0.69-23.07c-0.31-4.64-1.3-9.26-1.57-13.89c-0.14-2.41,0.16-6.17,0-9.31
				c-0.83-16.24-4.07-32.8-6.87-48.8c-5.51-31.55-13.32-62.71-23.66-93.03c-5.21-15.25-10.45-31.38-17.78-45.76
				c-0.29-0.66-0.58-1.33-0.86-1.99c0.91,3.64,0.95,3.08,0.12-1.67c-0.44-1.9-1.19-3.48-1.99-5.32c-1.66-3.82-3.43-7.61-5.18-11.39
				c-3.2-6.89-6.5-13.73-9.9-20.52c-13.82-27.6-29.4-54.32-46.95-79.71c-9.05-13.09-18.62-25.81-28.59-38.21
				c-1.3-1.62-2.55-3.45-4.01-4.93c-4.45-4.52,1.51,4.19-0.87-1.19c-1.84-4.17-4.94-7.53-7.92-10.94c-5-5.72-10.4-11.07-15.47-16.73
				c-20.99-23.47-43.47-45.13-67.86-65.08c-24.39-19.95-49.85-38.95-76.57-55.69c-49.45-31-103.52-54.63-159.65-70.59
				C985.42-5.77,921.92-15.14,859-16.75c-66.24-1.7-133.74,6.13-197.58,24.21c-15.4,4.36-30.36,9.85-45,16.32
				c-7.41,3.27-9.14,14.09-5.38,20.52c4.47,7.64,13.08,8.67,20.52,5.38c27.79-12.27,57.8-18.93,87.49-24.74
				c31.17-6.1,62.96-10.47,94.72-11.52c62.57-2.07,125.18,3.67,186.27,17.33c54.48,12.18,107.22,30.88,156.38,57.35
				c25.2,13.57,49.38,28.98,72.42,45.94c24.24,17.84,47.73,36.99,69.45,57.86c10.7,10.28,20.68,21.07,30.55,32.12
				c5.06,5.66,10.47,11.01,15.47,16.73c0.03,0.04,2.75,2.78,2.73,3.2c-0.42-0.74-0.84-1.49-1.26-2.23c0.54,1.72,1.29,3.33,2.25,4.84
				c2.52,3.98,6.11,7.57,9.07,11.25c18.47,22.96,34.99,47.51,49.83,72.96c7.42,12.73,14.42,25.71,21.02,38.89
				c3.4,6.79,6.7,13.64,9.9,20.52c1.02,2.2,4.62,7.21,4.33,9.48c-0.23-0.8-0.45-1.6-0.68-2.4c0.04,1.66,0.3,3.28,0.78,4.86
				c0.8,2.9,2.3,5.67,3.49,8.43c11.94,27.64,21.32,56.48,28.67,85.66c3.82,15.19,7.06,30.53,9.76,45.96
				c2.5,14.32,5.79,29.51,5.79,44.09c0,6.73,1.12,13.24,1.57,19.94c0.56,8.42,0.26,16.85,0.85,25.26
				c1.11,15.74,1.35,31.53,0.77,47.29c-2.34,63.47-17.35,126.53-39.88,185.71c-10.63,27.93-21.87,55.59-36.77,81.56
				c-3.84,6.7-7.87,13.29-12.06,19.78c-1.95,3.03-3.94,6.03-5.96,9.02c-2.04,3.01-4.58,8.27-5.48,9.92
				c-6.96,12.72-16.85,24.55-25.61,36.07c-32.93,43.34-71.65,82.84-114.88,115.95c-10.75,8.23-21.82,16.06-33.08,23.59
				c-6.73,4.5-9.65,13.23-5.38,20.52C1218,1187.55,1227.85,1190.78,1234.62,1186.25L1234.62,1186.25z"/>
		</g>
	</g>
	<g class="st1">
		<g>
			<path d="M1192.73,1211.61c13.99-7.72,27.66-15.99,41.01-24.78c6.76-4.45,9.63-13.26,5.38-20.52c-3.93-6.71-13.73-9.86-20.52-5.38
				c-13.34,8.79-27.01,17.06-41.01,24.78c-7.09,3.91-9.4,13.66-5.38,20.52C1176.39,1213.38,1185.61,1215.54,1192.73,1211.61
				L1192.73,1211.61z"/>
		</g>
	</g>
	<g class="st1">
		<g>
			<path d="M499.99,139.74c50.68-43.87,111.5-79.94,174.12-103.26c7.59-2.83,12.76-10.15,10.48-18.45
				c-2-7.29-10.82-13.32-18.45-10.48C597.5,33.11,534.16,70.59,478.77,118.53c-6.13,5.3-5.44,15.77,0,21.21
				C484.85,145.82,493.84,145.06,499.99,139.74L499.99,139.74z"/>
		</g>
	</g>
	<g class="st1">
		<g>
			<path class="st2" d="M1221.31,569.55c2.76,10.69,5.06,21.49,6.84,32.39c1.61,9.85,2.64,18.97,3.41,30.48
				c1.44,21.49,1,43.09-1.23,64.51c-0.28,2.68-0.6,5.35-0.92,8.03c-0.63,5.17,0.21-1.4-0.21,1.62c-0.19,1.33-0.38,2.67-0.58,4
				c-0.85,5.59-1.82,11.17-2.91,16.71c-2.13,10.83-4.73,21.58-7.79,32.19c-2.98,10.35-6.4,20.57-10.25,30.63
				c-3.78,9.86-7,17.26-12.02,27.5c-19.21,39.19-42.94,71.36-74.46,100.98c-7.55,7.1-15.4,13.87-23.52,20.32
				c0.1-0.08-3.91,3.06-1.87,1.48c-0.82,0.63-1.65,1.26-2.47,1.88c-2.07,1.56-4.15,3.1-6.25,4.62c-4.41,3.19-8.89,6.28-13.44,9.28
				c-17.53,11.56-36.02,21.68-55.21,30.23c-0.95,0.42-1.9,0.84-2.85,1.25c-0.95,0.41-1.9,0.82-2.86,1.23c0.96-0.4,0.95-0.41,0-0.01
				c-2.64,1.09-5.28,2.15-7.94,3.19c-5.56,2.16-11.17,4.18-16.82,6.08c-11.06,3.71-22.28,6.9-33.64,9.56
				c-5.8,1.36-11.63,2.58-17.49,3.66c-2.8,0.52-5.61,1-8.42,1.45c-1.53,0.25-3.07,0.48-4.61,0.71c-0.5,0.07-4.81,0.66-2.17,0.32
				c-11.83,1.53-23.72,2.45-35.64,2.81c-7.84,0.24-15.37,6.73-15,15c0.35,7.92,6.6,15.26,15,15c89.82-2.74,176.98-37.8,244.87-96.44
				c68.66-59.31,113.75-143.62,126.94-233.24c7.62-51.83,5.57-104.56-7.54-155.37c-2.02-7.84-10.73-12.6-18.45-10.48
				C1223.84,553.28,1219.28,561.68,1221.31,569.55L1221.31,569.55z"/>
		</g>
	</g>
	<g class="st1">
		<g>
			<path class="st2" d="M1256.07,594.51c-11.74-76.07-51.33-144.91-98.87-204.23c-46.42-57.92-105.04-108.32-177.98-128.16
				c-43.11-11.73-88.65-16.52-133.21-18c-7.85-0.26-15.35,7.09-15,15c0.37,8.35,6.59,14.72,15,15
				c37.49,1.25,74.25,4.95,110.65,13.29c34.6,7.93,64.75,20.99,94.1,41.27c28.18,19.47,53.68,45.02,76.16,71.75
				c22.7,26.99,43.3,56.44,60.42,87.87c19.44,35.68,33.53,73.51,39.8,114.17c1.24,8.01,11.29,12.45,18.45,10.48
				C1254.14,610.61,1257.31,602.54,1256.07,594.51L1256.07,594.51z"/>
		</g>
	</g>
	<g class="st1">
		<g>
			<path class="st2" d="M810.99,246.24c-74.21,11.64-143.95,43.72-201.96,91.29c-55.66,45.65-100.69,107.71-121.49,176.94
				c-13.48,44.88-18.79,91.77-21.9,138.37c-0.52,7.85,7.27,15.35,15,15c8.57-0.38,14.44-6.6,15-15
				c2.62-39.21,6.66-76.74,16.5-114.87c2.53-9.82,5.4-19.58,8.7-29.17c3.06-8.88,5.46-14.51,9.11-22.44
				c7.07-15.35,15.35-30.13,24.66-44.24c17.95-27.19,40.21-51.85,65.45-74.6c25.61-23.08,55.85-42.6,87.75-58.08
				c17.2-8.35,33.47-14.76,52.47-20.68c19.2-5.98,38.82-10.49,58.68-13.6c8.01-1.26,12.45-11.27,10.48-18.45
				C827.09,248.18,819.02,244.98,810.99,246.24L810.99,246.24z"/>
		</g>
	</g>
	<g class="st1">
		<g>
			<path class="st2" d="M802.02,276.24c17.87-1.39,35.77-2.08,53.68-2.06c7.85,0.01,15.36-6.91,15-15c-0.36-8.13-6.59-14.99-15-15
				c-17.92-0.02-35.82,0.67-53.68,2.06c-7.8,0.61-15.38,6.46-15,15C787.36,268.85,793.64,276.9,802.02,276.24L802.02,276.24z"/>
		</g>
	</g>
	<g class="st1">
		<g>
			<path class="st2" d="M465.56,634.37c-3.98,25.12,0.02,49.65,5.42,74.26c4.51,20.56,9.85,40.95,16.32,60.98
				c12.97,40.14,30.35,79.39,54.57,114.07c51.02,73.05,131.69,121.44,215.75,147.59c48.56,15.11,100.17,22.05,150.94,17.63
				c7.8-0.68,15.38-6.41,15-15c-0.34-7.54-6.63-15.73-15-15c-84.62,7.37-168.87-17.4-241.38-60.7
				c-34.96-20.88-65.87-46.04-91.35-78.64c0.99,1.26-0.69-0.9-0.71-0.92c-0.67-0.89-1.34-1.77-2-2.67
				c-1.65-2.23-3.28-4.48-4.87-6.75c-2.87-4.09-5.65-8.24-8.33-12.45c-5.37-8.43-10.37-17.1-15.03-25.95
				c-9.57-18.19-16.43-34.24-23.24-53.24c-7.58-21.15-13.77-42.79-18.95-64.65c-5.45-22.99-11.85-47.7-8.22-70.59
				c1.22-7.72-1.98-16.52-10.48-18.45C476.82,622.26,466.87,626.08,465.56,634.37L465.56,634.37z"/>
		</g>
	</g>
	<g class="st1">
		<g>
			<path class="st2" d="M1083.39,1164.87c-11.23-29.69-22.46-59.37-33.7-89.06c-2.87-7.57-10.12-12.77-18.45-10.48
				c-7.26,2-13.36,10.84-10.48,18.45c11.23,29.69,22.46,59.37,33.7,89.06c2.87,7.57,10.12,12.77,18.45,10.48
				C1080.18,1181.33,1086.28,1172.49,1083.39,1164.87L1083.39,1164.87z"/>
		</g>
	</g>
	<g class="st1">
		<g>
			<path class="st2" d="M975.11,1215.63c-2.56-32.65-6.26-65.19-10.91-97.62c-1.15-8.03-11.35-12.43-18.45-10.48
				c-8.62,2.37-11.63,10.4-10.48,18.45c4.23,29.48,7.49,59.66,9.84,89.64c0.61,7.8,6.46,15.38,15,15
				C967.71,1230.29,975.77,1224,975.11,1215.63L975.11,1215.63z"/>
		</g>
	</g>
	<g class="st1">
		<g>
			<path class="st2" d="M878.58,1215.6c-0.47-34.34-0.53-68.68-0.18-103.02c0.08-7.85-6.96-15.36-15-15c-8.19,0.37-14.92,6.59-15,15
				c-0.35,34.34-0.28,68.68,0.18,103.02c0.11,7.84,6.82,15.37,15,15C871.62,1230.24,878.7,1224.01,878.58,1215.6L878.58,1215.6z"/>
		</g>
	</g>
	<g class="st1">
		<g>
			<path class="st2" d="M778.03,1212.24c6.25-27.67,11.45-55.56,15.61-83.62c1.14-7.73-1.92-16.5-10.48-18.45
				c-7.12-1.62-17.22,2.18-18.45,10.48c-4.16,28.06-9.36,55.95-15.61,83.62c-1.72,7.64,2.33,16.6,10.48,18.45
				C767.2,1224.45,776.19,1220.43,778.03,1212.24L778.03,1212.24z"/>
		</g>
	</g>
	<g class="st1">
		<g>
			<path class="st2" d="M694.52,1188.36c7.05-32.67,16.73-64.7,28.96-95.8c2.88-7.32-3.15-16.78-10.48-18.45
				c-8.63-1.96-15.37,2.64-18.45,10.48c-12.22,31.11-21.9,63.13-28.96,95.8c-1.65,7.65,2.27,16.58,10.48,18.45
				C683.62,1200.56,692.75,1196.56,694.52,1188.36L694.52,1188.36z"/>
		</g>
	</g>
	<g class="st1">
		<g>
			<path class="st2" d="M592.24,1141.5c11.14-24.78,22.27-49.55,33.41-74.33c3.32-7.38,2.13-16.13-5.38-20.52
				c-6.42-3.75-17.19-2.04-20.52,5.38c-11.14,24.78-22.27,49.55-33.41,74.33c-3.32,7.38-2.13,16.13,5.38,20.52
				C578.14,1150.63,588.91,1148.93,592.24,1141.5L592.24,1141.5z"/>
		</g>
	</g>
	<g class="st1">
		<g>
			<path class="st2" d="M513.68,1096.82c19.13-23.19,38.26-46.38,57.38-69.57c5.15-6.24,6.11-15.1,0-21.21
				c-5.31-5.31-16.03-6.28-21.21,0c-19.13,23.19-38.26,46.38-57.38,69.57c-5.15,6.24-6.11,15.1,0,21.21
				C497.77,1102.13,508.5,1103.1,513.68,1096.82L513.68,1096.82z"/>
		</g>
	</g>
	<g class="st1">
		<g>
			<path class="st2" d="M441.91,1025.07c20.76-18.37,41.53-36.73,62.29-55.1c6.07-5.37,5.48-15.73,0-21.21
				c-6.03-6.03-15.13-5.38-21.21,0c-20.76,18.37-41.53,36.73-62.29,55.1c-6.07,5.37-5.48,15.73,0,21.21
				C426.73,1031.1,435.82,1030.45,441.91,1025.07L441.91,1025.07z"/>
		</g>
	</g>
	<g class="st1">
		<g>
			<path class="st2" d="M381.15,938.45c20.05-11.83,40.1-23.67,60.15-35.5c6.97-4.11,9.48-13.51,5.38-20.52
				c-4.09-6.99-13.52-9.51-20.52-5.38c-20.05,11.83-40.1,23.67-60.15,35.5c-6.97,4.11-9.48,13.51-5.38,20.52
				C364.72,940.06,374.15,942.59,381.15,938.45L381.15,938.45z"/>
		</g>
	</g>
	<g class="st1">
		<g>
			<path class="st2" d="M351.25,858.49c24.83-9.39,49.66-18.78,74.48-28.18c7.57-2.86,12.77-10.12,10.48-18.45
				c-2-7.26-10.83-13.36-18.45-10.48c-24.83,9.39-49.66,18.78-74.48,28.18c-7.57,2.86-12.77,10.12-10.48,18.45
				C334.8,855.27,343.64,861.37,351.25,858.49L351.25,858.49z"/>
		</g>
	</g>
	<g class="st1">
		<g>
			<path class="st2" d="M372.08,716.97c-21.09,3.03-43.92,2.86-65.53,0.26c-7.82-0.94-15.33,7.57-15,15c0.4,8.93,6.62,13.99,15,15
				c24.59,2.96,49.03,2.19,73.51-1.33c8.03-1.15,12.43-11.35,10.48-18.45C388.16,718.83,380.13,715.81,372.08,716.97L372.08,716.97z
				"/>
		</g>
	</g>
	<g class="st1">
		<g>
			<path class="st2" d="M366.54,633.12c-23.96,2.43-47.79,6.05-71.35,11c-7.93,1.67-12.53,10.99-10.48,18.45
				c2.26,8.22,10.5,12.15,18.45,10.48c21.16-4.45,42.1-7.78,63.38-9.93c7.78-0.79,15.39-6.33,15-15
				C381.21,640.67,374.91,632.27,366.54,633.12L366.54,633.12z"/>
		</g>
	</g>
	<g class="st1">
		<g>
			<path class="st2" d="M380.1,549.37c-18.36-2.49-36.71-4.97-55.07-7.46c-7.74-1.05-16.49,1.85-18.45,10.48
				c-1.6,7.04,2.16,17.33,10.48,18.45c18.36,2.49,36.71,4.97,55.07,7.46c7.74,1.05,16.49-1.85,18.45-10.48
				C392.18,560.78,388.41,550.5,380.1,549.37L380.1,549.37z"/>
		</g>
	</g>
	<g class="st1">
		<g>
			<path class="st2" d="M407.52,474.56c-23.08-9.77-46.16-19.54-69.24-29.3c-7.45-3.15-16.07-2.24-20.52,5.38
				c-3.68,6.29-2.12,17.35,5.38,20.52c23.08,9.77,46.16,19.54,69.24,29.3c7.45,3.15,16.07,2.24,20.52-5.38
				C416.58,488.8,415.02,477.74,407.52,474.56L407.52,474.56z"/>
		</g>
	</g>
	<g class="st1">
		<g>
			<path class="st2" d="M445.73,395.64c-26.28-16.09-52.56-32.18-78.85-48.27c-6.91-4.23-16.49-1.51-20.52,5.38
				c-4.17,7.14-1.55,16.28,5.38,20.52c26.28,16.09,52.56,32.18,78.85,48.27c6.91,4.23,16.49,1.51,20.52-5.38
				C455.28,409.02,452.66,399.88,445.73,395.64L445.73,395.64z"/>
		</g>
	</g>
	<g class="st1">
		<g>
			<path class="st2" d="M494,313.64c-19.92-15.23-39.85-30.45-59.77-45.68c-6.44-4.92-16.79-1-20.52,5.38
				c-4.51,7.72-1.08,15.59,5.38,20.52c19.92,15.23,39.85,30.45,59.77,45.68c6.44,4.92,16.79,1,20.52-5.38
				C503.9,326.44,500.46,318.57,494,313.64L494,313.64z"/>
		</g>
	</g>
	<g class="st1">
		<g>
			<path class="st2" d="M559.25,268.8c-15.16-20.77-30.32-41.55-45.48-62.32c-4.77-6.53-13.03-9.77-20.52-5.38
				c-6.45,3.77-10.18,13.94-5.38,20.52c15.16,20.77,30.32,41.55,45.48,62.32c4.77,6.53,13.03,9.77,20.52,5.38
				C560.32,285.55,564.06,275.38,559.25,268.8L559.25,268.8z"/>
		</g>
	</g>
	<g class="st1">
		<g>
			<path class="st2" d="M630.92,218.62c-9.58-17.57-19.17-35.14-28.75-52.7c-3.88-7.11-13.68-9.38-20.52-5.38
				c-7.18,4.2-9.27,13.39-5.38,20.52c9.58,17.57,19.17,35.14,28.75,52.7c3.88,7.11,13.68,9.38,20.52,5.38
				C632.72,234.94,634.82,225.76,630.92,218.62L630.92,218.62z"/>
		</g>
	</g>
	<g class="st1">
		<g>
			<path class="st2" d="M711.89,200.49c-8.83-25.54-17.66-51.08-26.49-76.62c-2.65-7.65-10.28-12.72-18.45-10.48
				c-7.44,2.04-13.14,10.76-10.48,18.45c8.83,25.54,17.66,51.08,26.49,76.62c2.65,7.65,10.28,12.72,18.45,10.48
				C708.85,216.89,714.55,208.18,711.89,200.49L711.89,200.49z"/>
		</g>
	</g>
	<g class="st1">
		<g>
			<path class="st2" d="M807.67,159.82c-3.78-21.6-7.57-43.2-11.35-64.8c-1.4-7.99-11.18-12.48-18.45-10.48
				c-8.43,2.32-11.88,10.44-10.48,18.45c3.78,21.6,7.57,43.2,11.35,64.8c1.4,7.99,11.18,12.48,18.45,10.48
				C805.62,175.95,809.07,167.83,807.67,159.82L807.67,159.82z"/>
		</g>
	</g>
	<g class="st1">
		<g>
			<path class="st2" d="M881.83,168.68c-2.48-25.5-3.1-51.11-1.84-76.69c0.39-7.85-7.18-15.35-15-15c-8.46,0.38-14.59,6.59-15,15
				c-1.26,25.59-0.65,51.2,1.84,76.69c0.76,7.79,6.36,15.39,15,15C874.31,183.35,882.65,177.04,881.83,168.68L881.83,168.68z"/>
		</g>
	</g>
	<g class="st1">
		<g>
			<path class="st2" d="M960.98,184.64c3.89-27.17,7.77-54.33,11.66-81.5c1.11-7.73-1.89-16.5-10.48-18.45
				c-7.09-1.62-17.26,2.17-18.45,10.48c-3.89,27.17-7.77,54.33-11.66,81.5c-1.11,7.73,1.89,16.5,10.48,18.45
				C949.62,196.73,959.8,192.95,960.98,184.64L960.98,184.64z"/>
		</g>
	</g>
	<g class="st1">
		<g>
			<path class="st2" d="M1037.29,203.75c5.23-27.65,12.5-54.84,21.78-81.4c2.59-7.42-2.94-16.74-10.48-18.45
				c-8.37-1.91-15.68,2.54-18.45,10.48c-9.28,26.56-16.55,53.75-21.78,81.4c-1.45,7.68,2.14,16.55,10.48,18.45
				C1026.23,215.91,1035.74,212,1037.29,203.75L1037.29,203.75z"/>
		</g>
	</g>
	<g class="st1">
		<g>
			<path class="st2" d="M1112.48,243.25c15.21-31.93,30.42-63.85,45.62-95.78c3.48-7.31,2.02-16.19-5.38-20.52
				c-6.54-3.83-17.02-1.96-20.52,5.38c-15.21,31.93-30.42,63.85-45.62,95.78c-3.48,7.31-2.02,16.19,5.38,20.52
				C1098.5,252.46,1108.98,250.6,1112.48,243.25L1112.48,243.25z"/>
		</g>
	</g>
	<g class="st1">
		<g>
			<path class="st2" d="M1177.4,296.74c20.83-19.93,40.74-40.77,59.69-62.48c5.32-6.1,6-15.21,0-21.21
				c-5.44-5.44-15.86-6.13-21.21,0c-18.96,21.71-38.87,42.56-59.69,62.48c-5.85,5.6-5.64,15.57,0,21.21
				C1162.04,302.59,1171.53,302.36,1177.4,296.74L1177.4,296.74z"/>
		</g>
	</g>
	<g class="st1">
		<g>
			<path class="st2" d="M1229.97,351.71c20.84-18.28,41.67-36.57,62.51-54.85c6.09-5.35,5.47-15.75,0-21.21
				c-6.05-6.05-15.11-5.36-21.21,0c-20.84,18.28-41.67,36.57-62.51,54.85c-6.09,5.35-5.47,15.75,0,21.21
				C1214.81,357.75,1223.87,357.06,1229.97,351.71L1229.97,351.71z"/>
		</g>
	</g>
	<g class="st1">
		<g>
			<path class="st2" d="M1286.6,430.32c29.29-18.03,57.03-38.53,82.99-61.09c6.12-5.32,5.45-15.77,0-21.21
				c-6.07-6.07-15.08-5.33-21.21,0c-24.12,20.96-49.51,39.52-76.92,56.4c-6.89,4.24-9.54,13.42-5.38,20.52
				C1270.11,431.83,1279.68,434.59,1286.6,430.32L1286.6,430.32z"/>
		</g>
	</g>
	<g class="st1">
		<g>
			<path class="st2" d="M1310.82,505.02c28.85-14.32,58.57-25.61,89.87-34.35c7.8-2.18,12.63-10.62,10.48-18.45
				c-2.15-7.82-10.62-12.66-18.45-10.48c-33.45,9.33-65.94,21.94-97.04,37.37c-7.26,3.6-9.27,13.87-5.38,20.52
				C1294.62,507.03,1303.54,508.63,1310.82,505.02L1310.82,505.02z"/>
		</g>
	</g>
	<g class="st1">
		<g>
			<path class="st2" d="M1357.56,583.25c21.52-6.07,43.89-10.62,65.57-12.99c7.77-0.85,15.39-6.29,15-15c-0.33-7.4-6.65-15.91-15-15
				c-24.88,2.72-49.45,7.26-73.55,14.06c-7.8,2.2-12.63,10.61-10.48,18.45C1341.26,580.57,1349.74,585.46,1357.56,583.25
				L1357.56,583.25z"/>
		</g>
	</g>
	<g class="st1">
		<g>
			<path class="st2" d="M1341.62,669.57c30.26,2.39,60.41,0.92,90.4-3.62c8.02-1.21,12.44-11.3,10.48-18.45
				c-2.36-8.57-10.41-11.69-18.45-10.48c-26.63,4.03-55.05,4.71-82.43,2.55c-7.84-0.62-15.34,7.34-15,15
				C1327,663.23,1333.22,668.91,1341.62,669.57L1341.62,669.57z"/>
		</g>
	</g>
	<g class="st1">
		<g>
			<path class="st2" d="M1341.57,766.02c31.88,2.61,63.88,3.31,95.84,2.1c7.83-0.3,15.37-6.69,15-15c-0.35-7.87-6.6-15.32-15-15
				c-31.97,1.21-63.96,0.51-95.84-2.1c-7.84-0.64-15.34,7.36-15,15C1326.95,759.69,1333.17,765.33,1341.57,766.02L1341.57,766.02z"
				/>
		</g>
	</g>
	<g class="st1">
		<g>
			<path class="st2" d="M1319.67,828.39c29.52,14.62,60.44,26.32,92.33,34.58c7.59,1.97,16.63-2.5,18.45-10.48
				c1.78-7.83-2.35-16.35-10.48-18.45c-29.67-7.69-57.99-18.1-85.17-31.56c-7.26-3.59-16.24-1.95-20.52,5.38
				C1310.41,814.49,1312.38,824.78,1319.67,828.39L1319.67,828.39z"/>
		</g>
	</g>
	<g class="st1">
		<g>
			<path class="st2" d="M1281.49,916.76c24.75,14.19,50.61,26.27,77.26,36.45c7.35,2.81,16.77-3.1,18.45-10.48
				c1.95-8.56-2.61-15.45-10.48-18.45c-23.96-9.15-47.45-20.44-70.09-33.43c-7.03-4.03-16.41-1.65-20.52,5.38
				C1272.03,903.21,1274.44,912.72,1281.49,916.76L1281.49,916.76z"/>
		</g>
	</g>
	<g class="st1">
		<g>
			<path class="st2" d="M1225.59,974.61c18.74,18.96,41.03,34.43,65.54,44.94c7.44,3.19,16.08,2.21,20.52-5.38
				c3.7-6.32,2.1-17.31-5.38-20.52c-23.07-9.9-42.29-22.87-59.46-40.25c-5.7-5.76-15.51-5.71-21.21,0
				C1219.81,959.18,1219.87,968.83,1225.59,974.61L1225.59,974.61z"/>
		</g>
	</g>
	<g class="st1">
		<g>
			<path class="st2" d="M1163.21,1032.2c22.1,19.39,42.95,40.13,62.45,62.13c5.38,6.07,15.73,5.49,21.21,0
				c6.02-6.02,5.39-15.13,0-21.21c-19.5-22-40.35-42.74-62.45-62.13c-6.09-5.34-15.22-5.99-21.21,0
				C1157.77,1016.44,1157.1,1026.84,1163.21,1032.2L1163.21,1032.2z"/>
		</g>
	</g>
	<g class="st1">
		<g>
			<path class="st2" d="M1091.74,1086.47c9.94,22.86,24.57,43.65,42.45,61.01c5.81,5.64,15.42,5.79,21.21,0
				c5.68-5.68,5.83-15.55,0-21.21c-16.34-15.86-28.42-33.46-37.76-54.93c-3.23-7.43-14.12-9.12-20.52-5.38
				C1089.45,1070.44,1088.5,1079.01,1091.74,1086.47L1091.74,1086.47z"/>
		</g>
	</g>
</g>
<g id="Layer_3">
	<path class="st3" d="M881.18,487.31c8.26-9.42,16.32-19.01,23.84-29.04c6.69-8.93,13.28-18.33,18.8-28.26
		c-14.02,17.49-27.51,35.4-40.54,53.64C882.58,484.87,881.88,486.08,881.18,487.31z"/>
	<path class="st3" d="M925.7,413.03c-2.69,4.6-5.42,9.18-8.17,13.75c1.82-2.28,3.62-4.57,5.46-6.84c1.81-2.24,4.47-1.01,5.42,1.07
		c2.19-4.7,4.1-9.51,5.63-14.44c-2.7,1.5-5.3,3.16-7.82,4.94C926.17,411.99,926.01,412.5,925.7,413.03z"/>
	<path class="st3" d="M925.93,398.96c-2.83,3.35-5.54,6.79-8.14,10.32c0.74-0.56,1.49-1.12,2.24-1.68
		C922,404.72,923.98,401.85,925.93,398.96z"/>
	<path class="st3" d="M864,90.5c-307.9,0-557.5,249.6-557.5,557.5s249.6,557.5,557.5,557.5s557.5-249.6,557.5-557.5
		S1171.9,90.5,864,90.5z M950.79,374.01c-5.29,8.22-10.68,16.37-16.13,24.48c1.25-0.61,2.51-1.21,3.82-1.75
		c2.64-1.1,4.82,2,4.31,4.31c-5.01,22.44-18.09,42.61-31.71,60.76c-13.74,18.32-29.13,35.27-44.45,52.27
		c-1.46,1.62-3.35,1.31-4.59,0.16c-43.11,63.75-81.53,130.57-120.29,197.02c-2.29,3.93-8.05,0.47-6.04-3.53
		c2.44-4.88,4.92-9.74,7.41-14.59c-11.97,20.32-24.29,40.43-37.6,59.93c-2.53,3.71-8.16,0.49-6.04-3.53
		c13.61-25.92,28.24-51.28,43.47-76.27c16.05-26.35,32.57-52.44,49.51-78.24c8.58-14.53,17.19-29.03,25.86-43.51
		c4.8-9.36,9.66-18.7,14.62-27.98c-9.69,13.69-19.16,27.53-28.39,41.53c-28.7,46.1-55.23,93.58-82.31,140.62
		c-2.26,3.93-8.09,0.45-6.04-3.53c11.67-22.69,23.9-45.1,36.72-67.16c14.52-25,29.78-49.55,45.72-73.66
		c24.05-38.62,49.62-76.26,78.2-111.63c7.53-11.12,15.45-21.99,23.86-32.54c0.69-0.87,1.57-1.18,2.44-1.12
		c9.5-13.08,19.61-26.02,27.67-39.98c1.72-2.98,5.63-1.63,6.4,0.91c2.64-2.47,5.33-4.87,8.08-7.19
		C948.17,367.34,953.06,370.47,950.79,374.01z"/>
</g>
<g id="Layer_4">
	<path class="st4" d="M925.7,413.03c-2.69,4.6-5.42,9.18-8.17,13.75c1.82-2.28,3.62-4.57,5.46-6.84c1.81-2.24,4.47-1.01,5.42,1.07
		c2.19-4.7,4.1-9.51,5.63-14.44c-2.7,1.5-5.3,3.16-7.82,4.94C926.17,411.99,926.01,412.5,925.7,413.03z"/>
	<path class="st4" d="M925.93,398.96c-2.83,3.35-5.54,6.79-8.14,10.32c0.74-0.56,1.49-1.12,2.24-1.68
		C922,404.72,923.98,401.85,925.93,398.96z"/>
	<path class="st4" d="M881.18,487.31c8.26-9.42,16.32-19.01,23.84-29.04c6.69-8.93,13.28-18.33,18.8-28.26
		c-14.02,17.49-27.51,35.4-40.54,53.64C882.58,484.87,881.88,486.08,881.18,487.31z"/>
	<path class="st4" d="M864,263c-209.87,0-380,172.37-380,385s170.13,385,380,385s380-172.37,380-385S1073.87,263,864,263z
		 M950.79,374.01c-5.29,8.22-10.68,16.37-16.13,24.48c1.25-0.61,2.51-1.21,3.82-1.75c2.64-1.1,4.82,2,4.31,4.31
		c-5.01,22.44-18.09,42.61-31.71,60.76c-13.74,18.32-29.13,35.27-44.45,52.27c-1.46,1.62-3.35,1.31-4.59,0.16
		c-43.11,63.75-81.53,130.57-120.29,197.02c-2.29,3.93-8.05,0.47-6.04-3.53c2.44-4.88,4.92-9.74,7.41-14.59
		c-11.97,20.32-24.29,40.43-37.6,59.93c-2.53,3.71-8.16,0.49-6.04-3.53c13.61-25.92,28.24-51.28,43.47-76.27
		c16.05-26.35,32.57-52.44,49.51-78.24c8.58-14.53,17.19-29.03,25.86-43.51c4.8-9.36,9.66-18.7,14.62-27.98
		c-9.69,13.69-19.16,27.53-28.39,41.53c-28.7,46.1-55.23,93.58-82.31,140.62c-2.26,3.93-8.09,0.45-6.04-3.53
		c11.67-22.69,23.9-45.1,36.72-67.16c14.52-25,29.78-49.55,45.72-73.66c24.05-38.62,49.62-76.26,78.2-111.63
		c7.53-11.12,15.45-21.99,23.86-32.54c0.69-0.87,1.57-1.18,2.44-1.12c9.5-13.08,19.61-26.02,27.67-39.98
		c1.72-2.98,5.63-1.63,6.4,0.91c2.64-2.47,5.33-4.87,8.08-7.19C948.17,367.34,953.06,370.47,950.79,374.01z"/>
</g>
<g id="Layer_6">
	<path class="st5" d="M1316.21,490.15c-7.52,1.53-15.17,3.31-21.86,7.22c9.97-2.56,20.38-2.19,30.55-3.36
		c13.26-1.44,26.39-4.21,39.17-8.01C1348.05,486.33,1331.95,486.94,1316.21,490.15z"/>
	<path class="st5" d="M1343.46,573.8c-13.22-1.72-26.87-1.93-39.83,1.51c9.74,0.19,20.18,1.68,30.17,2.01
		c8.5,0.37,16.98-0.66,25.48-0.4C1354.16,575.15,1348.8,574.46,1343.46,573.8z"/>
	<path class="st5" d="M1357.01,651.63c-8.52-0.8-17-2.03-25.54-2.73c-11.62-1.11-23.41-0.93-34.88-3.35
		c-1.48-0.35-2.95-0.73-4.46-0.94c1.39,0.58,2.7,1.3,4.04,1.97c9.93,4.71,20.87,6.59,31.67,8.08c16.35,2.39,33.02,1.71,49.18-1.7
		C1370.35,652.5,1363.67,652.21,1357.01,651.63z"/>
	<path class="st5" d="M1340.6,745.82c-5.89-0.92-11.57-2.84-17.3-4.43c-12.43-3.23-25.02-5.9-37.62-8.37
		c-1.49-0.34-3.44-0.34-4.62-1.06c0.67,0.77,1.72,1.09,2.62,1.51c16.75,7.48,34.14,14.29,52.49,16.39
		c8.14,0.58,16.33-0.71,24.22-2.64C1353.83,747.14,1346.59,746.68,1340.6,745.82z"/>
	<path class="st5" d="M1304.95,832.37c-5.3-2.26-11.05-2.8-16.59-4.17c5.46,3.17,10.18,4.56,15.71,7.63
		c8.46,4.53,17.8,7.02,26.83,10.14C1322.41,839.95,1313.42,835.76,1304.95,832.37z"/>
	<path class="st5" d="M1248.45,910.27c-5.93-3.83-11.89-7.6-17.6-11.74c-0.01-0.01-0.02-0.01-0.02-0.01
		c-1.12-0.86-2.24-1.72-3.36-2.57c-1.31-0.92-2.52-2.25-4.2-2.41c-0.5-0.06-1-0.09-1.49-0.14c0.45,0.17,0.91,0.34,1.36,0.52
		c1.08,0.36,1.75,1.35,2.44,2.19c1.1,1.38,2.24,2.72,3.38,4.07c3.21,3.62,6.76,6.91,10.55,9.92c4.61,3.86,9.81,6.92,14.64,10.49
		c6.73,4.75,13.39,9.78,20.83,13.37C1266.14,926.06,1258.52,916.7,1248.45,910.27z"/>
	<path class="st5" d="M1212.19,1002.98c-2.74-4.54-5.63-9-8.66-13.36c-7.85-10.52-17.14-19.91-25.59-29.91
		c5.73,12.25,13.55,23.43,21.66,34.24c3.87,5.21,7.94,10.26,12.12,15.22c3.52,4.13,7.24,8.15,11.81,11.13
		C1218.92,1015.11,1215.78,1008.88,1212.19,1002.98z"/>
	<path class="st5" d="M1122.93,1035.58c-3.74-5.86-7.55-11.7-11.86-17.13c-0.41-0.51-1.02-0.9-1.12-1.59
		c-0.1,0.77,0.45,1.35,0.71,2.02c0.48,1.92,1.64,3.42,2.26,5.23c1.77,4.21,3.7,8.84,6.3,13.64c5.44,9.6,13.34,17.73,21.93,24.57
		C1134.87,1053.55,1128.95,1044.53,1122.93,1035.58z"/>
	<path class="st5" d="M1025.67,1048.43c-0.18-0.56-0.37-1.12-0.56-1.68c0.41,7.32,1.04,14.63,1.92,21.9
		c1.89,17.96,7.2,35.27,10.49,52.98C1039.58,1096.67,1033.36,1071.99,1025.67,1048.43z"/>
	<path class="st5" d="M951.29,1089.62c-0.29-3.43-0.52-6.86-1.59-10.16c-0.16-0.63-0.06,0.07-0.08,0.35
		c0.02,0.77,0.04,1.54-0.01,2.31c0.02,2.73-0.45,4.37-0.72,7.04c-0.34,4.18-0.37,8.39-1,12.54c-0.4,2.87-0.64,5.75-0.84,8.64
		c-0.83,5.63-1.37,11.3-1.4,17c-0.85,13.19,1.37,26.36,3.77,39.29c0.68-10.16,0.96-20.35,1.66-30.51c0.71-6.98,1.18-13.96,1.4-20.98
		C952.99,1107.08,952.45,1096.24,951.29,1089.62z"/>
	<path class="st5" d="M853.85,1098.95c-0.87-7.65-0.81-15.37-1.86-22.99c-0.04-1.08,0.03-2.16,0.08-3.24
		c-0.23,0.72-0.43,1.45-0.64,2.18c-0.66,3.06-0.61,6.16-1.11,8.45c-1.17,6.85-1.53,13.8-1.77,20.73
		c-0.31,6.12-0.57,12.25-0.45,18.38c0.51,14.83,1.4,29.67,1.02,44.51C855.28,1144.91,855.64,1121.66,853.85,1098.95z"/>
	<path class="st5" d="M758.55,1088.08c-2.88,7.88-5.54,15.9-6.97,24.18c-1.6,7.76-0.6,16.43-5.4,23.18
		c6.36-5.01,7.49-13.46,9.38-20.83c2.44-10.45,4.41-21.09,5.13-31.8c0.02-0.33,0.03-0.66,0.05-0.99
		C760.01,1083.91,759.36,1086.02,758.55,1088.08z"/>
	<path class="st5" d="M705.58,1063.08c-4.13,5.27-7.84,10.86-11.51,16.46c-3.01,4.38-6,8.77-8.66,13.37
		c-3.68,6.21-6.89,12.68-10.03,19.17c-2.7,5.47-5.23,11.12-9.01,15.95c8.54-6.8,14.13-16.53,20.15-25.47
		c4.36-6.57,8.28-13.43,11.98-20.38c3.73-7.54,7.02-15.28,10.72-22.84c0.26-0.56,0.53-1.12,0.79-1.69
		C708.53,1059.45,707.04,1061.26,705.58,1063.08z"/>
	<path class="st5" d="M637.54,1012.2c-1.26,1.09-2.49,2.22-3.72,3.35c-5.62,4.92-10.71,10.4-15.28,16.3
		c-13.17,17.29-22.86,36.81-33.41,55.72c11.36-12.01,21.19-25.41,29.94-39.41c4.02-6.57,7.67-13.36,11.68-19.93
		c3.32-5.21,6.88-10.26,10.36-15.36c0.18-0.26,0.35-0.53,0.55-0.79C637.64,1012.12,637.59,1012.16,637.54,1012.2z"/>
	<path class="st5" d="M569.85,969.34c-4.83,3.9-9.15,8.35-12.99,13.23c-5.99,7.62-9.99,16.57-15.81,24.3
		c13.04-10.06,20.52-25.25,30.19-38.24c0.23-0.36,0.46-0.72,0.72-1.06C571.23,968.13,570.57,968.76,569.85,969.34z"/>
	<path class="st5" d="M507.73,930.11c-6.61,3.68-12.7,8.17-18.43,13.11c-5.33,4.56-10.25,9.57-14.87,14.85
		c-5.29,5.22-10.27,10.74-15.44,16.07c15.16-8.83,28.17-20.7,40.27-33.31c4.84-4.9,10.29-9.18,14.62-14.57
		c0.18-0.21,0.38-0.41,0.58-0.6C512.19,927.1,510.01,928.69,507.73,930.11z"/>
	<path class="st5" d="M486.68,839.62c-4.18,1.37-8.34,2.8-12.52,4.18c-10.55,3.6-24.29,8.44-32.09,11.86
		c-4.86,1.98-9.53,4.38-14.18,6.8c-5.56,3.16-11.09,6.5-17.33,8.12c10.23-0.12,19.6-4.84,29.18-7.92
		c16.71-5.4,32.46-13.44,47.18-22.95c0.16-0.11,0.35-0.19,0.48-0.34C487.17,839.49,486.93,839.56,486.68,839.62z"/>
	<path class="st5" d="M446.73,755.44c-4.42,0.55-8.88,0.68-13.29,1.29c-11.96,0.68-23.75,2.85-35.5,5.07
		c-12.08,2.43-23.58,7.11-35.64,9.58c10.82,0.62,21.57-1.56,32.28-2.86c4.78-0.77,9.3-1.17,15.69-2.32
		c6.96-1.46,13.84-3.27,20.79-4.8c5.34-1.31,10.64-2.83,15.84-4.59c1.82-0.61,3.76-0.75,5.54-1.4
		C450.55,755.58,448.63,755.26,446.73,755.44z"/>
	<path class="st5" d="M417.4,648.79c-10.48-0.85-20.95,0.32-31.35,1.54c7.23,1.36,14.66,1.82,22.02,1.67
		c6.03-0.38,12.05-1.11,18.04-1.91c0.34-0.05,0.69-0.1,1.03-0.15C423.9,649.47,420.66,649.05,417.4,648.79z"/>
	<path class="st5" d="M452.04,553.02c-0.61,0.23-1.16,0.63-1.79,0.78c-0.81-0.02-1.62-0.06-2.42,0.07
		c-9.9,1.77-18.88-0.88-28.72-2.06c-5.42-0.71-12.37-0.8-17-1.4c-7.04-1.16-13.88-3.29-20.72-5.28c6.39,3.94,13.05,7.66,20.29,9.76
		c6.33,1.54,12.84,2.08,19.31,2.65c6.5,0.51,13.21,1.15,19.58-0.17c3.43-0.33,6.44-2.16,9.76-2.88c0.84-0.36,1.43-1.14,2.17-1.67
		C452.36,552.88,452.2,552.95,452.04,553.02z"/>
	<path class="st5" d="M485.49,430.58c-6.18-1.86-12.61-2.71-18.79-4.61c-4.69-1.68-10.74-4.58-17.08-6.84
		c-7.83-2.56-10.1-4.24-18.06-7.28c-7.19-2.19-14.45-4.16-21.65-6.29c7.08,4.39,14.64,7.91,22.07,11.64
		c4.99,3.23,10.3,5.92,15.92,7.88c6.36,2.1,12.67,4.71,19.32,5.69c6.48,0.79,12.99,0.53,19.49,0.78c0.89,0.01,1.78-0.04,2.67-0.05
		C488.08,431.2,486.78,430.93,485.49,430.58z"/>
	<path class="st5" d="M523.33,351.26c-0.32-0.95-1.17-1.6-1.78-2.37c-4.11-4.81-9.62-8.14-14.68-11.86
		c-10.07-7.3-20.91-13.58-32.51-18.1c-0.58-0.43-1.14-0.87-1.72-1.28c-0.19-0.13-0.78-0.58-0.36-0.18c1.63,1.85,3.28,3.67,4.86,5.57
		c6.01,7.48,12.27,14.83,19.73,20.93c4.75,4.12,9.96,7.7,15.77,10.14c1.59,0.71,3.23,1.29,4.88,1.86c1.49,0.58,3.37,0.88,4.66-0.27
		C523.5,354.77,524.05,352.7,523.33,351.26z M488.59,330.44c-3.4-2.8-6.75-5.67-10.19-8.41c6.29,4.47,12.26,9.34,18.14,14.35
		C493.46,334.18,490.39,331.81,488.59,330.44z"/>
	<path class="st5" d="M603.93,272.21c-8.85-8.54-17.85-16.99-27.55-24.57c-5.08-3.86-10.6-7.18-15.42-11.01
		c0.78,0.97,1.6,1.92,2.43,2.85c-0.25-0.2-0.49-0.4-0.73-0.59c-1.43-1.23,0.09,0.38,0.56,1.04c6.95,8.65,14.04,17.18,21.54,25.36
		c4.74,5.16,9.52,10.43,15.45,14.25c2.4,2.04,6.21,1.4,6.69-2.02C607.33,275.28,605.37,273.62,603.93,272.21z"/>
	<path class="st5" d="M659.74,201.58c2.29,4.16,4.3,8.46,6.42,12.72c2.04,3.96,4.34,7.8,6.3,11.81
		C671.01,216.85,666.58,208.02,659.74,201.58z"/>
	<path class="st5" d="M750.5,196.01c-6.1-13.82-14.94-26.17-21.95-39.5c5.48,23.36,18.02,44.42,31.5,64.01
		c0.33,0.48,0.67,0.96,1.01,1.44C757.9,213.16,754.4,204.49,750.5,196.01z"/>
	<path class="st5" d="M823.05,185.02c-1.02-12.71-2.73-21.08-4.44-33.42c-1.61-8.32-4.98-17.09-1.88-25.46
		c-5.75,8.28-3.48,18.78-3.07,28.16c0.3,6.36,0.73,12.74,2.14,18.96c1.17,5.21,2.16,10.45,3.39,15.64c1.15,4.2,2.44,9.88,2.89,13.45
		c0.27,1.83,0.32,4.27,0.9,5.72c-0.05-1.09,0.03-2.17,0.23-3.24C824.21,198.25,823.63,191.61,823.05,185.02z"/>
	<path class="st5" d="M890.15,163.12c-5,16.21-6.01,33.42-5.49,50.29c2.1-8.63,4.79-20.86,7.01-30.72
		c1.91-8.52,4.21-16.96,5.55-25.6c1.28-9,1.67-18.2,3.09-26.79C895.67,140.83,893.42,152.14,890.15,163.12z"/>
	<path class="st5" d="M981.24,128.03c-3.21,15.59-7.64,30.87-12.64,45.98c-3.29,11.93-6.17,23.99-8.72,36.11
		c-0.13,0.66-0.28,1.31-0.4,1.97c0.52-1.08,1.04-2.15,1.56-3.23c7.3-15.46,14-31.41,17.85-48.12
		C981.09,149.99,981.71,138.98,981.24,128.03z"/>
	<path class="st5" d="M1060.32,217.46c-4.8,7.31-12.53,18.65-15.48,24.19c3.21-2.5,5.8-5.71,8.72-8.54
		c5.05-5.25,9.85-10.76,13.97-16.78c6.44-9.74,11.24-20.46,16.48-30.87C1075.12,195.36,1067.65,206.4,1060.32,217.46z"/>
	<path class="st5" d="M1143.42,252.06c-6.05,6.67-12.22,13.38-16.92,21.1c-1.06,1.73-2.04,3.51-2.95,5.32
		c0.69-0.75,1.37-1.51,2.05-2.27c8.68-9.16,18.88-16.7,27.75-25.68c9.68-9.81,18.67-20.31,29.14-29.31
		C1167.46,228.61,1154.72,239.86,1143.42,252.06z"/>
	<path class="st5" d="M1191.35,326.8c-5.6,3.86-11.1,7.88-16.56,11.93c-1.67,1.19-3.22,2.54-4.77,3.88
		c0.24-0.12,0.49-0.24,0.74-0.37c7-3.43,14.21-6.43,21.14-10.02c6.34-3.18,12.41-6.9,18.44-10.62
		c13.72-9.09,26.05-20.08,37.83-31.52C1228.71,301.48,1209.59,313.52,1191.35,326.8z"/>
	<path class="st5" d="M1265.84,415.25c-3.84,1.39-7.98,2.48-11.17,5.14c-1.29,1.19-2.92,1.96-3.97,3.4
		c-0.35,0.48-0.73,0.93-1.12,1.38c0.62-0.38,1.19-0.84,1.78-1.25c0.83-0.61,1.8-0.91,2.75-1.27c1.07-0.49,2.09-1.1,3.21-1.49
		c5.6-1.62,11.45-2.24,17.06-3.83c10.16-2.92,20.26-6.83,28.84-13.1C1290.99,408.63,1278.05,410.74,1265.84,415.25z"/>
	<path class="st5" d="M792.45,595.02c6.33-10.71,12.68-21.41,19.05-32.09c-2.78,3.45-5.7,7.05-8.98,11.1
		c-8.49,10.92-16.37,22.27-23.88,33.88c-12.29,20.82-24.34,41.78-36.34,62.76c-3.46,6.81-6.83,13.67-10.15,20.55
		c3.56-6.01,7.16-12,10.79-17.96C759,646.91,775.51,620.82,792.45,595.02z"/>
	<path class="st5" d="M917.79,409.28c0.74-0.56,1.49-1.12,2.24-1.68c1.97-2.88,3.95-5.75,5.91-8.64
		C923.11,402.31,920.39,405.75,917.79,409.28z"/>
	<path class="st5" d="M881.18,487.31c8.26-9.42,16.32-19.01,23.84-29.04c6.69-8.93,13.28-18.33,18.8-28.26
		c-14.02,17.49-27.51,35.4-40.54,53.64C882.58,484.87,881.88,486.08,881.18,487.31z"/>
	<path class="st5" d="M925.7,413.03c-2.69,4.6-5.42,9.18-8.17,13.75c1.82-2.28,3.62-4.57,5.46-6.84c1.81-2.24,4.47-1.01,5.42,1.07
		c0.1-0.21,0.19-0.43,0.29-0.64c-0.14-0.69-0.37-1.36-0.71-1.95c1.87-3.2,3.52-6.52,4.15-10.18c0.03-0.2,0.03-0.41,0.05-0.61
		c-2.04,1.21-4.03,2.51-5.98,3.88C926.17,411.99,926.01,412.5,925.7,413.03z"/>
	<path class="st5" d="M866.62,514.07c-1.46,1.62-3.35,1.31-4.59,0.16c-43.11,63.75-81.53,130.57-120.29,197.02
		c-2.29,3.93-8.05,0.47-6.04-3.53c2.44-4.88,4.92-9.74,7.41-14.59c-11.97,20.32-24.29,40.43-37.6,59.93
		c-1.17,1.71-2.98,1.93-4.41,1.3c-2.3,2.71-4.2,5.3-5.13,6.56c-1.25,1.89-2.45,3.81-3.61,5.75c-1.61,2.21-3.17,4.45-4.66,6.75
		c-1.26,2.4-4.06,4.51-3.36,7.47c0.04,0.11,0.09,0.21,0.14,0.31c-0.07,0.14-0.14,0.28-0.21,0.42c-0.27,1.28-0.79,1.81-2.55,4.69
		c-0.84,1.5-0.72,3.28,0.06,4.68c0.35,0.91,1.08,1.67,2.01,1.95c0.39,0.2,0.82,0.34,1.28,0.42c0.71,0.09,1.42,0.15,2.14,0.21
		c-0.17,0.98-0.31,1.97-0.42,2.95c0.33-0.97,0.66-1.94,1.01-2.91c5.37,0.37,10.8-0.01,16.19,0.13c0.57-0.01,1.14-0.02,1.71-0.04
		c1.21,1.4,3.43,1.83,5.05,0.84c0.63-0.36,1.06-0.86,1.39-1.43c1.2-0.2,2.52-0.29,3.45-1.12c1.93-1.3,2.07-4.39,0.4-5.97
		c-0.29-0.29-0.6-0.51-0.94-0.68c0.12-0.3,0.24-0.6,0.36-0.91c0.62-0.47,1.14-1.02,1.47-1.71c1.47-0.88,1.81-2.14,1.42-3.53
		c0.65-1.09,1.27-2.19,1.91-3.29c-0.08,1.46,0.06,2.98,1.18,4.03c1.53,1.53,4.13,1.54,5.66,0c0.86-0.78,1.07-1.92,1.26-3.02
		c0.3-1.37,0.69-2.71,1.02-4.07c1.63-5.7,3.28-11.4,5.14-17.03c1.68-6.19,4.3-12.28,6.08-18.52c0.41-1.12,0.8-2.24,1.21-3.36
		c1.73-4.28,3.45-8.56,5.23-12.81c0.52-1.03,1.23-1.99,1.35-3.14c0.13-0.61,0.08-1.2-0.09-1.74c0.44-0.86,0.91-1.77,1.41-2.74
		c0.9-1.78,1.79-3.56,2.68-5.35c2.06-3.76,4.15-7.5,6.32-11.19c1.09-1.98,2.63-3.71,3.4-5.86c0.43-0.91,0.6-1.87,0.57-2.79
		c1.66-2.86,3.32-5.73,4.99-8.59c0.36-0.2,0.71-0.42,1-0.72c0.94-0.77,1.37-1.95,1.81-3.07c0.23-0.42,1.32-2.66,1.6-3.16
		c0.66-1.28,1.3-2.57,1.95-3.85c11.81-19.96,23.83-39.79,35.73-59.71c21.83-35.23,43.77-70.39,66.05-105.33
		C872.73,507.3,869.68,510.68,866.62,514.07z"/>
	<path class="st6" d="M851.78,637.05c-17.14,12-33.61,25-49.1,39.06c-11.48,10.87-22.02,22.62-32.29,34.61
		c-7.11,8.05-13.59,16.61-20.34,24.97c-5.6,6.77-11.28,13.5-17.27,19.94c-7.03,5.42-13.92,11.02-20.53,16.96
		c-9.78,8.51-19.73,16.87-28.24,26.7c-4.65,4.84-8.78,10.13-13.13,15.22c-1.71,1.69-3.53,3.41-4.68,5.5
		c-1.59,3.4,2.45,6.96,5.67,4.99c0.5-0.25,0.91-0.61,1.29-1c0.67,0.17,1.4,0.16,2.09,0c1.47-0.36,2.29-1.68,3.31-2.68
		c1.18-1.16,2.35-2.33,3.53-3.49c1.21,1.24,3.16,1.77,4.88,0.73c0.27-0.21,0.53-0.43,0.8-0.64c0,0,0.01,0.01,0.01,0.01
		c0.02-0.02,0.04-0.04,0.05-0.06c0.01-0.01,0.02-0.02,0.03-0.03c0.35,3.09,4.56,4.68,6.8,2.3l0,0c0,0,0,0,0,0
		c1.65-1.35,3.27-2.73,4.87-4.13c0.22,0.63,0.59,1.21,1.07,1.66c-2.82,2.95-5.64,5.91-8.44,8.89c-0.95,1.22-2.32,2.2-2.76,3.74
		c-0.84,2.97,1.82,5.28,4.67,5.28c1.81,0.01,3.51-0.85,4.96-1.87c0.19-0.12,0.37-0.25,0.56-0.38c-1.19,2.11-2.26,4.28-2.92,6.57
		c-0.54,2.73,2.36,5.18,4.99,4.39c2.23-0.85,3.94-3.18,5.75-4.72c3.35-3.26,6.66-6.56,9.93-9.9c-0.06,0.34-0.1,0.68-0.13,1.04
		c-0.01,2.71,2.44,5.23,5.23,4.39c1.89-0.58,3-2.44,4.44-3.69c3.24-3.17,6.26-6.53,9.19-9.98c5.67-6.67,11.25-13.42,16.74-20.25
		c2.94-3.7,5.88-7.39,8.81-11.09c2.05-2.47,4.89-5.23,4.24-8.73c-0.27-0.82-0.68-1.45-1.19-1.92c2.09-1.98,4.19-3.94,6.3-5.88
		c4.43-4.24,9.34-7.88,14.25-11.52c-8.81,4-16.98,9.18-24.72,14.97c-0.23,0.17-0.45,0.34-0.68,0.51c3.01-4.35,6.02-8.7,8.94-13.1
		c1.21-1.78,2.42-3.57,3.47-5.46c0.56-1.07,1.27-2.25,0.96-3.49c-0.2-2.74-3.65-4.38-5.95-2.92c-1.06,0.72-2.1,1.49-3.13,2.26
		c0.97-2.44-1.1-5.35-3.76-5.29c-2.59,0.13-4.32,2.56-6.43,3.84c2.8-2.28,5.59-4.57,8.36-6.9c2.32-1.96,4.59-3.97,6.77-6.09
		c1.36-1.18,2.92-2.35,2.9-4.34c0.04-2.3-2.06-4.12-4.3-4.04c-2.79,0.06-5.03,2.01-7.3,3.51c5.13-6.47,10.23-12.97,15.71-19.17
		c5.85-6.65,11.58-13.41,17.59-19.9c5.48-5.59,11.01-11.15,16.56-16.67c13.89-13.6,27.56-27.41,41.18-41.27
		c1.24-1.25,2.52-2.47,3.79-3.71C854.06,635.54,852.91,636.29,851.78,637.05z M746.09,770.77c1.79-1.83,3.55-3.67,5.24-5.58
		c0.87-0.62,1.75-1.24,2.62-1.86C751.29,765.76,748.69,768.26,746.09,770.77z M738.97,792.67c0.11-0.13,0.22-0.25,0.33-0.37
		c1.07-1.17,2.13-2.35,3.18-3.54c-0.62,0.91-1.23,1.83-1.84,2.74C740.08,791.89,739.52,792.28,738.97,792.67z"/>
	<path class="st6" d="M928.69,379.57c0.71-1.17,1.43-2.34,2.11-3.52c1.72-2.98,5.63-1.63,6.4,0.91c2.64-2.47,5.33-4.87,8.08-7.19
		c0.62-0.52,1.34-0.77,2.05-0.83c0.16-13.8,0.19-27.61,0.15-41.4c0.02-0.55-0.09-1.06-0.34-1.54c-0.79-2.31-3.86-3.09-5.82-1.83
		c-0.17-0.24-0.36-0.46-0.58-0.67c-1.91-1.92-5.54-1.34-6.48,1.29c-0.52,0.96-0.31,2.12-0.42,3.17c-0.23,3.47-0.2,6.95-0.21,10.43
		c-2.1,0-4.21,1.61-4.13,3.97h0c0,1.49,0,2.98,0,4.46C929.67,357.75,929.3,368.67,928.69,379.57z"/>
	<path class="st6" d="M949.84,501.67c0-0.01,0-0.02,0-0.03c0-0.08,0-0.17,0-0.25c0-10.21,0-20.41,0-30.62
		c0-12.43,0.07-24.87-0.23-37.3c-0.76-12.55-1.93-25.07-2.46-37.63c-0.07-1.8-0.13-3.61-0.19-5.42c0.09-3.63,0.15-7.25,0.22-10.88
		c-4.13,6.35-8.3,12.67-12.53,18.95c1.25-0.61,2.51-1.21,3.82-1.75c2.64-1.1,4.82,2,4.31,4.31c-3.25,14.56-9.9,28.15-17.89,40.86
		c-0.04,1.1-0.08,2.21-0.1,3.31c0,14.34,0,28.68,0,43.01c-0.01,5.14,0.01,10.29,0.06,15.43c-0.01,3.55-0.32,7.35,1.37,10.59
		c0.77,1.42,2.3,2.24,3.86,2.37c0.01,10.47,0.05,20.93,0.16,31.4c-0.97,17.09-1.91,34.18-3.37,51.24c-0.18,1.81-0.23,3.62-0.3,5.43
		c0.3-1.26,0.58-2.54,0.9-3.8c4.79-17.31,8.12-35.04,10.21-52.87c0.56-15.56,0.5-31.14,0.41-46.72c0.01-0.07,0.02-0.14,0.03-0.21
		c0.64-5.13,1.43-10.25,1.96-15.4c0.14-1.46,0.24-2.92,0.36-4.38c0.24-1.76,0.48-3.52,0.71-5.28c0.05-0.39,0.09-0.79,0.14-1.18
		c0.07,1.25,0.13,2.5,0.19,3.76c0.2,3.66,0.29,7.32,0.33,10.98c0,2.24,0.02,4.47,0.04,6.71c0,1.61,0.01,3.22,0.01,4.83
		c0,2.12,0,4.24,0,6.36c-0.01,1.06,0.43,2.08,1.17,2.83c1.76,1.84,5.03,1.4,6.28-0.81c0.3-0.64,0.45-1.32,0.53-2.02h0.01v-0.14
		c0.11-1.05,0.05-2.13,0-3.21C949.84,503.31,949.85,502.49,949.84,501.67z"/>
	<path class="st6" d="M928.41,421.01c2.19-4.7,4.1-9.51,5.63-14.44c-2.58,1.43-5.06,3.02-7.48,4.7c-0.18,2.53-0.35,5.06-0.51,7.59
		C927.05,419.16,927.94,419.98,928.41,421.01z"/>
	<g>
		<path class="st7" d="M1028.39,415.24c-3.41-9-9.92-16.57-16.04-23.92c-3.79-4.42-7.78-8.66-11.86-12.81
			c2.03,0.92,4.06,1.83,6.08,2.78c1.85,1.13,4.39,0.42,5.47-1.44c3.31-7.78-11.48-10.63-16.46-12.43c-0.14-0.05-0.29-0.1-0.43-0.14
			c-0.32-1.41-1.42-2.62-2.83-2.99c-2.56-0.73-5.13-1.38-7.72-1.96c-0.38-0.18-0.76-0.37-1.14-0.55c-4.54-4.32-9.22-8.48-14.24-12.2
			c0.71-1.12,1.43-2.24,2.14-3.36c1.11-1.82,0.45-4.44-1.44-5.47c-2.22-1.34-4.99-0.01-6,2.22c-0.46,0.69-0.93,1.38-1.4,2.07
			c-2.52-1.51-5.19-2.76-8.09-3.39c-2.45-0.68-5.88-2.13-7.68,0.49c-1.24,1.45-1.04,3.69,0.13,5.13c0.25,0.45,0.54,0.88,0.83,1.3
			c-0.81,0.07-1.56,0.41-2.2,0.91c-8.72-3.41-17.16-6.69-24.98-10.24c-3.58-1.99-7.48,1.88-5.47,5.47c0.33,0.65,0.86,1.07,1.45,1.41
			l-0.01,0.02c0.09,0.04,0.19,0.08,0.28,0.12c0.49,0.25,1.01,0.46,1.5,0.68c0.13,0.06,0.26,0.11,0.38,0.17
			c-0.47,0.33-0.87,0.76-1.16,1.24c-1.43,2.16-2.86,4.32-4.29,6.47c-18.8-0.61-34.08-0.16-38.77,21.49
			c-1.48,7.56,0.73,15.12,1.06,22.68c0.03,0.4,0.06,0.8,0.09,1.21c-4.53,7.63-8.91,15.36-13.34,23.03
			c-7.68,13.59-15.7,27.02-23.13,40.75c-2.77,3.35-5.5,6.75-8.18,10.17c2.37-4.26,4.74-8.53,7.1-12.8
			c5.02-9.03,10.03-18.07,15.06-27.1c3.13-5.61,6.27-11.22,9.41-16.84c0.29-0.46,0.45-0.95,0.47-1.49c0.65-3.14-3.24-5.7-5.95-3.99
			c-0.6,0.36-1.08,0.83-1.43,1.43c-0.49,0.66-1.94,2.51-1.1,1.43c-3.86,4.99-7.78,9.93-11.67,14.9c-5.8,7.34-11.34,14.87-16.7,22.53
			c-1.78-1.05-4.38-0.79-5.55,1.34c-4.26,8.64-8.48,17.3-12.69,25.96c-1.6,2.49-3.2,4.98-4.78,7.47c-0.9-8.15-2.01-16.28-2.68-24.45
			c0.1-3.16-3.99-5.26-6.42-3.14c-1.51,1.09-1.75,3.22-2.64,4.77c-1.57,3.49-3.2,6.95-4.81,10.42
			c-6.16,12.71-10.82,26.01-14.76,39.55c-0.02,0.01-0.05,0.02-0.07,0.03c-0.86,0.57-1.59,1.36-1.84,2.39l0,0h0c0,0,0,0,0,0
			c-2.37,9.23-4.78,18.46-7.19,27.68c-1.22,4.6-2.4,9.21-3.58,13.82c-4.77,7.93-9.47,15.9-14.07,23.92
			c-0.24-12.11-1.44-24.18-4.3-36c-0.34-1.65-0.67-3.31-0.99-4.97c-0.28-1.46-0.41-3.2-1.8-4.07c-1.58-1.39-4.39-1.02-5.56,0.72
			c-1.04,1.18-0.87,2.94-1.26,4.39c-0.49,2.69-1.01,5.38-1.53,8.07c-1.65,8.09-2.84,16.26-3.78,24.47c-0.26-0.01-0.52,0-0.77,0.04
			c-0.22-1.35-0.45-2.7-0.66-4.05c-0.32-1.67-0.2-3.54-1.48-4.82c-1.76-1.82-5.05-1.42-6.28,0.81c-3.84,6.82-5.91,14.37-7.37,22.01
			c-1.41,7.74-2.63,15.5-3.69,23.29c-0.68-1.23-1.44-2.41-2.73-2.94c-2.45-1.23-5.65,0.93-5.54,3.66v12.82
			c-1.02-8.09-2.08-16.33-5.86-23.63c-1.57-2.38-1.9-6.53-5.28-6.89c-2.27-0.46-4.61,1.63-4.53,3.93c0.24,4.57,0.46,9.14,0.67,13.72
			c0.39,8.26,0.77,16.53,1.26,24.78c-1.77,1.01-2.26,3.16-1.98,5.09c0.05,1.34,0.1,2.68,0.15,4.02l0-0.03
			c-0.12-0.52-0.36-0.97-0.72-1.36c-1.5-2.26-5.18-1.96-6.53,0.3c-1.3-4.06-3.31-7.9-5.63-11.45c-1.83-1.98-5.59-1.29-6.48,1.29
			c-0.64,1.41-0.27,3.08-0.46,4.59c-0.16,3.73-0.36,7.45-0.45,11.19c-0.03,7.88,0.03,15.77,0.34,23.65
			c-4.05-12.96-7.74-26.03-11.71-39.01c-3.46-10.53-6.61-21.15-9.31-31.9c0.69,14.37,3.24,28.53,6.02,42.63
			c1.6,7.88,2.94,15.83,5.31,23.52c4.12,14.34,9.08,28.41,14.14,42.44c2.1,10.14,4.63,20.19,6.88,30.29
			c-0.46,1.43-0.91,2.86-1.35,4.3c-0.74,2.38-1.48,4.77-2.24,7.14c-0.17,0.65-0.17,1.33-0.02,1.98c-0.49,1.63-0.98,3.27-1.46,4.91
			c-0.63,2.12-1.27,4.23-1.93,6.34c-0.17,0.53-0.19,1.06-0.07,1.6c0.1,1.73,1.7,3.26,3.4,3.4c2.27,0.42,3.98-1.37,4.72-3.34
			c1.18-2.44,2.48-4.81,3.85-7.15c0.28,1.09,0.57,2.17,0.85,3.26c0.15,2.01,0.3,4.01,0.46,6.02c-5.2,5.05-10.3,10.2-15.26,15.47
			c-1.75,1.9-3.46,3.84-5.04,5.88c-0.75,0.75-1.17,1.77-1.17,2.83c-0.05,2.6,2.67,4.53,5.06,3.87c1.2,0.74,2.76,0.89,4.07,0.07
			c1.55-0.79,3.11-1.56,4.68-2.32c-4.79,14.87-9.26,30.19-6.66,45.8c0.27,2.38,1.23,4.64,3.04,6.27c0.79,0.85,1.52,1.81,2.72,2.08
			c1.37,0.38,2.89-0.02,3.89-1.03c0.77-0.72,1.01-1.74,1.37-2.69c0.92-2.46,1.89-4.9,2.68-7.41c0.03-0.11,0.06-0.21,0.1-0.32
			c0.13-0.07,0.26-0.16,0.38-0.24c0.14,0.21,0.29,0.4,0.45,0.58c-1.85,12.04-3.59,24.1-5.06,36.19c0.01,4.11,6.18,5.96,7.86,1.06
			c1.86-9.46,3.79-18.91,5.76-28.35c0.6,0.33,1.28,0.53,1.95,0.52c1.43,0.03,2.71-0.79,3.45-1.98c0.86-1.45,0.46-3.21,0.54-4.82
			c0-0.8-0.01-1.6-0.02-2.4c0.05,0.15,0.09,0.3,0.17,0.45c1.39,3.36,6.08,3.06,7.34,0.04c1.5,4.16,3.08,8.29,4.72,12.4
			c2.12,5.45,4.14,10.99,7.1,16.05c1.58,2.81,3.79,5.18,6.09,7.41c0.87,0.89,1.65,1.96,2.93,2.26c1.37,0.38,2.89-0.02,3.89-1.03
			c3.48-3.72-0.92-14.53-1.73-19.26c-2.1-8.75-4.96-17.26-7.96-25.73c0.19,0.37,0.42,0.72,0.72,1.02c2.43,2.43,6.88,0.72,6.83-2.83
			l0,0v0v0c0.56-6.57,1.14-13.13,1.71-19.7c0.87,2.66,1.92,5.25,3.32,7.67c1.05,1.65,2.3,3.17,3.4,4.79
			c-0.6-1.38-1.29-2.73-1.93-4.09c-2.31-5.15-2.64-10.95-3.22-16.5c-0.11-1.44-0.19-2.89-0.25-4.33c0.02,0.01,0.04,0.02,0.07,0.02
			c4.16,0.88,6.48-3.34,7.78-6.76c0.93-0.44,1.7-1.25,2.03-2.48c0,0,0,0,0,0c0,0,0,0,0,0c0.95-3.83,1.92-7.67,2.89-11.5
			c-0.27,2.89-0.51,5.79-0.67,8.69c-0.16,3.06-0.29,6.13-0.46,9.19c-0.01,0.89-0.21,1.82-0.07,2.69c0.03,0.34,0.1,0.68,0.22,1
			c-0.89,2.52-1.77,5.04-2.63,7.57c0,0,0,0,0,0.01c0,0,0,0,0,0l0,0c-1.03,3.58,3.52,6.94,6.69,3.89c0.29-0.6,0.56-1.21,0.85-1.81
			c0.06,0.02,0.12,0.03,0.18,0.05c0.18-0.5,0.36-1.01,0.54-1.51c0.55-0.07,1.08-0.23,1.54-0.5c0.86-0.57,1.59-1.36,1.84-2.39h0
			c0,0,0,0,0,0c0.84-3.66,1.69-7.32,2.53-10.98c2.75-6.76,5.4-13.58,8.31-20.24c3.33-7.93,6.59-15.79,9.8-23.61
			c0.09,0.09,0.17,0.18,0.26,0.26c3.7,3.42,7.51,7.13,12.26,8.97c1.67,0.4,3.37,1.17,5.1,0.8c1.49-0.44,2.75-1.75,2.87-3.33
			c0.17-0.85-0.02-1.8-0.47-2.55c-0.6-1.36-1.2-2.72-1.82-4.08c-2.94-6.49-6.04-12.9-8.99-19.38c-0.23-0.51-0.46-1-0.68-1.48
			c1.23-3,2.46-5.99,3.68-8.97c1.32,0.65,2.65,1.3,3.97,1.95c1.15,0.57,2.28,1.16,3.42,1.74c-0.01,0.19-0.02,0.39-0.04,0.58
			c-0.11,1.52-0.43,3.24,0.7,4.45c1.17,1.74,3.99,2.09,5.56,0.72c0.61-0.46,1.06-1.08,1.48-1.74c4.24,2.26,8.47,4.56,12.7,6.83
			c0.78,0.35,1.55,0.79,2.32,1.24c2.74,5.26,5.37,10.58,7.95,15.91c0.57,1.17,1.06,2.19,1.5,3.15c1.28,3.64,2.64,7.26,4.13,10.83
			c1.36,2.78,2.04,6.15,4.37,8.28c1.75,1.52,4.77,0.9,5.88-1.12c1.39-2.33-0.35-4.57-1.11-6.78c-1.85-4.61-3.66-9.23-5.69-13.76
			c-0.73-2.15-1.48-4.37-2.25-6.69c-4.58-14.47-8.39-29.17-11.6-44c5.96-8.55,11.74-17.23,16.8-26.36c0.78-1.41,1.52-2.84,2.29-4.26
			c11.74,0.8,23.62,1.13,35.04-2.08c13.86-3.61,26.31-10.99,38.45-18.36c13.02-8.16,25.51-17.44,35.86-28.87
			c30.35-34.91,49.74-85.6,54.77-131.33c2.73-25.78,2.7-52.04-1.11-77.7c-0.25-1.37-0.54-2.73-0.84-4.08
			c1.62,0.65,3.25,1.28,4.88,1.9c2.83,1.12,5.76,1.92,8.68,2.76c1.53,0.46,3.28,1.09,4.73,0.34c2.68,2.14,5.56,4,8.76,5.34
			C1025.11,420.96,1029.05,418.38,1028.39,415.24z M828.68,663.01c-1.27-0.07-2.62-0.14-4.03-0.23c0.77-1.32,1.53-2.64,2.28-3.96
			c11.12-20,19.25-41.46,27.22-62.85c-0.49,2.99-0.84,5.99-1.18,9c-0.05,1.86-0.91,4.01-0.1,5.74
			c-6.56,15.63-13.41,30.92-21.83,47.55C830.28,659.85,829.49,661.43,828.68,663.01z M676.51,808.33
			c-1.37,7.08-2.52,14.2-3.19,21.38c-0.38,1.37-0.77,2.74-1.17,4.1C672.05,825.91,673.92,817.49,676.51,808.33z M670.69,689.32
			c-0.8-9.84-1.2-19.7-1.23-29.57c1.75,9.89,2.97,19.06,4.09,28.74c0.04,3.22,0.11,6.43,0.23,9.64l1.11,14.67
			c-0.35-0.96-0.69-1.93-1.03-2.89C672.36,702.69,671.18,695.74,670.69,689.32z M717.8,586.86c0.27-1.1,0.51-2.09,0.74-3.01
			c0.74,5.08,1.28,10.26,1.67,15.51c-0.21,3.17-0.41,6.35-0.61,9.52c-2.93,10.7-5.6,21.47-8.34,32.22c-0.08-1.94-0.2-3.89-0.36-5.83
			c-0.02-0.15-0.03-0.31-0.05-0.46C712.44,618.71,714.41,603.72,717.8,586.86z M927.48,485.35c-1.31,3.11-2.63,6.17-3.95,9.17
			c-0.43,1-0.86,1.99-1.29,2.99c-0.38,0.69-0.77,1.38-1.15,2.06c2.54-7.29,5.06-14.58,7.56-21.89c-0.31,2.16-0.62,4.27-0.92,6.31
			C927.64,484.44,927.56,484.89,927.48,485.35z M802.82,618.55c-0.87,1.56-1.75,3.11-2.62,4.67c0.09-0.32,0.19-0.63,0.28-0.95
			C801.25,621.03,802.04,619.79,802.82,618.55z M712.81,760.12c0.13-0.11,0.26-0.21,0.4-0.32c0,0.03,0,0.06,0,0.09
			c-0.24,1.26-0.48,2.52-0.71,3.78c-0.25,0.17-0.49,0.35-0.75,0.52C712.11,762.83,712.46,761.47,712.81,760.12z M933.02,355.44
			c-1.4-0.07-2.8-0.13-4.2-0.18c0.43-1.08,0.87-2.17,1.31-3.25c1.11,0.5,2.29,1.04,3.67,1.66
			C933.54,354.26,933.28,354.85,933.02,355.44z M827.65,491.84c-1.57,2.35-3.15,4.71-4.7,7.07c0.11-0.53,0.22-1.06,0.32-1.59
			c1.43-1.93,2.84-3.82,4.25-5.69C827.56,491.7,827.6,491.77,827.65,491.84z M735.55,571.95c-0.52-0.11-0.99-0.15-1.41-0.12
			c0.42-3.49,0.89-6.85,1.45-10.1c0.52,3.44,0.9,6.91,1.08,10.74C736.33,572.24,735.96,572.05,735.55,571.95z M868.6,566.22
			c1.59-2.41,3.18-4.82,4.76-7.24c0.25-0.36,0.48-0.73,0.72-1.1c-2.86,7.49-5.77,14.96-8.76,22.4
			C866.32,575.65,867.42,570.95,868.6,566.22z M775.81,551.52c-0.1,0.24-0.2,0.48-0.3,0.71c-0.98,1.54-1.97,3.08-2.95,4.62
			c-0.59,0.12-1.16,0.37-1.6,0.75c-1.15,1.06-1.98,2.45-2.84,3.81c0.32-1.44,0.64-2.88,0.97-4.32c4.45-7.29,8.94-14.55,13.39-21.84
			c0.26-0.42,0.52-0.84,0.78-1.26C780.75,539.83,778.25,545.66,775.81,551.52z M736.08,598.23c-0.21-1.91-0.49-3.81-0.82-5.69
			c0.55-2.83,1.1-5.65,1.66-8.47c0.02-0.11,0.04-0.22,0.07-0.33c0.05,4.31,0.02,8.63-0.07,12.94
			C736.63,597.2,736.35,597.72,736.08,598.23z M802.11,705.19c-1.46-2.15-2.96-4.26-4.51-6.35c0.07-1.1,0.13-2.2,0.21-3.3
			c0.03-0.49,0.07-0.98,0.11-1.47c0.17-0.16,0.34-0.34,0.49-0.53c1.39-1.38,2.82-2.71,4.26-4.03c0.22-0.2,0.44-0.4,0.66-0.6
			c0.72,3.77,1.47,7.53,2.26,11.29C804.43,701.87,803.27,703.53,802.11,705.19z M808.57,672.62c-0.19-1.11-0.37-2.15-0.54-3.13
			c0.92,0.09,1.84,0.19,2.76,0.27c-0.25,0.36-0.5,0.74-0.76,1.1C809.56,671.46,809.06,672.04,808.57,672.62z M810.88,661.75
			c3.08-5.59,5.95-11.31,8.85-16.96c5.92-11.99,11.34-24.21,16.77-36.43c0.72-1.15,1.44-2.3,2.15-3.46
			c3.06-4.86,6.09-9.72,9.13-14.59c-9.45,25.35-19.2,50.94-32.02,71.84C814.08,662.02,812.43,661.89,810.88,661.75z M879.73,565.4
			c-0.4,3.67-0.78,7.33-1.12,11c-0.22,3.31-0.69,6.64-0.93,9.97c-1.85,3.23-3.81,6.39-6,9.41c-0.86,1.23-3.77,4.89-7.12,7.57
			c-0.03,0.02-0.05,0.04-0.08,0.06C869.67,590.78,874.7,578.09,879.73,565.4z M892.36,531.83c1.86-5.11,3.71-10.23,5.57-15.34
			c1.65-2.33,3.31-4.66,4.96-6.99c-0.01,0.46-0.01,0.91-0.01,1.37c-2.66,9.89-5.07,19.85-7.7,29.75c-0.67,2.21,0.99,4.83,3.33,4.99
			c0.06,0.01,0.12,0.02,0.18,0.03c-0.62,1.92-1.24,3.83-1.88,5.7c-2.01,3.71-4.07,7.39-6.21,11.03c-1.09,1.85-2.13,3.72-3.15,5.61
			C888.81,555.05,890.27,544.35,892.36,531.83z M941.82,441.84c-0.01,0.01-0.02,0.02-0.03,0.03c0.22-1.56,0.44-3.11,0.66-4.67
			c1.5-4.66,3.05-9.3,4.6-13.95c-1.32,5.82-2.77,11.76-4.31,17.65C942.43,441.22,942.13,441.55,941.82,441.84z M969.11,377.34
			c-0.26-1-0.63-1.95-1.06-2.87c3.86,2.88,7.64,5.82,11.39,8.76c1.28,3.94,2.59,7.87,3.84,11.83c-4.56-2.12-9.2-4.4-14.12-6.83
			C969.72,384.61,969.91,380.95,969.11,377.34z M882.06,379.1c0.34-2.26,1.04-4.45,1.91-6.55c0.25-0.53,0.87-1.85,1.19-2.34
			c0.4-0.71,0.85-1.39,1.33-2.05c2.67-3.04,3.18-2.66,5.92-3.83c3.75-1.1,5.56-1.37,8.38-1.49c-3.02,3.77-5.91,7.63-8.69,11.57
			c-1.61-0.96-4.02-0.51-5.07,1.05c-0.35,0.39-0.59,0.84-0.72,1.36c-0.72,3.17-1.46,6.33-2.19,9.49c-0.56,0.88-1.12,1.76-1.67,2.64
			C882.04,385.67,881.74,382.39,882.06,379.1z M787.44,492.31c1.45-3.81,3.95-9.19,6.56-14.82c0.79,6.86,1.59,13.73,2.07,20.61
			c-0.48,0.76-0.97,1.53-1.45,2.29c-6.31,10.26-12.67,20.49-19.01,30.73c0.18-0.91,0.35-1.83,0.51-2.75
			C779.39,516.2,783.06,504.15,787.44,492.31z M711.05,843.17c0.17-0.23,0.33-0.48,0.45-0.74c1.18,3.53,2.3,7.07,3.35,10.64
			C713.55,849.78,712.29,846.48,711.05,843.17z M716.17,830.94c0,0.24,0.03,0.48,0.07,0.72c-1.83-5.13-3.7-10.25-5.47-15.4
			c-0.02-0.47-0.04-0.95-0.07-1.42c0.44-0.45,0.78-1.01,0.96-1.71c0,0,0,0,0,0c0,0,0,0,0,0c1.2-4.6,2.45-9.19,3.69-13.78
			c0.06-0.08,0.12-0.16,0.18-0.24c0.03,1.22,0.06,2.44,0.09,3.67c0.05,2.45,0.1,4.9,0.13,7.36c-0.02,0.55,0.09,1.06,0.34,1.54
			c0.17,0.49,0.45,0.91,0.79,1.26c-0.4,4.24-0.71,8.48-0.86,12.74C716.05,827.42,716.15,829.18,716.17,830.94
			C716.17,830.93,716.17,830.94,716.17,830.94L716.17,830.94L716.17,830.94z M776.33,746.44c-1.42-1.33-2.89-2.83-4.37-4.43
			c0.36-0.87,0.72-1.75,1.07-2.62C774.13,741.74,775.23,744.09,776.33,746.44z M783.9,712.94c0.85-2.05,1.69-4.09,2.54-6.13
			c0.86,1.01,1.71,2.02,2.58,3.03c-0.08,1.85-0.17,3.69-0.26,5.53C787.14,714.55,785.52,713.74,783.9,712.94z M809.3,716.58
			c-0.83-1.41-1.68-2.81-2.54-4.2c0.38-0.54,0.77-1.09,1.15-1.63C808.37,712.7,808.83,714.64,809.3,716.58z M810.28,682.48
			c1.71-1.68,3.35-3.41,4.86-5.27c1.72-2.17,3.31-4.44,4.82-6.75c1.51,0.1,3.03,0.19,4.55,0.28c-3.92,6.93-8.19,13.65-12.62,20.27
			C811.33,688.16,810.79,685.32,810.28,682.48z M862.44,662.4c-6.96,1.71-15.9,1.66-25.15,1.14c8.34-16.25,15.82-32.94,22.9-49.78
			c1.87,0.08,3.69-0.49,5.32-1.5c2.67-1.49,5.09-3.43,7.28-5.56c2.52-2.58,4.74-5.38,6.79-8.3c0.14,0.11,0.28,0.22,0.45,0.32
			c1.82,1.11,4.43,0.43,5.47-1.43c4.2-9.1,8.93-17.95,12.82-27.19c2.12-5.12,4.05-10.3,5.84-15.53
			c6.26-11.63,11.95-23.56,17.36-35.61c-3.48,19.73-6.95,39.46-10.56,59.17c-4.77,23.46-10.47,46.7-15.68,70.06
			c-0.02,0.07-0.03,0.13-0.04,0.19C883.96,654.93,875.27,659.62,862.44,662.4z M986.71,406.89c2.96,11.1,3.14,18.47,4,30.79
			c1.36,18.42,0.03,44.36-2.08,58.71c-6.28,44.3-26.22,92.93-55.03,123.48c-9.34,9.34-17.38,15.41-27.88,22.13
			c3.71-11.36,7.4-22.73,11.08-34.11c8.5-26.27,17-52.54,26-78.64c13.9-38.44,28.36-76.74,38.78-116.31
			c-12.33,25.24-23.96,50.89-33.21,77.43c-9.96,26.69-19.12,53.64-28.01,80.69c2.67-14.57,5.11-29.18,7.77-43.75
			c2.31-12.12,4.39-24.27,6.35-36.45c3.6-8.14,6.68-16.5,9.4-24.99c1.12-2.9,2.23-5.82,3.3-8.74c5.49-14.74,10.52-29.64,15.7-44.49
			c1.89-5.34,3.39-10.8,4.61-16.33c6.18,3.03,12.42,5.95,18.73,8.7C986.38,405.66,986.55,406.27,986.71,406.89z M992.93,399.33
			c-0.72-2.51-1.49-5-2.29-7.49c1.6,1.13,3.21,2.22,4.71,3.25c2.35,2.67,4.72,5.31,7.12,7.93
			C999.2,401.85,996.04,400.62,992.93,399.33z"/>
		<path class="st7" d="M854.49,414.83c0.07-0.1,0.15-0.19,0.22-0.29C854.63,414.66,854.55,414.75,854.49,414.83z"/>
	</g>
</g>
<g id="Layer_5">
	<g>
		<g>
			<path class="st8" d="M1375.28,648.18c-22.26-0.79-44.52-1.59-66.77-2.38c-6.31-0.22-12.62-0.45-18.94-0.67
				c-3.22-0.11-3.21,4.89,0,5c22.26,0.79,44.52,1.59,66.77,2.38c6.31,0.22,12.62,0.45,18.94,0.67
				C1378.49,653.29,1378.49,648.29,1375.28,648.18L1375.28,648.18z"/>
		</g>
	</g>
	<g>
		<g>
			<path class="st8" d="M1358.45,742.55c-19.64-2.67-39.17-6.15-58.52-10.43c-5.55-1.23-11.09-2.52-16.61-3.88
				c-3.12-0.77-4.46,4.05-1.33,4.82c19.25,4.73,38.69,8.68,58.26,11.82c5.61,0.9,11.24,1.73,16.87,2.5
				c1.34,0.18,2.68-0.32,3.08-1.75C1360.51,744.46,1359.79,742.73,1358.45,742.55L1358.45,742.55z"/>
		</g>
	</g>
	<g>
		<g>
			<path class="st8" d="M1330.75,837.07c-17.98-6.11-35.96-12.22-53.95-18.33c-3.05-1.04-4.36,3.79-1.33,4.82
				c17.98,6.11,35.96,12.22,53.95,18.33C1332.48,842.93,1333.79,838.1,1330.75,837.07L1330.75,837.07z"/>
		</g>
	</g>
	<g>
		<g>
			<path class="st8" d="M693.36,759.72c-5.89,10.27-11.74,20.56-17.55,30.88c-1.58,2.81,2.74,5.33,4.32,2.52
				c5.81-10.31,11.66-20.61,17.55-30.88C699.28,759.45,694.96,756.93,693.36,759.72L693.36,759.72z"/>
		</g>
	</g>
	<g>
		<g>
			<path class="st8" d="M1223.2,894.98c16.8,8.4,32.76,18.5,47.48,30.17c1.06,0.84,2.5,1.03,3.54,0c0.87-0.87,1.06-2.69,0-3.54
				c-15.07-11.95-31.29-22.35-48.49-30.95C1222.85,889.23,1220.32,893.54,1223.2,894.98L1223.2,894.98z"/>
		</g>
	</g>
	<g>
		<g>
			<path class="st8" d="M1179.19,962.1c12.78,14.39,24.79,29.44,35.94,45.12c3.16,4.44,6.24,8.92,9.27,13.45
				c1.78,2.66,6.11,0.16,4.32-2.52c-10.87-16.29-22.61-32-35.17-47.03c-3.54-4.24-7.15-8.42-10.82-12.55
				C1180.59,956.16,1177.06,959.7,1179.19,962.1L1179.19,962.1z"/>
		</g>
	</g>
	<g>
		<g>
			<path class="st8" d="M1106.67,1011.9c8.78,13.3,18.33,26.09,28.59,38.29c2.91,3.45,5.87,6.86,8.89,10.21
				c2.16,2.4,5.68-1.15,3.54-3.54c-10.43-11.59-20.19-23.77-29.19-36.5c-2.56-3.62-5.06-7.29-7.51-10.99
				C1109.23,1006.7,1104.89,1009.2,1106.67,1011.9L1106.67,1011.9z"/>
		</g>
	</g>
	<g>
		<g>
			<path class="st8" d="M1025.7,1041.84c4.52,19.78,9.04,39.56,13.56,59.33c1.3,5.67,2.59,11.35,3.89,17.02
				c0.72,3.14,5.54,1.81,4.82-1.33c-4.52-19.78-9.04-39.56-13.56-59.33c-1.3-5.67-2.59-11.35-3.89-17.02
				C1029.81,1037.38,1024.98,1038.7,1025.7,1041.84L1025.7,1041.84z"/>
		</g>
	</g>
	<g>
		<g>
			<path class="st8" d="M947.08,1082.63c1.13,20.93,2.26,41.85,3.39,62.78c0.32,5.98,0.65,11.96,0.97,17.94c0.17,3.2,5.17,3.22,5,0
				c-1.13-20.93-2.26-41.85-3.39-62.78c-0.32-5.98-0.65-11.96-0.97-17.94C951.9,1079.43,946.9,1079.41,947.08,1082.63
				L947.08,1082.63z"/>
		</g>
	</g>
	<g>
		<g>
			<path class="st8" d="M855.45,1076.08c-1.78,23.14-2.62,46.35-2.51,69.56c0.03,6.63,0.14,13.26,0.33,19.89
				c0.09,3.21,5.09,3.22,5,0c-0.65-23.2-0.36-46.42,0.88-69.6c0.36-6.62,0.79-13.24,1.3-19.85c0.1-1.35-1.22-2.5-2.5-2.5
				C856.51,1073.58,855.55,1074.73,855.45,1076.08L855.45,1076.08z"/>
		</g>
	</g>
	<g>
		<g>
			<path class="st8" d="M761.57,1082.62c-1.69,16.86-5.24,33.5-10.49,49.6c-1,3.07,3.83,4.38,4.82,1.33
				c5.39-16.54,8.94-33.62,10.67-50.93c0.13-1.35-1.25-2.5-2.5-2.5C762.61,1080.12,761.71,1081.27,761.57,1082.62L761.57,1082.62z"
				/>
		</g>
	</g>
	<g>
		<g>
			<path class="st8" d="M707.31,1063.84c-9.05,16.99-18.11,33.97-27.16,50.96c-2.58,4.83-5.15,9.67-7.73,14.5
				c-1.51,2.84,2.8,5.37,4.32,2.52c9.05-16.99,18.11-33.97,27.16-50.96c2.58-4.83,5.15-9.67,7.73-14.5
				C713.14,1063.52,708.82,1061,707.31,1063.84L707.31,1063.84z"/>
		</g>
	</g>
	<g>
		<g>
			<path class="st8" d="M635.32,1011.47c-12.46,18.68-24.93,37.37-37.39,56.05c-3.54,5.31-7.08,10.62-10.62,15.93
				c-1.79,2.68,2.54,5.19,4.32,2.52c12.46-18.68,24.93-37.37,37.39-56.05c3.54-5.31,7.08-10.62,10.62-15.93
				C641.43,1011.3,637.1,1008.8,635.32,1011.47L635.32,1011.47z"/>
		</g>
	</g>
	<g>
		<g>
			<path class="st8" d="M576.55,963.56c-10.91,14.54-21.82,29.09-32.72,43.63c-0.81,1.08-0.17,2.79,0.9,3.42
				c1.28,0.75,2.61,0.19,3.42-0.9c10.91-14.54,21.82-29.09,32.72-43.63c0.81-1.08,0.17-2.79-0.9-3.42
				C578.69,961.92,577.36,962.48,576.55,963.56L576.55,963.56z"/>
		</g>
	</g>
	<g>
		<g>
			<path class="st8" d="M518.29,919.75c-14.55,11.31-28.18,23.8-40.68,37.34c-3.59,3.88-7.08,7.85-10.48,11.9
				c-0.87,1.03-1.01,2.52,0,3.54c0.89,0.89,2.66,1.04,3.54,0c11.85-14.11,24.86-27.25,38.86-39.22c4.02-3.44,8.12-6.77,12.29-10.02
				c1.07-0.83,0.87-2.66,0-3.54C520.77,918.7,519.36,918.92,518.29,919.75L518.29,919.75z"/>
		</g>
	</g>
	<g>
		<g>
			<path class="st8" d="M485.87,836.22c-18.63,9.68-37.26,19.36-55.89,29.04c-5.32,2.77-10.65,5.53-15.97,8.3
				c-2.86,1.48-0.33,5.8,2.52,4.32c18.63-9.68,37.26-19.36,55.89-29.04c5.32-2.77,10.65-5.53,15.97-8.3
				C491.25,839.05,488.72,834.74,485.87,836.22L485.87,836.22z"/>
		</g>
	</g>
	<g>
		<g>
			<path class="st8" d="M446.96,756.5c-21.49,4.74-42.98,9.49-64.47,14.23c-6.08,1.34-12.16,2.69-18.25,4.03
				c-3.14,0.69-1.81,5.51,1.33,4.82c21.49-4.74,42.98-9.49,64.47-14.23c6.08-1.34,12.16-2.69,18.25-4.03
				C451.43,760.62,450.1,755.8,446.96,756.5L446.96,756.5z"/>
		</g>
	</g>
	<g>
		<g>
			<path class="st8" d="M430.36,652.54c-12.36,0-24.72,0-37.09,0c-3.22,0-3.22,5,0,5c12.36,0,24.72,0,37.09,0
				C433.58,657.54,433.59,652.54,430.36,652.54L430.36,652.54z"/>
		</g>
	</g>
	<g>
		<g>
			<path class="st8" d="M449.33,552.25c-16.63,2.64-33.53,3.64-50.36,3.06c-4.82-0.17-9.62-0.47-14.42-0.9
				c-1.35-0.12-2.5,1.23-2.5,2.5c0,1.45,1.15,2.38,2.5,2.5c17.08,1.51,34.3,1.4,51.36-0.39c4.93-0.52,9.85-1.17,14.75-1.95
				c1.33-0.21,2.08-1.88,1.75-3.08C452.01,552.57,450.67,552.03,449.33,552.25L449.33,552.25z"/>
		</g>
	</g>
	<g>
		<g>
			<path class="st8" d="M493.61,430.19c-22.51-2.89-44.69-8.47-65.91-16.49c-6.03-2.28-11.98-4.76-17.84-7.44
				c-1.23-0.56-2.69-0.35-3.42,0.9c-0.63,1.08-0.34,2.86,0.9,3.42c21.27,9.72,43.63,16.97,66.58,21.45
				c6.53,1.27,13.1,2.31,19.7,3.16c1.34,0.17,2.5-1.27,2.5-2.5C496.11,431.2,494.95,430.37,493.61,430.19L493.61,430.19z"/>
		</g>
	</g>
	<g>
		<g>
			<path class="st8" d="M525.43,360.55c-15.29-11.33-30.59-22.66-45.88-33.99c-4.34-3.22-8.68-6.43-13.02-9.65
				c-1.09-0.8-2.79-0.18-3.42,0.9c-0.74,1.27-0.19,2.61,0.9,3.42c15.29,11.33,30.59,22.66,45.88,33.99
				c4.34,3.22,8.68,6.43,13.02,9.65c1.09,0.8,2.79,0.18,3.42-0.9C527.07,362.7,526.52,361.36,525.43,360.55L525.43,360.55z"/>
		</g>
	</g>
	<g>
		<g>
			<path class="st8" d="M602.51,280c-15.21-14.61-30.42-29.22-45.63-43.82c-2.32-2.23-5.86,1.3-3.54,3.54
				c15.21,14.61,30.42,29.22,45.63,43.82C601.29,285.77,604.83,282.23,602.51,280L602.51,280z"/>
		</g>
	</g>
	<g>
		<g>
			<path class="st8" d="M672.49,228.37c-4.36-8.73-8.73-17.45-13.09-26.18c-1.44-2.88-5.75-0.35-4.32,2.52
				c4.36,8.73,8.73,17.45,13.09,26.18C669.62,233.77,673.93,231.24,672.49,228.37L672.49,228.37z"/>
		</g>
	</g>
	<g>
		<g>
			<path class="st8" d="M757.58,221.83c-8.48-15.27-16.97-30.54-25.45-45.81c-2.42-4.36-4.85-8.73-7.27-13.09
				c-1.56-2.81-5.88-0.29-4.32,2.52c8.48,15.27,16.97,30.54,25.45,45.81c2.42,4.36,4.85,8.73,7.27,13.09
				C754.82,227.16,759.14,224.65,757.58,221.83L757.58,221.83z"/>
		</g>
	</g>
	<g>
		<g>
			<path class="st8" d="M821.52,204.91c-2.78-18.66-5.55-37.33-8.33-55.99c-0.79-5.34-1.59-10.69-2.38-16.03
				c-0.2-1.34-1.89-2.07-3.08-1.75c-1.43,0.39-1.95,1.73-1.75,3.08c2.78,18.66,5.55,37.33,8.33,55.99
				c0.79,5.34,1.59,10.69,2.38,16.03c0.2,1.34,1.89,2.07,3.08,1.75C821.21,207.59,821.72,206.25,821.52,204.91L821.52,204.91z"/>
		</g>
	</g>
	<g>
		<g>
			<path class="st8" d="M884.45,203.45c1.17-19.24,3.61-38.39,7.32-57.31c1.06-5.42,2.23-10.82,3.5-16.2
				c0.74-3.13-4.08-4.47-4.82-1.33c-4.52,19.2-7.75,38.69-9.69,58.32c-0.54,5.5-0.98,11.01-1.31,16.52
				C879.25,206.67,884.25,206.66,884.45,203.45L884.45,203.45z"/>
		</g>
	</g>
	<g>
		<g>
			<path class="st8" d="M960.57,212.81c4.99-20.39,9.98-40.77,14.98-61.16c1.43-5.82,2.85-11.65,4.28-17.47
				c0.77-3.12-4.06-4.46-4.82-1.33c-4.99,20.39-9.98,40.77-14.98,61.16c-1.43,5.82-2.85,11.65-4.28,17.47
				C954.99,214.61,959.81,215.94,960.57,212.81L960.57,212.81z"/>
		</g>
	</g>
	<g>
		<g>
			<path class="st8" d="M1049.91,237.44c10.18-17.45,20.36-34.91,30.54-52.36c1.62-2.79-2.7-5.3-4.32-2.52
				c-10.18,17.45-20.36,34.91-30.54,52.36C1043.96,237.7,1048.28,240.22,1049.91,237.44L1049.91,237.44z"/>
		</g>
	</g>
	<g>
		<g>
			<path class="st8" d="M1119.32,283.76c13.04-15.88,26.09-31.76,39.13-47.64c3.68-4.48,7.36-8.96,11.05-13.45
				c0.86-1.04,1.02-2.52,0-3.54c-0.88-0.88-2.67-1.05-3.54,0c-13.04,15.88-26.09,31.76-39.13,47.64
				c-3.68,4.48-7.36,8.96-11.05,13.45c-0.86,1.04-1.02,2.52,0,3.54C1116.67,284.64,1118.46,284.81,1119.32,283.76L1119.32,283.76z"
				/>
		</g>
	</g>
	<g>
		<g>
			<path class="st8" d="M1178.35,342.81c16.37-13.65,32.75-27.31,49.12-40.96c4.65-3.88,9.3-7.76,13.95-11.63
				c1.04-0.87,0.89-2.64,0-3.54c-1.03-1.03-2.5-0.87-3.54,0c-16.37,13.65-32.75,27.31-49.12,40.96c-4.65,3.88-9.3,7.76-13.95,11.63
				c-1.04,0.87-0.89,2.64,0,3.54C1175.84,343.84,1177.31,343.68,1178.35,342.81L1178.35,342.81z"/>
		</g>
	</g>
	<g>
		<g>
			<path class="st8" d="M1246.9,426.1c17.94-6.7,35.07-15.42,50.99-26.05c2.66-1.78,0.16-6.11-2.52-4.32
				c-15.55,10.39-32.27,19.01-49.8,25.55c-1.26,0.47-2.13,1.69-1.75,3.08C1244.15,425.57,1245.62,426.57,1246.9,426.1L1246.9,426.1z
				"/>
		</g>
	</g>
	<g>
		<g>
			<path class="st8" d="M1279.62,502.36c22.09-4.53,44.17-9.06,66.26-13.59c6.28-1.29,12.55-2.57,18.83-3.86
				c1.32-0.27,2.09-1.84,1.75-3.08c-0.38-1.38-1.75-2.02-3.08-1.75c-22.09,4.53-44.17,9.06-66.26,13.59
				c-6.28,1.29-12.55,2.57-18.83,3.86c-1.32,0.27-2.09,1.84-1.75,3.08C1276.92,501.99,1278.29,502.64,1279.62,502.36L1279.62,502.36
				z"/>
		</g>
	</g>
	<g>
		<g>
			<path class="st8" d="M1302.99,574.64c17.45,0,34.91,0,52.36,0c3.22,0,3.22-5,0-5c-17.45,0-34.91,0-52.36,0
				C1299.77,569.64,1299.77,574.64,1302.99,574.64L1302.99,574.64z"/>
		</g>
	</g>
</g>
<g id="Layer_7">
	<path class="st9" d="M843.35,512.8c-2.88-8.44-6.82-16.61-11.53-24.18c-5.65-8.49-14.53-15.4-24.74-17.14
		c-5.32-0.91-10.69,0.38-15.9,1.42c-4.47,0.96-8.99,1.77-13.32,3.27c-8.41,3.16-16.39,7.26-24.31,11.46
		c-4.34,2.22-8.77,4.26-13.2,6.29c-6.4,3.29-6.97,3.84-12.19,5.4c-3.44,0.77-8.35,0.03-11.65-3.65c-0.45-0.64-0.84-1.32-1.17-2.03
		c-0.21-0.58-0.38-1.18-0.5-1.79c-0.1-1.32-0.01-2.65,0.14-3.97c1.81-10.32,7.89-19.99,6.58-30.74c-0.07-1.27-0.37-2.47-0.82-3.62
		c-0.48-3.41-1.63-6.7-3.85-9.34c-3.68-4.13-9.59-3.95-14.63-3.12c-4.25,0.54-8.09,2.69-11.54,5.12c-4.27,3.29-3.96,2.96-9.09,7.08
		c-4.85,4.34-10.33,8.7-14.51,13.59c-3.69,4.34-6.89,9.08-10.23,13.69c-2.14,3.07-4.64,5.89-6.42,9.2
		c-3.41,6.05-6.99,12.13-8.47,18.99c-1.32,4.91-1.43,10-1.83,15.03c-0.84,7.86-0.55,15.77-0.66,23.66
		c-0.59,17.26-1.47,35.17,4.04,51.48c0.02,3.56,0.5,7.1,1.79,10.44c0.87,2.32,1.47,4.73,2.27,7.07c1.4,3.16,2.97,6.32,4.97,9.15
		c2.01,2.99,5.03,5.01,7.47,7.61c1.63,2.47,4,4.21,6.63,5.54c3.24,2.11,6.55,4.14,10.18,5.51c4.97,1.81,9.87,3.94,15.04,5.13
		c8.46,1.76,17.14,1.56,25.65,0.27c1.87,0.04,3.73,0.08,5.6,0.16c4.63,0.36,9.28,0.31,13.87-0.41c1.96-0.31,3.39-0.29,6.57-1.11
		c5.63-0.12,10.42-1.46,14.6-1.56c5-0.38,9.98-1.03,14.91-1.93c6.18-1,12.44-2.25,18.16-4.85c18.01-9.6,35.59-22.15,45.5-40.45
		c0.83-1.36,0.97-2.84,0.62-4.14c1.41-3.55,2.49-7.23,3.21-10.99c5.6-11.33,7.25-24.22,7.2-36.78
		C848.17,535.83,846.79,524.06,843.35,512.8z"/>
	<path class="st9" d="M1121.69,702.52c-0.74-0.03-2.78,0.34-3.51,0.51c-2.03,0.17-4.08,0.17-6.12,0.21c0,0-0.01,0-0.01,0
		c-0.11-0.03-0.22-0.06-0.33-0.1c-0.89-0.45-1.76-0.95-2.59-1.49c-0.15-0.15-0.28-0.28-0.39-0.39c-2.19-3.23-1.85-3.33-2.71-5.13
		c-0.06-0.14-0.11-0.25-0.16-0.36c-1.03-2.56-1.46-5.32-2.3-7.94c-0.88-3.27-1.31-4.78-1.58-5.14c-0.72-2.7-1.3-5.97-3.66-7.73
		c1.11,0.84-0.59-0.84-1.36-1.2c-1-0.54-2.08-0.79-3.2-0.91c-0.02,0-0.03,0-0.05-0.01c-2.15-3.74-6.67-5.85-10.94-4.83
		c-3.22,0.48-5.9,2.53-8.55,4.29c-0.65,0.46-1.31,0.9-1.97,1.34c-5.25,2.37-10.41,5-14.86,8.7c-2.06,2.43-4.38,5.28-4.21,8.64
		c0.03,0.54,0.11,1.06,0.22,1.57c-0.14,0.16-0.29,0.31-0.43,0.48c0.15-0.12,0.31-0.23,0.46-0.35c0.21,0.9,0.53,1.77,0.89,2.63
		c-0.27,1.82-0.17,3.79,0.35,5.92c1.45,6.28,6.1,10.31,12.59,10.52c4.85,0.67,8.68,0.37,12.42-1.99
		c0.42,7.76,3.79,15.66,10.62,19.78c9.24,5.74,23.08,5.69,31.58-1.4c2.32-1.85,3.64-4.57,5.03-7.12c1.36-2.86,2.72-5.87,2.84-9.08
		C1129.64,707.46,1126.52,702.61,1121.69,702.52z"/>
	<path class="st9" d="M1079,856.85c-2.29-5.59-7.25-12.01-13.15-13.92c-1.7-0.39-3.53-0.15-5.14,0.48c-0.74,0.3-1.47,0.62-2.2,0.93
		c0.44-0.19,0.89-0.37,1.33-0.56c-3.68,1.25-6.7,3.78-8.98,6.89c-1.97,2.36-2.54,5.51-3.03,8.46c-0.36,1.86-0.55,3.72-0.64,5.6
		c-0.35,1.54-0.42,3.15-0.51,4.73c-0.28,2.83-0.41,5.66-0.23,8.5c0.19,2.87,0.34,5.74,0.65,8.61c0.7,4.34,1.04,8.88,2.74,12.95
		c0.11,0.25,0.21,0.5,0.32,0.75c-0.86-2.04-0.13-0.29,0.29,0.69c0.53,1.14,1.39,2.13,2.31,2.97c3.38,3.67,8.84,3.66,13.31,2.28
		c3.89-1.53,6.99-4.83,9.5-8.08c1.74-2.98,3.38-6.07,4.69-9.26c0.95-3.11,1.14-6.39,1.33-9.62
		C1081.97,871.74,1081.69,863.94,1079,856.85z"/>
	<path class="st9" d="M1048.4,789.33c-0.55-4.31-1.83-8.44-3.47-12.43c0.02-0.62,0.05-1.23,0.13-1.84c0.13-1.18,0.07-2.31-0.15-3.37
		c0.03-0.88,0.06-1.77,0.05-2.65c0.13-2.68,0.06-5.42-0.77-7.99c-1.33-4.12-3.97-7.63-5.66-11.6c-3.23-5.35-5.15-11.38-8.7-16.54
		c-0.11-0.51-0.29-1.01-0.58-1.48c-0.18-0.32-0.41-0.6-0.65-0.87c-1.25-2.55-2.49-5.12-4.68-7c-1.44-1.26-2.67-2.72-4.04-4.04
		c-2.53-2.1-5.29-3.93-8.2-5.45c-3.56-1.85-7.48-2.58-11.43-3c-2.06-0.36-4.07-0.93-6.13-1.27c-2.45-0.46-4.94-0.18-7.4-0.42
		c-0.13-0.01-0.24-0.03-0.35-0.04c-3.36-0.46-6.69-1.08-10.04-1.6c-5.59-1.12-11.81-2.45-17.19,0.05c-4.43,2.14-8.9,5.28-11.14,9.79
		c-4.95,9.93-0.23,22.02,8.74,27.86c4.14,2.48,8.97,3.63,13.77,3.61c3.24,0.27,6.48-0.38,9.71-0.12c3.8,0.61,7.59,1.42,11.29,2.48
		c0.46,0.22,0.91,0.45,1.36,0.69c1.55,1.03,3.29,1.76,4.85,2.77c2.22,1.92,4.07,4.22,6.02,6.4c0.06,0.06,0.11,0.12,0.17,0.18
		c0.02,0.14,0.04,0.28,0.07,0.42c0.55,2.53,2.14,4.64,3.52,6.78c0.68,1.14,1.55,2.13,2.57,2.9c0,0.27-0.02,0.54-0.04,0.81
		c-1.58,6.85-2.06,7.43-4.96,12.45c-3.42,5.53-7.97,10.95-8.56,17.65c-0.43,3.68,0.98,7.21,2.42,10.53c1.1,3.18,3.47,5.54,6.29,7.27
		c0.47,0.3,1.49,1.02,1.81,1.23c0.22,0.18,0.45,0.35,0.68,0.51c3.28,1.87,6.95-0.04,8.97-2.86c0.07,0.03,0.14,0.06,0.21,0.08
		c2.86,0.87,5.85,0.4,8.73-0.12c4.3-0.9,8.62-2.33,12.42-4.54c3.65-2.65,5.92-6.8,8.12-10.65c1.53-2.94,2.51-6.12,2.67-9.44
		C1048.78,792.73,1048.5,791.03,1048.4,789.33z"/>
	<path class="st10" d="M913.74,873.58c0.54-4.11,1.21-8.24,1.23-12.39c-0.05-2.71-0.39-5.39-0.78-8.07
		c-0.04-0.35-0.07-0.7-0.11-1.04c-0.12-2.38-0.97-4.58-1.87-6.76c-1.07-3.18-2.25-6.34-2.92-9.64c-0.59-3.71-1.32-7.39-1.99-11.08
		c-0.13-2.14,0.12-1.89,0.93-5.95c1.23-5.25,2.68-10.45,4.32-15.58c0.25-2.01,0.06-4.07-0.21-6.09c1.55-2.7,0.42-5.82-1.84-7.36
		c-0.13-0.73-0.36-1.44-0.68-2.1c1.1-1.3,2.54-2.26,4.12-2.95c1.97-0.83,0.42-0.39-0.78-0.19c-1.55,0.26-2.97,0.87-4.24,1.73
		c-0.49-0.61-1.08-1.16-1.81-1.62c-4.01-2.66-9.14-1.96-12.48,1.44c-3.08,2.51-5.99,5.11-7.69,8.81
		c-6.39,11.34-12.75,22.76-17.6,34.87c-2.19,6.84-3.68,13.91-5.11,20.94c-2.29,12.9-5.91,24.43-0.24,37.13
		c1.56,3.58,2.6,7.5,5.21,10.5c3.83,4.18,9.27,7.41,15.01,7.74c2.92-0.18,5.8-0.97,8.39-2.35c1.82-1.17,3.38-2.69,5.02-4.11
		c4.1-3.62,7.79-7.69,10.4-12.53c0.39-0.78,0.78-1.56,1.17-2.35c0.38-0.7,0.72-1.42,1.03-2.15
		C911.58,879.53,912.82,876.59,913.74,873.58z"/>
	<path class="st10" d="M1054.83,588.01c-0.28-1.74-1.02-3.37-2.39-4.58c-4.22-3.68-8.86-2.45-12.26,1.59
		c-0.36,0.34-0.69,0.71-0.99,1.11c-1.87,1.53-3.41,3.46-4.01,5.83c-0.77,3.89-0.13,8.35,2.44,11.47c1.68,1.9,4.34,2.34,6.76,2.29
		c1.85-0.01,3.78-0.2,5.41-1.17c1.74-1.11,3.01-2.79,3.74-4.68c0.69-0.67,1.29-1.42,1.76-2.27
		C1056.84,594.55,1056.95,590.71,1054.83,588.01z"/>
	<path class="st10" d="M790.95,691.65c-0.79-3.25-4.16-4.97-7.31-5.11c-4.12-0.73-8.14,0.77-12.18,1.35
		c-5.53,1.13-10.66,3.84-15.58,6.53c-2.93,1.81-5.7,3.88-8.52,5.85c-1.21,0.93-2.46,1.92-3.56,3.04c-1.55,1.2-3.02,2.57-3.67,4.43
		c-0.51,2.27,0.43,4.5,2.07,6.01c0.72,1,1.67,1.85,2.77,2.46c1.9,1.43,4.15,2.37,6.57,2.24c8.1-0.68,15.31-5.12,21.63-9.97
		c1.72-1.34,3.52-2.63,5.11-4.14c1.73-1.08,3.46-2.16,5.2-3.22C787.34,698.96,792.18,697.1,790.95,691.65z"/>
	<path class="st10" d="M432.42,491.36c-0.36,0.32-0.71,0.64-1.06,0.97c-0.53,0.51-1.09,1.01-1.67,1.51c0.13-0.65,0.24-1.3,0.31-1.95
		c0.17-3.91-2.89-8.04-7.03-7.87c-1.09,0.05-2.13,0.31-3.15,0.66c-0.62,0.05-0.8,0.23-1.1,0.4c-0.19,0.07-0.38,0.15-0.57,0.23
		c-0.03,0.01-0.06,0.02-0.09,0.02c-0.49,0.15-0.93,0.36-1.37,0.59c-1.36,0.63-2.64,1.45-3.59,2.62c-1.36,1.62-2.15,3.62-3.06,5.51
		c-0.44,1.04-0.91,2.15-1.24,3.27c-2.29,5.13-3.59,10.87,2.32,13.23c4.12,0.7,7.23-1.69,9.61-4.88c0.88-0.3,1.73-0.67,2.51-1.14
		c2.74-1.99,4.64-4.96,5.74-8.19C430.24,494.71,431.38,493.01,432.42,491.36z"/>
	<path class="st10" d="M1359.04,696.3c-1.66,0.09-3.49,0.31-5.38,0.59c-0.1-1.26-0.61-2.49-1.59-3.42c-2.05-1.85-5.06-2.14-7.66-2.8
		c-4.01-0.68-8.06-1.2-12.13-1.28c-2.33,0.05-4.96-0.36-7.18,0.4c-0.87-0.03-1.74-0.06-2.61-0.07c-1.71-0.08-3.55,0.04-4.83,1.31
		c-0.33,0.33-0.6,0.72-0.81,1.14c-0.42,0.06-0.83,0.12-1.25,0.18c0.37,0.05,0.75,0.09,1.12,0.13c-0.43,1.07-0.46,2.31,0.03,3.35
		c0.33,0.71,0.78,1.29,1.31,1.77c0.2,0.42,0.44,0.82,0.72,1.19c2.18,2.78,5.82,3.64,8.99,4.79c1.26,0.56,2.55,0.9,3.86,1.1
		c1.53,0.72,3.09,1.39,4.62,2.1c3.95,1.8,9.86,4.4,12.75-0.36c0.57-1.13,0.83-2.38,0.84-3.65c0.34-0.13,0.68-0.27,1.01-0.47
		c1.49-0.82,2.43-2.31,2.72-3.9C1355.36,697.62,1357.17,696.89,1359.04,696.3z"/>
	<path class="st10" d="M1278.07,883.64c0.05-1.29-0.25-2.57-0.4-3.85c-0.33-1.39-0.64-2.79-0.94-4.19
		c-0.1-6.02-0.95-11.96-2.38-17.81c-0.58-3.86-2.23-8.14-6.93-7.47c-0.38,0.02-0.74,0.11-1.08,0.22c-0.23-0.15-0.47-0.27-0.72-0.38
		c-0.1-0.23-0.2-0.47-0.31-0.71c-1.64-2.87-6.22-3.33-7.96-0.33c-1.13,2.3-0.33,5.44-0.43,7.97c0.41,4.98,1.1,9.93,1.89,14.86
		c-0.07,2.22-0.09,4.43-0.01,6.65c0.27,3.17,0.1,6.74,2.42,9.21c2.28,2.7,5.78,2.71,8.12,0.73c2.12,1.4,5.13,1.26,7.04-0.65
		c1.05-1.03,1.58-2.47,1.63-3.92C1278.04,883.86,1278.05,883.76,1278.07,883.64z"/>
</g>
</svg>
