<svg width="980" height="735" viewBox="0 0 980 735" fill="none" xmlns="http://www.w3.org/2000/svg">
<path d="M814.252 408.831C813.584 403.669 812.666 398.371 811.924 392.609C811.476 389.158 811.113 385.809 811.368 382.331C811.589 379.316 811.997 376.33 811.924 373.299C811.918 373.044 811.918 372.851 811.918 372.704C811.873 372.551 811.822 372.33 811.748 372.007C811.606 371.355 811.47 370.704 811.317 370.052C810.926 368.375 810.309 366.771 809.918 365.094C809.51 363.349 809.312 361.559 809.074 359.785C808.983 359.117 808.943 358.771 808.932 358.612C808.904 358.493 808.87 358.329 808.819 358.097C808.677 357.428 808.518 356.799 808.36 356.136C807.821 353.898 807.402 351.654 807.045 349.399C806.864 348.912 806.677 348.425 806.501 347.932C806.422 347.722 806.263 347.342 806.172 347.189C805.782 346.555 805.419 345.886 805.039 345.246C803.674 342.934 802.376 340.458 801.73 337.835C800.824 334.163 801.05 330.412 800.801 326.684C800.699 325.177 800.54 323.675 800.416 322.174C800.359 321.511 800.308 320.853 800.268 320.191C800.251 319.862 800.172 318.292 800.263 318.87C799.521 312.587 797.373 306.439 796.336 300.201C796.025 298.336 795.877 296.399 795.486 294.551C795.175 293.095 794.597 291.684 794.2 290.24C793.384 287.265 792.829 284.228 792.257 281.197C791.01 274.579 789.962 267.961 791.135 261.275C788.693 251.149 786.761 240.905 785.282 230.598C784.981 228.513 784.704 226.422 784.426 224.332C784.392 224.088 784.228 223.091 784.194 222.841C784.109 222.371 784.024 221.901 783.927 221.431C783.434 219.028 782.755 216.665 782.228 214.274C781.57 211.317 780.823 208.342 780.347 205.35C780.046 203.469 779.825 201.577 779.61 199.684C779.542 199.106 779.485 198.534 779.417 197.956C779.383 197.684 779.332 197.321 779.315 197.225C778.222 190.828 777.445 184.391 776.471 177.972C775.598 172.255 773.7 166.957 771.558 161.597C771.309 160.996 771.292 160.945 771.513 161.444C771.122 160.526 770.731 159.602 770.352 158.679C770.125 158.118 769.904 157.557 769.694 156.99C769.258 155.806 768.873 154.605 768.521 153.392C767.751 150.724 767.15 148.009 766.68 145.273C766.544 144.479 766.425 143.686 766.306 142.893C766.187 142.06 765.581 138.519 765.915 140.179C766.204 141.59 765.586 138.485 765.609 138.643C765.496 137.992 765.388 137.346 765.286 136.694C764.776 133.493 764.323 130.28 764.017 127.051C763.983 126.705 763.96 126.365 763.932 126.019C763.586 125.985 763.241 125.951 762.889 125.923C759.756 126.201 756.504 125.81 753.268 125.249C752.197 125.175 751.121 125.101 750.05 125.011C747.353 124.79 744.65 124.541 741.959 124.24C740.055 124.025 738.157 123.77 736.253 123.515C735.692 123.441 735.131 123.356 734.57 123.283C734.463 123.283 733.528 123.192 733.465 123.186C727.216 122.603 720.972 121.69 714.762 120.79C704.676 119.333 694.658 117.339 684.663 115.367C682.17 114.874 679.688 114.33 677.184 113.922C677.195 113.922 676.77 113.866 676.459 113.82C676.045 113.775 675.212 113.679 675.099 113.662C674.045 113.548 672.985 113.446 671.926 113.361C666.962 112.948 661.982 112.778 657.001 112.585C646.553 112.171 636.247 111.078 625.906 109.525C615.962 108.03 606.228 105.735 596.374 103.803C586.362 101.836 576.237 100.556 566.163 98.9581C566.191 98.9638 565.103 98.7768 564.497 98.6692C565.109 98.7825 561.488 98.2385 561.913 98.2952C560.769 98.1365 559.624 97.9552 558.485 97.7513C556.292 97.3603 554.111 96.8843 551.952 96.3177C551.765 96.2667 551.584 96.2157 551.397 96.1647C550.479 97.366 549.011 98.1932 546.983 98.2159C546.858 98.2159 546.734 98.2159 546.609 98.2102C546.541 98.2952 546.473 98.3858 546.405 98.4708C545.901 98.9865 545.391 99.5077 544.887 100.029C545.379 99.4284 545.861 98.8165 546.343 98.2102C534.977 98.0855 526.194 91.1389 516.698 85.8355C510.72 82.4981 504.453 79.7218 498.011 77.4157C497.886 77.5856 497.767 77.7556 497.643 77.9256C497.541 77.648 497.399 77.3873 497.235 77.1437C493.574 75.8575 489.858 74.7186 486.107 73.7214C481.375 72.4635 476.582 71.6702 471.675 71.7269C466.932 71.7836 462.462 73.1661 457.708 74.441C457.057 74.6166 456.399 74.7866 455.742 74.9452C454.96 75.8348 454.178 76.7244 453.396 77.6083C450.524 80.9513 447.719 84.3509 444.954 87.7846C444.597 87.1897 444.076 86.6854 443.469 86.3284C443.877 85.7675 444.291 85.2122 444.699 84.6513L444.71 84.6399C444.999 84.1866 445.152 83.6993 445.18 83.1724C445.707 80.5717 443.084 78.3676 440.642 78.7472C440.982 78.2769 441.322 77.8066 441.662 77.3307C436.455 77.8406 431.208 77.9709 426.097 77.7046C422.238 77.5063 418.397 77.1437 414.561 76.6961C412.708 79.2175 410.855 81.7445 409.008 84.2716C409.416 83.1781 409.291 81.9202 408.719 80.889C408.09 79.7897 406.895 79.0645 405.637 78.9568C406.379 77.9199 407.121 76.8887 407.864 75.8575C405.642 75.5629 403.591 75.2682 400.736 74.8319C397.982 74.4126 395.234 73.9593 392.474 73.5627C388.066 72.9281 382.984 72.3162 377.748 71.7722C372.184 71.1886 366.609 70.7013 361.028 70.2707C339.196 68.5992 317.325 67.6247 295.505 65.8002C284.348 64.8653 273.073 64.0777 262.018 62.2929C261.724 62.2475 261.429 62.1909 261.14 62.1456C260.268 63.1824 259.412 64.225 258.568 65.2789C257.61 66.5254 256.658 67.7776 255.706 69.0299C257.242 66.6898 258.783 64.3497 260.307 62.0039C258.024 61.6016 255.752 61.154 253.474 60.7517C252.76 60.627 252.052 60.5081 251.338 60.3891C251.366 60.3947 250.703 60.3154 250.409 60.2701C250.057 60.2757 249.355 60.2644 249.173 60.2587C246.352 60.1738 243.7 59.8225 241.213 59.0122C234.181 69.2565 227.404 79.6764 220.752 90.1757C221.228 90.4987 221.693 90.8556 222.141 91.2579C227.744 96.2951 228.589 103.893 227.495 110.897C227.353 111.82 227.161 112.727 227.002 113.645C226.911 114.166 227.036 114.699 227.059 114.461C227.047 114.228 227.042 113.99 227.019 113.764C227.064 114.155 227.07 114.364 227.059 114.461C227.098 115.503 227.002 116.591 226.974 117.611C226.883 120.931 226.605 124.263 226.056 127.538C226.039 127.64 225.937 128.144 225.846 128.609C225.852 128.677 225.835 128.852 225.818 129.056C226.101 129.725 226.379 130.394 226.662 131.062C226.719 131.209 226.962 131.753 227.03 131.923C227.234 132.32 227.444 132.711 227.665 133.096C228.305 134.224 229.025 135.306 229.773 136.36C229.858 136.479 230.572 137.431 230.821 137.765C231.076 138.082 231.456 138.564 231.524 138.649C232.674 140.105 233.677 141.505 234.64 143.074C236.011 145.318 237.36 147.579 238.736 149.823C241.762 154.758 245.037 159.432 248.567 164.01C255.91 173.518 263.271 183.02 270.251 192.8C273.713 197.65 276.926 202.67 280.076 207.724C281.714 210.353 283.34 212.988 284.983 215.612C285.72 216.784 286.451 217.94 287.267 219.057C287.284 219.085 287.714 219.634 287.873 219.844C288.258 220.337 288.643 220.824 289.029 221.312C293.063 226.417 297.369 231.386 301.058 236.746C304.168 241.268 306.917 246.05 309.665 250.792C312.492 255.671 315.285 260.566 318.368 265.292C319.178 266.533 320.005 267.768 320.861 268.98C321.019 269.207 323.178 272.182 322.255 270.947C324.283 273.649 326.238 276.295 327.955 279.208C329.434 281.706 330.793 284.268 332.114 286.851C332.743 288.075 333.326 289.327 333.978 290.54C334.244 291.039 334.488 291.463 334.765 291.905C334.85 292.024 335.241 292.591 335.332 292.693C339.247 297.345 343.14 301.855 346.613 306.864C346.766 307.091 348.511 309.119 347.208 307.748C347.622 308.184 348.035 308.632 348.438 309.074C348.528 309.17 348.942 309.555 349.084 309.691C349.843 310.303 350.687 310.887 351.395 311.448C353.605 313.216 355.73 315.278 357.056 317.822C359.622 322.752 359.651 328.423 355.492 332.503C354.251 333.721 352.795 334.594 351.327 335.461C348.613 339.336 345.174 343.665 341.083 346.459C340.913 348.102 340.159 349.665 339.009 351.014C338.341 351.79 338.261 351.881 338.783 351.297C338.261 352.136 337.638 352.884 336.913 353.535C336.777 353.671 335.899 354.567 335.542 354.878C335.275 355.388 334.573 356.572 334.459 356.782C334.102 357.417 333.757 358.057 333.354 358.663C330.89 362.437 327.218 365.791 324.022 368.959C316.872 376.041 309.274 382.614 301.352 388.796C302.548 387.861 300.452 389.623 300.219 389.844C299.432 390.603 298.752 391.442 298.049 392.286C296.525 394.116 294.87 395.742 293.131 397.363C289.635 400.615 285.844 403.544 282.36 406.802C278.654 410.264 275.101 414.202 270.852 417.024C268.619 418.503 266.914 419.205 265.361 420.316C263.033 421.97 260.659 422.679 257.95 422.333C257.633 423.121 257.185 423.869 256.613 424.537C249.593 432.747 241.553 439.938 233.456 447.054C233.155 447.321 232.855 447.581 232.555 447.847C231.875 448.624 231.189 449.394 230.509 450.171C230.521 449.978 230.543 449.791 230.56 449.598C224.384 455.015 218.214 460.494 212.774 466.653C209.556 470.297 206.57 474.138 203.227 477.674C199.844 481.249 196.031 484.45 192.348 487.708C186.489 492.899 180.33 497.533 174.551 502.639C174.205 503.364 173.865 504.1 173.537 504.831C172.687 505.562 172.12 506.616 172.166 507.772C172.041 508.033 171.916 508.293 171.786 508.548C171.497 509.002 171.344 509.489 171.316 510.016C171.265 510.254 171.253 510.503 171.259 510.747C170.93 511.228 170.602 511.71 170.267 512.186C169.911 512.702 169.548 513.211 169.191 513.721C169.888 514.135 170.511 514.639 171.032 515.251C171.134 515.376 171.236 515.495 171.333 515.62C173.208 515.75 175.089 515.886 176.965 516.016C177.084 516.719 177.276 517.41 177.514 518.09C177.537 519.11 177.639 520.13 177.786 521.133C177.99 522.719 178.041 524.34 178.517 525.875C179.067 527.394 179.628 528.935 180.313 530.419C179.158 530.34 178.002 530.255 176.846 530.176C177.027 531.881 177.084 533.609 177.095 535.326C177.112 537.451 177.016 539.564 176.88 541.684C176.97 542.352 177.061 543.015 177.152 543.684C177.225 544.313 177.282 544.942 177.333 545.57C179.566 552.965 180.908 560.648 182.926 568.122C189.81 569.311 196.348 571.844 202.893 574.513C210.735 577.714 218.667 580.819 226.594 583.817C233.909 586.582 241.53 587.907 249.162 589.381C249.434 588.854 249.695 588.321 249.972 587.794C251.27 586.072 252.562 584.349 253.865 582.632C255.933 579.901 258.007 577.176 260.075 574.445C256.874 579.516 253.65 584.576 250.409 589.624C251.474 589.834 252.539 590.044 253.599 590.27C263.118 592.259 272.591 594.457 282.059 596.684C290.275 598.616 298.145 601.364 305.97 604.509C313.597 607.575 321.263 610.272 329.054 612.901C336.845 615.535 344.556 618.629 352.478 620.833C360.75 623.128 369.023 625.417 377.318 627.621C385.335 629.752 393.375 631.774 401.45 633.684C402.418 633.916 403.387 634.154 404.351 634.403C405.931 631.82 407.512 629.242 409.093 626.658C409.745 625.632 410.396 624.612 411.048 623.587C408.963 627.23 406.878 630.879 404.798 634.522C410.691 636.064 416.504 637.905 422.397 639.435C423.74 637.333 425.083 635.225 426.431 633.123C426.171 633.599 425.91 634.08 425.644 634.556C424.731 636.222 423.831 637.894 422.924 639.571C423.791 639.792 424.652 640.007 425.525 640.217C433.219 642.03 440.999 642.88 448.761 644.257C456.586 645.645 464.088 648.421 471.522 651.141C480.35 654.371 489.376 656.977 498.419 659.544C500.776 655.776 503.133 652.008 505.49 648.246C503.496 652.116 501.507 655.986 499.518 659.855C503.178 660.898 506.844 661.935 510.499 663.011C510.556 662.915 510.612 662.819 510.669 662.728C510.635 662.83 510.601 662.932 510.578 663.034C513.309 663.839 516.035 664.666 518.749 665.527C521.429 666.383 524.12 667.187 526.823 667.958C528.902 664.53 530.982 661.102 533.061 657.68C533.18 657.838 533.316 657.991 533.458 658.133C531.611 661.51 529.775 664.893 527.934 668.275C540.15 671.732 552.513 674.559 564.724 678.089C572.786 680.423 580.674 683.256 588.317 686.735C591.796 688.316 595.02 690.265 598.352 692.118C598.573 692.243 598.799 692.362 599.026 692.487C600.573 692.028 602.307 691.994 604.165 692.566C608.534 693.909 612.919 694.526 617.135 696.373C618.313 696.889 619.265 697.745 620.008 698.793C620.585 698.969 621.163 699.144 621.747 699.314C623.979 699.609 626.195 699.988 628.354 700.566C630.286 701.088 632.178 701.734 634.059 702.408C638.683 703.269 643.312 703.938 647.766 705.337C649.318 702.623 650.871 699.909 652.406 697.189C653.704 697.116 654.967 696.39 655.625 695.246C656.395 693.892 657.166 692.543 657.936 691.189C658.65 691.206 659.37 691.036 659.987 690.668C660.577 690.316 661.053 689.846 661.398 689.257C664.005 684.866 666.605 680.469 669.206 676.072C672.039 671.273 674.872 666.474 677.705 661.68C687.882 644.687 697.639 627.417 708.45 610.815C711.101 606.821 713.827 602.883 716.597 598.973C718.881 593.999 721.221 589.052 723.691 584.168C731.374 568.977 740.208 554.523 749.087 540.018C757.699 525.954 765.394 511.534 772.924 496.876C776.437 490.037 780.414 483.453 784.222 476.779C788.279 469.656 791.594 462.415 794.965 454.97C796.093 452.477 798.931 451.406 801.538 451.587C801.566 451.542 801.589 451.502 801.617 451.457C802.116 450.522 802.246 449.451 802.014 448.42C801.9 447.989 801.702 447.576 801.436 447.202C802.393 445.349 803.322 443.479 804.223 441.592C806.852 436.022 809.312 430.351 811.363 424.543C812.184 421.999 812.524 419.336 812.734 416.673C813.357 415.596 813.98 414.52 814.598 413.437C814.411 411.93 814.298 410.383 814.252 408.831ZM197.533 518.266C196.796 518.118 196.059 518.062 195.317 518.062C194.773 517.727 194.201 517.438 193.595 517.206C193.94 517.229 194.286 517.257 194.632 517.28C195.969 517.376 197.238 517.778 198.32 518.43C198.065 518.368 197.799 518.311 197.533 518.266ZM204.649 477.385C204.632 477.356 204.61 477.334 204.593 477.305C206.468 474.999 208.389 472.733 210.389 470.517C211.93 468.846 213.517 467.225 215.126 465.622C212.015 469.719 208.463 473.6 204.649 477.385ZM241.349 578.983C240.629 579.901 239.904 580.819 239.184 581.743C239.343 581.527 239.507 581.301 239.666 581.086C240.227 580.321 240.799 579.55 241.377 578.774C241.371 578.847 241.36 578.915 241.349 578.983ZM345.01 241.398C344.97 241.381 344.93 241.358 344.891 241.341C345.707 240.146 346.528 238.956 347.344 237.76C346.573 238.978 345.792 240.185 345.01 241.398ZM350.494 125.759C344.058 135.295 337.632 144.836 331.213 154.384C325.53 162.571 319.841 170.764 314.158 178.952C318.504 172.379 322.878 165.824 327.314 159.308C340.295 140.338 353.265 121.362 366.246 102.392C367.821 100.397 369.408 98.3915 371.034 96.3687C371.714 95.5301 372.4 94.6916 373.079 93.8473C365.487 104.443 357.923 115.05 350.494 125.759ZM491.529 426.033C492.413 424.577 493.297 423.121 494.186 421.67C494.294 421.687 494.402 421.698 494.509 421.704C493.512 423.143 492.521 424.588 491.529 426.033ZM507.711 598.781C507.139 599.098 506.635 599.563 506.272 600.197C506.272 600.203 506.267 600.203 506.267 600.209C505.06 602.345 503.853 604.481 502.646 606.617C502.414 606.617 502.198 606.657 501.989 606.725C505.014 602.095 508.034 597.466 511.06 592.837C509.944 594.814 508.828 596.798 507.711 598.781ZM513.882 422.061C513.695 422.327 513.508 422.594 513.326 422.86C514.726 420.424 516.108 417.976 517.48 415.522C518.324 414.378 519.168 413.233 520.018 412.094C517.978 415.42 515.933 418.741 513.882 422.061ZM585.422 392.773C585.093 392.682 584.747 392.637 584.402 392.631C584.736 391.872 585.076 391.113 585.422 390.342C585.79 390.722 586.226 391.034 586.708 391.255C586.277 391.765 585.847 392.269 585.422 392.773ZM672.985 342.294C672.951 342.226 672.917 342.158 672.878 342.096C673.818 340.826 674.77 339.557 675.739 338.282C674.821 339.62 673.903 340.957 672.985 342.294ZM730.173 158.39C729.573 158.905 728.972 159.421 728.371 159.937C730.615 157.426 732.938 155.041 735.335 152.871C733.601 154.701 731.884 156.543 730.173 158.39Z" fill="#F3BA81"/>
<path d="M780.793 371.458C780.289 370.965 779.688 370.659 779.048 370.449C779.048 370.444 779.048 370.444 779.048 370.438C779.025 370.432 779.003 370.427 778.98 370.427C777.756 370.041 776.379 369.99 775.161 369.679C774.413 369.531 773.665 369.39 772.917 369.242C771.982 368.942 771.036 368.693 770.192 368.387C766.322 367.214 762.384 366.285 758.48 365.231C752.576 363.752 746.74 362.001 740.819 360.59C737.289 359.752 733.668 359.315 730.11 358.613C713.491 354.998 696.878 351.27 680.118 348.403C670.344 347.082 660.485 346.431 650.689 345.281C648.348 344.941 646.008 344.572 643.674 344.181C637.43 343.263 635.855 343.292 631.073 342.346C631.05 342.329 631.027 342.312 631.005 342.295C628.812 340.918 626.12 340.64 623.616 340.209C622.789 340.085 621.961 339.983 621.134 339.892C617.763 338.629 613.326 338.362 610.374 338.017C610.148 337.966 609.915 337.926 609.689 337.875C607.751 337.178 605.779 336.572 603.762 336.101C596.759 334.288 589.625 333.042 582.588 331.387C573.754 329.325 564.921 327.279 555.946 325.925C548.098 324.877 540.245 323.885 532.386 322.934C523.972 321.392 515.558 319.857 507.121 318.452C507.036 318.435 506.946 318.412 506.861 318.395C495.302 316.072 483.686 314.032 472.076 311.97C470.433 311.703 468.79 311.494 467.136 311.312C465.237 310.797 463.339 310.287 461.436 309.788C458.382 309.176 455.327 308.542 452.273 307.907C448.857 306.513 445.236 305.663 441.638 304.853C436.199 303.714 430.839 302.218 425.382 301.17C420.798 300.365 416.214 299.555 411.631 298.762C409.336 298.394 407.035 297.94 404.707 297.918C403.709 297.963 402.644 297.776 401.738 298.275C399.862 298.932 398.922 301.215 399.494 303.068C398.638 302.723 397.681 302.626 396.746 302.904C396.706 302.915 396.672 302.932 396.632 302.944C396.508 302.847 396.378 302.745 396.253 302.649C396.043 301.085 394.972 299.867 393.618 299.38C393.675 299.181 393.714 298.983 393.726 298.768C393.901 297.821 393.652 296.864 393.142 296.059C393.697 295.419 394.236 294.767 394.757 294.127C396.87 291.385 399.148 288.778 401.437 286.183C401.551 286.064 401.664 285.951 401.777 285.838C406.571 281.027 411.143 276.001 415.744 271.009C419.914 268.397 424.039 265.717 428.074 262.879C439.961 253.926 452.143 245.331 463.594 235.823C464.042 235.443 464.484 235.058 464.926 234.673C471.045 231.443 477.284 228.44 483.573 225.579C495.426 220.287 502.566 216.802 514.867 212.207C520.267 210.456 525.712 208.813 531.185 207.289C544.852 204.201 558.524 201.158 572.196 198.104C582.735 196.081 593.308 194.262 603.875 192.404C608.453 191.565 612.992 190.528 617.559 189.622C620.063 189.44 622.568 189.265 625.072 189.118C628.364 188.846 631.673 188.744 634.971 188.591C636.427 188.517 637.878 188.387 639.317 188.171C640.541 188.041 641.832 187.656 642.524 186.573C642.671 186.398 642.801 186.211 642.903 186.012C643.946 185.922 645.153 185.826 646.813 185.701C651.493 185.327 656.185 184.97 660.87 184.664C673.308 184.477 685.75 184.772 698.182 184.437C698.527 184.46 698.867 184.5 699.207 184.551C699.451 184.585 699.695 184.619 699.938 184.653C703.423 185.049 706.93 185.248 710.437 185.242C713.078 185.344 715.707 185.678 718.353 185.355C720.92 185.163 723.447 184.67 725.974 184.222C726.019 184.216 726.064 184.205 726.11 184.199C727.385 184.114 728.631 183.82 729.725 183.128C732.224 181.536 731.589 182.794 735.142 180.125C737.867 177.683 740.128 174.765 742.57 172.046C744.474 169.943 746.882 168.113 747.59 165.229C747.635 165.133 747.692 165.037 747.749 164.946C748.916 163.087 749.641 161.008 750.412 158.957C750.525 158.73 750.712 158.351 750.803 158.186C751.471 157.195 751.885 156.056 752.066 154.877C752.214 153.959 752.281 153.03 752.599 152.152C752.752 151.444 753.131 150.792 753.216 150.072C753.313 149.115 753.273 148.163 753.228 147.205C753.216 146.724 753.222 146.214 752.905 145.823C752.825 145.727 752.825 145.613 752.899 145.477C752.848 145.528 752.803 145.579 752.757 145.636C752.718 145.761 752.82 145.885 752.837 146.01C752.91 146.231 752.854 146.492 752.831 146.713C752.519 147.868 752.361 149.104 751.777 150.152C750.712 151.512 750.111 153.127 749.403 154.679C749.035 155.523 748.281 156.084 747.743 156.809C746.836 157.971 746.105 159.263 745.261 160.475C745.091 160.827 743.437 162.464 742.541 164.153C742.179 164.532 741.816 164.906 741.42 165.246C741.187 165.416 740.955 165.586 740.711 165.739C739.68 166.397 738.734 167.184 737.81 167.989C735.64 169.847 733.532 171.774 731.379 173.655C730.745 174.142 730.932 174.187 729.696 174.777C728.501 175.196 727.288 175.587 726.172 176.188C726.064 176.25 725.957 176.306 725.844 176.363C723.815 176.544 721.821 177.02 719.803 177.326C719.747 177.332 719.69 177.343 719.628 177.349C716.868 177.683 714.086 177.672 711.327 177.372C708.063 177.36 704.805 177.27 701.553 176.935C700.006 176.884 700.862 176.754 697.819 176.55C693.654 176.675 689.496 176.765 685.325 176.726C682.198 176.743 679.07 176.726 675.942 176.714C675.897 176.561 675.84 176.414 675.784 176.267C675.387 175.105 674.622 174.102 673.568 173.445C672.792 173.111 671.993 172.867 671.177 172.68C670.69 172.403 670.129 172.199 669.472 172.119C667.97 171.842 659.97 171.201 655.08 170.839C650.286 170.68 645.493 170.538 640.699 170.374C639.056 170.34 637.419 170.266 635.781 170.176C635.299 170.147 634.812 170.113 634.331 170.085C633.974 170.062 633.617 170.04 633.26 170.017C631.73 169.909 630.206 169.79 628.676 169.655C628.177 169.145 627.582 168.856 626.948 168.669C626.948 168.663 626.953 168.657 626.953 168.652C626.755 168.595 626.557 168.527 626.358 168.459C621.639 166.193 616.312 165.609 611.253 164.447C599.32 161.881 587.138 160.787 575.063 159.065C567.561 158.152 560.065 157.11 552.541 156.43C545.73 155.404 538.914 154.447 532.08 153.591C526.607 152.73 521.088 152.339 515.569 151.976C514.487 151.778 513.405 151.568 512.334 151.336C511.507 151.172 510.68 151.019 509.852 150.854C506.096 149.948 502.294 149.194 498.452 148.786C494.559 148.135 490.656 147.54 486.74 147.007C478.734 145.817 470.717 144.673 462.693 143.585C456.228 143.092 449.763 142.599 443.293 142.106C441.423 141.976 439.553 141.783 437.678 141.636C435.496 141.279 433.315 140.933 431.133 140.582C423.665 139.471 416.22 138.202 408.747 137.171C403.488 136.774 398.236 136.276 392.972 135.941C390.377 135.805 387.782 135.664 385.187 135.528C384.008 135.329 382.83 135.125 381.646 134.938C377.815 134.338 373.991 133.664 370.166 132.995C365.82 131.816 361.457 130.683 357.1 129.556C346.896 127.555 336.64 125.884 326.379 124.229C313.602 122.184 295.312 118.694 286.212 117.73C283.549 117.453 279.305 116.575 275.894 116.926C274.987 115.271 273.973 113.679 272.806 112.178C272.132 111.186 271.418 110.206 270.364 109.583C267.593 107.894 263.859 110.404 264.471 113.64C264.482 113.787 264.505 113.929 264.528 114.07C264.142 113.883 263.74 113.747 263.298 113.725C263.281 113.719 263.258 113.719 263.241 113.719C261.842 112.195 260.459 110.659 258.714 109.515C257.139 108.54 255.315 108.03 253.552 107.492C252.538 107.265 251.518 106.761 250.476 107.016C250.141 107.05 249.841 107.135 249.552 107.243C248.952 106.806 248.175 106.693 247.444 106.625C244.634 106.823 242.685 108.84 241.875 111.322C241.54 111.43 241.229 111.583 240.934 111.764C240.804 111.594 240.668 111.43 240.537 111.265C239.325 108.716 237.687 106.404 234.718 106.223C233.778 106.2 232.888 106.444 232.101 106.88C230.627 106.5 229.024 106.75 227.879 107.894C227.188 108.67 226.69 109.622 226.724 110.688C226.814 111.452 226.848 112.223 226.905 112.994C226.995 115.266 227.602 117.436 228.44 119.527C227.381 120.405 226.757 121.776 227.052 123.249C226.333 123.935 225.868 124.892 225.891 126.026C225.851 127.119 226.44 128.031 226.927 128.966C228.049 131.289 229.67 133.307 231.205 135.363C231.789 136.168 232.424 136.961 232.815 137.885C233.325 138.763 234.191 139.432 235.172 139.698C235.801 139.868 236.43 139.874 237.03 139.743C237.869 140.74 238.719 141.726 239.552 142.724C239.574 142.752 239.591 142.775 239.614 142.803C241.087 145.177 242.685 147.472 244.441 149.642C257.388 168.657 270.488 187.565 283.679 206.41C286.812 211 290.116 215.459 293.436 219.913C293.844 221.103 294.513 222.145 295.277 223.125C294.643 224.276 294.541 225.737 295.17 226.95C296.241 229.386 298.366 231.177 300.009 233.222C299.805 232.956 299.595 232.69 299.391 232.423C301.703 235.392 304.003 238.373 306.185 241.438C311.262 248.521 316.61 255.399 321.874 262.34C323.449 264.397 324.962 266.505 326.702 268.431C327.79 269.701 328.883 270.964 329.971 272.228C331.002 273.729 332.028 275.236 333.065 276.732C333.263 276.999 333.467 277.259 333.665 277.525C334.657 279.486 335.699 281.418 336.759 283.339C340.771 290.229 344.601 297.238 349.1 303.827C351.111 306.734 353.236 309.573 355.542 312.253C356.437 313.188 357.27 314.242 358.262 315.086C358.392 315.874 358.772 316.678 359.486 317.477C359.979 317.97 360.528 318.321 361.112 318.571C361.106 318.65 361.1 318.724 361.1 318.803C361.055 320.916 362.931 322.798 365.05 322.752C365.214 322.758 365.378 322.752 365.543 322.735C364.681 323.5 363.82 324.259 362.942 325.007C355.191 332.894 347.417 340.759 339.807 348.788C339.745 348.85 339.688 348.913 339.626 348.975C329.682 358.194 319.812 367.497 310.185 377.039C307.018 379.872 303.85 382.716 300.7 385.566C291.192 395.057 281.566 404.434 272.171 414.033C269.174 417.161 266.669 420.702 264.057 424.147C263.179 425.325 262.307 426.515 261.434 427.694C261.145 428.147 260.992 428.634 260.964 429.161C260.833 429.779 260.913 430.448 261.145 431.065C252.827 438.697 244.526 446.347 236.248 454.024C228.831 460.653 221.913 467.793 215.006 474.949C210.671 478.598 206.235 482.139 202.093 486.009C200.563 487.46 199.226 489.08 197.945 490.746C197.198 491.301 196.455 491.868 195.719 492.446C195.05 492.559 194.398 492.723 193.77 492.978C192.767 493.341 191.843 493.845 190.942 494.395C189.662 494.984 188.438 495.681 187.293 496.503C185.44 497.67 183.52 499.109 182.794 501.24C182.749 501.308 182.692 501.364 182.647 501.432C181.349 503.336 181.848 506.124 183.639 507.569C184.466 508.311 185.537 508.889 186.749 509.308C187.622 509.778 188.528 510.181 189.463 510.481C189.475 510.487 189.48 510.487 189.492 510.492C188.931 510.679 188.421 510.991 188.001 511.422C187.565 511.348 187.112 511.354 186.67 511.444C186.647 511.28 186.613 511.11 186.574 510.946C186.081 509.416 184.726 508.062 183.072 507.948C181.089 507.546 179.225 509.07 178.703 510.934C178.652 511.144 178.618 511.359 178.59 511.569C176.635 511.892 174.964 513.688 175.287 515.881C175.366 516.583 175.485 517.28 175.61 517.977C175.621 518.317 175.621 518.663 175.632 519.003C175.893 524.374 175.899 529.825 177.242 535.066C177.542 536.188 177.678 537.435 178.182 538.494C178.148 539.554 178.114 540.613 178.069 541.678C177.972 546.325 177.61 551.005 178.244 555.628C178.505 557.906 179.083 560.133 179.786 562.309C180.233 563.98 180.726 565.697 181.706 567.131C181.786 567.493 181.876 567.85 182.041 568.184C182.5 569.386 183.531 570.309 184.749 570.706C185.231 570.842 185.746 570.865 186.251 570.802C186.358 571.629 186.466 572.462 186.664 573.261C187.435 573.04 188.217 572.853 189.118 572.865C190.987 572.887 192.784 573.562 194.24 574.678C194.495 574.151 194.631 573.567 194.631 572.984C194.665 572.253 194.71 571.522 194.75 570.791C195.945 571.136 197.243 570.831 198.234 570.094C198.348 570.196 198.461 570.298 198.597 570.377C199.764 571.425 201.651 571.465 202.971 570.683C204.682 569.68 205.317 567.538 204.626 565.754C204.45 565.051 204.354 564.632 204.297 564.36C204.297 564.241 204.303 564.116 204.303 563.997C204.359 560.399 204.654 556.801 204.563 553.198C204.388 546.976 203.804 540.766 203.385 534.556C203.107 529.587 202.694 524.624 201.804 519.722C201.572 518.912 201.107 518.198 200.96 517.36C200.643 516.612 200.291 515.745 200.875 515.031C201.062 514.725 201.322 514.476 201.56 514.209C200.858 514.617 200.065 515.161 199.906 516C199.73 515.224 199.475 514.481 198.965 513.881C198.812 513.654 198.625 513.456 198.427 513.28C198.92 513.416 199.424 513.512 199.917 513.631C200.62 513.784 201.339 513.869 202.053 513.903C202.291 515.161 202.835 516.345 203.753 517.343C204.869 518.436 206.297 519.082 207.702 519.722C209.051 520.306 210.405 520.935 211.867 521.19C211.918 521.196 211.963 521.201 212.014 521.213C213.261 521.638 214.604 521.745 215.924 521.779C216.094 521.773 216.264 521.768 216.44 521.768C217.278 522.878 218.649 523.587 220.089 523.292C221.59 523.179 222.746 522.023 223.896 521.162C224.633 520.567 225.33 519.932 226.021 519.286C226.639 519.269 227.239 519.139 227.8 518.782C229.03 518.079 229.636 516.895 229.71 515.677C229.766 515.62 229.829 515.558 229.885 515.501C234.973 510.532 239.478 505.019 244.209 499.721C249.869 493.426 255.57 487.159 261.258 480.887C263.525 478.326 265.757 475.742 268.012 473.17C268.8 472.093 270.092 471.334 270.551 470.048C270.896 469.266 270.97 468.507 270.845 467.815C271.423 467.158 271.996 466.495 272.573 465.844C273.973 464.246 275.373 462.642 276.772 461.05C277.934 459.543 279.837 458.257 280.041 456.262C281.197 455.339 282.257 454.296 283.305 453.248C285.719 450.789 288.008 448.211 290.359 445.695C293.124 442.766 295.884 439.836 298.654 436.913C311.732 428.918 324.888 421.042 338.249 413.523C347.972 408.202 357.905 403.267 367.741 398.162C377.6 393.199 387.521 388.36 397.692 384.065C402.055 382.178 402.089 382.087 405.421 380.824C408.276 379.878 411.194 379.124 414.056 378.201C418.747 376.744 423.467 375.367 428.136 373.86C431.728 372.682 435.298 371.413 438.879 370.183C441.293 369.531 443.701 368.88 446.114 368.217C452.506 366.472 458.886 364.664 465.3 362.976C468.62 362.273 471.952 361.633 475.295 361.066C476.037 361.083 476.774 361.095 477.516 361.095C481.981 361.231 489.29 360.749 495.387 360.177C495.67 360.239 495.959 360.301 496.242 360.369C500.277 361.27 504.396 361.746 508.481 362.386C508.963 362.517 509.439 362.658 509.909 362.823C510.663 363.174 511.405 363.559 512.175 363.871C514.838 364.976 517.813 364.608 520.612 364.358C524.187 364.109 525.995 363.95 527.185 363.763C530.851 363.406 534.511 363.027 538.16 362.528C540.789 362.369 543.413 362.256 546.036 362.007C549.759 361.497 553.504 361.129 557.238 360.704C559.482 360.721 561.725 360.704 563.975 360.687C568.105 360.8 572.23 360.976 576.361 360.947C580.548 360.942 584.52 360.432 588.741 360.738C594.277 360.704 599.801 360.279 605.32 359.848C609.031 359.678 612.748 359.627 616.454 359.315C621.112 358.721 624.608 358.403 631.214 358.891C633.033 358.959 634.829 359.276 636.642 359.412C638.132 359.429 639.617 359.508 641.096 359.723C642.49 359.916 643.895 359.927 645.3 360.001C647.453 360.205 649.595 360.505 651.742 360.789C656.74 361.769 661.839 361.939 666.916 362.012C669.494 362.307 672.084 362.364 674.667 362.551C677.178 362.772 679.671 363.129 682.181 363.344C683.665 363.48 685.41 363.865 689.195 364.472C692.21 364.914 695.258 365.061 698.278 365.423C706.029 366.851 713.86 367.696 721.673 368.704C723.713 368.851 728.909 369.945 733.861 370.478C734.433 370.597 735 370.716 735.572 370.835C738.621 371.447 741.709 371.815 744.751 372.438C747.873 373.209 750.956 374.138 754.083 374.892C757.137 375.758 761.71 375.804 762.69 376.251C765.393 376.971 768.096 377.719 770.889 377.968C771.62 378.014 772.356 377.861 773.087 377.917C773.376 377.957 773.66 377.997 773.949 378.036C774.413 378.053 774.861 377.968 775.28 377.81C775.626 377.855 776.017 377.912 776.34 377.951C777.071 378.087 777.796 378.342 778.532 378.144C780.079 378.059 781.417 376.773 781.813 375.316C782.159 373.928 781.785 372.478 780.793 371.458ZM523.145 200.569C523.893 200.444 524.641 200.319 525.389 200.195C526.93 199.957 528.471 199.719 530.018 199.481C530.001 199.486 529.978 199.492 529.961 199.498C524.924 200.642 519.887 201.787 514.85 202.937C517.615 202.144 520.38 201.356 523.145 200.569ZM305.431 150.65C305.227 150.747 305.023 150.843 304.819 150.939C304.644 150.599 304.462 150.259 304.287 149.92C305.323 149.829 306.355 149.75 307.346 149.693C306.706 150.016 306.066 150.333 305.431 150.65ZM346.646 219.941C346.414 219.646 346.182 219.357 345.949 219.063C347.955 217.754 349.967 216.451 351.967 215.136C350.193 216.74 348.42 218.343 346.646 219.941ZM331.931 408.072C330.192 409.075 328.447 410.078 326.707 411.081C326.753 411.03 326.792 410.979 326.838 410.928C328.486 409.772 330.169 408.673 331.875 407.608C334.017 406.588 336.158 405.573 338.3 404.553C336.164 405.692 334.034 406.86 331.931 408.072ZM387.567 308.19C387.476 308.502 387.368 308.848 387.249 309.256C387.068 309.822 386.858 310.406 386.632 311.006C386.553 311.08 386.479 311.159 386.4 311.233C386.094 310.564 385.595 309.981 384.989 309.562C385.969 308.774 386.892 307.918 387.72 306.983C387.663 307.386 387.612 307.788 387.567 308.19ZM395.403 341.388C395.839 340.289 396.27 339.19 396.689 338.085C396.944 337.439 397.176 336.781 397.392 336.124C397.868 336.396 398.395 336.566 398.939 336.628C399.08 336.929 399.228 337.229 399.409 337.524C399.522 337.705 399.641 337.892 399.771 338.079C398.315 339.184 396.865 340.283 395.403 341.388ZM543.849 346.414C544.024 346.351 544.2 346.3 544.376 346.232C544.546 346.181 544.699 346.113 544.852 346.034C545.503 346.102 546.149 346.164 546.801 346.232C545.815 346.295 544.829 346.357 543.849 346.414ZM674.055 441.4C673.919 441.468 673.857 441.627 673.727 441.712C673.67 441.74 673.614 441.78 673.568 441.825C673.421 441.797 673.041 441.808 672.939 441.78C672.373 441.751 671.806 441.74 671.239 441.712C669.069 441.525 666.888 441.587 664.712 441.695C656.87 442.001 649.017 441.859 641.175 442.21C635.152 442.437 629.169 443.185 623.191 443.927C616.533 444.669 609.961 445.973 603.337 446.964C586.412 449.622 569.46 452.092 552.512 454.591C547.396 455.356 536.217 456.625 528.006 457.888C511.767 460.512 500.18 462.053 484.338 463.73C471.363 465.226 458.359 466.501 445.378 467.991C432.975 469.991 420.56 471.889 408.169 473.929C396.14 476.02 384.161 478.417 372.217 480.955C361.293 483.153 350.46 485.771 339.535 487.947C330.118 490.208 320.792 492.825 311.551 495.715C321.013 494.429 330.073 493.131 339.756 491.743C343.179 491.432 349.74 490.508 354.754 489.658C380.127 484.474 405.568 479.595 431.264 476.314C436.312 475.606 441.338 474.779 446.392 474.11C451.945 473.595 457.492 473.073 463.039 472.569C479.663 470.909 496.333 469.566 512.884 467.249C527.145 465.266 536.676 463.775 551.186 462.138C572.882 459.141 594.566 456.053 616.188 452.602C620.97 451.775 624.545 451.537 631.282 450.613C641.096 449.095 650.972 447.865 660.65 445.621C664.82 444.624 668.905 443.315 673.121 442.482C673.37 442.392 673.71 442.465 673.891 442.244C673.942 442.125 674.033 442.023 674.118 441.927C674.259 441.474 674.871 441.502 675.257 441.44C674.871 441.389 674.435 441.236 674.055 441.4Z" fill="#E2985E"/>
<path d="M537.633 97.2641C537.129 97.3945 536.699 97.6381 536.308 97.9384C535.65 98.1254 535.033 98.4427 534.381 98.6297C531.559 98.8166 529.996 99.2983 529.514 99.3039C527.236 99.6156 524.953 99.5419 522.664 99.6779C519.683 99.8252 516.709 100.137 513.74 100.46C511.286 100.754 508.838 100.715 506.379 100.499C504.498 100.55 502.628 100.607 500.753 100.409C499.761 100.329 499.835 100.227 497.359 100.052C495.591 99.9385 493.818 99.9668 492.055 99.8252C489.574 99.4682 487.075 99.2983 484.588 99.0093C483.245 98.879 481.896 98.8903 480.553 98.7486C478.638 98.4087 476.836 97.5814 474.927 97.2301C467.674 95.434 470.666 96.8108 464.694 95.2357C461.838 94.7257 458.96 94.3064 456.2 93.4225C456.693 92.0797 456.2 90.4025 454.892 89.6829C452.687 88.3854 450.353 87.3485 447.99 86.3796C446.324 85.6543 444.613 85.048 442.896 84.4531C440.375 82.606 437.406 80.1865 434.737 82.7193C433.009 84.4304 433.468 87.0028 434.975 88.6857C435.899 89.8246 437.281 90.3572 438.681 90.7765C438.936 90.9578 439.191 91.1448 439.435 91.3317C441.027 92.4933 442.619 93.6548 444.205 94.8164C444.273 94.873 444.341 94.9297 444.404 94.9864C447.095 97.4681 450.092 99.7629 453.651 100.805C454.727 101.213 455.838 101.519 456.96 101.774C456.994 101.797 457.028 101.82 457.067 101.842C458.07 102.432 458.966 103.197 460.014 103.712C461.68 104.454 463.442 104.97 465.147 105.61C465.663 105.616 467.992 107.066 470.927 107.395C475.986 108.766 481.137 110.018 486.406 110.018C488.911 110.183 491.427 110.205 493.931 110.302C495.648 110.171 497.359 109.922 499.053 109.622C502.396 109.781 501.263 109.809 505.433 110.268C508.867 110.568 511.977 110.387 513.553 110.149C513.677 110.143 513.83 110.143 514.04 110.137C516.765 110.245 519.479 109.945 522.193 109.775C525.65 109.424 529.157 109.084 532.517 108.149C534.166 107.656 535.775 107.027 537.361 106.358C538.472 105.922 539.594 105.401 540.551 104.681C540.778 104.528 540.993 104.358 541.192 104.165C541.294 104.075 541.384 103.973 541.469 103.865L541.458 103.854C541.662 103.633 541.855 103.406 542.025 103.157C543.917 100.148 541.073 96.3292 537.633 97.2641Z" fill="#E2985E"/>
<path d="M364.353 321.97C345.848 298.087 329.071 272.851 311.823 248.056C294.496 223.142 277.164 198.234 259.837 173.32C250.012 159.195 240.187 145.069 230.356 130.943C228.288 127.969 223.375 130.802 225.466 133.805C260.619 184.341 295.754 234.894 330.929 285.418C340.477 299.124 350.109 312.774 360.347 325.976C362.574 328.854 366.558 324.82 364.353 321.97Z" fill="black"/>
<path d="M229.218 129.963C229.252 122.71 230.022 115.554 231.558 108.466C232.329 104.913 226.866 103.395 226.096 106.959C224.458 114.528 223.597 122.217 223.557 129.963C223.529 133.606 229.195 133.612 229.218 129.963Z" fill="black"/>
<path d="M231.733 109.242C244.669 114.223 259.729 109.288 272.109 115.838C275.333 117.543 278.195 112.653 274.971 110.948C261.905 104.035 246.703 108.959 233.24 103.78C229.835 102.471 228.362 107.945 231.733 109.242Z" fill="black"/>
<path d="M271.916 117.186C303.125 162.65 334.328 208.121 365.537 253.585C374.302 266.351 383.062 279.122 391.827 291.888C393.878 294.874 398.791 292.047 396.717 289.027C365.508 243.562 334.305 198.092 303.096 152.627C294.331 139.861 285.571 127.09 276.806 114.324C274.755 111.338 269.842 114.166 271.916 117.186Z" fill="black"/>
<path d="M368.455 328.208C378.19 316.95 388.332 306.06 398.86 295.543C401.443 292.965 397.437 288.954 394.854 291.538C384.321 302.054 374.184 312.95 364.45 324.202C362.07 326.945 366.064 330.968 368.455 328.208Z" fill="black"/>
<path d="M230.021 119.498C230.547 113.736 230.072 107.905 228.53 102.324C227.726 99.4289 226.253 96.5675 226.196 93.5191C226.134 90.4425 227.488 87.5131 228.978 84.8954C234.678 74.9174 242.554 65.9536 250.86 58.0721C253.512 55.5564 249.501 51.5561 246.854 54.0662C238.055 62.418 229.386 72.158 223.607 82.9009C220.638 88.4253 219.793 93.8194 221.776 99.8255C223.924 106.336 224.983 112.625 224.36 119.498C224.02 123.13 229.692 123.107 230.021 119.498Z" fill="black"/>
<path d="M249.088 59.5905C297.035 66.1178 344.987 72.6452 392.933 79.1725C406.555 81.0253 420.17 82.8781 433.791 84.7366C437.355 85.2239 438.902 79.7618 435.299 79.2745C387.352 72.7472 339.4 66.2198 291.454 59.6925C277.832 57.8397 264.217 55.9869 250.595 54.1284C247.026 53.6411 245.485 59.1032 249.088 59.5905Z" fill="black"/>
<path d="M438.862 84.6797C470.604 73.5118 506.867 79.0079 533.917 99.0092C536.852 101.179 539.679 96.2611 536.778 94.1194C508.64 73.3192 470.354 67.6077 437.355 79.2175C433.939 80.4188 435.412 85.8922 438.862 84.6797Z" fill="black"/>
<path d="M535.044 99.5702C593.223 108.358 651.397 117.141 709.577 125.929C725.986 128.405 742.395 130.887 758.804 133.363C762.373 133.901 763.909 128.445 760.311 127.901C702.131 119.113 643.958 110.33 585.778 101.542C569.369 99.0659 552.96 96.5841 536.551 94.1081C532.982 93.5698 531.44 99.0319 535.044 99.5702Z" fill="black"/>
<path d="M439.604 85.0194C449.99 97.0769 466.291 100.72 481.357 102.851C490.423 104.131 499.568 105.145 508.736 104.913C513.382 104.8 518.04 104.352 522.612 103.485C524.93 103.049 527.23 102.494 529.485 101.808C530.454 101.513 531.417 101.19 532.375 100.845C533.015 100.613 533.65 100.369 534.279 100.12C535.004 99.8703 535.151 99.8136 534.715 99.9553C534.148 99.519 533.587 99.0883 533.021 98.6521C533.06 98.1251 533.094 97.5982 533.134 97.0712C533.701 96.6349 534.262 96.2043 534.828 95.768C534.692 95.802 534.562 95.8303 534.426 95.8643C530.879 96.7143 532.381 102.176 535.933 101.326C539.69 100.426 539.276 94.9804 535.599 94.3175C533.349 93.9152 531.021 95.3601 528.947 96.0343C526.703 96.7596 524.414 97.3545 522.097 97.8248C512.153 99.8533 501.835 99.502 491.794 98.4764C475.147 96.7766 455.22 94.4931 443.604 81.0079C441.23 78.2485 437.236 82.2714 439.604 85.0194Z" fill="black"/>
<path d="M756.775 129.328C748.644 139.018 746.003 151.715 738.666 161.858C730.07 173.739 715.633 174.023 702.323 172.447C685.087 170.413 667.908 167.626 650.722 165.189C633.571 162.764 616.414 160.333 599.263 157.908C529.887 148.089 460.506 138.27 391.131 128.456C351.927 122.909 312.723 117.362 273.525 111.815C269.961 111.31 268.42 116.767 272.018 117.277C342.94 127.311 413.857 137.346 484.774 147.381C555.254 157.353 625.718 167.41 696.21 177.303C711.032 179.383 728.127 181.003 739.663 169.405C749.732 159.285 751.726 144.128 760.78 133.334C763.115 130.558 759.126 126.529 756.775 129.328Z" fill="black"/>
<path d="M395.811 297.838C399.455 297.838 399.466 292.172 395.811 292.172C392.168 292.172 392.162 297.838 395.811 297.838Z" fill="black"/>
<path d="M398.694 298.506C422.894 300.779 446.267 307.765 469.719 313.782C481.38 316.774 493.114 319.533 505.013 321.403C517.331 323.335 529.757 324.451 542.143 325.828C567.323 328.633 591.942 334.203 616.646 339.665C641.401 345.144 666.202 350.391 691.053 355.4C719.197 361.077 747.397 366.449 775.648 371.531C779.212 372.171 780.742 366.715 777.155 366.069C726.699 356.997 676.418 346.98 626.341 336.01C601.869 330.65 577.477 324.701 552.608 321.426C540.131 319.783 527.581 318.757 515.099 317.159C502.724 315.578 490.525 313.102 478.411 310.128C451.984 303.64 425.903 295.396 398.689 292.84C395.062 292.5 395.085 298.172 398.694 298.506Z" fill="black"/>
<path d="M396.548 301.526C400.191 301.526 400.202 295.86 396.548 295.86C392.905 295.86 392.899 301.526 396.548 301.526Z" fill="black"/>
<path d="M398.027 297.102C401.67 297.102 401.681 291.436 398.027 291.436C394.378 291.436 394.372 297.102 398.027 297.102Z" fill="black"/>
<path d="M395.239 299.425C396.888 313.658 396.871 327.987 395.182 342.215C394.752 345.83 400.423 345.796 400.848 342.215C402.537 327.987 402.554 313.652 400.905 299.425C400.491 295.844 394.82 295.804 395.239 299.425Z" fill="black"/>
<path d="M400.843 344.045C449.888 354.318 498.939 364.59 547.985 374.863C597.031 385.135 646.082 395.408 695.128 405.681C722.784 411.471 750.446 417.268 778.102 423.059C781.66 423.807 783.179 418.344 779.609 417.596C730.564 407.324 681.512 397.051 632.467 386.779C583.421 376.506 534.37 366.233 485.324 355.961C457.668 350.17 430.006 344.374 402.35 338.583C398.791 337.841 397.267 343.297 400.843 344.045Z" fill="black"/>
<path d="M676.51 353.19C676.51 354.907 676.51 356.624 676.51 358.346C676.51 359.876 677.813 361.179 679.343 361.179C680.878 361.179 682.176 359.882 682.176 358.346C682.176 356.629 682.176 354.912 682.176 353.19C682.176 351.66 680.872 350.357 679.343 350.357C677.801 350.357 676.51 351.654 676.51 353.19Z" fill="black"/>
<path d="M733.986 364.783C733.975 366.789 733.969 368.789 733.958 370.795C733.941 374.444 739.607 374.444 739.624 370.795C739.635 368.789 739.641 366.789 739.652 364.783C739.669 361.14 734.003 361.134 733.986 364.783Z" fill="black"/>
<path d="M681.864 362.171C699.746 366.46 717.798 369.996 735.98 372.761C739.55 373.305 741.086 367.842 737.488 367.299C719.305 364.534 701.253 360.998 683.371 356.709C679.824 355.859 678.311 361.321 681.864 362.171Z" fill="black"/>
<path d="M455.272 317.981C455.663 314.468 456.252 311 457.011 307.55C457.787 303.997 452.325 302.479 451.549 306.043C450.688 309.986 450.053 313.964 449.611 317.981C449.203 321.602 454.875 321.573 455.272 317.981Z" fill="black"/>
<path d="M514.55 329.392C514.861 327.228 515.178 325.069 515.49 322.905C515.773 320.916 515.603 318.462 513.156 317.969C509.597 317.25 508.073 322.712 511.648 323.432C511.728 323.449 511.807 323.466 511.881 323.477C511.314 323.041 510.753 322.61 510.187 322.174C510.096 321.29 510.028 321.131 509.983 321.686C509.937 321.981 509.898 322.276 509.852 322.57C509.767 323.16 509.682 323.749 509.597 324.338C509.427 325.517 509.257 326.695 509.087 327.879C508.866 329.392 509.461 330.922 511.065 331.364C512.396 331.738 514.329 330.916 514.55 329.392Z" fill="black"/>
<path d="M451.362 321.675C470.933 326.202 490.657 330.061 510.488 333.245C514.058 333.817 515.593 328.355 511.995 327.783C492.158 324.604 472.44 320.746 452.87 316.213C449.317 315.391 447.804 320.853 451.362 321.675Z" fill="black"/>
<path d="M805.844 375.56C785.945 410.287 766.045 445.009 746.146 479.736C726.508 514.005 707.067 548.392 687.055 582.446C675.892 601.438 664.47 620.289 652.548 638.817C650.571 641.894 655.472 644.739 657.438 641.679C678.51 608.94 697.967 575.204 717.323 541.434C737.199 506.758 757.07 472.07 776.947 437.394C788.211 417.738 799.475 398.082 810.74 378.427C812.553 375.248 807.657 372.392 805.844 375.56Z" fill="black"/>
<path d="M806.41 378.138C807.402 385.957 808.178 393.805 808.71 401.675C808.971 405.517 809.175 409.364 809.322 413.211C809.39 415.041 809.453 416.877 809.498 418.707C809.526 419.806 809.549 420.906 809.566 422.005C809.577 422.662 809.101 424.492 809.759 423.795C810.427 423.518 811.096 423.24 811.764 422.968C811.6 422.974 811.436 422.98 811.277 422.985C807.639 423.104 807.622 428.77 811.277 428.651C815.549 428.51 815.277 424.079 815.215 420.906C815.124 416.141 814.949 411.375 814.682 406.616C814.155 397.097 813.277 387.6 812.082 378.138C811.623 374.568 805.951 374.523 806.41 378.138Z" fill="black"/>
<path d="M810.59 423.698C789.144 458.992 768.163 494.564 747.663 530.408C727.254 566.098 707.315 602.055 687.857 638.273C676.825 658.807 665.952 679.426 655.226 700.118C653.549 703.354 658.439 706.221 660.116 702.98C679.115 666.315 698.595 629.899 718.562 593.749C738.439 557.758 758.791 522.033 779.614 486.586C791.422 466.489 803.378 446.482 815.48 426.56C817.384 423.432 812.483 420.582 810.59 423.698Z" fill="black"/>
<path d="M652.406 639.282C651.856 660.264 651.312 681.251 650.763 702.232C650.666 705.881 656.332 705.876 656.429 702.232C656.978 681.251 657.522 660.264 658.072 639.282C658.168 635.633 652.502 635.633 652.406 639.282Z" fill="black"/>
<path d="M390.423 297.323C361.769 324.497 333.139 351.694 304.525 378.914C275.911 406.134 247.32 433.371 218.74 460.631C202.683 475.946 186.636 491.273 170.59 506.599C167.95 509.121 171.961 513.127 174.596 510.605C203.147 483.323 231.721 456.064 260.312 428.821C288.904 401.579 317.517 374.359 346.148 347.161C362.234 331.88 378.331 316.599 394.429 301.328C397.081 298.813 393.069 294.812 390.423 297.323Z" fill="black"/>
<path d="M394.933 340.871C348.642 386.087 303.46 432.441 259.474 479.9C247.049 493.306 234.719 506.803 222.48 520.384C220.044 523.087 224.039 527.104 226.486 524.39C269.809 476.319 314.316 429.319 359.974 383.463C372.87 370.511 385.862 357.649 398.939 344.877C401.551 342.322 397.546 338.316 394.933 340.871Z" fill="black"/>
<path d="M177.457 512.43C221.76 524.17 265.791 536.947 309.488 550.767C321.823 554.67 334.13 558.654 346.414 562.716C349.881 563.867 351.372 558.393 347.921 557.254C304.405 542.857 260.561 529.473 216.411 517.15C203.951 513.671 191.469 510.277 178.964 506.968C175.434 506.027 173.932 511.495 177.457 512.43Z" fill="black"/>
<path d="M347.362 562.507C350.416 562.699 353.475 562.892 356.529 563.09C356.529 561.203 356.529 559.311 356.529 557.424C353.373 557.248 350.217 557.067 347.067 556.891C347.316 558.744 347.571 560.603 347.82 562.456C351.985 561.334 355.436 567.345 357.668 570.014C360.518 573.425 363.929 576.332 367.618 578.791C375.193 583.845 383.993 586.905 392.724 589.285C402.759 592.021 413.156 594.724 423.548 595.534C434.869 596.418 445.515 593.296 456.026 589.42C459.42 588.168 457.952 582.689 454.519 583.958C443.696 587.947 433.05 590.967 421.406 589.67C411.162 588.531 400.753 585.8 390.877 582.87C382.168 580.287 373.341 576.825 366.394 570.807C360.637 565.821 355.509 554.517 346.319 556.993C343.14 557.849 343.945 562.382 347.073 562.558C350.229 562.733 353.385 562.915 356.535 563.09C360.184 563.294 360.156 557.656 356.535 557.424C353.481 557.231 350.421 557.039 347.367 556.84C343.724 556.608 343.735 562.274 347.362 562.507Z" fill="black"/>
<path d="M456.194 590.101C507.053 604.866 557.765 620.414 608.958 633.996C623.265 637.792 637.634 641.322 652.065 644.608C655.618 645.419 657.131 639.956 653.572 639.146C602.051 627.412 551.498 611.875 500.775 597.149C486.417 592.979 472.059 588.809 457.701 584.644C454.194 583.619 452.698 589.086 456.194 590.101Z" fill="black"/>
<path d="M192.194 568.411C189.537 567.685 186.885 566.96 184.228 566.235C180.703 565.272 179.202 570.739 182.72 571.697C185.378 572.422 188.03 573.148 190.687 573.873C194.211 574.836 195.713 569.374 192.194 568.411Z" fill="black"/>
<path d="M652.554 701.773C593.49 683.789 534.365 666.026 475.126 648.631C415.74 631.197 356.246 614.136 296.621 597.546C263.328 588.282 229.926 579.341 196.751 569.657C193.244 568.632 191.748 574.1 195.244 575.119C224.645 583.704 254.239 591.676 283.754 599.852C313.999 608.232 344.211 616.737 374.389 625.349C433.446 642.206 492.379 659.493 551.221 677.086C584.527 687.047 617.798 697.105 651.052 707.23C654.543 708.301 656.033 702.833 652.554 701.773Z" fill="black"/>
<path d="M170.828 511.353C172.772 521.433 174.71 531.513 176.653 541.587C178.58 551.588 180.614 561.589 181.56 571.742C181.894 575.34 187.566 575.38 187.226 571.742C186.269 561.453 184.28 551.316 182.331 541.179C180.319 530.737 178.308 520.288 176.296 509.846C175.605 506.27 170.143 507.783 170.828 511.353Z" fill="black"/>
<path d="M756.577 138.972C751.619 154.849 746.928 170.895 747.585 187.706C747.92 196.296 749.291 204.812 750.594 213.294C751.892 221.72 753.189 230.151 754.543 238.571C760.102 273.128 767.451 307.295 775.037 341.456C779.31 360.698 783.582 379.945 787.854 399.187C788.642 402.746 794.109 401.239 793.316 397.68C785.814 363.893 778.069 330.146 770.975 296.274C767.468 279.525 764.249 262.725 761.439 245.846C758.651 229.086 755.484 212.195 753.795 195.282C752.855 185.854 753.036 176.51 754.81 167.189C756.538 158.112 759.291 149.285 762.039 140.48C763.127 136.989 757.66 135.499 756.577 138.972Z" fill="black"/>
<path d="M757.699 131.402C768.09 161.886 773.989 193.61 779.224 225.323C784.55 257.62 789.508 289.973 794.987 322.247C798.024 340.13 801.503 357.955 806.603 375.378C807.623 378.869 813.096 377.384 812.065 373.871C802.914 342.572 798.67 310.009 793.463 277.893C788.29 245.965 783.689 213.866 777.111 182.187C773.439 164.515 768.991 146.995 763.161 129.901C761.994 126.467 756.52 127.94 757.699 131.402Z" fill="black"/>
</svg>
