<svg width="980" height="735" viewBox="0 0 980 735" fill="none" xmlns="http://www.w3.org/2000/svg">
<path d="M489.55 683.372C664.008 683.372 805.434 541.946 805.434 367.487C805.434 193.029 664.008 51.603 489.55 51.603C315.092 51.603 173.666 193.029 173.666 367.487C173.666 541.946 315.092 683.372 489.55 683.372Z" fill="white" stroke="black" stroke-width="3.96626" stroke-miterlimit="10"/>
<path d="M489.55 585.632C608.463 585.632 704.861 487.965 704.861 367.487C704.861 247.009 608.463 149.343 489.55 149.343C370.636 149.343 274.238 247.009 274.238 367.487C274.238 487.965 370.636 585.632 489.55 585.632Z" fill="white" stroke="#4B4B4B" stroke-width="6.79931" stroke-miterlimit="10"/>
<path d="M745.776 278.048C741.515 278.915 737.181 279.924 733.39 282.139C739.039 280.689 744.937 280.898 750.7 280.235C758.213 279.419 765.653 277.85 772.894 275.697C763.817 275.884 754.694 276.229 745.776 278.048Z" fill="#9C9C9C"/>
<path d="M761.216 325.445C753.726 324.471 745.991 324.352 738.648 326.301C744.167 326.408 750.082 327.253 755.743 327.44C760.559 327.649 765.364 327.066 770.18 327.213C767.279 326.21 764.242 325.819 761.216 325.445Z" fill="#9C9C9C"/>
<path d="M768.894 369.544C764.066 369.091 759.261 368.394 754.422 367.997C747.838 367.368 741.158 367.47 734.659 366.099C733.821 365.901 732.988 365.685 732.132 365.566C732.92 365.895 733.662 366.303 734.421 366.683C740.048 369.351 746.246 370.417 752.366 371.261C761.63 372.615 771.075 372.23 780.232 370.298C776.452 370.037 772.667 369.873 768.894 369.544Z" fill="#9C9C9C"/>
<path d="M759.596 422.913C756.258 422.391 753.04 421.304 749.793 420.403C742.75 418.573 735.617 417.06 728.478 415.66C727.633 415.468 726.528 415.468 725.86 415.06C726.239 415.496 726.834 415.677 727.344 415.915C736.835 420.153 746.688 424.012 757.086 425.202C761.698 425.53 766.338 424.8 770.809 423.706C767.092 423.661 762.99 423.4 759.596 422.913Z" fill="#9C9C9C"/>
<path d="M739.396 471.953C736.393 470.673 733.135 470.367 729.996 469.59C733.09 471.386 735.764 472.174 738.897 473.914C743.691 476.48 748.983 477.891 754.1 479.659C749.289 476.248 744.195 473.874 739.396 471.953Z" fill="#9C9C9C"/>
<path d="M707.383 516.092C704.023 513.922 700.646 511.786 697.41 509.44C697.405 509.434 697.399 509.434 697.399 509.434C696.764 508.947 696.13 508.46 695.495 507.978C694.753 507.457 694.067 506.703 693.115 506.613C692.832 506.579 692.549 506.562 692.271 506.533C692.526 506.63 692.787 506.726 693.042 506.828C693.654 507.032 694.033 507.593 694.424 508.069C695.048 508.851 695.694 509.61 696.339 510.375C698.158 512.426 700.17 514.29 702.317 515.996C704.929 518.183 707.876 519.917 710.612 521.939C714.426 524.631 718.199 527.481 722.415 529.515C717.406 525.039 713.088 519.735 707.383 516.092Z" fill="#9C9C9C"/>
<path d="M686.838 568.622C685.285 566.05 683.648 563.523 681.931 561.052C677.483 555.092 672.219 549.771 667.431 544.105C670.678 551.046 675.109 557.381 679.704 563.506C681.897 566.458 684.203 569.319 686.571 572.129C688.566 574.47 690.673 576.747 693.263 578.436C690.651 575.495 688.872 571.965 686.838 568.622Z" fill="#9C9C9C"/>
<path d="M636.262 587.094C634.143 583.773 631.984 580.464 629.542 577.388C629.31 577.099 628.964 576.878 628.907 576.487C628.851 576.923 629.162 577.252 629.31 577.631C629.582 578.719 630.239 579.569 630.59 580.595C631.593 582.98 632.687 585.604 634.16 588.323C637.242 593.763 641.719 598.369 646.586 602.245C643.027 597.276 639.673 592.165 636.262 587.094Z" fill="#9C9C9C"/>
<path d="M581.154 594.374C581.052 594.057 580.944 593.74 580.836 593.422C581.069 597.57 581.426 601.712 581.924 605.831C582.995 616.007 586.004 625.815 587.868 635.85C589.035 621.707 585.511 607.724 581.154 594.374Z" fill="#9C9C9C"/>
<path d="M539.009 617.713C538.845 615.77 538.714 613.826 538.108 611.957C538.017 611.6 538.074 611.996 538.063 612.155C538.074 612.591 538.085 613.028 538.057 613.464C538.068 615.011 537.802 615.94 537.649 617.453C537.457 619.821 537.44 622.207 537.083 624.558C536.856 626.184 536.72 627.816 536.607 629.454C536.136 632.644 535.83 635.856 535.813 639.086C535.332 646.559 536.59 654.022 537.949 661.348C538.335 655.591 538.493 649.817 538.89 644.061C539.292 640.106 539.559 636.151 539.683 632.173C539.972 627.606 539.666 621.464 539.009 617.713Z" fill="#9C9C9C"/>
<path d="M483.799 622.999C483.306 618.665 483.34 614.291 482.745 609.973C482.722 609.361 482.762 608.749 482.79 608.137C482.66 608.545 482.547 608.959 482.428 609.372C482.054 611.106 482.082 612.863 481.799 614.16C481.136 618.042 480.932 621.979 480.796 625.906C480.62 629.374 480.473 632.847 480.541 636.32C480.83 644.723 481.334 653.132 481.119 661.54C484.609 649.041 484.813 635.867 483.799 622.999Z" fill="#9C9C9C"/>
<path d="M429.801 616.841C428.169 621.306 426.662 625.85 425.852 630.542C424.945 634.938 425.512 639.851 422.792 643.676C426.396 640.837 427.036 636.049 428.107 631.873C429.489 625.952 430.606 619.923 431.013 613.855C431.025 613.668 431.03 613.481 431.042 613.294C430.628 614.478 430.26 615.674 429.801 616.841Z" fill="#9C9C9C"/>
<path d="M399.788 602.675C397.447 605.661 395.345 608.829 393.266 612.002C391.56 614.483 389.866 616.971 388.359 619.577C386.274 623.096 384.455 626.762 382.676 630.439C381.146 633.538 379.713 636.74 377.571 639.477C382.41 635.624 385.577 630.111 388.988 625.045C391.458 621.322 393.679 617.435 395.776 613.498C397.889 609.225 399.754 604.84 401.85 600.556C401.997 600.239 402.15 599.922 402.298 599.599C401.459 600.619 400.615 601.644 399.788 602.675Z" fill="#9C9C9C"/>
<path d="M361.236 573.846C360.522 574.464 359.825 575.104 359.128 575.744C355.943 578.532 353.059 581.637 350.47 584.98C343.008 594.777 337.517 605.837 331.54 616.552C337.976 609.747 343.546 602.154 348.504 594.222C350.782 590.499 352.85 586.652 355.122 582.929C357.003 579.977 359.02 577.116 360.992 574.226C361.094 574.079 361.19 573.926 361.303 573.778C361.292 573.801 361.264 573.824 361.236 573.846Z" fill="#9C9C9C"/>
<path d="M322.882 549.562C320.145 551.771 317.697 554.293 315.522 557.058C312.128 561.375 309.861 566.446 306.563 570.826C313.952 565.126 318.19 556.519 323.669 549.159C323.8 548.955 323.93 548.751 324.077 548.559C323.664 548.876 323.29 549.233 322.882 549.562Z" fill="#9C9C9C"/>
<path d="M287.684 527.333C283.939 529.419 280.488 531.963 277.241 534.762C274.221 537.345 271.434 540.184 268.816 543.176C265.818 546.134 262.997 549.261 260.067 552.281C268.657 547.278 276.029 540.552 282.885 533.407C285.627 530.631 288.715 528.206 291.169 525.152C291.271 525.033 291.384 524.92 291.497 524.812C290.211 525.628 288.976 526.529 287.684 527.333Z" fill="#9C9C9C"/>
<path d="M275.757 476.061C273.388 476.837 271.031 477.648 268.663 478.43C262.685 480.469 254.9 483.212 250.48 485.149C247.727 486.271 245.081 487.631 242.446 489.002C239.295 490.793 236.162 492.685 232.626 493.603C238.423 493.535 243.732 490.861 249.16 489.116C258.628 486.056 267.552 481.501 275.893 476.112C275.983 476.05 276.091 476.004 276.165 475.919C276.034 475.987 275.898 476.027 275.757 476.061Z" fill="#9C9C9C"/>
<path d="M253.121 428.363C250.617 428.675 248.09 428.749 245.591 429.094C238.814 429.48 232.134 430.709 225.476 431.967C218.632 433.344 212.116 435.996 205.282 437.395C211.413 437.746 217.504 436.511 223.572 435.775C226.281 435.338 228.842 435.112 232.462 434.46C236.406 433.633 240.304 432.607 244.242 431.74C247.268 430.998 250.271 430.137 253.217 429.14C254.249 428.794 255.348 428.715 256.356 428.346C255.285 428.443 254.198 428.261 253.121 428.363Z" fill="#9C9C9C"/>
<path d="M236.502 367.935C230.564 367.453 224.632 368.116 218.739 368.808C222.836 369.578 227.046 369.839 231.216 369.754C234.633 369.538 238.044 369.125 241.438 368.672C241.63 368.643 241.829 368.615 242.021 368.587C240.185 368.32 238.35 368.082 236.502 367.935Z" fill="#9C9C9C"/>
<path d="M256.13 313.671C255.784 313.801 255.472 314.028 255.115 314.113C254.656 314.101 254.197 314.079 253.744 314.152C248.135 315.155 243.047 313.654 237.471 312.985C234.4 312.583 230.462 312.532 227.839 312.192C223.85 311.535 219.974 310.328 216.099 309.2C219.719 311.433 223.493 313.54 227.595 314.73C231.182 315.603 234.87 315.909 238.536 316.232C242.219 316.521 246.021 316.883 249.631 316.135C251.574 315.949 253.279 314.912 255.161 314.504C255.637 314.3 255.971 313.858 256.39 313.557C256.311 313.591 256.22 313.631 256.13 313.671Z" fill="#9C9C9C"/>
<path d="M275.083 244.295C271.581 243.241 267.938 242.76 264.436 241.683C261.779 240.731 258.351 239.088 254.758 237.808C250.322 236.357 249.036 235.405 244.525 233.683C240.451 232.442 236.338 231.326 232.258 230.119C236.27 232.606 240.553 234.601 244.763 236.714C247.591 238.544 250.599 240.068 253.784 241.179C257.387 242.369 260.963 243.848 264.731 244.403C268.402 244.85 272.091 244.703 275.774 244.845C276.278 244.85 276.782 244.822 277.287 244.816C276.55 244.647 275.814 244.494 275.083 244.295Z" fill="#9C9C9C"/>
<path d="M296.523 199.352C296.342 198.814 295.86 198.445 295.515 198.009C293.186 195.284 290.064 193.397 287.197 191.289C281.491 187.153 275.349 183.594 268.776 181.033C268.448 180.79 268.13 180.54 267.802 180.308C267.694 180.234 267.36 179.979 267.598 180.206C268.521 181.254 269.456 182.286 270.352 183.362C273.757 187.6 277.304 191.765 281.531 195.221C284.222 197.556 287.174 199.584 290.466 200.967C291.367 201.369 292.296 201.698 293.231 202.021C294.075 202.349 295.141 202.519 295.872 201.868C296.62 201.341 296.931 200.168 296.523 199.352ZM276.839 187.555C274.913 185.969 273.015 184.342 271.065 182.79C274.629 185.323 278.012 188.082 281.344 190.921C279.599 189.674 277.859 188.331 276.839 187.555Z" fill="#9C9C9C"/>
<path d="M342.192 154.562C337.177 149.723 332.078 144.935 326.582 140.64C323.703 138.453 320.576 136.572 317.845 134.402C318.287 134.951 318.751 135.49 319.222 136.017C319.08 135.903 318.944 135.79 318.808 135.682C317.998 134.985 318.859 135.898 319.125 136.272C323.063 141.173 327.08 146.006 331.33 150.641C334.016 153.565 336.724 156.551 340.084 158.715C341.444 159.871 343.603 159.508 343.875 157.57C344.118 156.301 343.008 155.361 342.192 154.562Z" fill="#9C9C9C"/>
<path d="M373.814 114.542C375.112 116.899 376.251 119.336 377.452 121.749C378.608 123.993 379.911 126.169 381.022 128.441C380.2 123.194 377.69 118.191 373.814 114.542Z" fill="#9C9C9C"/>
<path d="M425.24 111.386C421.783 103.555 416.775 96.5578 412.803 89.0049C415.908 102.241 423.013 114.174 430.651 125.274C430.838 125.545 431.031 125.817 431.223 126.089C429.433 121.103 427.45 116.191 425.24 111.386Z" fill="#9C9C9C"/>
<path d="M466.347 105.159C465.769 97.9572 464.8 93.2147 463.832 86.2227C462.919 81.5086 461.01 76.5394 462.766 71.7969C459.508 76.4884 460.795 82.4378 461.027 87.7526C461.197 91.3562 461.441 94.9712 462.239 98.4955C462.902 101.448 463.463 104.417 464.16 107.357C464.812 109.737 465.543 112.955 465.798 114.978C465.951 116.015 465.979 117.398 466.308 118.219C466.279 117.602 466.325 116.99 466.438 116.383C467.005 112.655 466.676 108.893 466.347 105.159Z" fill="#9C9C9C"/>
<path d="M504.367 92.7504C501.534 101.935 500.961 111.686 501.256 121.245C502.446 116.355 503.97 109.426 505.228 103.839C506.31 99.0114 507.613 94.2292 508.372 89.3337C509.098 84.2343 509.319 79.0215 510.123 74.1543C507.494 80.1207 506.219 86.529 504.367 92.7504Z" fill="#9C9C9C"/>
<path d="M555.979 72.8677C554.161 81.7011 551.65 90.3589 548.817 98.9203C546.953 105.68 545.321 112.513 543.877 119.381C543.803 119.755 543.718 120.123 543.65 120.497C543.945 119.885 544.239 119.279 544.534 118.667C548.67 109.907 552.466 100.869 554.648 91.4015C555.894 85.3104 556.246 79.072 555.979 72.8677Z" fill="#9C9C9C"/>
<path d="M600.786 123.54C598.067 127.682 593.687 134.107 592.015 137.246C593.834 135.829 595.302 134.011 596.956 132.407C599.818 129.432 602.537 126.31 604.872 122.899C608.521 117.381 611.24 111.307 614.209 105.408C609.172 111.018 604.94 117.273 600.786 123.54Z" fill="#9C9C9C"/>
<path d="M647.872 143.144C644.444 146.923 640.948 150.725 638.285 155.1C637.684 156.08 637.129 157.088 636.613 158.114C637.004 157.689 637.389 157.258 637.775 156.828C642.693 151.638 648.472 147.365 653.498 142.277C658.983 136.719 664.077 130.769 670.009 125.67C661.493 129.857 654.274 136.232 647.872 143.144Z" fill="#9C9C9C"/>
<path d="M675.029 185.492C671.856 187.68 668.74 189.957 665.646 192.252C664.7 192.926 663.822 193.691 662.944 194.45C663.08 194.382 663.221 194.314 663.363 194.241C667.329 192.297 671.414 190.598 675.341 188.563C678.933 186.762 682.373 184.654 685.789 182.546C693.563 177.396 700.549 171.169 707.224 164.687C696.198 171.146 685.364 177.968 675.029 185.492Z" fill="#9C9C9C"/>
<path d="M717.236 235.609C715.06 236.397 712.714 237.014 710.907 238.522C710.176 239.196 709.252 239.632 708.657 240.448C708.459 240.72 708.244 240.975 708.023 241.23C708.374 241.015 708.697 240.754 709.031 240.522C709.502 240.176 710.051 240.006 710.589 239.802C711.196 239.525 711.774 239.179 712.408 238.958C715.581 238.04 718.896 237.689 722.075 236.788C727.831 235.133 733.554 232.918 738.416 229.365C731.486 231.858 724.154 233.054 717.236 235.609Z" fill="#9C9C9C"/>
<path d="M527.581 226.203C528.085 225.252 528.402 224.243 528.272 223.127C528.17 221.795 526.646 220.815 525.376 221.206C524.345 221.478 523.903 222.453 523.354 223.263C520.22 227.847 517.302 232.572 514.356 237.281C514.073 237.706 513.789 238.125 513.506 238.55C513.37 238.748 513.24 238.946 513.109 239.145C509.506 244.052 506.027 249.055 502.542 254.047C499.227 259.282 495.873 264.495 492.581 269.747C492.564 269.77 492.547 269.793 492.536 269.815C492.258 270.252 491.913 270.767 491.533 271.34C491.335 271.617 491.142 271.895 490.938 272.172C490.751 272.461 490.575 272.75 490.388 273.039C488.133 276.365 485.306 280.422 484.728 281.278C483.629 282.717 482.45 284.111 481.311 285.527C479.096 286.462 477.317 290.644 476.172 292.219C470.778 301.16 465.225 310.005 460.007 319.054C458.375 321.082 456.658 323.196 454.726 325.581C444.81 338.335 436.34 352.155 428.163 366.071C420.877 379.154 414.451 392.707 408.066 406.249C405.193 411.881 402.547 417.615 400.099 423.44C399.674 424.341 399.215 425.23 398.745 426.12C396.807 428.143 395.079 430.511 394.359 431.474C393.651 432.545 392.971 433.633 392.314 434.732C391.402 435.985 390.518 437.254 389.674 438.557C388.96 439.917 387.373 441.113 387.77 442.79C387.792 442.852 387.821 442.909 387.849 442.965C387.809 443.045 387.77 443.124 387.73 443.203C387.577 443.929 387.283 444.229 386.285 445.861C385.809 446.711 385.877 447.719 386.319 448.512C386.518 449.028 386.931 449.459 387.458 449.617C387.679 449.731 387.923 449.81 388.183 449.855C388.586 449.906 388.988 449.94 389.396 449.974C389.3 450.53 389.22 451.09 389.158 451.646C389.345 451.096 389.532 450.547 389.73 449.997C392.773 450.207 395.85 449.991 398.904 450.071C399.227 450.065 399.55 450.059 399.873 450.048C400.558 450.841 401.816 451.085 402.734 450.524C403.091 450.32 403.335 450.037 403.522 449.714C404.201 449.6 404.949 449.549 405.476 449.079C406.57 448.342 406.649 446.592 405.703 445.696C405.539 445.532 405.363 445.407 405.17 445.311C405.238 445.141 405.306 444.971 405.374 444.795C405.726 444.529 406.02 444.218 406.207 443.827C407.04 443.328 407.233 442.614 407.012 441.826C407.38 441.209 407.731 440.586 408.094 439.962C408.049 440.79 408.128 441.651 408.763 442.246C409.63 443.113 411.103 443.118 411.97 442.246C412.457 441.804 412.576 441.158 412.684 440.535C412.854 439.758 413.075 438.999 413.262 438.228C414.185 434.999 415.12 431.769 416.174 428.579C417.126 425.072 418.61 421.621 419.619 418.086C419.851 417.451 420.072 416.816 420.304 416.182C421.285 413.757 422.259 411.332 423.268 408.923C423.563 408.34 423.965 407.796 424.033 407.144C424.106 406.799 424.078 406.464 423.982 406.158C424.231 405.671 424.497 405.156 424.781 404.606C425.291 403.597 425.795 402.589 426.299 401.575C427.466 399.444 428.651 397.325 429.88 395.234C430.498 394.112 431.37 393.132 431.807 391.914C432.05 391.398 432.147 390.854 432.13 390.333C433.07 388.713 434.011 387.086 434.957 385.466C435.161 385.353 435.359 385.228 435.524 385.058C436.056 384.622 436.3 383.953 436.549 383.318C436.68 383.08 437.297 381.811 437.456 381.528C437.83 380.803 438.192 380.072 438.561 379.346C445.252 368.037 452.063 356.801 458.806 345.514C471.991 324.238 485.238 302.996 498.723 281.912C505.109 271.957 512.373 262.597 518.543 252.494C519.863 250.511 521.065 248.449 522.487 246.533C523.841 244.635 525.354 242.765 526.096 240.522C526.459 239.547 526.34 238.306 525.824 237.394C526.884 235.581 527.819 233.7 528.175 231.626C528.351 230.243 528.272 228.827 528.119 227.45C528.051 227.002 527.858 226.566 527.581 226.203ZM516.192 243.457C514.498 245.91 512.854 248.29 511.234 250.613C511.138 250.738 511.036 250.857 510.939 250.981C513.115 247.644 515.262 244.29 517.393 240.924C519.047 238.675 520.645 236.572 522.113 234.742C520.203 238.238 518.503 240.165 516.192 243.457Z" fill="#9C9C9C"/>
<path d="M482.626 361.283C472.914 368.083 463.582 375.448 454.805 383.415C448.301 389.574 442.329 396.232 436.51 403.025C432.481 407.587 428.809 412.437 424.985 417.174C421.812 421.009 418.593 424.823 415.199 428.472C411.216 431.543 407.312 434.716 403.567 438.081C398.025 442.903 392.388 447.64 387.566 453.21C384.931 455.952 382.591 458.95 380.126 461.834C379.157 462.791 378.126 463.766 377.475 464.95C376.574 466.876 378.863 468.894 380.687 467.777C380.971 467.636 381.203 467.432 381.418 467.211C381.798 467.307 382.211 467.301 382.602 467.211C383.435 467.007 383.9 466.259 384.478 465.692C385.146 465.035 385.809 464.372 386.478 463.715C387.164 464.417 388.268 464.718 389.243 464.128C389.396 464.009 389.543 463.885 389.696 463.766L389.702 463.771C389.713 463.76 389.725 463.749 389.73 463.737C389.736 463.732 389.742 463.726 389.747 463.72C389.946 465.471 392.331 466.372 393.6 465.024C394.535 464.259 395.453 463.477 396.36 462.684C396.484 463.041 396.694 463.369 396.966 463.624C395.368 465.296 393.77 466.973 392.184 468.661C391.645 469.353 390.869 469.908 390.62 470.78C390.144 472.463 391.651 473.772 393.266 473.772C394.292 473.778 395.255 473.29 396.076 472.713C396.184 472.645 396.286 472.571 396.394 472.497C395.719 473.693 395.113 474.922 394.739 476.22C394.433 477.767 396.076 479.155 397.567 478.707C398.83 478.226 399.799 476.905 400.825 476.033C402.723 474.186 404.598 472.316 406.451 470.423C406.417 470.616 406.394 470.809 406.377 471.013C406.372 472.548 407.76 473.976 409.341 473.5C410.412 473.171 411.04 472.118 411.856 471.409C413.692 469.613 415.403 467.709 417.064 465.755C420.276 461.975 423.438 458.151 426.549 454.281C428.214 452.184 429.88 450.094 431.54 447.997C432.702 446.598 434.311 445.034 433.943 443.051C433.79 442.586 433.558 442.229 433.269 441.963C434.453 440.841 435.643 439.73 436.838 438.631C439.348 436.229 442.13 434.166 444.912 432.104C439.921 434.37 435.291 437.305 430.906 440.586C430.775 440.682 430.651 440.778 430.52 440.875C432.226 438.41 433.931 435.945 435.586 433.452C436.272 432.444 436.957 431.429 437.552 430.359C437.869 429.752 438.272 429.084 438.096 428.381C437.983 426.829 436.028 425.899 434.725 426.727C434.124 427.135 433.535 427.571 432.951 428.007C433.501 426.625 432.328 424.976 430.821 425.01C429.353 425.083 428.373 426.46 427.177 427.186C428.764 425.894 430.345 424.596 431.914 423.276C433.229 422.165 434.515 421.026 435.75 419.825C436.521 419.157 437.405 418.494 437.393 417.366C437.416 416.063 436.226 415.032 434.957 415.077C433.376 415.111 432.107 416.216 430.821 417.066C433.727 413.4 436.617 409.717 439.722 406.204C443.037 402.436 446.284 398.606 449.689 394.928C452.794 391.761 455.927 388.611 459.072 385.483C466.942 377.777 474.688 369.952 482.405 362.099C483.107 361.391 483.833 360.7 484.552 359.997C483.918 360.428 483.266 360.853 482.626 361.283ZM422.741 437.05C423.755 436.013 424.752 434.971 425.71 433.889C426.203 433.537 426.702 433.186 427.195 432.835C425.687 434.211 424.214 435.628 422.741 437.05ZM418.707 449.459C418.769 449.385 418.831 449.317 418.894 449.249C419.5 448.586 420.101 447.918 420.695 447.243C420.344 447.759 419.999 448.28 419.653 448.796C419.336 449.017 419.018 449.238 418.707 449.459Z" fill="white"/>
<path d="M538.193 287.788C538.256 287.193 538.222 286.581 538.193 285.969C538.193 285.505 538.193 285.04 538.193 284.576C538.193 284.57 538.193 284.564 538.193 284.559C538.193 284.513 538.193 284.462 538.193 284.417C538.193 278.632 538.193 272.852 538.193 267.067C538.193 260.024 538.233 252.976 538.063 245.933C537.632 238.822 536.969 231.728 536.669 224.611C536.629 223.591 536.595 222.566 536.561 221.54C536.862 209.664 536.89 197.782 536.856 185.912C536.867 185.6 536.805 185.311 536.663 185.039C536.216 183.73 534.476 183.289 533.366 184.002C533.269 183.866 533.162 183.742 533.037 183.623C531.955 182.535 529.898 182.864 529.365 184.354C529.071 184.898 529.19 185.555 529.127 186.15C528.997 188.116 529.014 190.088 529.008 192.06C527.819 192.06 526.623 192.972 526.668 194.309C526.668 195.153 526.668 195.998 526.668 196.836C526.98 215.472 524.459 233.983 524.005 252.59C524.005 260.716 524.005 268.841 524.005 276.96C524 279.873 524.011 282.791 524.039 285.703C524.034 287.715 523.858 289.868 524.816 291.703C525.252 292.508 526.119 292.973 527.003 293.046C527.008 298.979 527.031 304.905 527.093 310.838C526.544 320.521 526.011 330.205 525.184 339.871C525.082 340.896 525.054 341.922 525.014 342.948C525.184 342.234 525.343 341.508 525.524 340.794C528.238 330.986 530.125 320.94 531.309 310.838C531.626 302.021 531.592 293.194 531.541 284.366C531.547 284.326 531.553 284.287 531.558 284.247C531.921 281.34 532.368 278.439 532.669 275.521C532.748 274.694 532.805 273.867 532.873 273.039C533.009 272.042 533.145 271.045 533.275 270.048C533.303 269.827 533.326 269.6 533.354 269.379C533.394 270.087 533.428 270.796 533.462 271.509C533.575 273.583 533.626 275.657 533.649 277.731C533.649 279 533.66 280.264 533.672 281.533C533.672 282.445 533.677 283.357 533.677 284.27C533.677 285.471 533.677 286.672 533.677 287.873C533.672 288.474 533.921 289.052 534.34 289.477C535.337 290.519 537.19 290.27 537.899 289.018C538.069 288.655 538.154 288.27 538.199 287.873H538.205V287.788H538.193Z" fill="white"/>
<path d="M779.246 367.59C766.633 367.142 754.02 366.689 741.413 366.241C737.838 366.116 734.263 365.986 730.682 365.861C728.857 365.799 728.863 368.632 730.682 368.694C743.294 369.142 755.907 369.595 768.514 370.043C772.089 370.168 775.665 370.298 779.246 370.423C781.065 370.485 781.065 367.652 779.246 367.59Z" fill="#4D4D4D"/>
<path d="M769.709 421.061C758.581 419.549 747.515 417.577 736.552 415.152C733.407 414.455 730.268 413.724 727.14 412.953C725.372 412.517 724.613 415.248 726.387 415.684C737.294 418.364 748.309 420.603 759.397 422.382C762.576 422.892 765.766 423.362 768.956 423.798C769.715 423.9 770.474 423.617 770.701 422.807C770.877 422.144 770.469 421.163 769.709 421.061Z" fill="#4D4D4D"/>
<path d="M754.015 474.616C743.827 471.155 733.639 467.693 723.446 464.231C721.718 463.641 720.976 466.378 722.692 466.962C732.88 470.424 743.068 473.886 753.261 477.348C754.995 477.937 755.737 475.2 754.015 474.616Z" fill="#4D4D4D"/>
<path d="M523.631 225.189C513.772 239.224 504.049 253.349 494.462 267.571C484.875 281.793 475.43 296.105 466.12 310.514C456.777 324.98 447.569 339.536 438.509 354.177C429.483 368.762 420.599 383.431 411.862 398.186C403.119 412.94 394.523 427.78 386.07 442.704C385.016 444.563 383.968 446.421 382.919 448.28C382.024 449.872 384.472 451.3 385.367 449.707C393.787 434.766 402.343 419.904 411.051 405.127C419.76 390.35 428.605 375.657 437.597 361.05C446.623 346.386 455.797 331.807 465.106 317.319C474.376 302.893 483.793 288.553 493.34 274.308C502.887 260.063 512.576 245.91 522.407 231.852C523.631 230.101 524.855 228.356 526.084 226.605C527.127 225.126 524.668 223.71 523.631 225.189Z" fill="#4D4D4D"/>
<path d="M693.076 507.429C702.595 512.188 711.638 517.911 719.978 524.523C720.579 524.999 721.395 525.107 721.984 524.523C722.477 524.03 722.585 522.999 721.984 522.517C713.445 515.746 704.255 509.854 694.509 504.981C692.877 504.171 691.444 506.613 693.076 507.429Z" fill="#4D4D4D"/>
<path d="M668.139 545.46C675.381 553.613 682.186 562.141 688.503 571.025C690.294 573.541 692.039 576.079 693.756 578.646C694.764 580.153 697.218 578.737 696.203 577.218C690.044 567.988 683.392 559.087 676.276 550.571C674.27 548.168 672.225 545.8 670.145 543.46C668.933 542.094 666.932 544.1 668.139 545.46Z" fill="#4D4D4D"/>
<path d="M627.049 573.676C632.024 581.212 637.435 588.459 643.248 595.372C644.897 597.327 646.574 599.259 648.285 601.157C649.509 602.517 651.503 600.505 650.291 599.151C644.381 592.584 638.851 585.683 633.752 578.47C632.301 576.419 630.885 574.339 629.496 572.243C628.499 570.73 626.04 572.147 627.049 573.676Z" fill="#4D4D4D"/>
<path d="M581.17 590.641C583.731 601.848 586.292 613.056 588.853 624.258C589.59 627.471 590.321 630.689 591.058 633.901C591.466 635.681 594.197 634.927 593.789 633.148C591.228 621.94 588.667 610.733 586.105 599.531C585.369 596.318 584.638 593.1 583.901 589.887C583.499 588.114 580.762 588.862 581.17 590.641Z" fill="#4D4D4D"/>
<path d="M536.624 613.754C537.264 625.613 537.904 637.466 538.545 649.325C538.726 652.714 538.913 656.102 539.094 659.49C539.191 661.304 542.024 661.315 541.927 659.49C541.287 647.631 540.647 635.778 540.006 623.919C539.825 620.53 539.638 617.142 539.457 613.754C539.355 611.941 536.522 611.929 536.624 613.754Z" fill="#4D4D4D"/>
<path d="M484.705 610.042C483.696 623.153 483.22 636.304 483.283 649.455C483.3 653.212 483.362 656.969 483.47 660.725C483.521 662.544 486.354 662.55 486.303 660.725C485.934 647.58 486.099 634.423 486.801 621.289C487.005 617.538 487.249 613.787 487.538 610.042C487.595 609.277 486.847 608.625 486.121 608.625C485.306 608.625 484.762 609.277 484.705 610.042Z" fill="#4D4D4D"/>
<path d="M431.512 613.747C430.555 623.3 428.543 632.728 425.568 641.851C425.002 643.59 427.739 644.333 428.3 642.605C431.354 633.233 433.365 623.555 434.345 613.747C434.419 612.982 433.637 612.331 432.929 612.331C432.101 612.331 431.592 612.982 431.512 613.747Z" fill="#4D4D4D"/>
<path d="M400.768 603.106C395.64 612.733 390.507 622.354 385.379 631.98C383.917 634.717 382.461 637.459 380.999 640.196C380.143 641.805 382.585 643.239 383.447 641.624C388.574 631.997 393.708 622.376 398.836 612.75C400.298 610.013 401.754 607.271 403.216 604.534C404.071 602.925 401.623 601.497 400.768 603.106Z" fill="#4D4D4D"/>
<path d="M359.978 573.432C352.918 584.017 345.852 594.607 338.792 605.191C336.787 608.2 334.781 611.208 332.775 614.217C331.761 615.735 334.214 617.158 335.223 615.645C342.283 605.061 349.348 594.471 356.408 583.886C358.414 580.878 360.42 577.869 362.426 574.86C363.44 573.336 360.987 571.92 359.978 573.432Z" fill="#4D4D4D"/>
<path d="M326.678 546.287C320.497 554.526 314.315 562.77 308.139 571.008C307.68 571.62 308.043 572.589 308.649 572.946C309.374 573.371 310.128 573.054 310.587 572.436C316.768 564.198 322.95 555.954 329.126 547.715C329.585 547.103 329.222 546.134 328.616 545.777C327.891 545.358 327.137 545.675 326.678 546.287Z" fill="#4D4D4D"/>
<path d="M293.667 521.463C285.423 527.872 277.7 534.949 270.618 542.621C268.584 544.819 266.606 547.068 264.68 549.363C264.187 549.947 264.108 550.791 264.68 551.369C265.184 551.873 266.187 551.958 266.686 551.369C273.4 543.374 280.771 535.929 288.704 529.147C290.982 527.197 293.305 525.311 295.668 523.469C296.274 522.999 296.161 521.962 295.668 521.463C295.073 520.868 294.274 520.993 293.667 521.463Z" fill="#4D4D4D"/>
<path d="M275.298 474.135C264.742 479.62 254.186 485.105 243.631 490.59C240.616 492.159 237.596 493.723 234.582 495.292C232.961 496.131 234.395 498.579 236.01 497.74C246.566 492.255 257.122 486.771 267.677 481.286C270.692 479.716 273.712 478.152 276.726 476.583C278.347 475.739 276.913 473.297 275.298 474.135Z" fill="#4D4D4D"/>
<path d="M253.251 428.965C241.075 431.65 228.898 434.342 216.722 437.027C213.277 437.787 209.832 438.552 206.381 439.311C204.602 439.702 205.356 442.433 207.135 442.042C219.311 439.356 231.488 436.665 243.664 433.979C247.109 433.22 250.554 432.455 254.005 431.696C255.784 431.299 255.03 428.568 253.251 428.965Z" fill="#4D4D4D"/>
<path d="M243.846 370.06C236.843 370.06 229.839 370.06 222.83 370.06C221.006 370.06 221.006 372.893 222.83 372.893C229.834 372.893 236.837 372.893 243.846 372.893C245.67 372.893 245.676 370.06 243.846 370.06Z" fill="#4D4D4D"/>
<path d="M254.594 313.234C245.171 314.73 235.596 315.297 226.06 314.968C223.329 314.872 220.609 314.702 217.889 314.458C217.124 314.39 216.473 315.155 216.473 315.875C216.473 316.696 217.124 317.223 217.889 317.291C227.567 318.147 237.324 318.085 246.99 317.07C249.784 316.776 252.571 316.407 255.348 315.965C256.101 315.846 256.526 314.9 256.339 314.22C256.113 313.416 255.353 313.11 254.594 313.234Z" fill="#4D4D4D"/>
<path d="M279.684 244.075C266.929 242.437 254.362 239.276 242.339 234.732C238.922 233.44 235.551 232.034 232.23 230.516C231.533 230.199 230.706 230.318 230.293 231.026C229.936 231.638 230.1 232.646 230.802 232.964C242.854 238.471 255.524 242.579 268.527 245.117C272.227 245.837 275.95 246.426 279.689 246.908C280.449 247.004 281.106 246.188 281.106 245.491C281.1 244.647 280.443 244.177 279.684 244.075Z" fill="#4D4D4D"/>
<path d="M297.713 204.616C289.05 198.196 280.38 191.776 271.717 185.357C269.258 183.532 266.799 181.713 264.34 179.889C263.722 179.436 262.759 179.787 262.402 180.399C261.983 181.118 262.294 181.878 262.912 182.337C271.575 188.756 280.244 195.176 288.908 201.596C291.367 203.42 293.826 205.239 296.285 207.064C296.903 207.517 297.866 207.166 298.223 206.554C298.642 205.834 298.331 205.075 297.713 204.616Z" fill="#4D4D4D"/>
<path d="M341.387 158.976C332.769 150.698 324.151 142.419 315.533 134.147C314.218 132.883 312.213 134.883 313.527 136.153C322.145 144.431 330.763 152.709 339.381 160.981C340.696 162.245 342.702 160.239 341.387 158.976Z" fill="#4D4D4D"/>
<path d="M381.038 129.721C378.568 124.775 376.092 119.834 373.621 114.887C372.806 113.256 370.363 114.689 371.174 116.315C373.644 121.262 376.12 126.203 378.591 131.149C379.412 132.781 381.854 131.347 381.038 129.721Z" fill="#4D4D4D"/>
<path d="M429.251 126.015C424.446 117.363 419.636 108.711 414.831 100.059C413.46 97.5884 412.083 95.1123 410.712 92.6419C409.828 91.0497 407.38 92.4776 408.264 94.0698C413.069 102.722 417.879 111.374 422.684 120.026C424.056 122.497 425.432 124.973 426.804 127.443C427.687 129.035 430.135 127.613 429.251 126.015Z" fill="#4D4D4D"/>
<path d="M465.48 116.429C463.905 105.857 462.336 95.278 460.76 84.7051C460.313 81.6794 459.86 78.648 459.412 75.6223C459.299 74.8631 458.341 74.4494 457.667 74.6307C456.856 74.8517 456.562 75.611 456.675 76.3759C458.25 86.9488 459.82 97.5274 461.395 108.1C461.843 111.126 462.296 114.157 462.744 117.183C462.857 117.942 463.814 118.356 464.489 118.175C465.305 117.948 465.594 117.189 465.48 116.429Z" fill="#4D4D4D"/>
<path d="M501.138 115.602C501.801 104.701 503.183 93.8501 505.285 83.1299C505.886 80.0589 506.549 76.9992 507.268 73.9508C507.688 72.1773 504.957 71.4181 504.537 73.1972C501.976 84.0761 500.146 95.1193 499.047 106.242C498.741 109.358 498.492 112.48 498.305 115.602C498.191 117.427 501.024 117.421 501.138 115.602Z" fill="#4D4D4D"/>
<path d="M544.267 120.906C547.095 109.353 549.922 97.8053 552.755 86.2521C553.565 82.9545 554.37 79.6511 555.18 76.3535C555.616 74.5857 552.88 73.8264 552.449 75.5999C549.622 87.153 546.794 98.7005 543.961 110.254C543.151 113.551 542.346 116.855 541.536 120.152C541.105 121.926 543.837 122.679 544.267 120.906Z" fill="#4D4D4D"/>
<path d="M594.888 134.861C600.656 124.974 606.424 115.081 612.192 105.193C613.11 103.612 610.662 102.19 609.745 103.765C603.976 113.653 598.208 123.546 592.44 133.433C591.517 135.008 593.965 136.436 594.888 134.861Z" fill="#4D4D4D"/>
<path d="M634.216 161.106C641.605 152.109 648.999 143.111 656.388 134.113C658.473 131.575 660.558 129.036 662.649 126.492C663.136 125.903 663.227 125.064 662.649 124.487C662.15 123.988 661.136 123.892 660.643 124.487C653.255 133.484 645.86 142.482 638.472 151.48C636.387 154.018 634.302 156.557 632.211 159.101C631.723 159.69 631.633 160.529 632.211 161.106C632.715 161.605 633.729 161.701 634.216 161.106Z" fill="#4D4D4D"/>
<path d="M667.663 194.564C676.939 186.83 686.22 179.09 695.495 171.356C698.13 169.157 700.765 166.959 703.399 164.766C703.989 164.273 703.904 163.27 703.399 162.76C702.816 162.177 701.983 162.267 701.394 162.76C692.118 170.495 682.837 178.234 673.562 185.969C670.927 188.167 668.292 190.366 665.658 192.558C665.068 193.051 665.153 194.054 665.658 194.564C666.241 195.148 667.074 195.057 667.663 194.564Z" fill="#4D4D4D"/>
<path d="M706.504 241.757C716.669 237.961 726.375 233.02 735.396 226.997C736.903 225.989 735.486 223.535 733.968 224.549C725.157 230.437 715.683 235.321 705.751 239.026C705.037 239.293 704.544 239.984 704.759 240.771C704.946 241.457 705.779 242.024 706.504 241.757Z" fill="#4D4D4D"/>
<path d="M725.044 284.967C737.56 282.4 750.071 279.833 762.588 277.266C766.146 276.535 769.698 275.81 773.257 275.079C774.005 274.926 774.441 274.037 774.248 273.334C774.033 272.552 773.257 272.189 772.503 272.342C759.987 274.909 747.476 277.476 734.96 280.043C731.401 280.774 727.849 281.499 724.29 282.23C723.543 282.383 723.106 283.272 723.299 283.975C723.514 284.757 724.29 285.125 725.044 284.967Z" fill="#4D4D4D"/>
<path d="M738.285 325.921C748.173 325.921 758.066 325.921 767.953 325.921C769.777 325.921 769.777 323.088 767.953 323.088C758.066 323.088 748.173 323.088 738.285 323.088C736.461 323.088 736.461 325.921 738.285 325.921Z" fill="#4D4D4D"/>
</svg>
