<svg width="980" height="735" viewBox="0 0 980 735" fill="none" xmlns="http://www.w3.org/2000/svg">
<path d="M797.566 172.543C797.13 168.662 796.053 164.775 796.076 160.86C796.093 158.338 796.353 155.811 796.863 153.347C793.962 149.352 790.908 145.38 787.747 141.601C785.044 138.371 781.531 135.289 778.352 132.484C774.346 128.948 770.233 125.481 766.028 122.183C762.481 119.395 758.487 117.123 755.059 114.205C751.739 111.378 750.662 107.548 749.37 103.547C749.019 102.454 748.73 101.298 748.271 100.25C748.095 99.8474 747.104 98.6688 747.568 98.9295C746.214 97.9945 744.463 97.4733 742.99 96.8613C740.922 96.0001 739.024 95.0028 737.12 93.8356C735.143 92.6231 733.261 90.9516 731.029 90.266C730.57 90.1243 730.162 89.943 729.794 89.7277C717.034 87.7729 704.404 83.8463 691.893 81.3816C682.856 79.6024 673.784 78.4692 664.668 77.2227C655.868 76.0158 647.211 74.0383 638.49 72.3952C629.884 70.7747 621.22 70.2081 612.545 69.0748C610.511 68.8085 608.398 68.2873 606.352 68.2419C604.896 68.2136 603.514 68.3326 602.052 68.1343C600.086 67.868 598.125 67.188 596.68 65.7602C594.72 63.828 595.06 61.9129 594.386 59.5445C593.643 56.9494 590.057 53.7481 588.272 51.238C586.442 48.6599 584.459 45.7872 581.682 44.1327C581.019 43.7418 580.311 43.4301 579.569 43.1751C578.39 46.6145 572.282 47.4474 571.087 42.9542C570.962 42.5122 570.854 42.0646 570.747 41.6226C570.667 41.583 570.577 41.532 570.469 41.4697C570.39 41.4073 570.305 41.3507 570.225 41.2883C568.197 40.7671 566.35 39.9398 564.939 38.3533C564.202 38.189 563.415 38.1323 562.452 38.1663C559.647 38.2683 556.876 38.7613 554.054 38.8179C551.125 38.8803 548.196 38.4326 545.289 38.1323C539.606 37.5431 533.968 37.6677 528.268 37.4184C523.356 37.2031 516.936 36.9878 512.703 34.0244C512.426 34.0527 512.154 34.0754 511.876 34.1037C508.658 38.6706 505.36 43.3678 501.456 47.2037C497.858 50.7337 494.272 52.5185 489.166 52.5299C484.135 52.5412 479.177 51.51 474.327 50.2011C474.191 50.2294 474.055 50.2634 473.925 50.2918C470.004 51.136 466.032 50.8244 462.054 50.7847C457.714 50.745 453.657 49.3002 449.713 47.6287C448.07 46.9318 445.894 45.6116 443.73 44.7503C440.54 44.5293 437.35 44.348 434.149 44.2404C421.921 43.8154 409.665 42.9598 397.506 41.498C391.426 40.7671 385.494 39.6848 379.505 38.5403C377.958 38.5176 376.411 38.5063 374.87 38.512C362.864 38.5403 350.914 39.3789 338.919 39.4355C335.989 40.7727 332.998 41.7133 329.808 41.447C329.32 47.929 328.952 54.4223 328.606 60.91C327.292 85.5915 326.714 110.347 325.037 135.005C324.204 147.301 323.008 159.562 322.141 171.852C321.292 183.875 321.246 195.922 320.515 207.951C319.796 219.878 320.674 231.743 320.595 243.681C320.555 249.755 319.886 255.869 320.011 261.926C320.13 267.79 320.759 273.632 321.252 279.474C322.204 290.84 322.136 302.274 323.558 313.601C324.261 319.176 324.94 324.74 325.235 330.349C325.456 334.537 326.266 338.503 324.606 342.09C325.915 345.943 324.04 349.954 320.226 352.192C317.971 353.518 315.387 354.527 313.019 355.654C310.413 356.895 307.755 358.023 305.075 359.094C299.749 361.224 294.247 362.85 288.887 364.873C283.402 366.941 277.974 369.185 272.557 371.417C261.928 375.792 251.644 380.914 241.264 385.854C230.623 390.914 220.067 396.099 210.134 402.467C200.536 408.621 191.034 415.233 180.438 419.59C170.727 423.579 160.737 426.877 151.49 431.92C141.359 437.444 131.098 442.821 121.041 448.482C116.111 451.258 111.618 454.539 107.017 457.802C104.586 459.525 101.94 460.364 99.2999 461.684C97.0731 462.794 94.988 464.143 92.8179 465.355C88.353 467.848 83.9108 470.194 79.7519 473.209C75.8366 476.047 72.5333 479.515 68.8786 482.654C62.7989 487.878 55.62 492.36 50.7075 498.802C46.3616 504.514 44.7298 513.007 49.7103 519.002C52.8719 522.815 57.1612 523.472 61.3087 525.597C66.1362 528.073 68.4707 532.855 69.6889 537.904C72.1876 548.29 77.3211 557.985 82.5679 567.226C85.1856 571.838 87.7694 576.654 91.0387 580.842C93.9681 584.593 96.7275 588.921 100.835 591.488C103.062 592.876 103.646 595.075 103.192 597.047C131.036 605.24 158.794 613.699 186.376 622.691C210.378 630.516 234.317 638.545 258.398 646.12C270.149 649.815 281.731 653.668 293.658 656.818C299.239 658.291 304.73 659.951 310.26 661.589C315.24 663.062 320.294 664.314 324.844 666.904C326.691 667.958 327.502 669.895 327.451 671.816C327.785 671.374 328.125 670.932 328.465 670.49C328.867 670.4 329.264 670.315 329.666 670.207C329.802 670.15 329.944 670.088 330.08 670.031C331.53 671.595 333.236 672.915 335.196 673.969C337.236 674.831 339.276 675.692 341.315 676.553C342.222 676.746 343.123 676.933 344.03 677.125C347.678 677.715 351.322 677.539 354.971 676.559C357.016 675.698 359.056 674.836 361.101 673.969C362.495 673.142 363.787 672.213 364.977 671.182C364.535 672.995 364.11 674.808 363.668 676.621C363.175 678.191 362.886 679.766 362.784 681.335C366.286 682.168 369.782 683.018 373.272 683.913C379.947 685.619 386.656 687.171 393.341 688.786C395.438 689.154 397.54 689.517 399.637 689.885C400.056 689.778 400.498 689.715 400.974 689.715C418.312 689.783 435.407 692.73 452.637 694.226C461.522 694.996 470.474 696.107 479.387 695.268C483.296 694.9 487.62 694.254 491.688 694.69C500.102 690.095 508.386 685.285 516.301 679.862C524.511 674.236 531.792 667.629 539.634 661.549C548.995 654.297 559.5 648.342 570.429 643.378C579.863 636.89 589.371 630.505 598.935 624.21C618.761 611.161 639.074 598.882 658.786 585.669C666.747 580.332 674.589 574.836 682.363 569.232C694.704 559.089 706.988 548.873 719.448 538.873C719.878 537.989 720.263 537.071 720.598 536.119C723.266 528.515 724.377 520.282 729.471 513.806C730.088 513.024 730.865 512.571 731.709 512.367C731.726 512.237 731.749 512.106 731.766 511.976C731.998 506.604 732.429 501.239 732.91 495.879C733.261 491.929 733.193 487.963 733.596 484.008C734.021 479.861 734.644 475.73 735.443 471.633C735.647 470.585 736.174 469.741 736.888 469.106C737.08 467.321 737.301 465.531 737.562 463.752C738.112 460.001 738.809 456.233 739.84 452.584C740.786 449.241 742.492 446.487 744.293 443.564C745.642 441.382 746.401 438.708 747.041 436.266C747.784 433.45 747.631 430.617 748.843 427.897C751.461 422.004 756.373 417.301 760.566 412.513C764.856 407.607 769.547 403.091 773.479 397.889C777.423 392.676 781.146 387.299 784.948 381.979C786.54 379.752 788.183 377.571 789.86 375.406C789.979 374.658 790.098 373.91 790.211 373.162C791.645 363.972 792.767 354.753 793.509 345.478C794.863 328.565 795.583 311.6 796.399 294.659C797.203 277.904 798.099 261.15 798.62 244.384C798.642 243.681 798.665 242.973 798.688 242.27C795.492 240.978 792.716 238.689 790.24 236.321C787.271 233.488 784.007 229.748 784.976 225.346C786.013 220.631 792.897 222.269 792.727 226.66C792.733 226.683 792.738 226.745 792.727 226.864C792.755 227.017 792.829 227.232 793.005 227.465C793.316 227.873 793.577 228.292 793.906 228.694C794.943 229.946 796.166 231.057 797.396 232.117C797.911 232.558 798.433 232.978 798.965 233.363C799.079 229.113 799.141 224.864 799.039 220.609C798.937 216.325 798.909 212.144 799.271 207.877C799.594 204.052 799.889 200.222 800.002 196.386C800.229 188.465 798.45 180.402 797.566 172.543Z" fill="#DAE1E3" stroke="#DAE1E3" stroke-width="0.566609" stroke-miterlimit="10"/>
<path d="M802.711 240.707C802.263 237.284 801.827 233.856 801.221 230.457C801.073 229.641 800.909 228.825 800.756 228.009C800.654 227.034 800.541 226.06 800.399 225.091C800.297 224.128 800.138 223.176 799.946 222.23C798.852 218.229 795.186 214.716 790.954 214.484C788.563 213.844 786.217 214.756 784.058 215.77C781.52 217.175 780.013 219.555 779.089 222.235C778.834 223.187 778.726 224.15 778.726 225.108H778.704C778.715 225.233 778.726 225.357 778.738 225.482C778.749 225.816 778.772 226.156 778.806 226.49C778.981 232.185 779.786 237.857 780.993 243.421C781.497 245.489 781.905 247.693 783.129 249.461C783.435 250.282 783.86 251.053 784.489 251.699C786.16 254.271 790.075 255.892 793.067 255.212C793.911 255.212 794.699 254.997 795.424 254.572C796.58 254.198 797.583 253.552 798.433 252.639C798.507 252.543 798.58 252.447 798.654 252.351C800.053 251.631 801.26 250.554 802.037 249.172C803.685 246.599 803.017 243.551 802.711 240.707Z" fill="#DAE1E3"/>
<path d="M741.302 199.684C740.639 191.763 740.871 183.859 740.888 175.915C740.905 168.317 740.826 160.713 740.333 153.126C739.817 145.182 738.469 137.403 737.432 129.521C735.777 116.892 734.961 104.182 734.871 91.4508C732.797 90.9182 730.74 90.3176 728.7 89.6603C718.156 86.8952 707.747 83.6089 697.293 80.4982C690.007 78.7191 682.697 76.9966 675.416 75.2004C674.482 76.3506 672.98 77.1099 671.127 76.8606C660.203 75.3761 649.477 72.8037 638.649 70.7979C637.363 70.5996 636.082 70.4012 634.796 70.1973C634.315 70.2426 633.816 70.2313 633.312 70.1576C631.935 69.9196 630.53 69.6193 629.113 69.3247C628.189 70.033 626.971 70.4182 625.549 70.1803C621.549 69.523 617.549 68.8714 613.543 68.2595C613.129 68.3785 612.676 68.4408 612.177 68.4351C611.588 68.4294 611.027 68.3785 610.483 68.2935C608.477 68.0442 606.59 67.5059 604.624 66.8373C603.168 66.3443 601.627 66.265 600.142 65.993C600.086 66.027 600.035 66.0667 599.978 66.095C598.295 67.0639 595.819 66.8769 594.471 65.3868C591.745 62.3667 591.026 58.4798 590.221 54.6552C590.068 54.2699 589.921 53.8789 589.796 53.4823C588.017 51.5558 585.609 50.043 583.512 48.7625C579.461 46.2864 575.132 44.3316 571.002 42.0085C570.514 41.7308 570.118 41.3852 569.795 41.0056C567.228 40.9093 564.661 40.7449 562.117 40.5863C558.123 41.0056 554.003 40.7336 549.946 40.0877C544.008 39.929 538.099 39.7534 532.166 38.9375C531.679 38.8695 531.237 38.7221 530.84 38.5068C528.291 38.6598 525.741 38.8411 523.191 39.0451C520.188 38.9601 517.179 38.8978 514.171 38.8808C511.168 38.8581 508.159 38.8241 505.156 38.7901C505.184 39.9687 504.731 41.1812 503.587 42.0595C502 43.2777 501.003 45.1305 499.671 46.5923C499.569 46.7057 499.45 46.8133 499.337 46.9266C500.21 47.5159 500.816 48.3545 501.144 49.3234C501.394 49.6634 501.575 50.043 501.677 50.4679C501.728 50.8306 501.773 51.1989 501.824 51.5615C501.796 52.8024 501.36 54.0036 500.459 54.8818C499.564 55.7544 498.328 56.304 497.071 56.304C496.651 56.304 496.238 56.2417 495.835 56.134C494.611 56.168 493.461 55.5674 492.583 54.7628C491.722 53.9696 491.212 52.5984 491.212 51.4482C491.212 51.3405 491.223 51.2272 491.229 51.1139C489.387 51.2215 487.512 50.8759 485.591 50.383C476.752 48.1222 467.975 46.1221 458.955 44.6715C457.295 44.4052 455.634 44.1446 453.974 43.8896C453.068 45.3571 451.362 46.3884 449.175 46.0201C444.909 45.3061 440.636 44.6035 436.353 43.9519C435.259 44.2296 434.166 44.5186 433.078 44.8189C433.095 44.3712 433.112 43.918 433.129 43.4703C427.803 42.6997 422.465 42.0311 417.099 41.5552C413.938 41.2776 410.691 41.1869 407.439 41.0792C406.934 41.2776 406.379 41.3795 405.773 41.3399C382.429 39.9234 358.982 40.3596 335.604 40.3596C334.38 40.7336 333.179 40.9263 331.978 40.9603C331.456 43.238 330.93 45.5101 330.414 47.7879C330.029 50.3263 329.706 52.876 329.309 55.3918C329.87 56.2417 330.182 57.2276 330.068 58.2532C328.714 70.2936 326.827 82.266 324.748 94.2045C324.396 98.1481 324.034 102.086 323.609 106.024C325.071 106.902 326.176 108.46 326.312 110.596C326.816 118.478 326.164 126.331 325.161 134.15C324.215 141.516 323.586 148.837 323.037 156.248C321.076 182.828 320.221 209.566 320.385 236.214C320.47 249.863 321.008 263.502 321.122 277.151C321.139 279.157 321.144 281.18 321.161 283.203C321.427 283.509 321.66 283.86 321.835 284.262C323.473 287.934 323.79 291.549 324.408 295.481C325.076 299.759 325.768 304.048 326.125 308.366C326.147 308.672 326.176 308.978 326.198 309.278C326.357 309.414 326.51 309.556 326.674 309.686C326.731 310.06 326.788 310.428 326.856 310.819C327.955 318.848 329.06 326.877 330.159 334.906C330.952 338.237 332.476 341.138 334.743 343.614C336.55 346.402 338.941 348.601 341.927 350.21C343.967 351.071 346.007 351.932 348.041 352.793C348.806 353.031 349.571 353.218 350.336 353.366C350.54 354.159 350.744 354.947 350.953 355.734C347.831 354.442 344.415 354.221 341.14 353.507C337.123 352.969 333.06 351.989 328.997 352.351C325.048 352.833 321.048 353.173 317.218 354.278C313.801 355.27 310.52 356.669 307.217 357.972C303.421 359.587 299.511 360.998 295.879 362.964C294.355 363.848 293.006 364.987 291.584 366.018C290.389 366.908 289.182 367.786 287.975 368.664C291.936 367.129 295.896 365.61 299.828 364.035C304.548 362.142 309.302 360.233 313.926 358.131C316.294 357.054 318.674 355.904 321.24 355.383C322.47 355.134 323.541 355.105 324.765 355.173C325.303 355.202 326.402 355.473 326.935 355.19C330.601 353.252 335.27 355.638 335.27 359.972C335.27 360.193 335.27 360.409 335.27 360.624C335.27 364.568 331.898 366.324 328.873 365.91C327.315 366.12 325.762 366.058 323.949 366.188C321.824 366.341 319.745 367.61 317.812 368.443C312.333 370.812 306.809 373.101 301.262 375.305C289.947 379.804 278.626 384.07 267.736 389.544C257.871 394.507 248.159 399.765 238.289 404.723C228.832 409.471 219.228 414.01 209.868 418.945C209.505 419.138 209.143 419.336 208.774 419.529C207.182 420.475 205.584 421.421 203.992 422.362C197.346 426.045 190.677 429.694 183.991 433.297C183.64 433.496 183.288 433.694 182.931 433.886C181.18 434.861 179.407 435.79 177.634 436.703C174.37 438.442 171.101 440.17 167.82 441.881C163.468 444.193 159.06 446.397 154.624 448.545C154.539 448.596 154.454 448.641 154.369 448.686C145.348 453.973 136.73 459.928 127.625 465.073C118.48 470.24 108.955 474.535 99.4698 479.011C90.5684 483.215 81.123 487.471 74.0857 494.502C70.3065 498.282 67.5131 502.656 65.0483 507.251C65.1503 509.166 65.6829 510.962 66.6575 512.639C67.2185 514.645 68.2327 516.39 69.6945 517.875C92.8348 524.907 116.066 531.559 139.263 538.397C151.082 541.882 162.817 545.69 174.67 549.061C178.546 550.166 182.28 551.475 186.014 552.869C197.793 549.951 209.494 546.71 221.024 542.919C253.264 532.879 285.21 521.841 317.716 512.707C351.31 503.177 384.99 493.941 418.669 484.717C431.372 481.38 443.9 477.289 456.841 474.954C493.546 467.662 530.211 460.143 567.052 453.57C621.849 443.779 676.737 434.487 731.794 426.288C731.233 412.984 731.97 399.703 733.505 386.478C733.726 384.58 734.582 382.858 736.021 381.855C736.214 379.753 736.485 377.656 736.667 375.548C736.848 373.492 736.65 371.384 736.559 369.304C736.338 364.194 736.74 359.185 736.74 354.091C736.74 344.861 735.755 334.821 738.174 325.783C738.055 323.993 737.93 322.197 737.806 320.406C737.993 302.122 738.803 283.843 739.704 265.575C739.936 265.354 740.157 265.122 740.378 264.89C739.143 258.821 740.593 252.526 740.763 246.311C740.99 238.151 741.783 230.077 742.191 221.935C742.571 214.513 741.919 207.084 741.302 199.684ZM414.459 361.355C414.493 360.426 414.504 359.502 414.504 358.573C414.867 358.613 415.224 358.646 415.587 358.686C415.213 359.576 414.833 360.465 414.459 361.355Z" fill="#C0C3C4"/>
<path d="M748.645 130.575C748.702 128.818 748.758 127.062 748.815 125.3C748.35 122.637 747.744 119.99 747.115 117.35C747.512 121.775 748.027 126.184 748.645 130.575Z" fill="#C0C3C4"/>
<path d="M326.006 381.792C324.652 388.24 326.946 395.555 327.915 401.964C328.986 409.029 330 416.1 330.964 423.177C331.451 426.775 336.913 425.24 336.426 421.67C335.559 415.318 334.658 408.972 333.706 402.632C333.247 399.555 332.771 396.473 332.289 393.396C331.774 390.121 330.771 386.597 331.468 383.299C332.222 379.741 326.759 378.217 326.006 381.792Z" fill="black"/>
<path d="M176.789 531.297C214.423 507.693 252.635 485.017 291.397 463.321C302.287 457.225 313.229 451.207 324.204 445.264C327.411 443.524 324.555 438.634 321.342 440.374C282.28 461.525 243.74 483.64 205.783 506.724C195.119 513.211 184.501 519.773 173.928 526.402C170.846 528.334 173.69 533.241 176.789 531.297Z" fill="black"/>
<path d="M325.122 446.164C333.502 443.246 342.319 443.637 350.959 445.071C359.906 446.555 368.762 448.669 377.635 450.516C395.948 454.329 414.284 458.046 432.63 461.672C469.33 468.925 506.108 475.804 542.949 482.314C563.579 485.957 584.232 489.482 604.902 492.893C608.472 493.482 610.002 488.02 606.409 487.43C568.945 481.249 531.543 474.687 494.209 467.735C457.063 460.822 419.984 453.525 382.99 445.853C372.836 443.745 362.7 441.308 352.467 439.609C342.851 438.011 332.964 437.45 323.615 440.702C320.193 441.892 321.666 447.366 325.122 446.164Z" fill="black"/>
<path d="M70.1591 505.267C101.266 483.827 133.846 464.613 167.095 446.697C200.247 428.838 234.056 412.236 267.923 395.793C287.397 386.336 306.764 376.239 327.473 369.718C330.941 368.624 329.456 363.156 325.966 364.256C307.642 370.024 290.406 378.608 273.169 386.965C256.148 395.221 239.139 403.488 222.203 411.913C188.201 428.832 154.493 446.391 121.777 465.696C103.232 476.637 85.0269 488.15 67.2977 500.372C64.3174 502.434 67.1448 507.347 70.1591 505.267Z" fill="black"/>
<path d="M326.601 371.23C331.247 368.023 337.712 370.029 342.823 370.873C349.259 371.944 355.69 373.032 362.121 374.143C374.609 376.302 387.086 378.545 399.546 380.851C424.834 385.543 450.07 390.523 475.262 395.725C525.656 406.134 575.863 417.42 625.997 429.025C654.333 435.586 682.646 442.244 710.96 448.907C714.507 449.74 716.02 444.278 712.467 443.445C661.466 431.444 610.466 419.449 559.33 408.043C508.204 396.643 456.949 385.832 405.456 376.211C391.166 373.542 376.859 370.964 362.529 368.494C355.18 367.225 347.831 365.978 340.471 364.771C334.845 363.848 328.748 362.884 323.745 366.335C320.759 368.397 323.592 373.31 326.601 371.23Z" fill="black"/>
<path d="M709.849 447.672C677.462 465.197 646.842 485.714 616.721 506.832C586.419 528.074 556.542 549.945 525.492 570.099C508.091 581.397 490.322 592.135 472.01 601.892C468.791 603.608 471.647 608.498 474.871 606.781C507.36 589.466 538.053 569.074 568.203 548.001C598.539 526.799 628.399 504.894 659.376 484.626C676.742 473.266 694.46 462.438 712.716 452.562C715.918 450.828 713.062 445.938 709.849 447.672Z" fill="black"/>
<path d="M473.704 602.452C466.661 603.756 459.476 602.968 452.473 601.778C445.521 600.594 438.597 599.257 431.661 597.982C418.08 595.489 404.498 592.979 390.928 590.44C363.413 585.296 335.927 580.003 308.509 574.377C253.927 563.169 199.59 550.608 146.051 535.134C131.064 530.799 116.145 526.244 101.306 521.422C93.9738 519.042 86.6192 516.662 79.3553 514.073C76.7829 513.155 73.0036 511.863 71.8308 509.109C71.1225 507.438 71.6891 504.44 73.8989 504.582C77.5422 504.809 77.5252 499.143 73.8989 498.916C68.9241 498.604 65.7057 503.477 65.8814 508.067C66.091 513.495 70.9695 516.793 75.5194 518.657C82.228 521.405 89.2936 523.45 96.1779 525.705C103.074 527.966 109.986 530.17 116.921 532.323C145.331 541.145 174.019 549.061 202.87 556.308C260.664 570.824 319.093 582.644 377.635 593.693C394.061 596.792 410.504 599.835 426.941 602.855C434.948 604.328 442.943 605.875 450.966 607.24C459.04 608.611 467.091 609.416 475.205 607.915C478.792 607.252 477.273 601.79 473.704 602.452Z" fill="black"/>
<path d="M325.547 349.552C283.646 368.568 241.819 387.764 200.576 408.179C180.127 418.299 159.831 428.719 139.75 439.553C119.771 450.335 99.7701 461.305 80.5281 473.368C70.5558 479.623 60.2888 486.451 52.1013 494.995C45.5003 501.885 40.9901 513.257 48.8377 521.093C51.4214 523.671 55.4273 519.665 52.8436 517.087C45.3644 509.614 55.0364 499.658 60.6288 494.763C68.6067 487.788 77.4401 481.884 86.4605 476.354C104.96 465.016 123.993 454.483 143.087 444.182C181.668 423.376 221.058 404.117 260.744 385.532C283.221 375.004 305.8 364.698 328.402 354.442C331.723 352.941 328.844 348.057 325.547 349.552Z" fill="black"/>
<path d="M48.0162 521.586C58.2264 529.354 70.3292 533.921 82.5283 537.53C96.0872 541.536 109.816 545.01 123.471 548.687C151.836 556.325 180.217 563.889 208.672 571.176C265.526 585.732 322.702 599.172 380.434 609.767C412.771 615.705 445.271 620.731 477.919 624.607C481.534 625.037 481.5 619.366 477.919 618.941C420.097 612.073 362.79 601.455 305.97 588.791C249.179 576.133 192.858 561.447 136.673 546.364C121.296 542.239 105.907 538.142 90.5571 533.915C76.5619 530.062 62.5667 525.586 50.8719 516.69C47.9765 514.486 45.1491 519.404 48.0162 521.586Z" fill="black"/>
<path d="M476.956 623.819C487.047 625.23 496.107 618.493 504.318 613.524C513.582 607.92 522.636 601.971 531.611 595.919C550.032 583.505 568.327 570.909 586.68 558.393C622.07 534.255 657.699 510.39 691.871 484.535C710.948 470.104 729.562 455.043 747.319 439.003C750.033 436.555 746.016 432.555 743.313 434.997C712.501 462.817 679.162 487.618 645.171 511.398C610.2 535.865 574.764 559.679 539.504 583.726C529.662 590.435 519.803 597.132 509.74 603.501C504.862 606.589 499.932 609.597 494.94 612.493C490.067 615.32 484.39 619.179 478.463 618.351C474.899 617.853 473.352 623.315 476.956 623.819Z" fill="black"/>
<path d="M740.95 446.527C741.494 445.74 742.101 445.57 742.996 445.4C742.078 443.819 741.16 442.244 740.242 440.663C735.59 445.915 733.063 452.131 731.392 458.874C729.522 466.404 728.139 474.07 727.006 481.748C724.762 496.927 723.561 512.231 722.394 527.524C722.116 531.162 727.782 531.145 728.06 527.524C729.165 513.104 730.241 498.655 732.315 484.331C733.329 477.328 734.565 470.353 736.134 463.446C737.681 456.658 739.54 449.989 744.254 444.669C746.18 442.493 744.293 439.394 741.5 439.932C739.137 440.385 737.42 441.722 736.072 443.666C733.975 446.669 738.882 449.502 740.95 446.527Z" fill="black"/>
<path d="M721.72 521.937C721.975 530.119 715.198 536.102 709.345 540.839C701.684 547.038 693.831 553.021 685.972 558.965C670.26 570.858 654.293 582.411 638.151 593.71C605.837 616.323 572.815 637.899 539.6 659.164C530.387 665.063 521.163 670.933 511.933 676.797C507.241 679.777 502.561 682.769 497.858 685.733C493.303 688.6 488.039 691.954 482.447 690.492C478.917 689.568 477.409 695.031 480.939 695.954C490.657 698.493 499.365 691.484 507.071 686.588C515.848 681.013 524.625 675.437 533.39 669.845C550.774 658.756 568.112 647.594 585.343 636.268C619.923 613.53 654.067 590.089 687.106 565.153C696.041 558.41 704.999 551.65 713.668 544.573C720.637 538.885 727.669 531.564 727.369 521.937C727.273 518.3 721.606 518.283 721.72 521.937Z" fill="black"/>
<path d="M487.84 691.744C436.007 688.888 385.528 678.231 335.525 664.74C285.431 651.226 235.411 637.106 185.849 621.74C172.126 617.484 158.442 613.088 144.821 608.509C138.175 606.271 131.557 603.937 124.916 601.682C118.717 599.574 111.867 597.653 106.807 593.307C104.054 590.944 100.031 594.933 102.801 597.313C107.113 601.019 112.303 603.206 117.596 605.132C123.381 607.234 129.234 609.172 135.053 611.167C147.507 615.433 160.018 619.541 172.574 623.513C197.516 631.417 222.617 638.812 247.768 646.013C298.412 660.518 349.118 675.873 400.809 686.242C429.525 692.005 458.598 695.795 487.846 697.405C491.484 697.609 491.472 691.942 487.84 691.744Z" fill="black"/>
<path d="M113.533 596.056C101.181 592.118 92.1321 583.103 86.8343 571.431C80.7206 557.957 76.3521 543.542 71.5756 529.558C70.4027 526.125 64.9292 527.604 66.1135 531.066C68.7595 538.817 71.4113 546.562 74.182 554.268C76.828 561.617 79.3891 569.108 82.8114 576.145C88.7212 588.293 99.1468 597.421 112.031 601.523C115.51 602.628 117.001 597.16 113.533 596.056Z" fill="black"/>
<path d="M474.565 635.984C477.205 650.823 480.004 665.629 482.962 680.406C483.676 683.981 489.138 682.469 488.424 678.899C485.466 664.122 482.667 649.316 480.027 634.477C479.387 630.89 473.925 632.409 474.565 635.984Z" fill="black"/>
<path d="M743.636 446.187C746.361 443.167 747.801 439.626 747.857 435.547C747.874 434.289 746.962 433.161 745.778 432.815C692.092 417.143 637.873 403.301 583.235 391.351C528.597 379.401 473.551 369.333 418.221 361.168C387.233 356.595 356.155 352.618 325.014 349.229C321.394 348.833 321.422 354.504 325.014 354.895C380.366 360.918 435.503 368.834 490.305 378.642C545 388.433 599.355 400.088 653.251 413.59C683.746 421.228 714.087 429.467 744.265 438.278C743.574 437.365 742.877 436.459 742.186 435.547C742.152 438.091 741.336 440.289 739.624 442.182C737.188 444.879 741.183 448.896 743.636 446.187Z" fill="black"/>
<path d="M366.348 335.324C373.233 329.205 381.839 324.984 389.738 320.338C398.333 315.284 406.923 310.224 415.519 305.17C418.658 303.322 415.813 298.421 412.657 300.28C403.739 305.527 394.826 310.773 385.908 316.02C377.873 320.746 369.346 325.097 362.342 331.324C359.611 333.744 363.629 337.744 366.348 335.324Z" fill="black"/>
<path d="M421.026 108.891C418.646 156.447 417.711 204.07 418.255 251.676C418.408 265.173 418.686 278.664 419.071 292.155C419.173 295.793 424.845 295.81 424.737 292.155C423.372 244.56 423.451 196.931 425.009 149.341C425.451 135.85 426.012 122.365 426.692 108.885C426.873 105.248 421.207 105.259 421.026 108.891Z" fill="black"/>
<path d="M359.725 67.3863C367.419 72.3158 375.114 77.2453 382.814 82.1805C386.582 84.5942 390.35 87.008 394.123 89.4274C396.01 90.6343 397.891 91.8412 399.778 93.048C401.008 93.8356 404.742 95.4448 405.286 96.884C406.56 100.261 412.04 98.7991 410.748 95.3768C409.224 91.3369 404.657 89.4501 401.223 87.2516C396.985 84.5319 392.741 81.8179 388.503 79.0981C379.862 73.5624 371.227 68.0266 362.586 62.4965C359.509 60.5247 356.659 65.4259 359.725 67.3863Z" fill="black"/>
<path d="M434.812 102.409C471.981 103.423 508.788 108.925 545.408 115.056C580.594 120.948 615.894 126.66 650.61 134.961C670.113 139.624 689.406 145.176 708.24 152.078C711.668 153.336 713.147 147.862 709.747 146.616C676.057 134.269 640.989 126.348 605.769 119.809C569.766 113.123 533.577 106.789 497.274 102.012C476.548 99.2868 455.719 97.315 434.812 96.7484C431.163 96.6464 431.168 102.313 434.812 102.409Z" fill="black"/>
<path d="M439.849 310.303C512.635 320.887 585.116 333.426 657.251 347.773C676.889 351.677 696.602 355.484 716.62 356.753C720.263 356.986 720.246 351.314 716.62 351.087C698.574 349.943 680.788 346.668 663.07 343.166C645.171 339.631 627.272 336.112 609.338 332.752C573.733 326.089 538.036 319.884 502.266 314.15C481.987 310.898 461.68 307.798 441.35 304.841C437.786 304.319 436.245 309.776 439.849 310.303Z" fill="black"/>
<path d="M732.049 413.392C735.466 373.848 738.871 334.293 740.979 294.648C743.081 255.104 743.897 215.458 742.101 175.886C741.092 153.619 739.234 131.396 736.361 109.287C735.896 105.723 730.224 105.678 730.695 109.287C735.789 148.536 737.63 188.131 737.403 227.686C737.171 267.36 734.905 306.988 731.913 346.543C730.224 368.839 728.304 391.113 726.383 413.386C726.071 417.024 731.737 417.001 732.049 413.392Z" fill="black"/>
<path d="M743.273 99.4908C744.339 110.03 746.628 120.365 748.305 130.813C750.044 141.641 750.945 152.588 751.427 163.54C752.384 185.372 751.869 207.277 751.716 229.12C751.404 273.434 750.781 317.771 748.214 362.023C746.775 386.835 744.707 411.613 741.772 436.294C741.341 439.909 747.013 439.875 747.438 436.294C752.651 392.484 755.076 348.402 756.254 304.309C756.844 282.245 757.127 260.17 757.308 238.1C757.49 216.02 757.943 193.899 757.371 171.824C757.059 159.744 756.305 147.67 754.696 135.686C753.07 123.577 750.163 111.662 748.934 99.4965C748.577 95.8928 742.911 95.8588 743.273 99.4908Z" fill="black"/>
<path d="M749.104 113.52C756.985 121.05 764.867 128.581 772.748 136.116C776.488 139.692 780.273 143.227 783.967 146.854C787.344 150.168 790.398 153.63 792.279 158.022C793.713 161.365 798.591 158.481 797.169 155.16C793.294 146.111 784.488 139.499 777.553 132.87C769.405 125.085 761.258 117.294 753.104 109.509C750.469 106.993 746.458 110.993 749.104 113.52Z" fill="black"/>
<path d="M792.404 157.285C796.869 213.169 796.671 269.405 791.741 325.25C790.325 341.268 788.528 357.252 786.336 373.185C785.843 376.749 791.305 378.296 791.798 374.693C799.521 318.525 802.586 261.767 800.756 205.095C800.24 189.14 799.334 173.201 798.064 157.29C797.781 153.675 792.115 153.647 792.404 157.285Z" fill="black"/>
<path d="M786.126 373.837C784.313 378.46 780.726 382.24 777.57 385.979C774.233 389.946 770.833 393.861 767.383 397.731C760.357 405.601 753.098 413.256 745.636 420.712C743.052 423.291 747.058 427.302 749.642 424.718C757.609 416.758 765.343 408.57 772.811 400.133C776.482 395.986 780.097 391.781 783.639 387.521C786.795 383.724 789.769 379.979 791.582 375.344C792.92 371.944 787.44 370.471 786.126 373.837Z" fill="black"/>
<path d="M752.679 110.693C750.005 107.117 749.495 102.505 746.611 98.9866C743.948 95.7342 740.276 93.5471 736.446 91.9323C726.621 87.7847 715.6 85.8526 705.254 83.4332C682.414 78.0844 659.342 73.7272 636.122 70.3785C622.994 68.486 609.82 66.9052 596.612 65.6416C592.986 65.296 593.009 70.9621 596.612 71.3077C618.982 73.4552 641.261 76.5149 663.376 80.5208C685.032 84.4417 706.784 88.9406 727.964 94.9863C732.446 96.2669 737.233 97.8364 740.746 101.038C744.543 104.494 744.826 109.599 747.784 113.56C749.942 116.444 754.866 113.622 752.679 110.693Z" fill="black"/>
<path d="M595.774 68.701C594.867 64.1964 593.966 59.6919 593.06 55.1874C592.317 51.4931 591.615 47.9064 588.005 45.9856C584.238 43.9855 579.71 42.9259 575.642 41.7021C571.194 40.3649 566.695 39.1807 562.168 38.1438C553.386 36.138 544.467 34.6988 535.503 33.8092C530.88 33.3503 526.239 33.033 521.599 32.897C517.667 32.778 513.678 32.8913 510.034 34.5345C502.725 37.8321 499.858 46.0196 497.773 53.1589C496.747 56.6662 502.215 58.1621 503.235 54.6661C505.496 46.9205 508.454 39.022 517.695 38.5461C527.52 38.0418 537.832 39.464 547.51 41.0335C557.386 42.6313 567.154 44.9431 576.702 47.9404C579.081 48.6884 581.501 49.4023 583.818 50.3202C586.527 51.3854 586.844 52.9549 587.394 55.6406C588.379 60.4908 589.343 65.341 590.312 70.1912C591.025 73.7835 596.488 72.2706 595.774 68.701Z" fill="black"/>
<path d="M499.433 51.5725C456.315 45.4531 412.765 40.8579 369.227 39.1977C357.073 38.7331 344.891 38.8351 332.816 40.4443C329.252 40.9202 329.207 46.592 332.816 46.1103C353.923 43.2943 375.369 44.9715 396.52 46.4107C417.995 47.8725 439.435 49.8273 460.813 52.2751C473.205 53.6972 485.58 55.2837 497.926 57.0402C501.49 57.5445 503.031 52.0881 499.433 51.5725Z" fill="black"/>
<path d="M330.136 43.8495C327.921 53.0059 328.249 62.9952 327.7 72.3612C327.116 82.2769 326.538 92.1869 325.989 102.103C324.872 122.126 323.858 142.15 323.071 162.191C321.496 202.03 320.804 241.919 321.994 281.78C322.663 304.218 323.938 326.638 325.96 348.997C326.283 352.6 331.955 352.634 331.626 348.997C328.074 309.674 326.856 270.181 327.088 230.711C327.32 190.992 328.997 151.301 331.134 111.65C331.728 100.612 332.357 89.5748 333.003 78.5373C333.321 73.1148 333.644 67.6924 333.967 62.2699C334.301 56.6492 334.273 50.8528 335.604 45.3623C336.46 41.8154 330.998 40.3025 330.136 43.8495Z" fill="black"/>
<path d="M344.964 341.614C342.211 267.728 342.199 193.74 344.97 119.849C345.758 98.8447 346.772 77.8518 348.007 56.8703C348.222 53.227 342.556 53.2384 342.341 56.8703C338.006 130.682 336.414 204.653 337.61 278.584C337.95 299.6 338.516 320.61 339.298 341.614C339.434 345.251 345.1 345.268 344.964 341.614Z" fill="black"/>
<path d="M347.894 57.42C398.469 55.9128 448.824 62.1512 498.629 70.3443C548.666 78.5771 598.556 87.8129 648.451 96.8503C662.294 99.3547 676.13 101.882 689.967 104.437C696.976 105.729 703.985 107.032 710.988 108.341C714.49 108.998 717.991 109.65 721.499 110.313C723.34 110.659 725.187 111.01 727.029 111.355C727.765 111.497 728.502 111.627 729.238 111.775C729.607 111.843 729.975 111.916 730.343 111.984C731.726 112.534 732.134 111.599 731.562 109.18C732.287 109.276 733.018 109.372 733.743 109.463C733.618 109.378 733.494 109.299 733.375 109.214C730.332 107.185 727.493 112.086 730.513 114.104C734.616 116.846 738.282 110.37 734.4 107.537C732.253 105.967 728.842 105.939 726.32 105.463C723 104.839 719.685 104.216 716.365 103.593C703.089 101.106 689.814 98.6464 676.527 96.2157C649.959 91.3485 623.373 86.572 596.788 81.8295C544.031 72.4181 491.274 62.0775 437.99 56.0488C408.09 52.6661 377.992 50.8473 347.894 51.7426C344.256 51.8615 344.239 57.5276 347.894 57.42Z" fill="black"/>
<path d="M342.528 344.657C395.177 352.26 447.662 361.026 499.926 370.97C552.185 380.914 604.222 392.025 655.987 404.292C670.368 407.703 684.726 411.199 699.061 414.786C706.41 416.622 713.747 418.486 721.085 420.372C723.98 421.115 727.142 422.067 729.918 420.423C732.213 419.064 733.392 416.678 733.42 414.066C733.46 410.417 727.794 410.417 727.754 414.066C727.72 417.245 722.178 414.803 720.445 414.361C717.226 413.534 714.002 412.712 710.778 411.896C704.512 410.31 698.239 408.74 691.967 407.182C679.598 404.116 667.206 401.125 654.803 398.195C629.997 392.337 605.123 386.739 580.198 381.412C530.16 370.721 479.897 361.105 429.446 352.572C401.036 347.767 372.564 343.314 344.041 339.194C340.471 338.679 338.93 344.141 342.528 344.657Z" fill="black"/>
</svg>
