<svg width="980" height="735" viewBox="0 0 980 735" fill="none" xmlns="http://www.w3.org/2000/svg">
<path d="M866.928 300.495C865.229 299.124 863.557 297.725 861.937 296.268C858.707 293.362 855.84 290.115 852.746 287.072C851.715 286.058 850.672 285.055 849.63 284.052C833.317 280.59 816.631 279.151 800.04 277.684C774.107 275.53 748.071 275.734 722.098 276.93C716.001 277.491 709.91 278.086 703.819 278.686C700.459 278.686 697.104 278.737 693.744 278.868C676.582 279.831 659.521 282.114 642.523 284.613C627.434 286.965 612.362 289.599 597.41 292.755C590.52 293.611 583.635 294.461 576.745 295.299C554.755 298.552 532.811 302.133 510.866 305.719C501.794 305.872 492.729 306.008 483.657 306.224C454.131 308.62 424.605 311.096 395.085 313.544C387.198 314.156 379.311 314.813 371.44 315.612C371.197 315.465 370.942 315.329 370.675 315.21C367.905 313.482 365.202 311.64 362.324 310.094C358.686 308.178 354.912 306.473 351.003 305.187C343.053 302.909 334.764 302.15 326.582 301.153C319.93 300.388 313.255 299.77 306.586 299.181C293.656 298.665 280.709 298.557 267.768 298.263C265.23 298.212 262.685 298.172 260.147 298.127C255.796 297.634 251.433 297.237 247.064 296.926C245.506 296.631 243.868 296.552 242.344 296.444C242.089 296.365 241.829 296.285 241.574 296.206C236.134 294.472 230.729 292.54 225.085 291.582C217.719 290.489 210.331 289.52 202.88 289.259C189.264 288.71 175.649 289.662 162.061 290.421C156.735 290.693 151.409 291.01 146.094 291.401C143.108 294.382 140.241 297.47 137.357 300.575C133.034 305.221 128.688 309.844 124.246 314.383C119.979 318.74 115.271 322.61 111.214 327.188C110.568 327.919 109.905 328.633 109.236 329.341C109.684 332.174 109.497 335.387 108.755 338.027C109.004 337.138 109.146 336.549 109.225 336.18C109.248 335.619 109.401 335.347 109.225 336.18C109.214 336.396 109.225 336.651 109.282 336.906C109.304 337.16 109.333 337.41 109.355 337.665C109.486 338.265 109.69 339.087 109.673 338.996C109.729 339.268 109.758 339.467 109.775 339.614C109.814 339.705 109.848 339.79 109.894 339.892C110.676 341.739 111.203 343.637 111.854 345.529C113.033 348.935 113.82 352.374 114.84 355.825C115.01 356.408 115.203 356.986 115.401 357.558C115.407 357.575 115.413 357.587 115.418 357.609C115.758 358.295 116.512 359.916 116.744 360.357C117.078 360.992 117.447 361.598 117.821 362.205C118.642 363.049 119.469 363.865 120.37 364.635C122.648 366.596 125 368.426 127.147 370.539C129.889 373.242 132.235 376.296 134.898 379.061C137.074 381.322 139.476 383.401 141.72 385.6C151.823 395.476 161.846 405.324 172.34 414.78C182.578 424.005 194.471 431.693 203.169 442.476C206.025 446.017 208.756 449.661 211.498 453.293C211.793 453.684 212.087 454.075 212.388 454.46C212.422 454.5 212.45 454.539 212.49 454.584C213.459 455.769 214.422 456.959 215.436 458.114C220.15 463.469 224.966 468.738 229.913 473.878C239.777 484.128 250.248 493.471 261.314 502.389C266.867 506.86 272.397 511.364 277.599 516.243C282.517 520.855 286.772 526.051 291.152 531.156C295.396 536.108 299.985 540.652 304.745 545.106C307.028 547.242 309.419 549.327 311.408 551.741C314.44 555.424 316.615 558.999 318.253 563.283C319.018 563.685 319.771 564.104 320.474 564.58C321.154 565.107 321.834 565.629 322.514 566.155C322.61 566.229 322.718 566.308 322.842 566.399C323.681 567 324.514 567.606 325.341 568.218C333.67 574.383 341.098 581.239 348.221 588.741C354.238 595.081 359.27 602.175 364.981 608.764C367.621 611.813 370.432 614.708 373.503 617.326C373.645 617.445 373.792 617.564 373.933 617.683C374.676 618.176 375.401 618.686 376.155 619.167C377.305 619.904 378.466 620.584 379.668 621.201C381.379 621.762 383.124 622.199 384.897 622.533C389.277 622.924 393.663 622.901 398.065 622.947C403.952 623.003 409.834 623.485 415.693 624.04C421.2 624.567 426.747 624.21 432.271 624.097C437.745 623.989 443.167 624.216 448.635 624.335C459.599 624.573 470.631 624.329 481.589 623.955C492.128 623.593 502.735 622.068 513.268 623.179C523.767 624.284 534.023 626.703 544.437 628.295C555.226 629.48 565.833 628.907 576.66 628.12C577.635 628.046 578.604 627.989 579.567 627.944C580.168 627.157 580.763 626.363 581.375 625.587C579.125 628.55 579.488 628.097 582.462 624.222C583.052 623.627 583.726 623.071 584.355 622.516C585.851 621.196 587.341 619.961 588.707 618.499C589.335 617.83 589.953 617.145 590.559 616.453C590.905 615.632 591.2 615.15 591.387 614.935C592.814 612.646 595.024 610.283 596.395 608.623C597.897 606.804 599.427 605.008 600.979 603.24C607.286 596.067 613.745 589.131 619.74 581.681C626.074 573.81 632.443 566.019 639.271 558.563C650.96 545.797 662.932 533.377 673.653 519.762C679.245 512.656 684.871 505.636 690.855 498.854C696.425 492.536 702.516 486.74 708.261 480.581C711.264 477.362 714.46 474.314 717.378 471.027C718.284 470.008 719.106 468.886 719.973 467.82C719.259 468.574 718.823 468.925 720.998 466.631C721.469 466.013 721.933 465.39 722.404 464.772C728.427 456.789 735.13 449.689 742.178 442.618C745.487 439.297 748.592 435.767 751.731 432.283C752.893 430.997 754.049 429.699 755.176 428.379C755.851 427.591 756.496 426.787 757.159 425.993C757.42 425.665 757.601 425.438 757.715 425.296C758.168 424.713 758.615 424.129 759.069 423.546C765.018 416.633 771.517 410.128 777.801 403.527C789.552 391.187 800.845 378.325 812.885 366.279C818.829 360.335 824.954 354.567 830.648 348.379C833.17 345.643 835.448 342.113 838.264 339.671C838.745 339.008 839.216 338.339 839.692 337.676C841.448 335.24 843.244 332.815 845.154 330.497C847.896 327.166 850.865 323.998 853.772 320.814C855.166 319.29 856.508 317.709 857.919 316.202C857.97 316.145 858.016 316.1 858.061 316.049C858.373 315.612 858.684 315.176 858.99 314.734C862.039 310.326 864.753 305.714 867.444 301.079C867.268 300.886 867.098 300.694 866.928 300.495ZM314.587 324.072C314.553 323.919 314.508 323.772 314.474 323.619C314.904 323.698 315.335 323.777 315.76 323.857C315.369 323.925 314.978 323.998 314.587 324.072Z" fill="#F0D5BD"/>
<path d="M867.438 301.085C867.268 300.886 867.098 300.694 866.928 300.495C865.229 299.124 863.557 297.725 861.937 296.268C858.707 293.362 855.84 290.115 852.746 287.072C846.015 280.454 839.08 274.04 832.048 267.74C825.611 261.972 819.01 256.39 812.426 250.792C809.151 248.005 805.871 245.234 802.499 242.565C798.981 242.99 795.315 242.333 792.04 240.452C788.68 238.52 785.507 235.976 782.532 233.528C782.181 233.261 781.829 232.984 781.478 232.718C780.334 231.856 779.189 231.001 778.056 230.139C776.288 228.791 774.543 227.42 772.792 226.054C772.718 226.026 772.605 225.981 772.452 225.907C771.84 225.612 771.262 225.153 770.69 224.791C768.356 223.306 766.021 221.822 763.681 220.354C761.777 219.159 759.868 217.98 757.947 216.813C754.196 215.878 750.519 214.133 747.215 212.218C741.589 208.948 735.685 206.28 730.189 202.733C728.387 202.2 726.613 201.514 724.857 200.693C721.605 199.169 718.556 197.242 715.338 195.639C708.748 192.358 701.87 189.678 695.161 186.658C695.172 186.652 695.178 186.641 695.189 186.635C692.872 186.188 690.549 185.802 688.231 185.468C689.739 185.672 691.246 185.876 692.753 186.074C678.259 184.216 663.884 181.405 649.458 179.088C636.319 176.975 623.151 175.003 609.96 173.218C575.703 168.64 540.516 164.322 506.016 167.818C503.426 168.079 501.018 167.541 498.882 166.453C491.318 167.337 483.635 167.133 476.008 167.093C465.594 167.042 455.208 168.056 444.839 168.929C424.305 170.651 403.72 170.215 383.231 172.753C364.216 175.405 345.178 178.697 326.423 182.754C307.482 186.851 288.613 192.069 270.663 199.441C270.556 199.486 270.442 199.537 270.335 199.582C269.592 200.562 268.862 201.548 268.108 202.517C267.604 203.237 267.173 203.996 266.782 204.784C263.377 205.124 259.966 205.475 256.56 205.843C246.293 210.699 236.168 215.889 226.105 221.153C225.522 223.589 224.337 225.799 222.507 227.216C221.074 228.326 219.646 229.431 218.212 230.536C217.974 230.717 217.81 230.848 217.691 230.938C217.617 230.995 217.544 231.052 217.459 231.114C215.425 232.701 215.442 232.672 217.51 231.035C216.473 231.834 215.436 232.638 214.399 233.437C213.883 233.828 213.362 234.213 212.847 234.599C210.263 236.542 207.475 238.384 204.755 240.129C208.818 237.528 205.396 239.857 203.424 241.217C203.061 241.982 200.115 244.356 199.594 244.837C197.186 247.092 194.539 249.07 192.001 251.172C182.72 258.867 174.085 267.286 164.934 275.123C160.588 278.845 156.05 282.301 151.749 286.081C153.693 285.276 155.642 284.494 157.608 283.741C155.256 285.197 152.922 286.687 150.622 288.228C151.953 287.764 153.285 287.333 154.628 286.919C153.551 287.599 152.486 288.285 151.438 288.999C162.231 286.205 168.776 285.605 175.422 284.664C176.72 284.506 178.017 284.341 179.32 284.285C181.723 284.211 184.102 283.809 186.477 283.463C189.446 283.248 192.426 283.1 195.378 282.743C195.372 282.743 195.367 282.743 195.355 282.743C196.035 282.67 196.721 282.647 197.406 282.624C202.427 282.5 207.435 282.069 212.45 281.871C214.393 281.729 216.343 281.996 218.275 281.786C223.063 281.316 227.839 280.76 232.644 280.522C234.565 280.392 236.491 280.596 238.412 280.63C240.151 280.664 241.897 280.607 243.636 280.704C248.656 281.112 253.693 280.284 258.702 280.789C258.776 280.8 258.85 280.811 258.923 280.823C261.059 281.151 263.212 281.338 265.354 281.599C266.436 281.803 267.524 281.945 268.618 282.047C269.235 282.154 269.853 282.262 270.471 282.369C271.87 282.692 273.27 282.987 274.686 283.191C275.236 283.293 275.791 283.395 276.341 283.503C283.049 284.636 281.667 284.205 285.525 284.857C289.129 285.469 292.653 286.432 296.257 287.038C301.436 289.543 306.875 291.486 312.49 292.727C319.528 294.875 326.718 296.41 333.891 298.025C335.925 298.387 337.954 298.795 340.005 299.073C342.725 299.645 345.461 300.093 348.238 300.274C350.028 300.382 351.807 300.104 353.411 299.277C353.915 298.886 354.419 298.501 354.924 298.11C355.456 297.594 355.898 296.988 356.238 296.325C369.707 298.348 383.288 299.594 396.858 300.779C404.23 301.798 411.602 302.818 419.001 303.544C423.767 303.912 428.498 304.949 433.297 304.428C435.495 304.28 437.717 304.479 439.898 304.144C442.533 303.81 445.145 303.328 447.774 302.949C450.267 302.467 453.236 302.586 455.219 300.779C456.075 300.201 456.738 299.436 457.214 298.569C464.925 299.294 472.631 300.082 480.343 300.835C484.122 301.249 488.02 302.093 491.743 300.881C493.454 300.444 494.893 299.356 495.868 297.951C499.188 297.855 502.503 297.662 505.783 297.107C507.517 296.812 509.2 296.308 510.792 295.566C511.223 295.271 511.642 294.937 512.039 294.569C515.835 294.353 519.631 294.059 523.411 293.594C527.666 293.231 531.915 292.772 536.12 292.03C541.723 291.594 547.327 291.226 552.948 291.146C553.412 291.158 553.877 291.18 554.336 291.197C554.455 291.203 554.58 291.209 554.699 291.209C554.835 291.214 554.971 291.22 555.101 291.226V291.22C556.104 291.22 557.095 291.095 557.991 290.58C559.175 290.183 560.183 289.407 560.954 288.432C561.419 288.398 561.878 288.364 562.342 288.319C567.493 287.747 572.609 286.834 577.726 286.03C580.275 285.616 582.785 285.004 585.29 284.375C587.471 283.882 589.698 283.225 591.636 282.08C599.67 281.508 607.711 280.981 615.751 280.483C617.099 280.409 618.442 280.279 619.779 280.12C623.1 279.922 626.414 279.723 629.735 279.497C631.95 279.321 634.154 279.1 636.353 278.771C637.435 278.613 638.54 278.471 639.56 278.08C642.234 278.018 644.903 277.944 647.577 277.893C649.838 277.882 652.093 277.661 654.348 277.48C655.379 277.519 656.343 277.304 657.238 276.834C657.827 276.63 658.354 276.352 658.836 276.012C659.408 276.052 659.98 276.091 660.558 276.12C662.978 276.125 665.471 275.955 667.794 275.23C669.505 275.344 671.216 275.463 672.927 275.593C685.279 276.817 697.637 277.922 710.012 278.868C717.74 279.406 725.48 279.786 733.18 280.59C734.909 280.704 736.682 280.602 738.342 280.126C739.283 279.814 740.172 279.383 741.079 278.987C742.552 278.001 744.15 277.032 745.011 275.417C745.221 275.032 745.391 274.635 745.55 274.233C753.204 276.023 760.837 277.927 768.492 279.729C777.155 281.78 785.818 283.826 794.471 285.899C805.179 288.03 815.86 290.336 826.637 292.132C830.088 292.795 833.544 293.435 837 294.059C841.646 295.6 846.298 297.107 850.978 298.535C852.01 298.824 853.047 299.141 854.089 299.464C850.842 301.708 847.669 304.048 844.508 306.399C841.119 308.62 837.618 310.706 834.507 313.323C832.076 315.522 829.986 318.072 827.793 320.497C824.88 323.755 821.911 326.956 818.931 330.146C805.927 343.382 792.38 356.08 779.45 369.389C775.296 373.871 771.149 378.359 766.996 382.841C760.468 390.592 753.924 398.326 747.459 406.122C739.861 415.33 731.855 424.197 723.967 433.155C711.292 447.445 698.413 461.548 685.948 476.014C676.599 486.581 668.043 497.873 658.059 507.863C640.784 526.147 623.207 544.165 607.104 563.515C603.467 567.929 599.625 572.184 596.095 576.677C590.684 583.822 585.262 590.967 580.389 598.492C577.108 603.512 573.907 608.577 570.722 613.66C570.371 613.694 570.025 613.728 569.674 613.756C538.295 610.657 506.707 610.816 475.232 609.365C455.429 608.458 435.626 607.416 415.806 607.014C415.132 606.997 414.452 606.985 413.777 606.974C410.723 606.753 407.664 606.532 404.61 606.311C392.813 606.011 381.016 606.096 369.225 605.546C366.896 605.427 364.567 605.421 362.233 605.467C363.134 606.56 364.04 607.654 364.975 608.725C367.616 611.773 370.426 614.668 373.497 617.286C373.639 617.405 373.786 617.524 373.928 617.643C374.67 618.136 375.395 618.646 376.149 619.128C377.299 619.864 378.461 620.544 379.662 621.162C380.177 621.332 380.699 621.485 381.214 621.632C388.104 621.74 395 621.643 401.89 621.762C405.59 621.808 409.29 621.881 412.99 621.961C423.387 622.652 433.773 623.496 444.17 624.188C445.655 624.227 447.139 624.267 448.624 624.301C459.588 624.539 470.62 624.295 481.578 623.921C492.117 623.559 502.724 622.034 513.257 623.145C520.107 623.865 526.855 625.145 533.609 626.392C536.777 626.511 539.95 626.596 543.117 626.584C549.809 626.613 556.483 626.244 563.147 625.746C562.484 626.8 561.81 627.848 561.147 628.896C566.291 628.788 571.442 628.465 576.649 628.086C577.624 628.012 578.593 627.955 579.556 627.91C580.156 627.123 580.751 626.329 581.363 625.553C579.114 628.516 579.476 628.063 582.451 624.188C583.04 623.593 583.715 623.037 584.344 622.482C585.84 621.162 587.33 619.927 588.695 618.465C589.324 617.796 589.942 617.111 590.548 616.419C590.894 615.598 591.188 615.116 591.375 614.901C592.803 612.612 595.013 610.249 596.384 608.589C597.886 606.77 599.415 604.974 600.968 603.206C607.274 596.033 613.734 589.097 619.728 581.647C626.063 573.776 632.432 565.985 639.259 558.529C650.948 545.763 662.921 533.343 673.641 519.728C679.234 512.622 684.86 505.602 690.843 498.82C694.458 494.723 698.289 490.842 702.108 486.938C705.887 482.122 709.966 477.039 715.151 470.852C722.874 461.531 730.778 452.363 738.563 443.094C741.816 439.467 745.346 436.09 748.502 432.374C755.108 424.611 761.477 416.588 768.945 409.618C772.843 405.868 776.696 402.071 780.679 398.411C785.66 393.209 790.499 387.866 795.536 382.716C798.414 380.042 801.304 377.39 804.199 374.738C806.913 371.967 809.661 369.225 812.443 366.522C813.248 365.769 814.058 365.021 814.868 364.267C818.54 360.629 822.257 357.037 825.878 353.343C826.002 353.201 826.133 353.06 826.263 352.912C832.762 345.852 835.408 341.846 839.669 336.396C839.363 336.792 839.063 337.183 838.757 337.58C841.125 334.429 843.981 331.693 846.485 328.65C850.718 323.358 851.817 321.522 855.33 317.556C857.103 315.686 858.934 313.879 860.764 312.065C861.897 310.337 862.985 308.581 864.05 306.807C863.427 307.125 862.798 307.442 862.169 307.754C863.427 306.445 864.656 305.113 865.863 303.759C866.39 302.892 866.917 301.985 867.438 301.085Z" fill="#D7B288"/>
<path d="M698.362 349.637C696.889 348.323 695.081 347.382 693.064 347.444C691.563 347.586 690.022 347.716 688.639 348.374C688.86 347.926 689.075 347.473 689.285 347.02C688.741 347.614 688.191 348.198 687.63 348.782C684.327 350.164 681.296 352.113 678.412 354.221C674.258 357.19 670.162 360.239 666.031 363.242C658.83 368.437 652.268 374.398 645.707 380.364C635.48 389.504 625.496 398.915 615.008 407.76C606.634 414.792 598.186 421.733 589.76 428.708C585.879 431.784 584.253 432.838 577.912 438.074C570.835 444.357 571.039 443.915 563.651 449.615C557.871 454.018 552.415 458.817 546.794 463.418C543.327 466.002 539.865 468.585 536.397 471.175C529.258 476.444 522.079 481.663 514.764 486.689C507.693 491.522 500.349 495.953 493.125 500.553C484.405 506.401 475.186 511.427 466.075 516.628C456.805 522.391 447.932 528.748 439.144 535.213C435.796 537.689 432.407 540.12 429.093 542.647C426.565 544.568 423.999 546.488 421.987 548.97C420.129 551.174 418.452 553.537 417.511 556.291C416.202 561.062 418.435 565.702 422.713 568.122C422.724 568.127 422.741 568.133 422.758 568.144C423.511 568.62 424.35 569.011 425.279 569.3C427.891 570.212 430.549 571.023 433.325 571.215C435.626 571.329 437.909 570.841 440.187 570.615C444.912 570.105 449.581 569.147 454.108 567.697C459.287 566.065 464.477 564.456 469.571 562.58C474.297 560.682 478.858 558.41 483.566 556.461C491.391 553.225 498.882 549.242 506.463 545.48C510.509 543.372 514.628 541.383 518.605 539.14C522.521 536.76 526.26 534.085 530.142 531.649C540.527 525.11 549.996 517.257 559.401 509.41C572.32 498.82 584.74 487.635 597.251 476.575C605.738 468.988 614.379 461.588 623.133 454.313C627.162 450.494 631.123 446.601 635.349 443.003C639.605 439.11 644.115 435.501 648.364 431.609C651.906 428.113 655.266 424.43 658.722 420.843C661.957 417.806 665.351 414.945 668.598 411.925C673.698 406.774 678.587 401.414 683.228 395.844C687.375 391.017 691.234 385.895 694.345 380.33C695.812 376.936 695.285 378.16 696.141 376.098C696.719 374.63 697.025 373.072 697.682 371.633C699.15 368.607 699.087 365.185 699.093 361.899C699.087 360.986 699.263 360.052 699.359 359.122C699.75 358.505 700.079 357.853 700.266 357.122C700.98 354.482 700.323 351.552 698.362 349.637Z" fill="#D7B288"/>
<path d="M693.189 267.875C692.254 266.98 691.149 266.328 689.965 265.847C689.625 265.207 689.194 264.606 688.639 264.079C687.631 263.15 686.48 262.459 685.251 261.926C682.152 259.773 678.117 259.58 674.502 258.708C670.763 258.09 667 257.586 663.249 257.047C661.765 255.784 659.759 254.991 657.612 254.435C657.34 254.345 657.068 254.26 656.796 254.169C656.745 250.684 656.586 247.132 654.082 244.514C650.461 240.786 643.582 242.032 641.764 246.956C641.503 247.489 641.299 248.038 641.191 248.622C641.146 248.798 641.089 248.968 641.038 249.143C640.999 249.189 640.959 249.228 640.919 249.274C639.361 249.285 637.82 249.546 636.29 249.897C638.041 246.044 639.378 241.307 637.129 237.448C636.12 235.97 634.919 234.411 633.14 233.879C632.908 233.743 632.67 233.646 632.432 233.556C631.463 231.907 629.842 230.643 628.029 230.049C627.989 230.026 627.95 230.009 627.91 229.986C627.258 228.768 626.261 227.731 625.077 227.028C624.482 226.779 623.882 226.524 623.287 226.275C620.765 225.561 617.83 226.332 615.989 228.201C615.598 228.706 615.207 229.216 614.816 229.72C613.688 231.516 613.79 233.641 613.643 235.675C613.649 236.485 613.649 237.295 613.643 238.106C610.391 235.454 606.237 234.168 602.271 232.944C599.104 231.986 596.044 230.694 592.837 229.85C590.333 229.193 587.8 228.643 585.261 228.139C585.454 227.062 585.46 225.946 585.239 224.858C585.913 221.566 583.975 217.708 580.768 216.597C579.612 215.94 578.258 215.934 576.949 215.878C574.813 215.838 572.677 216.042 570.552 216.223C567.249 216.558 563.923 216.541 560.614 216.818C559.203 216.954 557.792 217.113 556.381 217.283C554.438 217.237 552.494 217.22 550.551 217.334C550.432 217.339 550.313 217.345 550.194 217.345C550.375 216.835 550.551 216.325 550.727 215.827C550.738 215.798 550.744 215.77 550.755 215.736C550.874 215.555 550.987 215.368 551.095 215.181C553.191 211.741 551.922 206.88 548.404 204.914C546.432 203.815 544.483 203.713 542.562 204.143C542.596 203.939 542.618 203.724 542.63 203.509C543.219 200.71 541.604 197.644 539.168 196.12C538.868 195.621 538.511 195.157 538.097 194.749C536.403 193.27 534.08 192.137 531.796 192.686C529.994 192.726 528.51 193.927 526.889 194.596C524.464 195.723 522.068 196.913 519.676 198.097C518.271 198.806 516.855 199.486 515.444 200.188C514.781 200.336 514.124 200.483 513.461 200.625C512.044 200.636 510.622 200.619 509.2 200.687C505.579 200.778 501.942 201.202 498.463 202.234C498.089 202.341 497.703 202.46 497.318 202.585C497.21 202.585 497.103 202.591 497.001 202.591C496.162 200.37 494.247 198.619 491.879 198.086C490.932 196.777 489.561 195.774 488.003 195.349C486.74 195.1 485.499 195.089 484.235 195.349C482.79 195.74 481.498 196.624 480.569 197.791C479.912 197.474 479.204 197.242 478.478 197.072C477.028 196.647 475.487 196.341 473.974 196.483C469.095 196.789 464.755 199.066 460.211 200.664C460.834 199.446 461.1 198.069 460.806 196.511C460.664 194.754 459.752 192.998 458.335 191.916C456.653 190.363 454.437 189.632 452.165 189.621C452.063 189.627 451.961 189.644 451.859 189.649C451.723 189.553 451.581 189.468 451.434 189.383C450.25 188.788 449.015 188.459 447.694 188.374C445.23 188.323 443.037 189.689 441.496 191.53C441.212 191.791 440.918 192.029 440.623 192.267C439.456 193.151 438.294 194.035 437.122 194.913C437.042 194.97 436.969 195.026 436.889 195.083C435.637 196.012 434.391 196.947 433.144 197.893C432.645 198.256 432.147 198.613 431.637 198.959C431.359 199.123 431.093 199.293 430.832 199.474C430.713 199.31 430.583 199.151 430.453 198.993C429.251 196.704 427.246 195.468 425.104 195.157C422.254 193.157 418.033 193.429 415.568 195.995C413.8 197.848 412.882 200.222 411.93 202.562C410.984 201.52 409.754 200.738 408.395 200.37C406.173 199.939 403.601 200.092 401.879 201.707C400.473 202.619 399.669 204.132 398.96 205.645C398.887 205.696 398.813 205.741 398.739 205.798C397.918 204.698 396.915 203.917 395.821 203.418C395.21 202.999 394.53 202.67 393.827 202.443C392.983 201.701 391.98 201.14 390.892 200.845C388.66 200.415 386.081 200.568 384.353 202.188C380.495 204.687 378.568 214.841 378.761 219.215C378.948 220.563 378.835 222.003 379.084 223.34C377.854 224.207 376.619 225.074 375.367 225.901C374.965 226.162 374.562 226.422 374.166 226.683C372.857 227.136 371.548 227.595 370.239 228.06C367.162 229.017 364.103 230.094 361.298 231.709C359.626 232.462 358.136 233.533 356.98 234.933C355.983 235.499 354.907 235.981 353.943 236.599C353.898 236.604 353.858 236.61 353.813 236.616C352.946 235.777 351.768 235.278 350.634 234.842C347.133 234.009 343.523 235.545 340.362 236.933C338.481 237.93 336.464 239.398 335.064 241.114C332.735 242.803 330.548 244.86 329.8 247.715C329.744 247.902 329.71 248.089 329.67 248.282C328.571 248.735 327.505 249.268 326.474 249.806C324.74 250.594 323.063 251.478 321.414 252.418C316.661 254.781 312.417 258.028 307.997 260.951C304.456 263.218 300.767 265.484 298.319 268.98C297.186 270.306 295.843 271.468 294.976 273.009C293.362 276.017 293.532 279.904 295.843 282.516C296.331 283.174 296.92 283.746 297.571 284.25C297.617 284.641 297.696 285.027 297.736 285.418C297.758 286.534 298.212 287.514 298.75 288.489C299.793 290.8 301.747 292.914 304.286 293.543C307.895 294.665 311.703 293.792 315.193 292.642C316.049 292.415 316.899 292.16 317.743 291.894C319.584 292.732 321.426 293.605 323.369 294.16C325.692 294.801 328.083 295.09 330.446 295.537C338.634 297.305 347.07 296.659 355.315 295.628C357.655 296.483 359.972 297.435 362.437 297.866C367.202 298.778 372.052 299.095 376.868 299.634C381.877 300.24 386.886 300.688 391.935 300.773C402.043 301.311 412.157 301.147 422.271 300.926C427.2 300.948 432.107 300.727 437.02 300.291C440.589 299.957 444.187 299.951 447.751 299.543C448.017 299.509 448.278 299.469 448.544 299.435C452.766 299.566 456.993 299.685 461.214 299.758C462.579 299.713 463.928 299.532 465.282 299.333C465.463 299.39 465.645 299.447 465.82 299.503C466.274 299.673 466.738 299.821 467.197 299.962C468.563 301.254 470.387 302.064 472.331 302.025C473.498 301.9 474.671 301.787 475.838 301.668C477.895 301.413 479.901 301.158 481.889 300.903C482.122 300.88 482.354 300.858 482.586 300.835C488.694 300.138 494.802 299.475 500.91 298.801C512.39 297.69 523.869 296.563 535.4 296.336C536.063 296.245 536.731 296.155 537.394 296.07C538.958 295.662 540.375 294.687 541.293 293.384C541.31 293.361 541.327 293.344 541.344 293.322C546.046 292.693 550.698 292.036 554.5 291.441C554.478 291.407 554.461 291.378 554.438 291.344C555.724 291.214 557.005 291.044 558.291 290.868C560.285 290.619 562.263 290.279 564.229 289.888C564.728 289.843 565.22 289.792 565.719 289.746C566.359 289.724 567 289.695 567.64 289.667C568.699 289.678 569.776 289.746 570.796 289.542C573.096 289.452 575.397 289.367 577.697 289.276C579.08 289.248 580.479 289.225 581.828 288.896C584.072 288.324 585.958 286.528 586.82 284.369C589.896 283.876 592.99 283.491 596.072 283.055C600.775 284.789 606.107 283.293 610.934 282.607C618.079 281.497 625.207 280.29 632.335 279.072C635.712 278.805 639.089 278.545 642.466 278.301C645.69 278.012 649.747 278.244 652.96 277.139C653.492 277.151 654.025 277.168 654.558 277.196C658.076 277.315 661.589 277.088 665.108 277.196C668.649 277.326 672.162 277.87 675.692 278.193C676.655 278.295 677.619 278.403 678.582 278.528C678.673 278.539 678.763 278.55 678.854 278.567C680.429 278.794 681.987 279.122 683.528 279.53C684.554 280.261 685.676 280.834 686.956 280.873C689.874 281.423 693.042 279.797 694.515 277.253C696.283 274.295 695.62 270.283 693.189 267.875Z" fill="#523125"/>
<path d="M365.718 276.918C365.145 276.561 364.596 276.052 363.893 276.001C363.015 275.961 362.358 276.709 361.893 277.366C361.893 277.366 361.893 277.366 361.893 277.372C361.678 277.315 361.372 277.23 361.19 277.207C353.456 276.131 345.677 277.661 337.931 277.887C345.133 280.635 352.958 280.924 360.539 280.046C361.502 280.029 362.624 280.29 363.389 279.536C363.831 279.162 364.018 278.601 364.233 278.08C364.239 278.069 364.239 278.063 364.244 278.052C364.244 278.052 364.244 278.052 364.244 278.057C364.25 278.04 364.256 278.029 364.261 278.012C364.267 278.006 364.267 277.995 364.273 277.989C364.675 278.029 365.23 278.091 365.661 278.261C366.409 278.59 366.97 279.202 367.463 279.836C367.185 278.726 366.709 277.581 365.718 276.918Z" fill="#855F51"/>
<path d="M364.262 278.012C364.256 278.024 364.25 278.041 364.245 278.058C364.267 278.012 364.279 277.984 364.262 278.012Z" fill="#855F51"/>
<path d="M363.361 293.01C363.78 292.416 363.955 291.662 363.734 290.846C363.463 289.973 362.8 289.243 361.899 289.01C360.284 288.285 358.522 288.064 356.765 287.996C355.162 288.002 353.298 287.639 351.989 288.727C351.343 288.88 350.765 289.163 350.368 289.724C349.802 290.551 349.864 291.866 350.816 292.387C351.071 292.529 351.326 292.665 351.586 292.795C352 293.254 352.499 293.6 353.054 293.866C353.235 294.642 353.938 295.339 354.742 295.617C356.216 296.166 357.734 295.526 359.145 295.073C359.383 295.067 359.615 295.067 359.814 295.056C360.952 295.028 362.188 294.858 362.8 293.764C362.856 293.673 362.896 293.577 362.936 293.486C363.026 293.407 363.117 293.316 363.196 293.226C363.298 293.146 363.406 293.067 363.502 292.976C363.457 292.988 363.412 292.993 363.361 293.01Z" fill="#855F51"/>
<path d="M397.153 249.183C396.977 248.866 396.723 248.594 396.394 248.413C394.915 247.767 393.176 248.203 391.617 248.283C390.444 248.453 389.039 248.458 388.257 249.427C386.053 250.821 387.045 253.626 389.413 254.221C390.427 254.464 391.47 254.385 392.501 254.368C392.575 254.362 392.643 254.362 392.717 254.357C393.595 254.657 394.518 254.935 395.397 255.212C395.102 254.963 394.756 254.651 394.399 254.317C394.802 254.294 395.198 254.255 395.589 254.147C396.53 253.909 397.227 253.144 397.499 252.266C397.584 252.26 397.674 252.254 397.759 252.249C397.759 252.249 397.759 252.249 397.765 252.249C398.179 252.209 398.575 252.096 398.819 251.722C399.59 250.39 398.604 249.614 397.153 249.183Z" fill="#855F51"/>
<path d="M435.45 225.782C436.102 225.72 436.754 225.669 437.405 225.601C436.924 225.482 436.442 225.368 435.955 225.249C436.34 224.581 436.255 223.64 435.683 223.096C434.776 222.28 433.416 222.53 432.3 222.637C430.515 222.841 428.583 223.317 426.997 223.589C426.577 223.578 426.164 223.64 425.784 223.867C425.115 224.258 424.883 225.147 425.274 225.816C425.739 226.649 426.73 226.547 427.546 226.501C428.634 226.422 429.716 226.377 430.804 226.292C430.918 226.292 431.025 226.298 431.139 226.298C431.076 226.966 430.889 227.856 430.725 228.502C431.246 227.81 431.75 227.102 432.119 226.315C432.379 226.32 432.646 226.326 432.906 226.331C433.751 226.264 434.737 226.292 435.45 225.782Z" fill="#855F51"/>
<path d="M360.329 253.546C360.097 253.495 359.859 253.461 359.621 253.422C359.644 252.742 359.355 252.039 358.794 251.659C357.683 250.849 356.137 251.093 354.839 251.11C353.456 251.167 352.08 251.297 350.703 251.404C350.04 251.467 349.292 251.416 348.805 251.948C348.572 252.175 348.436 252.458 348.374 252.759C348.153 252.815 347.932 252.872 347.711 252.94C346.618 253.439 346.096 253.308 345.394 254.266C344.901 255.065 345.207 256.209 346.023 256.668C346.442 256.884 346.912 256.986 347.377 256.844C348.68 256.561 352.652 256.334 355.315 255.886C356.59 255.546 358.307 255.767 359.185 254.629C359.423 254.357 359.553 254.017 359.604 253.66C359.836 253.626 360.08 253.58 360.329 253.546Z" fill="#855F51"/>
<path d="M421.364 274.012C418.565 272.952 415.658 272.278 412.74 271.666C412.055 269.898 408.967 270.522 407.437 270.561C406.292 270.522 405.505 271.904 406.111 272.873C406.321 273.196 406.745 273.451 407.318 273.649C407.403 273.808 407.516 273.972 407.669 274.159C408.621 274.987 409.613 275.774 410.519 276.658C410.151 275.791 409.85 274.879 409.358 274.074C413.256 274.545 419.347 274.035 421.364 274.012Z" fill="#855F51"/>
<path d="M393.839 288.602C395.028 288.494 396.592 288.426 397.646 287.854C398.071 287.452 397.81 286.721 397.272 286.579C397.017 286.506 396.74 286.568 396.485 286.664C395.295 286.772 394.195 286.863 393 287.174C390.841 287.503 391.345 290.143 392.399 291.384C393.028 292.347 392.626 291.384 392.564 290.84C392.36 290.2 392.637 288.931 392.756 288.749C392.875 288.721 393.011 288.698 393.159 288.676C392.966 288.948 392.938 289.129 393.618 288.891C393.538 288.885 393.465 288.868 393.385 288.857C393.391 288.857 393.391 288.851 393.397 288.851C393.533 288.749 393.68 288.67 393.839 288.602Z" fill="#855F51"/>
<path d="M463.412 287.401C462.846 287.022 462.302 286.608 461.752 286.2C461.911 286.194 462.058 286.183 462.2 286.177C462.455 286.177 462.704 286.16 462.953 286.132C462.993 286.132 463.033 286.126 463.072 286.126V286.115C463.254 286.087 463.429 286.058 463.605 286.007C464.5 285.701 464.727 284.41 464.047 283.769C463.775 283.526 463.446 283.356 463.072 283.367C462.166 283.288 461.248 283.254 460.336 283.322C459.378 283.333 458.54 283.871 458.035 284.636C457.474 284.914 456.953 285.276 456.522 285.781C455.91 286.438 455.848 287.373 455.865 288.223C456.131 287.707 456.381 287.135 456.857 286.772C457.112 286.597 457.378 286.472 457.656 286.381C458.03 287.333 459.542 287.583 460.387 288.07C462.46 289.107 464.767 289.311 467.039 289.543C465.866 288.767 464.608 288.138 463.412 287.401Z" fill="#855F51"/>
<path d="M457.486 258.532C457.599 258.334 457.701 258.124 457.78 257.915C458.188 257.546 458.375 256.918 458.12 256.413C458.052 256.249 457.967 256.113 457.86 256C457.741 255.699 457.548 255.41 457.253 255.155C455.769 253.937 453.701 254.198 451.91 254.249C450.584 254.277 449.253 254.175 447.933 254.322C446.505 254.419 445.145 254.838 444.012 255.728C442.674 256.47 442.606 258.425 443.785 259.348C445.711 261.11 448.488 259.983 450.749 259.683C452.227 259.462 453.723 259.235 455.174 258.861C455.763 259.603 456.738 259.796 457.661 259.762C458.67 259.83 459.684 259.909 460.693 259.96C459.633 259.467 458.562 258.991 457.486 258.532Z" fill="#855F51"/>
<path d="M428.758 242.763C427.965 242.837 427.217 243.126 426.469 243.392C425.959 243.517 425.778 244.214 426.158 244.571C426.248 244.679 426.333 244.798 426.418 244.911C425.812 245.376 425.347 245.999 424.922 246.628C424.548 247.2 424.282 247.835 423.993 248.452C424.99 247.642 425.965 246.781 427.127 246.214C427.342 246.14 427.585 246.078 427.835 246.01C428.384 246.157 428.962 246.214 429.512 246.361C429.257 246.14 428.979 245.948 428.696 245.761C429.03 245.642 429.353 245.495 429.625 245.279C430.033 244.928 430.634 244.684 430.798 244.14C431.093 242.996 429.625 242.61 428.758 242.763Z" fill="#855F51"/>
<path d="M400.966 227.663C400.649 227.64 400.298 227.635 400.026 227.51C399.091 227.063 398.196 226.49 397.861 226.014C398.162 225.17 399.352 223.612 399.754 222.348C400.088 220.869 400.02 219.068 398.128 218.92C396.598 218.456 395.023 218.677 393.578 219.272C393.283 219.357 393.006 219.481 392.762 219.651C392.552 219.759 392.343 219.878 392.139 220.003C391.583 220.394 391.017 220.954 390.994 221.674C390.909 222.49 391.629 223.306 392.479 223.057C392.671 223 392.841 222.904 392.983 222.762C393.079 222.677 393.085 222.677 392.994 222.762C393.21 222.66 393.374 222.473 393.504 222.258C394.365 222.014 395.793 221.816 396.224 221.946C396.235 221.946 396.241 221.952 396.252 221.952C395.861 223.017 395.102 224.224 395.028 225.873C395.125 228.06 397.674 228.819 399.493 229.029C400.139 229.142 400.762 228.915 401.369 228.734C402.185 228.553 403.023 228.422 403.839 228.247C402.882 228.037 401.935 227.754 400.966 227.663Z" fill="#855F51"/>
<path d="M469.787 216.88C468.512 216.337 466.999 216.637 465.651 216.728C464.642 216.795 463.362 217.079 462.461 217.657C462.404 217.668 462.347 217.685 462.291 217.696C461.242 217.906 460.2 218.133 459.163 218.388C458.88 218.495 458.585 218.626 458.426 218.898C457.933 219.459 458.064 220.456 458.681 220.875C459.101 221.243 459.724 221.198 460.234 221.362C460.908 221.532 461.588 221.708 462.257 221.901C462.466 221.969 462.682 222.037 462.891 222.099C463.583 222.756 464.37 223.334 465.118 223.901C465.651 224.258 466.2 224.592 466.739 224.938C466.597 224.683 466.455 224.422 466.308 224.173C466.268 224.105 466.229 224.031 466.189 223.963C466.127 223.011 465.628 222.258 464.937 221.64C464.84 221.447 464.755 221.26 464.665 221.079C465.656 221 466.648 220.886 467.634 220.745C467.571 220.756 467.498 220.762 467.401 220.779C468.654 220.665 470.286 220.524 470.676 219.085C470.926 218.235 470.529 217.322 469.787 216.88Z" fill="#855F51"/>
<path d="M529.094 241.585C528.725 241.392 528.34 241.262 527.949 241.154C527.451 240.667 526.64 240.468 525.932 240.514C525.354 240.514 524.714 240.372 524.17 240.621C523.892 240.718 523.683 240.893 523.53 241.097C523.065 241.075 522.606 241.063 522.153 241.126C521.569 241.352 520.566 241.681 520.272 242.248C520.017 242.757 520.464 243.415 521.031 243.398C522.005 243.483 522.986 243.534 523.96 243.573C524.119 243.562 524.295 243.568 524.482 243.573C525.399 243.811 527.15 243.953 527.553 243.953C528.918 244.185 530.238 244.622 531.587 244.916C532.726 245.183 534.052 245.489 535.111 245.653C533.185 244.185 531.269 242.655 529.094 241.585Z" fill="#855F51"/>
<path d="M491.907 248.401C490.961 247.569 489.329 248.158 488.168 248.186C487.006 248.299 486.134 248.583 485.516 248.979C484.785 249.234 484.162 249.654 483.844 250.424C483.714 250.895 483.323 251.422 483.584 251.897C483.844 252.249 484.275 252.317 484.711 252.362C485.153 253.257 485.986 254.164 487.131 254.946C487.601 255.291 488.1 255.592 488.581 255.909C488.139 255.133 487.697 254.351 487.318 253.546C487.527 253.008 487.204 252.577 486.762 252.226C486.643 251.875 486.626 251.507 486.643 251.314C486.785 251.269 486.927 251.223 487.074 251.189C487.114 251.178 487.25 251.155 487.318 251.144C487.646 251.127 488.077 251.104 488.559 251.076C489.301 251.076 490.043 251.036 490.763 250.917C490.797 250.912 490.836 250.912 490.87 250.906V250.9C491.063 250.866 491.25 250.827 491.437 250.781C492.389 250.453 492.627 249.081 491.907 248.401Z" fill="#855F51"/>
<path d="M516.515 288.104C514.469 287.135 512.696 286.359 511.007 285.645C511.296 285.48 511.563 285.282 511.784 285.016C512.56 284.137 512.35 282.557 511.381 281.899C509.761 280.823 507.551 281.214 505.738 281.542C504.899 281.741 504.112 282.103 503.352 282.5C502.814 282.744 502.282 283.044 501.942 283.509C501.534 283.622 501.143 283.763 500.831 284.035C499.329 286.024 502.542 287.305 503.885 288.149C504.684 288.704 505.5 289.237 506.316 289.764C505.834 288.891 505.353 288.019 504.843 287.163C504.797 287.089 504.746 287.016 504.695 286.942C505.319 287.072 505.942 287.186 506.571 287.265C509.863 287.781 513.189 288.002 516.515 288.104Z" fill="#855F51"/>
<path d="M545.962 271.456C545.945 271.456 545.928 271.456 545.916 271.451C545.99 270.533 545.293 269.558 544.262 269.592C541.463 269.683 538.477 269.892 536.114 270.402C535.06 271.156 536.057 272.845 536.414 273.768C536.46 273.06 536.431 272.318 536.669 271.638C536.845 271.694 537.015 271.762 537.196 271.796C537.61 271.887 538.018 271.966 538.431 272.046C538.431 272.425 538.55 272.805 538.8 273.094C539.304 273.706 540.154 274.063 540.913 274.233C542.579 274.55 544.273 274.267 545.916 273.955C548.46 273.581 550.891 272.743 553.186 271.592C550.772 271.7 548.364 271.706 545.962 271.456Z" fill="#855F51"/>
<path d="M515.466 263.62C514.855 263.365 514.175 263.456 513.529 263.428C512.917 263.394 512.305 263.297 511.693 263.377C510.82 263.445 510.163 263.847 509.749 264.414C509.415 264.98 509.647 265.57 510.078 265.994C509.234 267.428 509.494 269.009 510.832 270.329C511.999 271.258 513.557 271.4 514.974 271.7C513.744 270.669 511.806 269.983 511.642 268.25C511.636 268.182 511.619 267.961 511.636 267.768C511.636 267.762 511.642 267.751 511.642 267.74C511.653 267.615 512.09 267.088 512.22 266.918C512.633 266.589 513.03 265.875 512.9 265.275C513.285 265.19 513.693 265.099 514.016 264.975C514.52 264.839 515.093 264.38 515.608 264.646C515.829 264.827 515.064 265.909 515.557 265.417C516.441 264.85 516.43 264.074 515.466 263.62Z" fill="#855F51"/>
<path d="M503.239 233.834C500.769 230.202 499.8 230.224 495.59 230.111C493.697 230.066 491.799 230.105 489.907 230.179C489.51 230.179 489.114 230.179 488.762 230.355C487.895 230.649 487.47 231.669 487.697 232.53C487.952 233.471 488.66 233.788 489.476 233.862V233.885C489.533 233.879 489.584 233.873 489.64 233.873C490.247 233.907 490.893 233.822 491.437 233.777C491.85 233.737 492.247 233.692 492.632 233.641C493.839 233.562 495.052 233.494 496.258 233.363C496.474 233.346 496.695 233.329 496.91 233.312C497.233 233.312 497.55 233.267 497.845 233.114C498.004 233.029 498.123 232.904 498.219 232.768C498.293 232.757 498.361 232.746 498.434 232.729C498.735 232.683 499.573 232.615 500.032 232.825C500.723 233.097 501.551 233.811 502.333 234.321C502.327 234.338 502.321 234.344 502.316 234.361C501.97 234.973 501.879 235.664 501.76 236.344C502.106 235.805 502.395 235.228 502.893 234.808C503.177 234.565 503.59 234.191 503.239 233.834Z" fill="#855F51"/>
<path d="M497.794 207.883C497.125 207.22 496.088 207.26 495.222 207.05C493.204 206.693 491.17 206.665 489.136 206.738C488.026 206.716 486.966 207.741 487.119 208.812C487.085 208.835 487.051 208.852 487.023 208.869C483.175 211.504 486.45 214.512 489.057 216.433C490.456 217.249 491.958 217.906 493.386 218.688C492.275 217.544 491.074 216.495 489.963 215.357C489.278 214.393 488.32 213.056 488.071 212.291C488.037 212.184 488.009 212.076 487.986 211.963C487.997 211.957 488.003 211.946 488.014 211.934C488.111 211.866 488.269 211.764 488.337 211.73C488.434 211.674 488.536 211.628 488.638 211.577C488.677 211.56 488.728 211.543 488.785 211.526C489.074 211.453 489.436 211.424 489.856 211.413C490.354 211.668 490.864 211.906 491.352 212.155C491.964 212.433 492.587 212.688 493.204 212.954C492.768 212.45 492.32 211.957 491.879 211.458C492.859 211.487 493.884 211.492 494.768 211.334C496.145 211.186 498.145 211.3 498.332 209.487C498.451 208.909 498.196 208.319 497.794 207.883Z" fill="#855F51"/>
<path d="M537.531 198.908C537.191 198.778 537.032 199.231 536.817 199.412C535.944 200.256 535.196 201.22 534.556 202.245C534.273 201.707 533.865 201.231 533.332 200.897C531.967 200.098 530.301 200.29 528.822 200.613C527.264 201.05 525.966 202.092 524.941 203.333C524.459 203.452 523.977 203.571 523.496 203.679C521.734 203.73 520.198 204.274 519.875 206.348C519.558 207.957 520.844 209.447 522.374 209.787C522.725 209.855 523.082 209.883 523.433 209.9C523.796 210.818 524.595 211.436 525.541 211.906C525.088 212.274 524.629 212.631 524.215 213.045C523.496 213.798 522.889 214.654 522.255 215.481C523.167 214.971 524.057 214.41 525.009 213.974C525.983 213.589 527.014 213.322 527.932 212.818C528.38 212.96 528.805 213.096 529.19 213.243C528.952 213.022 528.692 212.784 528.431 212.529C529.825 211.691 531.077 210.637 532.392 209.674C533.292 209.175 533.587 207.991 533.168 207.101C533.666 206.739 534.108 206.308 534.477 205.775C535.015 204.92 535.1 203.871 534.822 202.931C535.842 202.143 536.771 201.214 537.355 200.075C537.417 200.228 537.48 200.387 537.502 200.528C537.514 200.075 537.956 199.186 537.531 198.908ZM526.754 210.739C526.431 210.336 526.17 209.957 526.029 209.623C526.72 209.47 527.4 209.271 528.074 209.079C527.649 209.651 527.218 210.206 526.754 210.739Z" fill="#855F51"/>
<path d="M320.264 273.253C321.074 273.009 321.902 272.777 322.78 272.579C322.026 272.516 321.267 272.494 320.513 272.488C320.961 270.533 319.998 268.471 318.196 267.485C317.998 267.009 317.709 266.567 317.34 266.199C316.275 265.077 314.655 264.975 313.21 264.788C310.326 264.742 307.606 266.165 305.906 268.476C305.714 268.714 305.532 268.969 305.345 269.213C304.722 269.542 304.116 269.898 303.555 270.335C302.796 270.743 302.121 271.338 301.679 272.069C301.215 272.482 300.812 272.964 300.518 273.479C299.86 274.811 300.251 276.386 300.795 277.689C301.492 279.412 302.235 281.163 303.147 282.896C303.158 281.418 303.17 279.933 303.294 278.46C303.3 278.296 303.305 278.12 303.311 277.944C304.223 278.46 305.323 278.647 306.445 278.324C306.784 278.182 307.119 278.035 307.459 277.893C307.464 277.888 307.47 277.888 307.47 277.882C307.799 277.74 308.133 277.604 308.462 277.463C309.051 278.007 309.929 278.267 310.728 278.284C312.479 278.386 314.009 277.423 315.55 276.715C316.955 276.165 318.44 275.667 319.454 274.511C319.805 274.125 320.071 273.695 320.264 273.253Z" fill="#855F51"/>
<path d="M313.527 290.098C311.884 290.602 310.479 291.605 309.204 292.738C310.53 292.313 311.788 291.713 312.966 290.987C313.55 290.653 314.083 290.058 314.791 290.052C314.4 289.849 313.93 289.979 313.527 290.098Z" fill="#855F51"/>
<path d="M588.605 250.73C588.35 250.305 588.095 249.931 587.834 249.591C588.746 249.07 589.37 248.027 589.154 246.956C589.092 245.942 588.242 245.041 587.279 244.781C586.491 244.667 585.704 244.56 584.916 244.458C583.715 244.299 582.508 244.146 581.301 244.027C577.306 243.71 573.272 243.143 569.283 243.817C568.768 243.908 568.28 244.129 567.799 244.35C567.612 244.378 566.501 244.741 566.241 245.03C564.835 245.988 565.028 248.282 566.49 249.098C567.43 249.625 568.564 249.404 569.595 249.557C571.085 249.688 572.581 249.716 574.071 249.705C574.258 249.722 574.445 249.727 574.638 249.744C574.785 249.942 574.927 250.141 575.068 250.339C575.227 250.56 575.391 250.787 575.55 251.008C575.476 250.6 575.403 250.197 575.329 249.79C578.598 249.999 581.879 250.039 585.154 249.959C585.471 249.976 585.794 249.971 586.112 249.937C586.219 249.931 586.333 249.931 586.44 249.931C587.301 250.566 588.055 251.399 588.894 252.073C588.446 252.334 587.675 253.082 587.352 253.217C588.049 252.912 588.746 252.611 589.438 252.305C589.5 252.266 589.551 252.198 589.557 252.124C589.472 251.727 588.826 251.166 588.605 250.73Z" fill="#855F51"/>
<path d="M552.053 234.338C549.106 232.678 546.126 231.074 543.072 229.607C542.109 229.188 541.406 228.87 540.8 228.525C540.93 227.607 540.585 226.593 539.82 226.077C539.383 225.663 538.811 225.527 538.233 225.533C538.233 225.527 538.239 225.522 538.239 225.516C538.165 225.522 538.103 225.533 538.04 225.539C537.899 225.55 537.757 225.567 537.621 225.59C536.494 225.726 536.63 225.754 534.278 225.709C532.516 225.629 530.771 225.34 529.014 225.255C528.198 225.216 527.383 225.216 526.567 225.182C525.683 224.932 524.77 224.83 523.836 224.966C522.328 225.323 521.62 227.38 522.646 228.553C524.164 230.179 526.686 230.247 528.742 230.717C531.422 231.278 534.227 231.777 536.924 231.256C539.213 232.389 541.786 232.599 544.324 233.035C546.897 233.471 549.469 233.953 552.053 234.338Z" fill="#855F51"/>
<path d="M574.111 228.332C574.037 227.335 574.19 226.292 573.884 225.323C573.47 224.111 572.111 223.595 570.921 223.822C569.175 223.89 569.141 225.533 569.827 226.762C570.031 227.046 571.142 228.717 570.768 227.658C570.581 227.023 570.524 226.145 570.722 225.589C570.813 225.601 570.904 225.623 571.045 225.652C571.487 225.725 571.708 225.873 571.708 225.98C571.306 229.357 573.414 232.202 576.071 234.474C575.357 232.513 574.422 230.219 574.111 228.332Z" fill="#855F51"/>
<path d="M633.287 257.104C631.129 255.297 628.126 255.83 625.479 256.141C622.998 256.062 620.51 256.016 618.023 256.022C613.711 255.58 608.357 255.229 606.492 257.909C605.744 259.201 606.039 261.008 607.286 261.875C607.886 262.476 608.776 262.482 609.569 262.595C610.623 262.64 611.671 262.68 612.725 262.708C616.663 262.821 620.612 262.68 624.539 262.357C626.346 262.204 628.154 262.074 629.956 261.881C631.117 261.768 632.403 261.87 633.293 260.974C634.341 259.96 634.341 258.113 633.287 257.104Z" fill="#855F51"/>
<path d="M599.024 269.995C598.027 269.519 596.843 270.006 595.783 270.04C592.446 270.431 589.318 271.762 586.162 272.85C585.148 273.598 586.055 274.714 587.125 274.533C587.794 274.493 588.423 274.731 589.029 275.026C588.978 275.066 588.927 275.1 588.876 275.139C588.967 275.122 589.058 275.105 589.148 275.088C589.488 275.258 589.817 275.445 590.146 275.604C590.004 275.394 589.862 275.185 589.709 274.975C591.403 274.635 593.075 274.21 594.758 273.831C595.953 273.491 597.262 273.36 598.429 272.93C598.503 272.913 598.577 272.896 598.645 272.879C598.639 272.867 598.639 272.862 598.633 272.85C598.82 272.777 599.002 272.692 599.177 272.595C600.078 271.978 599.959 270.516 599.024 269.995ZM589.233 274.363C589.426 274.346 589.619 274.34 589.811 274.318C589.879 274.312 589.953 274.301 590.021 274.295C589.845 274.425 589.664 274.556 589.488 274.686C589.403 274.573 589.318 274.465 589.233 274.363Z" fill="#855F51"/>
<path d="M565.515 283.865C565.334 283.809 565.147 283.752 564.966 283.695C563.56 283.117 562.07 283.316 560.591 283.367C560.404 283.378 560.217 283.389 560.03 283.401C560.025 283.401 560.013 283.395 560.008 283.395C557.843 283.1 555.611 283.253 553.458 283.588C552.37 283.848 551.973 285.35 552.789 286.115C553.786 286.925 555.447 286.585 556.648 286.494C558.376 286.353 559.974 285.724 561.566 285.083C561.912 285.129 562.252 285.18 562.597 285.219C562.637 285.225 562.676 285.231 562.716 285.236C562.637 285.401 562.552 285.565 562.478 285.735C562.654 285.503 563.487 285.197 563.118 284.885C562.977 284.806 562.835 284.715 562.693 284.63C563.124 284.46 563.56 284.296 563.997 284.149C564.501 284.058 565.011 283.967 565.515 283.865Z" fill="#855F51"/>
<path d="M638.268 266.346C637.22 265.711 635.956 265.87 634.783 265.881C634.194 265.904 633.61 265.938 633.021 265.978C630.641 266.119 628.273 266.38 625.916 266.731C624.63 266.867 623.343 267.031 622.12 267.371C622.103 267.377 622.091 267.377 622.074 267.377C620.658 267.757 618.986 267.672 617.808 268.624C617.043 269.388 616.918 270.714 617.632 271.547C618.023 272.131 618.743 272.363 619.366 272.652C620.516 273.768 622.035 274.318 623.474 274.953C622.953 274.386 622.499 273.825 622.091 273.247C624.074 273.434 626.12 273.236 628.092 273.428C629.095 273.513 630.239 273.513 631.044 274.188C630.738 273.627 630.273 273.219 629.741 272.884C631.112 272.907 632.483 272.913 633.854 272.873C635.939 272.748 638.829 273.049 639.662 270.618C640.421 269.117 639.684 267.184 638.268 266.346Z" fill="#855F51"/>
<path d="M675.772 265.541C672.474 265.178 669.142 265.484 665.901 266.158C661.952 267.167 657.975 269.241 655.527 272.578C657.561 271.485 659.856 271.077 662.105 270.652C664.859 270.074 668.502 270.289 671.839 270.204C672.548 270.187 673.262 270.176 673.97 270.159C673.891 270.221 673.817 270.283 673.76 270.351C674.032 270.266 674.316 270.227 674.588 270.136C674.593 270.136 674.599 270.136 674.605 270.136C675.772 270.249 677.103 270.028 677.727 268.946C678.605 267.501 677.466 265.496 675.772 265.541Z" fill="#855F51"/>
<path d="M685.54 267.162C683.783 265.717 681.336 265.671 679.165 265.456C676.225 265.269 673.278 265.343 670.332 265.399C668.706 265.445 666.898 265.026 665.357 265.66C664.961 265.796 664.615 266.006 664.326 266.272C661.527 266.487 658.722 266.691 655.917 266.85C653.651 267.082 651.413 266.657 649.158 266.544C646.415 266.391 643.662 266.657 640.925 266.833C637.99 267.19 635.565 267.553 632.964 267.898C632.704 267.689 632.437 267.485 632.154 267.298C630.426 266.215 628.386 266.249 626.414 266.238C623.179 266.215 619.955 266.55 616.742 266.907C615.921 267.026 615.195 267.128 614.538 267.213C612.753 267.326 610.974 267.445 609.189 267.553C606.532 267.751 603.88 268.029 601.234 268.34C593.84 268.81 586.451 269.417 579.046 269.677C572.79 270.125 566.45 269.983 560.291 271.258C555.718 272.233 550.982 272.533 546.534 274.023C542.76 275.258 539.094 276.817 535.53 278.567C529.116 281.316 530.992 280.8 523.75 283.361C519.869 284.477 515.982 285.605 512.01 286.353C508.004 286.596 503.981 286.659 499.981 286.959C491.816 287.469 490.394 288.477 485.544 288.545C475.606 288.931 465.65 288.472 455.718 289.078C445.49 289.543 435.274 291.124 425.024 290.291C425.013 290.291 425.002 290.291 424.99 290.285C423.653 290.041 422.35 289.645 421.035 289.316C414.468 287.582 407.783 285.746 400.944 285.775C395.98 286.03 391.017 286.347 386.053 286.523C381.316 286.409 376.585 286.375 371.848 286.222C370.568 286.064 369.287 285.922 368.001 285.826C366.335 285.69 364.675 285.508 363.009 285.384C361.615 285.265 360.165 285.061 358.799 285.31C357.309 285.18 355.813 285.083 354.317 284.998C352.164 284.574 349.971 284.296 347.83 283.928C343.042 283.236 338.299 282.341 333.613 281.123C331.687 280.539 329.704 280.823 327.789 281.265C327.743 281.265 327.704 281.265 327.658 281.265C324.723 280.845 321.777 280.505 318.831 280.222C316.649 279.797 314.462 279.366 312.281 278.941C310.926 278.556 309.572 278.16 308.212 277.803C307.986 277.729 307.759 277.644 307.532 277.565C305.255 276.409 303.153 274.828 300.552 274.511C295.333 273.808 296.387 274.08 293.481 273.666C291.123 273.644 288.846 274.986 287.661 277.004C286.749 278.834 286.319 281.134 287.321 283.004C289.429 287.894 295.209 289.225 299.917 290.37C302.909 291.039 305.906 291.673 308.909 292.302C311.295 293.084 313.748 293.594 316.236 293.86C316.621 293.945 317.006 294.025 317.391 294.11C323.091 295.809 328.945 296.92 334.837 297.713C339.166 298.37 343.54 298.58 347.864 299.254C348.187 299.283 348.51 299.305 348.833 299.334C349.858 299.538 350.918 299.662 351.972 299.73C353.479 299.929 354.986 300.07 356.504 300.065C357.32 300.121 358.142 300.127 358.935 300.008C361.315 300.138 363.695 300.252 366.074 300.371C367.984 300.529 369.899 300.631 371.814 300.711C372.041 300.767 372.262 300.813 372.488 300.864C374.03 301.232 375.571 301.645 377.146 301.878C378.732 302.059 380.381 302.297 382.024 302.416C382.319 302.552 382.619 302.665 382.931 302.75C383.951 302.886 384.965 303.062 385.985 303.209C388.88 303.691 391.81 303.827 394.739 303.714C394.756 303.714 394.768 303.714 394.785 303.714C395.651 304.065 396.626 304.207 397.533 304.376C399.193 304.671 400.876 304.705 402.553 304.648C403.216 304.983 403.935 305.221 404.694 305.334C407.199 305.85 409.72 305.578 412.219 305.164C416.146 304.631 412.729 304.937 417.33 304.699C419.143 304.637 420.951 304.529 422.764 304.49C429.047 305.317 435.371 305.022 441.683 304.541C441.898 304.643 442.119 304.739 442.334 304.818C445.706 306.326 449.423 305.005 452.953 305C455.655 304.767 458.347 304.444 461.038 304.127C462.392 303.997 463.922 303.782 465.118 303.221C471.928 303.124 478.745 303.181 485.555 302.954C489.306 302.83 493.012 302.155 496.723 301.6C501.93 301.101 507.177 301.022 512.395 300.722C517.795 300.138 523.014 298.512 528.215 297.022C532.346 295.537 536.369 293.764 540.426 292.092C546.386 289.639 544.653 289.877 552.279 287.594C553.599 287.288 554.936 287.089 556.274 286.868C558.784 290.189 563.396 289.752 567.6 289.038C580.321 287.203 588.293 286.188 602.934 284.081C610.645 283.514 618.346 282.828 626.057 282.296C630.845 281.803 635.633 281.253 640.387 280.511C640.8 280.466 641.22 280.432 641.639 280.398C643.922 280.267 646.211 280.092 648.501 280.114C650.875 280.114 653.249 280.522 655.611 280.239C663.816 279.372 667.119 278.754 677.545 276.771C678.893 276.732 680.236 276.805 681.574 276.624C681.727 276.613 681.879 276.607 682.032 276.596C684.18 276.539 686.429 275.389 687.166 273.287C688.197 271.304 687.381 268.42 685.54 267.162Z" fill="#3B2B25"/>
<path d="M861.234 295.628C861.234 295.622 861.229 295.616 861.229 295.611C858.905 293.452 856.747 291.14 854.537 288.88C853.421 288.296 852.276 287.746 851.041 287.52C851.024 287.514 851.007 287.514 850.996 287.508C850.673 286.84 850.236 286.199 849.658 285.627C848.797 284.698 847.732 284.211 846.599 283.882C846.604 283.871 846.604 283.859 846.61 283.848C846.497 283.831 846.378 283.808 846.259 283.791C845.947 283.712 845.63 283.644 845.307 283.576C844.95 283.111 844.593 282.652 844.236 282.188C843.278 281.162 842.009 280.669 840.723 280.222C838.043 277.666 834.819 275.763 831.414 274.318C828.252 272.709 824.983 271.298 821.566 270.34C815.424 268.737 809.31 267.003 803.14 265.53C797.734 264.453 792.272 263.643 786.827 262.793C781.983 262.062 777.064 262.062 772.192 261.563C765.783 260.985 759.403 260.028 752.989 259.58C741.969 259.495 730.959 258.747 719.933 258.798C715.293 258.997 710.664 259.223 706.063 259.926C703.462 260.243 700.839 260.311 698.266 260.827C696.912 260.736 695.575 260.793 694.243 260.957C694 260.906 693.756 260.872 693.507 260.838C693.348 260.798 693.195 260.759 693.042 260.708C692.957 260.668 692.866 260.623 692.781 260.583C689.631 258.776 686.294 257.217 683.33 255.11C682.05 254.084 680.758 253.064 679.387 252.163C677.8 250.917 676.14 249.766 674.355 248.803C672.168 247.755 669.879 246.678 667.409 246.661C666.213 246.622 665.125 247.058 663.998 247.336C663.261 247.37 662.519 247.341 661.782 247.29C661.516 247.234 661.244 247.166 660.978 247.098C660.343 245.891 659.34 244.877 658.507 243.806C657.465 242.406 656.167 241.262 654.779 240.23C653.521 239.177 652.348 238.038 651.011 237.086C648.603 235.885 645.73 235.38 643.118 236.191C642.625 236.355 642.149 236.548 641.679 236.757C641.56 235.482 641.441 234.196 641.146 232.955C640.908 232.111 640.546 231.306 640.189 230.507C640.109 230.303 640.036 230.105 639.951 229.901C637.548 223.306 630.517 216.773 623.661 215.158C619.921 214.393 617.031 214.971 614.64 216.637C613.111 215.906 611.569 215.198 610.011 214.523C607.11 213.152 603.92 211.991 600.685 212.835C597.721 213.759 595.614 215.708 594.384 218.252C594.259 218.246 594.135 218.229 594.01 218.223C593.613 218.212 593.223 218.229 592.826 218.252C592.707 218.076 592.588 217.9 592.469 217.725C592.322 217.492 592.174 217.26 592.044 217.022C591.608 215.946 591.166 214.869 590.639 213.832C589.914 212.608 588.848 211.702 587.704 210.886C584.672 208.682 580.701 208.71 577.108 208.455C575.255 208.211 573.403 208.432 571.544 208.336C569.652 208.228 567.77 207.928 565.867 207.956C565.555 207.951 565.243 207.939 564.937 207.922C564.569 204.829 563.555 201.752 560.739 200.132C560.32 199.888 559.9 199.707 559.481 199.554C559.419 199.474 559.351 199.395 559.288 199.31C559.09 198.925 558.812 198.607 558.467 198.364C557.787 197.871 557.186 197.265 556.45 196.851C555.707 196.42 554.925 196.063 554.127 195.774C554.212 194.426 554.121 193.077 553.685 191.723C552.138 187.077 547.798 184.023 543.338 182.448C541.956 182.034 540.5 181.966 539.077 181.722C537.389 181.433 535.661 181.247 533.95 181.479C530.102 181.711 526.618 183.479 523.32 185.36C518.113 188.085 520.895 186.805 516.611 188.454C516.186 188.584 515.75 188.686 515.314 188.777C513.251 188.952 511.178 188.896 509.115 189.037C507.143 189.315 505.177 189.542 503.188 189.309C502.197 189.315 501.211 189.309 500.225 189.241C500.202 189.236 500.185 189.236 500.163 189.23C500.123 189.207 500.083 189.19 500.049 189.168C499.851 188.986 499.658 188.805 499.46 188.629C497.913 186.89 496.015 185.513 493.987 184.391C492.774 183.723 491.55 182.941 490.134 182.929C489.471 182.81 488.797 182.748 488.122 182.754C484.779 182.89 481.47 183.915 478.473 185.218C476.711 186.04 475.221 187.315 473.487 188.187C472.971 188.55 472.467 188.93 471.968 189.315C471.702 189.479 471.424 189.627 471.147 189.763C471.141 189.763 471.141 189.763 471.135 189.768C470.824 189.785 470.512 189.808 470.2 189.848C468.971 189.967 467.764 190.188 466.557 190.426C466.506 189.581 466.348 188.748 465.991 187.944C464.704 184.023 461.084 181.241 457.044 180.618C455.242 180.21 453.48 179.666 451.627 179.535C451.066 179.439 450.505 179.462 449.944 179.592C447.91 179.807 445.876 180.057 443.944 180.754C441.677 181.473 439.428 182.266 437.365 183.456C436.482 184 435.7 184.68 434.912 185.354C434.889 185.371 434.861 185.383 434.838 185.4C434.107 185.23 433.388 185.026 432.68 184.793C432.068 184.482 431.467 184.165 430.861 183.847C429.518 183.196 428.141 182.618 426.759 182.057C425.88 181.649 424.991 181.258 424.095 180.89C419.778 179.841 415.608 182.295 412.622 185.252C411.998 186.017 411.352 186.771 410.718 187.53C410.123 187.377 409.517 187.281 408.888 187.298C406.689 187.241 404.417 187.491 402.428 188.488C400.961 189.451 399.499 190.465 398.196 191.644C397.765 192.069 397.363 192.522 396.972 192.975C396.326 192.431 395.663 191.91 394.932 191.474C393.754 190.998 392.643 190.216 391.34 190.21C390.666 190.114 389.997 190.029 389.317 189.961C387.311 190.137 385.311 190.613 383.634 191.774C382.727 192.454 381.838 193.157 380.96 193.865C379.095 195.06 377.101 196.063 375.458 197.582C373.407 199.554 371.803 202.115 371.061 204.868C370.704 206.489 370.568 208.155 370.477 209.809C370.432 210.025 370.387 210.24 370.347 210.455C370.239 210.954 370.137 211.458 370.007 211.957C364.228 213.73 362.811 214.54 359.27 215.736C356.034 216.943 352.374 217.912 350.221 220.79C348.697 222.558 348.261 224.671 348.385 226.842C345.547 226.949 342.713 227.096 339.948 227.788C338.209 228.201 336.532 228.802 334.894 229.51C334.345 229.703 333.784 229.856 333.24 230.049C330.503 230.983 328.242 232.876 325.976 234.61C325.846 234.717 325.749 234.797 325.687 234.853C324.395 235.817 323.097 236.774 322.027 237.981C320.349 239.794 319.126 241.964 317.902 244.1C316.723 245.273 315.477 246.373 314.253 247.5C314.122 247.613 313.975 247.715 313.839 247.829C312.304 248.9 310.587 249.67 309.006 250.667C306.87 252.141 304.654 253.506 302.637 255.149C299.657 257.642 296.875 260.362 294.115 263.099C292.665 264.555 291.424 266.192 290.087 267.751C288.183 269.83 286.115 271.751 284.2 273.813C284.115 273.904 284.035 274 283.956 274.097C282.959 274.131 281.956 274.148 280.959 274.17C280.687 274.199 280.421 274.227 280.149 274.261C279.497 274.323 278.857 274.42 278.211 274.527C276.613 274.573 275.004 274.199 273.412 274.278C272.567 274.295 271.734 274.408 270.896 274.51C268.941 274.465 267.003 274.17 265.043 274.221C264.822 274.221 264.601 274.204 264.38 274.193C264.012 274.125 263.638 274.057 263.264 274.012C262.873 273.961 262.482 273.91 262.091 273.853C260.051 273.468 257.994 273.213 255.932 273.003C253.739 272.726 251.523 272.793 249.319 272.68C246.94 272.454 244.543 272.408 242.163 272.221C239.619 271.768 237.092 271.269 234.52 270.997C234.123 270.946 233.732 270.895 233.335 270.844C232.944 270.788 232.559 270.725 232.168 270.68C230.179 270.317 228.145 270.623 226.145 270.697C221.034 270.884 216.008 271.91 210.977 272.793C210.303 272.873 209.628 272.958 208.954 273.043C203.679 273.587 198.551 274.952 193.372 276.051C191.401 276.505 189.406 276.856 187.417 277.241C186.692 277.411 185.995 277.661 185.327 277.984C184.658 278.25 184.001 278.545 183.355 278.873C182.805 279.134 182.25 279.383 181.689 279.615C181.298 279.768 180.748 279.978 180.471 280.074C176.765 281.162 173.082 282.29 169.32 283.174C167.127 283.774 165.025 284.653 162.798 285.1C162.283 285.333 161.841 285.735 161.563 286.233C162.504 285.554 163.467 285.661 164.492 285.797C165.858 285.865 167.223 285.831 168.595 285.854C171.507 285.905 174.414 286.318 177.332 286.171C179.592 286.114 181.853 286.25 184.091 285.831C185.236 285.701 186.363 285.44 187.497 285.253C188.143 285.202 188.789 285.197 189.434 285.248C191.095 285.395 192.76 285.401 194.426 285.429C199.509 285.503 204.586 285.112 209.662 285.361C213.651 285.599 217.623 285.134 221.607 285.044C224.525 285.049 227.46 285.038 230.372 285.214C230.78 285.282 231.188 285.35 231.601 285.418C235.262 285.899 238.843 286.874 242.531 287.14C244.951 287.259 247.37 287.395 249.79 287.582C252.175 287.616 254.56 287.718 256.935 287.984C257.161 288.018 257.394 288.058 257.62 288.103C258.209 288.222 258.804 288.296 259.399 288.375C259.955 288.455 260.51 288.545 261.059 288.653C263.575 289.134 266.131 289.049 268.675 289.265C270.454 289.593 272.216 289.157 273.995 289.14C276.454 289.423 278.913 289.514 281.338 289.05C281.497 289.044 281.65 289.038 281.809 289.038C284.874 288.965 288.138 289.095 290.891 287.537C291.418 287.185 291.923 286.8 292.416 286.403C292.971 285.984 293.52 285.559 294.059 285.117C296.133 282.675 298.563 280.562 300.699 278.176C304.167 273.819 308.224 269.96 312.428 266.317C313.788 265.382 315.148 264.447 316.525 263.524C318.009 262.527 319.709 261.898 321.137 260.81C323.772 259.059 326.05 256.877 328.361 254.741C330.293 252.968 331.268 250.52 332.685 248.373C333.104 247.925 333.546 247.5 334.01 247.109C336.974 244.911 334.696 246.322 338.402 244.021C339.251 243.721 340.079 243.386 340.906 243.035C342.175 242.622 343.461 242.231 344.77 241.953C345.507 241.896 346.249 241.845 346.986 241.783C350.691 241.721 354.42 241.539 358.08 240.922C358.862 240.825 359.587 240.48 360.307 240.168C361.446 239.868 362.222 238.933 363.162 238.287C364.307 237.148 365.095 235.618 365.208 234.009C365.621 232.508 365.146 231.046 364.534 229.658C364.772 229.573 365.004 229.493 365.242 229.408C366.256 229.063 367.248 228.655 368.234 228.23C370.766 227.266 373.412 226.649 375.917 225.64C383.039 223.176 385.118 215.549 385.481 208.738C385.532 208.653 385.583 208.568 385.634 208.483C386.898 207.673 388.246 206.988 389.453 206.092C391.17 207.475 392.983 208.784 395.119 209.345C398.524 210.268 402.122 209.05 404.678 206.716C406.049 205.424 407.143 203.871 408.446 202.511C410.049 203.129 411.687 203.656 413.426 203.679C414.775 203.673 416.027 203.333 417.189 202.659C418.616 201.899 419.489 200.585 420.333 199.265C421.126 198.341 421.846 197.35 422.639 196.426C423.45 196.817 424.254 197.225 425.047 197.644C427.586 198.942 430.357 199.888 433.201 200.188C437.705 201.35 441.779 199.146 445.105 196.256C445.338 196.12 445.576 195.99 445.819 195.865C447.332 195.349 448.839 194.828 450.397 194.477C450.516 194.465 450.641 194.454 450.76 194.448C450.987 194.505 451.213 194.567 451.44 194.624C451.344 200.489 454.84 203.973 460.772 205.735C463.752 206.376 466.727 205.582 469.651 205.016C470.138 204.919 470.625 204.834 471.113 204.744C472.473 204.659 473.827 204.534 475.158 204.183C476.694 203.599 478.241 202.982 479.663 202.149C479.918 201.956 480.173 201.752 480.428 201.554C481.856 200.579 483.385 199.758 484.813 198.783C484.87 198.743 484.932 198.715 484.995 198.681C485.828 198.432 486.655 198.143 487.488 197.899C487.629 197.984 487.765 198.075 487.907 198.16C488.207 198.471 488.508 198.777 488.808 199.089C490.054 200.239 491.375 201.401 492.848 202.245C493.964 202.749 495.086 203.248 496.236 203.662C498.661 204.143 501.126 204.29 503.591 204.279C505.648 204.557 507.67 204.149 509.71 203.934C512.9 203.917 516.113 203.803 519.263 203.22C522.113 202.608 524.72 201.202 527.4 200.098C529.615 199.112 531.66 197.78 533.836 196.709C534.318 196.59 534.8 196.466 535.281 196.347C535.808 196.335 536.329 196.358 536.856 196.403C537.536 196.494 538.228 196.579 538.89 196.743C538.001 200.568 537.247 204.823 540.267 207.775C541.769 209.067 543.576 210.104 545.633 210.019C545.831 209.991 546.035 209.962 546.234 209.94C546.449 214.047 549.327 216.807 552.597 217.424C554.637 219.918 557.77 221.612 560.83 222.484C563.022 222.875 565.243 222.921 567.465 222.966C569.589 223.079 571.714 223.482 573.85 223.312C575.459 223.295 577.069 223.385 578.678 223.516C579.386 225.034 580.247 226.468 581.324 227.771C582.587 229.567 584.236 231.148 586.344 231.867C588.01 232.689 589.8 233.086 591.636 233.256C593.251 233.21 594.854 233.205 596.464 233.397C596.6 233.42 596.792 233.454 597.059 233.493C601.115 234.525 605.087 232.848 606.821 229.431C608.181 230.071 609.524 230.728 610.855 231.431C612.079 231.958 613.201 232.785 614.544 232.961C615.207 233.052 615.87 233.142 616.539 233.227C618.182 233.244 619.842 232.678 621.077 231.618C621.496 231.374 621.836 231.063 622.142 230.711C622.324 230.83 622.499 230.955 622.675 231.08C623.111 231.431 623.542 231.794 623.944 232.179C624.244 232.44 624.505 232.734 624.754 233.046C625.276 233.799 625.723 234.61 626.148 235.42C626.312 235.834 626.482 236.242 626.658 236.65C626.703 236.785 626.732 236.921 626.766 237.063C626.89 238.463 627.066 239.857 627.372 241.228C627.429 241.687 627.491 242.146 627.565 242.605C627.859 244.854 628.93 247.302 630.069 249.262C631.763 252.01 634.285 254.027 637.356 255.042C639.996 255.75 642.993 255.013 644.937 253.064C645.26 252.775 645.56 252.458 645.861 252.141C645.895 252.163 645.923 252.192 645.957 252.214C646.614 252.815 647.192 253.506 647.764 254.192C647.963 254.843 648.178 255.489 648.541 256.09C649.186 257.467 650.376 258.498 651.589 259.376C656.337 262.034 661.981 262.94 667.335 261.971C671.279 264.204 668.627 262.77 673.109 265.751C675.505 267.626 677.993 269.366 680.752 270.68C684.299 272.505 687.784 274.867 691.841 275.23C692.6 275.372 693.371 275.491 694.136 275.513C694.81 275.44 695.478 275.349 696.153 275.247C696.753 275.219 697.36 275.27 697.96 275.315C699.037 275.355 700.108 275.173 701.173 275.009C701.683 274.935 702.176 274.805 702.674 274.692C703.536 274.635 704.397 274.556 705.252 274.459C710.839 276.108 716.726 276.244 722.517 276.278C727.141 276.329 731.758 276.51 736.382 276.629C741.266 276.76 746.15 276.833 751.034 276.93C751.216 277.02 751.397 277.105 751.584 277.179C752.513 277.672 753.59 277.729 754.615 277.876C755.301 277.933 755.992 277.984 756.678 278.04C758.876 278.341 761.069 278.652 763.273 278.924C764.418 279.117 766.31 279.417 768.622 279.774C770.809 283.542 776.606 284.131 780.815 284.834C785.541 285.61 790.266 286.409 794.986 287.208C797.961 287.797 800.953 288.279 803.956 288.744C806.437 289.168 808.914 289.599 811.395 290.03C811.492 290.086 811.588 290.143 811.69 290.194C816.234 292.659 821.005 294.687 825.844 296.506C829.759 297.923 833.55 299.826 837.646 300.637C839.556 301.039 841.635 301.475 843.465 300.693C845.233 301.793 846.973 302.931 848.729 304.025C850.344 305.374 851.908 306.813 853.925 307.498C856.367 308.184 859.098 307.442 860.877 305.662C862.299 304.048 863.353 301.832 862.843 299.656C862.724 298.172 861.908 296.92 861.234 295.628Z" fill="#947A5D"/>
<path d="M723.65 290.438C717.933 287.611 712.21 284.744 706.374 282.154C706.595 279.361 705.343 276.409 702.748 274.998C702.153 274.749 701.558 274.494 700.963 274.244C699.495 273.819 698.022 274.012 696.549 274.267C691.693 274.783 686.792 275.123 682.033 276.273C680.956 276.369 679.602 276.471 677.823 276.573C674.457 276.749 671.08 277.032 667.788 277.786C663.623 278.709 659.527 279.973 655.317 280.67C647.69 281.015 640.047 281.078 632.539 282.642C627.276 283.525 622.04 284.579 616.816 285.667C615.031 285.118 613.031 285.293 610.816 285.985C607.716 286.817 604.668 287.905 601.5 288.432C600.197 288.597 598.9 288.761 597.597 288.914C594.492 289.277 591.387 289.645 588.282 290.007C583.052 290.478 577.805 290.789 572.564 291.163C569.074 291.345 565.594 291.6 562.116 291.906C560.778 289.962 558.54 288.619 555.73 288.693C553.123 288.886 550.772 290.126 548.222 290.653C539.479 292.829 530.731 294.977 521.92 296.852C520.498 297.135 519.314 297.713 518.368 298.484C512.764 299 507.154 299.504 501.551 300.042C500.151 298.286 497.93 297.135 495.675 297.169C489.748 297.804 483.85 298.66 477.968 299.645C477.413 299.713 476.858 299.781 476.303 299.849C471.611 300.325 466.976 301.147 462.421 302.348C461.775 302.513 461.123 302.677 460.466 302.784C459.803 302.869 459.134 302.954 458.471 303.045C457.31 303.181 456.114 303.498 454.992 303.98C450.528 304.847 446.063 305.72 441.598 306.586C440.47 306.592 439.343 306.603 438.215 306.609C433.167 306.156 428.118 305.731 423.064 305.334C422.809 303.391 421.84 301.544 420.237 300.461C419.523 299.804 418.678 299.362 417.715 299.136C415.035 298.575 412.327 298.745 409.613 298.869C406.893 298.96 404.173 299.051 401.448 299.141C397.176 299.3 392.898 299.39 388.626 299.515C385.555 299.668 382.489 299.855 379.418 300.025C367.429 299.917 355.445 299.787 343.461 299.441C341.614 299.379 339.773 299.334 337.925 299.283C330.99 298.093 324.049 296.903 317.103 295.798C315.652 294.988 313.907 294.744 312.241 294.574C310.286 294.308 308.326 294.047 306.371 293.798C303.34 293.413 300.314 293.01 297.288 292.62C293.617 292.098 289.939 291.605 286.262 291.135C284.319 290.88 282.369 290.636 280.42 290.415C277.667 290.087 274.919 289.775 272.159 289.486C272.119 288.217 271.768 286.942 271.173 285.798C270.187 284.132 268.578 282.874 266.708 282.364C256.385 281.032 255.393 281.004 244.033 279.333C238.758 278.76 233.562 277.434 228.275 277.077C222.785 277.383 217.26 277.049 211.781 277.542C206.008 278.29 206.189 278.216 197.265 278.828C194.987 279.015 192.692 278.998 190.431 279.372C186.97 279.848 183.57 280.704 180.125 281.299C176.034 282.194 171.858 282.625 167.795 283.639C162.356 285.061 156.86 286.325 151.539 288.143C150.384 288.591 149.222 289.033 148.06 289.475C144.349 293.033 140.87 296.79 137.363 300.569C135.793 302.258 134.218 303.935 132.643 305.612C133.771 308.071 136.689 309.561 139.352 308.779C145.046 306.853 150.933 305.561 156.628 303.634C158.225 303.073 159.818 302.513 161.415 301.957C163.863 301.34 166.311 300.739 168.759 300.133C171.586 299.56 174.119 298.932 175.711 297.237C177.116 296.812 178.527 296.399 179.944 296.002C180.674 295.781 181.417 295.583 182.159 295.402C182.748 295.311 183.343 295.22 183.932 295.13C186.579 294.739 189.225 294.314 191.871 293.911C195.208 293.628 198.568 293.509 201.917 293.305C202.126 294.841 202.801 296.308 203.956 297.413C204.976 298.172 205.9 299.153 207.152 299.532C208.886 300.399 210.858 300.461 212.745 300.694C216.966 301.107 221.204 300.949 225.437 300.909C227.289 301.283 229.159 301.566 231.035 301.804C238.027 302.728 245.092 302.818 252.13 303.107C255.699 303.294 259.274 303.436 262.844 303.606C270.862 304.445 278.873 305.317 286.88 306.246C286.976 306.592 287.101 306.932 287.259 307.261C287.713 308.83 288.987 309.867 290.274 310.779C292.37 312.071 294.897 311.748 297.249 312.02C299.6 312.19 301.951 312.366 304.309 312.525C313.063 313.063 321.828 313.357 330.599 313.612C332.373 313.765 334.146 313.924 335.914 314.1C337.37 314.287 338.622 314.445 339.727 314.581C343.784 315.29 347.841 315.992 351.904 316.678C354.436 317.114 356.98 317.494 359.536 317.805C361.53 318.14 363.723 317.715 365.366 316.53C368.103 316.785 370.84 317.063 373.576 317.278C378.149 317.664 382.739 317.584 387.317 317.76C392.598 318.117 397.873 318.457 403.153 318.814C403.352 320.287 404.1 321.704 405.165 322.752C405.669 323.143 406.173 323.528 406.678 323.919C409.001 325.347 411.8 324.956 414.384 324.741C418.996 324.242 423.614 323.738 428.226 323.239C432.322 322.876 436.391 322.361 440.442 321.743C441.048 321.794 441.654 321.845 442.261 321.902C446.386 322.355 450.545 322.939 454.658 322.163C456.375 322.055 458.137 322.151 459.673 321.369C460.534 321.069 461.276 320.604 461.905 320.021C463.832 319.879 465.724 319.59 467.384 319.386C471.299 318.746 475.198 318.004 479.136 317.516C489.097 316.1 503.568 314.797 518.702 313.408C525.037 312.672 531.32 311.55 537.627 310.615C539.995 310.196 542.375 309.799 544.681 309.108C545.18 308.949 545.678 308.779 546.171 308.598C547.763 308.405 549.497 308.201 551.412 307.975C562.807 306.484 574.309 306.139 585.754 305.193C591.262 304.7 596.752 304.003 602.237 303.294C603.892 303.736 605.693 303.561 607.382 303.243C609.002 303.073 610.521 302.49 612.045 301.929C615.479 301.243 618.907 300.512 622.335 299.793C623.394 300.603 624.561 301.289 625.933 301.289C628.471 301.782 630.992 300.552 633.435 299.985C637.576 298.971 641.781 298.269 645.991 297.611C650.438 297.039 654.892 296.495 659.334 295.895C661.329 295.572 663.335 295.305 665.295 294.818C666.27 294.586 667.114 294.138 667.839 293.481C668.02 293.362 668.185 293.231 668.349 293.096C669.278 292.863 670.253 292.608 671.284 292.331C671.76 292.212 672.242 292.11 672.723 292.013C673.007 291.951 673.29 291.911 673.573 291.86C673.602 291.86 673.624 291.855 673.653 291.855C675.392 292.897 677.545 293.26 679.517 292.693C679.789 292.608 680.061 292.523 680.333 292.433C680.984 292.28 681.664 292.217 682.327 292.11C682.752 292.047 683.172 291.991 683.596 291.928C684.628 291.809 685.659 291.719 686.685 291.56C688.775 291.401 690.775 290.75 692.651 289.832C692.724 289.803 692.787 289.764 692.86 289.73C694.713 289.526 696.566 289.294 698.413 289.044C699.19 288.965 699.977 288.886 700.736 288.716C700.81 288.704 700.884 288.693 700.952 288.687C700.952 288.682 700.946 288.676 700.946 288.67C701.229 288.602 701.507 288.517 701.773 288.415C707.434 289.277 714.505 290.574 720.862 291.379C722.953 291.679 725.061 291.928 727.129 292.376C726.007 291.662 724.834 291.039 723.65 290.438Z" fill="#F0D5BD"/>
<path d="M117.968 320.667C148.905 288.296 196.307 282.018 238.871 285.474C264.703 287.571 290.127 292.801 315.692 296.818C341.127 300.813 366.766 303.51 392.479 304.847C443.678 307.51 494.978 304.665 545.633 296.858C596.515 289.016 647.181 277.287 698.946 277.842C750.428 278.397 800.896 290.189 850.497 302.983C856.605 304.558 862.702 306.15 868.804 307.748C872.334 308.671 873.841 303.209 870.311 302.286C820.45 289.254 770.135 276.171 718.5 272.913C666.44 269.632 615.405 279.491 564.331 288.115C512.305 296.903 459.962 301.492 407.171 299.798C380.716 298.948 354.301 296.705 328.095 292.982C302.422 289.339 277.004 284.018 251.235 281.032C208.331 276.063 160.951 278.749 125.476 306.263C121.379 309.442 117.543 312.91 113.962 316.661C111.441 319.295 115.441 323.307 117.968 320.667Z" fill="black"/>
<path d="M871.314 303.906C870.481 298.852 866.985 295.028 863.285 291.741C858.854 287.809 854.321 283.985 849.817 280.137C840.813 272.448 831.731 264.844 822.461 257.467C803.933 242.718 784.657 228.814 764.032 217.13C723.599 194.222 678.503 180.624 632.681 173.802C606.866 169.96 580.791 168.17 554.699 167.943C551.05 167.909 551.05 173.575 554.699 173.609C599.982 174 645.441 179.054 688.991 191.826C710.669 198.183 731.792 206.444 751.816 216.921C772.265 227.618 791.416 240.599 809.712 254.629C820.144 262.623 830.291 270.981 840.32 279.469C845.165 283.571 849.981 287.701 854.792 291.849C859.104 295.572 864.86 299.391 865.852 305.402C866.441 309.006 871.903 307.482 871.314 303.906Z" fill="black"/>
<path d="M566.915 168.464C549.321 168.243 531.785 166.872 514.231 165.829C497.386 164.826 480.518 164.214 463.645 164.169C429.739 164.067 395.776 166.226 362.307 171.779C302.348 181.723 243.285 203.197 194.568 240.168C165.982 261.864 141.488 288.188 117.26 314.502C114.795 317.182 118.789 321.199 121.266 318.508C142.763 295.163 164.424 271.768 189.06 251.665C212.331 232.678 238.395 217.323 265.926 205.39C324.661 179.943 389.022 170.628 452.652 169.88C471.333 169.659 490.02 170.164 508.679 171.178C528.091 172.237 547.469 173.886 566.915 174.13C570.564 174.175 570.564 168.509 566.915 168.464Z" fill="black"/>
<path d="M136.042 313.697C134.405 315.629 132.58 317.142 130.354 318.349C131.498 319.834 132.643 321.318 133.787 322.797C137.255 319.8 140.87 317.006 144.644 314.4C147.624 312.343 144.797 307.431 141.782 309.51C137.618 312.388 133.612 315.482 129.781 318.791C127.277 320.956 130.473 324.729 133.215 323.239C135.827 321.822 138.133 319.97 140.048 317.703C142.388 314.933 138.4 310.904 136.042 313.697Z" fill="black"/>
<path d="M167.88 305.391C172.731 303.056 177.909 301.708 183.281 301.356C186.901 301.119 186.93 295.452 183.281 295.69C176.867 296.11 170.81 297.713 165.019 300.501C161.738 302.076 164.605 306.966 167.88 305.391Z" fill="black"/>
<path d="M209.639 298.269C214.807 297.634 219.974 297.413 225.176 297.594C228.825 297.725 228.819 292.058 225.176 291.928C219.974 291.747 214.807 291.974 209.639 292.602C206.064 293.039 206.019 298.71 209.639 298.269Z" fill="black"/>
<path d="M252.866 300.937C260.385 300.886 267.779 301.764 275.071 303.6C278.607 304.49 280.12 299.028 276.579 298.138C268.816 296.189 260.872 295.22 252.872 295.271C249.217 295.299 249.211 300.965 252.866 300.937Z" fill="black"/>
<path d="M300.065 307.612C308.099 309.725 316.207 311.51 324.389 312.966C327.953 313.601 329.483 308.145 325.896 307.504C317.72 306.048 309.612 304.258 301.572 302.15C298.042 301.221 296.541 306.688 300.065 307.612Z" fill="black"/>
<path d="M354.85 317.227C363.19 316.893 371.525 317.057 379.849 317.72C383.486 318.009 383.464 312.343 379.849 312.054C371.525 311.391 363.19 311.227 354.85 311.561C351.218 311.708 351.201 317.375 354.85 317.227Z" fill="black"/>
<path d="M412.939 318.576C419.001 317.901 425.075 317.618 431.172 317.737C434.821 317.805 434.821 312.139 431.172 312.071C425.075 311.958 419.001 312.235 412.939 312.91C409.358 313.306 409.312 318.978 412.939 318.576Z" fill="black"/>
<path d="M468.314 317.788C475.294 317.323 482.269 316.864 489.25 316.4C492.87 316.162 492.899 310.49 489.25 310.734C482.269 311.198 475.294 311.657 468.314 312.122C464.693 312.36 464.665 318.026 468.314 317.788Z" fill="black"/>
<path d="M513.722 314.303C519.456 312.943 525.246 312.054 531.128 311.652C534.748 311.402 534.771 305.736 531.128 305.986C524.748 306.422 518.436 307.362 512.214 308.836C508.667 309.68 510.169 315.142 513.722 314.303Z" fill="black"/>
<path d="M559.492 307.634C564.127 306.563 568.773 306.099 573.527 306.184C577.176 306.246 577.176 300.58 573.527 300.518C568.28 300.427 563.096 300.994 557.985 302.172C554.432 302.988 555.934 308.456 559.492 307.634Z" fill="black"/>
<path d="M614.646 298.806C620.85 297.696 627.105 297.073 633.406 296.891C637.044 296.784 637.061 291.117 633.406 291.225C626.601 291.423 619.841 292.143 613.139 293.344C609.558 293.985 611.076 299.447 614.646 298.806Z" fill="black"/>
<path d="M672.514 293.424C680.288 292.319 688.135 291.945 695.983 292.177C699.632 292.285 699.626 286.619 695.983 286.511C687.608 286.262 679.296 286.783 671.006 287.956C667.414 288.472 668.944 293.928 672.514 293.424Z" fill="black"/>
<path d="M726.857 296.115C734.484 297.232 742.11 298.348 749.737 299.47C753.306 299.991 754.842 294.535 751.244 294.008C743.617 292.891 735.991 291.775 728.364 290.653C724.795 290.132 723.259 295.588 726.857 296.115Z" fill="black"/>
<path d="M787.422 304.167C793.473 305.306 799.525 306.445 805.582 307.584C809.146 308.252 810.675 302.796 807.089 302.122C801.037 300.983 794.986 299.844 788.929 298.705C785.365 298.031 783.835 303.493 787.422 304.167Z" fill="black"/>
<path d="M834.519 314.955C838.559 315.85 842.593 316.751 846.633 317.647C850.185 318.434 851.704 312.972 848.14 312.184C844.1 311.289 840.066 310.388 836.026 309.493C832.473 308.7 830.955 314.162 834.519 314.955Z" fill="black"/>
<path d="M181.706 272.544C185.462 268.555 189.213 264.566 192.97 260.577C195.469 257.926 191.469 253.909 188.964 256.572C185.208 260.56 181.457 264.549 177.7 268.538C175.201 271.196 179.201 275.207 181.706 272.544Z" fill="black"/>
<path d="M233.913 232.808C238.372 230.462 242.832 228.117 247.291 225.771C250.521 224.071 247.659 219.181 244.429 220.881C239.97 223.227 235.511 225.572 231.052 227.918C227.822 229.612 230.684 234.508 233.913 232.808Z" fill="black"/>
<path d="M283.225 211.033C289.01 207.724 295.107 205.248 301.555 203.571C305.079 202.653 303.589 197.185 300.048 198.109C293.146 199.905 286.551 202.602 280.364 206.144C277.202 207.951 280.052 212.847 283.225 211.033Z" fill="black"/>
<path d="M356.471 189.491C361.162 188.318 365.859 187.145 370.551 185.972C374.087 185.088 372.591 179.621 369.044 180.51C364.352 181.683 359.655 182.856 354.964 184.029C351.434 184.913 352.929 190.375 356.471 189.491Z" fill="black"/>
<path d="M419.84 181.745C424.701 180.629 429.591 179.96 434.577 179.734C438.209 179.569 438.226 173.903 434.577 174.067C429.098 174.311 423.676 175.053 418.333 176.283C414.78 177.099 416.282 182.561 419.84 181.745Z" fill="black"/>
<path d="M476.994 180C484.756 179.088 492.53 179.071 500.298 179.943C503.919 180.351 503.885 174.68 500.298 174.277C492.536 173.405 484.756 173.427 476.994 174.334C473.413 174.753 473.373 180.419 476.994 180Z" fill="black"/>
<path d="M557.356 184.255C560.529 184.414 563.696 184.573 566.869 184.731C570.513 184.913 570.507 179.246 566.869 179.065C563.696 178.907 560.529 178.748 557.356 178.589C553.707 178.408 553.718 184.074 557.356 184.255Z" fill="black"/>
<path d="M559.486 186.358C565.844 185.712 572.207 185.066 578.564 184.426C582.134 184.063 582.23 178.476 578.564 178.759C572.212 179.252 565.861 179.745 559.509 180.233C555.9 180.51 555.866 186.182 559.509 185.899C565.861 185.406 572.212 184.913 578.564 184.426C578.564 182.539 578.564 180.646 578.564 178.759C572.207 179.405 565.844 180.051 559.486 180.692C555.894 181.054 555.855 186.726 559.486 186.358Z" fill="black"/>
<path d="M608.47 188.8C616.187 189.61 623.893 190.573 631.571 191.701C635.14 192.222 636.676 186.765 633.078 186.239C624.896 185.037 616.691 184 608.47 183.133C604.844 182.754 604.872 188.42 608.47 188.8Z" fill="black"/>
<path d="M675.744 199.406C683.891 201.718 692.034 204.036 700.181 206.347C703.694 207.345 705.196 201.882 701.689 200.885C693.541 198.573 685.399 196.256 677.251 193.944C673.738 192.947 672.236 198.409 675.744 199.406Z" fill="black"/>
<path d="M732.903 222.105C737.175 222.666 741.051 224.422 744.501 226.961C747.442 229.125 750.269 224.207 747.363 222.071C743.051 218.898 738.189 217.136 732.909 216.439C729.299 215.963 729.333 221.635 732.903 222.105Z" fill="black"/>
<path d="M773.704 246.022C779.104 249.263 784.504 252.498 789.904 255.739C793.037 257.62 795.893 252.725 792.765 250.849C787.365 247.608 781.966 244.373 776.566 241.132C773.427 239.245 770.577 244.146 773.704 246.022Z" fill="black"/>
<path d="M815.095 276.074C819.622 279.259 824.144 282.443 828.671 285.633C831.657 287.735 834.49 282.828 831.532 280.743C827.005 277.559 822.484 274.375 817.956 271.185C814.97 269.077 812.137 273.989 815.095 276.074Z" fill="black"/>
<path d="M119.651 315.618C113.531 317.783 110.296 323.449 109.367 329.642C108.132 337.84 111.554 346.09 109.543 354.204C108.664 357.745 114.126 359.253 115.005 355.711C116.801 348.476 114.767 341.484 114.687 334.214C114.631 329.392 116.036 322.893 121.164 321.08C124.569 319.873 123.101 314.4 119.651 315.618Z" fill="black"/>
<path d="M113.786 360.097C148.729 394.456 183.649 428.849 218.541 463.265C253.342 497.59 288.115 531.932 322.865 566.308C342.504 585.732 362.131 605.161 381.753 624.595C384.348 627.162 388.354 623.162 385.759 620.59C350.912 586.072 316.043 551.577 281.146 517.11C246.384 482.768 211.594 448.448 176.782 414.157C157.126 394.796 137.465 375.446 117.792 356.102C115.192 353.53 111.186 357.536 113.786 360.097Z" fill="black"/>
<path d="M112.132 356.334C112.727 357.689 113.322 359.043 113.917 360.403C114.721 362.244 118.013 362.272 118.807 360.403C119.453 358.884 119.47 357.332 118.217 356.079C117.084 354.946 115.299 354.652 113.9 355.473C110.869 357.247 112.546 362.408 116.03 362.051C118.461 361.802 119.781 359.133 118.036 357.213C116.807 355.864 116.166 353.972 116.484 352.153C116.744 350.646 116.081 349.099 114.506 348.668C113.141 348.294 111.288 349.133 111.022 350.646C110.342 354.555 111.339 358.267 114.03 361.219C114.699 359.604 115.367 357.995 116.036 356.38C116.11 356.391 116.183 356.397 116.257 356.408C116.676 356.652 117.09 356.895 117.509 357.139C117.617 357.309 117.73 357.479 117.838 357.649C117.838 358.153 117.838 358.652 117.838 359.156C117.855 359.065 117.872 358.975 117.889 358.89C117.645 359.309 117.402 359.723 117.158 360.142C117.215 360.068 117.277 359.995 117.334 359.927C116.914 360.17 116.501 360.414 116.081 360.658C116.008 360.669 115.934 360.675 115.86 360.686C115.384 360.556 114.908 360.425 114.433 360.301C114.291 360.165 114.149 360.023 114.002 359.887C113.872 359.411 113.741 358.935 113.617 358.459C113.622 358.55 113.634 358.64 113.639 358.731C113.77 358.255 113.9 357.779 114.025 357.303C113.991 357.388 113.951 357.473 113.917 357.564C115.549 357.564 117.181 357.564 118.807 357.564C118.212 356.21 117.617 354.856 117.022 353.496C116.41 352.096 114.359 351.773 113.146 352.481C111.707 353.303 111.514 354.924 112.132 356.334Z" fill="black"/>
<path d="M865.466 306.496C854.503 313.918 845.04 323.12 837.283 333.846C835.669 336.078 838.921 339.416 841.159 337.721C852.621 329.041 862.735 318.972 871.467 307.55C873.422 304.989 869.166 301.77 867.019 304.116C828.852 345.756 790.068 386.824 751.652 428.243C732.268 449.139 712.981 470.127 693.909 491.312C684.288 501.998 674.718 512.736 665.221 523.535C664.031 524.889 662.853 526.601 661.493 527.779C660.683 528.482 659.731 528.958 659.006 529.768C656.677 532.357 654.524 535.326 652.365 538.069C650.506 540.437 648.234 542.216 646.302 544.539C643.922 547.401 641.543 550.256 639.169 553.118C629.055 565.294 618.697 577.312 608.861 589.721C599.16 601.96 590.293 614.827 580.7 627.151C578.485 629.995 582.468 634.035 584.706 631.157C593.132 620.335 601.013 609.11 609.359 598.226C618.13 586.786 627.61 575.879 636.812 564.784C641.305 559.368 645.804 553.951 650.302 548.54C652.048 546.449 654.201 544.925 655.827 542.772C657.918 540.012 660.156 537.326 662.366 534.658C663.329 533.496 664.428 532.782 665.499 531.774C666.847 530.505 668.003 528.918 669.227 527.53C671.709 524.714 674.191 521.898 676.678 519.087C681.381 513.773 686.101 508.475 690.838 503.188C728.727 460.885 767.539 419.415 806.296 377.911C827.951 354.72 849.584 331.506 871.025 308.116C869.54 306.972 868.056 305.827 866.577 304.683C858.48 315.267 848.927 324.775 838.303 332.82C839.595 334.112 840.887 335.404 842.179 336.696C849.341 326.797 858.214 318.224 868.328 311.38C871.331 309.357 868.498 304.445 865.466 306.496Z" fill="black"/>
<path d="M581.68 624.267C530.232 619.575 478.535 619.434 426.917 619.286C412.191 619.247 397.459 619.207 382.733 619.162C379.084 619.15 379.084 624.816 382.733 624.828C434.487 624.969 486.32 624.431 538.029 626.924C552.596 627.627 567.153 628.601 581.68 629.927C585.307 630.267 585.284 624.595 581.68 624.267Z" fill="black"/>
<path d="M389.09 611.784C391.64 612.039 394.196 612.294 396.745 612.549C398.269 612.702 399.578 611.138 399.578 609.716C399.578 608.056 398.275 607.036 396.745 606.883C394.196 606.628 391.64 606.373 389.09 606.118C387.566 605.965 386.257 607.529 386.257 608.951C386.257 610.612 387.561 611.631 389.09 611.784Z" fill="black"/>
<path d="M415.879 611.785C417.919 612.04 419.959 612.295 422.004 612.55C423.523 612.742 424.838 611.11 424.838 609.717C424.838 608.028 423.529 607.076 422.004 606.884C419.965 606.629 417.925 606.374 415.879 606.119C414.361 605.926 413.046 607.558 413.046 608.952C413.046 610.64 414.355 611.598 415.879 611.785Z" fill="black"/>
<path d="M448.029 610.272C451.151 609.966 454.182 610.136 457.236 610.884C460.777 611.75 462.29 606.288 458.743 605.421C455.225 604.56 451.638 604.254 448.029 604.611C444.431 604.957 444.397 610.629 448.029 610.272Z" fill="black"/>
<path d="M494.717 611.036C498.089 610.725 501.386 610.889 504.69 611.648C508.237 612.464 509.755 607.002 506.197 606.186C502.412 605.319 498.587 605.013 494.723 605.37C491.119 605.705 491.085 611.376 494.717 611.036Z" fill="black"/>
<path d="M527.62 613.224C531.196 612.436 534.782 612.43 538.363 613.212C541.916 613.989 543.434 608.527 539.871 607.75C535.27 606.747 530.714 606.747 526.119 607.762C522.555 608.544 524.062 614.006 527.62 613.224Z" fill="black"/>
<path d="M561.311 617.145C564.881 617.145 568.456 617.145 572.026 617.145C575.669 617.145 575.68 611.479 572.026 611.479C568.456 611.479 564.881 611.479 561.311 611.479C557.662 611.479 557.656 617.145 561.311 617.145Z" fill="black"/>
<path d="M473.289 611.02C474.053 611.02 474.818 611.02 475.583 611.02C477.068 611.02 478.484 609.716 478.416 608.187C478.348 606.651 477.17 605.354 475.583 605.354C474.818 605.354 474.053 605.354 473.289 605.354C471.804 605.354 470.387 606.657 470.455 608.187C470.523 609.722 471.696 611.02 473.289 611.02Z" fill="black"/>
<path d="M297.668 282.715C295.787 280.624 296.002 277.474 297.94 275.513C296.455 274.369 294.971 273.224 293.492 272.08C290.523 277.984 291.651 285.248 296.699 289.662C297.844 288.177 298.988 286.693 300.133 285.214C296.909 282.828 296.756 277.559 298.886 274.42C300.263 272.397 302.308 271.882 304.541 271.196C307.652 270.244 310.286 268.76 312.921 266.861C318.893 262.544 324.786 258.113 330.713 253.739C332.877 252.141 335.268 250.617 337.03 248.549C338.838 246.429 339.529 242.916 341.795 241.285C344.186 239.562 348.668 239.885 351.439 239.607C354.448 239.307 357.864 239.37 360.646 238.038C363.191 236.82 364.046 234.706 365.735 232.655C367.65 230.332 370.687 231.227 373.344 231.392C378.54 231.709 382.829 229.59 384.756 224.598C386.909 219.034 384.733 213.583 385.379 207.911C385.64 205.628 387.322 202.126 390.274 202.693C391.391 202.908 391.498 203.713 391.878 204.676C392.45 206.115 392.989 207.367 394.235 208.365C396.371 210.081 399.227 209.934 401.635 208.886C404.587 207.6 406.411 204.24 409.511 203.435C408.593 203.192 407.675 202.948 406.757 202.704C408.616 204.67 410.468 206.637 412.327 208.603C413.857 210.223 416.418 209.3 417.064 207.35C418.701 202.398 420.174 197.406 421.483 192.358C419.755 192.585 418.033 192.811 416.304 193.032C420.48 200.013 429.535 203.022 436.969 199.537C440.839 197.718 443.887 193.69 448.148 192.783C449.91 192.409 452.25 192.443 452.941 194.466C453.689 196.67 451.842 199.503 450.805 201.305C449.734 203.175 451.094 205.554 453.253 205.566C462.704 205.628 471.9 203.163 480.054 198.387C478.665 197.82 477.277 197.259 475.895 196.693C476.609 200.16 476.58 205.503 481.334 205.316C484.003 205.214 485.782 203.044 487.25 201.072C487.963 200.115 488.598 199.089 489.391 198.194C489.646 197.911 489.941 197.491 490.292 197.31C490.706 197.095 490.213 196.959 490.502 197.423C491.318 198.727 491.374 200.5 492.139 201.871C493.046 203.503 494.462 204.755 496.276 205.288C500.055 206.393 503.778 204.126 507.347 203.254C511.869 202.149 516.203 205.243 520.849 203.741C525.19 202.342 527.977 198.789 531.683 196.381C533.462 195.225 536.012 193.995 537.865 195.695C539.769 197.44 537.139 198.761 536.182 200.257C533.961 203.718 535.712 207.52 539.315 208.982C541.145 209.725 543.106 209.883 545.055 209.634C546.472 209.453 549.99 208.348 550.948 209.872C550.948 208.92 550.948 207.968 550.948 207.01C548.84 209.815 546.732 212.62 544.63 215.425C543.281 217.221 545.129 219.657 547.078 219.686C554.92 219.81 562.761 219.935 570.598 220.059C573.85 220.11 578.105 219.425 581.193 220.626C582.706 221.215 582.072 221.584 581.539 222.898C581.029 224.162 580.751 225.38 580.972 226.74C581.919 232.542 589.194 233.652 593.84 234.616C601.744 236.248 609.654 237.885 617.558 239.517C620.097 240.044 622.635 236.763 620.312 234.78C615.994 231.091 611.671 227.403 607.354 223.714C605.286 221.946 601.829 223.589 602.617 226.468C604.277 232.536 610.504 241.143 617.842 237.262C622.601 234.74 625.02 226.292 619.077 223.612C618.352 225.34 617.621 227.063 616.895 228.791C621.241 230.287 625.814 232.1 629.293 235.199C630.868 236.599 632.228 238.276 632.828 240.333C633.599 242.973 632.664 245.727 633.276 248.407C634.29 252.849 639.101 255.852 643.554 254.691C648.206 253.478 650.643 248.362 649.334 243.897C648.172 245.058 647.011 246.22 645.849 247.381C648.637 248.112 651.011 249.823 652.308 252.447C653.549 254.963 653.493 257.898 655.476 260.079C658.858 263.796 663.856 262.538 668.151 261.626C669.987 261.235 672.417 260.566 674.106 261.734C676.429 263.337 677.347 266.164 679.999 267.564C682.645 268.963 685.551 269.201 688.447 269.723C690.787 270.142 695.484 271.604 694.152 274.817C692.759 278.182 698.238 279.65 699.615 276.324C702.425 269.536 694.628 265.02 689.098 264.125C685.421 263.53 682.554 263.178 680.157 260.096C678.304 257.716 676.338 255.982 673.256 255.58C670.57 255.229 667.907 255.903 665.295 256.464C663.012 256.957 660.252 257.847 659.102 255.229C658.467 253.784 658.32 252.141 657.691 250.668C657.119 249.33 656.388 248.158 655.47 247.03C653.379 244.475 650.535 242.752 647.356 241.919C645.305 241.381 643.254 243.302 643.872 245.404C644.348 247.024 643.656 249.115 641.713 249.28C639.271 249.489 638.704 247.172 638.704 245.296C638.71 241.347 638.642 238.123 636.364 234.706C632.335 228.666 625.015 225.607 618.408 223.329C615.417 222.298 613.28 227.182 616.227 228.508C617.932 229.278 616.244 232.157 614.657 232.446C611.059 233.103 608.776 227.476 608.09 224.966C606.509 225.884 604.934 226.802 603.353 227.72C607.671 231.409 611.994 235.097 616.312 238.786C617.23 237.205 618.147 235.63 619.065 234.049C610.974 232.378 602.883 230.706 594.792 229.035C592.843 228.632 587.97 228.326 586.808 226.253C586.208 225.187 587.369 223.969 587.687 222.864C588.049 221.606 587.993 220.235 587.483 219.034C585.092 213.379 576.536 214.49 571.714 214.416C563.498 214.286 555.288 214.155 547.072 214.025C547.888 215.447 548.704 216.869 549.52 218.286C551.628 215.481 553.735 212.677 555.838 209.872C556.415 209.107 556.325 207.787 555.838 207.01C553.803 203.769 550.336 203.254 546.772 203.69C545.214 203.883 543.65 204.33 542.086 203.945C539.814 203.384 541.735 202.58 542.704 201.378C545.157 198.336 544.624 194.364 541.876 191.689C538.953 188.845 534.811 188.647 531.207 190.216C527.133 191.984 524.493 195.729 520.606 197.729C516.39 199.9 511.857 196.812 507.381 197.491C505.137 197.831 498.916 201.276 497.194 199.31C496.247 198.228 496.253 196.166 495.573 194.879C494.78 193.378 493.499 192.16 491.828 191.712C489.023 190.97 486.621 192.692 484.926 194.749C483.986 195.894 483.21 197.163 482.292 198.319C481.997 198.693 481.498 199.072 481.266 199.475C480.943 200.036 480.932 199.463 481.34 199.673C481.776 200.24 482.207 200.8 482.643 201.367C482.218 199.31 481.793 197.248 481.374 195.191C481 193.378 478.705 192.624 477.215 193.497C469.894 197.786 461.758 199.962 453.27 199.9C454.086 201.322 454.902 202.744 455.718 204.16C458.052 200.098 460.273 194.8 457.231 190.488C454.624 186.8 449.632 186.278 445.604 187.621C440.89 189.185 437.745 193.701 432.985 195.027C428.492 196.279 423.574 194.092 421.223 190.165C419.993 188.108 416.667 188.454 416.044 190.839C414.735 195.888 413.262 200.88 411.624 205.832C413.205 205.413 414.78 204.999 416.361 204.58C414.503 202.614 412.65 200.647 410.791 198.681C410.094 197.945 408.995 197.701 408.038 197.95C404.967 198.749 403.261 200.834 400.887 202.738C399.669 203.718 398.349 204.608 397.374 203.146C396.637 202.041 396.535 200.636 395.64 199.548C392.399 195.599 386.354 196.738 383.016 199.962C378.155 204.665 380.149 211.725 380.245 217.651C380.285 219.918 380.036 222.728 378.393 224.468C376.319 226.66 372.721 225.55 370.081 225.442C367.525 225.335 364.93 225.765 362.913 227.448C360.426 229.522 359.904 232.774 356.408 233.414C350.057 234.582 341.081 232.916 336.549 238.588C334.724 240.871 334.039 243.749 331.846 245.772C329.018 248.384 325.607 250.509 322.514 252.792C319.528 254.997 316.547 257.195 313.561 259.399C310.541 261.626 307.578 264.181 303.997 265.439C300.966 266.504 297.94 267.116 295.617 269.519C293.838 271.36 292.642 273.791 292.16 276.295C291.129 281.627 292.92 286.851 297.305 290.098C299.883 292.002 303.147 287.758 300.739 285.65C297.668 282.959 296.54 278.67 298.422 274.936C299.821 272.148 296.331 269.122 293.974 271.502C289.792 275.729 289.769 282.335 293.702 286.715C296.104 289.441 300.099 285.423 297.668 282.715Z" fill="black"/>
</svg>
