<svg width="980" height="735" viewBox="0 0 980 735" fill="none" xmlns="http://www.w3.org/2000/svg">
<path d="M499.384 276.439C504.064 271.101 508.631 265.668 512.892 259.985C516.683 254.925 520.417 249.599 523.544 243.972C515.601 253.882 507.957 264.03 500.574 274.365C500.178 275.056 499.781 275.742 499.384 276.439Z" fill="white" stroke="black" stroke-width="5.09948" stroke-miterlimit="10"/>
<path d="M524.61 234.351C523.085 236.958 521.539 239.553 519.98 242.142C521.012 240.85 522.032 239.553 523.074 238.266C524.1 236.997 525.607 237.694 526.145 238.873C527.386 236.21 528.468 233.484 529.335 230.691C527.805 231.541 526.332 232.481 524.904 233.49C524.876 233.762 524.785 234.051 524.61 234.351Z" fill="white" stroke="black" stroke-width="5.09948" stroke-miterlimit="10"/>
<path d="M524.74 226.379C523.137 228.277 521.601 230.226 520.128 232.226C520.547 231.909 520.972 231.592 521.397 231.274C522.513 229.643 523.635 228.016 524.74 226.379Z" fill="white" stroke="black" stroke-width="5.09948" stroke-miterlimit="10"/>
<path d="M489.65 51.603C315.191 51.603 173.766 193.029 173.766 367.487C173.766 541.946 315.191 683.372 489.65 683.372C664.109 683.372 805.534 541.946 805.534 367.487C805.534 193.029 664.109 51.603 489.65 51.603ZM538.826 212.242C535.829 216.9 532.775 221.518 529.687 226.113C530.395 225.767 531.109 225.427 531.851 225.121C533.347 224.498 534.582 226.255 534.293 227.563C531.454 240.278 524.043 251.707 516.326 261.991C508.541 272.371 499.821 281.975 491.14 291.607C490.313 292.525 489.242 292.349 488.539 291.698C464.113 327.819 442.344 365.68 420.382 403.331C419.085 405.558 415.821 403.597 416.96 401.331C418.342 398.566 419.747 395.812 421.158 393.064C414.376 404.578 407.395 415.972 399.854 427.021C398.42 429.123 395.23 427.299 396.432 425.021C404.143 410.334 412.433 395.965 421.062 381.806C430.156 366.875 439.516 352.093 449.115 337.474C453.976 329.241 458.855 321.026 463.767 312.821C466.487 307.518 469.241 302.225 472.051 296.967C466.561 304.724 461.195 312.566 455.965 320.499C439.703 346.619 424.671 373.522 409.328 400.175C408.047 402.402 404.744 400.43 405.905 398.175C412.518 385.319 419.447 372.621 426.711 360.122C434.938 345.956 443.585 332.046 452.616 318.385C466.243 296.503 480.732 275.176 496.925 255.135C501.192 248.834 505.679 242.675 510.445 236.697C510.836 236.204 511.334 236.029 511.827 236.063C517.21 228.651 522.938 221.319 527.505 213.41C528.48 211.721 530.695 212.486 531.131 213.925C532.627 212.526 534.151 211.166 535.71 209.851C537.341 208.463 540.112 210.236 538.826 212.242Z" fill="white" stroke="black" stroke-width="5.09948" stroke-miterlimit="10"/>
<path d="M524.61 234.351C523.085 236.958 521.539 239.553 519.98 242.142C521.012 240.85 522.032 239.553 523.074 238.266C524.1 236.997 525.607 237.694 526.145 238.873C527.386 236.21 528.468 233.484 529.335 230.691C527.805 231.541 526.332 232.481 524.904 233.49C524.876 233.762 524.785 234.051 524.61 234.351Z" fill="white" stroke="#4B4B4B" stroke-width="5.66609" stroke-miterlimit="10"/>
<path d="M524.74 226.379C523.137 228.277 521.601 230.226 520.128 232.226C520.547 231.909 520.972 231.592 521.397 231.274C522.513 229.643 523.635 228.016 524.74 226.379Z" fill="white" stroke="#4B4B4B" stroke-width="5.66609" stroke-miterlimit="10"/>
<path d="M499.384 276.439C504.064 271.101 508.631 265.668 512.892 259.985C516.683 254.925 520.417 249.599 523.544 243.972C515.601 253.882 507.957 264.03 500.574 274.365C500.178 275.056 499.781 275.742 499.384 276.439Z" fill="white" stroke="#4B4B4B" stroke-width="5.66609" stroke-miterlimit="10"/>
<path d="M489.65 149.343C370.736 149.343 274.339 247.009 274.339 367.487C274.339 487.965 370.736 585.632 489.65 585.632C608.564 585.632 704.961 487.965 704.961 367.487C704.961 247.009 608.564 149.343 489.65 149.343ZM538.826 212.242C535.829 216.9 532.775 221.517 529.687 226.113C530.395 225.767 531.109 225.427 531.851 225.121C533.347 224.498 534.582 226.254 534.293 227.563C531.454 240.278 524.043 251.706 516.326 261.99C508.541 272.371 499.821 281.975 491.14 291.607C490.313 292.525 489.242 292.349 488.539 291.698C464.113 327.819 442.344 365.68 420.382 403.331C419.085 405.558 415.821 403.597 416.96 401.331C418.342 398.566 419.747 395.812 421.158 393.064C414.376 404.577 407.395 415.972 399.854 427.021C398.42 429.123 395.23 427.298 396.431 425.021C404.143 410.334 412.433 395.965 421.062 381.805C430.156 366.875 439.516 352.092 449.115 337.474C453.976 329.241 458.855 321.025 463.767 312.821C466.487 307.517 469.241 302.225 472.051 296.967C466.561 304.724 461.195 312.566 455.965 320.498C439.703 346.619 424.671 373.522 409.327 400.175C408.047 402.402 404.744 400.43 405.905 398.175C412.518 385.318 419.447 372.621 426.711 360.121C434.938 345.956 443.585 332.046 452.616 318.385C466.243 296.502 480.732 275.175 496.925 255.134C501.192 248.834 505.679 242.675 510.445 236.697C510.835 236.204 511.334 236.028 511.827 236.062C517.21 228.651 522.938 221.319 527.505 213.409C528.48 211.721 530.695 212.486 531.131 213.925C532.627 212.525 534.151 211.165 535.71 209.851C537.341 208.463 540.112 210.236 538.826 212.242Z" fill="white" stroke="#4B4B4B" stroke-width="5.66609" stroke-miterlimit="10"/>
<path d="M745.876 278.048C741.615 278.915 737.281 279.924 733.49 282.139C739.139 280.689 745.038 280.898 750.8 280.235C758.313 279.419 765.753 277.85 772.994 275.697C763.917 275.884 754.795 276.229 745.876 278.048Z" fill="#9C9C9C" stroke="white" stroke-width="0.566609" stroke-miterlimit="10"/>
<path d="M761.317 325.445C753.826 324.471 746.092 324.352 738.749 326.301C744.267 326.408 750.183 327.253 755.843 327.44C760.659 327.649 765.464 327.066 770.28 327.213C767.379 326.21 764.342 325.819 761.317 325.445Z" fill="#9C9C9C" stroke="white" stroke-width="0.566609" stroke-miterlimit="10"/>
<path d="M768.994 369.544C764.166 369.091 759.362 368.394 754.523 367.997C747.939 367.368 741.258 367.47 734.759 366.099C733.921 365.901 733.088 365.685 732.232 365.566C733.02 365.895 733.762 366.303 734.522 366.683C740.148 369.351 746.347 370.417 752.466 371.261C761.73 372.615 771.175 372.23 780.332 370.298C776.553 370.037 772.768 369.873 768.994 369.544Z" fill="#9C9C9C" stroke="white" stroke-width="0.566609" stroke-miterlimit="10"/>
<path d="M759.696 422.913C756.358 422.391 753.14 421.304 749.894 420.403C742.851 418.573 735.717 417.06 728.578 415.66C727.733 415.468 726.629 415.468 725.96 415.06C726.34 415.496 726.935 415.677 727.444 415.915C736.935 420.153 746.788 424.012 757.186 425.202C761.798 425.53 766.438 424.8 770.909 423.706C767.192 423.661 763.09 423.4 759.696 422.913Z" fill="#9C9C9C" stroke="white" stroke-width="0.566609" stroke-miterlimit="10"/>
<path d="M739.496 471.953C736.493 470.673 733.235 470.367 730.096 469.59C733.19 471.386 735.864 472.174 738.998 473.914C743.791 476.48 749.084 477.891 754.2 479.659C749.389 476.248 744.296 473.874 739.496 471.953Z" fill="#9C9C9C" stroke="white" stroke-width="0.566609" stroke-miterlimit="10"/>
<path d="M707.483 516.092C704.123 513.922 700.746 511.786 697.511 509.44C697.505 509.434 697.499 509.434 697.499 509.434C696.865 508.947 696.23 508.46 695.596 507.978C694.853 507.457 694.168 506.703 693.216 506.613C692.933 506.579 692.649 506.562 692.372 506.533C692.627 506.63 692.887 506.726 693.142 506.828C693.754 507.032 694.134 507.593 694.525 508.069C695.148 508.851 695.794 509.61 696.44 510.375C698.259 512.426 700.27 514.29 702.418 515.996C705.03 518.183 707.976 519.917 710.713 521.939C714.526 524.631 718.3 527.481 722.515 529.515C717.506 525.039 713.189 519.735 707.483 516.092Z" fill="#9C9C9C" stroke="white" stroke-width="0.566609" stroke-miterlimit="10"/>
<path d="M686.938 568.622C685.385 566.05 683.748 563.523 682.031 561.052C677.583 555.092 672.319 549.771 667.531 544.105C670.778 551.046 675.209 557.381 679.804 563.506C681.997 566.458 684.303 569.319 686.671 572.129C688.666 574.47 690.774 576.747 693.363 578.436C690.751 575.495 688.972 571.965 686.938 568.622Z" fill="#9C9C9C" stroke="white" stroke-width="0.566609" stroke-miterlimit="10"/>
<path d="M636.362 587.094C634.243 583.773 632.084 580.464 629.642 577.388C629.41 577.099 629.064 576.878 629.008 576.487C628.951 576.923 629.263 577.252 629.41 577.631C629.682 578.719 630.339 579.569 630.69 580.595C631.693 582.98 632.787 585.604 634.26 588.323C637.342 593.763 641.819 598.369 646.686 602.245C643.127 597.276 639.773 592.165 636.362 587.094Z" fill="#9C9C9C" stroke="white" stroke-width="0.566609" stroke-miterlimit="10"/>
<path d="M581.254 594.374C581.152 594.057 581.044 593.74 580.937 593.422C581.169 597.57 581.526 601.712 582.024 605.831C583.095 616.007 586.104 625.815 587.968 635.85C589.135 621.707 585.611 607.724 581.254 594.374Z" fill="#9C9C9C" stroke="white" stroke-width="0.566609" stroke-miterlimit="10"/>
<path d="M539.11 617.713C538.945 615.77 538.815 613.826 538.209 611.957C538.118 611.6 538.175 611.996 538.163 612.155C538.175 612.591 538.186 613.028 538.158 613.464C538.169 615.011 537.903 615.94 537.75 617.453C537.557 619.821 537.54 622.207 537.183 624.558C536.956 626.184 536.82 627.816 536.707 629.454C536.237 632.644 535.931 635.856 535.914 639.086C535.432 646.559 536.69 654.022 538.05 661.348C538.435 655.591 538.594 649.817 538.991 644.061C539.393 640.106 539.659 636.151 539.784 632.173C540.073 627.606 539.767 621.464 539.11 617.713Z" fill="#9C9C9C" stroke="white" stroke-width="0.566609" stroke-miterlimit="10"/>
<path d="M483.899 622.999C483.406 618.665 483.44 614.291 482.845 609.973C482.823 609.361 482.862 608.749 482.891 608.137C482.76 608.545 482.647 608.959 482.528 609.372C482.154 611.106 482.182 612.863 481.899 614.16C481.236 618.042 481.032 621.979 480.896 625.906C480.721 629.374 480.573 632.847 480.641 636.32C480.93 644.723 481.434 653.132 481.219 661.54C484.709 649.041 484.913 635.867 483.899 622.999Z" fill="#9C9C9C" stroke="white" stroke-width="0.566609" stroke-miterlimit="10"/>
<path d="M429.901 616.841C428.269 621.306 426.762 625.85 425.952 630.542C425.045 634.938 425.612 639.851 422.892 643.676C426.496 640.837 427.136 636.049 428.207 631.873C429.59 625.952 430.706 619.923 431.114 613.855C431.125 613.668 431.131 613.481 431.142 613.294C430.729 614.478 430.36 615.674 429.901 616.841Z" fill="#9C9C9C" stroke="white" stroke-width="0.566609" stroke-miterlimit="10"/>
<path d="M399.888 602.675C397.548 605.661 395.446 608.829 393.366 612.002C391.661 614.483 389.967 616.971 388.46 619.577C386.374 623.096 384.556 626.762 382.777 630.439C381.247 633.538 379.813 636.74 377.671 639.477C382.51 635.624 385.678 630.111 389.089 625.045C391.559 621.322 393.78 617.435 395.877 613.498C397.99 609.225 399.854 604.84 401.951 600.556C402.098 600.239 402.251 599.922 402.398 599.599C401.56 600.619 400.715 601.644 399.888 602.675Z" fill="#9C9C9C" stroke="white" stroke-width="0.566609" stroke-miterlimit="10"/>
<path d="M361.336 573.846C360.622 574.464 359.925 575.104 359.228 575.744C356.044 578.532 353.16 581.637 350.571 584.98C343.108 594.777 337.618 605.837 331.64 616.552C338.077 609.747 343.647 602.154 348.604 594.222C350.882 590.499 352.95 586.652 355.222 582.929C357.104 579.977 359.121 577.116 361.092 574.226C361.194 574.079 361.291 573.926 361.404 573.778C361.393 573.801 361.364 573.824 361.336 573.846Z" fill="#9C9C9C" stroke="white" stroke-width="0.566609" stroke-miterlimit="10"/>
<path d="M322.982 549.562C320.245 551.771 317.798 554.293 315.622 557.058C312.228 561.375 309.961 566.446 306.664 570.826C314.052 565.126 318.291 556.519 323.77 549.159C323.9 548.955 324.03 548.751 324.178 548.559C323.764 548.876 323.39 549.233 322.982 549.562Z" fill="#9C9C9C" stroke="white" stroke-width="0.566609" stroke-miterlimit="10"/>
<path d="M287.784 527.333C284.039 529.419 280.589 531.963 277.342 534.762C274.322 537.345 271.534 540.184 268.916 543.176C265.919 546.134 263.097 549.261 260.168 552.281C268.758 547.278 276.129 540.552 282.985 533.407C285.728 530.631 288.816 528.206 291.269 525.152C291.371 525.033 291.484 524.92 291.598 524.812C290.312 525.628 289.076 526.529 287.784 527.333Z" fill="#9C9C9C" stroke="white" stroke-width="0.566609" stroke-miterlimit="10"/>
<path d="M275.857 476.061C273.489 476.837 271.132 477.648 268.763 478.43C262.786 480.469 255 483.212 250.581 485.149C247.827 486.271 245.181 487.631 242.546 489.002C239.396 490.793 236.263 492.685 232.727 493.603C238.523 493.535 243.833 490.861 249.261 489.116C258.729 486.056 267.653 481.501 275.993 476.112C276.084 476.05 276.192 476.004 276.265 475.919C276.135 475.987 275.999 476.027 275.857 476.061Z" fill="#9C9C9C" stroke="white" stroke-width="0.566609" stroke-miterlimit="10"/>
<path d="M253.221 428.363C250.717 428.675 248.19 428.749 245.691 429.094C238.914 429.48 232.234 430.709 225.577 431.967C218.732 433.344 212.216 435.996 205.383 437.395C211.513 437.746 217.604 436.511 223.673 435.775C226.381 435.338 228.942 435.112 232.563 434.46C236.506 433.633 240.405 432.607 244.343 431.74C247.368 430.998 250.371 430.137 253.318 429.14C254.349 428.794 255.448 428.715 256.457 428.346C255.386 428.443 254.298 428.261 253.221 428.363Z" fill="#9C9C9C" stroke="white" stroke-width="0.566609" stroke-miterlimit="10"/>
<path d="M236.603 367.935C230.665 367.453 224.732 368.116 218.84 368.808C222.936 369.578 227.146 369.839 231.316 369.754C234.733 369.538 238.144 369.125 241.538 368.672C241.731 368.643 241.929 368.615 242.122 368.587C240.286 368.32 238.45 368.082 236.603 367.935Z" fill="#9C9C9C" stroke="white" stroke-width="0.566609" stroke-miterlimit="10"/>
<path d="M256.23 313.671C255.884 313.801 255.573 314.028 255.216 314.113C254.757 314.101 254.298 314.079 253.845 314.152C248.235 315.155 243.147 313.654 237.572 312.985C234.501 312.583 230.563 312.532 227.939 312.192C223.95 311.535 220.075 310.328 216.199 309.2C219.82 311.433 223.593 313.54 227.696 314.73C231.282 315.603 234.971 315.909 238.637 316.232C242.32 316.521 246.122 316.883 249.731 316.135C251.675 315.949 253.38 314.912 255.261 314.504C255.737 314.3 256.071 313.858 256.491 313.557C256.411 313.591 256.321 313.631 256.23 313.671Z" fill="#9C9C9C" stroke="white" stroke-width="0.566609" stroke-miterlimit="10"/>
<path d="M275.183 244.295C271.682 243.241 268.038 242.76 264.537 241.683C261.879 240.731 258.451 239.088 254.859 237.808C250.422 236.357 249.136 235.405 244.626 233.683C240.552 232.442 236.438 231.326 232.359 230.119C236.37 232.606 240.654 234.601 244.864 236.714C247.691 238.544 250.7 240.068 253.884 241.179C257.488 242.369 261.063 243.848 264.831 244.403C268.503 244.85 272.191 244.703 275.874 244.845C276.379 244.85 276.883 244.822 277.387 244.816C276.651 244.647 275.914 244.494 275.183 244.295Z" fill="#9C9C9C" stroke="white" stroke-width="0.566609" stroke-miterlimit="10"/>
<path d="M296.624 199.352C296.442 198.814 295.961 198.445 295.615 198.009C293.286 195.284 290.164 193.397 287.297 191.289C281.591 187.153 275.449 183.594 268.877 181.033C268.548 180.79 268.231 180.54 267.902 180.308C267.795 180.234 267.46 179.979 267.698 180.206C268.622 181.254 269.557 182.286 270.452 183.362C273.857 187.6 277.404 191.765 281.631 195.221C284.322 197.556 287.275 199.584 290.567 200.967C291.467 201.369 292.397 201.698 293.332 202.021C294.176 202.349 295.241 202.519 295.972 201.868C296.72 201.341 297.032 200.168 296.624 199.352ZM276.94 187.555C275.013 185.969 273.115 184.342 271.166 182.79C274.73 185.323 278.112 188.082 281.444 190.921C279.699 189.674 277.959 188.331 276.94 187.555Z" fill="#9C9C9C" stroke="white" stroke-width="0.566609" stroke-miterlimit="10"/>
<path d="M342.292 154.562C337.278 149.723 332.178 144.935 326.682 140.64C323.804 138.453 320.676 136.572 317.945 134.402C318.387 134.951 318.852 135.49 319.322 136.017C319.18 135.903 319.044 135.79 318.908 135.682C318.098 134.985 318.959 135.898 319.226 136.272C323.164 141.173 327.181 146.006 331.43 150.641C334.116 153.565 336.824 156.551 340.184 158.715C341.544 159.871 343.703 159.508 343.975 157.57C344.219 156.301 343.108 155.361 342.292 154.562Z" fill="#9C9C9C" stroke="white" stroke-width="0.566609" stroke-miterlimit="10"/>
<path d="M373.915 114.542C375.212 116.899 376.351 119.336 377.552 121.749C378.708 123.993 380.011 126.169 381.122 128.441C380.3 123.194 377.79 118.191 373.915 114.542Z" fill="#9C9C9C" stroke="white" stroke-width="0.566609" stroke-miterlimit="10"/>
<path d="M425.34 111.386C421.884 103.555 416.875 96.5578 412.903 89.0049C416.008 102.241 423.113 114.174 430.751 125.274C430.938 125.545 431.131 125.817 431.324 126.089C429.533 121.103 427.55 116.191 425.34 111.386Z" fill="#9C9C9C" stroke="white" stroke-width="0.566609" stroke-miterlimit="10"/>
<path d="M466.448 105.159C465.87 97.9572 464.901 93.2147 463.932 86.2227C463.02 81.5086 461.11 76.5394 462.867 71.7969C459.609 76.4884 460.895 82.4378 461.127 87.7526C461.297 91.3562 461.541 94.9712 462.34 98.4955C463.003 101.448 463.564 104.417 464.261 107.357C464.912 109.737 465.643 112.955 465.898 114.978C466.051 116.015 466.079 117.398 466.408 118.219C466.38 117.602 466.425 116.99 466.538 116.383C467.105 112.655 466.776 108.893 466.448 105.159Z" fill="#9C9C9C" stroke="white" stroke-width="0.566609" stroke-miterlimit="10"/>
<path d="M504.467 92.7504C501.634 101.935 501.062 111.686 501.356 121.245C502.546 116.355 504.07 109.426 505.328 103.839C506.41 99.0114 507.714 94.2292 508.473 89.3337C509.198 84.2343 509.419 79.0215 510.224 74.1543C507.595 80.1207 506.32 86.529 504.467 92.7504Z" fill="#9C9C9C" stroke="white" stroke-width="0.566609" stroke-miterlimit="10"/>
<path d="M556.079 72.8677C554.261 81.7011 551.751 90.3589 548.917 98.9203C547.053 105.68 545.422 112.513 543.977 119.381C543.903 119.755 543.818 120.123 543.75 120.497C544.045 119.885 544.339 119.279 544.634 118.667C548.77 109.907 552.566 100.869 554.748 91.4015C555.994 85.3104 556.346 79.072 556.079 72.8677Z" fill="#9C9C9C" stroke="white" stroke-width="0.566609" stroke-miterlimit="10"/>
<path d="M600.887 123.54C598.167 127.682 593.787 134.107 592.116 137.246C593.935 135.829 595.402 134.011 597.057 132.407C599.918 129.432 602.638 126.31 604.972 122.899C608.621 117.381 611.341 111.307 614.31 105.408C609.273 111.018 605.04 117.273 600.887 123.54Z" fill="#9C9C9C" stroke="white" stroke-width="0.566609" stroke-miterlimit="10"/>
<path d="M647.972 143.144C644.544 146.923 641.048 150.725 638.385 155.1C637.784 156.08 637.229 157.088 636.714 158.114C637.105 157.689 637.49 157.258 637.875 156.828C642.793 151.638 648.573 147.365 653.599 142.277C659.083 136.719 664.177 130.769 670.11 125.67C661.593 129.857 654.375 136.232 647.972 143.144Z" fill="#9C9C9C" stroke="white" stroke-width="0.566609" stroke-miterlimit="10"/>
<path d="M675.13 185.492C671.957 187.68 668.84 189.957 665.747 192.252C664.8 192.926 663.922 193.691 663.044 194.45C663.18 194.382 663.322 194.314 663.463 194.241C667.429 192.297 671.515 190.598 675.441 188.563C679.034 186.762 682.473 184.654 685.89 182.546C693.663 177.396 700.65 171.169 707.324 164.687C696.298 171.146 685.465 177.968 675.13 185.492Z" fill="#9C9C9C" stroke="white" stroke-width="0.566609" stroke-miterlimit="10"/>
<path d="M717.336 235.609C715.161 236.397 712.815 237.014 711.007 238.522C710.276 239.196 709.353 239.632 708.758 240.448C708.56 240.72 708.344 240.975 708.123 241.23C708.475 241.015 708.798 240.754 709.132 240.522C709.602 240.176 710.152 240.006 710.69 239.802C711.296 239.525 711.874 239.179 712.509 238.958C715.682 238.04 718.997 237.689 722.175 236.788C727.932 235.133 733.655 232.918 738.516 229.365C731.587 231.858 724.255 233.054 717.336 235.609Z" fill="#9C9C9C" stroke="white" stroke-width="0.566609" stroke-miterlimit="10"/>
<path d="M449.109 337.468C452.696 331.4 456.294 325.337 459.903 319.286C458.328 321.24 456.674 323.28 454.815 325.575C450.005 331.762 445.54 338.193 441.285 344.772C434.321 356.568 427.493 368.445 420.694 380.332C418.733 384.191 416.824 388.078 414.943 391.976C416.96 388.571 419 385.177 421.057 381.8C430.156 366.869 439.511 352.087 449.109 337.468Z" fill="#9C9C9C" stroke="white" stroke-width="0.566609" stroke-miterlimit="10"/>
<path d="M520.128 232.226C520.547 231.909 520.972 231.592 521.397 231.274C522.514 229.643 523.635 228.016 524.746 226.379C523.143 228.277 521.601 230.226 520.128 232.226Z" fill="#9C9C9C" stroke="white" stroke-width="0.566609" stroke-miterlimit="10"/>
<path d="M499.385 276.439C504.065 271.101 508.632 265.668 512.892 259.985C516.683 254.925 520.417 249.599 523.545 243.972C515.601 253.882 507.957 264.03 500.574 274.365C500.178 275.056 499.781 275.742 499.385 276.439Z" fill="#9C9C9C" stroke="white" stroke-width="0.566609" stroke-miterlimit="10"/>
<path d="M524.61 234.351C523.086 236.958 521.539 239.553 519.981 242.142C521.012 240.85 522.032 239.553 523.074 238.266C524.1 236.997 525.607 237.694 526.145 238.873C526.202 238.754 526.253 238.629 526.31 238.51C526.23 238.119 526.1 237.74 525.907 237.405C526.967 235.592 527.902 233.711 528.259 231.637C528.276 231.524 528.276 231.405 528.287 231.292C527.131 231.977 526.004 232.714 524.899 233.49C524.876 233.762 524.786 234.051 524.61 234.351Z" fill="#9C9C9C" stroke="white" stroke-width="0.566609" stroke-miterlimit="10"/>
<path d="M491.135 291.601C490.308 292.519 489.237 292.344 488.534 291.692C464.108 327.813 442.338 365.674 420.377 403.325C419.079 405.552 415.815 403.592 416.954 401.325C418.337 398.56 419.742 395.806 421.153 393.058C414.371 404.572 407.39 415.966 399.848 427.015C399.186 427.984 398.16 428.109 397.35 427.752C396.046 429.287 394.97 430.755 394.443 431.469C393.735 432.54 393.055 433.628 392.398 434.727C391.485 435.979 390.601 437.248 389.757 438.551C389.043 439.911 387.457 441.107 387.853 442.784C387.876 442.846 387.904 442.903 387.933 442.96C387.893 443.039 387.853 443.118 387.814 443.198C387.661 443.923 387.366 444.223 386.369 445.855C385.893 446.705 385.961 447.713 386.403 448.507C386.601 449.022 387.015 449.453 387.542 449.612C387.763 449.725 388.006 449.804 388.267 449.85C388.669 449.901 389.072 449.935 389.479 449.969C389.383 450.524 389.304 451.085 389.241 451.64C389.428 451.09 389.615 450.541 389.814 449.991C392.856 450.201 395.933 449.986 398.987 450.065C399.31 450.059 399.633 450.054 399.956 450.042C400.642 450.835 401.9 451.079 402.817 450.518C403.174 450.314 403.418 450.031 403.605 449.708C404.285 449.595 405.033 449.544 405.56 449.073C406.653 448.337 406.733 446.586 405.786 445.691C405.622 445.526 405.447 445.402 405.254 445.305C405.322 445.135 405.39 444.965 405.458 444.79C405.809 444.523 406.104 444.212 406.291 443.821C407.124 443.322 407.316 442.608 407.095 441.821C407.464 441.203 407.815 440.58 408.178 439.957C408.132 440.784 408.212 441.645 408.846 442.24C409.713 443.107 411.186 443.113 412.053 442.24C412.54 441.798 412.659 441.152 412.767 440.529C412.937 439.753 413.158 438.993 413.345 438.223C414.269 434.993 415.204 431.763 416.257 428.573C417.209 425.066 418.694 421.615 419.702 418.08C419.935 417.445 420.156 416.811 420.388 416.176C421.368 413.751 422.343 411.326 423.351 408.918C423.646 408.334 424.048 407.79 424.116 407.139C424.19 406.793 424.162 406.459 424.065 406.153C424.315 405.665 424.581 405.15 424.864 404.6C425.374 403.592 425.878 402.583 426.383 401.569C427.55 399.438 428.734 397.319 429.964 395.228C430.581 394.107 431.454 393.126 431.89 391.908C432.134 391.393 432.23 390.849 432.213 390.327C433.154 388.707 434.094 387.081 435.04 385.46C435.244 385.347 435.443 385.222 435.607 385.052C436.14 384.616 436.383 383.947 436.633 383.313C436.763 383.075 437.381 381.806 437.539 381.522C437.913 380.797 438.276 380.066 438.644 379.341C445.336 368.031 452.146 356.795 458.889 345.509C471.258 325.547 483.69 305.625 496.314 285.828C494.597 287.765 492.869 289.681 491.135 291.601Z" fill="#9C9C9C" stroke="white" stroke-width="0.566609" stroke-miterlimit="10"/>
<path d="M482.726 361.283C473.015 368.083 463.682 375.448 454.906 383.415C448.401 389.574 442.429 396.232 436.61 403.025C432.581 407.587 428.91 412.437 425.085 417.174C421.912 421.009 418.694 424.823 415.3 428.472C411.316 431.543 407.413 434.716 403.667 438.081C398.126 442.903 392.488 447.64 387.666 453.21C385.031 455.952 382.691 458.95 380.227 461.834C379.258 462.791 378.227 463.766 377.575 464.95C376.674 466.876 378.963 468.894 380.788 467.777C381.071 467.636 381.303 467.432 381.519 467.211C381.898 467.307 382.312 467.301 382.703 467.211C383.536 467.007 384 466.259 384.578 465.692C385.247 465.035 385.91 464.372 386.578 463.715C387.264 464.417 388.369 464.718 389.343 464.128C389.496 464.009 389.644 463.885 389.797 463.766L389.802 463.771C389.814 463.76 389.825 463.749 389.831 463.737C389.836 463.732 389.842 463.726 389.848 463.72C390.046 465.471 392.431 466.372 393.701 465.024C394.635 464.259 395.553 463.477 396.46 462.684C396.585 463.041 396.794 463.369 397.066 463.624C395.468 465.296 393.871 466.973 392.284 468.661C391.746 469.353 390.97 469.908 390.72 470.78C390.244 472.463 391.751 473.772 393.366 473.772C394.392 473.778 395.355 473.29 396.177 472.713C396.284 472.645 396.386 472.571 396.494 472.497C395.82 473.693 395.213 474.922 394.839 476.22C394.534 477.767 396.177 479.155 397.667 478.707C398.93 478.226 399.899 476.905 400.925 476.033C402.823 474.186 404.698 472.316 406.551 470.423C406.517 470.616 406.495 470.809 406.478 471.013C406.472 472.548 407.86 473.976 409.441 473.5C410.512 473.171 411.141 472.118 411.957 471.409C413.793 469.613 415.504 467.709 417.164 465.755C420.377 461.975 423.538 458.151 426.649 454.281C428.315 452.184 429.981 450.094 431.641 447.997C432.802 446.598 434.411 445.034 434.043 443.051C433.89 442.586 433.658 442.229 433.369 441.963C434.553 440.841 435.743 439.73 436.939 438.631C439.449 436.229 442.231 434.166 445.013 432.104C440.021 434.37 435.392 437.305 431.006 440.586C430.876 440.682 430.751 440.778 430.621 440.875C432.326 438.41 434.032 435.945 435.686 433.452C436.372 432.444 437.057 431.429 437.652 430.359C437.97 429.752 438.372 429.084 438.196 428.381C438.083 426.829 436.128 425.899 434.825 426.727C434.224 427.135 433.635 427.571 433.052 428.007C433.601 426.625 432.428 424.976 430.921 425.01C429.454 425.083 428.473 426.46 427.278 427.186C428.864 425.894 430.445 424.596 432.015 423.276C433.329 422.165 434.615 421.026 435.851 419.825C436.621 419.157 437.505 418.494 437.494 417.366C437.516 416.063 436.327 415.032 435.057 415.077C433.477 415.111 432.207 416.216 430.921 417.066C433.828 413.4 436.718 409.717 439.823 406.204C443.137 402.436 446.384 398.606 449.789 394.928C452.894 391.761 456.028 388.611 459.172 385.483C467.042 377.777 474.788 369.952 482.505 362.099C483.208 361.391 483.933 360.7 484.653 359.997C484.018 360.428 483.366 360.853 482.726 361.283ZM422.841 437.05C423.856 436.013 424.853 434.971 425.81 433.889C426.303 433.537 426.802 433.186 427.295 432.835C425.788 434.211 424.314 435.628 422.841 437.05ZM418.807 449.459C418.869 449.385 418.932 449.317 418.994 449.249C419.6 448.586 420.201 447.918 420.796 447.243C420.445 447.759 420.099 448.28 419.753 448.796C419.436 449.017 419.119 449.238 418.807 449.459Z" fill="white" stroke="white" stroke-width="0.566609" stroke-miterlimit="10"/>
<path d="M526.304 215.393C526.706 214.73 527.114 214.067 527.5 213.398C528.474 211.71 530.69 212.475 531.126 213.914C532.622 212.514 534.146 211.154 535.704 209.84C536.056 209.545 536.464 209.404 536.866 209.37C536.956 201.55 536.973 193.725 536.951 185.912C536.962 185.6 536.9 185.311 536.758 185.039C536.311 183.73 534.571 183.289 533.46 184.002C533.364 183.866 533.256 183.742 533.132 183.623C532.05 182.535 529.993 182.864 529.46 184.354C529.166 184.898 529.285 185.555 529.222 186.15C529.092 188.116 529.109 190.088 529.103 192.06C527.913 192.06 526.718 192.972 526.763 194.309C526.763 195.153 526.763 195.998 526.763 196.836C526.859 203.029 526.65 209.217 526.304 215.393Z" fill="white" stroke="white" stroke-width="0.566609" stroke-miterlimit="10"/>
<path d="M538.288 284.575C538.288 284.57 538.288 284.564 538.288 284.558C538.288 284.513 538.288 284.462 538.288 284.417C538.288 278.632 538.288 272.852 538.288 267.067C538.288 260.024 538.328 252.976 538.158 245.933C537.727 238.822 537.064 231.728 536.764 224.611C536.724 223.591 536.69 222.566 536.656 221.54C536.707 219.483 536.741 217.432 536.781 215.375C534.441 218.973 532.078 222.554 529.681 226.113C530.389 225.767 531.103 225.427 531.846 225.121C533.341 224.498 534.577 226.254 534.288 227.563C532.446 235.813 528.678 243.513 524.151 250.715C524.128 251.338 524.106 251.967 524.094 252.59C524.094 260.716 524.094 268.841 524.094 276.96C524.089 279.873 524.1 282.791 524.128 285.703C524.123 287.714 523.947 289.868 524.905 291.703C525.341 292.508 526.208 292.973 527.092 293.046C527.097 298.979 527.12 304.905 527.182 310.838C526.633 320.521 526.1 330.204 525.273 339.871C525.171 340.896 525.143 341.922 525.103 342.947C525.273 342.234 525.432 341.508 525.613 340.794C528.327 330.986 530.214 320.94 531.398 310.838C531.715 302.021 531.681 293.194 531.63 284.366C531.636 284.326 531.642 284.286 531.647 284.247C532.01 281.34 532.458 278.439 532.758 275.521C532.837 274.694 532.894 273.867 532.962 273.039C533.098 272.042 533.234 271.045 533.364 270.048C533.393 269.827 533.415 269.6 533.443 269.379C533.483 270.087 533.517 270.795 533.551 271.509C533.664 273.583 533.715 275.657 533.738 277.731C533.738 279 533.749 280.264 533.761 281.533C533.761 282.445 533.766 283.357 533.766 284.269C533.766 285.471 533.766 286.672 533.766 287.873C533.761 288.474 534.01 289.052 534.429 289.477C535.427 290.519 537.279 290.27 537.988 289.018C538.158 288.655 538.243 288.27 538.288 287.873H538.294V287.794C538.356 287.199 538.322 286.587 538.294 285.975C538.288 285.505 538.294 285.04 538.288 284.575Z" fill="white" stroke="white" stroke-width="0.566609" stroke-miterlimit="10"/>
<path d="M526.146 238.873C527.386 236.21 528.469 233.484 529.336 230.691C527.874 231.501 526.469 232.402 525.097 233.354C524.995 234.787 524.899 236.221 524.808 237.655C525.375 237.825 525.879 238.289 526.146 238.873Z" fill="white" stroke="white" stroke-width="0.566609" stroke-miterlimit="10"/>
<path d="M582.795 235.604C580.863 230.504 577.174 226.215 573.707 222.05C571.559 219.546 569.298 217.144 566.987 214.792C568.137 215.313 569.287 215.829 570.432 216.367C571.48 217.008 572.919 216.605 573.531 215.551C575.406 211.143 567.026 209.528 564.205 208.508C564.125 208.48 564.04 208.452 563.961 208.429C563.78 207.63 563.156 206.945 562.357 206.735C560.907 206.321 559.451 205.953 557.983 205.624C557.768 205.522 557.553 205.415 557.337 205.313C554.765 202.865 552.113 200.508 549.269 198.4C549.671 197.766 550.079 197.131 550.481 196.496C551.11 195.465 550.736 193.981 549.665 193.397C548.408 192.638 546.838 193.391 546.266 194.655C546.005 195.046 545.739 195.437 545.473 195.828C544.045 194.972 542.532 194.264 540.889 193.907C539.5 193.522 537.557 192.7 536.537 194.185C535.835 195.006 535.948 196.275 536.611 197.091C536.752 197.346 536.917 197.59 537.081 197.828C536.622 197.868 536.197 198.06 535.835 198.343C530.894 196.411 526.112 194.553 521.681 192.541C519.652 191.414 517.442 193.607 518.581 195.641C518.768 196.009 519.069 196.247 519.403 196.44L519.397 196.451C519.448 196.474 519.505 196.496 519.556 196.519C519.834 196.661 520.128 196.78 520.406 196.904C520.479 196.938 520.553 196.967 520.621 197.001C520.355 197.188 520.128 197.431 519.964 197.703C519.154 198.927 518.343 200.151 517.533 201.369C506.881 201.024 498.223 201.278 495.566 213.546C494.727 217.829 495.979 222.113 496.166 226.396C496.183 226.623 496.2 226.85 496.217 227.082C493.651 231.405 491.169 235.785 488.659 240.131C484.307 247.831 479.763 255.441 475.553 263.22C473.984 265.118 472.437 267.045 470.918 268.983C472.261 266.569 473.604 264.149 474.941 261.73C477.785 256.614 480.624 251.491 483.474 246.375C485.248 243.196 487.027 240.018 488.806 236.833C488.97 236.573 489.061 236.295 489.072 235.989C489.441 234.21 487.237 232.759 485.701 233.728C485.361 233.932 485.089 234.198 484.891 234.538C484.613 234.912 483.792 235.961 484.267 235.349C482.08 238.176 479.859 240.975 477.655 243.791C474.369 247.95 471.23 252.217 468.193 256.557C467.184 255.962 465.711 256.109 465.048 257.316C462.634 262.212 460.243 267.118 457.858 272.025C456.951 273.436 456.045 274.847 455.149 276.258C454.639 271.64 454.011 267.033 453.631 262.404C453.688 260.614 451.37 259.424 449.993 260.625C449.138 261.243 449.002 262.45 448.497 263.328C447.608 265.305 446.684 267.266 445.772 269.232C442.282 276.433 439.641 283.969 437.409 291.641C437.398 291.647 437.381 291.653 437.369 291.658C436.882 291.981 436.468 292.429 436.327 293.012C434.984 298.242 433.618 303.472 432.253 308.696C431.562 311.303 430.893 313.915 430.224 316.527C427.522 321.02 424.859 325.536 422.252 330.08C422.116 323.218 421.436 316.379 419.816 309.682C419.623 308.747 419.436 307.807 419.255 306.866C419.096 306.039 419.022 305.053 418.235 304.56C417.34 303.772 415.747 303.982 415.085 304.968C414.495 305.636 414.592 306.634 414.371 307.455C414.093 308.979 413.798 310.504 413.504 312.028C412.569 316.612 411.895 321.241 411.362 325.893C411.215 325.887 411.067 325.893 410.926 325.915C410.801 325.15 410.671 324.386 410.552 323.621C410.37 322.674 410.438 321.615 409.713 320.89C408.716 319.858 406.852 320.085 406.155 321.349C403.979 325.213 402.806 329.491 401.979 333.82C401.18 338.205 400.489 342.602 399.888 347.016C399.503 346.319 399.072 345.65 398.341 345.35C396.953 344.653 395.14 345.877 395.202 347.424V354.688C394.624 350.104 394.024 345.435 391.882 341.299C390.992 339.95 390.805 337.599 388.89 337.395C387.604 337.134 386.278 338.318 386.323 339.622C386.459 342.211 386.584 344.8 386.703 347.396C386.924 352.076 387.139 356.762 387.417 361.436C386.414 362.008 386.137 363.227 386.295 364.32C386.323 365.079 386.352 365.839 386.38 366.598V366.581C386.312 366.286 386.176 366.031 385.972 365.81C385.122 364.53 383.037 364.7 382.272 365.98C381.536 363.68 380.397 361.504 379.082 359.493C378.045 358.371 375.915 358.762 375.411 360.224C375.048 361.022 375.258 361.969 375.15 362.824C375.059 364.938 374.946 367.046 374.895 369.165C374.878 373.63 374.912 378.1 375.088 382.565C372.793 375.222 370.702 367.816 368.453 360.462C366.492 354.495 364.707 348.478 363.177 342.387C363.568 350.529 365.013 358.552 366.588 366.541C367.495 371.006 368.254 375.511 369.597 379.868C371.932 387.993 374.742 395.965 377.609 403.915C378.799 409.66 380.232 415.355 381.507 421.077C381.247 421.888 380.992 422.698 380.742 423.514C380.323 424.862 379.904 426.217 379.473 427.559C379.377 427.928 379.377 428.313 379.462 428.681C379.184 429.605 378.907 430.534 378.635 431.463C378.278 432.664 377.915 433.86 377.541 435.056C377.445 435.356 377.433 435.656 377.501 435.962C377.558 436.942 378.465 437.809 379.428 437.889C380.714 438.127 381.683 437.112 382.102 435.996C382.771 434.614 383.507 433.271 384.284 431.945C384.442 432.563 384.607 433.174 384.765 433.792C384.85 434.931 384.935 436.064 385.026 437.203C382.08 440.064 379.19 442.982 376.38 445.968C375.388 447.045 374.419 448.144 373.524 449.3C373.099 449.725 372.861 450.303 372.861 450.904C372.833 452.377 374.374 453.47 375.728 453.096C376.408 453.516 377.292 453.601 378.034 453.136C378.912 452.688 379.796 452.252 380.686 451.822C377.972 460.247 375.439 468.927 376.912 477.772C377.065 479.121 377.609 480.401 378.635 481.325C379.082 481.806 379.496 482.35 380.176 482.503C380.952 482.719 381.813 482.492 382.38 481.92C382.816 481.512 382.952 480.934 383.156 480.396C383.677 479.002 384.227 477.619 384.675 476.197C384.692 476.135 384.709 476.078 384.731 476.016C384.805 475.976 384.879 475.925 384.947 475.88C385.026 475.999 385.111 476.106 385.202 476.208C384.153 483.03 383.167 489.864 382.335 496.714C382.34 499.043 385.836 500.091 386.788 497.315C387.842 491.954 388.936 486.6 390.052 481.251C390.392 481.438 390.777 481.552 391.157 481.546C391.967 481.563 392.692 481.098 393.111 480.424C393.599 479.602 393.372 478.605 393.417 477.693C393.417 477.24 393.412 476.786 393.406 476.333C393.434 476.418 393.457 476.503 393.502 476.588C394.29 478.492 396.947 478.322 397.661 476.611C398.511 478.968 399.406 481.308 400.336 483.637C401.537 486.725 402.681 489.864 404.359 492.731C405.254 494.323 406.506 495.666 407.809 496.929C408.302 497.434 408.744 498.04 409.469 498.21C410.246 498.425 411.107 498.198 411.674 497.626C413.645 495.518 411.152 489.393 410.693 486.713C409.503 481.755 407.883 476.934 406.183 472.134C406.291 472.344 406.421 472.542 406.591 472.712C407.968 474.089 410.489 473.12 410.461 471.109C410.778 467.386 411.107 463.669 411.43 459.947C411.923 461.454 412.518 462.921 413.311 464.293C413.906 465.228 414.614 466.089 415.238 467.007C414.898 466.225 414.507 465.46 414.144 464.689C412.835 461.771 412.648 458.485 412.319 455.34C412.257 454.524 412.212 453.703 412.178 452.887C412.189 452.892 412.201 452.898 412.218 452.898C414.575 453.397 415.889 451.006 416.626 449.068C417.153 448.819 417.589 448.36 417.776 447.663C418.314 445.493 418.864 443.317 419.413 441.147C419.26 442.784 419.124 444.427 419.034 446.07C418.943 447.804 418.869 449.544 418.773 451.278C418.767 451.782 418.654 452.309 418.734 452.802C418.751 452.994 418.79 453.187 418.858 453.368C418.354 454.796 417.855 456.224 417.368 457.658C417.368 457.658 417.368 457.658 417.368 457.663C416.784 459.692 419.362 461.596 421.159 459.867C421.323 459.527 421.476 459.182 421.64 458.842C421.674 458.853 421.708 458.859 421.742 458.87C421.844 458.587 421.946 458.298 422.048 458.015C422.36 457.975 422.66 457.884 422.921 457.731C423.408 457.408 423.822 456.961 423.963 456.377C424.439 454.303 424.921 452.23 425.397 450.156C426.955 446.325 428.456 442.461 430.105 438.688C431.992 434.194 433.839 429.741 435.658 425.31C435.709 425.361 435.754 425.412 435.805 425.457C437.902 427.395 440.061 429.497 442.752 430.54C443.698 430.766 444.662 431.203 445.642 430.993C446.486 430.744 447.2 430.001 447.268 429.106C447.364 428.625 447.257 428.086 447.002 427.661C446.662 426.891 446.322 426.12 445.97 425.35C444.305 421.672 442.548 418.04 440.877 414.369C440.746 414.08 440.616 413.802 440.491 413.53C441.188 411.83 441.885 410.136 442.576 408.448C443.324 408.816 444.078 409.184 444.826 409.553C445.477 409.876 446.118 410.21 446.764 410.538C446.758 410.646 446.752 410.759 446.741 410.867C446.679 411.728 446.497 412.703 447.138 413.388C447.801 414.374 449.398 414.573 450.288 413.796C450.634 413.536 450.889 413.184 451.127 412.811C453.529 414.091 455.926 415.394 458.322 416.68C458.764 416.879 459.201 417.128 459.637 417.383C461.19 420.363 462.68 423.378 464.142 426.398C464.464 427.061 464.742 427.639 464.991 428.183C465.717 430.245 466.487 432.296 467.332 434.319C468.102 435.894 468.487 437.804 469.808 439.011C470.799 439.872 472.51 439.52 473.139 438.376C473.927 437.056 472.941 435.787 472.51 434.534C471.462 431.922 470.437 429.305 469.286 426.738C468.873 425.52 468.448 424.262 468.011 422.947C465.416 414.748 463.258 406.419 461.439 398.016C464.816 393.172 468.091 388.254 470.958 383.081C471.4 382.282 471.819 381.471 472.255 380.667C478.907 381.12 485.639 381.307 492.109 379.488C499.963 377.443 507.017 373.261 513.895 369.085C521.273 364.462 528.35 359.204 534.214 352.727C551.411 332.947 562.397 304.226 565.247 278.315C566.794 263.707 566.777 248.828 564.618 234.289C564.477 233.513 564.312 232.742 564.142 231.977C565.06 232.346 565.984 232.703 566.907 233.054C568.511 233.688 570.171 234.142 571.826 234.618C572.692 234.878 573.684 235.235 574.506 234.81C576.024 236.023 577.656 237.077 579.469 237.836C580.937 238.845 583.169 237.383 582.795 235.604ZM469.638 375.992C468.918 375.953 468.153 375.913 467.354 375.862C467.79 375.114 468.221 374.366 468.646 373.618C474.947 362.286 479.553 350.127 484.069 338.007C483.792 339.701 483.593 341.401 483.401 343.106C483.372 344.16 482.885 345.378 483.344 346.359C479.627 355.215 475.746 363.878 470.975 373.301C470.544 374.202 470.097 375.097 469.638 375.992ZM383.417 458.332C382.641 462.343 381.989 466.378 381.609 470.446C381.394 471.222 381.173 471.999 380.946 472.769C380.89 468.293 381.949 463.522 383.417 458.332ZM380.119 390.9C379.666 385.324 379.439 379.738 379.422 374.145C380.414 379.749 381.105 384.945 381.74 390.429C381.762 392.254 381.802 394.073 381.87 395.892L382.499 404.204C382.301 403.66 382.108 403.11 381.915 402.566C381.065 398.475 380.397 394.537 380.119 390.9ZM406.812 332.845C406.965 332.222 407.101 331.661 407.231 331.14C407.651 334.018 407.957 336.953 408.178 339.928C408.059 341.724 407.945 343.526 407.832 345.322C406.172 351.384 404.659 357.487 403.106 363.578C403.061 362.479 402.993 361.374 402.902 360.275C402.891 360.19 402.885 360.099 402.874 360.014C403.775 350.892 404.891 342.398 406.812 332.845ZM525.619 275.329C524.876 277.091 524.128 278.825 523.38 280.524C523.137 281.091 522.893 281.652 522.65 282.219C522.434 282.61 522.213 283 521.998 283.386C523.437 279.255 524.865 275.125 526.282 270.983C526.106 272.207 525.93 273.402 525.76 274.558C525.709 274.813 525.664 275.068 525.619 275.329ZM454.985 350.801C454.492 351.685 453.994 352.563 453.501 353.447C453.552 353.266 453.608 353.09 453.659 352.909C454.096 352.206 454.543 351.503 454.985 350.801ZM403.985 431.016C404.058 430.953 404.132 430.897 404.211 430.834C404.211 430.851 404.211 430.868 404.211 430.885C404.075 431.599 403.939 432.313 403.809 433.027C403.667 433.123 403.531 433.225 403.384 433.322C403.588 432.551 403.786 431.781 403.985 431.016ZM528.758 201.72C527.964 201.681 527.171 201.647 526.378 201.618C526.621 201.007 526.871 200.389 527.12 199.777C527.749 200.06 528.418 200.366 529.2 200.718C529.052 201.052 528.905 201.386 528.758 201.72ZM469.054 279.006C468.164 280.337 467.269 281.675 466.391 283.012C466.453 282.712 466.516 282.411 466.572 282.111C467.383 281.017 468.181 279.946 468.98 278.887C469.003 278.927 469.026 278.966 469.054 279.006ZM416.869 324.397C416.575 324.335 416.308 324.312 416.07 324.329C416.308 322.351 416.575 320.448 416.892 318.606C417.187 320.555 417.402 322.521 417.504 324.692C417.311 324.561 417.102 324.454 416.869 324.397ZM492.257 321.15C493.158 319.785 494.058 318.419 494.954 317.048C495.095 316.844 495.226 316.634 495.362 316.425C493.741 320.669 492.092 324.901 490.398 329.117C490.965 326.493 491.588 323.83 492.257 321.15ZM439.681 312.821C439.624 312.957 439.568 313.093 439.511 313.223C438.956 314.096 438.395 314.969 437.84 315.841C437.505 315.909 437.182 316.051 436.933 316.266C436.281 316.867 435.811 317.654 435.324 318.425C435.505 317.609 435.686 316.793 435.873 315.977C438.395 311.847 440.939 307.733 443.46 303.602C443.608 303.364 443.755 303.126 443.902 302.888C442.48 306.197 441.064 309.501 439.681 312.821ZM417.17 339.287C417.051 338.205 416.892 337.129 416.705 336.063C417.017 334.46 417.328 332.862 417.646 331.264C417.657 331.202 417.668 331.14 417.685 331.077C417.714 333.519 417.697 335.967 417.646 338.409C417.481 338.704 417.323 338.998 417.17 339.287ZM454.583 399.892C453.756 398.674 452.906 397.478 452.027 396.294C452.067 395.671 452.101 395.047 452.146 394.424C452.163 394.146 452.186 393.869 452.209 393.591C452.305 393.501 452.401 393.399 452.486 393.291C453.274 392.509 454.084 391.755 454.9 391.007C455.025 390.894 455.149 390.781 455.274 390.667C455.682 392.804 456.107 394.934 456.555 397.064C455.897 398.011 455.24 398.951 454.583 399.892ZM458.243 381.437C458.135 380.808 458.033 380.219 457.937 379.664C458.458 379.715 458.98 379.772 459.501 379.817C459.359 380.021 459.218 380.236 459.07 380.44C458.804 380.78 458.521 381.109 458.243 381.437ZM459.552 375.278C461.297 372.111 462.923 368.87 464.566 365.669C467.921 358.875 470.992 351.951 474.069 345.027C474.476 344.376 474.884 343.724 475.287 343.067C477.021 340.313 478.737 337.559 480.46 334.8C475.105 349.163 469.581 363.663 462.317 375.505C461.365 375.431 460.43 375.358 459.552 375.278ZM498.563 320.686C498.336 322.765 498.121 324.839 497.928 326.918C497.804 328.794 497.537 330.681 497.401 332.567C496.353 334.398 495.243 336.188 494.002 337.899C493.515 338.596 491.866 340.67 489.968 342.188C489.951 342.2 489.939 342.211 489.922 342.222C492.863 335.066 495.713 327.876 498.563 320.686ZM505.719 301.665C506.773 298.769 507.821 295.868 508.875 292.973C509.81 291.653 510.751 290.332 511.686 289.012C511.68 289.273 511.68 289.528 511.68 289.788C510.173 295.392 508.807 301.036 507.317 306.645C506.937 307.897 507.878 309.382 509.204 309.472C509.238 309.478 509.272 309.484 509.306 309.489C508.955 310.577 508.603 311.66 508.241 312.719C507.102 314.821 505.935 316.906 504.722 318.969C504.104 320.017 503.515 321.077 502.937 322.147C503.708 314.821 504.535 308.759 505.719 301.665ZM533.744 250.675C533.738 250.681 533.732 250.687 533.727 250.692C533.851 249.809 533.976 248.93 534.101 248.046C534.951 245.406 535.829 242.777 536.707 240.142C535.959 243.44 535.138 246.805 534.265 250.143C534.089 250.324 533.919 250.511 533.744 250.675ZM549.206 214.129C549.059 213.563 548.85 213.024 548.606 212.503C550.793 214.135 552.935 215.801 555.06 217.467C555.785 219.699 556.527 221.926 557.235 224.169C554.652 222.968 552.023 221.676 549.235 220.3C549.552 218.248 549.66 216.175 549.206 214.129ZM499.883 215.126C500.076 213.846 500.472 212.605 500.965 211.415C501.107 211.115 501.458 210.367 501.64 210.089C501.866 209.687 502.121 209.302 502.393 208.928C503.906 207.205 504.195 207.421 505.748 206.758C507.872 206.134 508.898 205.981 510.496 205.913C508.785 208.049 507.147 210.237 505.572 212.469C504.66 211.925 503.294 212.18 502.699 213.064C502.501 213.285 502.365 213.54 502.291 213.835C501.883 215.631 501.464 217.421 501.05 219.212C500.733 219.71 500.416 220.209 500.104 220.708C499.872 218.849 499.702 216.991 499.883 215.126ZM446.271 279.272C447.092 277.113 448.509 274.065 449.988 270.875C450.435 274.762 450.889 278.655 451.161 282.553C450.889 282.983 450.611 283.42 450.339 283.85C446.764 289.664 443.16 295.46 439.568 301.262C439.67 300.747 439.766 300.225 439.857 299.704C441.709 292.808 443.789 285.981 446.271 279.272ZM402.987 478.073C403.084 477.942 403.174 477.801 403.242 477.653C403.911 479.653 404.546 481.659 405.141 483.682C404.404 481.818 403.69 479.948 402.987 478.073ZM405.888 471.143C405.888 471.279 405.905 471.415 405.928 471.551C404.891 468.644 403.832 465.743 402.829 462.825C402.817 462.559 402.806 462.287 402.789 462.021C403.038 461.766 403.231 461.448 403.333 461.052C404.013 458.445 404.721 455.844 405.424 453.244C405.458 453.198 405.492 453.153 405.526 453.108C405.543 453.799 405.56 454.49 405.577 455.187C405.605 456.575 405.633 457.964 405.65 459.357C405.639 459.669 405.702 459.958 405.843 460.23C405.939 460.508 406.098 460.746 406.291 460.944C406.064 463.346 405.888 465.749 405.803 468.163C405.82 469.148 405.877 470.146 405.888 471.143C405.888 471.137 405.888 471.143 405.888 471.143ZM439.976 423.264C439.171 422.511 438.338 421.661 437.5 420.754C437.704 420.261 437.908 419.763 438.106 419.27C438.729 420.601 439.352 421.933 439.976 423.264ZM444.265 404.283C444.747 403.122 445.222 401.966 445.704 400.81C446.191 401.382 446.673 401.954 447.166 402.527C447.121 403.575 447.07 404.617 447.019 405.66C446.101 405.195 445.183 404.736 444.265 404.283ZM458.657 406.346C458.186 405.547 457.705 404.753 457.218 403.966C457.433 403.66 457.654 403.348 457.869 403.042C458.13 404.147 458.39 405.246 458.657 406.346ZM459.212 387.024C460.181 386.072 461.11 385.092 461.966 384.038C462.94 382.809 463.841 381.522 464.697 380.214C465.552 380.27 466.414 380.321 467.275 380.372C465.054 384.299 462.634 388.106 460.124 391.857C459.807 390.243 459.501 388.633 459.212 387.024ZM488.766 375.647C484.823 376.616 479.757 376.587 474.516 376.293C479.242 367.085 483.48 357.629 487.491 348.087C488.551 348.132 489.582 347.809 490.506 347.237C492.019 346.393 493.39 345.293 494.631 344.087C496.059 342.625 497.316 341.038 498.478 339.384C498.557 339.446 498.637 339.508 498.733 339.565C499.764 340.194 501.243 339.809 501.832 338.755C504.212 333.599 506.892 328.584 509.096 323.349C510.297 320.448 511.391 317.513 512.405 314.549C515.952 307.96 519.176 301.2 522.242 294.372C520.27 305.552 518.304 316.731 516.258 327.899C513.555 341.191 510.326 354.359 507.374 367.595C507.362 367.635 507.357 367.669 507.351 367.703C500.96 371.414 496.036 374.072 488.766 375.647ZM559.179 230.872C560.856 237.162 560.958 241.338 561.445 248.318C562.216 258.755 561.462 273.453 560.267 281.584C556.708 306.685 545.41 334.239 529.086 351.549C523.794 356.841 519.239 360.28 513.289 364.088C515.391 357.651 517.482 351.209 519.567 344.761C524.383 329.876 529.2 314.991 534.299 300.203C542.175 278.422 550.368 256.721 556.272 234.3C549.286 248.602 542.696 263.135 537.455 278.173C531.812 293.296 526.621 308.566 521.584 323.893C523.097 315.637 524.48 307.359 525.987 299.103C527.296 292.236 528.474 285.352 529.585 278.451C531.625 273.838 533.37 269.102 534.911 264.291C535.546 262.648 536.174 260.993 536.781 259.339C539.891 250.987 542.742 242.545 545.677 234.13C546.747 231.105 547.597 228.011 548.289 224.878C551.79 226.595 555.326 228.249 558.901 229.807C558.992 230.176 559.088 230.521 559.179 230.872ZM562.703 226.589C562.295 225.167 561.859 223.756 561.406 222.345C562.312 222.985 563.224 223.603 564.074 224.186C565.406 225.699 566.749 227.195 568.109 228.68C566.256 228.017 564.465 227.32 562.703 226.589Z" fill="white"/>
<path d="M484.262 235.371C484.301 235.315 484.347 235.264 484.386 235.207C484.341 235.275 484.296 235.326 484.262 235.371Z" fill="white"/>
<path d="M779.346 367.59C766.733 367.142 754.12 366.689 741.513 366.241C737.938 366.116 734.363 365.986 730.782 365.861C728.957 365.799 728.963 368.632 730.782 368.694C743.394 369.142 756.007 369.595 768.614 370.043C772.19 370.168 775.765 370.298 779.346 370.423C781.165 370.485 781.165 367.652 779.346 367.59Z" fill="#4D4D4D"/>
<path d="M769.81 421.061C758.682 419.549 747.616 417.577 736.652 415.152C733.507 414.455 730.368 413.724 727.24 412.953C725.473 412.517 724.713 415.248 726.487 415.684C737.394 418.364 748.409 420.603 759.497 422.382C762.676 422.892 765.866 423.362 769.056 423.798C769.815 423.9 770.575 423.617 770.801 422.807C770.977 422.144 770.569 421.163 769.81 421.061Z" fill="#4D4D4D"/>
<path d="M754.115 474.616C743.927 471.155 733.739 467.693 723.546 464.231C721.818 463.641 721.076 466.378 722.793 466.962C732.98 470.424 743.168 473.886 753.361 477.348C755.095 477.937 755.837 475.2 754.115 474.616Z" fill="#4D4D4D"/>
<path d="M392.964 430.789C389.627 436.608 386.312 442.438 383.02 448.286C382.125 449.878 384.572 451.306 385.468 449.714C388.76 443.872 392.074 438.036 395.412 432.217C396.318 430.636 393.87 429.208 392.964 430.789Z" fill="#4D4D4D"/>
<path d="M693.176 507.429C702.695 512.188 711.738 517.911 720.078 524.523C720.679 524.999 721.495 525.107 722.084 524.523C722.577 524.03 722.685 522.999 722.084 522.517C713.545 515.746 704.355 509.854 694.609 504.981C692.978 504.171 691.544 506.613 693.176 507.429Z" fill="#4D4D4D"/>
<path d="M668.239 545.46C675.48 553.613 682.285 562.141 688.603 571.025C690.394 573.541 692.139 576.079 693.856 578.646C694.864 580.153 697.318 578.737 696.303 577.218C690.144 567.988 683.492 559.087 676.376 550.571C674.37 548.168 672.324 545.8 670.245 543.46C669.032 542.094 667.032 544.1 668.239 545.46Z" fill="#4D4D4D"/>
<path d="M627.149 573.676C632.124 581.212 637.535 588.459 643.348 595.372C644.997 597.327 646.674 599.259 648.386 601.157C649.609 602.517 651.604 600.505 650.391 599.151C644.482 592.584 638.951 585.683 633.852 578.47C632.401 576.419 630.985 574.339 629.597 572.243C628.6 570.73 626.14 572.147 627.149 573.676Z" fill="#4D4D4D"/>
<path d="M581.271 590.641C583.832 601.848 586.393 613.056 588.954 624.258C589.69 627.471 590.421 630.689 591.158 633.901C591.566 635.681 594.297 634.927 593.889 633.148C591.328 621.94 588.767 610.733 586.206 599.531C585.469 596.318 584.738 593.1 584.002 589.887C583.599 588.114 580.863 588.862 581.271 590.641Z" fill="#4D4D4D"/>
<path d="M536.724 613.754C537.364 625.613 538.004 637.466 538.644 649.325C538.826 652.714 539.013 656.102 539.194 659.49C539.29 661.304 542.123 661.315 542.027 659.49C541.387 647.631 540.747 635.778 540.106 623.919C539.925 620.53 539.738 617.142 539.557 613.754C539.455 611.941 536.622 611.929 536.724 613.754Z" fill="#4D4D4D"/>
<path d="M484.805 610.042C483.797 623.153 483.321 636.304 483.383 649.455C483.4 653.212 483.462 656.969 483.57 660.725C483.621 662.544 486.454 662.55 486.403 660.725C486.035 647.58 486.199 634.423 486.902 621.289C487.106 617.538 487.349 613.787 487.638 610.042C487.695 609.277 486.947 608.625 486.222 608.625C485.406 608.625 484.862 609.277 484.805 610.042Z" fill="#4D4D4D"/>
<path d="M431.612 613.747C430.655 623.3 428.643 632.728 425.669 641.851C425.102 643.59 427.839 644.333 428.4 642.605C431.454 633.233 433.465 623.555 434.445 613.747C434.519 612.982 433.737 612.331 433.029 612.331C432.202 612.331 431.692 612.982 431.612 613.747Z" fill="#4D4D4D"/>
<path d="M400.868 603.106C395.74 612.733 390.607 622.354 385.479 631.98C384.017 634.717 382.561 637.459 381.099 640.196C380.244 641.805 382.686 643.239 383.547 641.624C388.675 631.997 393.808 622.376 398.936 612.75C400.398 610.013 401.854 607.271 403.316 604.534C404.172 602.925 401.724 601.497 400.868 603.106Z" fill="#4D4D4D"/>
<path d="M360.078 573.432C353.018 584.017 345.952 594.607 338.892 605.191C336.887 608.2 334.881 611.208 332.875 614.217C331.861 615.735 334.314 617.158 335.323 615.645C342.383 605.061 349.448 594.471 356.508 583.886C358.514 580.878 360.52 577.869 362.526 574.86C363.54 573.336 361.086 571.92 360.078 573.432Z" fill="#4D4D4D"/>
<path d="M326.778 546.287C320.596 554.526 314.415 562.77 308.239 571.008C307.78 571.62 308.142 572.589 308.749 572.946C309.474 573.371 310.228 573.054 310.686 572.436C316.868 564.198 323.05 555.954 329.226 547.715C329.685 547.103 329.322 546.134 328.716 545.777C327.991 545.358 327.237 545.675 326.778 546.287Z" fill="#4D4D4D"/>
<path d="M293.768 521.463C285.524 527.872 277.801 534.949 270.718 542.621C268.684 544.819 266.707 547.068 264.78 549.363C264.287 549.947 264.208 550.791 264.78 551.369C265.284 551.873 266.287 551.958 266.786 551.369C273.5 543.374 280.872 535.929 288.804 529.147C291.082 527.197 293.405 525.311 295.768 523.469C296.374 522.999 296.261 521.962 295.768 521.463C295.173 520.868 294.374 520.993 293.768 521.463Z" fill="#4D4D4D"/>
<path d="M275.398 474.135C264.842 479.62 254.286 485.105 243.73 490.59C240.716 492.159 237.696 493.723 234.682 495.292C233.061 496.131 234.495 498.579 236.11 497.74C246.665 492.255 257.221 486.771 267.777 481.286C270.792 479.716 273.812 478.152 276.826 476.583C278.447 475.739 277.013 473.297 275.398 474.135Z" fill="#4D4D4D"/>
<path d="M253.351 428.965C241.175 431.65 228.999 434.342 216.822 437.027C213.377 437.787 209.932 438.552 206.482 439.311C204.702 439.702 205.456 442.433 207.235 442.042C219.412 439.356 231.588 436.665 243.764 433.979C247.209 433.22 250.654 432.455 254.105 431.696C255.884 431.299 255.131 428.568 253.351 428.965Z" fill="#4D4D4D"/>
<path d="M243.946 370.06C236.942 370.06 229.939 370.06 222.93 370.06C221.106 370.06 221.106 372.893 222.93 372.893C229.933 372.893 236.937 372.893 243.946 372.893C245.77 372.893 245.776 370.06 243.946 370.06Z" fill="#4D4D4D"/>
<path d="M254.694 313.234C245.271 314.73 235.696 315.297 226.16 314.968C223.429 314.872 220.709 314.702 217.989 314.458C217.224 314.39 216.573 315.155 216.573 315.875C216.573 316.696 217.224 317.223 217.989 317.291C227.667 318.147 237.424 318.085 247.09 317.07C249.884 316.776 252.671 316.407 255.448 315.965C256.201 315.846 256.626 314.9 256.439 314.22C256.213 313.416 255.453 313.11 254.694 313.234Z" fill="#4D4D4D"/>
<path d="M279.784 244.075C267.03 242.437 254.462 239.276 242.439 234.732C239.022 233.44 235.651 232.034 232.33 230.516C231.633 230.199 230.806 230.318 230.393 231.026C230.036 231.638 230.2 232.646 230.903 232.964C242.954 238.471 255.624 242.579 268.627 245.117C272.327 245.837 276.05 246.426 279.79 246.908C280.549 247.004 281.206 246.188 281.206 245.491C281.2 244.647 280.543 244.177 279.784 244.075Z" fill="#4D4D4D"/>
<path d="M297.813 204.616C289.15 198.196 280.481 191.776 271.817 185.357C269.358 183.532 266.899 181.713 264.44 179.889C263.822 179.436 262.859 179.787 262.502 180.399C262.083 181.118 262.395 181.878 263.012 182.337C271.676 188.756 280.345 195.176 289.008 201.596C291.467 203.42 293.926 205.239 296.385 207.064C297.003 207.517 297.966 207.166 298.323 206.554C298.743 205.834 298.431 205.075 297.813 204.616Z" fill="#4D4D4D"/>
<path d="M341.488 158.976C332.869 150.698 324.251 142.419 315.633 134.147C314.319 132.883 312.313 134.883 313.627 136.153C322.246 144.431 330.864 152.709 339.482 160.981C340.796 162.245 342.802 160.239 341.488 158.976Z" fill="#4D4D4D"/>
<path d="M381.139 129.721C378.668 124.775 376.192 119.834 373.722 114.887C372.906 113.256 370.464 114.689 371.274 116.315C373.744 121.262 376.221 126.203 378.691 131.149C379.513 132.781 381.955 131.347 381.139 129.721Z" fill="#4D4D4D"/>
<path d="M429.351 126.015C424.547 117.363 419.736 108.711 414.931 100.059C413.56 97.5884 412.183 95.1123 410.812 92.6419C409.928 91.0497 407.48 92.4776 408.364 94.0698C413.169 102.722 417.98 111.374 422.784 120.026C424.156 122.497 425.532 124.973 426.904 127.443C427.788 129.035 430.235 127.613 429.351 126.015Z" fill="#4D4D4D"/>
<path d="M465.58 116.429C464.005 105.857 462.436 95.278 460.861 84.7051C460.413 81.6794 459.96 78.648 459.512 75.6223C459.399 74.8631 458.441 74.4494 457.767 74.6307C456.957 74.8517 456.662 75.611 456.775 76.3759C458.35 86.9488 459.92 97.5274 461.495 108.1C461.943 111.126 462.396 114.157 462.844 117.183C462.957 117.942 463.915 118.356 464.589 118.175C465.405 117.948 465.694 117.189 465.58 116.429Z" fill="#4D4D4D"/>
<path d="M501.237 115.602C501.9 104.701 503.282 93.8501 505.384 83.1299C505.985 80.0589 506.648 76.9992 507.367 73.9508C507.787 72.1773 505.056 71.4181 504.636 73.1972C502.075 84.0761 500.245 95.1193 499.146 106.242C498.84 109.358 498.591 112.48 498.404 115.602C498.29 117.427 501.123 117.421 501.237 115.602Z" fill="#4D4D4D"/>
<path d="M544.368 120.906C547.195 109.353 550.022 97.8053 552.855 86.2521C553.666 82.9545 554.47 79.6511 555.28 76.3535C555.717 74.5857 552.98 73.8264 552.549 75.5999C549.722 87.153 546.895 98.7005 544.062 110.254C543.251 113.551 542.447 116.855 541.636 120.152C541.206 121.926 543.937 122.679 544.368 120.906Z" fill="#4D4D4D"/>
<path d="M594.988 134.861C600.756 124.974 606.524 115.081 612.292 105.193C613.21 103.612 610.763 102.19 609.845 103.765C604.077 113.653 598.308 123.546 592.54 133.433C591.617 135.008 594.065 136.436 594.988 134.861Z" fill="#4D4D4D"/>
<path d="M634.316 161.106C641.705 152.109 649.099 143.111 656.488 134.113C658.573 131.575 660.658 129.036 662.749 126.492C663.236 125.903 663.327 125.064 662.749 124.487C662.25 123.988 661.236 123.892 660.743 124.487C653.354 133.484 645.96 142.482 638.572 151.48C636.486 154.018 634.401 156.557 632.311 159.101C631.823 159.69 631.733 160.529 632.311 161.106C632.815 161.605 633.829 161.701 634.316 161.106Z" fill="#4D4D4D"/>
<path d="M667.763 194.564C677.039 186.83 686.32 179.09 695.595 171.356C698.23 169.157 700.865 166.959 703.499 164.766C704.089 164.273 704.004 163.27 703.499 162.76C702.916 162.177 702.083 162.267 701.494 162.76C692.218 170.495 682.937 178.234 673.662 185.969C671.027 188.167 668.392 190.366 665.758 192.558C665.168 193.051 665.253 194.054 665.758 194.564C666.341 195.148 667.174 195.057 667.763 194.564Z" fill="#4D4D4D"/>
<path d="M706.605 241.757C716.769 237.961 726.475 233.02 735.496 226.997C737.003 225.989 735.587 223.535 734.068 224.549C725.257 230.437 715.784 235.321 705.851 239.026C705.137 239.293 704.644 239.984 704.859 240.771C705.046 241.457 705.879 242.024 706.605 241.757Z" fill="#4D4D4D"/>
<path d="M725.144 284.967C737.66 282.4 750.171 279.833 762.687 277.266C766.246 276.535 769.798 275.81 773.357 275.079C774.105 274.926 774.541 274.037 774.348 273.334C774.133 272.552 773.357 272.189 772.603 272.342C760.087 274.909 747.576 277.476 735.06 280.043C731.501 280.774 727.949 281.499 724.39 282.23C723.642 282.383 723.206 283.272 723.399 283.975C723.614 284.757 724.39 285.125 725.144 284.967Z" fill="#4D4D4D"/>
<path d="M738.385 325.921C748.273 325.921 758.166 325.921 768.053 325.921C769.878 325.921 769.878 323.088 768.053 323.088C758.166 323.088 748.273 323.088 738.385 323.088C736.561 323.088 736.561 325.921 738.385 325.921Z" fill="#4D4D4D"/>
<path d="M477.949 290.882C476.318 286.099 474.085 281.47 471.416 277.181C468.215 272.371 463.184 268.455 457.399 267.469C454.384 266.954 451.341 267.685 448.389 268.274C445.857 268.818 443.296 269.277 440.842 270.127C436.077 271.917 431.555 274.24 427.068 276.62C424.609 277.878 422.099 279.034 419.589 280.184C415.962 282.048 415.639 282.36 412.682 283.244C410.733 283.68 407.951 283.261 406.081 281.176C405.826 280.813 405.605 280.428 405.418 280.025C405.299 279.697 405.203 279.357 405.135 279.011C405.078 278.263 405.129 277.51 405.214 276.762C406.239 270.914 409.684 265.435 408.942 259.344C408.902 258.625 408.732 257.945 408.478 257.293C408.206 255.361 407.554 253.497 406.296 252.001C404.211 249.661 400.862 249.763 398.007 250.233C395.599 250.539 393.423 251.757 391.468 253.134C389.048 254.998 389.224 254.811 386.317 257.146C383.569 259.605 380.464 262.075 378.096 264.846C376.005 267.305 374.192 269.991 372.3 272.603C371.087 274.342 369.67 275.94 368.662 277.816C366.73 281.244 364.701 284.689 363.863 288.576C363.115 291.358 363.052 294.242 362.826 297.092C362.35 301.545 362.514 306.027 362.452 310.498C362.118 320.277 361.619 330.425 364.741 339.667C364.752 341.684 365.024 343.69 365.755 345.582C366.248 346.897 366.588 348.262 367.041 349.588C367.835 351.378 368.724 353.169 369.857 354.772C370.996 356.467 372.708 357.611 374.09 359.084C375.014 360.484 376.356 361.47 377.847 362.223C379.682 363.419 381.558 364.569 383.615 365.345C386.431 366.371 389.207 367.578 392.137 368.252C396.93 369.249 401.848 369.136 406.67 368.405C407.73 368.428 408.784 368.45 409.843 368.496C412.466 368.7 415.101 368.671 417.702 368.263C418.812 368.088 419.623 368.099 421.425 367.634C424.615 367.566 427.329 366.807 429.697 366.751C432.53 366.535 435.352 366.167 438.145 365.657C441.647 365.09 445.194 364.382 448.435 362.909C458.639 357.47 468.6 350.359 474.215 339.99C474.686 339.219 474.765 338.38 474.567 337.644C475.366 335.632 475.978 333.547 476.386 331.417C479.559 324.997 480.493 317.694 480.465 310.577C480.68 303.931 479.899 297.262 477.949 290.882Z" fill="#A39477"/>
<path d="M635.659 398.379C635.24 398.362 634.084 398.572 633.671 398.668C632.521 398.764 631.359 398.764 630.203 398.787H630.197C630.135 398.77 630.073 398.753 630.01 398.73C629.506 398.475 629.013 398.192 628.543 397.886C628.458 397.801 628.384 397.727 628.322 397.665C627.081 395.835 627.274 395.778 626.786 394.758C626.752 394.679 626.724 394.617 626.696 394.554C626.112 393.104 625.868 391.54 625.393 390.056C624.894 388.203 624.65 387.347 624.497 387.143C624.089 385.613 623.761 383.761 622.423 382.763C623.052 383.239 622.089 382.287 621.653 382.083C621.086 381.777 620.474 381.636 619.84 381.568C619.828 381.568 619.823 381.568 619.811 381.562C618.593 379.443 616.032 378.247 613.613 378.825C611.788 379.097 610.27 380.259 608.768 381.256C608.4 381.517 608.026 381.766 607.652 382.015C604.677 383.358 601.754 384.848 599.232 386.945C598.065 388.322 596.75 389.937 596.847 391.84C596.864 392.146 596.909 392.441 596.971 392.73C596.892 392.821 596.807 392.906 596.728 393.002C596.813 392.934 596.903 392.872 596.988 392.804C597.107 393.314 597.289 393.806 597.493 394.294C597.34 395.325 597.396 396.441 597.691 397.648C598.513 401.206 601.147 403.49 604.825 403.609C607.573 403.988 609.743 403.818 611.862 402.481C612.1 406.878 614.009 411.354 617.879 413.689C623.115 416.941 630.957 416.913 635.773 412.896C637.087 411.847 637.835 410.306 638.623 408.861C639.393 407.241 640.164 405.535 640.232 403.716C640.164 401.178 638.396 398.43 635.659 398.379Z" fill="#A39477"/>
<path d="M611.471 485.824C610.173 482.656 607.363 479.019 604.02 477.937C603.057 477.716 602.02 477.852 601.108 478.209C600.688 478.379 600.275 478.56 599.861 478.736C600.111 478.628 600.365 478.526 600.615 478.418C598.53 479.127 596.819 480.56 595.527 482.322C594.41 483.659 594.087 485.444 593.81 487.116C593.606 488.17 593.498 489.223 593.447 490.289C593.249 491.161 593.209 492.074 593.158 492.969C593 494.572 592.926 496.176 593.028 497.785C593.136 499.411 593.221 501.037 593.396 502.663C593.793 505.123 593.985 507.695 594.949 510.001C595.011 510.143 595.068 510.284 595.13 510.426C594.643 509.27 595.056 510.262 595.294 510.817C595.595 511.463 596.082 512.024 596.603 512.5C598.518 514.579 601.612 514.574 604.145 513.792C606.349 512.925 608.105 511.055 609.528 509.213C610.513 507.525 611.443 505.774 612.185 503.967C612.723 502.204 612.831 500.346 612.939 498.516C613.154 494.261 612.995 489.841 611.471 485.824Z" fill="#A39477"/>
<path d="M594.133 447.566C593.821 445.124 593.096 442.784 592.167 440.523C592.178 440.172 592.195 439.826 592.24 439.48C592.314 438.812 592.28 438.172 592.155 437.571C592.172 437.072 592.189 436.568 592.183 436.069C592.257 434.551 592.217 432.998 591.747 431.542C590.994 429.208 589.498 427.219 588.54 424.97C586.71 421.938 585.622 418.521 583.611 415.598C583.548 415.309 583.446 415.026 583.282 414.759C583.18 414.578 583.05 414.419 582.914 414.266C582.206 412.821 581.503 411.365 580.262 410.3C579.446 409.586 578.749 408.759 577.973 408.011C576.539 406.821 574.976 405.784 573.327 404.923C571.31 403.875 569.089 403.461 566.85 403.223C565.683 403.019 564.544 402.696 563.377 402.503C561.989 402.243 560.578 402.401 559.184 402.266C559.111 402.26 559.048 402.249 558.986 402.243C557.082 401.982 555.195 401.631 553.297 401.336C550.13 400.702 546.606 399.948 543.557 401.365C541.047 402.577 538.514 404.356 537.245 406.912C534.44 412.538 537.115 419.388 542.197 422.697C544.543 424.103 547.28 424.754 549.999 424.743C551.835 424.896 553.671 424.528 555.501 424.675C557.654 425.021 559.802 425.479 561.898 426.08C562.159 426.205 562.414 426.335 562.669 426.471C563.547 427.055 564.533 427.468 565.417 428.041C566.675 429.128 567.723 430.432 568.828 431.667C568.862 431.701 568.89 431.735 568.924 431.769C568.936 431.848 568.947 431.927 568.964 432.007C569.276 433.44 570.176 434.636 570.958 435.848C571.344 436.494 571.837 437.055 572.415 437.492C572.415 437.645 572.403 437.798 572.392 437.951C571.497 441.832 571.225 442.16 569.581 445.005C567.644 448.138 565.066 451.209 564.731 455.005C564.488 457.091 565.287 459.091 566.103 460.972C566.726 462.774 568.069 464.111 569.666 465.091C569.933 465.261 570.511 465.669 570.692 465.788C570.817 465.89 570.947 465.986 571.077 466.077C572.936 467.137 575.015 466.054 576.16 464.456C576.199 464.473 576.239 464.49 576.279 464.502C577.899 464.995 579.593 464.728 581.225 464.434C583.662 463.924 586.109 463.114 588.263 461.861C590.331 460.36 591.617 458.008 592.863 455.827C593.73 454.161 594.286 452.359 594.376 450.478C594.348 449.492 594.189 448.529 594.133 447.566Z" fill="#A39477"/>
<path d="M517.833 495.303C518.139 492.974 518.519 490.634 518.53 488.283C518.502 486.747 518.309 485.229 518.088 483.71C518.065 483.512 518.048 483.314 518.026 483.121C517.958 481.772 517.476 480.526 516.966 479.291C516.36 477.489 515.691 475.698 515.312 473.829C514.977 471.726 514.564 469.641 514.184 467.551C514.11 466.338 514.252 466.48 514.711 464.179C515.408 461.205 516.229 458.258 517.159 455.351C517.3 454.213 517.193 453.045 517.04 451.901C517.918 450.371 517.278 448.603 515.997 447.731C515.924 447.317 515.793 446.915 515.612 446.541C516.235 445.804 517.051 445.26 517.946 444.869C519.063 444.399 518.184 444.648 517.504 444.762C516.626 444.909 515.822 445.254 515.102 445.742C514.824 445.396 514.49 445.084 514.076 444.824C511.804 443.317 508.898 443.713 507.005 445.64C505.26 447.062 503.611 448.535 502.648 450.632C499.027 457.057 495.424 463.528 492.676 470.389C491.435 474.265 490.59 478.271 489.78 482.254C488.483 489.563 486.432 496.096 489.644 503.292C490.528 505.321 491.117 507.542 492.596 509.242C494.766 511.61 497.849 513.44 501.101 513.627C502.756 513.525 504.387 513.078 505.855 512.296C506.886 511.633 507.77 510.771 508.699 509.967C511.022 507.916 513.113 505.61 514.592 502.867C514.813 502.425 515.034 501.983 515.255 501.536C515.47 501.139 515.663 500.731 515.839 500.318C516.609 498.674 517.312 497.009 517.833 495.303Z" fill="#854822"/>
<path d="M597.776 333.496C597.617 332.51 597.198 331.587 596.422 330.901C594.031 328.816 591.402 329.513 589.475 331.802C589.271 331.995 589.084 332.204 588.914 332.431C587.855 333.298 586.982 334.391 586.642 335.734C586.206 337.938 586.568 340.465 588.025 342.233C588.977 343.31 590.484 343.559 591.855 343.531C592.903 343.525 593.997 343.417 594.92 342.868C595.906 342.239 596.626 341.287 597.039 340.216C597.43 339.836 597.77 339.411 598.037 338.93C598.915 337.202 598.977 335.026 597.776 333.496Z" fill="#854822"/>
<path d="M448.259 392.22C447.812 390.378 445.902 389.404 444.117 389.325C441.783 388.911 439.505 389.761 437.216 390.089C434.083 390.73 431.176 392.265 428.388 393.789C426.728 394.815 425.159 395.988 423.561 397.104C422.875 397.631 422.167 398.192 421.544 398.827C420.665 399.507 419.833 400.283 419.464 401.337C419.175 402.623 419.708 403.886 420.637 404.742C421.045 405.309 421.583 405.79 422.207 406.136C423.283 406.946 424.558 407.479 425.929 407.405C430.519 407.02 434.604 404.504 438.185 401.756C439.16 400.997 440.179 400.266 441.08 399.41C442.061 398.798 443.041 398.186 444.027 397.586C446.214 396.362 448.956 395.308 448.259 392.22Z" fill="#854822"/>
<path d="M245.113 278.734C244.909 278.915 244.711 279.096 244.512 279.283C244.212 279.572 243.895 279.855 243.566 280.139C243.64 279.77 243.702 279.402 243.742 279.034C243.838 276.818 242.104 274.478 239.758 274.575C239.141 274.603 238.552 274.75 237.974 274.949C237.622 274.977 237.52 275.079 237.35 275.175C237.243 275.215 237.135 275.26 237.027 275.306C237.01 275.311 236.993 275.317 236.976 275.317C236.699 275.402 236.449 275.521 236.2 275.651C235.43 276.008 234.704 276.473 234.166 277.136C233.395 278.054 232.948 279.187 232.432 280.258C232.183 280.847 231.917 281.476 231.73 282.111C230.432 285.017 229.695 288.27 233.044 289.607C235.379 290.003 237.141 288.649 238.489 286.842C238.988 286.672 239.469 286.462 239.911 286.196C241.464 285.068 242.541 283.385 243.164 281.555C243.878 280.632 244.524 279.668 245.113 278.734Z" fill="#854822"/>
<path d="M770.144 394.854C769.203 394.905 768.167 395.03 767.096 395.188C767.039 394.475 766.75 393.778 766.195 393.251C765.033 392.202 763.328 392.038 761.855 391.664C759.582 391.279 757.288 390.984 754.982 390.939C753.661 390.967 752.171 390.735 750.913 391.166C750.42 391.149 749.927 391.132 749.434 391.126C748.466 391.081 747.423 391.149 746.698 391.868C746.511 392.055 746.358 392.276 746.239 392.514C746.001 392.548 745.768 392.582 745.531 392.616C745.74 392.644 745.955 392.667 746.165 392.69C745.921 393.296 745.904 393.999 746.182 394.588C746.369 394.99 746.624 395.319 746.924 395.591C747.038 395.829 747.174 396.055 747.332 396.265C748.568 397.84 750.63 398.328 752.426 398.979C753.14 399.296 753.871 399.489 754.613 399.602C755.48 400.01 756.364 400.39 757.231 400.792C759.469 401.812 762.818 403.285 764.455 400.588C764.778 399.948 764.926 399.24 764.931 398.52C765.124 398.446 765.316 398.367 765.503 398.254C766.348 397.789 766.88 396.945 767.045 396.044C768.059 395.602 769.084 395.188 770.144 394.854Z" fill="#854822"/>
<path d="M724.266 501.003C724.294 500.272 724.124 499.547 724.039 498.821C723.852 498.034 723.676 497.241 723.506 496.447C723.45 493.036 722.968 489.671 722.158 486.356C721.829 484.169 720.894 481.744 718.231 482.123C718.016 482.135 717.812 482.186 717.619 482.248C717.489 482.163 717.353 482.095 717.211 482.033C717.155 481.902 717.098 481.767 717.036 481.631C716.107 480.004 713.511 479.744 712.526 481.444C711.885 482.747 712.339 484.526 712.282 485.959C712.514 488.781 712.905 491.586 713.353 494.379C713.313 495.637 713.302 496.889 713.347 498.147C713.5 499.943 713.404 501.966 714.718 503.366C716.01 504.895 717.993 504.901 719.319 503.779C720.52 504.573 722.226 504.493 723.308 503.411C723.903 502.827 724.203 502.011 724.232 501.19C724.249 501.128 724.254 501.071 724.266 501.003Z" fill="#854822"/>
</svg>
