<svg width="980" height="735" viewBox="0 0 980 735" fill="none" xmlns="http://www.w3.org/2000/svg">
<path d="M797.466 172.543C797.03 168.662 795.953 164.775 795.976 160.86C795.993 158.338 796.253 155.811 796.763 153.347C793.862 149.352 790.808 145.38 787.647 141.601C784.944 138.371 781.431 135.289 778.252 132.484C774.246 128.948 770.133 125.481 765.929 122.183C762.382 119.395 758.387 117.123 754.959 114.205C751.639 111.378 750.562 107.548 749.27 103.547C748.919 102.454 748.63 101.298 748.171 100.25C747.995 99.8474 747.004 98.6688 747.468 98.9295C746.114 97.9945 744.363 97.4733 742.89 96.8613C740.822 96.0001 738.924 95.0028 737.02 93.8356C735.043 92.6231 733.162 90.9516 730.929 90.266C730.47 90.1243 730.062 89.943 729.694 89.7277C716.934 87.7729 704.304 83.8463 691.794 81.3816C682.756 79.6024 673.685 78.4692 664.568 77.2227C655.768 76.0158 647.111 74.0383 638.391 72.3952C629.784 70.7747 621.12 70.2081 612.446 69.0748C610.411 68.8085 608.298 68.2873 606.253 68.2419C604.796 68.2136 603.414 68.3326 601.952 68.1343C599.986 67.868 598.025 67.188 596.581 65.7602C594.62 63.828 594.96 61.9129 594.286 59.5445C593.544 56.9494 589.957 53.7481 588.172 51.238C586.342 48.6599 584.359 45.7872 581.582 44.1327C580.919 43.7418 580.211 43.4301 579.469 43.1751C578.29 46.6145 572.182 47.4474 570.987 42.9542C570.862 42.5122 570.755 42.0646 570.647 41.6226C570.568 41.583 570.477 41.532 570.369 41.4697C570.29 41.4073 570.205 41.3507 570.126 41.2883C568.097 40.7671 566.25 39.9398 564.839 38.3533C564.103 38.189 563.315 38.1323 562.352 38.1663C559.547 38.2683 556.776 38.7613 553.955 38.8179C551.025 38.8803 548.096 38.4326 545.189 38.1323C539.506 37.5431 533.868 37.6677 528.168 37.4184C523.256 37.2031 516.836 36.9878 512.603 34.0244C512.326 34.0527 512.054 34.0754 511.776 34.1037C508.558 38.6706 505.26 43.3678 501.356 47.2037C497.758 50.7337 494.172 52.5185 489.066 52.5299C484.035 52.5412 479.077 51.51 474.227 50.2011C474.091 50.2294 473.955 50.2634 473.825 50.2918C469.904 51.136 465.932 50.8244 461.954 50.7847C457.614 50.745 453.557 49.3002 449.614 47.6287C447.97 46.9318 445.795 45.6116 443.63 44.7503C440.44 44.5293 437.25 44.348 434.049 44.2404C421.821 43.8154 409.566 42.9598 397.406 41.498C391.327 40.7671 385.394 39.6848 379.405 38.5403C377.858 38.5176 376.311 38.5063 374.77 38.512C362.764 38.5403 350.814 39.3789 338.819 39.4355C335.889 40.7727 332.898 41.7133 329.708 41.447C329.22 47.929 328.852 54.4223 328.507 60.91C327.192 85.5915 326.614 110.347 324.937 135.005C324.104 147.301 322.908 159.562 322.042 171.852C321.192 183.875 321.146 195.922 320.415 207.951C319.696 219.878 320.574 231.743 320.495 243.681C320.455 249.755 319.786 255.869 319.911 261.926C320.03 267.79 320.659 273.632 321.152 279.474C322.104 290.84 322.036 302.274 323.458 313.601C324.161 319.176 324.841 324.74 325.135 330.349C325.356 334.537 326.166 338.503 324.506 342.09C325.815 345.943 323.94 349.954 320.126 352.192C317.871 353.518 315.288 354.527 312.919 355.654C310.313 356.895 307.655 358.023 304.975 359.094C299.649 361.224 294.147 362.85 288.787 364.873C283.303 366.941 277.874 369.185 272.458 371.417C261.828 375.792 251.544 380.914 241.164 385.854C230.523 390.914 219.967 396.099 210.034 402.467C200.436 408.621 190.934 415.233 180.338 419.59C170.627 423.579 160.637 426.877 151.39 431.92C141.259 437.444 130.998 442.821 120.941 448.482C116.011 451.258 111.518 454.539 106.917 457.802C104.486 459.525 101.84 460.364 99.2 461.684C96.9732 462.794 94.8881 464.143 92.718 465.355C88.2531 467.848 83.8109 470.194 79.652 473.209C75.7367 476.047 72.4334 479.515 68.7788 482.654C62.6991 487.878 55.5201 492.36 50.6076 498.802C46.2617 504.514 44.6299 513.007 49.6104 519.002C52.7721 522.815 57.0613 523.472 61.2089 525.597C66.0364 528.073 68.3708 532.855 69.589 537.904C72.0878 548.29 77.2213 557.985 82.468 567.226C85.0858 571.838 87.6695 576.654 90.9389 580.842C93.8682 584.593 96.6276 588.921 100.736 591.488C102.962 592.876 103.546 595.075 103.093 597.047C130.936 605.24 158.694 613.699 186.276 622.691C210.278 630.516 234.217 638.545 258.298 646.12C270.05 649.815 281.631 653.668 293.558 656.818C299.139 658.291 304.63 659.951 310.16 661.589C315.14 663.062 320.194 664.314 324.744 666.904C326.591 667.958 327.402 669.895 327.351 671.816C327.685 671.374 328.025 670.932 328.365 670.49C328.767 670.4 329.164 670.315 329.566 670.207C329.702 670.15 329.844 670.088 329.98 670.031C331.43 671.595 333.136 672.915 335.096 673.969C337.136 674.831 339.176 675.692 341.216 676.553C342.122 676.746 343.023 676.933 343.93 677.125C347.579 677.715 351.222 677.539 354.871 676.559C356.916 675.698 358.956 674.836 361.002 673.969C362.395 673.142 363.687 672.213 364.877 671.182C364.435 672.995 364.01 674.808 363.568 676.621C363.075 678.191 362.786 679.766 362.684 681.335C366.186 682.168 369.682 683.018 373.172 683.913C379.847 685.619 386.556 687.171 393.242 688.786C395.338 689.154 397.44 689.517 399.537 689.885C399.956 689.778 400.398 689.715 400.874 689.715C418.212 689.783 435.307 692.73 452.537 694.226C461.422 694.996 470.374 696.107 479.287 695.268C483.196 694.9 487.52 694.254 491.588 694.69C500.002 690.095 508.286 685.285 516.201 679.862C524.412 674.236 531.693 667.629 539.534 661.549C548.895 654.297 559.4 648.342 570.33 643.378C579.764 636.89 589.271 630.505 598.836 624.21C618.661 611.161 638.974 598.882 658.687 585.669C666.647 580.332 674.489 574.836 682.263 569.232C694.604 559.089 706.888 548.873 719.348 538.873C719.778 537.989 720.164 537.071 720.498 536.119C723.167 528.515 724.277 520.282 729.371 513.806C729.989 513.024 730.765 512.571 731.609 512.367C731.626 512.237 731.649 512.106 731.666 511.976C731.898 506.604 732.329 501.239 732.81 495.879C733.162 491.929 733.094 487.963 733.496 484.008C733.921 479.861 734.544 475.73 735.343 471.633C735.547 470.585 736.074 469.741 736.788 469.106C736.981 467.321 737.201 465.531 737.462 463.752C738.012 460.001 738.709 456.233 739.74 452.584C740.686 449.241 742.392 446.487 744.193 443.564C745.542 441.382 746.301 438.708 746.942 436.266C747.684 433.45 747.531 430.617 748.743 427.897C751.361 422.004 756.274 417.301 760.466 412.513C764.756 407.607 769.447 403.091 773.379 397.889C777.323 392.676 781.046 387.299 784.848 381.979C786.44 379.752 788.083 377.571 789.76 375.406C789.879 374.658 789.998 373.91 790.111 373.162C791.545 363.972 792.667 354.753 793.409 345.478C794.763 328.565 795.483 311.6 796.299 294.659C797.103 277.904 797.999 261.15 798.52 244.384C798.543 243.681 798.565 242.973 798.588 242.27C795.392 240.978 792.616 238.689 790.14 236.321C787.171 233.488 783.907 229.748 784.876 225.346C785.913 220.631 792.797 222.269 792.627 226.66C792.633 226.683 792.638 226.745 792.627 226.864C792.656 227.017 792.729 227.232 792.905 227.465C793.216 227.873 793.477 228.292 793.806 228.694C794.843 229.946 796.066 231.057 797.296 232.117C797.812 232.558 798.333 232.978 798.866 233.363C798.979 229.113 799.041 224.864 798.939 220.609C798.837 216.325 798.809 212.144 799.172 207.877C799.495 204.052 799.789 200.222 799.902 196.386C800.129 188.465 798.35 180.402 797.466 172.543Z" fill="#DAE1E3" stroke="#DAE1E3" stroke-width="0.566609" stroke-miterlimit="10"/>
<path d="M348.151 514.22C346.224 511.506 343.612 508.831 340.218 508.219C341.844 510.123 342.173 512.73 342.23 515.149C342.065 515.472 342.065 515.625 342.218 515.608C342.196 515.699 342.173 515.789 342.145 515.88C342.128 515.903 342.105 515.948 342.071 516.005C342.06 516.01 341.992 516.09 341.912 516.175C341.64 515.846 341.363 515.523 341.074 515.206C339.867 514.039 338.462 513.075 337.108 512.084C335.748 511.511 334.382 510.933 333.022 510.361C332.512 510.231 331.997 510.123 331.481 510.033C331.793 507.568 330.824 504.876 328.767 503.488C327.283 502.168 325.158 501.896 323.322 501.256C317.622 499.567 311.576 501.341 306.318 503.675C304.182 504.491 302.482 506.055 300.692 507.415C299.06 508.633 297.972 510.39 296.714 511.959C295.768 513.353 295.167 514.951 294.572 516.526C294.402 516.679 294.227 516.826 294.062 516.985C293.19 518.18 292.175 519.285 291.394 520.543C290.776 521.801 290.226 523.087 289.745 524.407C289.002 526.374 288.9 528.544 288.674 530.617C288.725 532.221 289.082 533.813 289.252 535.411C289.597 537.15 290.538 538.72 291.156 540.374C291.739 541.882 292.827 543.106 293.796 544.375C295.394 546.868 297.842 548.517 300.153 550.279C302.573 551.967 305.428 552.874 308.12 554.035C310.16 554.727 312.335 554.874 314.466 555.129C315.112 555.225 315.769 555.225 316.415 555.112C318.081 554.851 319.769 554.761 321.418 554.404C324.75 553.435 327.9 551.922 331.107 550.613C332.388 550.064 333.651 549.44 334.756 548.585C336.513 547.23 338.394 545.99 339.873 544.324C341.198 542.703 342.547 541.088 343.675 539.326C344.479 537.734 345.114 536.063 345.799 534.419C346.292 532.686 346.321 530.838 346.627 529.065C346.61 527.875 346.411 526.691 346.23 525.501C346.882 524.917 347.465 524.26 347.952 523.495C349.562 520.707 349.93 517.013 348.151 514.22Z" fill="#DAE1E3"/>
<path d="M802.611 240.707C802.163 237.284 801.727 233.856 801.121 230.457C800.973 229.641 800.809 228.825 800.656 228.009C800.554 227.034 800.441 226.06 800.299 225.091C800.197 224.128 800.038 223.176 799.846 222.23C798.752 218.229 795.086 214.716 790.854 214.484C788.463 213.844 786.117 214.756 783.958 215.77C781.42 217.175 779.912 219.555 778.989 222.235C778.734 223.187 778.626 224.15 778.626 225.108H778.604C778.615 225.233 778.626 225.357 778.638 225.482C778.649 225.816 778.672 226.156 778.706 226.49C778.881 232.185 779.686 237.857 780.893 243.421C781.397 245.489 781.805 247.693 783.029 249.461C783.335 250.282 783.76 251.053 784.389 251.699C786.06 254.271 789.975 255.892 792.967 255.212C793.811 255.212 794.599 254.997 795.324 254.572C796.48 254.198 797.483 253.552 798.333 252.639C798.407 252.543 798.48 252.447 798.554 252.351C799.953 251.631 801.16 250.554 801.936 249.172C803.585 246.599 802.917 243.551 802.611 240.707Z" fill="#DAE1E3"/>
<path d="M741.201 199.684C740.539 191.763 740.771 183.859 740.788 175.915C740.805 168.317 740.726 160.713 740.233 153.126C739.717 145.182 738.368 137.403 737.332 129.521C735.677 116.892 734.861 104.182 734.771 91.4508C732.697 90.9182 730.64 90.3176 728.6 89.6603C718.056 86.8952 707.647 83.6089 697.193 80.4982C689.906 78.7191 682.597 76.9966 675.316 75.2004C674.381 76.3506 672.88 77.1099 671.027 76.8606C660.103 75.3761 649.377 72.8037 638.549 70.7979C637.263 70.5996 635.982 70.4012 634.696 70.1973C634.214 70.2426 633.716 70.2313 633.211 70.1576C631.835 69.9196 630.429 69.6193 629.013 69.3247C628.089 70.033 626.871 70.4182 625.449 70.1803C621.449 69.523 617.448 68.8714 613.443 68.2595C613.029 68.3785 612.576 68.4408 612.077 68.4351C611.488 68.4294 610.927 68.3785 610.383 68.2935C608.377 68.0442 606.49 67.5059 604.524 66.8373C603.068 66.3443 601.527 66.265 600.042 65.993C599.986 66.027 599.935 66.0667 599.878 66.095C598.195 67.0639 595.719 66.8769 594.37 65.3868C591.645 62.3667 590.925 58.4798 590.121 54.6552C589.968 54.2699 589.821 53.8789 589.696 53.4823C587.917 51.5558 585.509 50.043 583.412 48.7625C579.361 46.2864 575.032 44.3316 570.902 42.0085C570.414 41.7308 570.018 41.3852 569.695 41.0056C567.128 40.9093 564.561 40.7449 562.017 40.5863C558.023 41.0056 553.903 40.7336 549.846 40.0877C543.908 39.929 537.999 39.7534 532.066 38.9375C531.579 38.8695 531.137 38.7221 530.74 38.5068C528.191 38.6598 525.641 38.8411 523.091 39.0451C520.088 38.9601 517.079 38.8978 514.071 38.8808C511.068 38.8581 508.059 38.8241 505.056 38.7901C505.084 39.9687 504.631 41.1812 503.486 42.0595C501.9 43.2777 500.903 45.1305 499.571 46.5923C499.469 46.7057 499.35 46.8133 499.237 46.9266C500.109 47.5159 500.716 48.3545 501.044 49.3234C501.294 49.6634 501.475 50.043 501.577 50.4679C501.628 50.8306 501.673 51.1989 501.724 51.5615C501.696 52.8024 501.26 54.0036 500.359 54.8818C499.464 55.7544 498.228 56.304 496.97 56.304C496.551 56.304 496.138 56.2417 495.735 56.134C494.511 56.168 493.361 55.5674 492.483 54.7628C491.622 53.9696 491.112 52.5984 491.112 51.4482C491.112 51.3405 491.123 51.2272 491.129 51.1139C489.287 51.2215 487.412 50.8759 485.491 50.383C476.652 48.1222 467.875 46.1221 458.855 44.6715C457.195 44.4052 455.534 44.1446 453.874 43.8896C452.968 45.3571 451.262 46.3884 449.075 46.0201C444.808 45.3061 440.536 44.6035 436.253 43.9519C435.159 44.2296 434.066 44.5186 432.978 44.8189C432.995 44.3712 433.012 43.918 433.029 43.4703C427.703 42.6997 422.365 42.0311 416.999 41.5552C413.838 41.2776 410.591 41.1869 407.339 41.0792C406.834 41.2776 406.279 41.3795 405.673 41.3399C382.328 39.9234 358.882 40.3596 335.504 40.3596C334.28 40.7336 333.079 40.9263 331.878 40.9603C331.356 43.238 330.829 45.5101 330.314 47.7879C329.928 50.3263 329.606 52.876 329.209 55.3918C329.77 56.2417 330.081 57.2276 329.968 58.2532C328.614 70.2936 326.727 82.266 324.648 94.2045C324.296 98.1481 323.934 102.086 323.509 106.024C324.971 106.902 326.076 108.46 326.212 110.596C326.716 118.478 326.064 126.331 325.061 134.15C324.115 141.516 323.486 148.837 322.937 156.248C320.976 182.828 320.121 209.566 320.285 236.214C320.37 249.863 320.908 263.502 321.021 277.151C321.038 279.157 321.044 281.18 321.061 283.203C321.327 283.509 321.56 283.86 321.735 284.262C323.373 287.934 323.69 291.549 324.308 295.481C324.976 299.759 325.668 304.048 326.025 308.366C326.047 308.672 326.076 308.978 326.098 309.278C326.257 309.414 326.41 309.556 326.574 309.686C326.631 310.06 326.688 310.428 326.755 310.819C327.855 318.848 328.96 326.877 330.059 334.906C330.852 338.237 332.376 341.138 334.643 343.614C336.45 346.402 338.841 348.601 341.827 350.21C343.867 351.071 345.907 351.932 347.941 352.793C348.706 353.031 349.471 353.218 350.236 353.366C350.44 354.159 350.644 354.947 350.853 355.734C347.731 354.442 344.315 354.221 341.04 353.507C337.022 352.969 332.96 351.989 328.897 352.351C324.948 352.833 320.948 353.173 317.117 354.278C313.701 355.27 310.42 356.669 307.117 357.972C303.321 359.587 299.411 360.998 295.779 362.964C294.255 363.848 292.906 364.987 291.484 366.018C290.289 366.908 289.082 367.786 287.875 368.664C291.835 367.129 295.796 365.61 299.728 364.035C304.448 362.142 309.202 360.233 313.825 358.131C316.194 357.054 318.574 355.904 321.14 355.383C322.37 355.134 323.441 355.105 324.665 355.173C325.203 355.202 326.302 355.473 326.835 355.19C330.501 353.252 335.17 355.638 335.17 359.972C335.17 360.193 335.17 360.409 335.17 360.624C335.17 364.568 331.798 366.324 328.773 365.91C327.214 366.12 325.662 366.058 323.849 366.188C321.724 366.341 319.645 367.61 317.712 368.443C312.233 370.812 306.709 373.101 301.162 375.305C289.847 379.804 278.526 384.07 267.636 389.544C257.771 394.507 248.059 399.765 238.189 404.723C228.732 409.471 219.128 414.01 209.768 418.945C209.405 419.138 209.043 419.336 208.674 419.529C207.082 420.475 205.484 421.421 203.892 422.362C197.246 426.045 190.577 429.694 183.891 433.297C183.539 433.496 183.188 433.694 182.831 433.886C181.08 434.861 179.307 435.79 177.533 436.703C174.27 438.442 171 440.17 167.72 441.881C163.368 444.193 158.96 446.397 154.523 448.545C154.438 448.596 154.353 448.641 154.268 448.686C145.248 453.973 136.63 459.928 127.525 465.073C118.379 470.24 108.855 474.535 99.3697 479.011C90.4683 483.215 81.0229 487.471 73.9857 494.502C70.2064 498.282 67.413 502.656 64.9482 507.251C65.0502 509.166 65.5828 510.962 66.5574 512.639C67.1184 514.645 68.1326 516.39 69.5944 517.875C92.7347 524.907 115.966 531.559 139.163 538.397C150.982 541.882 162.717 545.69 174.57 549.061C178.446 550.166 182.18 551.475 185.914 552.869C197.693 549.951 209.394 546.71 220.924 542.919C253.164 532.879 285.11 521.841 317.616 512.707C351.21 503.177 384.89 493.941 418.569 484.717C431.272 481.38 443.8 477.289 456.741 474.954C493.446 467.662 530.111 460.143 566.952 453.57C621.749 443.779 676.636 434.487 731.694 426.288C731.133 412.984 731.869 399.703 733.405 386.478C733.626 384.58 734.482 382.858 735.921 381.855C736.113 379.753 736.385 377.656 736.567 375.548C736.748 373.492 736.55 371.384 736.459 369.304C736.238 364.194 736.64 359.185 736.64 354.091C736.64 344.861 735.654 334.821 738.074 325.783C737.955 323.993 737.83 322.197 737.706 320.406C737.893 302.122 738.703 283.843 739.604 265.575C739.836 265.354 740.057 265.122 740.278 264.89C739.043 258.821 740.493 252.526 740.663 246.311C740.89 238.151 741.683 230.077 742.091 221.935C742.471 214.513 741.819 207.084 741.201 199.684ZM414.359 361.355C414.393 360.426 414.404 359.502 414.404 358.573C414.767 358.613 415.124 358.646 415.486 358.686C415.112 359.576 414.733 360.465 414.359 361.355Z" fill="#C0C3C4"/>
<path d="M748.545 130.575C748.602 128.818 748.658 127.062 748.715 125.3C748.25 122.637 747.644 119.99 747.015 117.35C747.412 121.775 747.927 126.184 748.545 130.575Z" fill="#C0C3C4"/>
<path d="M446.899 542.063C446.69 540.51 446.48 538.964 446.276 537.411C445.687 536.017 445.098 534.623 444.514 533.23C443.415 531.19 441.913 529.552 440.009 528.323C438.321 526.776 436.338 525.733 434.06 525.189C431.255 524.844 428.462 524.317 425.635 524.152C423.889 524.266 422.19 524.005 420.456 523.824C418.558 523.733 416.654 523.812 414.756 523.637C413.401 523.552 412.059 523.711 410.716 523.869C408.16 523.898 405.616 524.164 403.067 524.351C400.369 524.543 397.672 524.356 394.975 524.373C393.819 523.699 392.624 523.093 391.4 522.549C384.198 519.217 376.589 516.821 368.696 515.852C365.177 515.398 361.67 514.82 358.129 514.548C351.307 514.039 344.468 514.486 337.686 515.245C334.218 515.761 330.694 516.016 327.277 516.815C324.892 517.687 322.58 518.787 320.223 519.744C318.257 520.951 316.421 522.351 314.721 523.949C312.93 525.575 311.695 527.762 310.126 529.603C308.25 532.55 307.236 535.723 307.083 539.139C306.471 541.411 306.471 543.683 307.083 545.956C307.264 552.154 311.202 558.058 315.236 562.416C317.339 563.962 319.305 565.725 321.498 567.135C326.314 569.351 331.124 571.436 336.433 572.099C341.47 572.796 346.508 573.544 351.601 573.657C358.899 573.753 366.209 573.277 373.473 572.575C376.141 572.286 378.799 571.918 381.456 571.544C385.445 571.09 389.462 570.767 393.395 569.991C394.703 569.73 395.944 569.26 397.191 568.801C398.415 569.17 399.69 569.351 400.97 569.476C401.854 569.634 402.744 569.385 403.622 569.294C404.908 569.17 406.2 568.954 407.39 568.427C408.733 567.838 410.115 567.345 411.396 566.637C412.852 565.844 414.104 564.733 415.424 563.736C415.481 563.685 415.538 563.634 415.6 563.588C415.764 563.537 415.929 563.486 416.099 563.441C417.43 562.909 418.767 562.387 420.178 562.11C422.722 561.639 425.147 560.687 427.725 560.398C429.238 560.149 430.638 559.435 432.173 559.254C432.796 559.141 433.42 559.039 434.043 558.942C435.437 558.353 436.831 557.764 438.225 557.18C440.264 556.081 441.902 554.579 443.131 552.676C444.214 551.582 444.967 550.296 445.381 548.817C446.486 546.72 446.99 544.471 446.899 542.063Z" fill="#9E958D"/>
<path d="M534.084 511.908C533.942 510.911 533.613 509.953 533.092 509.12C533.364 506.531 532.18 503.789 530.378 501.953C528.497 499.924 525.737 498.967 523.052 498.553C521.284 498.389 519.493 497.822 517.72 498.213C516.298 498.292 514.938 498.842 513.771 499.692C513.187 499.579 512.598 499.516 511.997 499.505C507.742 499.686 504.365 503.137 504.546 507.029C504.291 507.075 504.036 507.12 503.776 507.166C504.048 507.313 504.325 507.454 504.597 507.602C504.716 508.452 505 509.319 505.487 510.169C506.478 511.959 508.337 512.888 510.025 513.908C512.989 515.455 516.077 517.013 519.459 517.291C522.853 517.852 526.791 517.869 529.517 515.478C530.984 514.424 532.259 512.871 532.775 511.115C533.234 511.336 533.664 511.619 534.084 511.908Z" fill="#9E958D"/>
<path d="M658.681 458.505C658.063 457.944 657.253 457.638 656.42 457.65C655.162 457.576 653.91 457.525 652.647 457.519C650.442 457.531 648.25 457.349 646.046 457.332C644.011 457.434 641.977 457.576 639.943 457.735C639.501 457.049 638.974 456.42 638.351 455.842C637.49 455.179 636.634 454.516 635.773 453.853C633.79 452.703 631.648 452.125 629.348 452.114C627.631 452.159 625.937 452.363 624.271 452.686C624.191 452.68 624.118 452.675 624.038 452.669C622.05 452.612 620.084 453.083 618.117 453.292C615.811 453.559 613.573 454.278 611.533 455.383C609.25 456.715 607.42 458.941 606.457 461.457C606.015 462.024 605.573 462.596 605.136 463.168L603.935 466.013C603.516 468.426 603.386 470.438 604.026 472.846C604.932 475.214 606.003 477.668 608.27 478.999C609.006 479.736 609.879 480.24 610.882 480.524C613.29 481.878 616.168 481.583 618.831 481.328C623.647 480.994 628.09 479.419 632.271 477.22C634.039 476.784 635.733 476.115 637.053 474.829C637.83 474.325 638.504 473.719 639.099 473.033C641.632 471.288 644.079 469.429 646.476 467.611C649.094 465.378 651.581 463.899 654.488 461.417C655.531 460.619 656.567 459.451 657.701 458.862C658.052 458.686 658.432 458.618 658.834 458.647C658.789 458.601 658.738 458.556 658.681 458.505Z" fill="#9E958D"/>
<path d="M380.272 472.285C379.813 469.905 377.83 468.778 375.626 468.274C373.722 466.268 370.957 465.214 368.407 464.188C359.398 462.069 349.987 463.265 340.949 464.653C329.334 466.664 318.172 470.631 306.636 472.976C305.287 473.192 303.944 473.452 302.601 473.685C301.933 473.775 301.264 473.872 300.595 473.979C298.527 474.399 296.624 475.464 294.686 476.274C293.077 477.079 291.626 478.155 290.153 479.186C288.742 479.657 287.478 480.393 286.379 481.402C284.866 482.382 283.671 483.685 282.793 485.306C282.322 486.416 281.858 487.521 281.387 488.632C280.809 490.485 280.724 492.332 281.138 494.185C281.144 495.442 281.461 496.61 282.09 497.697C282.946 500.701 285.348 502.593 287.784 504.355C290.119 505.704 292.731 506.384 295.428 506.231C297.088 506.038 298.771 505.891 300.386 505.449C301.678 504.922 302.958 504.378 304.233 503.817C304.647 503.636 305.077 503.477 305.508 503.341C307.066 503.324 308.63 503.33 310.188 503.233C314.676 503.058 319.095 502.185 323.537 501.567C330.461 500.451 337.193 498.4 343.811 496.111C350.151 493.975 356.548 491.958 363.121 490.649C363.631 490.649 364.135 490.66 364.645 490.677C366.418 490.694 368.164 490.332 369.914 490.128C371.614 489.725 373.093 488.943 374.351 487.793C375.331 487.215 376.113 486.433 376.691 485.453C377.841 484.195 378.623 482.716 379.025 481.017C379.326 479.458 379.462 477.793 379.331 476.161C380.227 475.124 380.64 473.673 380.272 472.285Z" fill="#6B655F"/>
<path d="M424.847 420.146C423.952 419.579 422.915 419.234 421.816 419.211C418.167 419.273 415.345 422.65 413.373 425.404C412.212 427.449 412.365 427.642 411.883 428.617C411.877 428.634 411.877 428.656 411.872 428.673C411.022 430.141 410.546 431.739 410.897 433.388C411.843 436.595 414.971 437.065 417.827 436.289C418.286 436.13 418.728 435.926 419.147 435.699C421.068 435.376 422.932 434.283 424.405 433.019C427.046 431.28 429.091 428.611 429.204 425.353C429.165 422.775 427.267 420.548 424.847 420.146Z" fill="#6B655F"/>
<path d="M162.037 497.052C161.283 496.842 160.524 496.678 159.759 496.564C159.051 496.4 158.314 496.349 157.572 496.423C156.824 496.44 156.076 496.513 155.328 496.683C153.073 497.21 150.96 498.287 148.908 499.341C146.937 500.644 144.58 501.851 143.514 504.066C143.407 504.253 143.316 504.451 143.231 504.644C142.183 505.449 141.237 506.372 140.455 507.483C136.313 512.288 138.885 518.928 145.492 519.104C150.523 519.24 155.328 517.149 159.493 514.463C162.161 512.509 165.113 510.441 166.332 507.233C168.383 503.335 166.377 498.202 162.037 497.052Z" fill="#6B655F"/>
<path d="M325.906 381.792C324.552 388.24 326.846 395.555 327.815 401.964C328.886 409.029 329.9 416.1 330.864 423.177C331.351 426.775 336.813 425.24 336.326 421.67C335.459 415.318 334.558 408.972 333.606 402.632C333.147 399.555 332.671 396.473 332.189 393.396C331.674 390.121 330.671 386.597 331.368 383.299C332.121 379.741 326.659 378.217 325.906 381.792Z" fill="black"/>
<path d="M176.689 531.297C214.323 507.693 252.535 485.017 291.297 463.321C302.187 457.225 313.129 451.207 324.104 445.264C327.311 443.524 324.455 438.634 321.242 440.374C282.18 461.525 243.64 483.64 205.683 506.724C195.019 513.211 184.401 519.773 173.828 526.402C170.745 528.334 173.59 533.241 176.689 531.297Z" fill="black"/>
<path d="M325.022 446.164C333.402 443.246 342.218 443.637 350.859 445.071C359.806 446.555 368.662 448.669 377.535 450.516C395.848 454.329 414.183 458.046 432.53 461.672C469.229 468.925 506.008 475.804 542.849 482.314C563.479 485.957 584.132 489.482 604.802 492.893C608.371 493.482 609.901 488.02 606.309 487.43C568.845 481.249 531.443 474.687 494.109 467.735C456.962 460.822 419.883 453.525 382.889 445.853C372.736 443.745 362.599 441.308 352.366 439.609C342.751 438.011 332.864 437.45 323.515 440.702C320.092 441.892 321.565 447.366 325.022 446.164Z" fill="black"/>
<path d="M70.059 505.267C101.166 483.827 133.746 464.613 166.994 446.697C200.147 428.838 233.956 412.236 267.822 395.793C287.297 386.336 306.663 376.239 327.373 369.718C330.841 368.624 329.356 363.156 325.866 364.256C307.542 370.024 290.306 378.608 273.069 386.965C256.048 395.221 239.039 403.488 222.103 411.913C188.101 428.832 154.393 446.391 121.677 465.696C103.132 476.637 84.9268 488.15 67.1976 500.372C64.2173 502.434 67.0447 507.347 70.059 505.267Z" fill="black"/>
<path d="M326.501 371.23C331.147 368.023 337.612 370.029 342.723 370.873C349.159 371.944 355.59 373.032 362.021 374.143C374.509 376.302 386.986 378.545 399.446 380.851C424.734 385.543 449.97 390.523 475.162 395.725C525.556 406.134 575.763 417.42 625.897 429.025C654.233 435.586 682.546 442.244 710.86 448.907C714.407 449.74 715.919 444.278 712.367 443.445C661.366 431.444 610.366 419.449 559.229 408.043C508.104 396.643 456.849 385.832 405.356 376.211C391.066 373.542 376.759 370.964 362.429 368.494C355.08 367.225 347.731 365.978 340.371 364.771C334.745 363.848 328.648 362.884 323.645 366.335C320.659 368.397 323.492 373.31 326.501 371.23Z" fill="black"/>
<path d="M709.749 447.672C677.362 465.197 646.742 485.714 616.621 506.832C586.319 528.074 556.442 549.945 525.392 570.099C507.991 581.397 490.222 592.135 471.909 601.892C468.691 603.608 471.547 608.498 474.771 606.781C507.26 589.466 537.953 569.074 568.103 548.001C598.439 526.799 628.299 504.894 659.276 484.626C676.642 473.266 694.36 462.438 712.616 452.562C715.818 450.828 712.962 445.938 709.749 447.672Z" fill="black"/>
<path d="M473.604 602.452C466.561 603.756 459.376 602.968 452.373 601.778C445.421 600.594 438.497 599.257 431.561 597.982C417.98 595.489 404.398 592.979 390.828 590.44C363.313 585.296 335.827 580.003 308.409 574.377C253.827 563.169 199.49 550.608 145.951 535.134C130.964 530.799 116.045 526.244 101.206 521.422C93.8737 519.042 86.5191 516.662 79.2552 514.073C76.6828 513.155 72.9035 511.863 71.7307 509.109C71.0224 507.438 71.589 504.44 73.7988 504.582C77.4421 504.809 77.4251 499.143 73.7988 498.916C68.824 498.604 65.6056 503.477 65.7813 508.067C65.9909 513.495 70.8694 516.793 75.4193 518.657C82.1279 521.405 89.1935 523.45 96.0778 525.705C102.973 527.966 109.886 530.17 116.821 532.323C145.231 541.145 173.919 549.061 202.77 556.308C260.564 570.824 318.993 582.644 377.535 593.693C393.961 596.792 410.404 599.835 426.841 602.855C434.848 604.328 442.842 605.875 450.866 607.24C458.94 608.611 466.991 609.416 475.105 607.915C478.692 607.252 477.173 601.79 473.604 602.452Z" fill="black"/>
<path d="M325.447 349.552C283.546 368.568 241.719 387.764 200.475 408.179C180.027 418.299 159.731 428.719 139.65 439.553C119.671 450.335 99.67 461.305 80.428 473.368C70.4557 479.623 60.1887 486.451 52.0012 494.995C45.4003 501.885 40.89 513.257 48.7376 521.093C51.3213 523.671 55.3272 519.665 52.7435 517.087C45.2643 509.614 54.9363 499.658 60.5287 494.763C68.5066 487.788 77.34 481.884 86.3604 476.354C104.86 465.016 123.893 454.483 142.987 444.182C181.568 423.376 220.958 404.117 260.644 385.532C283.121 375.004 305.7 364.698 328.302 354.442C331.623 352.941 328.744 348.057 325.447 349.552Z" fill="black"/>
<path d="M47.9161 521.586C58.1263 529.354 70.2291 533.921 82.4282 537.53C95.9871 541.536 109.716 545.01 123.371 548.687C151.736 556.325 180.117 563.889 208.572 571.176C265.426 585.732 322.602 599.172 380.334 609.767C412.67 615.705 445.171 620.731 477.819 624.607C481.434 625.037 481.4 619.366 477.819 618.941C419.997 612.073 362.69 601.455 305.87 588.791C249.079 576.133 192.758 561.447 136.573 546.364C121.196 542.239 105.806 538.142 90.457 533.915C76.4618 530.062 62.4666 525.586 50.7718 516.69C47.8764 514.486 45.049 519.404 47.9161 521.586Z" fill="black"/>
<path d="M476.856 623.819C486.947 625.23 496.007 618.493 504.217 613.524C513.482 607.92 522.536 601.971 531.511 595.919C549.931 583.505 568.227 570.909 586.58 558.393C621.97 534.255 657.598 510.39 691.771 484.535C710.848 470.104 729.461 455.043 747.219 439.003C749.933 436.555 745.916 432.555 743.213 434.997C712.401 462.817 679.062 487.618 645.071 511.398C610.1 535.865 574.664 559.679 539.404 583.726C529.562 590.435 519.703 597.132 509.64 603.501C504.761 606.589 499.832 609.597 494.84 612.493C489.967 615.32 484.29 619.179 478.363 618.351C474.799 617.853 473.252 623.315 476.856 623.819Z" fill="black"/>
<path d="M740.85 446.527C741.394 445.74 742 445.57 742.896 445.4C741.978 443.819 741.06 442.244 740.142 440.663C735.49 445.915 732.963 452.131 731.292 458.874C729.422 466.404 728.039 474.07 726.906 481.748C724.662 496.927 723.461 512.231 722.294 527.524C722.016 531.162 727.682 531.145 727.96 527.524C729.065 513.104 730.141 498.655 732.215 484.331C733.229 477.328 734.465 470.353 736.034 463.446C737.581 456.658 739.439 449.989 744.154 444.669C746.08 442.493 744.193 439.394 741.4 439.932C739.037 440.385 737.32 441.722 735.972 443.666C733.875 446.669 738.782 449.502 740.85 446.527Z" fill="black"/>
<path d="M721.62 521.937C721.875 530.119 715.098 536.102 709.245 540.839C701.584 547.038 693.731 553.021 685.872 558.965C670.16 570.858 654.193 582.411 638.051 593.71C605.737 616.323 572.715 637.899 539.5 659.164C530.287 665.063 521.063 670.933 511.833 676.797C507.141 679.777 502.461 682.769 497.758 685.733C493.203 688.6 487.939 691.954 482.346 690.492C478.816 689.568 477.309 695.031 480.839 695.954C490.557 698.493 499.265 691.484 506.971 686.588C515.748 681.013 524.525 675.437 533.29 669.845C550.674 658.756 568.012 647.594 585.243 636.268C619.823 613.53 653.967 590.089 687.006 565.153C695.941 558.41 704.899 551.65 713.568 544.573C720.537 538.885 727.569 531.564 727.269 521.937C727.172 518.3 721.506 518.283 721.62 521.937Z" fill="black"/>
<path d="M487.741 691.744C435.907 688.888 385.428 678.231 335.425 664.74C285.331 651.226 235.311 637.106 185.749 621.74C172.026 617.484 158.343 613.088 144.721 608.509C138.075 606.271 131.457 603.937 124.816 601.682C118.618 599.574 111.767 597.653 106.708 593.307C103.954 590.944 99.9309 594.933 102.702 597.313C107.013 601.019 112.204 603.206 117.496 605.132C123.281 607.234 129.134 609.172 134.953 611.167C147.407 615.433 159.918 619.541 172.474 623.513C197.416 631.417 222.517 638.812 247.668 646.013C298.312 660.518 349.018 675.873 400.709 686.242C429.425 692.005 458.498 695.795 487.746 697.405C491.384 697.609 491.373 691.942 487.741 691.744Z" fill="black"/>
<path d="M113.433 596.056C101.081 592.118 92.0323 583.103 86.7345 571.431C80.6208 557.957 76.2522 543.542 71.4757 529.558C70.3028 526.125 64.8294 527.604 66.0136 531.066C68.6597 538.817 71.3114 546.562 74.0821 554.268C76.7282 561.617 79.2893 569.108 82.7116 576.145C88.6213 588.293 99.0469 597.421 111.932 601.523C115.411 602.628 116.901 597.16 113.433 596.056Z" fill="black"/>
<path d="M474.465 635.984C477.105 650.823 479.904 665.629 482.862 680.406C483.576 683.981 489.038 682.469 488.324 678.899C485.366 664.122 482.567 649.316 479.927 634.477C479.287 630.89 473.824 632.409 474.465 635.984Z" fill="black"/>
<path d="M743.536 446.187C746.262 443.167 747.701 439.626 747.757 435.547C747.774 434.289 746.862 433.161 745.678 432.815C691.992 417.143 637.773 403.301 583.135 391.351C528.497 379.401 473.451 369.333 418.121 361.168C387.134 356.595 356.055 352.618 324.914 349.229C321.294 348.833 321.322 354.504 324.914 354.895C380.266 360.918 435.403 368.834 490.205 378.642C544.9 388.433 599.255 400.088 653.151 413.59C683.646 421.228 713.988 429.467 744.165 438.278C743.474 437.365 742.777 436.459 742.086 435.547C742.052 438.091 741.236 440.289 739.525 442.182C737.088 444.879 741.083 448.896 743.536 446.187Z" fill="black"/>
<path d="M366.248 335.324C373.133 329.205 381.739 324.984 389.638 320.338C398.233 315.284 406.823 310.224 415.419 305.17C418.558 303.322 415.713 298.421 412.557 300.28C403.639 305.527 394.726 310.773 385.808 316.02C377.773 320.746 369.246 325.097 362.242 331.324C359.511 333.744 363.529 337.744 366.248 335.324Z" fill="black"/>
<path d="M420.926 108.891C418.546 156.447 417.611 204.07 418.155 251.676C418.308 265.173 418.586 278.664 418.971 292.155C419.073 295.793 424.745 295.81 424.637 292.155C423.272 244.56 423.351 196.931 424.909 149.341C425.351 135.85 425.912 122.365 426.592 108.885C426.773 105.248 421.107 105.259 420.926 108.891Z" fill="black"/>
<path d="M359.625 67.3863C367.319 72.3158 375.014 77.2453 382.714 82.1805C386.482 84.5942 390.25 87.008 394.024 89.4274C395.91 90.6343 397.791 91.8412 399.678 93.048C400.908 93.8356 404.642 95.4448 405.186 96.884C406.461 100.261 411.94 98.7991 410.648 95.3768C409.124 91.3369 404.557 89.4501 401.123 87.2516C396.885 84.5319 392.641 81.8179 388.403 79.0981C379.762 73.5624 371.127 68.0266 362.486 62.4965C359.409 60.5247 356.559 65.4259 359.625 67.3863Z" fill="black"/>
<path d="M434.712 102.409C471.881 103.423 508.688 108.925 545.308 115.056C580.494 120.948 615.794 126.66 650.51 134.961C670.013 139.624 689.306 145.176 708.14 152.078C711.568 153.336 713.047 147.862 709.647 146.616C675.957 134.269 640.889 126.348 605.669 119.809C569.667 113.123 533.477 106.789 497.175 102.012C476.448 99.2868 455.62 97.315 434.712 96.7484C431.063 96.6464 431.068 102.313 434.712 102.409Z" fill="black"/>
<path d="M439.749 310.303C512.535 320.887 585.016 333.426 657.151 347.773C676.79 351.677 696.502 355.484 716.52 356.753C720.163 356.986 720.146 351.314 716.52 351.087C698.474 349.943 680.688 346.668 662.97 343.166C645.071 339.631 627.172 336.112 609.238 332.752C573.633 326.089 537.936 319.884 502.166 314.15C481.887 310.898 461.58 307.798 441.25 304.841C437.686 304.319 436.145 309.776 439.749 310.303Z" fill="black"/>
<path d="M731.949 413.392C735.366 373.848 738.771 334.293 740.879 294.648C742.981 255.104 743.797 215.458 742.001 175.886C740.992 153.619 739.134 131.396 736.261 109.287C735.796 105.723 730.125 105.678 730.595 109.287C735.689 148.536 737.53 188.131 737.303 227.686C737.071 267.36 734.805 306.988 731.813 346.543C730.125 368.839 728.204 391.113 726.283 413.386C725.971 417.024 731.637 417.001 731.949 413.392Z" fill="black"/>
<path d="M743.173 99.4908C744.238 110.03 746.528 120.365 748.205 130.813C749.944 141.641 750.845 152.588 751.327 163.54C752.284 185.372 751.769 207.277 751.616 229.12C751.304 273.434 750.681 317.771 748.114 362.023C746.675 386.835 744.607 411.613 741.672 436.294C741.241 439.909 746.913 439.875 747.338 436.294C752.551 392.484 754.976 348.402 756.154 304.309C756.744 282.245 757.027 260.17 757.208 238.1C757.389 216.02 757.843 193.899 757.27 171.824C756.959 159.744 756.205 147.67 754.596 135.686C752.97 123.577 750.063 111.662 748.834 99.4965C748.477 95.8928 742.811 95.8588 743.173 99.4908Z" fill="black"/>
<path d="M749.004 113.52C756.885 121.05 764.767 128.581 772.648 136.116C776.388 139.692 780.173 143.227 783.867 146.854C787.244 150.168 790.298 153.63 792.179 158.022C793.613 161.365 798.491 158.481 797.069 155.16C793.194 146.111 784.388 139.499 777.453 132.87C769.305 125.085 761.157 117.294 753.004 109.509C750.369 106.993 746.358 110.993 749.004 113.52Z" fill="black"/>
<path d="M792.304 157.285C796.769 213.169 796.571 269.405 791.641 325.25C790.225 341.268 788.429 357.252 786.236 373.185C785.743 376.749 791.205 378.296 791.698 374.693C799.421 318.525 802.486 261.767 800.656 205.095C800.14 189.14 799.234 173.201 797.965 157.29C797.681 153.675 792.015 153.647 792.304 157.285Z" fill="black"/>
<path d="M786.026 373.837C784.213 378.46 780.626 382.24 777.47 385.979C774.133 389.946 770.733 393.861 767.283 397.731C760.257 405.601 752.998 413.256 745.536 420.712C742.952 423.291 746.958 427.302 749.542 424.718C757.509 416.758 765.243 408.57 772.711 400.133C776.382 395.986 779.997 391.781 783.539 387.521C786.695 383.724 789.669 379.979 791.483 375.344C792.82 371.944 787.341 370.471 786.026 373.837Z" fill="black"/>
<path d="M752.579 110.693C749.905 107.117 749.395 102.505 746.511 98.9866C743.848 95.7342 740.176 93.5471 736.346 91.9323C726.521 87.7847 715.5 85.8526 705.154 83.4332C682.314 78.0844 659.242 73.7272 636.022 70.3785C622.894 68.486 609.72 66.9052 596.512 65.6416C592.886 65.296 592.909 70.9621 596.512 71.3077C618.882 73.4552 641.161 76.5149 663.276 80.5208C684.932 84.4417 706.684 88.9406 727.864 94.9863C732.346 96.2669 737.133 97.8364 740.646 101.038C744.443 104.494 744.726 109.599 747.684 113.56C749.843 116.444 754.766 113.622 752.579 110.693Z" fill="black"/>
<path d="M595.674 68.701C594.767 64.1964 593.866 59.6919 592.96 55.1874C592.217 51.4931 591.515 47.9064 587.906 45.9856C584.138 43.9855 579.61 42.9259 575.542 41.7021C571.094 40.3649 566.595 39.1807 562.068 38.1438C553.286 36.138 544.367 34.6988 535.404 33.8092C530.78 33.3503 526.14 33.033 521.499 32.897C517.567 32.778 513.578 32.8913 509.935 34.5345C502.625 37.8321 499.758 46.0196 497.673 53.1589C496.648 56.6662 502.115 58.1621 503.135 54.6661C505.396 46.9205 508.354 39.022 517.595 38.5461C527.42 38.0418 537.732 39.464 547.41 41.0335C557.286 42.6313 567.054 44.9431 576.602 47.9404C578.982 48.6884 581.401 49.4023 583.718 50.3202C586.427 51.3854 586.744 52.9549 587.294 55.6406C588.28 60.4908 589.243 65.341 590.212 70.1912C590.926 73.7835 596.388 72.2706 595.674 68.701Z" fill="black"/>
<path d="M499.333 51.5725C456.214 45.4531 412.665 40.8579 369.127 39.1977C356.973 38.7331 344.791 38.8351 332.716 40.4443C329.152 40.9202 329.107 46.592 332.716 46.1103C353.823 43.2943 375.269 44.9715 396.42 46.4107C417.895 47.8725 439.335 49.8273 460.713 52.2751C473.105 53.6972 485.48 55.2837 497.826 57.0402C501.39 57.5445 502.931 52.0881 499.333 51.5725Z" fill="black"/>
<path d="M330.036 43.8495C327.821 53.0059 328.149 62.9952 327.6 72.3612C327.016 82.2769 326.438 92.1869 325.889 102.103C324.772 122.126 323.758 142.15 322.971 162.191C321.395 202.03 320.704 241.919 321.894 281.78C322.563 304.218 323.837 326.638 325.86 348.997C326.183 352.6 331.855 352.634 331.526 348.997C327.974 309.674 326.756 270.181 326.988 230.711C327.22 190.992 328.897 151.301 331.033 111.65C331.628 100.612 332.257 89.5748 332.903 78.5373C333.221 73.1148 333.544 67.6924 333.866 62.2699C334.201 56.6492 334.172 50.8528 335.504 45.3623C336.36 41.8154 330.897 40.3025 330.036 43.8495Z" fill="black"/>
<path d="M344.865 341.614C342.111 267.728 342.1 193.74 344.87 119.849C345.658 98.8447 346.672 77.8518 347.907 56.8703C348.123 53.227 342.457 53.2384 342.241 56.8703C337.907 130.682 336.314 204.653 337.51 278.584C337.85 299.6 338.417 320.61 339.198 341.614C339.334 345.251 345.001 345.268 344.865 341.614Z" fill="black"/>
<path d="M347.794 57.42C398.369 55.9128 448.724 62.1512 498.529 70.3443C548.566 78.5771 598.456 87.8129 648.351 96.8503C662.194 99.3547 676.03 101.882 689.867 104.437C696.876 105.729 703.885 107.032 710.888 108.341C714.39 108.998 717.891 109.65 721.398 110.313C723.24 110.659 725.087 111.01 726.929 111.355C727.665 111.497 728.402 111.627 729.138 111.775C729.507 111.843 729.875 111.916 730.243 111.984C731.626 112.534 732.034 111.599 731.461 109.18C732.187 109.276 732.918 109.372 733.643 109.463C733.518 109.378 733.394 109.299 733.275 109.214C730.232 107.185 727.393 112.086 730.413 114.104C734.516 116.846 738.181 110.37 734.3 107.537C732.153 105.967 728.742 105.939 726.22 105.463C722.9 104.839 719.585 104.216 716.265 103.593C702.989 101.106 689.714 98.6464 676.427 96.2157C649.858 91.3485 623.273 86.572 596.688 81.8295C543.931 72.4181 491.174 62.0775 437.89 56.0488C407.99 52.6661 377.892 50.8473 347.794 51.7426C344.156 51.8615 344.139 57.5276 347.794 57.42Z" fill="black"/>
<path d="M342.428 344.657C395.077 352.26 447.562 361.026 499.826 370.97C552.085 380.914 604.122 392.025 655.887 404.292C670.268 407.703 684.626 411.199 698.961 414.786C706.31 416.622 713.647 418.486 720.985 420.372C723.88 421.115 727.042 422.067 729.818 420.423C732.113 419.064 733.292 416.678 733.32 414.066C733.36 410.417 727.694 410.417 727.654 414.066C727.62 417.245 722.079 414.803 720.345 414.361C717.126 413.534 713.902 412.712 710.678 411.896C704.412 410.31 698.139 408.74 691.867 407.182C679.498 404.116 667.106 401.125 654.703 398.195C629.897 392.337 605.023 386.739 580.098 381.412C530.061 370.721 479.797 361.105 429.346 352.572C400.936 347.767 372.464 343.314 343.941 339.194C340.371 338.679 338.83 344.141 342.428 344.657Z" fill="black"/>
</svg>
