<svg width="980" height="735" viewBox="0 0 980 735" fill="none" xmlns="http://www.w3.org/2000/svg">
<path opacity="0.6314" d="M667.674 495.398C666.377 492.944 665.193 490.502 664.207 487.896C663.861 486.989 663.748 486.026 663.804 485.057C663.759 484.944 663.714 484.83 663.668 484.711C663.193 483.448 662.796 482.133 662.552 480.807C662.229 479.068 662.207 477.345 662.371 475.629C662.354 475.595 662.343 475.555 662.326 475.521C661.867 474.926 661.408 474.337 660.954 473.742C661.436 472.201 661.736 470.591 661.906 468.999C662.705 464.268 662.184 459.48 662.071 454.721C662.133 446.154 661.493 437.604 661.215 429.048C660.841 413.67 659.838 398.298 660.042 382.914C660.02 370.466 660.376 358.012 660.546 345.564C661.685 345.388 662.807 345.071 663.855 344.6C663.606 341.002 663.453 337.427 663.453 333.789C663.453 324.735 662.983 315.55 664.569 306.598C664.745 305.601 664.994 304.626 665.227 303.64C665.249 303.533 665.629 301.748 665.674 301.776C665.861 300.178 665.878 298.535 665.89 296.937C665.924 293.322 665.884 289.696 665.589 286.092C665.476 284.699 665.323 283.305 665.176 281.911C665.142 281.588 665.119 281.344 665.102 281.163C665.068 280.993 665.028 280.761 664.977 280.455C664.7 278.8 664.422 277.146 664.065 275.497C663.323 272.046 662.53 268.601 661.719 265.167C660.716 260.912 660.354 256.561 659.872 252.221C659.776 251.337 659.674 250.453 659.578 249.569C659.578 249.574 659.079 246.991 659.243 247.586C658.847 245.942 658.376 244.316 657.872 242.707C655.764 235.993 651.855 228.831 648.937 222.491C648.665 221.907 648.415 221.318 648.166 220.723C647.282 220.02 646.415 219.301 645.543 218.564C643.197 216.575 641.293 214.167 638.987 212.144C636.879 210.297 634.409 208.512 631.61 206.903C628.89 205.339 625.864 204.427 623.139 202.886C621.745 202.098 620.414 201.209 619.02 200.421C618.391 200.064 617.734 199.764 617.099 199.418C617.031 199.379 616.986 199.356 616.952 199.333C616.844 199.311 616.697 199.277 616.487 199.226C613.031 198.342 609.54 197.577 606.061 196.766C602.911 196.03 599.511 195.724 596.599 194.222C596.316 194.075 596.134 193.967 596.021 193.888C595.987 193.882 595.947 193.877 595.908 193.871C595.233 193.775 594.548 193.673 593.868 193.61C592.621 193.497 591.341 193.446 590.111 193.186C590.1 193.18 589.239 192.993 588.644 192.834C584.457 194.211 579.952 192.936 577.187 188.647C575.43 185.927 574.898 182.737 575.051 179.564C575.108 178.318 575.215 177.077 575.357 175.836C575.504 174.657 575.668 173.479 575.844 172.306C575.651 173.071 575.612 172.85 575.725 171.643C575.385 165.96 576.105 160.096 576.201 154.401C576.303 148.497 575.714 142.729 575.096 136.87C574.943 135.408 574.773 133.941 574.694 132.468C574.626 131.771 574.603 131.08 574.632 130.383C574.881 131.334 574.853 131.21 574.541 130.009C573.963 126.037 573.844 121.47 576.915 118.399C579.38 115.934 582.564 115.39 585.879 115.152C585.964 115.146 586.054 115.141 586.139 115.135C586.496 115.005 586.729 114.926 586.836 114.892C587.199 114.71 587.556 114.523 587.907 114.319C588.259 114.115 588.593 113.9 588.933 113.673C589.018 113.588 589.21 113.418 589.516 113.158C589.811 112.874 590.083 112.568 590.355 112.262C590.429 112.143 590.542 111.973 590.706 111.73C590.752 111.645 590.791 111.571 590.831 111.503C590.933 111.175 591.024 110.846 591.103 110.512C591.109 110.404 591.114 110.291 591.12 110.149C591.465 107.35 591.539 106.908 591.335 108.823C591.805 105.486 592.298 102.613 594.701 100.109C594.1 99.6157 593.505 99.1171 592.916 98.6185C592.718 98.4485 592.519 98.2785 592.321 98.1142C592.202 98.0349 592.015 97.9102 591.749 97.7289C591.103 97.4003 590.434 97.0547 589.805 96.692C589.29 96.5051 588.768 96.3237 588.242 96.1651C587.488 95.9384 586.723 95.7401 585.958 95.5588C584.876 95.3038 583.782 95.0942 582.689 94.9072C582.575 94.8902 581.301 94.6976 580.915 94.6296C573.056 93.5984 565.158 93.6324 557.248 94.0346C550.007 94.4086 542.794 95.1452 535.536 95.0545C527.637 94.9582 519.829 93.825 511.931 93.689C496.094 93.417 480.269 93.0544 464.432 92.8278C456.692 92.7144 448.935 92.6295 441.218 93.3037C433.11 94.0176 424.985 94.7202 416.859 95.2472C412.802 95.5078 408.74 95.6948 404.677 95.7118C403.057 95.7175 401.431 95.6835 399.81 95.7515C399.929 95.7458 398.932 95.8138 398.314 95.8478C397.804 95.9554 396.433 96.1764 396.569 96.1594C396.093 96.3181 395.81 96.4087 395.697 96.4314C395.408 96.5957 395.124 96.7657 394.847 96.947C395.164 96.7657 396.24 95.7345 394.739 96.998C393.589 97.9669 392.535 99.0265 391.47 100.08C391.339 100.205 390.297 101.52 390.319 101.372C390.036 101.905 389.804 102.466 389.503 102.981C389.067 103.729 388.597 104.37 388.087 104.953C388.002 105.14 387.911 105.321 387.809 105.503C388.189 105.877 388.569 106.251 388.954 106.619C390.229 107.849 391.549 109.016 392.886 110.183C394.025 111.18 395.119 112.223 396.229 113.248C396.801 113.775 397.379 114.297 397.974 114.801C398.008 114.829 398.031 114.852 398.059 114.875C398.637 115.022 399.311 115.141 399.459 115.186C400.683 115.588 401.884 116.093 403.011 116.722C404.87 117.759 406.655 119.045 407.686 121C408.848 123.192 409.187 125.606 409.108 128.065C409.108 128.111 409.108 128.161 409.108 128.207C409.21 128.666 409.233 128.847 409.221 128.853C409.255 129.028 409.284 129.21 409.323 129.385C410.173 132.898 411.006 136.224 411.352 139.851C411.947 146.134 411.664 152.492 411.562 158.792C411.511 161.858 411.329 164.9 411.159 167.96C411.074 169.473 410.989 170.986 410.853 172.499C410.7 174.249 410.196 176.216 410.122 177.983C410.168 177.723 410.298 178.816 410.309 179.338C410.321 179.763 410.355 180.193 410.36 180.612C410.377 182.805 409.992 184.805 408.966 186.749C406.422 191.565 401.181 192.506 396.297 191.826C396.875 191.905 397.453 191.984 398.031 192.064C396.966 192.058 395.946 191.894 394.966 191.576C394.762 191.571 394.473 191.576 394.308 191.576C393.963 191.65 393.611 191.735 393.271 191.803C390.421 192.404 387.605 192.959 384.835 193.865C381.905 194.823 379.01 195.866 376.069 196.783C374.658 197.22 373.242 197.628 371.825 198.047C371.196 198.234 370.562 198.421 369.933 198.614C369.65 198.699 368.375 199.05 368.465 198.971C365.91 199.985 363.621 201.713 361.309 203.135C360.193 203.821 359.099 204.557 357.983 205.249C357.462 205.572 356.923 205.866 356.402 206.195C356.289 206.269 356.21 206.314 356.142 206.348C356.051 206.438 355.949 206.546 355.813 206.676C353.291 209.17 350.889 211.906 347.982 213.952C346.073 215.295 344.18 215.992 342.152 216.416C341.857 216.938 341.546 217.453 341.257 217.969C340.407 219.482 338.985 220.513 337.392 220.995C336.22 223.238 334.882 225.324 333.528 227.477C332.826 228.599 332.146 229.737 331.517 230.905C331.199 231.5 330.933 232.129 330.599 232.706C330.576 232.752 330.553 232.78 330.536 232.814C330.525 232.848 330.514 232.876 330.503 232.922C328.667 238.208 327.567 243.5 324.876 248.487C324.168 249.801 323.522 251.144 322.887 252.492C322.763 252.759 322.672 252.957 322.598 253.11C322.366 253.671 322.139 254.238 321.918 254.804C320.882 257.456 320.236 260.221 319.561 262.986C318.881 265.774 318.264 268.573 317.782 271.406C317.691 271.938 317.607 272.471 317.527 273.004C317.51 273.191 317.431 273.91 317.425 274.024C317.323 275.332 317.454 276.891 317.17 278.165C316.989 277.304 316.955 277.185 317.063 277.82C317.221 278.823 317.363 279.826 317.476 280.834C317.488 281.197 317.493 281.542 317.482 281.905C317.425 284.047 316.961 285.662 316.162 287.56C314.518 291.452 317.165 285.146 315.521 289.039C315.023 290.223 314.779 290.659 313.997 291.673C312.932 293.056 312.139 293.77 310.683 294.784C310.932 296.246 311.215 298.388 311.09 297.345C310.954 296.223 311.272 298.745 311.306 298.971C311.345 299.26 311.408 299.617 311.464 299.997C311.668 300.037 311.872 300.076 312.076 300.122C316.281 301.023 319.335 305.521 319.329 309.652C319.329 315.488 319.318 321.256 318.638 327.064C317.901 333.365 318.235 339.796 318.235 346.142C318.235 352.097 318.734 358.052 318.768 364.018C318.802 369.979 318.468 375.917 318.621 381.878C318.774 387.867 318.383 393.765 318.275 399.748C318.167 405.992 318.23 412.242 318.23 418.486C318.23 424.192 317.895 429.739 317.482 435.422C317.023 441.711 317.493 447.61 318.06 453.854C318.592 459.73 318.332 465.917 318.122 471.81C318.088 472.79 318.048 473.832 317.895 474.801C317.878 474.92 317.816 475.827 317.771 475.787C317.856 476.762 318.065 477.725 318.071 478.717C318.077 479.187 318.286 480.552 317.98 478.649C318.502 481.89 318.439 484.337 317.408 486.78C316.966 488.236 316.309 489.431 315.374 490.632C315.04 491.063 313.935 492.066 313.164 492.695C312.983 492.933 312.813 493.154 312.728 493.284C312.297 493.953 311.952 494.65 311.572 495.341C311.391 495.647 311.204 495.947 311.011 496.248C310.989 496.293 310.971 496.321 310.949 496.361C310.915 496.854 310.83 497.341 310.694 497.828C310.637 497.959 310.586 498.083 310.53 498.214C310.547 498.225 310.564 498.231 310.581 498.242C314.683 500.61 316.643 504.656 317.006 509.246C317.04 509.676 317.051 510.095 317.074 510.52C317.085 510.724 317.369 512.821 317.238 512.379C317.522 513.631 317.884 514.855 318.298 516.073C319.425 519.405 320.819 522.686 321.646 526.102C322.202 528.397 322.457 530.788 322.746 533.122C322.853 533.972 322.955 534.822 323.046 535.678C323.103 536.216 323.125 536.522 323.131 536.686C323.165 536.834 323.205 537.009 323.25 537.23C323.465 538.211 323.698 539.185 324.004 540.143C324.032 540.239 324.842 542.438 324.576 541.854C325.097 543.078 325.675 544.319 326.332 545.463C327.981 548.342 329.709 551.163 331.29 554.087C333.035 557.3 334.86 560.467 336.973 563.453C336.945 563.413 338.135 564.966 338.186 565.057C338.628 565.595 339.07 566.133 339.523 566.66C340.764 568.099 342.039 569.51 343.336 570.898C345.852 573.59 348.379 576.389 351.076 578.899C351.342 579.148 351.62 579.392 351.898 579.63C351.767 579.482 353.212 580.548 353.342 580.627C354.595 581.426 355.904 582.14 357.235 582.803C358.227 583.296 359.235 583.755 360.255 584.191C360.385 584.242 360.55 584.304 360.748 584.389C362.187 584.962 363.626 585.528 365.066 586.1C367.179 586.945 369.185 587.914 371.213 588.928C371.44 589.041 372.307 589.421 372.466 589.5C373.151 589.761 373.842 590.01 374.534 590.248C377.894 591.404 381.322 592.361 384.631 593.676C385.01 593.829 385.345 593.971 385.668 594.107C385.69 594.107 386.432 594.401 386.812 594.509C387.775 594.786 388.739 595.064 389.702 595.336C390.62 595.591 391.577 595.874 392.552 596.18C398.139 594.707 404.105 597.121 405.822 603.28C406.643 606.215 406.252 609.445 405.034 612.3C404.7 613.303 404.201 614.238 403.516 615.043C403.074 615.683 402.598 616.284 402.071 616.833C399.294 619.746 395.674 620.907 391.94 622.035C391.895 622.046 391.844 622.069 391.793 622.086C391.685 623.179 391.679 624.29 391.651 625.383C391.577 628.296 390.829 630.823 390.234 633.633C390.132 634.104 389.889 635.696 389.889 635.701C389.883 635.781 389.928 637.328 389.849 637.509C390.019 638.019 390.274 638.795 390.178 638.648C390.512 639.356 390.926 640.036 391.322 640.704C391.713 641.367 392.116 642.013 392.518 642.665C392.897 642.778 393.277 642.875 393.662 642.977C398.909 642.314 404.201 641.991 409.493 642.076C413.896 642.144 418.299 642.421 422.701 642.404C427.489 642.387 432.26 642.025 437.053 642.081C446.465 642.195 455.916 643.464 465.316 643.107C474.653 642.75 483.844 642.217 493.187 642.393C501.766 642.552 510.469 643.56 519.042 643.198C523.829 642.994 528.538 642.569 533.337 642.642C537.921 642.716 542.505 642.96 547.083 643.141C549.65 643.243 552.217 643.322 554.783 643.351C556.931 643.379 559.259 643.067 561.384 643.299C561.707 643.333 561.849 643.368 561.883 643.396C562.676 643.294 563.469 643.147 564.257 643.045C564.994 642.948 565.736 642.863 566.472 642.784C568.711 642.535 570.949 642.302 573.187 642.047C573.872 641.968 574.558 641.883 575.243 641.798C575.634 641.747 577.697 641.469 576.031 641.702C573.691 642.025 577.958 641.441 577.929 641.447C578.224 641.413 578.524 641.396 578.824 641.362C578.858 641.356 578.881 641.356 578.909 641.35C580.91 641.039 582.921 640.75 584.876 640.217C586.95 638.177 589.499 637.078 592.463 637.305C592.463 636.738 592.468 636.177 592.468 635.611C592.468 634.749 592.485 633.888 592.446 633.027C592.423 632.613 592.151 630.766 592.276 631.401C591.585 627.525 590.735 623.723 590.162 619.831C589.941 619.576 589.732 619.315 589.533 619.049C589.528 619.049 589.528 619.049 589.522 619.049C590.247 620.08 589.89 619.678 589.358 619.071C589.137 619.1 588.927 619.128 588.763 619.162C586.304 619.615 584.632 619.53 582.162 619.06C574.479 617.604 573.107 607.575 577.799 602.526C580.394 599.733 583.89 597.807 587.652 597.161C589.409 596.86 591.205 596.628 592.984 596.503C593.069 596.481 593.154 596.458 593.256 596.43C593.806 596.288 594.361 596.152 594.916 596.016C596.367 595.653 597.823 595.296 599.279 594.974C599.919 594.832 600.56 594.684 601.206 594.554C601.126 594.571 601.483 594.515 601.88 594.452C602.078 594.311 603.126 593.925 603.364 593.818C604.39 593.336 605.517 592.769 606.617 592.463C607.642 592.35 608.384 592.265 608.855 592.208C608.894 592.18 608.928 592.152 608.968 592.123C608.934 592.123 608.906 592.129 608.872 592.129C608.339 592.18 608.373 592.152 608.968 592.044C609.093 591.959 609.229 591.885 609.376 591.823C610.169 591.234 610.968 590.65 611.778 590.095C612.447 589.636 613.133 589.092 613.869 588.741C614.051 588.656 614.798 588.344 614.849 588.384C616.011 587.591 617.031 586.537 618.283 585.862C619.802 585.046 621.434 584.372 623.054 583.794C623.456 583.653 625.19 583.137 625.241 583.16C626.289 582.752 627.315 582.185 628.306 581.664C629.508 581.041 630.697 580.378 631.848 579.669C631.814 579.692 632.613 579.171 633.038 578.899C633.327 578.672 633.786 578.315 633.882 578.23C637.412 575.171 640.727 571.765 643.73 568.19C643.871 568.026 643.967 567.907 644.047 567.822C644.069 567.782 644.109 567.72 644.177 567.623C644.438 567.244 644.727 566.875 644.993 566.496C645.707 565.487 646.393 564.462 647.056 563.425C648.217 561.606 649.305 559.736 650.342 557.844C652.501 553.9 654.416 549.832 656.274 545.735C657.237 543.616 658.184 541.491 659.136 539.366C659.311 538.981 659.498 538.59 659.674 538.199C659.646 538.233 659.674 538.109 659.827 537.638C660.218 536.437 660.597 535.236 660.932 534.018C661.306 532.652 661.634 531.27 661.912 529.881C662.048 529.196 662.167 528.505 662.286 527.813C662.303 527.717 662.354 527.281 662.388 527.003C662.609 524.765 662.694 522.521 662.7 520.272C662.7 519.042 662.7 517.813 662.7 516.583C662.7 515.971 662.671 515.342 662.7 514.73C662.705 514.668 662.711 514.441 662.722 514.226C662.717 514.181 662.711 514.135 662.705 514.101C662.496 512.997 662.331 511.858 662.224 510.736C662.088 509.274 662.241 507.755 662.558 506.322C663.255 503.121 665.17 500.752 667.436 498.514C667.555 498.395 668.156 497.783 668.587 497.352C668.592 497.341 668.604 497.33 668.609 497.318C668.309 496.684 668.009 496.021 667.674 495.398ZM421.885 122.359C420.786 122.342 419.964 122.138 419.041 121.515C417.726 120.631 417.817 118.45 419.5 118.019C421.585 117.487 423.54 117.855 425.642 117.946C428.367 118.07 430.974 118.059 433.654 118.671C435.75 119.147 435.251 122.416 433.155 122.371C429.852 122.297 426.571 121.9 423.279 121.759C422.979 122.127 422.52 122.371 421.885 122.359ZM452.584 619.253C448.34 621.87 441.898 622.879 437.053 621.746C431.733 620.505 427.937 616.244 426.894 610.946C426.152 607.161 426.645 603.218 429.444 600.328C431.789 597.909 435.127 596.9 438.271 597.518C438.628 597.495 438.957 597.472 439.218 597.472C440.272 596.996 441.411 596.758 442.566 596.843C442.708 596.826 442.855 596.815 442.997 596.798C443.53 596.741 444.068 596.77 444.601 596.866C445.19 596.668 445.819 596.515 446.487 596.424C450.703 595.857 455.933 598.498 456.924 602.997C458.947 608.583 457.831 616.017 452.584 619.253ZM462.585 183.514C456.754 183.559 450.964 183.14 445.422 181.19C441.75 179.899 438.849 178.369 436.583 175.15C435.059 172.992 434.186 170.487 433.744 167.898C433.132 164.277 432.809 160.073 433.654 156.339C433.518 156.141 433.399 155.937 433.291 155.727C431.263 152.214 430.214 148.197 430.787 144.044C431.608 138.054 435.206 132.201 440.759 129.691C443.496 128.45 446.436 127.51 449.434 127.215C450.935 127.068 452.431 127.136 453.938 127.159C454.114 127.159 454.329 127.181 454.562 127.198C456.142 126.728 457.837 126.558 459.451 126.507C463.531 126.377 464.63 131.861 461.451 133.884C460.024 134.785 458.448 135.091 456.817 135.165C457.519 136.513 458.193 137.794 458.647 139.329C459.106 140.888 458.601 142.213 457.65 143.092C457.859 143.5 458.063 143.913 458.25 144.333C458.284 144.417 458.318 144.502 458.346 144.582C458.839 144.99 459.202 145.5 459.417 146.066C459.559 146.083 459.701 146.112 459.848 146.146C462.93 146.911 466.115 148.055 469.276 148.333C473.061 148.667 476.886 147.647 480.546 146.809C483.951 146.027 486.666 149.523 485.017 152.622C484.473 153.636 483.742 154.429 483.232 155.455C482.393 157.138 481.719 158.815 481.118 160.6C481.016 160.906 480.88 161.183 480.716 161.45C480.716 161.455 480.722 161.455 480.722 161.461C482.439 163.756 481.889 166.969 480.144 169.122C486.184 170.685 486.881 181.712 479.849 182.924C474.098 183.916 468.381 183.468 462.585 183.514ZM501.987 617.281C498.859 620.409 494.859 620.737 491.068 619.423C490.077 619.53 489.102 619.774 488.093 619.74C485.81 619.666 483.6 618.907 481.679 617.7C479.81 616.527 477.866 614.397 477.413 612.136C477.192 611.518 477.198 611.445 477.424 611.909C477.894 612.793 477.69 612.278 476.807 610.351C476.676 609.881 476.597 609.365 476.546 608.838C476.013 607.014 476.189 605.014 477.322 603.223C478.642 600.787 481.407 599.076 484.144 599.076C485.549 599.076 486.768 599.421 487.793 600.022C488.031 600.118 488.269 600.226 488.501 600.345C488.983 600.351 489.47 600.436 489.952 600.611C490.286 600.674 490.603 600.742 490.932 600.821C492.655 599.501 494.842 598.775 497.136 598.651C500.632 598.464 503.981 601.274 504.882 604.549C505.443 606.589 505.148 608.464 504.287 610.102C504.672 612.618 504.089 615.179 501.987 617.281ZM519.393 179.576C515.517 179.836 511.171 179.989 507.347 179.185C503.177 178.306 500.44 174.074 502.967 170.108C505.182 166.629 509.71 167.467 513.154 167.784C515.002 167.954 516.985 168.561 518.832 168.538C519.206 168.306 519.574 168.056 519.92 167.779C520.532 167.354 521.155 166.94 521.778 166.538C522.209 166.26 522.651 165.954 523.099 165.631C523.087 165.603 523.076 165.58 523.065 165.552C521.92 162.067 521.852 158.696 520.158 155.381C519.829 154.741 519.127 153.744 519.098 152.99C519.081 152.951 519.07 152.922 519.053 152.883C519.019 152.888 518.985 152.894 518.951 152.9C518.311 153.262 516.9 153.296 515.874 153.342C515.359 153.41 514.849 153.478 514.344 153.546C513.189 153.852 512.65 154.395 511.625 155.262C510.214 156.458 508.582 156.56 506.797 156.503C505.063 156.447 503.335 156.112 501.783 155.285C500.457 154.582 499.749 154.339 498.491 154.271C498.145 154.259 497.805 154.254 497.459 154.242C492.366 154.146 492.366 146.276 497.459 146.333C498.128 146.338 498.774 146.367 499.409 146.423C502.23 146.605 505.046 146.939 507.862 146.616C509.177 146.463 510.469 146.225 511.761 145.976C513.8 145.437 516.005 145.262 517.84 145.024C518.254 144.973 518.679 144.944 519.098 144.933C520.634 144.701 522.096 144.248 522.906 143.075C523.189 142.661 523.387 142.191 523.62 141.743C523.665 141.596 523.705 141.42 523.75 141.205C523.784 141.029 523.812 140.627 523.892 140.378C523.858 140.247 523.829 140.117 523.801 139.992C523.665 139.358 523.71 138.706 523.892 138.1C522.283 137.613 520.781 136.774 519.484 135.533C514.571 130.819 519.376 121.634 526.005 123.408C527.15 123.187 528.362 123.192 529.564 123.419C530.153 123.532 530.714 123.725 531.246 123.986C531.496 124.054 532.034 124.269 532.306 124.331C532.878 124.467 533.394 124.683 533.955 124.853C534.924 125.141 536.023 125.181 536.884 125.816C536.941 125.844 536.975 125.867 537.026 125.889C538.199 125.787 539.326 125.827 540.516 126.093C542.505 126.535 544.46 127.714 545.893 129.142C548.919 132.156 549.922 134.689 551.089 138.632C551.639 140.485 551.837 142.463 552.047 144.372C551.831 142.4 552.234 146.208 552.251 146.321C552.33 146.979 552.386 147.641 552.426 148.304C552.426 148.293 552.421 149.041 552.415 149.596C552.438 149.562 552.5 150.628 552.528 150.809C552.828 152.718 553.1 154.65 553.208 156.583C553.429 160.492 552.698 164.073 551.129 167.637C549.82 170.606 547.774 173.4 545.497 175.689C544.324 176.867 542.579 178.607 540.828 178.856C540.34 179.128 540.329 179.088 540.794 178.731C541.451 178.153 541.23 178.312 540.131 179.202C539.179 179.938 538.216 180.437 537.15 180.969C534.153 182.477 530.113 183.055 527.167 180.969C526.402 180.431 525.688 179.825 525.031 179.162C523.144 179.394 521.223 179.451 519.393 179.576ZM548.296 619.253C547.14 619.61 545.882 619.746 544.669 619.734C544.063 619.729 541.168 619.564 542.426 619.587C541.111 619.564 539.819 619.576 538.505 619.445C538.76 619.451 533.813 618.635 536.221 619.077C532.669 618.425 529.733 618.017 527.671 614.595C526.991 613.468 526.6 612.306 526.475 611.048C524.713 608.311 524.73 604.629 526.844 601.886C529.428 598.537 535.162 597.512 538.352 600.725C538.391 600.753 538.431 600.781 538.471 600.81C538.839 600.606 539.23 600.419 539.66 600.271C545.474 598.26 551.627 599.722 554.041 605.722C556.177 611.037 554.103 617.451 548.296 619.253Z" fill="#B7C9C9"/>
<path opacity="0.6314" d="M438.838 147.851C439.082 147.789 439.331 147.749 439.586 147.721C439.161 147.205 438.81 146.639 438.56 146.021C438.543 146.65 438.594 147.273 438.702 147.891C438.747 147.879 438.793 147.862 438.838 147.851Z" fill="#B7C9C9"/>
<path opacity="0.6314" d="M568.761 116.002C566.342 114.738 563.543 114.914 560.891 114.88C558.987 114.891 557.083 114.563 555.179 114.483C552.749 114.166 550.295 114.126 547.853 113.962C543.485 113.577 539.099 113.39 534.719 113.407C531.603 113.18 528.481 113.18 525.376 112.801C523.064 112.761 520.747 112.755 518.452 112.461C513.239 112.075 508.015 112.217 502.796 112.381C501.329 112.483 499.873 112.33 498.405 112.274C495.278 112.393 492.161 112.563 489.034 112.665C486.705 112.75 484.37 112.789 482.042 112.925C480.631 112.863 479.214 112.829 477.803 112.948C475.072 113.09 472.347 113.396 469.627 113.651C467.922 113.6 466.211 113.571 464.505 113.719C464.074 113.758 463.644 113.792 463.219 113.815C462.981 113.628 462.726 113.452 462.448 113.299C461.474 112.687 460.397 112.489 459.298 112.432C458.476 112.325 457.643 112.262 456.816 112.228C455.592 112.138 454.368 111.962 453.139 112.007C450.991 112.2 448.884 112.693 446.748 112.965C446.34 113.027 445.96 113.09 445.58 113.141C442.702 113.322 439.818 113.464 436.934 113.435C436.243 113.333 435.54 113.35 434.86 113.475C429.806 113.209 424.752 113.129 419.686 113.305C417.267 113.345 414.83 113.452 412.462 113.996C410.32 114.546 408.734 116.291 408.088 118.37C406.943 122.189 410.122 126.394 414.122 126.292C418.547 126.297 422.978 126.252 427.404 126.122C429.194 126.105 430.979 126.105 432.769 126.116C435.886 126.269 439.002 126.388 442.124 126.314C444.192 126.218 446.243 125.98 448.294 125.702C448.436 125.691 448.583 125.685 448.725 125.674C450.77 125.674 452.822 125.765 454.861 125.935C458.686 126.773 462.59 126.705 466.477 126.456C469.956 126.711 473.401 126.184 476.874 126.054C479.583 125.85 482.285 126.173 484.994 125.98C489.289 125.98 493.583 125.85 497.873 125.731C501.771 125.997 505.675 125.906 509.584 125.878C514.854 125.799 520.101 126.575 525.37 126.382C528.503 126.66 531.637 126.513 534.776 126.552C537.739 126.326 540.697 126.275 543.672 126.144C548.964 126.088 554.25 125.793 559.542 125.68C560.137 125.668 560.732 125.583 561.321 125.493C563.962 125.697 566.614 125.787 569.039 124.665C572.348 122.688 572.274 117.719 568.761 116.002Z" fill="#A6A6A6"/>
<path opacity="0.6314" d="M665.515 304.881C665.13 303.969 664.75 303.062 664.365 302.15C663.351 300.433 661.985 299.068 660.268 298.053C659.549 297.674 658.359 297.283 657.515 296.886C657.509 296.886 657.498 296.886 657.492 296.88C655.441 296.053 653.231 295.736 651.044 295.504C649.282 295.498 647.542 295.124 645.786 294.999C642.715 294.977 639.661 294.801 636.59 294.897C634.686 294.807 632.788 294.637 630.878 294.637C628.929 294.654 626.969 294.903 625.025 294.761C622.085 294.461 619.121 294.489 616.164 294.727C612.809 294.875 609.466 294.812 606.118 294.603C601.148 294.127 596.151 294.353 591.17 294.087C588.428 294.115 585.708 293.804 582.972 293.736C579.804 293.668 576.643 293.86 573.475 293.775C570.761 293.713 568.047 293.605 565.339 293.413C562.426 293.441 559.514 293.413 556.613 293.146C550.023 293.418 543.417 293.503 536.827 293.838C533.422 294.149 530.005 293.991 526.588 293.996C523.942 293.991 521.302 294.263 518.661 294.433C516.605 294.512 514.565 294.11 512.514 294.098C509.227 294.138 505.941 294.365 502.649 294.331C500.06 294.376 497.465 294.467 494.887 294.688C492.484 295.062 490.065 295.186 487.64 295.351C481.282 295.555 474.919 295.515 468.568 295.804C459.032 295.912 449.558 297.135 440.033 297.419C436.197 297.441 432.361 297.226 428.531 297.152C426.956 297.152 425.392 297.396 423.822 297.396C421.726 297.351 419.641 297.067 417.55 296.96C415.04 296.62 412.524 296.994 410.014 297.135C406.955 297.39 403.878 297.322 400.818 297.43C395.345 297.617 389.849 297.039 384.392 297.691C384.675 297.651 384.953 297.617 385.236 297.577C384.902 297.594 384.574 297.617 384.239 297.64C383.265 297.3 382.233 297.079 381.253 296.818C378.975 296.416 376.664 296.025 374.341 296.082C371.751 296.127 369.201 296.648 366.612 296.767C360.056 297.305 353.478 296.931 346.911 297.226C345.075 297.277 343.234 297.39 341.398 297.334C339.664 297.107 337.936 297.283 336.213 297.583C335.471 297.895 334.723 298.212 333.981 298.524C332.893 299.113 332.015 299.917 331.358 300.932C331.006 301.289 330.729 301.685 330.508 302.116C328.213 302.36 326.558 304.139 326.162 306.184C325.55 306.337 324.949 306.552 324.366 306.858C322.23 308.122 321.249 310.989 322.394 313.238C323.074 315.335 325.227 316.043 327.108 316.717C327.482 316.876 327.856 317.035 328.23 317.193C330.355 318.162 332.638 318.655 334.854 319.363C337.483 319.777 340.134 319.998 342.78 320.281C343.058 320.31 343.341 320.327 343.619 320.344C344.101 320.417 344.582 320.48 345.064 320.548C346.05 320.723 347.041 320.876 348.033 321.012C350.237 321.477 352.435 321.976 354.645 322.418C363.592 323.647 359.439 322.893 366.714 323.879C372.374 324.565 378.086 324.707 383.763 325.245C385.078 325.455 386.137 325.591 391.945 325.806C396.71 326.367 401.492 325.879 406.269 325.76C412.133 325.67 418.009 325.777 423.868 325.421C429.194 325.313 434.526 325.721 439.852 325.37C447.269 324.775 454.708 324.724 462.142 324.508C467.191 324.18 472.245 323.998 477.299 323.76C486.994 322.995 496.717 322.35 506.44 322.621C511.092 322.35 515.721 321.692 520.384 321.602C523.619 321.483 526.849 321.823 530.079 321.619C533.558 321.307 537.037 321.596 540.521 321.698C545.258 321.76 549.995 321.789 554.726 322.089C565.339 322.078 575.951 322.536 586.564 322.095C590.621 321.806 594.666 321.505 598.695 320.956C604.786 320.599 610.854 319.953 616.945 319.652C621.382 319.312 625.824 319.737 630.266 319.522C633.292 319.329 636.318 319.165 639.349 319.103C641.604 319.137 643.859 319.256 646.103 318.99C646.721 318.978 647.344 318.939 647.962 318.933C647.809 318.91 647.65 318.893 647.497 318.871C649.208 319.029 650.925 319.08 652.642 319.182C653.764 319.392 654.891 319.443 656.036 319.137C658.574 319.131 660.716 317.573 662.597 315.992C663.713 314.955 664.501 313.731 664.96 312.315C665.475 311.425 665.736 310.462 665.742 309.431C666.059 307.918 665.991 306.399 665.515 304.881Z" fill="#A6A6A6"/>
<path opacity="0.6314" d="M655.282 506.82C655.339 506.718 655.39 506.611 655.441 506.509C655.356 506.588 655.265 506.662 655.175 506.736C654.937 506.985 654.512 506.809 654.2 506.883C652.733 506.849 651.39 506.09 650.047 505.563C647.729 504.747 645.31 504.265 642.93 503.664C640.539 503.109 638.097 502.792 635.683 502.356C632.76 501.562 629.825 500.865 626.81 500.576C625.875 500.39 624.969 500.106 624.051 499.857C622.379 499.455 620.657 499.319 618.968 499.018C613.829 498.078 608.662 497.137 603.449 496.752C604.174 496.848 604.9 496.944 605.63 497.046C604.429 496.882 603.228 496.724 602.021 496.565C600.729 496.367 599.449 496.089 598.163 495.862C595.862 495.488 593.533 495.335 591.216 495.114C586.598 494.298 581.997 493.233 577.289 493.143C573.64 492.939 570.025 492.259 566.364 492.259C563.293 492.31 560.251 491.924 557.202 491.647C553.281 491.454 549.355 491.414 545.434 491.222C543.241 490.978 541.065 491.335 538.878 491.499C536.504 491.613 534.124 491.477 531.745 491.494C523.585 492.015 515.438 492.939 507.261 493.052C503.358 493.267 499.465 493.607 495.555 493.483C491.062 493.607 486.569 493.766 482.081 493.958C477.713 494.083 473.361 494.44 468.998 494.616C465.706 494.536 462.42 494.412 459.128 494.451C457.377 494.338 455.626 494.264 453.87 494.355C450.453 494.491 447.031 494.582 443.609 494.565C441.212 494.468 438.821 494.276 436.424 494.485C432.361 494.706 428.276 494.264 424.231 494.78C420.559 495.182 416.87 495.165 413.187 495.477C410.893 495.437 408.604 495.386 406.32 495.681C401.816 496.095 397.322 496.69 392.812 497.064C390.489 497.194 388.172 497.335 385.866 497.636C382.149 497.919 378.42 498.083 374.732 498.69C373.723 498.78 372.709 498.86 371.706 498.962C364.952 499.251 362.997 499.738 359.569 500.146C356.408 500.469 353.24 500.854 350.175 501.71C348.129 502.214 346.027 502.412 343.97 502.888C339.183 503.749 335.976 504.469 331.834 504.854C328.417 505.444 325.125 506.611 321.81 507.608C324.887 507.733 327.975 507.84 331.04 508.163C331.686 508.282 332.332 508.43 332.973 508.588C331.8 508.707 330.536 508.781 329.035 508.764C327.816 508.872 326.593 509.042 325.374 508.815C324.802 508.719 324.196 508.702 323.669 508.458C323.731 508.52 323.782 508.594 323.856 508.651C325.363 509.79 327.12 510.441 328.927 510.934C330.927 511.744 333.024 512.294 335.114 512.832C337.058 513.11 338.905 513.773 340.786 514.294C342.832 514.696 344.86 515.184 346.922 515.501C350.016 515.949 353.042 516.776 356.153 517.082C356.357 517.121 356.566 517.161 356.77 517.201C362.295 518.629 367.966 519.15 373.621 519.813C376.652 520.255 379.689 520.646 382.738 520.957C381.945 520.85 381.157 520.742 380.364 520.64C387.724 521.592 383.831 521.201 392.569 522.317C395.079 522.521 397.6 522.618 400.11 522.867C407.714 524.062 415.386 524.657 423.069 524.969C429.251 525.281 435.432 525.961 441.62 525.473C446.589 525.609 451.558 525.887 456.533 525.762C461.44 525.932 466.352 525.762 471.259 525.813C475.86 525.972 480.444 526.623 485.05 526.329C493.453 525.779 501.607 524.816 510.061 524.646C514.061 524.646 518.05 525.037 522.044 525.082C525.637 525.02 529.218 524.635 532.799 524.38C536.748 524.108 540.708 524.006 544.646 523.671C550.454 523.133 556.233 522.295 561.985 521.314C567.543 520.838 573.09 520.294 578.609 519.445C580.003 519.258 581.397 519.048 582.785 518.833C585.329 518.595 587.884 518.578 590.434 518.464C597.182 518.317 603.982 518.555 610.69 517.677C611.302 517.592 611.908 517.444 612.515 517.314C614.662 517.229 616.804 517.059 618.934 516.77C621.071 516.436 623.246 516.226 625.348 515.699C627.654 514.923 630.051 514.521 632.448 514.181C640.239 512.781 647.576 509.688 655.18 507.585C654.806 507.563 654.432 507.551 654.064 507.534C654.41 507.427 654.75 507.279 655.078 507.098C655.186 507.047 655.22 506.917 655.282 506.82Z" fill="#A6A6A6"/>
<path opacity="0.6314" d="M474.863 602.266C474.03 601.382 472.948 600.94 471.803 600.702C471.752 600.674 471.701 600.64 471.65 600.611C469.463 599.484 466.908 599.914 464.534 599.773C462.953 599.761 461.332 599.784 459.921 600.577C456.992 602.169 456.34 606.566 458.783 608.867C458.885 608.952 458.987 609.025 459.089 609.099C459.049 609.717 459.1 610.374 459.264 611.065C459.508 611.932 459.865 612.64 460.307 613.235C460.148 614.839 460.845 616.505 462.211 617.445C462.511 617.961 462.97 618.38 463.525 618.584C464.12 618.901 464.8 618.833 465.463 618.788C466.726 618.805 468.018 618.833 469.242 618.522C469.299 618.499 469.361 618.471 469.418 618.448C469.423 618.448 469.418 618.448 469.423 618.448C469.831 618.346 470.205 618.159 470.534 617.916C470.778 617.814 471.021 617.7 471.248 617.564C471.713 617.207 471.888 616.72 471.86 616.244C473.713 615.292 475.22 613.553 475.169 611.383C475.163 610.963 475.101 610.555 474.999 610.159C477.056 608.022 477.016 604.334 474.863 602.266Z" fill="#A6A6A6"/>
<path opacity="0.6314" d="M424.995 603.807C425.369 602.028 424.503 600.147 422.939 599.206C422.242 598.793 421.483 598.64 420.701 598.611C419.822 598.345 418.876 598.22 417.93 598.215C416.275 598.254 414.462 597.977 412.932 598.708C410.785 599.49 409.754 601.575 409.867 603.609C409.102 605.836 410.003 608.425 411.89 609.836C411.907 609.881 411.918 609.932 411.935 609.977C411.539 611.23 411.912 612.709 413.023 613.479C413.165 613.592 413.312 613.694 413.465 613.785C413.17 614.471 413.76 615.326 414.508 615.298C414.774 615.258 415.04 615.258 415.312 615.264C415.278 615.406 415.301 615.559 415.414 615.683C415.397 615.451 415.522 615.338 415.709 615.275C415.879 615.281 416.049 615.287 416.219 615.281C416.525 615.253 416.842 615.23 417.125 615.094C417.261 615.032 417.726 614.845 417.341 615.003C417.437 614.964 417.539 614.924 417.635 614.879C418.542 614.72 419.403 614.352 419.987 613.632C420.225 613.4 420.4 613.117 420.531 612.816C420.633 612.748 420.74 612.692 420.837 612.618C421.171 612.573 421.505 612.522 421.839 612.454C423.505 612.029 424.859 610.924 425.579 609.405C426.554 607.626 426.265 605.343 424.995 603.807Z" fill="#A6A6A6"/>
<path opacity="0.6314" d="M525.149 604.124C525.008 601.772 523.523 599.438 521.291 598.662C519.075 597.665 516.559 598.152 514.157 598.186C512.797 598.022 511.891 598.152 510.859 598.628C510.638 598.707 510.423 598.803 510.213 598.917C509.216 598.888 508.213 598.866 507.216 598.866C506.774 598.86 506.327 598.843 505.885 598.849C505.868 598.849 505.851 598.843 505.834 598.843V598.849C504.853 598.86 503.89 598.968 503.029 599.472C502.275 599.733 501.607 600.135 501.034 600.634C502.287 600.821 503.392 601.721 503.675 603.053C503.862 603.926 503.607 604.815 503.103 605.506C503.884 607.535 503.261 610.504 502.275 612.476C503.986 613.496 506.004 613.399 507.93 613.603C508.072 613.615 508.208 613.626 508.344 613.637C508.803 614.136 509.347 614.561 509.947 614.861C510.202 614.997 510.463 615.116 510.729 615.218C510.865 615.354 511.007 615.479 511.165 615.592C511.568 616.017 512.327 616.272 513.16 616.431C513.25 616.929 513.522 617.128 513.466 617.581C513.483 617.502 513.471 617.564 513.443 617.768C513.426 617.842 513.432 617.915 513.437 617.989C513.409 617.893 513.347 618.062 513.245 618.136C512.718 618.493 512.82 619.343 513.273 619.717C513.556 619.938 513.868 620.125 514.208 620.244C513.908 619.932 513.426 619.496 513.59 619.02C513.607 618.997 513.607 618.997 513.613 618.98C513.624 618.975 513.624 618.98 513.641 618.975C514.044 618.912 514.593 618.595 514.707 618.335C514.945 618.091 515.183 617.825 515.336 617.524C515.347 617.49 515.353 617.462 515.358 617.428C516.684 617.57 518.033 617.745 519.342 617.513C520.412 617.241 521.245 616.295 521.398 615.235C526.334 614.283 528.492 608.068 525.149 604.124Z" fill="#A6A6A6"/>
<path opacity="0.6314" d="M572.297 609.79C572.183 608.26 571.152 606.866 569.843 606.096C569.957 606.181 570.093 606.288 570.229 606.39C570.098 606.271 569.957 606.169 569.809 606.073C570.013 604.963 569.537 603.727 568.501 603.138C567.209 602.475 565.65 602.792 564.245 602.651C562.545 602.504 560.761 602.628 559.282 603.546C558.2 604.305 557.055 605.337 557.01 606.747C556.902 607.235 556.936 607.711 557.049 608.17C557.01 608.209 556.959 608.243 556.919 608.283C554.471 610.697 555.157 614.487 557.735 616.51C557.831 616.595 557.933 616.663 558.03 616.742C557.826 618.612 558.732 620.59 560.71 621.338C561.792 621.955 563.067 621.655 564.24 621.513C566.036 621.309 567.872 620.828 569.231 619.575C571.43 617.383 572.495 615.02 571.64 613.037C572.234 612.068 572.54 610.929 572.297 609.79Z" fill="#A6A6A6"/>
<path opacity="0.6314" d="M515.494 141.664C514.395 141.681 513.358 141.403 512.282 141.216C509.851 140.933 507.403 140.791 504.955 140.706C501.153 140.434 497.941 139.805 493.283 139.182C488.733 138.842 484.189 138.383 479.628 138.253C476.925 137.958 474.222 137.714 471.497 137.709C469.52 137.578 467.548 137.391 465.559 137.425V137.437C462.533 137.38 460.816 141.233 463.06 143.454C463.746 144.06 464.562 144.491 465.491 144.485C465.451 144.48 465.395 144.474 465.327 144.463C465.383 144.468 465.44 144.48 465.497 144.485C465.519 144.485 465.536 144.485 465.559 144.485C465.553 144.485 465.536 144.485 465.514 144.485C466.517 144.644 467.508 144.842 468.5 145.029C470.755 145.568 473.078 145.755 475.378 146.027C475.242 146.01 475.089 145.987 474.959 145.97C475.146 145.993 475.327 146.021 475.514 146.044C475.565 146.049 475.622 146.055 475.673 146.061C475.656 146.061 475.628 146.055 475.599 146.055C477.129 146.265 478.665 146.457 480.211 146.548C483.016 146.486 485.821 146.616 488.626 146.537C491.855 146.287 495.091 146.214 498.315 145.959C500.507 145.67 502.723 145.483 504.887 145.024C507.856 144.202 510.746 143.063 513.76 142.406C514.48 142.321 515.081 141.879 515.772 141.715C515.687 141.698 515.59 141.681 515.494 141.664Z" fill="#A6A6A6"/>
<path opacity="0.6314" d="M475.395 146.032C475.48 146.044 475.554 146.055 475.616 146.061L475.531 146.049C475.486 146.044 475.44 146.038 475.395 146.032Z" fill="#A6A6A6"/>
<path opacity="0.6314" d="M465.502 144.486C465.508 144.486 465.519 144.486 465.525 144.492C465.519 144.492 465.513 144.492 465.502 144.486C465.508 144.486 465.508 144.486 465.502 144.486Z" fill="#A6A6A6"/>
<path opacity="0.6314" d="M383.571 206.501C383.322 205.617 382.874 204.846 382.222 204.189C381.486 203.05 380.506 202.149 379.287 201.492C378.454 201.141 377.622 200.789 376.789 200.438C374.262 199.685 371.7 200.183 369.258 201.022C366.488 201.86 363.791 202.948 361.196 204.217C354.022 207.725 347.943 213.272 343.228 219.675C341.699 221.737 340.684 224.117 339.557 226.412C336.928 231.84 334.848 237.517 333.256 243.33C333.148 243.648 333.08 243.971 332.99 244.288C332.99 244.288 332.99 244.288 332.99 244.294C332.344 246.622 332.684 249.201 333.902 251.28C335.03 252.849 336.304 254.453 338.237 254.991C340.016 255.864 342.225 255.994 344.141 255.45C346.373 254.68 348.396 253.399 349.557 251.286C350.742 248.974 351.971 246.679 353.206 244.39C354.498 242.039 355.892 239.749 357.326 237.489C359.093 235.251 359.955 234.168 364.352 229.958C370.182 224.332 366.998 227.182 372.93 222.785C372.987 222.746 373.038 222.706 373.094 222.666C374.505 221.862 375.944 221.108 377.412 220.422C377.933 220.218 378.443 219.992 378.942 219.737C379.055 219.686 379.174 219.635 379.287 219.584C379.282 219.578 379.276 219.567 379.27 219.561C380.455 218.91 381.508 218.071 382.222 216.887C383.9 215.21 384.245 212.813 384.472 210.546C384.528 209.096 384.228 207.753 383.571 206.501Z" fill="white"/>
<path opacity="0.6314" d="M351.002 436.227C350.957 431.592 350.764 426.957 350.702 422.322C350.583 415.715 350.447 409.103 349.71 402.53C348.945 396.887 347.982 391.238 346.905 385.651C345.291 377.645 344.877 369.406 342.769 361.502C342.118 358.057 341.976 359.298 341.086 356.114C340.304 352.578 339.749 348.986 338.996 345.444C338.803 344.442 338.576 343.439 338.395 342.436C338.367 342.164 338.474 341.892 338.514 341.625C337.726 342.594 337.811 343.949 337.483 345.11C336.718 349.513 335.477 353.876 335.245 358.352C335.352 361.292 335.29 360.295 334.882 364.069C334.593 368.721 332.094 380.467 331.76 389.017C331.618 391.011 331.511 393.006 331.409 395C330.536 399.352 329.641 403.697 329.216 408.123C328.865 411.908 328.462 415.681 327.992 419.449C327.425 423.195 326.961 426.934 326.808 430.708C326.876 433.178 327.284 435.626 327.675 438.068C327.686 438.164 327.697 438.255 327.709 438.351C328.105 443.428 329.063 447.882 333.8 450.681C339.001 453.859 346.35 451.933 349.325 446.612C349.722 445.689 350.396 444.386 350.515 443.791C351.03 441.281 351.059 438.765 351.002 436.227Z" fill="white"/>
<path opacity="0.6314" d="M382.653 570.405C381.996 569.516 381.163 568.779 380.426 567.957C380.335 567.77 379.531 566.592 379.265 566.371C376.273 563.374 376.08 563.765 373.865 561.679C373.61 561.43 373.332 561.192 373.111 560.909C372.448 560.099 371.695 559.356 370.941 558.625C369.1 556.937 366.845 555.809 364.793 554.399C364.476 554.2 364.147 554.008 363.853 553.775C363.921 553.826 364.04 553.923 364.165 554.019C362.669 552.891 362.941 552.886 360.385 550.313C359.099 548.925 357.75 548.132 357.36 547.611C356.867 546.613 354.153 541.344 352.951 538.913C352.696 540.998 352.73 543.112 352.696 545.208C352.691 546.863 352.56 548.54 352.968 550.16C353.223 551.123 353.745 551.956 354.215 552.818C354.838 554.172 355.478 555.52 356.13 556.858C357.79 560.461 361.178 562.949 364.493 564.949C364.895 565.192 365.275 565.47 365.649 565.753C366.017 566.037 366.38 566.326 366.748 566.609C366.805 566.654 366.867 566.7 366.93 566.739C367.366 567.108 367.796 567.476 368.272 567.799C369.757 568.773 371.428 569.408 373.083 570.037C373.468 570.201 373.865 570.349 374.256 570.49C374.743 570.728 375.236 570.96 375.746 571.153C375.803 571.17 375.854 571.187 375.899 571.21C376.222 571.385 376.505 571.629 376.817 571.827C377.91 572.377 379.078 572.757 380.228 573.17C381.939 573.986 383.843 573.873 385.424 572.978C386.194 572.643 386.903 572.19 387.622 571.765C385.429 571.669 383.089 571.334 382.653 570.405Z" fill="white"/>
<path d="M322.496 286.047C319.839 266.748 326.213 247.098 336.208 230.745C340.99 222.921 346.906 215.611 354.266 210.07C361.445 204.67 369.78 201.14 378.387 198.743C388.5 195.927 398.943 194.568 409.346 193.293C412.921 192.856 412.961 187.185 409.346 187.627C390.11 189.989 369.683 192.539 353.314 203.809C336.99 215.045 325.924 233.749 320.15 252.413C316.62 263.818 315.402 275.712 317.034 287.548C317.533 291.152 322.989 289.622 322.496 286.047Z" fill="black"/>
<path d="M412.287 187.842C412.366 164.77 413.097 141.544 410.644 118.563C410.258 114.976 404.592 114.936 404.978 118.563C407.431 141.544 406.7 164.77 406.621 187.842C406.609 191.491 412.275 191.497 412.287 187.842Z" fill="black"/>
<path d="M408.309 119.135C440.249 118.279 472.2 118.053 504.145 118.483C520.305 118.699 536.465 119.084 552.619 119.634C560.296 119.894 568.002 120.455 575.68 120.478C581.703 120.5 588.049 119.305 592.134 114.483C596.049 109.854 595.862 103.57 592.049 98.9353C587.947 93.9492 581.544 92.578 575.385 92.3627C559.809 91.8074 544.125 92.357 528.538 92.3797C496.542 92.425 464.551 92.4646 432.554 92.51C423.523 92.5213 414.485 92.527 405.454 92.544C399.459 92.561 392.116 92.8783 388.852 98.8503C386.03 104.018 388.393 110.664 392.546 114.364C398.088 119.299 406.122 119.169 413.074 118.818C416.701 118.636 416.723 112.97 413.074 113.152C407.573 113.429 400.32 114.075 396.02 109.86C392.631 106.534 391.997 100.771 397.204 98.9976C399.476 98.2214 401.946 98.2271 404.32 98.2101C408.083 98.1817 411.851 98.1987 415.613 98.1931C422.763 98.1817 429.914 98.1761 437.07 98.1647C465.491 98.1251 493.907 98.0854 522.328 98.0514C536.442 98.0344 550.556 98.0117 564.676 97.9947C570.858 97.9891 578.496 96.9352 584.224 99.8022C589.307 102.346 591.381 108.358 586.389 112.2C581.476 115.979 574.144 114.795 568.393 114.557C561.26 114.268 554.12 114.007 546.981 113.78C532.703 113.327 518.424 113.01 504.145 112.817C472.2 112.387 440.243 112.613 408.309 113.469C404.672 113.565 404.655 119.231 408.309 119.135Z" fill="black"/>
<path d="M539.643 123.231C513.647 123.186 487.651 123.141 461.661 123.096C452.295 123.079 441.076 122.41 433.773 129.425C426.101 136.796 427.614 148.519 428.316 158.089C428.707 163.404 428.565 169.37 431.331 174.124C433.756 178.283 438.175 180.969 442.742 182.181C448.527 183.711 454.714 183.286 460.63 183.258C467.01 183.23 473.39 183.196 479.776 183.167C492.728 183.105 505.675 183.043 518.628 182.98C529.116 182.929 541.859 184.867 549.162 175.592C552.919 170.821 554.347 164.911 554.755 158.951C555.18 152.65 555.078 145.834 553.44 139.703C552.064 134.53 549.174 129.731 544.698 126.676C542.726 125.334 539.819 123.894 537.354 123.985C534.782 124.081 533.292 126.665 534.057 128.977C535.196 132.422 540.669 130.949 539.519 127.47C539.536 127.594 539.547 127.719 539.564 127.849C539.128 128.416 538.697 128.977 538.261 129.544C538.437 129.453 538.612 129.362 538.782 129.266C538.057 129.362 537.326 129.459 536.601 129.549C546.567 131.039 548.868 142.066 549.151 150.514C549.44 159.041 549.395 171.104 540.527 175.637C536.329 177.785 531.071 177.252 526.509 177.275C521.064 177.303 515.625 177.326 510.18 177.354C499.295 177.405 488.411 177.462 477.52 177.513C472.075 177.541 466.636 177.564 461.191 177.592C456.097 177.615 450.748 178.051 445.722 177.059C441.297 176.181 436.872 173.903 435.37 169.359C433.863 164.792 434.079 159.489 433.733 154.735C433.161 146.853 432.152 136.433 440.056 131.725C447.456 127.317 457.978 128.767 466.177 128.779C490.666 128.818 515.155 128.864 539.638 128.903C543.292 128.903 543.298 123.237 539.643 123.231Z" fill="black"/>
<path d="M571.794 118.936C571.675 141.975 571.556 165.013 571.431 188.051C571.414 191.7 577.08 191.7 577.097 188.051C577.216 165.013 577.335 141.975 577.46 118.936C577.483 115.293 571.816 115.287 571.794 118.936Z" fill="black"/>
<path d="M408.955 193.786C451.768 193.78 494.587 193.848 537.4 193.99C549.661 194.03 561.917 194.075 574.178 194.132C577.827 194.149 577.827 188.482 574.178 188.465C531.365 188.284 488.547 188.171 445.734 188.137C433.472 188.126 421.217 188.125 408.955 188.125C405.312 188.12 405.306 193.786 408.955 193.786Z" fill="black"/>
<path d="M485.459 176.045C485.538 170.974 485.617 165.909 485.697 160.837C485.714 159.749 485.725 158.667 485.748 157.579C485.742 157.744 486.003 155.222 485.493 155.647C485.991 155.234 488.734 155.738 489.408 155.761C490.479 155.795 491.55 155.834 492.621 155.868C493.691 155.902 494.762 155.942 495.833 155.976C496.462 155.999 499.68 156.576 498.615 155.647C498.066 154.894 497.941 155.115 498.23 156.31C498.258 157.041 498.281 157.778 498.298 158.514C498.326 159.614 498.349 160.718 498.366 161.818C498.434 166.957 498.326 172.096 498.071 177.229C497.89 180.873 503.556 180.867 503.737 177.229C504.072 170.447 504.145 163.653 503.913 156.86C503.828 154.361 503.692 151.704 500.95 150.74C498.173 149.766 494.473 150.259 491.55 150.162C486.49 149.992 480.688 149.109 480.132 155.721C479.572 162.424 479.9 169.32 479.798 176.039C479.736 179.694 485.402 179.694 485.459 176.045Z" fill="black"/>
<path d="M503.551 161.047C505.863 161.075 508.175 161.109 510.492 161.137C514.141 161.188 514.141 155.522 510.492 155.471C508.18 155.443 505.869 155.409 503.551 155.381C499.902 155.335 499.902 161.001 503.551 161.047Z" fill="black"/>
<path d="M505.681 169.065C506.995 168.776 508.389 168.696 509.726 168.906C511.234 169.149 512.775 168.515 513.211 166.928C513.579 165.58 512.752 163.687 511.234 163.444C508.837 163.058 506.553 163.081 504.179 163.602C502.684 163.931 501.811 165.671 502.202 167.087C502.621 168.628 504.179 169.393 505.681 169.065Z" fill="black"/>
<path d="M510.299 155.846C510.299 159.897 510.293 163.948 510.293 168C510.293 169.569 511.591 170.776 513.126 170.833C515.494 170.918 519.24 171.796 521.104 169.852C522.849 168.028 522.294 164.317 522.418 162.01C522.543 159.648 523.58 155.698 522.01 153.659C520.424 151.602 516.611 152.327 514.378 152.299C510.729 152.253 510.729 157.92 514.378 157.965C515.336 157.976 516.293 157.988 517.251 157.999C517.568 158.005 517.891 158.005 518.209 158.01C519.432 158.101 519.483 158.033 518.356 157.818C517.92 157.251 517.489 156.69 517.053 156.123C517.291 157.268 516.922 158.826 516.86 159.993C516.781 161.506 516.696 163.013 516.616 164.526C516.588 165.002 516.322 166.107 516.509 166.538C516.361 167.376 516.599 167.257 517.217 166.186C518.186 165.506 518.271 165.217 517.466 165.314C516.667 164.832 514.055 165.195 513.126 165.161C514.072 166.107 515.013 167.048 515.959 167.994C515.959 163.943 515.965 159.891 515.965 155.84C515.965 152.202 510.299 152.197 510.299 155.846Z" fill="black"/>
<path d="M489.742 150.576C489.742 149.93 489.742 149.284 489.742 148.633C489.742 147.148 488.439 145.732 486.909 145.8C485.374 145.868 484.076 147.046 484.076 148.633C484.076 149.279 484.076 149.925 484.076 150.576C484.076 152.061 485.379 153.477 486.909 153.409C488.445 153.341 489.742 152.163 489.742 150.576Z" fill="black"/>
<path d="M497.397 150.497C497.578 149.754 497.76 149.018 497.941 148.276C498.292 146.836 497.482 145.137 495.963 144.791C494.502 144.457 492.858 145.227 492.479 146.768C492.297 147.511 492.116 148.247 491.935 148.99C491.584 150.429 492.394 152.129 493.912 152.474C495.374 152.808 497.017 152.032 497.397 150.497Z" fill="black"/>
<path d="M462.036 134.343C473.895 134.156 485.754 134.15 497.613 134.348C503.274 134.445 509.019 134.337 514.668 134.79C516.413 134.932 518.867 135.164 520.142 136.536C521.751 138.275 520.351 140.694 518.742 141.867C514.742 144.768 507.529 143.522 502.911 143.516C497.013 143.51 491.109 143.499 485.21 143.493C479.516 143.488 473.634 143.884 467.98 143.148C466.801 142.995 464.937 142.882 463.883 142.27C462.727 141.595 462.523 140.672 462.246 139.391C462.047 138.49 461.566 132.96 464.076 134.144C467.356 135.691 470.235 130.807 466.937 129.255C456.591 124.376 452.557 141.981 460.308 146.814C465.022 149.755 472.161 149.148 477.465 149.154C483.737 149.165 490.004 149.171 496.276 149.177C502.486 149.182 508.968 149.726 515.139 148.916C519.751 148.31 524.199 146.043 525.927 141.465C527.598 137.023 525.491 132.53 521.252 130.586C516.776 128.535 511.303 128.988 506.515 128.869C491.692 128.501 476.864 128.45 462.042 128.682C458.393 128.733 458.381 134.399 462.036 134.343Z" fill="black"/>
<path d="M566.858 194.63C586.995 193.23 607.835 196.046 625.32 206.704C632.902 211.322 639.78 217.322 644.993 224.541C650.937 232.78 654.506 242.401 657.022 252.175C660.053 263.949 661.192 276.074 660.597 288.211C660.422 291.854 666.088 291.848 666.263 288.211C666.819 276.828 665.855 265.399 663.351 254.277C661.005 243.845 657.481 233.238 651.617 224.218C640.902 207.73 623.326 196.772 604.48 191.955C592.213 188.822 579.448 188.091 566.852 188.969C563.237 189.213 563.209 194.879 566.858 194.63Z" fill="black"/>
<path d="M317.793 292.444C364.93 291.639 412.071 291.299 459.219 291.429C506.361 291.56 553.503 292.155 600.633 293.22C612.509 293.486 624.385 293.787 636.262 294.115C642.103 294.274 647.951 294.444 653.792 294.619C656.62 294.704 659.447 294.784 662.275 294.88C663.023 294.908 664.297 294.71 664.7 295.464C665.045 296.11 664.439 297.271 663.986 297.73C662.416 299.322 659.345 299.073 657.322 299.039C654.342 298.988 651.367 298.886 648.387 298.807C642.545 298.659 636.703 298.518 630.856 298.387C618.98 298.121 607.104 297.889 595.233 297.696C548.109 296.92 500.972 296.688 453.842 297.011C430.277 297.169 406.711 297.469 383.152 297.906C371.463 298.121 359.779 298.37 348.096 298.654C342.067 298.801 336.033 298.954 330.004 299.118C325.715 299.237 317.516 300.795 314.96 296.161C312.853 292.342 318.536 291.203 321 292.619C324.168 294.444 327.024 289.548 323.862 287.729C316.966 283.763 305.855 289.118 309.549 297.928C311.566 302.739 316.564 304.597 321.425 304.909C327.613 305.306 333.981 304.677 340.18 304.518C365.621 303.866 391.073 303.379 416.519 303.051C467.418 302.393 518.322 302.371 569.226 302.994C594.678 303.306 620.125 303.776 645.565 304.405C652.886 304.586 670.683 307.697 670.405 295.622C670.292 290.585 665.912 289.339 661.708 289.203C655.3 288.993 648.891 288.812 642.483 288.63C591.59 287.18 540.68 286.279 489.765 285.916C438.849 285.554 387.934 285.746 337.024 286.483C330.616 286.574 324.202 286.676 317.793 286.789C314.15 286.84 314.139 292.506 317.793 292.444Z" fill="black"/>
<path d="M316.91 306.495C316.502 354.391 316.541 402.292 317.04 450.187C317.181 463.763 317.363 477.339 317.572 490.915C317.629 494.558 323.295 494.57 323.239 490.915C322.485 443.025 322.179 395.124 322.332 347.229C322.377 333.653 322.457 320.077 322.57 306.495C322.604 302.852 316.938 302.846 316.91 306.495Z" fill="black"/>
<path d="M658.915 304.393C660.501 352.629 660.824 400.91 659.838 449.162C659.561 462.732 659.181 476.303 658.699 489.867C658.569 493.516 664.235 493.511 664.365 489.867C666.065 441.632 666.496 393.357 665.623 345.099C665.38 331.528 665.028 317.958 664.581 304.388C664.462 300.756 658.79 300.739 658.915 304.393Z" fill="black"/>
<path d="M316.49 493.748C363.813 491.675 411.188 490.893 458.556 490.904C505.936 490.91 553.316 491.692 600.69 492.694C612.719 492.949 624.754 493.221 636.783 493.493C642.608 493.629 648.438 493.76 654.263 493.896C655.645 493.93 665.482 493.306 664.819 496.383C664.53 497.726 661.345 498.247 660.331 498.4C657.815 498.774 655.158 498.536 652.625 498.542C646.58 498.548 640.54 498.559 634.494 498.565C622.782 498.582 611.076 498.593 599.364 498.61C551.582 498.672 503.805 498.729 456.023 498.791C432.226 498.82 408.434 498.854 384.636 498.882C372.738 498.899 360.839 498.91 348.94 498.927C343.087 498.933 337.228 498.944 331.375 498.95C326.803 498.956 321.38 499.754 317 498.083C315.918 497.669 314.15 496.802 314.388 495.358C314.626 493.896 316.587 493.374 317.674 494.043C320.791 495.952 323.641 491.057 320.536 489.153C313.051 484.569 304.705 494.819 311.153 501.08C313.98 503.823 318.422 504.52 322.196 504.622C328.457 504.797 334.746 504.616 341.007 504.605C366.879 504.571 392.756 504.542 418.627 504.508C469.996 504.446 521.365 504.378 572.733 504.316C598.605 504.282 624.482 504.253 650.353 504.219C655.249 504.214 660.597 504.82 665.227 502.882C668.762 501.403 671.425 498.134 670.213 494.122C668.989 490.082 664.473 488.768 660.733 488.439C654.682 487.907 648.483 488.111 642.415 487.969C591.284 486.79 540.153 485.691 489.006 485.351C437.881 485.011 386.738 485.442 335.647 487.317C329.262 487.55 322.876 487.81 316.49 488.094C312.858 488.241 312.841 493.907 316.49 493.748Z" fill="black"/>
<path d="M657.917 504.157C660.66 522.487 656.586 541.633 646.97 557.441C637.463 573.079 622.385 584.837 605.081 590.701C595.279 594.021 585.012 595.421 574.682 594.837C571.039 594.633 571.05 600.299 574.682 600.503C594.168 601.602 613.971 595.755 629.745 584.253C645.837 572.518 657.215 555.294 661.935 535.95C664.598 525.02 665.045 513.767 663.385 502.656C662.841 499.058 657.379 500.582 657.917 504.157Z" fill="black"/>
<path d="M317.221 506.157C316.365 525.19 321.731 544.403 332.338 560.24C342.883 575.986 358.34 587.806 376.126 594.271C386.302 597.971 397.147 599.761 407.969 599.597C411.612 599.54 411.624 593.874 407.969 593.931C371.519 594.475 338.18 570.949 326.927 536.205C323.782 526.487 322.428 516.362 322.887 506.157C323.051 502.508 317.385 502.52 317.221 506.157Z" fill="black"/>
<path d="M405.335 600.005C404.836 605.625 404.757 611.246 405.097 616.872C405.318 620.493 410.984 620.521 410.763 616.872C410.423 611.24 410.496 605.62 411.001 600.005C411.324 596.373 405.652 596.395 405.335 600.005Z" fill="black"/>
<path d="M400.717 600.248C448.799 600.583 496.887 600.832 544.97 601.291C558.546 601.421 572.127 601.58 585.703 601.784C589.352 601.84 589.352 596.174 585.703 596.118C537.536 595.387 489.363 595.194 441.195 594.86C427.704 594.763 414.208 594.673 400.717 594.582C397.073 594.554 397.068 600.22 400.717 600.248Z" fill="black"/>
<path d="M430.078 616.255C429.959 610.43 429.993 604.605 430.169 598.78C430.282 595.132 424.616 595.137 424.503 598.78C424.327 604.605 424.293 610.43 424.412 616.255C424.486 619.892 430.152 619.909 430.078 616.255Z" fill="black"/>
<path d="M479.169 618.436C478.756 611.875 478.829 605.319 479.39 598.769C479.702 595.137 474.03 595.154 473.724 598.769C473.163 605.319 473.095 611.875 473.503 618.436C473.73 622.063 479.396 622.085 479.169 618.436Z" fill="black"/>
<path d="M461.35 617.711C460.597 611.778 460.483 605.835 461.027 599.88C461.356 596.248 455.69 596.27 455.361 599.88C454.823 605.835 454.931 611.778 455.684 617.711C456.137 621.275 461.809 621.32 461.35 617.711Z" fill="black"/>
<path d="M509.364 616.255C508.763 610.566 508.406 604.866 508.293 599.149C508.219 595.506 502.553 595.495 502.627 599.149C502.74 604.866 503.097 610.566 503.698 616.255C504.077 619.848 509.743 619.887 509.364 616.255Z" fill="black"/>
<path d="M528.861 616.255C528.844 611.524 528.821 606.793 528.804 602.061C528.787 598.418 523.121 598.407 523.138 602.061C523.155 606.793 523.178 611.524 523.195 616.255C523.212 619.898 528.878 619.91 528.861 616.255Z" fill="black"/>
<path d="M558.41 618.794C558.681 612.833 558.551 606.889 558.007 600.945C557.679 597.342 552.013 597.308 552.341 600.945C552.879 606.889 553.015 612.833 552.743 618.794C552.573 622.443 558.24 622.431 558.41 618.794Z" fill="black"/>
<path d="M577.805 616.98C577.742 611.513 577.55 606.05 577.232 600.594C577.023 596.968 571.357 596.945 571.566 600.594C571.884 606.05 572.071 611.513 572.139 616.98C572.184 620.624 577.85 620.635 577.805 616.98Z" fill="black"/>
<path d="M584.615 616.544C552.936 616.578 521.263 616.612 489.583 616.646C473.956 616.663 458.324 616.833 442.697 616.544C435.008 616.402 427.33 616.085 419.658 615.518C412.78 615.008 405.623 614.487 399.039 616.986C393.651 619.031 388.24 623.207 386.959 629.128C385.611 635.372 390.563 640.324 395.98 642.359C402.326 644.744 409.635 644.013 416.27 643.979C424.18 643.939 432.09 643.905 440 643.866C471.265 643.713 502.531 643.565 533.796 643.413C542.646 643.367 551.503 643.327 560.353 643.282C564.688 643.259 569.016 643.242 573.351 643.22C577.215 643.203 581.38 643.588 585.165 642.631C591.528 641.027 594.1 635.1 593.772 628.981C593.466 623.343 591.318 616.34 584.74 615.853C581.102 615.586 581.119 621.252 584.74 621.519C586.797 621.672 587.528 625.083 587.828 626.669C588.275 629.055 588.462 631.956 587.437 634.222C586.236 636.885 583.465 637.378 580.819 637.497C577.584 637.644 574.326 637.548 571.09 637.565C557.152 637.633 543.213 637.701 529.28 637.769C501.216 637.905 473.152 638.041 445.093 638.177C438.124 638.211 431.155 638.245 424.186 638.279C417.602 638.313 410.944 638.642 404.371 638.256C399.561 637.973 389.56 635.384 393.175 628.533C395.832 623.496 402.037 621.371 407.363 620.895C414.026 620.295 420.82 621.337 427.478 621.694C434.424 622.063 441.382 622.227 448.334 622.295C462.267 622.437 476.212 622.329 490.144 622.318C521.631 622.284 553.123 622.25 584.609 622.216C588.264 622.21 588.27 616.544 584.615 616.544Z" fill="black"/>
</svg>
