<svg width="194" height="38" viewBox="0 0 194 38" fill="none" xmlns="http://www.w3.org/2000/svg">
<path d="M5.63517 31.5607C7.37962 31.5607 8.79377 30.1465 8.79377 28.4021V25.5337C8.79377 24.1048 9.95217 22.9464 11.3811 22.9464C13.8341 22.9464 14.5061 23.4753 15.3126 25.3644L17.1303 29.5543C17.6588 30.7725 18.8599 31.5607 20.1878 31.5607C22.5935 31.5607 24.2067 29.0897 23.239 26.8872L22.5035 25.2133C21.684 23.3337 20.9605 22.1012 18.7735 21.4106C18.6747 21.3794 18.6056 21.2883 18.6056 21.1847C18.6056 21.0683 18.693 20.9697 18.808 20.9517C22.9626 20.3014 24.6876 17.9335 24.6876 13.992C24.6876 9.04257 21.5626 6.2467 15.615 6.2467H13.2485C7.2993 6.2467 2.47656 11.0694 2.47656 17.0186V28.4021C2.47656 30.1465 3.89072 31.5607 5.63517 31.5607ZM8.79377 15.1444C8.79377 13.7568 9.91866 12.6319 11.3063 12.6319H15.5478C17.3959 12.6319 18.068 13.123 18.068 15.1255C18.068 17.2791 17.3959 17.6569 15.5478 17.6569H11.3063C9.91865 17.6569 8.79377 16.532 8.79377 15.1444Z" fill="#158315"/>
<path d="M12.7045 31.5607V22.9464H15.2918C17.7448 22.9464 18.2661 23.3242 19.0726 25.2133L20.2501 31.5607H27.5211L26.4142 25.2133C25.5741 23.2864 24.8349 22.0396 22.5163 21.3595V20.9817C26.8174 20.3772 28.5983 17.9969 28.5983 13.992C28.5983 9.04257 25.4733 6.2467 19.5257 6.2467H6.38726L5.70801 31.5607H12.7045ZM12.7045 12.6319H19.4585C21.3066 12.6319 21.9787 13.123 21.9787 15.1255C21.9787 17.2791 21.3066 17.6569 19.4585 17.6569H12.7045V12.6319Z" fill="#158315"/>
<path d="M12.8354 31.5607C14.5798 31.5607 15.994 30.1465 15.994 28.4021V25.5337C15.994 24.1048 17.1524 22.9464 18.5813 22.9464C21.0343 22.9464 21.7063 23.4753 22.5128 25.3644L24.3305 29.5543C24.859 30.7725 26.0601 31.5607 27.388 31.5607C29.7937 31.5607 31.4069 29.0897 30.4392 26.8872L29.7037 25.2133C28.8842 23.3337 28.1607 22.1012 25.9737 21.4106C25.8749 21.3794 25.8058 21.2883 25.8058 21.1847C25.8058 21.0683 25.8932 20.9697 26.0082 20.9517C30.1628 20.3014 31.8878 17.9335 31.8878 13.992C31.8878 9.04257 28.7628 6.2467 22.8152 6.2467H20.4487C14.4995 6.2467 9.67676 11.0694 9.67676 17.0186V28.4021C9.67676 30.1465 11.0909 31.5607 12.8354 31.5607ZM15.994 15.1444C15.994 13.7568 17.1189 12.6319 18.5065 12.6319H22.748C24.5961 12.6319 25.2682 13.123 25.2682 15.1255C25.2682 17.2791 24.5961 17.6569 22.748 17.6569H18.5065C17.1189 17.6569 15.994 16.532 15.994 15.1444Z" fill="#1DB51D"/>
<path d="M42.524 31.5606C48.3839 31.5606 52.0722 28.8375 52.0722 24.9768C52.0722 24.7484 51.887 24.5632 51.6585 24.5632H45.971C45.7616 24.5632 45.5918 24.733 45.5918 24.9424C45.5918 25.9765 44.9024 26.4246 42.2827 26.4246C40.0934 26.4246 39.0556 26.0552 38.6691 24.8508C38.4809 24.2646 39.0067 23.7359 39.6224 23.7359H51.1425C51.6914 23.7359 52.161 23.3237 52.1915 22.7757C52.2039 22.5532 52.21 22.3297 52.21 22.0814C52.21 16.4972 48.3839 13.4983 42.3861 13.4983C36.5951 13.4983 32.4932 16.8764 32.4932 22.5295C32.4932 29.0443 36.6296 31.5606 42.524 31.5606ZM42.2482 18.462C43.885 18.462 44.8873 18.6999 45.4381 19.3156C45.8808 19.8105 45.3338 20.4613 44.6698 20.4613H39.8904C39.2166 20.4613 38.6683 19.7936 39.1238 19.297C39.6758 18.6951 40.6512 18.462 42.2482 18.462Z" fill="#1DB51D"/>
<path d="M63.6991 31.5606C69.6279 31.5606 73.4196 28.4928 73.4196 23.8738C73.4196 23.5502 73.1573 23.2878 72.8336 23.2878H67.284C67.1126 23.2878 66.9737 23.4267 66.9737 23.598C66.9737 25.3905 65.6639 25.7352 63.5612 25.7352C61.1828 25.7352 60.0453 25.2181 60.0453 22.5295C60.0453 19.8063 61.1828 19.2893 63.5612 19.2893C65.6639 19.2893 66.9737 19.6685 66.9737 21.4609C66.9737 21.6132 67.0972 21.7367 67.2495 21.7367H72.8681C73.1727 21.7367 73.4196 21.4897 73.4196 21.1851C73.4196 16.5317 69.6279 13.4983 63.6991 13.4983C57.5289 13.4983 53.5993 16.8764 53.5993 22.5295C53.5993 28.1481 57.5289 31.5606 63.6991 31.5606Z" fill="#1DB51D"/>
<path d="M80.7698 31.5606C84.4527 31.5606 86.5789 30.0703 87.2785 27.7065C87.3035 27.6218 87.3806 27.5621 87.4688 27.5621C87.5765 27.5621 87.6639 27.6494 87.6639 27.7571V30.1387C87.6639 30.7337 88.1461 31.2159 88.741 31.2159H92.6534C93.2483 31.2159 93.7306 30.7337 93.7306 30.1387V21.323C93.7306 16.4627 90.8006 13.4983 84.7339 13.4983C78.8395 13.4983 74.9789 16.4627 74.9789 21.0817C74.9789 21.1198 75.0097 21.1507 75.0478 21.1507H81.3214C81.3975 21.1507 81.4592 21.0889 81.4592 21.0128C81.4592 19.565 82.1142 19.1514 84.2513 19.1514C86.5608 19.1514 87.3192 19.4272 87.3192 21.1851C87.3192 21.3807 87.1707 21.5443 86.9761 21.5633L80.2528 22.2192C76.3232 22.5984 74.6342 24.3564 74.6342 26.8038C74.6342 29.7682 76.8403 31.5606 80.7698 31.5606ZM81.149 26.3901C81.149 26.0109 81.3903 25.8041 81.9763 25.7352L85.9395 25.272C86.6276 25.1915 87.2394 25.8538 86.7147 26.3062C86.0528 26.8769 84.7893 27.0451 82.7002 27.0451C81.7005 27.0451 81.149 26.9416 81.149 26.3901Z" fill="#1DB51D"/>
<path d="M101.055 31.2159C101.65 31.2159 102.132 30.7337 102.132 30.1387V20.8404C102.132 19.4616 102.649 18.9446 104.407 18.9446C106.096 18.9446 106.647 19.4616 106.647 20.9094V21.8659C106.647 22.4608 107.13 22.9431 107.725 22.9431H112.051C112.646 22.9431 113.128 22.4608 113.128 21.8659V19.4961C113.128 16.0146 111.611 13.4983 107.785 13.4983C104.401 13.4983 102.612 15.4585 102.091 18.2372C102.074 18.3268 101.996 18.3931 101.905 18.3931C101.802 18.3931 101.718 18.3094 101.718 18.2063V14.9202C101.718 14.3253 101.236 13.843 100.641 13.843H96.7287C96.1338 13.843 95.6515 14.3253 95.6515 14.9202V30.1387C95.6515 30.7337 96.1338 31.2159 96.7287 31.2159H101.055Z" fill="#1DB51D"/>
<path d="M119.905 31.2159C120.5 31.2159 120.983 30.7337 120.983 30.1387V22.2537C120.983 20.0132 121.672 19.2893 124.533 19.2893C127.36 19.2893 128.256 20.0476 128.256 22.4605V30.1387C128.256 30.7337 128.738 31.2159 129.333 31.2159H133.659C134.254 31.2159 134.736 30.7337 134.736 30.1387V20.0821C134.736 16.3249 132.53 13.4983 127.842 13.4983C123.274 13.4983 121.364 16.1222 120.936 18.9574C120.922 19.0485 120.845 19.1169 120.753 19.1169C120.651 19.1169 120.569 19.0347 120.569 18.9333V14.9202C120.569 14.3253 120.087 13.843 119.492 13.843H115.579C114.985 13.843 114.502 14.3253 114.502 14.9202V30.1387C114.502 30.7337 114.985 31.2159 115.579 31.2159H119.905Z" fill="#1DB51D"/>
<path d="M142.271 31.5606C145.953 31.5606 148.08 30.0703 148.779 27.7065C148.804 27.6218 148.881 27.5621 148.97 27.5621C149.077 27.5621 149.165 27.6494 149.165 27.7571V30.1387C149.165 30.7337 149.647 31.2159 150.242 31.2159H154.154C154.749 31.2159 155.231 30.7337 155.231 30.1387V21.323C155.231 16.4627 152.301 13.4983 146.235 13.4983C140.34 13.4983 136.48 16.4627 136.48 21.0817C136.48 21.1198 136.511 21.1507 136.549 21.1507H142.822C142.898 21.1507 142.96 21.0889 142.96 21.0128C142.96 19.565 143.615 19.1514 145.752 19.1514C148.062 19.1514 148.82 19.4272 148.82 21.1851C148.82 21.3807 148.672 21.5443 148.477 21.5633L141.754 22.2192C137.824 22.5984 136.135 24.3564 136.135 26.8038C136.135 29.7682 138.341 31.5606 142.271 31.5606ZM142.65 26.3901C142.65 26.0109 142.891 25.8041 143.477 25.7352L147.44 25.272C148.128 25.1915 148.74 25.8538 148.215 26.3062C147.554 26.8769 146.29 27.0451 144.201 27.0451C143.201 27.0451 142.65 26.9416 142.65 26.3901Z" fill="#1DB51D"/>
<path d="M169.07 31.2159C169.665 31.2159 170.148 30.7337 170.148 30.1387V26.4677C170.148 25.8728 169.665 25.3905 169.07 25.3905H167.045C165.563 25.3905 165.149 25.0458 165.149 23.667V20.2286C165.149 19.6337 165.632 19.1514 166.227 19.1514H169.07C169.665 19.1514 170.148 18.6691 170.148 18.0742V14.9202C170.148 14.3253 169.665 13.843 169.07 13.843H166.227C165.632 13.843 165.149 13.3607 165.149 12.7658V11.9213C165.149 11.3264 164.667 10.8441 164.072 10.8441H159.746C159.151 10.8441 158.669 11.3264 158.669 11.9213V12.7658C158.669 13.3607 158.187 13.843 157.592 13.843H157.195C156.6 13.843 156.118 14.3253 156.118 14.9202V18.0742C156.118 18.6691 156.6 19.1514 157.195 19.1514H157.592C158.187 19.1514 158.669 19.6337 158.669 20.2286V24.5977C158.669 29.1133 161.254 31.2159 165.597 31.2159H169.07Z" fill="#1DB51D"/>
<path d="M181.38 31.5606C187.24 31.5606 190.929 28.8375 190.929 24.9768C190.929 24.7484 190.743 24.5632 190.515 24.5632H184.827C184.618 24.5632 184.448 24.733 184.448 24.9424C184.448 25.9765 183.759 26.4246 181.139 26.4246C178.95 26.4246 177.912 26.0552 177.526 24.8508C177.337 24.2646 177.863 23.7359 178.479 23.7359H189.999C190.548 23.7359 191.017 23.3237 191.048 22.7757C191.06 22.5532 191.067 22.3297 191.067 22.0814C191.067 16.4972 187.24 13.4983 181.243 13.4983C175.452 13.4983 171.35 16.8764 171.35 22.5295C171.35 29.0443 175.486 31.5606 181.38 31.5606ZM181.105 18.462C182.741 18.462 183.744 18.6999 184.295 19.3156C184.737 19.8105 184.19 20.4613 183.526 20.4613H178.747C178.073 20.4613 177.525 19.7936 177.98 19.297C178.532 18.6951 179.508 18.462 181.105 18.462Z" fill="#1DB51D"/>
<path d="M7.78516 2.80276C7.91412 3.02619 8.2836 3.22129 8.48461 3.36251C8.69514 3.51043 8.88804 3.66417 9.12462 3.76011C9.38115 3.86415 9.55927 4.16242 9.81843 4.284M15.2929 0.825562C15.2299 0.96203 15.2746 1.25146 15.2812 1.41692C15.2881 1.59023 15.2852 1.75317 15.3285 1.93188C15.3754 2.12566 15.2936 2.31179 15.3327 2.51132M22.1754 3.1856C22.0149 3.19285 21.7119 3.404 21.5346 3.50387C21.349 3.60847 21.1725 3.69651 20.9886 3.84411C20.7893 4.00415 20.5713 4.01859 20.3641 4.17323" stroke="#2A1C02" stroke-width="1.65106" stroke-linecap="round"/>
</svg>
