<svg width="147" height="158" viewBox="0 0 147 158" fill="none" xmlns="http://www.w3.org/2000/svg">
<g clip-path="url(#clip0_486_21682)">
<path d="M15.1133 154.961C23.4601 154.961 30.2265 148.195 30.2265 139.848V126.124C30.2265 119.286 35.7693 113.744 42.6066 113.744C54.3435 113.744 57.559 116.275 61.4177 125.314L70.1153 145.362C72.6439 151.19 78.3911 154.961 84.7445 154.961C96.2552 154.961 103.974 143.138 99.3439 132.6L95.8246 124.591C91.9037 115.597 88.4418 109.7 77.9775 106.396C77.5046 106.246 77.1741 105.81 77.1741 105.314C77.1741 104.757 77.5922 104.286 78.1425 104.2C98.0216 101.088 106.275 89.7583 106.275 70.8991C106.275 47.217 91.3227 33.8394 62.8648 33.8394H51.5413C23.0758 33.8394 0 56.9152 0 85.3807V139.848C0 148.195 6.76644 154.961 15.1133 154.961ZM30.2265 76.4129C30.2265 69.7734 35.6089 64.391 42.2484 64.391H62.5432C71.3861 64.391 74.6017 66.7412 74.6017 76.3225C74.6017 86.6269 71.3861 88.4347 62.5432 88.4347H42.2484C35.6089 88.4347 30.2265 83.0523 30.2265 76.4129Z" fill="#158315"/>
<path d="M48.9415 154.961V113.744H61.3215C73.0584 113.744 75.5528 115.552 79.4115 124.591L85.0456 154.961H119.836L114.539 124.591C110.52 115.371 106.983 109.405 95.8891 106.151V104.343C116.469 101.451 124.99 90.0617 124.99 70.8991C124.99 47.217 110.038 33.8394 81.5797 33.8394H18.7149L15.4648 154.961H48.9415ZM48.9415 64.391H81.2581C90.101 64.391 93.3166 66.7412 93.3166 76.3225C93.3166 86.6269 90.101 88.4347 81.2581 88.4347H48.9415V64.391Z" fill="#158315"/>
<path d="M49.5635 154.961C57.9103 154.961 64.6767 148.195 64.6767 139.848V126.124C64.6767 119.286 70.2195 113.744 77.0567 113.744C88.7936 113.744 92.0092 116.275 95.8679 125.314L104.566 145.362C107.094 151.19 112.841 154.961 119.195 154.961C130.705 154.961 138.425 143.138 133.794 132.6L130.275 124.591C126.354 115.597 122.892 109.7 112.428 106.396C111.955 106.246 111.624 105.81 111.624 105.314C111.624 104.757 112.042 104.286 112.593 104.2C132.472 101.088 140.725 89.7583 140.725 70.8991C140.725 47.217 125.773 33.8394 97.315 33.8394H85.9915C57.526 33.8394 34.4502 56.9152 34.4502 85.3807V139.848C34.4502 148.195 41.2166 154.961 49.5635 154.961ZM64.6767 76.4129C64.6767 69.7734 70.0591 64.391 76.6985 64.391H96.9934C105.836 64.391 109.052 66.7412 109.052 76.3225C109.052 86.6269 105.836 88.4347 96.9934 88.4347H76.6986C70.0591 88.4347 64.6767 83.0523 64.6767 76.4129Z" fill="#1DB51D"/>
<path d="M25.4014 13.4107C26.0184 14.4798 27.7863 15.4133 28.7481 16.089C29.7555 16.7967 30.6784 17.5324 31.8104 17.9914C33.0379 18.4892 33.8901 19.9164 35.1302 20.4981M61.3243 3.9502C61.0228 4.60317 61.2368 5.98801 61.2683 6.77973C61.3013 7.60895 61.2873 8.38862 61.4946 9.24369C61.7193 10.1709 61.3278 11.0615 61.515 12.0162M94.2557 15.2425C93.488 15.2772 92.0378 16.2875 91.1897 16.7653C90.3015 17.2658 89.4571 17.6871 88.5773 18.3933C87.6233 19.1591 86.5804 19.2282 85.5888 19.9681" stroke="#2A1C02" stroke-width="7.9" stroke-linecap="round"/>
</g>
<defs>
<clipPath id="clip0_486_21682">
<rect width="147" height="158" fill="white"/>
</clipPath>
</defs>
</svg>
