<svg width="235" height="45" viewBox="0 0 235 45" fill="none" xmlns="http://www.w3.org/2000/svg">
<path d="M6.82614 38.2307C8.93926 38.2307 10.6523 36.5177 10.6523 34.4046V30.93C10.6523 29.1991 12.0555 27.7959 13.7865 27.7959C16.7578 27.7959 17.5719 28.4366 18.5488 30.7249L20.7507 35.8004C21.3909 37.2759 22.8459 38.2307 24.4543 38.2307C27.3684 38.2307 29.3226 35.2375 28.1503 32.5696L27.2594 30.5419C26.2668 28.265 25.3903 26.7721 22.7411 25.9356C22.6214 25.8977 22.5378 25.7874 22.5378 25.6619C22.5378 25.5209 22.6436 25.4014 22.7829 25.3796C27.8156 24.5919 29.9051 21.7236 29.9051 16.9491C29.9051 10.9536 26.1197 7.56689 18.9151 7.56689H16.0484C8.84198 7.56689 3 13.4089 3 20.6153V34.4046C3 36.5177 4.71302 38.2307 6.82614 38.2307ZM10.6523 18.345C10.6523 16.6641 12.0149 15.3015 13.6958 15.3015H18.8337C21.0724 15.3015 21.8865 15.8965 21.8865 18.3221C21.8865 20.9308 21.0724 21.3885 18.8337 21.3885H13.6958C12.0149 21.3885 10.6523 20.0259 10.6523 18.345Z" fill="#C6D8C6"/>
<path d="M15.3896 38.2307V27.7959H18.5238C21.4952 27.7959 22.1267 28.2535 23.1036 30.5419L24.5299 38.2307H33.3376L31.9967 30.5419C30.9791 28.2078 30.0837 26.6975 27.2751 25.8737V25.416C32.4852 24.6837 34.6425 21.8004 34.6425 16.9491C34.6425 10.9536 30.857 7.56689 23.6525 7.56689H7.73736L6.91455 38.2307H15.3896ZM15.3896 15.3015H23.5711C25.8098 15.3015 26.6239 15.8965 26.6239 18.3221C26.6239 20.9308 25.8098 21.3885 23.5711 21.3885H15.3896V15.3015Z" fill="#C6D8C6"/>
<path d="M15.5481 38.2307C17.6612 38.2307 19.3742 36.5177 19.3742 34.4046V30.93C19.3742 29.1991 20.7774 27.7959 22.5084 27.7959C25.4798 27.7959 26.2938 28.4366 27.2707 30.7249L29.4726 35.8004C30.1128 37.2759 31.5678 38.2307 33.1762 38.2307C36.0903 38.2307 38.0445 35.2375 36.8723 32.5696L35.9813 30.5419C34.9887 28.265 34.1123 26.7721 31.4631 25.9356C31.3433 25.8977 31.2597 25.7874 31.2597 25.6619C31.2597 25.5209 31.3655 25.4014 31.5048 25.3796C36.5375 24.5919 38.627 21.7236 38.627 16.9491C38.627 10.9536 34.8416 7.56689 27.6371 7.56689H24.7704C17.5639 7.56689 11.7219 13.4089 11.7219 20.6153V34.4046C11.7219 36.5177 13.4349 38.2307 15.5481 38.2307ZM19.3742 18.345C19.3742 16.6641 20.7368 15.3015 22.4177 15.3015H27.5556C29.7943 15.3015 30.6084 15.8965 30.6084 18.3221C30.6084 20.9308 29.7943 21.3885 27.5556 21.3885H22.4177C20.7368 21.3885 19.3742 20.0259 19.3742 18.345Z" fill="white"/>
<path d="M51.5103 38.2305C58.6087 38.2305 63.0765 34.9318 63.0765 30.2553C63.0765 29.9786 62.8521 29.7542 62.5754 29.7542H55.6858C55.4322 29.7542 55.2265 29.9599 55.2265 30.2135C55.2265 31.4662 54.3914 32.009 51.218 32.009C48.5661 32.009 47.3089 31.5616 46.8407 30.1027C46.6128 29.3925 47.2498 28.7521 47.9956 28.7521H61.9503C62.6152 28.7521 63.184 28.2528 63.221 27.5889C63.236 27.3195 63.2435 27.0487 63.2435 26.7479C63.2435 19.9836 58.6087 16.3509 51.3433 16.3509C44.3285 16.3509 39.3596 20.4429 39.3596 27.2907C39.3596 35.1824 44.3702 38.2305 51.5103 38.2305ZM51.1763 22.3636C53.1589 22.3636 54.3731 22.6518 55.0403 23.3976C55.5765 23.9971 54.9139 24.7854 54.1096 24.7854H48.3202C47.504 24.7854 46.8399 23.9766 47.3916 23.3751C48.0602 22.646 49.2418 22.3636 51.1763 22.3636Z" fill="white"/>
<path d="M77.1606 38.2305C84.3425 38.2305 88.9355 34.5143 88.9355 28.9191C88.9355 28.5271 88.6177 28.2093 88.2257 28.2093H81.5031C81.2956 28.2093 81.1273 28.3775 81.1273 28.5851C81.1273 30.7563 79.5406 31.1739 76.9936 31.1739C74.1125 31.1739 72.7346 30.5476 72.7346 27.2907C72.7346 23.992 74.1125 23.3657 76.9936 23.3657C79.5406 23.3657 81.1273 23.825 81.1273 25.9963C81.1273 26.1808 81.2769 26.3303 81.4614 26.3303H88.2674C88.6364 26.3303 88.9355 26.0312 88.9355 25.6622C88.9355 20.0253 84.3425 16.3509 77.1606 16.3509C69.6865 16.3509 64.9264 20.4429 64.9264 27.2907C64.9264 34.0967 69.6865 38.2305 77.1606 38.2305Z" fill="white"/>
<path d="M97.8391 38.2305C102.3 38.2305 104.876 36.4252 105.723 33.5618C105.754 33.4593 105.847 33.3869 105.954 33.3869C106.084 33.3869 106.19 33.4927 106.19 33.6231V36.5081C106.19 37.2287 106.774 37.8129 107.495 37.8129H112.234C112.955 37.8129 113.539 37.2287 113.539 36.5081V25.8293C113.539 19.9418 109.99 16.3509 102.641 16.3509C95.5008 16.3509 90.8243 19.9418 90.8243 25.537C90.8243 25.5831 90.8617 25.6205 90.9078 25.6205H98.5072C98.5994 25.6205 98.6742 25.5457 98.6742 25.4535C98.6742 23.6998 99.4676 23.1987 102.056 23.1987C104.854 23.1987 105.773 23.5327 105.773 25.6622C105.773 25.8991 105.593 26.0973 105.357 26.1203L97.2128 26.9149C92.4527 27.3742 90.4067 29.5037 90.4067 32.4683C90.4067 36.0592 93.079 38.2305 97.8391 38.2305ZM98.2984 31.9672C98.2984 31.5079 98.5907 31.2574 99.3005 31.1739L104.101 30.6128C104.935 30.5153 105.676 31.3176 105.04 31.8656C104.239 32.5568 102.708 32.7606 100.177 32.7606C98.9665 32.7606 98.2984 32.6353 98.2984 31.9672Z" fill="white"/>
<path d="M122.411 37.8129C123.132 37.8129 123.716 37.2287 123.716 36.5081V25.2447C123.716 23.5745 124.342 22.9482 126.472 22.9482C128.518 22.9482 129.186 23.5745 129.186 25.3282V26.4869C129.186 27.2075 129.77 27.7917 130.491 27.7917H135.731C136.451 27.7917 137.036 27.2075 137.036 26.4869V23.6162C137.036 19.399 135.198 16.3509 130.564 16.3509C126.464 16.3509 124.297 18.7253 123.666 22.0912C123.646 22.1998 123.551 22.2801 123.441 22.2801C123.316 22.2801 123.215 22.1788 123.215 22.0538V18.0733C123.215 17.3526 122.631 16.7684 121.91 16.7684H117.171C116.45 16.7684 115.866 17.3526 115.866 18.0733V36.5081C115.866 37.2287 116.45 37.8129 117.171 37.8129H122.411Z" fill="white"/>
<path d="M145.246 37.8129C145.966 37.8129 146.551 37.2287 146.551 36.5081V26.9566C146.551 24.2426 147.386 23.3657 150.851 23.3657C154.275 23.3657 155.361 24.2843 155.361 27.2072V36.5081C155.361 37.2287 155.945 37.8129 156.666 37.8129H161.906C162.627 37.8129 163.211 37.2287 163.211 36.5081V24.3261C163.211 19.7748 160.538 16.3509 154.86 16.3509C149.327 16.3509 147.012 19.5293 146.494 22.9637C146.478 23.0741 146.384 23.1569 146.272 23.1569C146.149 23.1569 146.049 23.0574 146.049 22.9346V18.0733C146.049 17.3526 145.465 16.7684 144.745 16.7684H140.005C139.285 16.7684 138.701 17.3526 138.701 18.0733V36.5081C138.701 37.2287 139.285 37.8129 140.005 37.8129H145.246Z" fill="white"/>
<path d="M172.338 38.2305C176.799 38.2305 179.374 36.4252 180.222 33.5618C180.252 33.4593 180.345 33.3869 180.452 33.3869C180.583 33.3869 180.689 33.4927 180.689 33.6231V36.5081C180.689 37.2287 181.273 37.8129 181.993 37.8129H186.733C187.453 37.8129 188.037 37.2287 188.037 36.5081V25.8293C188.037 19.9418 184.488 16.3509 177.139 16.3509C169.999 16.3509 165.323 19.9418 165.323 25.537C165.323 25.5831 165.36 25.6205 165.406 25.6205H173.006C173.098 25.6205 173.173 25.5457 173.173 25.4535C173.173 23.6998 173.966 23.1987 176.555 23.1987C179.352 23.1987 180.271 23.5327 180.271 25.6622C180.271 25.8991 180.091 26.0973 179.855 26.1203L171.711 26.9149C166.951 27.3742 164.905 29.5037 164.905 32.4683C164.905 36.0592 167.577 38.2305 172.338 38.2305ZM172.797 31.9672C172.797 31.5079 173.089 31.2574 173.799 31.1739L178.6 30.6128C179.433 30.5153 180.174 31.3176 179.539 31.8656C178.737 32.5568 177.206 32.7606 174.676 32.7606C173.465 32.7606 172.797 32.6353 172.797 31.9672Z" fill="white"/>
<path d="M204.801 37.8129C205.522 37.8129 206.106 37.2287 206.106 36.5081V32.0612C206.106 31.3405 205.522 30.7563 204.801 30.7563H202.348C200.552 30.7563 200.051 30.3388 200.051 28.6686V24.5035C200.051 23.7829 200.636 23.1987 201.356 23.1987H204.801C205.522 23.1987 206.106 22.6145 206.106 21.8939V18.0733C206.106 17.3526 205.522 16.7684 204.801 16.7684H201.356C200.636 16.7684 200.051 16.1842 200.051 15.4636V14.4406C200.051 13.7199 199.467 13.1357 198.747 13.1357H193.506C192.786 13.1357 192.201 13.7199 192.201 14.4406V15.4636C192.201 16.1842 191.617 16.7684 190.897 16.7684H190.416C189.696 16.7684 189.112 17.3526 189.112 18.0733V21.8939C189.112 22.6145 189.696 23.1987 190.416 23.1987H190.897C191.617 23.1987 192.201 23.7829 192.201 24.5035V29.796C192.201 35.2659 195.333 37.8129 200.594 37.8129H204.801Z" fill="white"/>
<path d="M219.713 38.2305C226.811 38.2305 231.279 34.9318 231.279 30.2553C231.279 29.9786 231.055 29.7542 230.778 29.7542H223.888C223.635 29.7542 223.429 29.9599 223.429 30.2135C223.429 31.4662 222.594 32.009 219.42 32.009C216.769 32.009 215.511 31.5616 215.043 30.1027C214.815 29.3925 215.452 28.7521 216.198 28.7521H230.153C230.818 28.7521 231.386 28.2528 231.423 27.5889C231.438 27.3195 231.446 27.0487 231.446 26.7479C231.446 19.9836 226.811 16.3509 219.546 16.3509C212.531 16.3509 207.562 20.4429 207.562 27.2907C207.562 35.1824 212.573 38.2305 219.713 38.2305ZM219.379 22.3636C221.361 22.3636 222.576 22.6518 223.243 23.3976C223.779 23.9971 223.116 24.7854 222.312 24.7854H216.523C215.706 24.7854 215.042 23.9766 215.594 23.3751C216.263 22.646 217.444 22.3636 219.379 22.3636Z" fill="white"/>
<path d="M9.43066 3.39506C9.58689 3.66571 10.0344 3.90205 10.2779 4.07311C10.533 4.25228 10.7666 4.43852 11.0532 4.55474C11.364 4.68077 11.5797 5.04207 11.8937 5.18935M18.5251 1C18.4487 1.16531 18.5029 1.5159 18.5109 1.71634C18.5192 1.92627 18.5157 2.12365 18.5682 2.34013C18.6251 2.57486 18.526 2.80033 18.5733 3.04203M26.8621 3.8588C26.6678 3.8676 26.3006 4.12337 26.086 4.24434C25.8611 4.37105 25.6473 4.4777 25.4246 4.65648C25.183 4.85035 24.919 4.86784 24.668 5.05516" stroke="white" stroke-width="2" stroke-linecap="round"/>
</svg>
