<svg width="74" height="86" viewBox="0 0 74 86" fill="none" xmlns="http://www.w3.org/2000/svg">
<path d="M58.6738 10.5184C55.8613 13.6995 56.705 17.6451 56.5082 21.8501C56.549 23.7844 56.4456 25.719 56.1988 27.6388C55.3831 25.0448 54.4831 22.3143 53.3862 19.7203C53.3862 16.6211 53.2596 12.7574 53.0346 9.83579C52.7252 5.65808 51.6283 -0.212519 47.1704 0.00592309C43.8797 0.183407 42.9515 3.0914 43.4578 5.95845C44.1328 9.57639 46.7204 12.0475 49.3361 15.0921C50.5953 16.4759 51.7513 17.945 52.7956 19.4882C52.894 19.6657 53.2878 20.676 53.3581 20.8535V20.9217C54.1034 22.8058 54.7644 24.7991 55.3831 26.7241C54.1034 24.2939 52.2752 21.1948 50.8549 19.0376C48.5204 15.5289 43.725 10.969 40.0827 14.7507C37.3967 17.5495 39.6889 20.6623 41.6999 22.7239C44.2453 25.3452 47.1141 25.7957 50.8971 26.6695C52.5721 26.9022 54.2052 27.3617 55.7488 28.0348C55.8331 28.0348 55.8894 28.3487 55.9035 28.4307C55.9133 28.494 55.9133 28.5585 55.9035 28.6218H56.016C57.038 32.2663 57.7993 35.975 58.2942 39.7214C58.2942 40.0081 58.2942 40.3084 58.3785 40.5951C56.4941 38.0694 54.4269 35.4071 52.3737 33.0725C49.758 30.0826 44.3438 26.5739 41.3343 30.697C39.1264 33.7415 41.4749 36.4038 43.6969 38.0694C46.5094 40.1856 49.4205 40.1583 53.1753 40.3085C54.0894 40.3085 57.2394 40.0627 58.3645 40.7726V40.8682L58.252 40.9911H58.3785C58.5051 43.0144 58.5051 45.0432 58.3785 47.0665C58.0973 49.1007 57.2676 51.1623 56.7754 53.1146C55.9033 50.7392 54.6965 48.4924 53.1893 46.4385C50.9533 43.3393 46.0735 39.3118 42.4171 42.4383C39.7171 44.7592 41.3202 47.6263 43.1906 49.4967C45.5672 51.8586 48.4361 52.0634 51.9518 52.6504C53.5379 52.7378 55.1042 53.0364 56.6066 53.5378C55.805 56.5687 54.7925 59.5587 54.0612 62.6305C52.8669 60.4447 51.4081 58.4051 49.7158 56.5551C47.1423 53.9474 42.0656 52.0087 38.9858 55.258C36.7076 57.6609 38.128 60.1594 40.2515 61.5929C42.9234 63.395 45.5813 62.9581 49.0408 62.767C49.8705 62.767 52.9081 62.1936 53.9628 62.767C52.9732 66.225 52.6115 69.8239 52.894 73.4024C52.8528 73.3898 52.8086 73.3898 52.7674 73.4024C52.7674 73.4024 52.8518 73.4024 52.8799 73.4024C52.9081 73.4024 53.0628 73.7028 52.8799 73.5936C50.7283 72.0098 49.533 70.1531 47.2548 68.2554C44.4422 65.989 39.4077 64.8285 36.7498 68.4874C34.781 71.218 37.0311 73.5389 39.3655 74.5219C42.3187 75.7643 44.6813 75.1363 48.0564 74.3717C48.9001 74.1806 51.7268 73.2522 52.894 73.6891C53.895 77.8067 55.4308 81.7841 57.4644 85.5259L57.8019 85.2392C55.7863 81.5429 54.2826 77.6041 53.33 73.5253C55.8939 74.2373 58.5068 74.7712 61.1489 75.1226C65.1428 75.4776 70.9929 74.4537 72.132 69.6616C72.9899 66.1529 70.0929 64.8968 67.1678 65.2108C63.4693 65.6204 60.9239 67.9414 57.6473 70.2486C56.3322 71.4042 54.8834 72.4076 53.33 73.2386C52.7112 69.7572 53.5831 66.2621 54.3706 62.767C56.8924 63.4793 59.463 64.0177 62.063 64.378C66.0147 64.8149 71.7805 63.3268 72.9055 58.6166C73.7211 55.1489 71.0633 53.5925 68.1804 54.0157C64.5381 54.5618 62.4849 56.8964 59.2786 59.2583C58.5192 59.8317 55.805 62.2892 54.455 62.6032C55.13 59.7361 56.1285 56.7462 56.916 53.8518C56.6628 53.8518 56.466 53.8519 57.4082 53.6744C60.1547 53.4265 62.8802 52.9931 65.5647 52.3774C68.8132 51.4626 74.4665 47.558 73.3414 42.8205C72.5117 39.2709 69.5023 38.8886 66.9428 40.6907C63.6943 42.9571 63.174 45.8378 60.9802 49.2373C60.3895 50.1247 58.5332 53.333 57.0004 53.7699C57.5207 51.6128 58.491 49.3055 58.8004 47.1621C58.941 45.08 58.941 42.9912 58.8004 40.9092C61.3189 40.3926 63.778 39.6334 66.1412 38.6428C70.1632 36.8134 73.8336 32.3626 72.3711 27.6525C71.2883 24.1711 68.1522 23.7069 65.5084 25.6728C62.2177 28.1713 61.9646 31.4615 60.5583 35.3525C60.1452 37.0612 59.5465 38.7225 58.7723 40.3085C58.7371 40.1097 58.7136 39.9091 58.702 39.7077C58.2035 35.8791 57.4138 32.0915 56.3394 28.3761C58.5508 26.8295 60.6728 25.1659 62.6958 23.3928C66.0287 20.321 68.5601 14.6415 65.9162 10.614C63.9896 7.58311 60.8395 8.00634 58.6738 10.5184Z" fill="#678B28"/>
<path d="M10.466 42.8477C9.7488 45.2779 11.1973 47.2848 12.1676 49.674C12.6932 50.7368 13.135 51.8367 13.4895 52.9643C12.3645 51.7219 11.1692 50.4249 9.91755 49.2372C9.13003 47.5169 8.06125 45.4008 7.10498 43.7761C5.86744 41.5371 3.74394 38.5472 1.32513 39.6803C-0.460861 40.5677 -0.235851 42.4108 0.79074 43.8853C2.09859 45.7284 4.16583 46.4793 6.4159 47.5306C7.47277 47.9935 8.49279 48.532 9.46754 49.1416C9.56598 49.2098 10.0441 49.674 10.1285 49.7423C11.0285 50.6161 11.9286 51.5581 12.7442 52.4728C11.3379 51.4352 9.60817 50.1519 8.25813 49.2917C6.06432 47.9265 2.22515 46.5612 1.22669 49.5239C0.439164 51.7219 2.52048 52.8961 4.1799 53.6196C6.26121 54.4525 7.96282 54.0156 10.2973 53.6196C11.2955 53.3513 12.3272 53.218 13.363 53.2237C13.363 53.2237 13.5177 53.3739 13.5317 53.4149C13.5413 53.4553 13.5413 53.4973 13.5317 53.5377C15.0328 55.3167 16.4093 57.1913 17.6521 59.1489L17.9193 59.6131C16.2177 58.6711 14.3896 57.6881 12.6458 56.8826C10.4238 55.8587 6.51434 55.217 5.90963 58.2479C5.45962 60.4869 7.44249 61.388 9.11597 61.7839C11.2113 62.2754 12.8286 61.5518 14.9521 60.7326C15.8785 60.2126 16.9009 59.8741 17.9615 59.736V59.8316H18.0318C18.6196 60.9317 19.1454 62.062 19.6069 63.2174C19.892 64.4573 20.1126 65.7104 20.2678 66.9719C19.1689 65.8622 17.92 64.9023 16.5552 64.1185C14.5161 62.9444 10.7754 61.8795 9.5238 64.5145C8.60971 66.4531 10.241 67.6545 11.7598 68.2416C13.6864 68.9788 15.3318 68.4054 17.385 67.873C18.2876 67.5368 19.2343 67.3254 20.1975 67.245C20.535 69.1154 20.7319 71.0267 21.1116 72.9108C19.8875 71.9825 18.551 71.203 17.1318 70.5898C15.0505 69.757 11.7176 69.9072 10.8457 72.4602C10.1988 74.3443 11.6192 75.3956 13.1661 75.6823C15.1208 76.0373 16.4849 75.1498 18.3553 74.2078C18.8053 73.9757 20.3663 72.9517 21.1679 73.0063C21.5019 75.1692 22.2255 77.2581 23.3054 79.1774C23.3054 79.1774 23.4742 79.3002 23.3054 79.2729C21.7023 78.9043 20.4928 78.167 18.8053 77.6619C16.6959 77.0612 13.5599 77.6619 13.0255 80.3924C12.6176 82.372 14.4317 83.1229 16.0209 83.1229C17.9897 83.1229 19.1287 82.1809 20.8163 80.9386C21.2382 80.6382 22.5742 79.4368 23.3336 79.3958C24.9639 81.4391 26.854 83.274 28.9587 84.8569L29.0853 84.6111C27.0106 83.0361 25.1614 81.1995 23.5867 79.15C25.1939 78.93 26.7825 78.597 28.34 78.1534C30.6603 77.3752 33.6276 75.4229 33.051 72.4739C32.6291 70.3031 30.7025 70.3168 29.1556 71.2042C27.2009 72.3237 26.343 74.1941 25.1477 76.3103C24.717 77.2799 24.1694 78.1965 23.5164 79.0408C22.4191 77.1654 21.703 75.1029 21.4069 72.9654C22.9896 72.7503 24.5545 72.4264 26.0899 71.9961C28.3962 71.2861 31.2369 69.0607 30.6463 66.18C30.2103 64.0502 28.3259 63.8181 26.8352 64.8148C24.9508 66.0025 24.4164 67.7911 23.2351 69.8799C22.7754 70.9657 22.1651 71.9854 21.421 72.9108C21.0554 71.1496 20.8444 69.2519 20.535 67.4498C20.3944 67.4498 20.2819 67.5453 20.7601 67.2313C22.2316 66.4199 23.6415 65.5074 24.9789 64.5008C26.554 63.2174 28.6915 59.6814 26.8352 57.2785C25.4289 55.5173 23.6851 56.0225 22.7288 57.6471C21.5054 59.695 21.9554 61.4153 21.6038 63.8318C21.5054 64.4735 21.3085 66.7125 20.5632 67.3269C20.296 65.9616 20.2538 64.4871 19.86 63.2311C19.407 62.0392 18.8665 60.8803 18.2428 59.7633C19.5105 58.8681 20.6835 57.8528 21.7445 56.7324C23.5164 54.7392 24.4023 51.3669 22.3913 49.1143C22.1328 48.7556 21.7777 48.4729 21.3649 48.2968C20.9521 48.1208 20.4974 48.0582 20.0504 48.116C19.6034 48.1737 19.1814 48.3496 18.8304 48.6244C18.4794 48.8991 18.2129 49.2622 18.06 49.674C16.8787 51.8584 17.5818 53.7698 17.7928 56.2546C18.0058 57.302 18.1048 58.3682 18.0881 59.4357C18.0881 59.3674 17.9615 59.2309 17.8912 59.1216C16.6223 57.1185 15.2127 55.2025 13.6724 53.3875C14.4989 51.9952 15.2453 50.5595 15.9083 49.087C16.9771 46.5749 16.9209 42.8068 14.4177 41.1957C12.6739 39.9261 11.0285 40.9363 10.466 42.8477Z" fill="#678B28"/>
</svg>
