<svg width="25" height="30" viewBox="0 0 25 30" fill="none" xmlns="http://www.w3.org/2000/svg">
<g filter="url(#filter0_di_351_19640)">
<path d="M1 6.3447V7.85699C1 8.97046 2.42929 9.82857 4.03613 9.67982L19.2762 8.26896C20.1901 8.18435 20.8721 7.64863 20.8721 7.0153C20.8721 6.37423 20.1738 5.8345 19.2468 5.75908L3.9934 4.51816C2.40045 4.38856 1 5.2431 1 6.3447Z" fill="#F9F2E7"/>
<path d="M15.3254 12.7393L23.4698 7.14483C23.9138 6.83982 24.096 6.39858 23.9512 5.97891C23.867 5.73491 23.6773 5.51409 23.4071 5.34543L15.1902 0.216728C14.7398 -0.0643813 14.0559 -0.073005 13.5908 0.19656C13.0515 0.509102 13.0126 1.07045 13.5062 1.41676L19.4778 5.60639C19.5326 5.64519 20.3424 6.2269 20.1994 6.65411C20.1275 6.869 19.7982 7.09322 19.6093 7.20733C19.5218 7.26018 19.434 7.31269 19.3524 7.36988L13.4831 11.4878C12.9886 11.8347 12.9903 12.3899 13.4871 12.7354C13.9922 13.0867 14.8171 13.0884 15.3254 12.7393Z" fill="#F9F2E7"/>
<path d="M24 20.3447V21.857C24 22.9705 22.5707 23.8286 20.9639 23.6798L5.72381 22.269C4.80986 22.1844 4.12786 21.6486 4.12786 21.0153C4.12786 20.3742 4.82617 19.8345 5.75319 19.7591L21.0066 18.5182C22.5995 18.3886 24 19.2431 24 20.3447Z" fill="#F9F2E7"/>
<path d="M9.67464 26.7393L1.53023 21.1448C1.0862 20.8398 0.904014 20.3986 1.04883 19.9789C1.13303 19.7349 1.32269 19.5141 1.5929 19.3454L9.80984 14.2167C10.2602 13.9356 10.9441 13.927 11.4092 14.1966C11.9485 14.5091 11.9874 15.0705 11.4938 15.4168L5.52221 19.6064C5.46736 19.6452 4.6576 20.2269 4.80062 20.6541C4.87255 20.869 5.20176 21.0932 5.39071 21.2073C5.47823 21.2602 5.56605 21.3127 5.64757 21.3699L11.5169 25.4878C12.0114 25.8347 12.0097 26.3899 11.5129 26.7354C11.0078 27.0867 10.1829 27.0884 9.67464 26.7393Z" fill="#F9F2E7"/>
</g>
<defs>
<filter id="filter0_di_351_19640" x="0" y="0" width="26" height="30" filterUnits="userSpaceOnUse" color-interpolation-filters="sRGB">
<feFlood flood-opacity="0" result="BackgroundImageFix"/>
<feColorMatrix in="SourceAlpha" type="matrix" values="0 0 0 0 0 0 0 0 0 0 0 0 0 0 0 0 0 0 127 0" result="hardAlpha"/>
<feOffset dy="2"/>
<feGaussianBlur stdDeviation="0.5"/>
<feComposite in2="hardAlpha" operator="out"/>
<feColorMatrix type="matrix" values="0 0 0 0 0.164706 0 0 0 0 0.109804 0 0 0 0 0.00784314 0 0 0 0.24 0"/>
<feBlend mode="normal" in2="BackgroundImageFix" result="effect1_dropShadow_351_19640"/>
<feBlend mode="normal" in="SourceGraphic" in2="effect1_dropShadow_351_19640" result="shape"/>
<feColorMatrix in="SourceAlpha" type="matrix" values="0 0 0 0 0 0 0 0 0 0 0 0 0 0 0 0 0 0 127 0" result="hardAlpha"/>
<feOffset dx="2" dy="2"/>
<feGaussianBlur stdDeviation="1"/>
<feComposite in2="hardAlpha" operator="arithmetic" k2="-1" k3="1"/>
<feColorMatrix type="matrix" values="0 0 0 0 1 0 0 0 0 1 0 0 0 0 1 0 0 0 1 0"/>
<feBlend mode="normal" in2="shape" result="effect2_innerShadow_351_19640"/>
</filter>
</defs>
</svg>
