<svg width="396" height="745" viewBox="0 0 396 745" fill="none" xmlns="http://www.w3.org/2000/svg">
<path d="M47.2657 114.043C55.8216 87.2767 64.3776 60.5167 72.9335 33.7501C75.4929 25.7436 78.5146 17.114 85.5631 12.5311C91.5663 8.63171 99.1842 8.55801 106.34 8.61831C172.717 9.12751 239.094 9.64342 305.471 10.1526C307.589 10.166 309.793 10.2062 311.682 11.1643C314.141 12.4172 315.602 14.9833 316.882 17.4221C333.585 49.2004 344.385 84.074 348.566 119.725C246.86 119.189 145.153 118.66 43.44 118.124C33.7317 118.07 23.0183 118.385 15.8493 124.938C5.45753 134.431 8.09734 151.141 11.5747 164.783C12.506 168.441 13.6517 172.414 16.7471 174.571C19.4405 176.447 22.9714 176.474 26.2544 176.434C139.579 174.973 252.896 173.513 366.221 172.059C369.517 172.019 372.921 171.952 375.942 170.638C381.992 168.012 384.974 161.124 386.14 154.632C388.311 142.539 385.631 129.018 376.753 120.522C367.876 112.033 352.258 110.506 343.447 119.068C356.037 110.707 375.728 117.239 380.813 131.47C382.864 137.212 382.756 143.47 382.529 149.56C382.227 157.553 381.256 166.585 374.911 171.463C371.527 174.062 366.964 175.127 364.264 178.431C361.805 181.439 361.47 185.593 361.236 189.466C352.908 328.056 342.925 466.545 331.28 604.901C330.891 609.51 330.436 614.328 327.95 618.234C322.758 626.388 311.388 627.225 301.719 627.178C221.621 626.83 141.522 626.488 61.4296 626.14C43.5338 480.354 32.452 333.731 28.2242 186.913C28.0902 182.33 28.6262 176.655 32.854 174.88" fill="#A4D477"/>
<path d="M55.3393 116.274C59.9556 101.829 64.5719 87.3836 69.1882 72.9451C73.6371 59.0291 77.6839 44.8921 82.6218 31.1436C84.1427 26.9159 86.4006 22.0717 89.7842 19.7736C94.2062 16.772 99.9213 16.9797 105.261 16.9931C120.323 17.04 135.385 17.2209 150.44 17.3415C180.73 17.576 211.028 17.8105 241.319 18.045C256.467 18.1589 271.61 18.2795 286.758 18.3934C293.559 18.447 301.096 18.5676 307.475 18.5676C309.478 18.5676 308.031 19.0232 307.428 18.2594C309.82 21.2878 307.093 17.5425 308.366 19.385C309.197 20.5843 309.82 21.9846 310.49 23.2711C312.064 26.3129 313.592 29.3882 315.059 32.4903C328.031 59.8733 336.6 89.6549 340.198 119.745C342.992 116.951 345.779 114.164 348.573 111.37C286.564 111.041 224.562 110.72 162.553 110.392C131.773 110.231 100.993 110.07 70.2134 109.909C62.4078 109.869 54.6023 109.829 46.7968 109.789C40.1436 109.755 33.5508 109.762 26.9714 110.914C14.181 113.145 3.69548 122.19 1.09586 135.135C-1.17545 146.431 0.821163 158.92 4.27838 169.801C6.65689 177.285 11.5412 183.1 19.6147 184.387C27.0049 185.566 34.8707 184.715 42.3278 184.621C73.3356 184.219 104.343 183.824 135.351 183.422C197.145 182.625 258.933 181.834 320.727 181.037C336.258 180.836 351.809 180.802 367.34 180.434C374.408 180.266 381.316 178.745 386.348 173.392C390.689 168.769 393.269 162.591 394.314 156.387C396.398 144.026 394.836 130.384 387.265 120.019C379.38 109.219 366.643 103.497 353.31 105.474C347.32 106.358 341.98 109.065 337.545 113.172C330.61 119.591 339.635 131.456 347.695 126.324C348.613 125.741 349.551 125.179 350.543 124.736C349.25 125.313 351.574 124.442 351.956 124.341C352.479 124.2 353.002 124.1 353.524 123.966C354.851 123.631 352.332 124.046 353.692 123.905C354.904 123.778 356.124 123.745 357.336 123.798C357.745 123.818 358.147 123.852 358.556 123.879C359.936 123.966 357.397 123.638 358.757 123.899C359.695 124.08 360.626 124.281 361.551 124.542C361.819 124.616 364.72 125.668 363.4 125.098C364.526 125.581 365.611 126.177 366.643 126.82C366.964 127.014 368.881 128.428 367.922 127.644C368.753 128.328 369.544 129.078 370.274 129.869C370.636 130.257 371.011 130.666 371.333 131.088C371.085 130.766 370.623 130.029 371.44 131.356C372.009 132.274 372.572 133.212 372.988 134.21C372.418 132.843 373.102 134.739 373.135 134.887C373.329 135.677 373.564 136.435 373.738 137.232C373.973 138.29 374.087 139.336 374.16 140.421C374.388 143.791 374.281 147.188 374.127 150.565C373.932 154.813 373.53 159.436 371.628 162.719C370.716 164.287 370.1 164.802 368.204 165.874C365.531 167.389 362.904 168.628 360.485 170.578C354.938 175.04 353.444 181.673 352.948 188.454C352.452 195.241 352.124 202.048 351.708 208.842C348.311 264.365 344.647 319.868 340.714 375.358C336.767 431.068 332.553 486.752 328.071 542.423C326.965 556.171 325.84 569.92 324.701 583.668C324.111 590.764 323.535 597.859 322.925 604.954C322.711 607.413 322.583 609.336 321.82 611.721C321.197 613.671 320.238 614.85 319.361 615.547C318.195 616.472 316.587 617.101 315.18 617.517C314.007 617.858 312.815 618.12 311.609 618.341C310.59 618.529 310.765 618.495 309.183 618.622C303.167 619.105 297.083 618.837 291.06 618.81C277.264 618.75 263.469 618.689 249.674 618.629C193.829 618.388 137.984 618.147 82.1394 617.905C75.2451 617.879 68.3441 617.845 61.4497 617.818C64.2436 620.612 67.0309 623.399 69.8248 626.193C62.6088 567.347 56.485 508.373 51.4868 449.299C46.4685 390.004 42.569 330.622 39.7952 271.179C39.0247 254.61 38.3346 238.027 37.7383 221.451C37.4368 213.049 37.1554 204.648 36.8941 196.246C36.7802 192.574 36.5323 188.876 36.606 185.197C36.6462 183.094 36.4586 184.119 37.0013 182.115C37.0683 181.874 37.3162 180.568 37.1353 181.807C37.0683 182.263 35.3062 183.06 37.1085 182.156C41.1486 180.125 42.2943 174.424 40.1101 170.699C37.7048 166.585 32.7066 165.653 28.6531 167.697C22.3751 170.853 20.2177 177.754 19.8894 184.3C19.5276 191.536 20.2311 198.953 20.4656 206.195C20.9681 221.451 21.5443 236.7 22.1943 251.95C23.4807 282.227 25.0619 312.491 26.9379 342.742C30.6832 403.236 35.5943 463.657 41.6645 523.964C45.1017 558.081 48.9073 592.157 53.0814 626.187C53.6375 630.703 56.4716 634.542 61.4564 634.562C119.747 634.816 178.044 635.064 236.334 635.319C250.799 635.379 265.258 635.446 279.723 635.506C292.192 635.56 305.619 636.974 317.88 634.12C323.341 632.846 328.788 630.207 332.566 625.979C337.344 620.639 338.784 614.013 339.488 607.092C340.928 592.881 341.879 578.61 343.045 564.372C347.796 506.27 352.258 448.147 356.425 389.997C360.579 332.075 364.438 274.127 368.01 216.165C368.458 208.835 368.907 201.505 369.35 194.175C369.497 191.683 369.51 188.541 369.906 186.417C370.408 183.663 370.964 183.395 373.142 182.196C378.475 179.248 383.299 176.333 386.327 170.779C389.309 165.305 390.301 159.154 390.743 153.01C391.634 140.609 390.991 127.611 382.127 118.036C375.246 110.599 364.211 106.278 354.107 107.129C348.807 107.578 343.762 109.005 339.246 111.879C342.63 116.261 346.013 120.649 349.397 125.031C351.896 122.713 355.44 121.674 359.186 121.775C359.789 121.788 360.418 121.815 361.021 121.889C359.916 121.761 361.417 121.969 361.537 121.996C362.75 122.244 363.943 122.565 365.115 122.967C365.933 123.242 368.881 124.81 369.484 125.272C377.168 131.182 379.212 141.312 378.328 150.712C377.999 154.17 376.679 159.262 374.515 161.573C373.209 162.973 372.713 163.215 370.669 163.55C367.52 164.065 364.083 163.757 360.901 163.797C346.402 163.985 331.903 164.173 317.404 164.36C260.3 165.097 203.189 165.828 146.085 166.565C117.529 166.933 88.9801 167.302 60.4246 167.67C53.2891 167.764 46.1469 167.851 39.0113 167.945C35.4402 167.992 31.8758 168.039 28.3047 168.085C26.5493 168.106 23.1725 168.561 21.9597 168.039C21.3433 167.771 21.2897 167.456 20.8274 166.484C20.1909 165.131 21.0954 167.275 20.6063 165.834C20.3986 165.225 20.2244 164.608 20.0569 163.992C19.3333 161.372 18.7169 158.719 18.1742 156.059C17.2161 151.335 16.6533 147.235 16.9883 141.949C17.2027 138.639 18.4288 134.471 20.4991 132.22C23.6214 128.817 27.5141 127.591 32.452 126.934C36.9879 126.331 43.5808 126.552 48.8336 126.579C55.9691 126.619 63.1113 126.653 70.2469 126.693C98.7957 126.84 127.345 126.994 155.893 127.142C212.991 127.443 270.089 127.738 327.193 128.039C334.329 128.08 341.471 128.113 348.606 128.153C352.74 128.173 357.517 124.281 356.981 119.778C353.417 89.923 345.705 61.0525 333.799 33.4417C330.925 26.7752 327.809 20.2091 324.433 13.7771C322.878 10.8157 321.103 7.97488 318.516 5.81747C314.744 2.66176 310.289 1.91135 305.505 1.82425C289.472 1.53615 273.425 1.57636 257.392 1.45576C225.319 1.20786 193.239 0.959955 161.166 0.712053C145.126 0.591453 129.093 0.46415 113.053 0.34355C105.61 0.28325 98.0185 -0.105357 90.6886 1.54285C83.3655 3.19106 77.4025 7.44558 73.0073 13.4421C68.5451 19.5257 66.3408 27.0164 64.0694 34.1184C61.3559 42.614 58.6357 51.1097 55.9222 59.6053C50.3545 77.0254 44.7868 94.4388 39.219 111.859C35.8958 122.11 52.063 126.519 55.3393 116.274Z" fill="black"/>
<path d="M100.357 110.64C105.375 99.6047 110.393 88.5764 115.412 77.5415C116.598 74.9285 117.924 72.1614 120.396 70.7008C122.286 69.5819 124.571 69.4144 126.762 69.2737C173.179 66.3122 219.738 65.5417 266.236 66.9621C268.273 67.0224 270.403 67.1162 272.152 68.1614C274.403 69.5082 275.516 72.1145 276.494 74.5466C281.86 87.9667 287.221 101.38 292.587 114.8" fill="#A4D477"/>
<path d="M107.593 114.867C110.816 107.772 114.045 100.683 117.268 93.588C118.882 90.0436 120.49 86.4926 122.105 82.9483C122.681 81.6753 123.231 80.3755 123.914 79.1561C124.021 78.9618 125.073 77.528 124.879 77.6419C124.423 77.9099 124.598 77.9367 125.16 77.8161C128.028 77.1729 131.659 77.3404 134.721 77.1595C138.922 76.9116 143.123 76.6838 147.331 76.4761C155.297 76.0808 163.263 75.7458 171.23 75.4778C203.236 74.3991 235.249 74.4728 267.261 75.3706C269.399 75.4309 267.891 75.6386 267.569 75.1696C268.554 76.6034 268.729 77.5615 269.392 79.2097C271.02 83.2766 272.641 87.3435 274.269 91.4105C277.686 99.9463 281.097 108.489 284.514 117.025C286.189 121.219 290.108 124.167 294.818 122.874C298.805 121.775 302.356 116.797 300.668 112.569C297.418 104.435 294.162 96.3015 290.912 88.1743C289.284 84.1074 287.663 80.0405 286.035 75.9736C284.407 71.9 283.06 67.5986 280.186 64.2016C274.236 57.1867 263.905 58.4865 255.617 58.2922C246.759 58.0845 237.902 57.9572 229.038 57.9103C211.758 57.8165 194.486 58.0242 177.213 58.5334C159.739 59.0493 141.957 59.2034 124.564 61.0727C118.983 61.6757 114.434 63.7192 111.043 68.3088C108.618 71.5918 107.177 75.5247 105.496 79.2164C101.375 88.2816 97.2547 97.34 93.1275 106.405C91.2582 110.519 91.9483 115.417 96.1291 117.862C99.727 119.979 105.71 119.008 107.593 114.867Z" fill="black"/>
<path d="M61.6774 564.125C114.159 565.639 166.687 565.766 219.175 564.513L61.6774 564.125Z" fill="#A4D477"/>
<path d="M61.6774 572.499C114.165 574 166.68 574.127 219.175 572.888C229.935 572.633 229.975 555.883 219.175 556.138C166.68 557.377 114.165 557.25 61.6774 555.749C50.897 555.441 50.9037 572.191 61.6774 572.499Z" fill="black"/>
<path d="M277.117 565.43C295.348 564.968 313.599 565.089 331.829 565.792L277.117 565.43Z" fill="#A4D477"/>
<path d="M277.117 573.806C295.354 573.357 313.599 573.477 331.829 574.167C336.352 574.335 340.204 570.194 340.204 565.792C340.204 561.116 336.365 557.592 331.829 557.417C313.599 556.734 295.354 556.613 277.117 557.055C266.357 557.317 266.316 574.067 277.117 573.806Z" fill="black"/>
<path d="M38.8907 165.459C42.7968 165.908 46.7097 166.357 50.6158 166.799C54.6961 167.268 58.4012 163.255 58.8434 159.536C59.299 155.717 57.0009 151.114 52.8469 150.351C41.4702 148.247 29.8457 148.227 22.3148 158.337C18.5896 163.335 23.5812 171.382 29.5442 170.94C79.5197 167.248 129.596 164.883 179.699 163.878C204.75 163.375 229.808 163.215 254.866 163.389C279.79 163.563 304.694 164.541 329.612 164.789C336.513 164.856 343.427 164.742 350.308 164.139C357.45 163.516 365.738 163.034 369.906 156.213C372.056 152.689 372.479 148.039 370.569 144.341C368.793 140.91 365.926 139.041 362.408 137.641C355.996 135.095 348.848 134.116 341.973 134.358C332.714 134.679 330.376 148.307 339.749 150.806C346.302 152.555 352.941 152.555 359.494 150.82C363.487 149.761 366.1 145.661 365.49 141.634C364.834 137.265 361.531 134.8 357.263 134.371C312.701 129.936 268.3 137.393 223.919 140.535C211.242 141.433 198.539 141.955 185.822 141.781C186.566 147.262 187.31 152.749 188.047 158.23C205.902 154.056 224.086 152.387 242.411 153.084C242.411 147.503 242.411 141.915 242.411 136.334C190.653 134.492 138.828 134.726 87.0907 137.044C87.0907 142.625 87.0907 148.213 87.0907 153.794C95.6802 152.749 103.767 153.781 111.814 156.957C111.814 151.57 111.814 146.19 111.814 140.803C87.2382 144.696 62.2269 145.64 37.4033 144.006C38.147 149.486 38.8907 154.974 39.6277 160.454C49.1083 157.841 58.6826 157.245 68.4446 158.391C68.4446 152.809 68.4446 147.222 68.4446 141.641C59.9355 141.326 51.4064 140.816 42.8906 140.703C38.8773 140.649 34.8037 141.192 31.2996 143.275C31.0986 143.396 26.7637 146.344 26.958 147.141C28.0233 146.766 29.0886 146.391 30.1539 146.009C31.9361 145.969 33.2627 146.552 34.127 147.758C34.5424 148.441 34.6295 148.722 34.6764 149.573C34.5424 147.302 34.4218 152.354 33.1957 151.731C33.4101 151.838 34.7233 151.289 35.0114 151.228C34.1404 151.416 36.606 151.094 36.6395 151.094C40.5322 150.913 44.445 151 48.3378 150.967C57.2488 150.893 66.1599 150.813 75.0642 150.739C74.3205 145.259 73.5768 139.771 72.8398 134.291C59.7747 136.193 46.4484 134.405 34.0801 129.989C34.7501 135.095 35.4134 140.193 36.0834 145.299C43.239 141.433 51.4466 140.421 59.3258 142.371C60.0695 136.89 60.8132 131.403 61.5502 125.922C54.4951 125.989 47.44 126.063 40.3848 126.13C29.6112 126.237 29.5844 142.96 40.3848 142.88C96.5713 142.458 152.758 143.295 208.904 145.406C224.944 146.009 240.984 146.719 257.017 147.53C257.017 141.949 257.017 136.361 257.017 130.78C221.071 132.086 185.079 131.637 149.173 129.44C149.917 134.92 150.661 140.408 151.398 145.888C168.007 140.796 186.439 143.517 203.524 143.965C222.096 144.448 240.676 144.609 259.248 144.448C277.827 144.287 296.4 143.798 314.959 142.987C324.238 142.579 333.518 142.096 342.784 141.527C347.253 141.252 351.729 140.85 356.204 140.669C357.042 140.636 357.899 140.582 358.737 140.662C357.826 140.575 359.688 141.165 359.32 140.79C358.549 140.026 359.367 141.687 359.501 142.15C360.264 144.723 360.666 147.443 360.016 149.66C359.882 150.123 359.702 150.706 359.233 151.054C358.308 151.744 357.698 151.845 356.171 152.166C353.906 152.649 349.538 152.488 346.328 152.461C341.645 152.421 336.962 152.381 332.278 152.34C313.545 152.18 294.812 152.012 276.078 151.851C238.612 151.523 201.152 151.201 163.685 150.873C142.547 150.692 121.415 150.518 100.276 150.324C80.1227 150.136 59.8283 149.855 39.8756 146.726C35.4134 146.029 30.8641 147.865 29.571 152.575C28.4789 156.555 30.9244 162.176 35.4201 162.88C54.9708 165.942 74.6823 166.766 94.4474 167.014C114.407 167.261 134.366 167.375 154.319 167.55C194.017 167.891 233.708 168.24 273.405 168.581C293.478 168.756 313.545 168.93 333.618 169.104C342.576 169.184 352.291 170.303 361.088 168.213C370.535 165.968 376.485 158.163 377.008 148.615C377.463 140.327 374.703 129.875 366.797 125.849C362.589 123.711 357.946 123.785 353.377 124.093C348.084 124.448 342.784 124.783 337.484 125.091C318.054 126.217 298.604 126.981 279.147 127.396C257.037 127.865 234.913 127.879 212.803 127.43C201.661 127.202 190.533 126.74 179.397 126.438C168.503 126.137 157.434 126.525 146.942 129.741C137.723 132.562 139.78 145.614 149.167 146.19C185.072 148.394 221.065 148.843 257.01 147.53C267.811 147.135 267.77 131.322 257.01 130.78C200.897 127.952 144.724 126.371 88.5379 126.07C72.4847 125.983 56.4314 126.009 40.3781 126.123C40.3781 131.704 40.3781 137.292 40.3781 142.873C47.4333 142.806 54.4884 142.733 61.5435 142.666C70.8298 142.572 73.1212 128.529 63.7679 126.217C51.46 123.169 38.7701 124.81 27.6146 130.833C20.8475 134.492 23.1992 143.852 29.6179 146.143C44.9877 151.63 61.2018 152.789 77.2819 150.444C81.3421 149.855 83.8345 144.924 83.2784 141.259C82.6687 137.219 79.2986 133.962 75.0508 133.996C63.7478 134.09 52.4516 134.19 41.1486 134.284C35.9628 134.331 30.5961 134.351 25.8726 136.776C21.0418 139.255 17.7387 144.053 17.9062 149.573C18.0737 154.913 21.3969 160.588 26.7302 162.176C29.0082 162.853 31.3532 162.913 33.6379 162.19C36.2174 161.372 38.7232 158.96 39.7282 157.741C39.2257 158.344 40.8672 157.372 39.9493 157.526C40.8672 157.372 41.9392 157.446 42.8638 157.459C45.7717 157.5 48.6862 157.667 51.5873 157.774C57.1952 157.982 62.8031 158.19 68.411 158.397C72.9336 158.565 76.7861 154.431 76.7861 150.022C76.7861 145.058 72.9202 142.177 68.411 141.647C57.2689 140.334 45.9525 141.326 35.1454 144.307C25.7386 146.9 28.1506 160.153 37.3698 160.756C63.7478 162.491 90.1259 161.084 116.229 156.95C119.8 156.387 122.38 152.247 122.38 148.877C122.38 144.924 119.7 142.17 116.229 140.803C107.03 137.165 96.8728 135.852 87.0572 137.038C82.5682 137.58 78.6822 140.495 78.6822 145.413C78.6822 149.794 82.5146 153.989 87.0572 153.788C138.795 151.469 190.62 151.235 242.377 153.077C246.9 153.238 250.752 149.111 250.752 144.702C250.752 140.026 246.913 136.502 242.377 136.327C222.626 135.584 202.807 137.574 183.564 142.076C174.231 144.26 176.476 158.404 185.789 158.525C230.485 159.121 274.658 150.82 319.28 149.801C331.943 149.513 344.613 149.855 357.223 151.114C356.479 145.634 355.735 140.146 354.998 134.666C351.327 135.637 347.829 135.631 344.157 134.652C343.414 140.133 342.67 145.62 341.933 151.101C346.831 150.933 351.688 151.436 356.305 153.185C356.378 153.211 357.551 153.533 357.363 153.607C357.336 153.613 355.347 147.892 355.4 147.758C355.996 146.197 356.975 146.907 355.3 146.82C352.881 146.699 350.134 147.416 347.688 147.59C336.479 148.381 325.237 147.992 314.021 147.677C291.194 147.034 268.353 146.672 245.513 146.592C199.39 146.424 153.267 147.403 107.191 149.526C81.2751 150.719 55.3728 152.28 29.504 154.19C31.916 158.391 34.328 162.592 36.7333 166.792C36.3246 167.342 37.7316 166.277 36.9142 166.652C38.6763 165.841 38.9175 165.948 40.1771 165.881C43.6946 165.7 45.5573 165.995 48.3512 166.504C49.0949 161.024 49.8386 155.536 50.5756 150.056C46.6695 149.607 42.7566 149.158 38.8505 148.716C34.3481 148.2 30.4755 152.937 30.4755 157.091C30.5157 162.042 34.3749 164.943 38.8907 165.459Z" fill="#88C95D"/>
<path d="M127.592 333.502C125.16 338.246 122.735 342.983 120.303 347.726C118.005 352.202 114.722 357.006 113.442 361.89C111.593 368.925 116.859 374.48 123.606 375.002C128.812 375.404 134.178 374.272 139.304 373.495C148.805 372.054 158.439 372.215 168.014 372.49C178.573 372.791 189.139 373.126 199.698 373.441C210.478 373.769 210.472 357.013 199.698 356.691C186.767 356.302 173.823 355.746 160.885 355.579C154.634 355.498 148.369 355.626 142.151 356.336C138.862 356.711 135.599 357.254 132.323 357.73C130.956 357.924 129.596 358.091 128.222 358.185C127.378 358.245 126.527 358.286 125.683 358.299C123.298 358.132 123.921 358.587 127.566 359.666C128.282 360.899 128.999 362.131 129.716 363.364C129.643 363.043 129.569 362.721 129.488 362.399C129.488 363.887 129.488 365.368 129.488 366.855C130.246 363.324 133.542 358.58 135.378 354.996C137.602 350.648 139.833 346.306 142.058 341.958C144.121 337.931 143.11 332.872 139.056 330.501C135.311 328.303 129.663 329.462 127.592 333.502Z" fill="black"/>
<path d="M245.044 375.793C249.895 376.162 254.752 376.302 259.616 376.155C264.206 376.014 269.666 376.189 273.975 374.507C285.485 370.025 281.592 355.298 276.574 347.452C266.115 331.084 253.955 315.573 241.841 300.411C239.014 296.874 232.944 297.463 229.996 300.411C226.498 303.909 227.161 308.713 229.996 312.257C239.463 324.103 248.521 336.263 257.184 348.705C259.174 351.559 261.251 354.387 263.02 357.382C263.744 358.608 264.326 359.72 264.702 361.073C264.682 361.006 264.963 362.098 264.856 362.045C263.328 361.261 271.676 359.526 268.474 358.842C266.906 358.507 264.434 359.191 262.785 359.278C260.889 359.385 258.987 359.445 257.084 359.465C253.064 359.512 249.057 359.351 245.05 359.05C240.535 358.708 236.675 363.144 236.675 367.425C236.669 372.236 240.515 375.452 245.044 375.793Z" fill="black"/>
<path d="M223.074 267.608C220.227 263.38 217.373 259.152 214.525 254.925C211.832 250.931 209.346 246.637 206.304 242.911C202.103 237.766 194.928 237.464 190.278 242.262C186.874 245.779 184.261 250.496 181.42 254.476C169.756 270.837 158.091 287.199 146.426 303.56C143.8 307.245 145.776 312.88 149.428 315.017C153.635 317.476 158.252 315.707 160.885 312.016C168.014 302.019 175.142 292.016 182.271 282.019C185.769 277.108 189.273 272.204 192.77 267.293C194.586 264.747 196.402 262.201 198.211 259.655C198.988 258.563 199.765 257.471 200.542 256.385C200.643 256.244 203.055 253.678 201.788 254.389C200.381 254.77 198.968 255.152 197.561 255.534C197.829 255.514 198.103 255.487 198.371 255.467C196.964 255.085 195.551 254.703 194.144 254.322C192.891 252.7 192.63 252.405 193.36 253.457C193.728 254.007 194.104 254.563 194.472 255.112C195.088 256.03 195.712 256.948 196.328 257.873C197.688 259.896 199.055 261.919 200.415 263.943C203.142 267.99 205.869 272.03 208.596 276.077C211.122 279.822 215.972 281.47 220.053 279.078C223.791 276.894 225.614 271.38 223.074 267.608Z" fill="black"/>
<path d="M239.945 326.293C240.126 322.515 240.3 318.736 240.481 314.957C240.568 313.182 240.649 311.399 240.736 309.624C240.776 308.733 240.823 307.848 240.863 306.957C240.89 306.347 241.479 304.09 240.957 305.718C240.24 306.95 239.523 308.183 238.806 309.416C238.967 309.242 239.128 309.074 239.282 308.9C238.049 309.617 236.816 310.334 235.583 311.051C238.438 310.334 242.437 310.575 245.566 310.609C249.339 310.649 253.091 310.917 256.836 311.346C261.338 311.862 265.211 307.125 265.211 302.971C265.211 298.013 261.352 295.112 256.836 294.596C252.26 294.066 247.663 293.798 243.054 293.865C238.123 293.939 231.242 293.443 227.436 297.055C223.523 300.773 224.12 306.689 223.892 311.627C223.657 316.518 223.429 321.409 223.195 326.293C222.981 330.816 227.195 334.669 231.57 334.669C236.28 334.669 239.731 330.829 239.945 326.293Z" fill="black"/>
<path d="M134.359 291.949C136.055 296.773 137.75 301.604 139.445 306.428C141.502 312.29 144.316 316.264 150.815 317.195C155.659 317.892 160.523 318.227 165.421 317.972C168.235 317.825 171.035 317.49 173.816 317.074C175.035 316.893 176.261 316.558 177.481 316.451C178.158 316.391 178.66 316.625 178.131 316.458C182.439 317.845 187.27 314.836 188.435 310.609C189.682 306.079 186.908 301.698 182.586 300.304C177.36 298.622 171.94 300.786 166.654 301.148C164.181 301.316 161.696 301.356 159.217 301.262C157.977 301.215 156.738 301.128 155.505 301.021C155.016 300.967 154.527 300.914 154.037 300.874C152.972 300.733 152.751 300.679 153.388 300.699C154.386 301.698 155.391 302.703 156.389 303.701C155.297 302.106 154.406 298.582 153.609 296.304C152.577 293.37 151.545 290.428 150.513 287.494C149.019 283.226 144.785 280.385 140.209 281.644C136.068 282.783 132.852 287.661 134.359 291.949Z" fill="black"/>
<path d="M190.392 359.163C192.254 361.053 194.117 362.935 195.98 364.825C197.802 366.667 199.732 369.361 201.869 370.795C203.678 372.007 203.175 365.019 201.259 366.326C200.321 366.962 199.524 368.095 198.72 368.905C196.83 370.808 194.948 372.711 193.058 374.62C185.461 382.285 197.299 394.137 204.904 386.466C210.284 381.039 218.967 374.855 217.594 366.232C216.924 362.004 213.962 359.21 211.088 356.296C208.14 353.308 205.185 350.319 202.237 347.331C194.653 339.639 182.807 351.485 190.392 359.163Z" fill="black"/>
</svg>
