<svg width="1170" height="133" viewBox="0 0 1170 133" fill="none" xmlns="http://www.w3.org/2000/svg">
<path d="M1170 132.312L0.8125 69.1325V0.6875L1170 11.6225V132.312Z" fill="#483004"/>
<rect width="1107.48" height="13" rx="3.25" transform="matrix(0.999085 0.0427807 -0.0427214 0.999087 44.4004 24.25)" fill="#483004"/>
<rect width="141.375" height="13" rx="6.5" transform="matrix(0.999085 0.0427807 -0.0427214 0.999087 44.4004 24.25)" fill="#D8D3C6"/>
<rect width="141.375" height="13" rx="6.5" transform="matrix(0.999085 0.0427807 -0.0427214 0.999087 237.599 32.5227)" fill="#D8D3C6"/>
<rect width="141.375" height="13" rx="6.5" transform="matrix(0.999085 0.0427807 -0.0427214 0.999087 430.796 40.7955)" fill="#D8D3C6"/>
<rect width="141.375" height="13" rx="6.5" transform="matrix(0.999085 0.0427807 -0.0427214 0.999087 623.994 49.0682)" fill="#D8D3C6"/>
<rect width="141.375" height="13" rx="6.5" transform="matrix(0.999085 0.0427807 -0.0427214 0.999087 817.192 57.3409)" fill="#D8D3C6"/>
<rect width="141.375" height="13" rx="6.5" transform="matrix(0.999085 0.0427807 -0.0427214 0.999087 1010.39 65.6136)" fill="#D8D3C6"/>
</svg>
