<svg width="35" height="24" viewBox="0 0 35 24" fill="none" xmlns="http://www.w3.org/2000/svg">
<g filter="url(#filter0_di_1083_22140)">
<path d="M32.8677 20.8513L33.9533 18.1991C34.2403 17.4981 33.851 16.7038 33.1211 16.5012L20.4552 12.9852C19.8462 12.8161 19.2071 13.1294 18.9676 13.7143C18.7257 14.3055 18.9695 14.9839 19.5325 15.2857L31.0996 21.4869C31.7608 21.8413 32.5835 21.5456 32.8677 20.8513Z" fill="#F9F2E7"/>
<path d="M22.6147 10.6684C22.6147 16.4991 17.888 21.2258 12.0574 21.2258C6.22669 21.2258 1.5 16.4991 1.5 10.6684C1.5 4.83777 6.22669 0.111084 12.0574 0.111084C17.888 0.111084 22.6147 4.83777 22.6147 10.6684ZM4.58796 10.6684C4.58796 14.7937 7.93213 18.1378 12.0574 18.1378C16.1826 18.1378 19.5267 14.7937 19.5267 10.6684C19.5267 6.54321 16.1826 3.19905 12.0574 3.19905C7.93213 3.19905 4.58796 6.54321 4.58796 10.6684Z" fill="#F9F2E7"/>
</g>
<defs>
<filter id="filter0_di_1083_22140" x="0.717974" y="0.111084" width="34.8944" height="23.8723" filterUnits="userSpaceOnUse" color-interpolation-filters="sRGB">
<feFlood flood-opacity="0" result="BackgroundImageFix"/>
<feColorMatrix in="SourceAlpha" type="matrix" values="0 0 0 0 0 0 0 0 0 0 0 0 0 0 0 0 0 0 127 0" result="hardAlpha"/>
<feOffset dy="1.56405"/>
<feGaussianBlur stdDeviation="0.391013"/>
<feComposite in2="hardAlpha" operator="out"/>
<feColorMatrix type="matrix" values="0 0 0 0 0.164706 0 0 0 0 0.109804 0 0 0 0 0.00784314 0 0 0 0.24 0"/>
<feBlend mode="normal" in2="BackgroundImageFix" result="effect1_dropShadow_1083_22140"/>
<feBlend mode="normal" in="SourceGraphic" in2="effect1_dropShadow_1083_22140" result="shape"/>
<feColorMatrix in="SourceAlpha" type="matrix" values="0 0 0 0 0 0 0 0 0 0 0 0 0 0 0 0 0 0 127 0" result="hardAlpha"/>
<feOffset dx="1.56405" dy="1.56405"/>
<feGaussianBlur stdDeviation="0.782026"/>
<feComposite in2="hardAlpha" operator="arithmetic" k2="-1" k3="1"/>
<feColorMatrix type="matrix" values="0 0 0 0 1 0 0 0 0 1 0 0 0 0 1 0 0 0 1 0"/>
<feBlend mode="normal" in2="shape" result="effect2_innerShadow_1083_22140"/>
</filter>
</defs>
</svg>
