<svg width="117" height="219" viewBox="0 0 117 219" fill="none" xmlns="http://www.w3.org/2000/svg">
<g clip-path="url(#clip0_1097_35498)">
<path d="M107.051 195.82C106.979 195.955 106.878 196.068 106.761 196.156C106.911 196.416 107.072 196.669 107.283 196.874C107.203 196.524 107.126 196.173 107.051 195.82Z" fill="#858585"/>
<path d="M105.995 175.323C105.894 174.804 105.799 174.294 105.703 173.801C105.721 174.46 105.742 175.117 105.763 175.777C105.829 175.613 105.906 175.459 105.995 175.323Z" fill="#858585"/>
<path d="M109.68 68.908C109.694 69.2494 109.705 69.5932 109.719 69.9346C109.804 69.6212 109.893 69.3079 109.984 68.9969C110 68.9057 110.014 68.8145 110.03 68.7256C109.923 68.8051 109.806 68.8659 109.68 68.908Z" fill="#858585"/>
<path d="M113.445 23.0434C113.466 22.5336 113.407 22.0051 113.129 21.5771C113.099 21.514 113.057 21.4626 113.012 21.4158C112.966 20.9925 112.912 20.5716 112.87 20.1483C112.844 19.524 112.865 18.8996 112.877 18.2752C112.893 17.7678 112.856 17.2229 112.573 16.7856C112.252 16.2337 111.721 16.4348 111.483 16.9423C111.315 17.3001 111.205 17.6766 111.127 18.0624C111.006 17.9806 110.837 18.0227 110.728 18.1232C110.65 16.6967 110.576 15.2703 110.51 13.8438C110.494 13.3995 110.445 12.9388 110.19 12.567C110.12 12.4197 109.986 12.3051 109.837 12.256C109.83 12.2349 109.82 12.2139 109.811 12.1952C109.879 11.6924 109.947 11.192 110.01 10.6892C110.047 10.3571 110.08 10.0227 110.103 9.68831C109.759 9.3352 109.434 8.97039 109.147 8.60793C108.801 8.35771 108.494 8.07943 108.275 7.66318C108.195 7.51118 108.13 7.3545 108.078 7.19549C108.041 7.1838 108.001 7.17678 107.961 7.17444C107.858 7.18847 107.765 7.22589 107.683 7.28201C107.624 7.17912 107.564 7.07622 107.5 6.97567C107.066 6.3817 105.952 5.71523 106.034 5.70821C105.583 5.24052 105.181 5.61701 104.989 6.08471C104.973 6.04262 104.956 6.00286 104.94 5.96077C105.113 4.97159 105.232 3.97306 105.253 2.97219C105.277 2.37588 104.795 1.15285 104.124 1.70941C104.021 1.46153 103.855 1.24171 103.607 1.15753C103.291 1.05931 103.067 1.35864 102.924 1.60418C102.852 1.75384 102.802 1.91052 102.763 2.06954C102.681 2.02745 102.604 2.00874 102.531 2.00406C102.396 1.81698 102.185 1.73747 101.989 1.77489C101.947 1.59015 101.9 1.40775 101.844 1.22535C101.729 0.825467 101.467 0.397523 101.14 0.254875C101.1 0.271245 101.06 0.285276 101.016 0.299307C100.635 0.413892 100.312 0.420909 100.045 0.348417C99.8326 0.397525 99.6221 0.411555 99.4164 0.381155C99.3205 0.689835 99.2199 0.998515 99.1053 1.30252C99.0679 2.42966 99.0305 3.51238 98.9931 4.51325C98.9814 5.04642 98.9744 5.5796 98.9627 6.11277C98.8738 5.82046 98.7546 5.54452 98.5301 5.34107C98.4786 5.27325 98.4085 5.23584 98.3243 5.22882C98.3149 5.22415 98.3056 5.22181 98.2962 5.21713C98.3033 4.90845 98.3103 4.59977 98.3149 4.2911C98.1092 4.52962 97.7958 4.6746 97.4754 4.69097C96.7786 5.50476 95.2773 4.93418 95.4526 3.8538C95.3334 3.8421 95.2211 3.82106 95.1182 3.78832C94.9311 3.8842 94.7277 3.95201 94.5055 3.98709C94.4635 4.01048 94.4214 4.03152 94.3769 4.05023C94.3699 4.20223 94.3606 4.35423 94.3536 4.50389C94.3349 4.52026 94.3162 4.5343 94.2974 4.55067C94.3045 4.39165 94.3138 4.23263 94.3208 4.07361C93.9934 4.20691 93.6052 4.24199 93.1516 4.14143C92.8078 4.06426 92.5202 3.89121 92.284 3.66204C92.1694 3.69011 92.0525 3.71583 91.9309 3.73454C91.9215 3.73687 91.9145 3.73687 91.9052 3.73687C91.8677 4.17651 91.828 4.61614 91.7906 5.05578C91.7765 5.06747 91.7625 5.07916 91.7508 5.09086C91.7368 4.92015 91.7181 4.7471 91.697 4.57639C91.6807 4.44544 91.6479 4.27239 91.6012 4.08765C91.4702 4.28408 91.2574 4.41503 90.9791 4.37996C89.2557 4.16715 87.5322 3.97306 85.8041 3.80703C85.7526 4.26303 85.6965 4.71904 85.6497 5.17738C85.4205 4.83362 85.0651 4.63719 84.74 4.99498C84.6535 4.96458 84.5647 4.93418 84.4781 4.90611C84.3332 4.84765 84.1882 4.78685 84.0432 4.72371C83.966 4.69097 83.8888 4.65824 83.8117 4.6255C83.8047 4.29343 83.7977 3.95903 83.7883 3.62696C83.4445 3.5989 83.0984 3.5685 82.7547 3.54278C80.0865 3.34868 77.3809 3.26918 74.736 2.85293C72.1263 2.44135 69.6569 1.76554 66.9933 1.89415C64.3251 2.02277 61.6523 1.90117 58.984 2.01108C56.5567 2.10929 54.1855 2.60505 51.7698 2.75237C49.3635 2.89736 46.9502 2.89268 44.5416 2.89268C39.6308 2.89268 34.6943 2.91373 29.8115 3.4773C28.5932 3.61761 27.3748 3.7509 26.1611 3.91927C25.1369 4.05958 24.0074 3.88654 23.0276 4.25368C22.2114 4.55768 21.5356 5.00667 20.6026 4.73073C19.7186 4.46882 19.3421 3.60592 19.0826 2.78979C18.996 2.51151 18.9446 2.21218 18.9188 1.89649C18.6335 2.24025 18.3506 2.584 18.0653 2.9301C18.3482 2.37354 18.6242 1.8123 18.9048 1.25574C18.9118 1.05697 18.9305 0.855866 18.9563 0.654757C18.0349 0.729588 17.1112 0.797402 16.1945 0.879249C14.8686 0.996173 13.5661 1.03593 12.2612 0.937711C11.8379 1.6603 11.417 2.38289 10.9961 3.10548C11.2252 3.84444 11.0919 4.56704 11.0498 5.35043C11.0709 5.44397 11.0896 5.5375 11.113 5.63104C11.2977 6.36767 10.5845 6.89382 9.9882 6.75819C9.44333 6.97567 8.91716 7.22589 8.40036 7.49014C8.03556 8.09112 7.6614 8.69212 7.2849 9.29311C7.2849 9.29778 7.2849 9.30246 7.2849 9.30714C7.20305 10.1233 7.08145 10.9137 7.01597 11.7064C7.10249 12.3355 7.1025 12.9786 7.02533 13.638C7.02533 13.6427 7.02533 13.6474 7.02767 13.6544H7.02533C7.01364 13.7549 7.00428 13.8555 6.98791 13.9584C6.92243 14.3676 6.71666 14.6085 6.45242 14.716C6.49217 15.2141 6.49684 15.7099 6.35419 16.1028C6.09228 16.8183 5.40944 16.9236 4.88562 17.3211C4.05779 17.9502 3.89176 18.9534 3.65557 19.8981C3.43576 20.775 3.16451 21.6216 2.99613 22.5125C2.75761 23.78 2.96106 24.9048 3.17152 26.1606C3.32586 27.0889 3.389 28.0992 3.69768 28.9925C4.24722 30.5826 6.63715 29.1374 7.79236 30.1711C8.83766 31.1041 8.36295 32.5212 8.20394 33.6998C8.0683 34.703 8.11975 35.746 8.02621 36.7586C7.92799 37.8202 7.7456 38.8772 7.71286 39.9412C7.67778 41.0637 7.70818 42.1885 7.65206 43.311C7.63569 43.6618 7.60761 44.0102 7.57955 44.3586C7.74324 43.8395 7.90927 43.3203 8.07297 42.8012C8.1174 43.2151 8.22731 43.6454 8.54534 43.9143C8.57574 43.9541 8.61315 43.9798 8.65291 43.9985C8.24835 44.5527 7.80406 45.0859 7.50239 45.6939C7.49771 45.9044 7.49772 46.1148 7.50707 46.3253C7.53046 46.8421 7.55852 47.3823 7.59828 47.9295C7.67779 48.0604 7.77833 48.1774 7.90928 48.2662C8.01452 48.3223 8.1174 48.3364 8.22263 48.3107C8.04959 48.5702 7.8742 48.8275 7.70116 49.087C7.82743 50.2773 8.02152 51.4676 8.3606 52.5316C8.95691 54.4071 10.6476 54.4749 12.3477 54.7087C13.4281 54.8561 13.2667 56.1399 12.5535 56.631C12.6611 56.7198 12.7523 56.8391 12.8201 56.9958C13.704 59.063 13.5357 61.5278 13.3743 63.7984C13.386 63.8241 13.3954 63.8522 13.4071 63.8779C13.6105 64.2731 13.683 64.7853 13.9613 65.1384C13.9776 65.9662 13.9987 66.794 14.0244 67.6195C13.7719 68.445 13.517 69.2681 13.2644 70.0936C13.2036 70.29 13.1709 70.4911 13.1685 70.6969C13.1241 71.195 13.1943 71.7609 13.4725 72.1842C13.6736 72.5537 13.987 72.5934 14.2372 72.4298C14.277 73.2973 14.298 74.1626 14.3097 75.0255C13.7999 76.2134 13.3018 77.406 12.8014 78.5987C12.771 79.5387 12.7499 80.4788 12.7499 81.4189C12.7499 82.3917 13.0235 83.5235 12.7827 84.349C12.951 87.1528 13.2457 89.938 13.3439 92.7418C13.7531 92.8424 14.0946 92.1782 14.3682 91.2756C14.4149 91.6006 14.4594 91.9257 14.5038 92.2507C14.5178 92.4869 14.5319 92.7254 14.5459 92.9616C14.5412 92.9756 14.5389 92.992 14.5342 93.006C14.0127 94.7599 13.5965 96.5488 13.248 98.3495C13.2083 99.0978 13.1662 99.8461 13.1334 100.597C13.3579 101.382 13.3626 102.28 13.3813 103.043C13.4188 104.572 13.5263 106.099 13.6058 107.629C13.6105 107.586 13.6128 107.544 13.6175 107.502C13.6175 107.612 13.6152 107.722 13.6152 107.832C13.6479 108.505 13.676 109.181 13.6877 109.855C13.69 109.976 13.69 110.098 13.6923 110.217C13.8514 111.952 13.8888 113.753 13.7999 115.462C13.7765 115.933 13.7578 116.419 13.7368 116.912C13.7438 119.412 13.7555 121.912 13.8256 124.41C13.9659 129.369 14.2115 134.327 14.3635 139.287C14.4219 141.19 14.4594 143.096 14.4898 145C14.5436 146.985 14.581 148.971 14.5973 150.956C14.6043 151.896 14.6044 152.834 14.6067 153.774C14.6114 154.061 14.6137 154.347 14.6184 154.634C14.6675 158.109 14.9271 161.58 15.0884 165.05C15.1328 165.258 15.1796 165.464 15.2241 165.67C15.4298 166.584 15.6847 167.489 15.9233 168.394C16.0636 168.845 16.0986 169.383 16.4611 169.711C16.4541 170.155 16.4518 170.597 16.4518 171.041C16.3793 173.515 16.3722 175.992 16.3512 178.466C16.4447 181.059 16.4915 183.655 16.6108 186.248C16.5944 187.247 16.5757 188.248 16.5523 189.249C16.6435 191.596 16.7464 193.942 16.861 196.29C16.8306 196.327 16.8002 196.367 16.7698 196.404C15.6988 197.583 15.4205 199.145 15.3807 200.688C15.341 203.298 15.9724 205.861 16.55 208.389C16.716 209.119 16.9124 209.846 17.1533 210.547C17.2796 211.338 17.5087 212.1 17.9764 212.493C18.8183 214.086 20.032 215.416 21.87 216.183C23.4695 216.92 25.0036 217.011 26.0933 215.825C26.6008 215.977 27.1152 216.111 27.639 216.216C27.7209 216.235 27.8004 216.253 27.8823 216.272C27.8939 216.672 27.908 217.074 27.9197 217.474C28.4622 217.453 29.0047 217.437 29.5473 217.427C29.5473 217.38 29.5449 217.334 29.5449 217.287C30.1249 217.406 30.7445 217.362 31.3081 217.21C32.033 216.95 32.6083 216.433 33.0807 215.835C33.7963 216.052 34.5118 216.085 35.19 215.903C35.5548 216.532 35.9944 217.095 36.5604 217.507C37.6735 217.54 38.7842 217.577 39.895 217.607C40.351 217.619 40.807 217.628 41.263 217.635C41.2841 217.624 41.3075 217.614 41.3285 217.603C41.3589 217.614 41.3916 217.626 41.4244 217.638C43.5992 217.67 45.774 217.645 47.9487 217.612C47.4156 217.289 46.983 217.018 46.6158 216.597C46.562 216.539 46.5082 216.475 46.4544 216.412C46.7678 216.235 47.0812 216.052 47.3782 215.853C47.9207 216.148 48.5006 216.384 49.0548 216.656C49.2606 216.751 49.4571 216.878 49.6652 216.969C49.4921 217.156 49.2957 217.364 49.0806 217.593C50.4182 217.572 51.7534 217.551 53.0911 217.544C53.9376 217.54 54.7865 217.511 55.633 217.479C55.8411 217.338 56.0352 217.177 56.2129 216.999C56.3298 216.915 56.4328 216.822 56.531 216.723C57.45 217.095 58.4181 217.163 59.405 217.044C59.5476 217.037 59.6879 217.03 59.8306 217.023C59.8914 217.093 59.9545 217.161 60.0176 217.228C62.0615 217.088 64.1053 216.939 66.1468 216.852C70.6414 216.66 75.1429 216.644 79.6258 217.037C79.9134 217.062 80.1543 217.172 80.3414 217.334C83.3417 217.123 86.3419 216.915 89.3469 216.812C89.3936 216.693 89.4334 216.569 89.4661 216.443C89.5106 216.562 89.5573 216.681 89.6018 216.803C91.5404 216.74 93.4836 216.723 95.4316 216.782C95.6187 216.665 95.78 216.501 95.9203 216.314C95.9928 216.331 96.0677 216.342 96.1448 216.345C96.6055 216.286 96.9633 215.98 97.3094 215.697C97.9291 215.292 98.3617 214.717 98.7522 214.107C98.806 213.969 98.8879 213.84 98.9908 213.728C99.089 213.569 99.1872 213.407 99.2878 213.248C99.7859 212.435 100.027 212.086 100.3 211.658C100.642 212.28 101.299 212.245 101.586 211.247C101.986 209.395 101.902 207.465 101.947 205.578C101.954 204.673 101.956 203.771 101.94 202.866C101.979 202.608 102.019 202.351 102.059 202.096C102.218 200.602 102.152 199.096 102.138 197.597C102.127 196.963 102.134 194.922 101.439 194.62C101.325 192.866 101.224 191.227 101.074 189.031C100.976 185.591 101.128 182.144 101.107 178.702C101.135 178.562 101.163 178.421 101.191 178.281C101.252 178.59 101.311 178.901 101.369 179.209C101.886 181.96 102.524 184.684 103.282 187.378C103.235 186.407 103.188 185.439 103.142 184.469C103.128 184.195 103.195 183.975 103.31 183.805C103.226 182.252 103.153 180.697 103.139 179.142C103.135 178.606 103.135 178.071 103.139 177.533C103.139 177.245 103.137 176.958 103.137 176.67C103.137 176.027 103.137 175.381 103.137 174.738C102.487 171.574 101.755 168.216 101.109 164.966C101.137 164.461 101.159 163.958 101.166 163.453C101.191 162.793 101.224 162.129 101.236 161.467C101.615 164.557 102.003 167.643 102.449 170.718C102.683 171.883 102.91 173.05 103.137 174.219C103.137 171.682 103.137 169.147 103.137 166.61C103.137 166.46 103.165 166.329 103.205 166.21C103.2 166.072 103.198 165.934 103.193 165.796C103.102 162.302 102.969 158.809 102.882 155.315C102.854 154.211 102.744 153.049 102.655 151.873C102.253 148.648 101.851 145.425 101.451 142.201C101.769 141.532 101.731 140.718 101.895 140.002C102.057 138.945 102.223 137.886 102.309 136.82C102.484 133.593 102.384 130.356 102.463 127.124C102.522 124.943 102.562 122.326 102.611 119.744C102.931 118.072 103.249 116.403 103.569 114.731C103.53 114.179 103.506 113.624 103.497 113.075C103.301 112.951 103.16 112.731 103.158 112.401C103.153 110.383 103.17 108.368 103.198 106.352C103.163 106.277 103.125 106.211 103.083 106.153C103.123 105.931 103.167 105.709 103.209 105.487C103.233 103.836 103.263 102.185 103.289 100.534C103.032 100.363 102.805 100.438 102.604 100.669C102.433 99.2802 102.262 97.8911 102.148 96.4974C102.033 94.3156 102.129 92.1268 102.047 89.9426C102.29 90.6816 102.559 91.4159 102.831 92.1455C103.008 92.6412 103.188 93.1393 103.368 93.6351C103.396 86.0631 103.244 78.4911 103.291 70.9168C103.305 68.4005 103.441 65.9077 103.67 63.4172C103.696 61.1115 103.895 59.5283 104.009 56.4813C104.023 55.9668 104.016 55.45 104.002 54.9356C104.117 54.6877 104.229 54.4398 104.346 54.1919C104.472 53.909 104.601 53.6284 104.729 53.3477C104.736 53.3454 104.743 53.3384 104.75 53.336C104.701 54.0353 104.652 54.7345 104.605 55.436C104.561 56.0884 104.512 56.7409 104.467 57.3957C104.711 56.5281 105.146 55.7073 106.02 55.4758C107.103 55.1905 108.209 55.5015 109.289 55.4617C109.467 55.146 109.773 54.9075 110.178 54.8935C110.36 54.1218 110.51 53.3431 110.655 52.5667C110.997 50.8058 111.081 49.0122 111.191 47.2256C111.364 42.3943 111.296 37.5536 111.38 32.72C111.375 32.4932 111.368 32.2687 111.364 32.0418C111.422 32.0208 111.481 31.9904 111.539 31.9483C111.958 31.5204 112.135 30.9685 112.213 30.3815C112.816 30.2576 113.101 28.8264 113.272 28.34C113.475 27.4701 113.508 26.5721 113.611 25.6859C113.864 24.7809 114.015 23.766 113.445 23.0434ZM13.8794 48.1516C13.8467 48.1984 13.8139 48.2428 13.7835 48.2896C13.7087 47.9669 13.6269 47.6442 13.5403 47.3238C13.5707 47.2747 13.6035 47.2233 13.6339 47.1742C13.7274 47.0268 13.8186 46.8772 13.9122 46.7298C13.8981 47.2046 13.8888 47.6769 13.8794 48.1516ZM13.9543 82.3659C13.8794 82.249 13.814 82.1251 13.7344 82.0152C13.828 81.8655 13.9239 81.7159 14.0174 81.5662C14.0221 81.8749 14.0267 82.1836 14.0361 82.4922C14.0104 82.4501 13.9823 82.408 13.9543 82.3659ZM15.1048 149.688C15.0931 149.097 15.0837 148.489 15.0744 147.871C15.3199 149.607 15.5561 151.342 15.7596 153.082C15.528 151.966 15.3106 150.832 15.1048 149.688ZM20.1185 160.193C20.0787 159.697 20.039 159.201 19.9992 158.708C20.0717 159.176 20.1442 159.643 20.2191 160.111C20.1816 160.134 20.1489 160.163 20.1185 160.193ZM29.5636 87.4872C29.5589 87.3142 29.5543 87.1411 29.5496 86.9681C29.5823 87.0944 29.6174 87.2206 29.6525 87.3446C29.6244 87.3913 29.594 87.4381 29.5636 87.4872ZM36.2797 186.831C36.2259 186.613 36.1722 186.396 36.116 186.176C36.1768 186.255 36.24 186.351 36.3148 186.466C36.3008 186.59 36.2914 186.711 36.2797 186.831ZM37.3367 124.148C37.2806 123.809 37.2245 123.467 37.1684 123.126C37.1684 123.123 37.1684 123.123 37.1684 123.121C37.2292 123.434 37.2876 123.748 37.3484 124.061C37.3437 124.091 37.3391 124.12 37.3367 124.148ZM38.2394 215.505C38.2043 215.486 38.1692 215.465 38.1365 215.444C38.1786 215.428 38.223 215.414 38.2651 215.397C38.3072 215.451 38.3516 215.5 38.3937 215.552C38.3423 215.54 38.2908 215.521 38.2394 215.505ZM40.7603 214.319C40.6644 214.226 40.5708 214.125 40.475 214.013C40.6129 213.899 40.7439 213.777 40.8702 213.653C40.9052 213.662 40.938 213.669 40.9731 213.679C40.8561 214.008 40.8023 214.191 40.7603 214.319ZM45.5495 89.1148C45.5237 89.1896 45.498 89.2621 45.4723 89.337C45.3998 88.8973 45.3273 88.4624 45.2571 88.0274C45.4583 87.6275 45.477 87.1762 45.5612 86.7436C45.6079 86.5261 45.65 86.3063 45.6874 86.0888C45.6383 87.0944 45.5939 88.1046 45.5495 89.1148ZM52.1907 24.4932C52.172 24.6499 52.1557 24.8066 52.137 24.9633C52.0902 25.0802 52.0434 25.1971 51.9967 25.314C52.0809 24.7668 52.1744 24.2056 52.2726 23.642C52.2843 23.6116 52.2936 23.5789 52.3053 23.5485C52.2656 23.8642 52.2258 24.1775 52.1907 24.4932ZM59.2343 210.854C59.2272 210.735 59.2132 210.622 59.1968 210.524C59.2179 210.529 59.2413 210.533 59.2623 210.538C59.3114 210.643 59.3629 210.751 59.4143 210.856C59.3535 210.854 59.2927 210.854 59.2343 210.854ZM61.9188 81.4446C61.9235 81.4563 61.9282 81.468 61.9329 81.4797C61.9352 81.8281 61.9375 82.1765 61.9399 82.525C61.9352 82.1648 61.9258 81.8047 61.9188 81.4446ZM68.4993 30.3324C68.4923 30.2623 68.4853 30.1921 68.4783 30.122C68.5274 30.0728 68.5765 30.0237 68.6279 29.977C68.6303 30.0752 68.6303 30.1734 68.6326 30.2693C68.5882 30.2903 68.5437 30.3114 68.4993 30.3324ZM72.1357 163.986C72.1637 163.939 72.1894 163.892 72.2105 163.846C72.2409 164.161 72.2713 164.477 72.2993 164.793C72.2456 164.526 72.1918 164.257 72.1357 163.986ZM81.1107 31.4245C81.071 31.3473 81.0312 31.2702 80.9915 31.193C80.9681 30.8235 80.9447 30.454 80.9213 30.0845C80.9728 30.122 81.0219 30.1594 81.0733 30.1968C81.092 30.2085 81.1084 30.2202 81.1271 30.2319C81.1224 30.6271 81.1178 31.0246 81.1107 31.4245ZM81.534 3.72518C81.4896 3.71349 81.4452 3.69946 81.4007 3.68777C81.3937 3.68543 81.3867 3.68543 81.382 3.68309C81.4334 3.61761 81.4849 3.55447 81.5387 3.48899C81.5363 3.56616 81.534 3.64567 81.534 3.72518ZM83.9964 11.4164C83.9871 11.1896 83.9801 10.9628 83.9707 10.7359C83.9871 10.7383 84.0011 10.7406 84.0175 10.743C84.0081 10.9675 84.0011 11.192 83.9964 11.4164ZM84.1554 207.856C84.1554 207.816 84.1578 207.776 84.1578 207.739C84.1741 207.783 84.1905 207.828 84.2069 207.872C84.2607 208.066 84.3074 208.256 84.3519 208.445C84.2864 208.249 84.2209 208.052 84.1554 207.856ZM84.5904 181.583C84.5577 181.473 84.5249 181.363 84.4922 181.253C84.4127 180.863 84.3308 180.472 84.2513 180.082C84.4197 180.781 84.5904 181.48 84.7658 182.179C84.7073 181.978 84.6512 181.779 84.5904 181.583ZM89.3048 141.291C89.3048 141.272 89.3024 141.254 89.3024 141.233C89.3866 141.88 89.4685 142.526 89.5527 143.178C89.4615 142.53 89.3796 141.899 89.3048 141.291ZM92.9598 105.561C92.9505 105.391 92.9411 105.218 92.9318 105.047C92.9575 104.925 92.9832 104.804 93.0066 104.684C92.9902 104.977 92.9738 105.269 92.9598 105.561ZM101.208 105.554C101.208 105.472 101.205 105.388 101.205 105.306C101.198 104.39 101.189 103.468 101.149 102.552C101.198 103.057 101.238 103.574 101.257 104.154C101.278 104.451 101.292 104.745 101.311 105.042C101.273 105.241 101.24 105.405 101.208 105.554Z" fill="#858585"/>
<path d="M53.5615 87.3469L55.7995 110.676" stroke="black" stroke-width="1.40309" stroke-miterlimit="10"/>
<path d="M63.2145 87.3048L61.9189 110.718" stroke="black" stroke-width="1.40309" stroke-miterlimit="10"/>
<path d="M65.5205 111.071L68.5114 87.9385" stroke="black" stroke-width="1.40309" stroke-miterlimit="10"/>
<path d="M58.6777 87.1388V110.453" stroke="black" stroke-width="1.40309" stroke-miterlimit="10"/>
<path d="M114.635 195.588C114.558 195.261 114.469 194.938 114.369 194.618C114.362 194.449 114.355 194.246 114.343 193.982C114.289 193.14 114.233 192.23 113.756 191.507C113.749 191.498 113.742 191.489 113.737 191.479C113.789 190.986 113.815 190.481 113.763 189.985C113.922 188.863 114.072 187.74 114.163 186.611C114.294 185.086 114.271 183.552 114.175 182.025C114.226 180.65 114.308 179.273 114.135 177.907C114.105 177.608 114.016 177.311 113.894 177.046C114.133 175.18 114.32 173.312 114.207 171.427C114.179 170.77 114.083 170.115 113.892 169.486C113.763 169.149 113.67 168.756 113.338 168.56C113.059 168.42 112.823 168.574 112.655 168.801C112.447 168.359 112.194 167.936 111.916 167.531C111.757 167.309 111.46 167.26 111.245 167.393C111.24 167.393 111.235 167.393 111.228 167.393C111.102 167.405 110.987 167.435 110.88 167.482C110.833 167.351 110.784 167.222 110.718 167.098C110.234 166.24 109.458 165.674 108.829 166.289C108.611 166.292 108.385 166.413 108.177 166.694C108.076 166.813 107.975 166.935 107.88 167.059C107.66 166.96 107.405 167.056 107.148 167.501C107.124 167.547 107.108 167.594 107.089 167.641C106.551 168.022 106.341 168.719 106.189 169.339C105.978 170.489 105.915 170.349 105.67 171.967C105.581 173.497 105.49 173.817 105.487 175.929C105.478 178.262 105.377 180.638 106.098 182.89C106.116 182.96 106.137 183.03 106.158 183.103C106.128 183.879 106.126 184.656 106.177 185.432C106.182 185.498 106.189 185.565 106.193 185.633C106.189 185.671 106.182 185.706 106.177 185.743C105.833 187.918 105.56 190.149 105.899 192.326C105.709 193.346 105.513 194.365 105.366 195.392C105.246 196.133 105.207 197.085 105.791 197.639C105.878 197.735 106.011 197.784 106.142 197.777C106.137 197.819 106.133 197.861 106.128 197.903C105.96 199.51 105.789 201.119 105.714 202.732C105.632 203.948 105.548 205.162 105.466 206.378C105.426 207.082 105.384 207.783 105.345 208.487C105.305 209.065 105.333 209.67 105.599 210.194C105.932 210.76 106.446 211.109 106.949 211.137C107.372 211.639 107.931 212.016 108.579 212.124C108.768 212.114 108.953 212.074 109.131 212.016C109.292 212.217 109.479 212.397 109.701 212.549C110.431 213.138 111.184 212.198 111.537 211.602C111.754 211.193 111.993 210.77 112.231 210.342C112.355 210.363 112.484 210.37 112.615 210.358C113.352 210.213 113.67 209.39 113.908 208.758C114.149 208.01 114.245 207.224 114.329 206.446C114.467 205.361 114.689 204.285 114.724 203.188C114.771 202.272 114.752 201.355 114.71 200.438C114.907 198.813 115.042 197.178 114.635 195.588Z" fill="#3D3D3D"/>
<path d="M12.6283 179.796C12.6797 178.99 12.7265 178.183 12.7522 177.376C12.8504 175.119 11.9338 174.016 11.2392 174.624C11.265 173.899 11.293 173.174 11.3117 172.451C11.3678 171.504 11.3234 170.541 10.9984 169.643C10.8885 169.332 10.7482 168.967 10.5587 168.691C10.5517 168.656 10.5447 168.618 10.5354 168.583C10.4231 168.24 10.3576 167.826 10.056 167.601C10.0045 167.533 9.93435 167.496 9.85017 167.491C9.61632 167.393 9.37548 167.608 9.13929 167.646C8.92415 167.713 8.70433 167.772 8.49621 167.861C8.36291 167.323 8.18518 166.797 7.95601 166.294C7.73385 165.831 7.28253 165.597 6.78911 165.864C6.32375 166.084 5.87711 166.341 5.51933 166.715C5.36265 166.902 5.22936 167.103 5.11009 167.311C4.57692 166.897 3.97357 167.648 3.714 168.698C3.6532 168.951 3.60877 169.203 3.56901 169.456C2.61024 168.796 2.22441 170.91 2.30158 171.591C2.4185 172.758 2.55646 173.924 2.67339 175.094C2.76926 175.695 2.91424 176.286 3.06858 176.876C3.04519 177.346 3.02882 177.816 3.01245 178.286C2.99141 178.814 2.97036 179.385 2.95399 180.026C2.9119 181.875 2.76694 183.727 2.86048 185.577C2.87918 185.993 2.91424 186.41 2.95633 186.824C2.95633 187.069 2.95633 187.315 2.95633 187.56C2.93763 187.876 2.94698 188.736 3.04286 189.625C2.76692 190.93 2.8137 192.335 2.73887 193.647C2.65001 197.022 2.39745 200.398 2.47462 203.775C2.51438 204.631 2.61258 205.482 2.72951 206.329C2.78329 206.869 2.84409 207.409 2.90489 207.949C3.12003 209.331 3.00546 210.875 3.79821 212.086C3.95723 212.285 4.16299 212.435 4.3641 212.589C4.42958 212.659 4.73124 212.937 4.85518 213.019C5.40004 213.276 5.84437 212.895 6.12733 212.411C6.27699 212.432 6.4243 212.409 6.58566 212.327C6.91772 212.846 7.30359 213.094 7.71516 212.753C8.52662 212.329 9.03639 211.586 9.33806 210.756C9.41055 210.882 9.48537 210.975 9.5602 211.043C9.54617 211.457 9.56957 211.866 9.66779 212.273C9.77302 212.767 10.3132 213.435 10.7832 212.858C11.1691 212.428 11.272 211.836 11.3842 211.286C11.5222 210.456 11.4754 209.614 11.4497 208.775C11.6041 207.316 11.7724 205.597 11.8028 204.472C11.8028 204.453 11.8028 204.435 11.8052 204.416C11.9455 203.89 12.0788 203.361 12.1817 202.828C12.3617 201.43 12.3594 200.013 12.3944 198.605C12.3921 197.885 12.3757 197.16 12.2588 196.446C12.1957 195.995 12.1326 195.513 11.8332 195.146C11.894 194.311 11.8122 193.458 11.8472 192.621C11.8496 192.151 11.8519 191.683 11.8566 191.213C11.9993 191.157 12.1396 191.016 12.2635 190.771C12.9346 188.8 12.7101 186.655 12.7522 184.602C12.7733 182.995 12.7452 181.394 12.6283 179.796Z" fill="#3D3D3D"/>
<path d="M108.63 15.3731C108.51 15.3474 108.386 15.3334 108.267 15.3357H108.265C108.204 15.3357 108.146 15.3404 108.087 15.3474C107.014 15.4176 107.465 15.4363 106.371 15.5322C105.826 15.5976 105.279 15.6561 104.734 15.5532C103.892 15.3965 103.038 15.4597 102.19 15.4971C101.221 15.4597 100.258 15.5345 99.2921 15.5462C97.1384 15.4597 94.9917 15.2235 92.8379 15.1627C90.1136 15.02 87.3869 15.1627 84.6626 15.2469C83.919 15.2562 83.1753 15.1463 82.4317 15.137C81.6039 15.1229 80.776 15.1674 79.9459 15.151C74.5861 15.0808 69.2356 14.6763 63.8735 14.7441C59.5473 14.5781 55.2211 14.9031 50.8973 14.9101C49.4802 14.9499 48.0654 14.847 46.6506 14.7909C44.7541 14.7862 42.8552 14.861 40.9587 14.7394C39.4761 14.5944 37.9959 14.4284 36.5109 14.3162C35.3861 14.26 34.259 14.2787 33.1342 14.2133C32.4443 14.1875 31.7638 14.08 31.081 14.0028C29.9749 13.9397 28.8665 13.9022 27.765 13.7806C25.4663 13.7689 23.1652 13.4603 20.8642 13.6661C19.4868 13.7385 18.8531 13.8438 17.9668 13.9373C16.3883 14.08 14.5316 14.253 13.4488 14.4144C13.374 14.4284 13.3273 14.4354 13.2922 14.4424C12.6982 14.4658 12.1019 14.5196 11.5103 14.4892C11.0987 14.419 10.6824 14.3325 10.2708 14.4144C10.1937 14.4354 10.1212 14.4658 10.0534 14.5009C9.60674 14.4144 9.13668 14.2787 8.71341 14.4682C8.19895 14.6552 7.88793 15.2609 8.04461 15.7894C8.33224 16.7482 9.33312 16.8745 9.88734 17.0685C11.1501 17.5035 12.4994 17.4614 13.816 17.5456C14.5082 17.5994 15.2027 17.6204 15.8949 17.6976C16.3977 17.7373 17.001 17.88 17.4547 17.6017C17.8686 17.6087 18.2848 17.6111 18.6987 17.6017C21.3015 17.6228 21.7972 17.7911 23.35 17.9548C24.5637 17.9852 25.7773 18.0788 26.991 18.0063C28.5508 18.1185 30.1129 18.163 31.6773 18.1583C32.3695 18.2261 33.064 18.177 33.7586 18.1746C34.5653 18.2378 35.3698 18.1302 36.1765 18.1372C37.4534 18.1442 38.7302 18.2308 40.007 18.198C41.8684 18.1606 43.7275 18.2074 45.5866 18.2448C48.1309 18.343 50.6775 18.4693 53.2264 18.3968C54.55 18.5067 55.8759 18.4459 57.2041 18.4436C58.9627 18.4459 60.7189 18.4646 62.4751 18.4132C64.416 18.4342 65.7162 18.5511 66.9088 18.6119C68.8661 18.5722 70.8235 18.7546 72.7808 18.6914C74.3569 18.7382 75.9237 18.6143 77.4928 18.4763C78.4609 18.4202 79.4267 18.4599 80.3949 18.3874C81.4893 18.315 82.5814 18.4155 83.6734 18.4903C85.0321 18.4389 85.8061 18.5207 86.4586 18.5815C87.74 18.619 89.0215 18.6517 90.303 18.6961C92.1691 18.7312 94.0235 19.0656 95.892 19.0048C98.0247 19.0492 100.143 18.771 102.269 18.6423C103.485 18.5792 104.699 18.5348 105.915 18.5511C106.684 18.626 107.451 18.4412 108.153 18.1302C108.405 18.0016 108.693 17.9081 108.938 17.7607C108.941 17.7584 108.943 17.7584 108.945 17.7561C109.088 17.6695 109.214 17.5643 109.31 17.4217C109.892 16.7458 109.49 15.5813 108.63 15.3731Z" fill="#545454"/>
<path d="M110.191 37.722C110.358 37.2613 110.287 36.7141 109.904 36.354C109.81 36.2628 109.707 36.195 109.6 36.1388C109.836 35.926 109.99 35.6314 110.004 35.1801C109.993 34.7428 109.813 34.413 109.539 34.1932C109.579 33.9454 109.551 33.7022 109.457 33.487C110.004 32.9538 110.465 32.2476 110.131 31.5601C109.939 31.1462 109.637 30.91 109.282 30.7884C109.134 30.3698 108.788 30.0167 108.33 29.8881C108.185 29.853 108.045 29.8437 107.904 29.8507C107.9 29.8483 107.893 29.8437 107.888 29.8413C107.579 29.6542 107.25 29.6566 106.92 29.7221C106.532 29.6753 106.144 29.6566 105.753 29.6963C105.269 29.7548 104.694 29.694 104.292 30.0074C104.249 30.0378 104.212 30.0682 104.179 30.1032C103.796 29.9232 103.328 29.9045 102.928 30.0448C102.69 30.0097 102.442 30.0448 102.227 30.171C102.133 30.2272 102.056 30.2926 101.983 30.3628C101.876 30.2318 101.743 30.1196 101.591 30.0331C100.933 29.708 100.19 29.6683 99.4696 29.6449C97.7905 29.5443 96.1115 29.6893 94.4325 29.7244C90.8616 29.8624 87.2954 30.0681 83.7222 30.1336C82.097 30.1523 80.4694 30.1921 78.8441 30.2412C76.5595 30.0261 74.2654 29.9255 71.9714 29.7992C69.703 29.6987 67.4324 29.5888 65.164 29.6051C61.5862 29.6472 58.0106 29.7945 54.4351 29.9325C54.1498 29.9138 53.8622 29.8951 53.5769 29.8764C50.6585 29.8109 47.74 29.8483 44.8216 29.8998C44.0639 29.9185 43.3039 29.9278 42.5463 29.9466C42.1651 29.9886 41.7512 29.9115 41.4004 30.0892C41.3606 30.1032 41.3232 30.1219 41.2858 30.1406C39.4454 30.1734 37.6051 30.2248 35.767 30.2833C35.5916 30.1243 35.3624 30.0003 35.0771 29.9349C34.2727 29.8624 33.4566 29.839 32.6334 29.8343C32.5001 29.7712 32.3552 29.7338 32.2008 29.7361C32.0044 29.7408 31.691 29.7291 31.7775 29.7501C31.4899 29.7244 31.2023 29.7571 30.9147 29.7992C30.592 29.7969 30.2716 29.7992 29.9489 29.8273C29.1608 29.8366 28.3844 29.8624 27.6127 29.8998C27.1544 29.8834 26.696 29.8647 26.2377 29.846C26.1371 29.708 26.0109 29.5864 25.8542 29.4976C25.6531 29.3689 25.4262 29.3339 25.1971 29.3198C25.1947 29.3198 25.1947 29.3198 25.1924 29.3198C25.1339 29.3152 25.0731 29.3128 25.0147 29.3105C24.6452 29.2661 24.271 29.259 23.8992 29.2731C22.6177 29.2871 21.3409 29.3362 20.0641 29.404C19.6642 29.4157 19.2643 29.4297 18.8668 29.4531C18.1863 29.5303 17.155 29.4929 16.2477 29.6449C16.0466 29.6566 15.8431 29.6683 15.642 29.687C15.2094 29.715 14.7417 29.7618 14.3956 30.0471C14.0963 30.288 13.9396 30.5803 13.8882 30.8749C13.7596 30.9591 13.6497 31.062 13.5561 31.1813C13.4743 30.6808 13.1001 30.3043 12.6347 30.136C12.4547 29.8062 12.125 29.5256 11.4772 29.3011C9.39363 28.4219 8.68271 30.4797 8.44886 32.3154C8.13785 32.872 7.90401 33.473 7.90869 34.1161C7.72629 34.8153 7.63976 35.5402 7.75902 36.2534C7.55791 36.7889 7.48074 37.3642 7.52284 37.9465C7.56025 38.5171 7.61872 39.1438 7.93675 39.6279C7.9765 39.9389 8.05133 40.2429 8.19164 40.5258C8.26413 40.6708 8.35534 40.8088 8.46291 40.9351C8.48629 41.3841 8.57514 41.8307 8.73883 42.2399C9.08493 42.8269 9.88704 42.9438 10.4436 42.586C11.1077 42.1604 11.6386 41.5641 12.1811 40.9982C12.4734 40.6474 12.9411 40.3224 12.9341 39.8243C12.9411 39.5975 12.8405 39.3893 12.6862 39.2397C13.0346 38.9146 13.3947 38.5802 13.6216 38.1593C13.7619 37.86 13.8601 37.5396 13.9069 37.2286C14.4985 37.3245 15.1018 37.266 15.6982 37.2847C15.7402 37.2894 15.7636 37.2894 15.773 37.2917C16.8323 37.5373 17.9267 37.4881 19.0048 37.5536C21.0159 37.7337 23.034 37.6939 25.0497 37.7103C26.6352 37.7477 28.2184 37.6635 29.8015 37.6097C31.7004 37.6191 33.5969 37.5583 35.4934 37.5373C36.1388 37.5443 36.7608 37.3993 37.3876 37.2824C38.1756 37.2052 38.9637 37.128 39.7564 37.0859C41.052 37.0953 42.3334 36.8404 43.6196 36.7141C45.2215 36.5598 46.8327 36.506 48.4369 36.3914C48.956 36.3283 49.5687 36.2581 50.2399 36.1856C52.2977 36.2417 54.3579 36.223 56.4111 36.375C57.6201 36.527 58.8384 36.5036 60.0521 36.5948C62.3625 36.7539 64.6753 36.9152 66.9857 37.0602C69.3499 37.266 71.7165 37.4648 74.0783 37.715C75.6521 37.8342 76.1689 38.0166 78.2011 38.1219C79.6182 38.2365 79.5153 38.2832 81.185 38.461C82.1344 38.5522 83.0885 38.5428 84.0379 38.6527C84.9663 38.7065 85.8993 38.6831 86.8277 38.7182C87.6088 38.7767 88.3852 38.8866 89.1709 38.9053C90.6769 38.8655 92.1805 38.8889 93.6865 38.8655C95.3164 38.8468 96.944 38.7813 98.5739 38.7579C98.934 38.7182 99.2965 38.6995 99.659 38.6808C99.666 38.7322 99.6707 38.7813 99.6847 38.8328C99.7759 39.4992 99.8577 39.9997 99.9162 40.3692C99.8998 40.9912 99.8694 41.6109 99.8063 42.2306C99.6122 45.011 99.4321 46.9496 99.21 48.8298C99.1866 48.9257 99.1632 49.0285 99.1328 49.1431C98.8662 50.6398 98.8662 51.0654 98.7423 51.8885C98.6043 52.8613 98.5388 53.3314 98.4734 53.9019C98.4126 54.2597 98.3541 54.6503 98.3143 55.0829C98.3003 55.2746 98.2839 55.464 98.2652 55.6535C98.008 57.0753 97.9589 57.4377 97.6993 59.2454C97.5216 60.8706 97.6829 62.5333 97.545 64.1702C97.4444 66.3871 97.2924 68.597 97.1895 70.8115C97.1264 72.3946 96.9066 73.9638 96.7943 75.5422C96.7195 79.1341 96.3687 82.7074 95.9969 86.2805C95.8238 89.3182 95.5713 92.3489 95.3772 95.3866C95.2977 96.7078 95.1106 98.0244 95.148 99.3503C95.2345 102.465 95.0171 105.587 94.8557 108.697C94.685 111.674 94.6757 114.656 94.5307 117.633C94.526 119.695 94.5283 121.758 94.4909 123.82C94.526 125.597 94.5471 127.375 94.4956 129.152C94.526 132.222 94.2056 135.293 94.3436 138.361C94.3366 141.422 94.5073 144.481 94.4184 147.539C94.3062 149.763 94.1098 151.98 93.9952 154.204C93.9227 157.314 93.766 160.422 93.6958 163.535C93.5532 168.801 93.7005 174.065 93.8291 179.329C93.8619 180.963 93.9063 182.6 93.9601 184.235C93.9788 185.636 93.9998 187.036 94.0256 188.437C94.1495 193.708 94.7084 198.96 95.1504 204.208C95.3632 205.648 95.5128 207.105 95.866 208.515C95.8706 208.756 95.873 208.995 95.873 209.235C95.887 210.187 95.9525 211.139 96.0086 212.088C95.7373 212.608 95.4333 213.101 95.0872 213.566C94.6429 213.597 94.1846 213.772 93.7566 213.819C93.7099 213.826 93.6491 213.838 93.5836 213.847C92.9475 213.746 92.2717 213.896 91.6333 213.919C90.8733 214.015 90.1133 214.086 89.351 214.146C89.1873 213.948 88.9651 213.798 88.7008 213.739C87.7234 213.608 86.7248 213.856 85.7403 213.824C83.6076 213.669 81.4703 213.648 79.3329 213.618C79.092 213.625 78.8535 213.637 78.6126 213.644C78.7974 213.08 78.5635 212.406 78.0327 212.112C77.6469 211.866 77.1955 211.894 76.7559 211.852C76.0894 211.735 75.4346 211.906 74.7775 212.011C73.4539 212.145 72.1327 212.28 70.8115 212.435C69.8948 212.556 68.9804 212.699 68.0614 212.823C68.0544 212.823 68.0497 212.825 68.0427 212.825C67.9305 212.839 67.8159 212.853 67.7036 212.867C67.2032 212.921 66.7004 212.916 66.2 212.961C66.1673 212.93 66.1345 212.9 66.0971 212.874C65.8586 212.638 65.5125 212.617 65.1968 212.568C63.7282 212.325 62.2292 212.385 60.749 212.446C58.3567 212.565 55.9621 212.692 53.5699 212.565C52.4474 212.542 52.7046 212.409 51.2407 212.397C50.6514 212.369 50.0692 212.266 49.4775 212.313C48.0861 212.259 46.6877 212.173 45.301 212.341C44.7982 212.397 44.2931 212.432 43.788 212.409C43.2197 212.47 42.6538 212.572 42.0903 212.671C41.5618 212.75 41.0567 212.926 40.5352 213.031C39.5787 213.202 38.6106 213.318 37.6495 213.47C35.8161 213.753 35 213.905 32.6662 213.938C31.2678 214.128 29.8623 213.917 28.4593 213.948C26.654 214.039 24.8393 213.681 23.041 213.98C22.6294 214.057 22.1617 214.015 21.8297 214.291C21.5444 214.252 21.2567 214.212 20.9691 214.179C21.1959 214.266 21.4204 214.354 21.6449 214.446C21.369 214.731 21.2708 215.182 21.376 215.561C21.5748 216.167 22.0121 216.405 22.5219 216.419V216.433C22.5756 216.429 22.6294 216.422 22.6855 216.417C24.1354 216.309 25.5853 216.445 27.0304 216.557C28.2184 216.581 29.411 216.515 30.599 216.599C31.6256 216.707 32.6405 216.496 33.6671 216.503C35.2713 216.475 36.8614 216.228 38.4492 215.97C38.4773 216.511 38.8445 217.032 39.3987 217.177C39.6185 217.235 39.8383 217.238 40.0581 217.184C40.3364 217.156 40.617 217.14 40.8976 217.121C42.2446 217.037 43.1262 216.892 43.9587 216.772C45.6424 216.702 47.3261 216.875 49.0098 216.854C52.0826 216.887 55.1623 216.822 58.2281 216.597C58.6584 216.995 59.2477 216.915 59.7926 216.938C60.9057 217.013 62.0211 217.095 63.1342 216.995C65.2646 216.887 67.3973 216.812 69.5276 216.721C69.5019 217.086 69.6188 217.462 69.8971 217.729C70.2432 218.091 70.7717 218.147 71.2488 218.143C71.8825 218.131 72.5162 218.105 73.15 218.084C75.0394 218.052 76.9173 217.872 78.7974 217.687C81.178 217.49 83.5562 217.275 85.9298 217.011C86.0233 217.126 86.1379 217.228 86.2829 217.313C86.6804 217.57 87.1645 217.472 87.6088 217.441C88.6845 217.362 89.7602 217.249 90.8265 217.081C91.5678 216.971 92.3091 216.857 93.0504 216.751C93.5579 216.655 94.1355 216.658 94.547 216.312C94.7224 216.188 94.8464 216.029 94.9282 215.856C95.134 215.79 95.3398 215.727 95.5456 215.669C95.5456 215.666 95.5456 215.664 95.5432 215.664C95.6742 215.622 95.7981 215.563 95.9104 215.477C96.1021 215.346 96.2238 215.157 96.2846 214.946C96.3454 215.084 96.4295 215.213 96.5441 215.323C96.9417 215.725 97.5707 215.797 98.0595 215.554C98.0899 215.718 98.1203 215.879 98.1507 216.043C98.2629 215.765 98.3915 215.498 98.5412 215.262C98.5762 215.093 98.623 214.927 98.6815 214.757C98.6815 214.67 98.6815 214.584 98.6815 214.497C98.6815 213.704 99.6847 212.972 100.403 213.51C100.482 213.569 100.557 213.625 100.627 213.679C100.59 213.433 100.552 213.185 100.517 212.94C100.496 212.762 100.452 212.399 100.438 212.233C100.419 212.011 100.396 211.789 100.375 211.567C100.742 211.658 101.177 211.513 101.361 211.151C101.539 210.833 101.525 210.473 101.474 210.122C101.464 210.035 101.457 209.949 101.448 209.862C101.455 209.727 101.462 209.591 101.471 209.455C101.492 209.306 101.516 209.158 101.534 209.009C101.616 208.679 101.588 208.293 101.406 208.017C101.401 207.875 101.399 207.734 101.396 207.592C101.502 207.266 101.633 206.951 101.792 206.647C101.647 206.778 101.518 206.92 101.394 207.065C101.387 206.993 101.368 206.923 101.333 206.855C101.273 206.68 101.125 206.539 100.952 206.46C101.179 205.749 101.439 205.047 101.609 204.32C101.663 203.735 101.946 202.503 102.072 201.023C102.192 200.097 102.133 199.164 102.112 198.233C102.163 195.637 102.084 193.042 102.007 190.448C101.885 188.874 101.686 187.303 101.656 185.724C101.565 184.158 101.656 182.591 101.598 181.024C101.565 179.969 101.403 178.922 101.413 177.867C101.476 175.108 101.509 172.351 101.268 169.598C101.193 167.208 101.191 164.816 101.214 162.424C101.399 160.509 101.392 158.811 101.392 156.898C101.396 156.091 101.378 155.282 101.38 154.473C101.387 154.398 101.392 154.321 101.399 154.246C101.434 153.563 101.462 152.883 101.488 152.2C101.518 151.966 101.551 151.707 101.551 151.597C101.628 150.689 101.647 149.78 101.707 148.872C101.881 146.761 102.089 144.651 102.112 142.528C102.138 141.569 102.201 140.61 102.217 139.649C102.213 139.088 102.185 138.527 102.163 137.966C102.21 137.902 102.252 137.837 102.285 137.762C102.533 137.294 102.489 136.768 102.393 136.266C102.304 135.665 102.215 135.066 102.126 134.465C102.159 131.593 102.313 128.724 102.231 125.85C102.266 124.01 102.201 122.298 102.084 120.462C102.089 120.114 102.089 119.765 102.086 119.417C102.121 119.234 102.112 119.052 102.079 118.87C102.07 118.042 102.047 117.216 102.018 116.388C102.091 115.06 102.163 113.732 102.224 112.404C102.386 108.005 102.292 103.595 102.636 99.203C102.746 97.3743 102.802 95.5433 102.881 93.7122C103.038 91.3714 103.305 89.0353 103.333 86.6898C103.347 81.6574 102.914 76.6437 102.874 71.6136C102.732 66.6256 102.865 61.6376 102.895 56.6497C102.879 55.1437 102.9 53.6377 102.928 52.1317C103.106 50.9578 103.284 49.7815 103.454 48.6053C103.611 47.6956 103.805 46.7906 103.854 45.8646C104.009 43.8886 104.273 41.8868 103.934 39.9155C103.917 39.822 103.903 39.7284 103.892 39.6302C104.025 39.7401 104.179 39.8266 104.352 39.8874C104.61 40.0909 104.96 40.0885 105.302 40.0511C105.608 40.0652 105.914 40.0511 106.181 40.0348C106.679 40.0137 107.173 39.974 107.668 39.9178C107.86 39.8898 108.068 39.8687 108.258 39.8103C108.664 39.9997 109.083 40.1821 109.497 40.3575C109.446 40.3154 109.392 40.2756 109.34 40.2335C109.125 40.0815 108.924 39.9085 108.721 39.7378C108.751 39.7354 108.781 39.7331 108.812 39.7308C109.078 39.698 109.364 39.7308 109.605 39.5928C110.339 39.3426 110.589 38.3604 110.191 37.722ZM95.7888 213.7C95.7326 213.669 95.6765 213.648 95.6181 213.627C95.7163 213.393 95.8005 213.152 95.8589 212.905C95.9127 212.706 95.9618 212.507 96.0109 212.311C96.0226 212.509 96.0343 212.71 96.0437 212.909C96.0671 213.274 96.0904 213.637 96.1162 214.001C96.0343 213.88 95.9244 213.774 95.7888 213.7Z" fill="#545454"/>
<path d="M24.6325 21.8344C23.9754 21.7221 23.3159 21.6309 22.6564 21.5538C22.4249 21.5 22.1911 21.4602 21.9596 21.4228C21.3726 21.3199 20.7927 21.1632 20.201 21.0884C18.2694 20.9645 16.3145 20.7096 14.3876 20.9832C14.121 20.9972 13.8614 21.0416 13.6065 21.1024C13.375 21.1071 13.1435 21.1118 12.912 21.1141C11.9626 21.0744 11.0225 20.92 10.0707 20.899C9.11898 20.9083 8.48056 20.9902 8.38936 21.0112C6.74775 21.0907 6.549 23.1813 7.91233 23.5812C8.00353 23.7285 8.12514 23.8501 8.26779 23.9484C8.46422 24.3459 8.85475 24.6593 9.35284 24.7294C10.2649 24.8557 11.1932 24.7598 12.1146 24.7177C12.9377 24.8159 13.7655 24.8861 14.5934 24.9469C17.1189 25.0451 19.6421 25.0919 22.17 25.0568C22.6728 25.1012 23.1756 25.1597 23.6737 25.0708C23.7509 25.0545 23.8187 25.0451 23.8818 25.0381C24.1858 25.0895 24.5179 25.0474 24.7891 24.9001C24.9458 24.8533 25.1306 24.7855 25.3668 24.6873C25.5094 24.6218 25.6193 24.5774 25.7339 24.4348C26.6506 23.3661 25.9373 22.0542 24.6325 21.8344Z" fill="#ADADAD"/>
<path d="M23.7166 206.75C23.7143 206.752 23.7119 206.752 23.7119 206.754C23.7518 206.724 23.7683 206.712 23.7166 206.75Z" fill="#ADADAD"/>
<path d="M25.368 178.583C25.4265 177.119 25.5972 175.664 25.5878 174.198C25.6673 171.52 25.817 168.845 25.8404 166.168C25.8497 165.464 25.8123 164.762 25.7913 164.058C25.7726 163.301 25.803 162.531 25.5902 161.797C25.4405 161.341 25.3914 160.82 25.0336 160.469C24.3368 159.858 23.5931 160.032 23.0389 160.534C22.2438 161.063 21.8931 162.515 21.7691 163.427C21.4908 164.655 21.3903 165.901 21.3552 167.157C21.2944 169.537 21.2687 171.918 21.2032 174.299C21.0909 177.079 20.6139 179.836 20.6957 182.621C20.6583 185.13 20.6911 187.637 20.9249 190.137C21.0606 192.298 21.3084 193.551 21.5095 195.438C21.5399 195.665 21.568 195.866 21.5961 196.051C21.5937 196.112 21.5914 196.173 21.589 196.234C21.5212 196.958 21.4113 197.681 21.3739 198.408C21.3949 199.012 21.4019 199.613 21.3973 200.216C21.3458 200.995 21.2944 201.773 21.2499 202.552C21.2803 203.918 20.7799 206.345 22.2929 207.023C22.7489 207.255 23.3569 207.114 23.7147 206.759C23.675 206.789 23.6118 206.839 23.565 206.871C24.774 205.945 24.7226 204.205 24.9214 202.823C25.0173 202 25.071 201.177 25.0921 200.347C25.1599 198.883 25.2909 197.419 25.3096 195.953C25.3563 193.285 25.2558 190.621 25.2277 187.953C25.2371 186.127 25.4125 184.31 25.4779 182.486C25.4242 181.719 25.3797 180.949 25.3376 180.182C25.3353 179.647 25.3353 179.114 25.368 178.583Z" fill="#ADADAD"/>
<path d="M48.5615 88.0157L51.5384 110.994" stroke="black" stroke-width="1.40309" stroke-miterlimit="10"/>
<path d="M9.06944 16.5284C8.28839 13.7643 9.15128 10.895 9.50673 8.12855C9.69615 6.63894 7.35767 6.65297 7.16825 8.12855C6.78007 11.1522 5.95926 14.1268 6.81514 17.1504C7.22437 18.5956 9.48101 17.9806 9.06944 16.5284Z" fill="black"/>
<path d="M9.37024 9.22064C15.1463 6.68339 21.7385 6.03797 27.9401 5.27095C34.4364 4.46885 40.9654 3.93334 47.5062 3.66909C60.5876 3.13826 73.7112 3.68312 86.7038 5.30369C94.0045 6.2157 101.354 7.33817 108.37 9.61819C109.803 10.0835 110.418 7.82691 108.992 7.36389C102.666 5.30837 96.0811 4.22331 89.5053 3.33235C82.8383 2.42736 76.1385 1.7913 69.4201 1.44754C56.0416 0.762364 42.6047 1.202 29.3011 2.76878C22.2202 3.60128 14.7815 4.3075 8.19163 7.2002C6.81427 7.80586 8.00223 9.82163 9.37024 9.22064Z" fill="black"/>
<path d="M107.232 9.49421C109.554 10.9394 108.336 15.013 108.067 17.1948C107.884 18.6844 110.223 18.6727 110.405 17.1948C110.812 13.8859 111.804 9.58307 108.411 7.47376C107.129 6.67634 105.955 8.69912 107.232 9.49421Z" fill="black"/>
<path d="M5.6872 18.5441C33.176 18.6119 60.6649 18.6797 88.1561 18.7452C95.9222 18.7639 103.686 18.7826 111.452 18.8013C112.958 18.806 112.958 16.4675 111.452 16.4629C83.9632 16.395 56.4743 16.3272 28.9831 16.2617C21.217 16.243 13.4533 16.2243 5.6872 16.2056C4.18356 16.2033 4.18122 18.5418 5.6872 18.5441Z" fill="black"/>
<path d="M111.313 18.8318C111.823 18.633 111.94 18.8154 112.218 19.5239C112.484 20.1951 112.613 20.9481 112.702 21.6613C112.973 23.8688 112.767 26.2401 111.245 27.9776C110.258 29.1047 111.904 30.765 112.898 29.6309C115.075 27.1427 115.415 23.9063 114.916 20.747C114.589 18.6727 113.406 15.5135 110.688 16.5751C109.304 17.12 109.907 19.3813 111.313 18.8318Z" fill="black"/>
<path d="M7.83417 16.5845C5.10049 15.3287 2.99821 17.5409 2.1166 20.008C0.973084 23.2047 1.99266 26.5698 3.60153 29.3994C4.34517 30.7066 6.36795 29.5303 5.61964 28.2184C4.60708 26.4389 3.81433 24.4722 3.98036 22.3839C4.05987 21.4064 4.99527 17.8426 6.65092 18.6026C8.00957 19.227 9.19985 17.2135 7.83417 16.5845Z" fill="black"/>
<path d="M110.688 28.1015C109.341 28.6043 107.643 28.2956 106.219 28.305C104.357 28.3166 102.493 28.326 100.632 28.3307C97.2179 28.3424 93.8037 28.3447 90.3895 28.3424C83.5611 28.3377 76.7328 28.3073 69.9044 28.2675C56.0957 28.1857 42.2846 28.0664 28.4759 28.0313C20.7191 28.0103 12.9624 28.0197 5.20566 28.0734C3.70202 28.0851 3.69734 30.4236 5.20566 30.4119C32.9798 30.2155 60.7539 30.6411 88.5281 30.6809C92.4076 30.6855 96.2872 30.6855 100.167 30.6715C102.185 30.6645 104.201 30.6551 106.219 30.6434C107.877 30.6341 109.729 30.9474 111.31 30.3558C112.706 29.8343 112.102 27.573 110.688 28.1015Z" fill="black"/>
<path d="M100.632 5.26156C100.646 4.66993 100.384 2.79447 100.987 2.42031C101.261 2.25194 102.163 2.47409 102.465 2.49748C102.979 2.53723 103.599 2.67988 104.114 2.62142C104.71 2.5536 104.705 2.53723 104.874 3.21539C104.995 3.70881 104.962 4.23965 104.96 4.74242C104.958 5.73393 104.965 6.69271 105.231 7.65617C105.631 9.10369 107.888 8.48867 107.486 7.03413C107.053 5.46969 107.532 3.80937 107.032 2.24726C106.443 0.409215 105.21 0.364784 103.496 0.233829C102.088 0.126259 100.307 -0.304022 99.2075 0.851187C98.1318 1.98067 98.3306 3.82807 98.2955 5.25922C98.2534 6.76754 100.592 6.7652 100.632 5.26156Z" fill="black"/>
<path d="M12.0606 31.5905C12.1494 54.9473 12.3575 78.304 12.6919 101.661C13.0263 125.017 13.4823 148.37 14.0623 171.719C14.3873 184.796 14.7521 197.871 15.1544 210.945C15.2011 212.446 17.5396 212.453 17.4928 210.945C16.7749 187.598 16.1786 164.248 15.7086 140.896C15.2386 117.544 14.8878 94.187 14.6633 70.8302C14.537 57.7511 14.4505 44.6696 14.4014 31.5905C14.392 30.0845 12.0535 30.0822 12.0606 31.5905Z" fill="black"/>
<path d="M11.784 30.0074C11.6904 30.5663 11.6811 31.1205 11.8916 31.6583C12.1067 32.2055 12.558 32.5797 13.1754 32.4955C13.7787 32.4137 14.1412 31.9343 14.1903 31.3473C14.2394 30.7487 14.2908 30.1477 14.3399 29.549C14.3914 28.9387 13.7647 28.3541 13.1707 28.3798C12.4925 28.4102 12.0552 28.8942 12.0015 29.549C11.9523 30.1477 11.9009 30.7487 11.8518 31.3473C12.6165 31.2444 13.3835 31.1392 14.1482 31.0363C14.1178 30.9638 14.092 30.8913 14.071 30.8165C14.0453 30.6902 14.0383 30.6645 14.0476 30.7416C14.0687 30.8936 14.0874 30.3581 14.0406 30.6271C14.1412 30.0261 13.8816 29.3386 13.2245 29.1889C12.6562 29.0626 11.8939 29.3619 11.784 30.0074Z" fill="black"/>
<path d="M7.0441 30.1266C7.01136 35.4607 6.97861 40.7948 6.94353 46.1289C6.93651 47.4103 6.92013 48.6942 6.93182 49.9757C6.94118 50.9952 6.86401 52.1387 7.34106 53.0741C8.33024 55.0221 11.4053 55.2559 13.3018 55.3284C14.8078 55.3869 14.8031 53.0484 13.3018 52.99C12.2051 52.9479 11.0499 52.8146 10.021 52.3983C8.99906 51.9844 9.27498 50.6725 9.26796 49.7488C9.25393 47.6278 9.28434 45.5045 9.29837 43.3835C9.32643 38.9637 9.35217 34.544 9.38024 30.1243C9.39193 28.623 7.05345 28.6206 7.0441 30.1266Z" fill="black"/>
<path d="M35.45 30.0588C35.5272 31.8992 34.987 33.7863 35.5412 35.5963C35.9855 37.0462 37.2062 38.3464 38.7824 38.4703C43.0524 38.8094 42.732 32.9164 42.8934 30.1781C42.9823 28.6744 40.6438 28.6791 40.5549 30.1781C40.4894 31.2795 40.8098 36.6229 38.7753 36.1014C36.7736 35.5893 37.847 31.4292 37.7885 30.0611C37.723 28.5598 35.3845 28.5528 35.45 30.0588Z" fill="black"/>
<path d="M74.9762 29.687C75.0043 32.5189 74.4664 37.9184 78.5962 38.1242C82.4827 38.3183 83.1305 33.1409 83.0884 30.2739C83.0673 28.7703 80.7288 28.7656 80.7499 30.2739C80.7686 31.497 80.668 36.1342 78.6149 35.7857C77.4316 35.5846 77.3778 33.9477 77.3497 33.0334C77.3147 31.9202 77.3263 30.8024 77.317 29.6893C77.3006 28.1833 74.9622 28.181 74.9762 29.687Z" fill="black"/>
<path d="M12.7803 7.71698C13.241 7.12768 13.3954 6.59451 13.4585 5.86256C13.531 5.03474 13.7976 3.70882 13.6245 2.8997C13.7508 2.2309 13.5707 2.30106 13.0843 3.10549C13.2293 3.10783 13.3743 3.10783 13.5193 3.11017C13.9893 3.26217 14.7657 3.12186 15.2614 3.12654C15.6964 3.13121 16.1337 3.13589 16.5687 3.14057C16.8587 3.14291 17.1486 3.14525 17.4409 3.14992C17.939 3.16863 18.0209 3.16395 17.6888 3.13355C17.5087 2.8997 17.331 2.6682 17.151 2.43435C17.2539 2.96752 17.1533 3.61762 17.151 4.16015C17.1439 5.66613 19.4824 5.66613 19.4894 4.16015C19.4941 3.01897 19.8215 1.31889 18.4114 0.881599C17.7894 0.689844 16.9896 0.806766 16.3488 0.799751C15.5491 0.792735 14.7517 0.783384 13.9519 0.776368C12.7102 0.764676 11.5807 0.820798 11.3305 2.25896C11.2229 2.87866 11.244 3.54279 11.2089 4.1695C11.1855 4.59043 11.2486 5.89997 11.12 6.06367C10.2127 7.23525 11.8566 8.90258 12.7803 7.71698Z" fill="black"/>
<path d="M14.9583 190.633C14.2731 190.521 13.5973 190.46 12.9028 190.504C12.2948 190.544 11.7031 191.014 11.7335 191.674C11.7593 192.275 12.248 192.885 12.9028 192.843C13.1717 192.826 13.4406 192.819 13.7095 192.829C13.8452 192.833 13.9785 192.845 14.1118 192.857C14.1562 192.862 14.2006 192.866 14.2451 192.871C14.1562 192.859 14.1866 192.864 14.3339 192.887C14.9349 192.988 15.6224 192.731 15.7721 192.071C15.9031 191.508 15.6037 190.74 14.9583 190.633Z" fill="black"/>
<path d="M14.6961 186.538C14.0202 186.403 13.3327 186.321 12.6429 186.316C12.0302 186.311 11.4456 186.859 11.4736 187.485C11.5017 188.124 11.9881 188.648 12.6429 188.655C13.2158 188.659 13.5759 188.694 14.0764 188.795C14.675 188.914 15.3672 188.624 15.5145 187.979C15.6455 187.394 15.3368 186.667 14.6961 186.538Z" fill="black"/>
<path d="M103.55 30.8375C102.685 54.3182 102.014 77.8059 101.546 101.298C101.081 124.634 100.812 147.977 100.74 171.317C100.7 184.544 100.723 197.77 100.807 210.996C100.817 212.5 103.155 212.505 103.146 210.996C102.994 187.499 103.041 164.002 103.286 140.505C103.532 117.165 103.974 93.8268 104.612 70.4935C104.975 57.2717 105.4 44.0523 105.887 30.8328C105.945 29.3339 103.607 29.3362 103.55 30.8375Z" fill="black"/>
<path d="M105.158 55.436C106.285 55.2045 107.429 55.6465 108.57 55.4196C109.428 55.2489 110.216 54.7999 110.667 54.0329C111.229 53.0788 111.173 51.8628 111.229 50.7941C111.301 49.4074 111.362 48.0207 111.409 46.6316C111.591 41.1549 111.558 35.6758 111.325 30.2015C111.261 28.7025 108.923 28.6931 108.986 30.2015C109.187 34.9041 109.241 39.6115 109.136 44.3165C109.084 46.6316 108.993 48.9444 108.867 51.2548C108.808 52.3048 108.881 53.1326 107.627 53.1653C106.563 53.1934 105.605 52.9596 104.538 53.1794C103.063 53.4834 103.687 55.74 105.158 55.436Z" fill="black"/>
<path d="M100.798 209.554C101.715 211.48 95.0362 212.491 93.9933 212.566C91.2666 212.762 88.5329 212.437 85.8133 212.283C80.0816 211.958 74.336 212.014 68.5997 212.058C57.0359 212.145 45.4698 212.233 33.906 212.32C30.6462 212.346 27.3863 212.369 24.1265 212.395C21.9213 212.411 17.546 213.038 17.0198 210.012C16.7626 208.532 14.5083 209.158 14.7655 210.634C15.2145 213.213 17.719 214.434 20.0903 214.68C23.17 214.998 26.3878 214.717 29.4816 214.694C36.0785 214.644 42.6753 214.593 49.2745 214.544C62.2554 214.446 75.3345 213.887 88.292 214.785C91.6945 215.021 95.1251 215.136 98.4177 214.09C100.92 213.297 104.325 211.539 102.819 208.375C102.171 207.016 100.153 208.2 100.798 209.554Z" fill="black"/>
<path d="M103.263 188.622C103.768 188.652 104.271 188.683 104.776 188.713C105.389 188.75 105.973 188.149 105.945 187.544C105.915 186.88 105.431 186.414 104.776 186.375C104.271 186.344 103.768 186.314 103.263 186.283C102.65 186.246 102.066 186.847 102.094 187.453C102.124 188.117 102.608 188.582 103.263 188.622Z" fill="black"/>
<path d="M103.073 192.911C103.283 192.899 103.484 192.908 103.695 192.922C103.784 192.932 103.758 192.929 103.62 192.913C103.667 192.92 103.713 192.929 103.76 192.941C103.87 192.964 103.978 192.992 104.085 193.025C104.672 193.198 105.385 192.817 105.523 192.209C105.666 191.582 105.334 190.956 104.707 190.771C104.183 190.617 103.62 190.544 103.073 190.574C102.462 190.61 101.873 191.087 101.903 191.744C101.932 192.347 102.418 192.948 103.073 192.911Z" fill="black"/>
<path d="M106.197 207.954C106.561 195.481 106.83 183.002 107.006 170.524C107.027 169.018 104.688 169.018 104.667 170.524C104.492 183.002 104.223 195.481 103.858 207.954C103.814 209.458 106.152 209.458 106.197 207.954Z" fill="black"/>
<path d="M106.819 171.114C106.987 170.466 107.197 169.563 107.667 169.063C108.215 168.481 109.541 168.247 110.298 168.16C112.148 167.95 113.436 169.479 113.659 171.219C113.846 172.692 116.186 172.711 115.997 171.219C115.646 168.462 113.785 165.801 110.759 165.791C109.417 165.787 107.623 166.189 106.508 166.965C105.413 167.725 104.885 169.262 104.564 170.494C104.185 171.948 106.44 172.571 106.819 171.114Z" fill="black"/>
<path d="M103.755 205.964C103.549 208.794 105.438 212.231 108.265 213.082C111.182 213.962 114.481 212.098 115.604 209.388C116.179 207.998 113.918 207.393 113.349 208.766C112.674 210.395 110.157 211.471 108.555 210.688C106.912 209.886 105.967 207.697 106.093 205.964C106.203 204.463 103.864 204.47 103.755 205.964Z" fill="black"/>
<path d="M115.906 209.016C116.305 205.868 116.144 202.636 116.165 199.47C116.186 196.301 116.207 193.133 116.228 189.964C116.27 183.55 116.312 177.133 116.355 170.718C116.364 169.212 114.025 169.212 114.016 170.718C113.974 177.133 113.932 183.55 113.89 189.964C113.869 193.133 113.848 196.301 113.827 199.47C113.806 202.636 113.967 205.868 113.567 209.016C113.378 210.505 115.716 210.491 115.906 209.016Z" fill="black"/>
<path d="M3.25743 208.59C3.26912 196.423 3.27848 184.258 3.29017 172.091C3.29251 170.587 0.954026 170.585 0.951687 172.091C0.939995 184.258 0.930638 196.423 0.918945 208.59C0.918945 210.096 3.25743 210.098 3.25743 208.59Z" fill="black"/>
<path d="M11.1953 171.539C11.3543 183.667 11.2841 195.796 10.9848 207.921C10.9474 209.427 13.2859 209.425 13.3233 207.921C13.6226 195.796 13.6928 183.667 13.5337 171.539C13.5127 170.036 11.1742 170.031 11.1953 171.539Z" fill="black"/>
<path d="M3.27003 172.554C3.11569 170.648 3.719 168.317 5.94757 168.067C7.84174 167.854 11.3728 169.056 11.1226 171.408C10.9636 172.903 13.3044 172.891 13.4611 171.408C13.854 167.688 9.11154 165.504 5.98032 165.721C2.43284 165.967 0.664958 169.28 0.931545 172.554C1.05315 174.044 3.39163 174.058 3.27003 172.554Z" fill="black"/>
<path d="M1.08909 207.383C0.780408 211.064 3.18204 214.425 7.12004 214.067C8.79673 213.915 10.9201 213.138 12.0168 211.799C13.2515 210.286 13.3193 207.896 13.1276 206.048C12.9732 204.566 10.6324 204.552 10.7891 206.048C10.9177 207.278 10.9762 208.723 10.4547 209.881C9.96363 210.971 8.30098 211.551 7.18552 211.717C4.42378 212.128 3.2288 209.792 3.42991 207.383C3.55385 205.884 1.21303 205.894 1.08909 207.383Z" fill="black"/>
<path d="M18.3697 213.499C18.1172 215.367 19.1812 217.266 21.1151 217.682C21.7325 217.815 22.3802 217.5 22.5533 216.866C22.7146 216.284 22.3569 215.561 21.7372 215.428C21.3864 215.353 21.1128 215.215 20.8906 214.909C20.7316 214.689 20.6007 214.298 20.6264 214.121C20.7106 213.496 20.4767 212.865 19.8103 212.682C19.2631 212.533 18.4539 212.87 18.3697 213.499Z" fill="black"/>
<path d="M96.8645 213.333C96.9441 214.371 96.4506 215.475 95.4264 215.879C94.8394 216.111 94.4302 216.663 94.6102 217.317C94.7646 217.876 95.4568 218.367 96.0484 218.133C98.001 217.362 99.3691 215.484 99.203 213.333C99.0884 211.843 96.7476 211.829 96.8645 213.333Z" fill="black"/>
<path d="M21.7853 218.08C26.2962 217.537 31.0036 217.937 35.5379 217.972C40.2897 218.01 45.0438 218.047 49.7956 218.084C59.3015 218.159 68.8075 218.234 78.3134 218.309C83.7667 218.351 89.2224 218.395 94.6757 218.437C96.1817 218.449 96.1817 216.111 94.6757 216.099C75.6639 215.949 56.6521 215.8 37.6425 215.648C34.9159 215.627 32.1892 215.606 29.4625 215.582C26.9089 215.561 24.3272 215.433 21.7876 215.737C20.3097 215.919 20.291 218.26 21.7853 218.08Z" fill="black"/>
<path d="M71.172 99.7923C70.9802 100.176 70.7884 100.562 70.5943 100.945C70.5242 101.085 70.4915 101.24 70.5359 101.397C70.5733 101.532 70.6785 101.679 70.8048 101.745C70.9404 101.817 71.1042 101.853 71.2562 101.803C71.3965 101.759 71.5368 101.67 71.6046 101.534C71.7963 101.151 71.9881 100.765 72.1822 100.382C72.2523 100.241 72.2851 100.087 72.2406 99.9303C72.2032 99.7947 72.098 99.6473 71.9717 99.5819C71.8361 99.5094 71.6724 99.4743 71.5204 99.5234C71.3824 99.5678 71.2398 99.6567 71.172 99.7923Z" fill="black"/>
<path d="M47.3241 114.511C47.1043 107.965 46.7676 101.422 46.3116 94.8885C46.183 93.0318 46.0427 91.1773 45.8953 89.3229C45.8696 89.0072 45.6451 88.7383 45.3107 88.7383C45.0137 88.7383 44.7004 89.0072 44.7261 89.3229C45.2476 95.852 45.6521 102.39 45.9398 108.933C46.0216 110.793 46.0918 112.652 46.1549 114.511C46.1806 115.261 47.3499 115.264 47.3241 114.511Z" fill="black"/>
<path d="M45.5877 88.4764C45.0967 88.2729 44.5541 88.2472 44.0303 88.1864C44.1496 88.2005 44.0069 88.1817 43.9648 88.1747C43.9064 88.1654 43.8502 88.156 43.7941 88.142C43.6819 88.1186 43.5696 88.0905 43.4597 88.0531C43.4293 88.0414 43.3989 88.0298 43.3685 88.0204C43.3779 88.0227 43.4527 88.0625 43.3966 88.0321C43.3475 88.004 43.2937 87.9806 43.2446 87.9526C43.2025 87.9269 43.1627 87.8988 43.123 87.8707C43.2305 87.9456 43.1043 87.8473 43.0786 87.8193C43.0715 87.8123 43.0224 87.7562 43.0224 87.7562C43.0294 87.7515 43.0832 87.8473 43.0505 87.7889C43.0271 87.7468 42.999 87.7047 42.9733 87.6603C42.9195 87.5667 42.9967 87.7468 42.9663 87.6439C42.9546 87.6065 42.9476 87.5106 42.9242 87.4825C42.9359 87.4989 42.9289 87.6205 42.9336 87.5153C42.9336 87.4966 42.9359 87.4732 42.9336 87.4545C42.9266 87.382 42.9289 87.5176 42.9219 87.5083C42.9172 87.5013 42.9382 87.4288 42.9382 87.4288C42.9569 87.3305 42.8868 87.5036 42.9406 87.4147C42.9382 87.4194 42.978 87.3469 42.9803 87.3469C42.9827 87.3469 42.8915 87.4405 42.9593 87.375C42.978 87.3586 42.9967 87.3399 43.0131 87.3212C43.0341 87.2978 43.0692 87.2955 43.0131 87.3189C42.9336 87.3516 43.0622 87.2931 43.0809 87.2814C43.0973 87.2721 43.1183 87.2651 43.1323 87.2557C43.1885 87.2183 43.0809 87.2861 43.0832 87.2768C43.0856 87.2627 43.2188 87.2347 43.2352 87.23C43.2633 87.223 43.4059 87.1996 43.3171 87.2113C43.2235 87.2253 43.3826 87.2066 43.4036 87.2066C43.4995 87.2019 43.5954 87.2043 43.6912 87.2136C43.7006 87.2136 43.7707 87.223 43.7707 87.223C43.7637 87.2347 43.6585 87.2043 43.7661 87.2253C43.8385 87.2393 43.9134 87.251 43.9859 87.2651C44.1332 87.2931 44.2805 87.3235 44.4279 87.3446C44.7927 87.3984 45.1388 87.4147 45.5036 87.3282C45.8005 87.2581 46.0063 86.9026 45.9128 86.6079C45.8122 86.2993 45.5129 86.1239 45.1925 86.1987C45.1574 86.2081 45.12 86.2151 45.085 86.2221C45.1855 86.2011 45.1037 86.2198 45.0779 86.2198C45.0054 86.2221 44.933 86.2244 44.8605 86.2221C44.8231 86.2198 44.788 86.2174 44.7505 86.2151C44.7459 86.2151 44.6547 86.2057 44.7178 86.2127C44.788 86.2198 44.6734 86.2057 44.657 86.2034C44.6103 86.1964 44.5658 86.187 44.519 86.18C44.2174 86.1239 43.9157 86.0561 43.6094 86.0397C43.0926 86.014 42.4916 86.1496 42.1315 86.5471C41.6918 87.0359 41.6684 87.7211 41.9818 88.2846C42.2811 88.8202 42.854 89.1288 43.4363 89.2598C43.7614 89.3323 44.0958 89.3603 44.4279 89.3978C44.4629 89.4024 44.498 89.4071 44.5331 89.4095C44.6032 89.4165 44.4512 89.3954 44.5635 89.4141C44.643 89.4258 44.7202 89.4398 44.7997 89.4562C44.9634 89.4913 45.1247 89.5381 45.279 89.6035C45.562 89.7205 45.9338 89.4773 45.9993 89.1943C46.0741 88.8552 45.8894 88.6027 45.5877 88.4764Z" fill="black"/>
<path d="M45.9021 85.6094C45.694 84.8681 45.6098 84.1198 45.6426 83.3504C45.4485 83.5445 45.252 83.741 45.0579 83.9351C51.8138 83.8766 58.5767 83.9023 65.3302 83.6989C67.2197 83.6428 69.1069 83.5562 70.994 83.43C71.3097 83.4089 71.5787 83.1774 71.5787 82.8453C71.5787 82.546 71.3097 82.2397 70.994 82.2607C64.2545 82.7144 57.4893 82.6606 50.7381 82.7167C48.844 82.7331 46.9521 82.7495 45.0579 82.7658C44.7306 82.7682 44.4874 83.0324 44.4733 83.3504C44.4359 84.218 44.5388 85.0856 44.7727 85.9204C44.9784 86.643 46.1079 86.3367 45.9021 85.6094Z" fill="black"/>
<path d="M70.619 83.5539C70.5816 84.5478 70.5909 85.5439 70.6494 86.5378C70.6681 86.8418 70.9043 87.1365 71.234 87.1224C71.5356 87.1084 71.8373 86.8652 71.8186 86.5378C71.7601 85.5439 71.7485 84.5501 71.7882 83.5539C71.7999 83.2476 71.51 82.9552 71.2036 82.9693C70.8786 82.9833 70.633 83.2265 70.619 83.5539Z" fill="black"/>
<path d="M71.3001 87.3446C71.5106 87.3726 71.7187 87.3983 71.9292 87.4264C72.0297 87.4404 72.1303 87.4521 72.2332 87.4662C72.2869 87.4732 72.3407 87.4802 72.3969 87.4872C72.4203 87.4896 72.4436 87.4919 72.467 87.4966C72.4343 87.4919 72.3197 87.4732 72.4179 87.4919C72.5582 87.5153 72.6985 87.5433 72.8342 87.5854C72.8646 87.5948 72.895 87.6041 72.923 87.6158C72.9417 87.6228 72.9628 87.6322 72.9815 87.6392C72.9862 87.6416 72.8622 87.5808 72.9113 87.6112C72.9698 87.6462 73.0329 87.6837 73.0914 87.7141C73.1405 87.7374 73.0283 87.6626 73.0306 87.6649C73.0423 87.679 73.061 87.6907 73.0727 87.7023C73.0914 87.7187 73.1101 87.7491 73.1312 87.7632C73.1335 87.7632 73.0586 87.6533 73.082 87.7C73.0914 87.7164 73.1007 87.7304 73.1124 87.7468C73.1148 87.7515 73.1335 87.7795 73.1312 87.7842C73.1288 87.7865 73.0844 87.6392 73.1054 87.7211C73.1124 87.7491 73.1335 87.8614 73.1218 87.7585C73.1078 87.6509 73.1148 87.7678 73.1171 87.7912C73.1265 87.8614 73.1499 87.6626 73.1265 87.7281C73.1218 87.7421 73.1194 87.7585 73.1148 87.7725C73.1101 87.7865 73.1031 87.8029 73.1008 87.8169C73.0914 87.8684 73.1709 87.6953 73.1148 87.7772C73.1007 87.7982 73.0703 87.8333 73.0633 87.8567C73.0633 87.8567 73.1452 87.7608 73.1054 87.8006C73.089 87.8146 73.0774 87.8333 73.061 87.8473C73.0376 87.8707 73.0119 87.8918 72.9885 87.9152C72.9441 87.9573 73.0423 87.8754 73.04 87.8754C73.0166 87.8848 72.9908 87.9081 72.9698 87.9222C72.9417 87.9409 72.9113 87.9573 72.8809 87.9736C72.8599 87.9853 72.8388 87.9923 72.8201 88.004C72.7663 88.0321 72.8833 87.9783 72.8809 87.9783C72.8014 87.9947 72.7266 88.0297 72.6471 88.0461C72.626 88.0508 72.605 88.0531 72.5839 88.0578C72.5699 88.0601 72.5559 88.0625 72.5419 88.0648C72.4974 88.0718 72.5138 88.0695 72.591 88.0601C72.5489 88.0508 72.4834 88.0718 72.4389 88.0765C72.3314 88.0859 72.2215 88.0952 72.1139 88.1046C71.8473 88.1303 71.5784 88.1607 71.3258 88.2519C71.0382 88.3571 70.8137 88.6541 70.9166 88.9721C71.0078 89.2528 71.3282 89.4936 71.6369 89.3814C71.7444 89.3416 71.8543 89.3136 71.9689 89.2925C71.99 89.2879 72.011 89.2855 72.0321 89.2832C72.1139 89.2691 71.9221 89.2949 72.004 89.2878C72.0695 89.2832 72.1326 89.2738 72.1981 89.2691C72.4577 89.2457 72.7219 89.2294 72.9791 89.1733C73.4305 89.0774 73.8701 88.7944 74.111 88.3969C74.3939 87.9292 74.3168 87.3586 73.9707 86.9517C73.7158 86.6524 73.3065 86.491 72.9324 86.4068C72.6728 86.3507 72.4062 86.325 72.1443 86.2923C71.8637 86.2572 71.5854 86.2198 71.3048 86.1847C71.1668 86.166 70.9844 86.2619 70.8909 86.3554C70.7903 86.456 70.7132 86.6243 70.7202 86.7693C70.7272 86.9213 70.7763 87.078 70.8909 87.1832C71.0078 87.2838 71.1364 87.3235 71.3001 87.3446Z" fill="black"/>
<path d="M70.6107 89.3229C70.4049 95.8426 70.1407 102.365 70.1056 108.887C70.0963 110.725 70.108 112.563 70.1454 114.401C70.1617 115.151 71.331 115.154 71.3146 114.401C71.1766 107.879 71.3988 101.357 71.6046 94.837C71.663 92.999 71.7215 91.1586 71.78 89.3206C71.8034 88.5723 70.6341 88.5723 70.6107 89.3229Z" fill="black"/>
<path d="M46.7965 114.74C46.9298 115.353 47.5098 115.671 48.085 115.759C48.7866 115.869 49.5209 115.827 50.2294 115.841C51.8383 115.872 53.4472 115.902 55.056 115.925C58.234 115.97 61.4144 115.984 64.5924 115.925C66.3953 115.893 68.196 115.837 69.9966 115.75C70.7449 115.715 70.7496 114.546 69.9966 114.581C63.9166 114.873 57.8271 114.815 51.7424 114.702C50.9099 114.686 50.0751 114.67 49.2426 114.653C48.9386 114.646 48.5598 114.665 48.2885 114.614C48.1739 114.593 48.0687 114.569 47.9938 114.525C47.8816 114.462 47.9354 114.485 47.9541 114.504C47.8699 114.429 47.9517 114.546 47.926 114.429C47.767 113.692 46.6375 114.003 46.7965 114.74Z" fill="black"/>
<path d="M45.5823 82.2724C52.4364 82.2163 59.2928 82.2023 66.1469 82.0175C68.0925 81.9661 70.0405 81.8983 71.9861 81.8141C72.7368 81.7813 72.7391 80.6121 71.9861 80.6448C65.1601 80.9395 58.327 81.0096 51.4963 81.0587C49.525 81.0728 47.5537 81.0868 45.5823 81.1032C44.8293 81.1102 44.8293 82.2794 45.5823 82.2724Z" fill="black"/>
<path d="M44.9743 83.9351C45.0585 85.703 45.145 87.4708 45.2292 89.2387C45.2432 89.5544 45.4864 89.8234 45.8138 89.8234C46.1178 89.8234 46.4148 89.5568 46.3984 89.2387C46.3142 87.4708 46.2277 85.703 46.1435 83.9351C46.1295 83.6194 45.8863 83.3504 45.5589 83.3504C45.2526 83.3504 44.9579 83.6194 44.9743 83.9351Z" fill="black"/>
<path d="M45.2945 90.2045C45.7014 96.6728 46.1059 103.141 46.5128 109.607C46.6274 111.426 46.742 113.248 46.8566 115.067C46.9033 115.816 48.0726 115.82 48.0258 115.067C47.6189 108.599 47.2144 102.131 46.8075 95.6649C46.6929 93.8456 46.5783 92.0239 46.4637 90.2045C46.4169 89.4586 45.2454 89.4515 45.2945 90.2045Z" fill="black"/>
<path d="M45.697 81.0985C45.5731 81.0985 45.4492 81.0938 45.3252 81.0798C45.3767 81.0868 45.4281 81.0938 45.4796 81.1008C45.3837 81.0868 45.2925 81.0657 45.2013 81.0307C45.2481 81.0494 45.2948 81.0704 45.3416 81.0891C45.2785 81.0634 45.2223 81.0307 45.1662 80.9886C45.206 81.019 45.2457 81.0494 45.2855 81.0798C45.2457 81.047 45.2106 81.0096 45.1779 80.9699C45.2083 81.0096 45.2387 81.0494 45.2691 81.0891C45.2411 81.0494 45.2153 81.0073 45.1943 80.9628C45.213 81.0096 45.234 81.0564 45.2527 81.1032C45.2247 81.0353 45.2083 80.9652 45.1966 80.8927C45.2036 80.9441 45.2107 80.9956 45.2177 81.047C45.1943 80.8506 45.2177 80.6542 45.234 80.4577C45.2551 80.2122 45.2527 79.9737 45.1966 79.7328C45.1288 79.4335 44.7687 79.23 44.4764 79.3236C44.163 79.4241 43.9946 79.7234 44.0671 80.0438C44.0741 80.0766 44.0812 80.1116 44.0858 80.1467C44.0788 80.0953 44.0718 80.0438 44.0648 79.9924C44.1233 80.4671 43.9362 80.9488 44.1209 81.4142C44.1887 81.5872 44.2753 81.7439 44.4132 81.8749C44.5582 82.0128 44.7196 82.1017 44.909 82.1672C45.1545 82.256 45.4305 82.2677 45.69 82.2677C45.9964 82.2701 46.2887 81.9988 46.2746 81.6831C46.2653 81.3651 46.0244 81.1008 45.697 81.0985Z" fill="black"/>
<path d="M72.6184 81.0213C72.7166 80.7547 72.7587 80.4554 72.7494 80.1701C72.7424 80.0088 72.7213 79.8451 72.6862 79.6884C72.6488 79.5224 72.5833 79.368 72.5155 79.2137C72.4594 79.0874 72.291 78.9798 72.1671 78.9448C72.0268 78.9073 71.8397 78.9237 71.7158 79.0032C71.5918 79.0827 71.4819 79.2043 71.4468 79.3517C71.4398 79.4031 71.4328 79.4545 71.4258 79.506C71.4258 79.6112 71.4538 79.7094 71.5053 79.8006C71.5123 79.8147 71.517 79.8287 71.524 79.8451C71.5053 79.7983 71.4843 79.7515 71.4655 79.7048C71.5263 79.8521 71.5661 80.0041 71.5871 80.1584C71.5801 80.107 71.5731 80.0555 71.5661 80.0041C71.5848 80.1608 71.5848 80.3174 71.5661 80.4741C71.5731 80.4227 71.5801 80.3712 71.5871 80.3198C71.5684 80.4531 71.538 80.5817 71.4913 80.708C71.4422 80.8436 71.4796 81.0377 71.5497 81.1593C71.6199 81.2809 71.7602 81.3955 71.8982 81.4282C72.0478 81.4633 72.2162 81.4539 72.3495 81.3698C72.4828 81.2856 72.5646 81.171 72.6184 81.0213Z" fill="black"/>
<path d="M45.0003 80.1561C52.0719 80.3315 59.1458 80.3642 66.2173 80.2496C67.1878 80.2332 68.1606 80.2169 69.1311 80.1958C70.1132 80.1748 71.0977 80.1444 72.0612 79.9339C72.7955 79.7749 72.4845 78.6477 71.7502 78.8068C70.927 78.9845 70.0875 79.0055 69.248 79.0242C68.3921 79.043 67.5386 79.0593 66.6827 79.0734C64.9335 79.1038 63.1867 79.1248 61.4375 79.1365C57.9391 79.1599 54.4431 79.1482 50.9447 79.1014C48.964 79.0757 46.981 79.0359 45.0003 78.9868C44.2473 78.9681 44.2473 80.1374 45.0003 80.1561Z" fill="black"/>
<path d="M53.8325 79.3283C54.1506 78.8699 54.4662 78.4116 54.7843 77.9532C54.8661 77.834 54.8802 77.6375 54.8427 77.5019C54.8053 77.3663 54.7001 77.2189 54.5738 77.1535C54.4382 77.081 54.2745 77.0459 54.1225 77.095C53.9705 77.1441 53.8629 77.233 53.7741 77.3639C53.456 77.8223 53.1403 78.2806 52.8223 78.739C52.7404 78.8582 52.7264 79.0547 52.7638 79.1903C52.8012 79.3259 52.9065 79.4732 53.0328 79.5387C53.1684 79.6112 53.3321 79.6463 53.4841 79.5972C53.6338 79.5481 53.7413 79.4592 53.8325 79.3283Z" fill="black"/>
<path d="M54.7455 78.0655C56.7028 78.166 58.6648 78.1847 60.6244 78.1216C61.3751 78.0982 61.3774 76.929 60.6244 76.9524C58.6648 77.0155 56.7028 76.9968 54.7455 76.8962C53.9925 76.8565 53.9949 78.0257 54.7455 78.0655Z" fill="black"/>
<path d="M60.4465 77.9532C60.7482 78.5846 61.2275 79.1131 61.7958 79.5153C61.9127 79.5995 62.1115 79.6112 62.2471 79.5738C62.3828 79.5364 62.5301 79.4312 62.5956 79.3049C62.6681 79.1692 62.7031 79.0056 62.654 78.8536C62.6049 78.7016 62.5161 78.5963 62.3851 78.5051C62.343 78.4747 62.3009 78.4443 62.2612 78.4139C62.3009 78.4443 62.3407 78.4747 62.3804 78.5051C62.1466 78.3251 61.9385 78.1146 61.7561 77.8831C61.7865 77.9228 61.8169 77.9626 61.8473 78.0023C61.6953 77.8036 61.562 77.5908 61.4544 77.3639C61.3936 77.2377 61.2346 77.1301 61.106 77.095C60.9656 77.0576 60.7786 77.074 60.6546 77.1535C60.5307 77.233 60.4208 77.3546 60.3857 77.5019C60.3506 77.6633 60.3764 77.8036 60.4465 77.9532Z" fill="black"/>
<path d="M70.8321 83.4276C70.8649 83.5749 70.893 83.7223 70.914 83.8696C70.907 83.8182 70.9 83.7667 70.8929 83.7153C70.9491 84.1385 70.9467 84.5641 70.8906 84.985C70.8976 84.9336 70.9047 84.8822 70.9117 84.8307C70.9 84.9172 70.8859 85.0038 70.8696 85.0903C70.8392 85.247 70.8462 85.399 70.928 85.5416C70.9982 85.6632 71.1385 85.7778 71.2765 85.8105C71.5641 85.876 71.9336 85.724 71.9967 85.4013C72.1417 84.6413 72.1347 83.8743 71.9593 83.1189C71.8915 82.8196 71.5313 82.6162 71.239 82.7097C70.928 82.8079 70.7597 83.1073 70.8321 83.4276Z" fill="black"/>
<path d="M69.7277 115.467C70.055 115.855 70.6607 115.839 71.0419 115.542C71.4698 115.208 71.5049 114.66 71.5587 114.16C71.6803 113.028 71.7785 111.894 71.858 110.757C72.0147 108.524 72.1012 106.286 72.1527 104.048C72.2555 99.5398 72.2602 95.0288 72.2976 90.5202C72.3187 87.9596 72.3421 85.4013 72.3631 82.8407C72.3701 82.0877 71.2009 82.0877 71.1939 82.8407C71.1565 87.0873 71.1214 91.334 71.084 95.583C71.0466 99.8134 71.0419 104.048 70.8337 108.274C70.7753 109.469 70.7005 110.662 70.6046 111.854C70.5578 112.432 70.5064 113.007 70.4479 113.582C70.4198 113.856 70.4035 114.134 70.3614 114.405C70.352 114.471 70.3029 114.572 70.3029 114.632C70.3052 114.721 70.2281 114.623 70.3357 114.609C70.3941 114.6 70.5064 114.581 70.5531 114.637C70.3497 114.396 69.9358 114.427 69.7253 114.637C69.4868 114.88 69.5219 115.224 69.7277 115.467Z" fill="black"/>
<path d="M70.4236 83.6357C70.1593 86.6196 70.157 89.6222 70.4166 92.6085C70.4446 92.9242 70.6668 93.1931 71.0012 93.1931C71.2958 93.1931 71.6139 92.9242 71.5858 92.6085C71.3262 89.6222 71.3286 86.6196 71.5928 83.6357C71.6209 83.32 71.3052 83.0511 71.0082 83.0511C70.6691 83.0511 70.4517 83.32 70.4236 83.6357Z" fill="black"/>
</g>
<defs>
<clipPath id="clip0_1097_35498">
<rect width="115.755" height="218.648" fill="white" transform="translate(0.743164)"/>
</clipPath>
</defs>
</svg>
