<svg width="122" height="209" viewBox="0 0 122 209" fill="none" xmlns="http://www.w3.org/2000/svg">
<g clip-path="url(#clip0_959_33143)">
<path d="M14.4719 37.3121C17.1314 28.4536 19.7909 19.5974 22.4504 10.739C23.2459 8.08923 24.1852 5.23325 26.3761 3.71656C28.2421 2.42604 30.61 2.40165 32.8342 2.42161C53.4665 2.59013 74.0989 2.76087 94.7312 2.92939C95.3893 2.93382 96.0745 2.94713 96.6618 3.26421C97.4261 3.67886 97.8801 4.52812 98.2779 5.33524C103.47 15.8523 106.827 27.3937 108.126 39.1924C76.5126 39.015 44.8987 38.8399 13.2828 38.6625C10.2651 38.6447 6.93499 38.7489 4.70661 40.9175C1.47649 44.0596 2.29704 49.5897 3.37791 54.1043C3.66739 55.315 4.02351 56.6299 4.98567 57.3439C5.82288 57.9648 6.92041 57.9736 7.94089 57.9603C43.166 57.4769 78.389 56.9935 113.614 56.5124C114.639 56.4991 115.697 56.4769 116.636 56.0423C118.517 55.1731 119.443 52.8936 119.806 50.745C120.48 46.7426 119.647 42.2679 116.888 39.4563C114.129 36.6469 109.274 36.1413 106.535 38.9751C110.449 36.2078 116.569 38.3698 118.15 43.0795C118.787 44.9798 118.754 47.0508 118.683 49.0664C118.589 51.7117 118.287 54.7008 116.315 56.315C115.264 57.1754 113.845 57.5279 113.006 58.6211C112.242 59.6167 112.138 60.9915 112.065 62.2731C109.476 108.14 106.373 153.973 102.753 199.762C102.633 201.287 102.491 202.882 101.718 204.174C100.104 206.873 96.5701 207.15 93.5649 207.135C68.6674 207.019 43.7699 206.906 18.8745 206.791C13.3119 158.543 9.86729 110.018 8.55317 61.4283C8.51152 59.9116 8.67813 58.0335 9.99225 57.4459" fill="#858585"/>
<path d="M15.8769 37.7245C17.3119 32.9438 18.7468 28.1632 20.1817 23.3847C21.5645 18.7792 22.8224 14.1005 24.3573 9.55048C24.9196 7.88744 25.6777 6.0714 27.1105 5.05806C28.6787 3.94937 30.6884 3.9649 32.4982 3.97155C37.1799 3.98707 41.8615 4.04694 46.5411 4.08685C55.9566 4.16446 65.3741 4.24207 74.7895 4.31968C79.4983 4.35737 84.205 4.39728 88.9137 4.43498C90.0904 4.44385 91.2671 4.45494 92.4458 4.46381C93.4601 4.47268 94.6659 4.29085 95.6593 4.53476C96.5381 4.74985 96.9047 5.87849 97.2816 6.65236C97.771 7.65905 98.2459 8.67683 98.702 9.70347C102.828 18.9766 105.529 29.008 106.672 39.1946C107.157 38.678 107.645 38.1591 108.13 37.6425C88.8554 37.5338 69.583 37.4274 50.3086 37.3187C40.7411 37.2655 31.1736 37.2123 21.6062 37.1591C19.1799 37.1458 16.7537 37.1325 14.3275 37.1192C12.3678 37.1081 10.408 37.0881 8.46913 37.4473C4.85582 38.1192 1.96309 40.7047 1.22585 44.6117C0.5615 48.124 1.20711 52.0576 2.21509 55.4347C2.83778 57.5257 4.06443 59.0756 6.18244 59.4105C8.37541 59.7586 10.7267 59.4748 12.9384 59.4437C22.5767 59.3107 32.2149 59.1799 41.8532 59.0468C61.061 58.783 80.2668 58.5213 99.4746 58.2574C104.302 58.1909 109.136 58.1798 113.963 58.0579C115.865 58.0113 117.708 57.6188 119.061 56.0844C120.28 54.703 120.952 52.8382 121.244 50.9955C121.842 47.2193 121.342 43.0484 119.168 39.8997C117.029 36.8021 113.513 35.1036 109.906 35.6446C108.238 35.8952 106.747 36.6602 105.512 37.8775C104.306 39.0682 105.877 41.2657 107.278 40.3144C109.44 38.8487 112.185 39.0638 114.328 40.4763C117.304 42.4386 117.364 46.0108 117.218 49.3835C117.152 50.9423 117.037 52.643 116.285 54.0222C115.479 55.5012 113.842 55.8627 112.643 56.8694C111.148 58.1266 110.766 59.9936 110.635 61.9228C110.481 64.169 110.379 66.4218 110.25 68.6702C109.194 87.0457 108.055 105.414 106.832 123.779C105.606 142.216 104.296 160.645 102.903 179.069C102.559 183.619 102.209 188.169 101.855 192.719C101.672 195.068 101.493 197.416 101.303 199.764C101.172 201.367 101.02 203.159 99.7433 204.228C98.6791 205.119 97.2025 205.394 95.8863 205.507C94.0161 205.667 92.1251 205.578 90.2529 205.569C85.9648 205.549 81.6767 205.529 77.3886 205.509C60.0302 205.429 42.6717 205.35 25.3132 205.27C23.1702 205.261 21.0251 205.25 18.8821 205.241C19.3674 205.758 19.8547 206.276 20.34 206.793C18.097 187.318 16.1935 167.8 14.6399 148.25C13.08 128.626 11.8679 108.973 11.0057 89.3007C10.7662 83.8172 10.5517 78.3292 10.3664 72.8434C10.2727 70.0628 10.1852 67.2822 10.104 64.5016C10.0686 63.2865 9.99151 62.0625 10.0144 60.8451C10.029 60.0956 10.0373 59.1599 10.735 58.7852C12.4115 57.8871 10.937 55.2085 9.2626 56.1044C7.68191 56.9514 7.18833 58.794 7.10503 60.548C6.99257 62.9428 7.21124 65.3974 7.28413 67.7944C7.44033 72.8434 7.61943 77.8901 7.82144 82.9369C8.2213 92.9572 8.7128 102.973 9.29593 112.985C10.4601 133.005 11.9866 153.002 13.8735 172.96C14.9419 184.251 16.1248 195.529 17.4222 206.791C17.518 207.627 18.0116 208.339 18.8801 208.343C36.9987 208.427 55.1194 208.509 73.238 208.594C77.7343 208.613 82.2286 208.636 86.7249 208.656C89.0075 208.667 91.29 208.684 93.5725 208.687C95.1449 208.689 96.7443 208.62 98.2813 208.239C99.7912 207.864 101.303 207.117 102.342 205.857C103.598 204.334 103.971 202.429 104.158 200.467C104.606 195.764 104.902 191.041 105.264 186.329C106.741 167.1 108.128 147.864 109.423 128.619C110.714 109.45 111.914 90.272 113.024 71.0894C113.164 68.6636 113.303 66.2378 113.441 63.812C113.495 62.8585 113.482 61.8607 113.653 60.9183C113.847 59.8517 114.313 59.3063 115.186 58.7918C116.677 57.916 118.026 57.1066 118.874 55.4502C119.699 53.836 119.967 51.9956 120.09 50.1862C120.342 46.4344 120.282 42.3899 117.747 39.474C115.794 37.2278 112.712 35.9639 109.848 36.2211C108.405 36.3519 107.032 36.7954 105.806 37.6269C106.395 38.4385 106.984 39.2523 107.572 40.0638C109.706 37.9595 113.236 38.3032 115.434 40.1414C118.01 42.2967 118.805 46.1062 118.518 49.4234C118.385 50.9534 118.008 52.7206 116.998 53.8803C115.756 55.3061 113.605 54.9491 111.956 54.9735C107.449 55.0356 102.942 55.0977 98.4354 55.1598C80.6854 55.4037 62.9333 55.6454 45.1833 55.8893C36.3072 56.0112 27.4333 56.1332 18.5573 56.2551C16.3393 56.2862 14.1192 56.315 11.9013 56.3461C10.7912 56.3616 9.68329 56.3771 8.57326 56.3926C7.7548 56.4037 6.64685 56.5855 5.90753 56.1154C4.75585 55.3815 4.56217 52.7805 4.32059 51.5188C4.00612 49.878 3.81036 48.2038 3.9124 46.5253C3.99987 45.064 4.39973 43.5473 5.33899 42.4431C6.42819 41.1614 7.99222 40.616 9.56042 40.3809C11.3369 40.1126 13.1675 40.2102 14.9564 40.2213C17.1744 40.2346 19.3945 40.2457 21.6124 40.259C30.4864 40.3077 39.3603 40.3587 48.2343 40.4075C65.9822 40.5073 83.7302 40.6049 101.48 40.7047C103.698 40.718 105.918 40.729 108.136 40.7423C108.855 40.7468 109.688 40.0239 109.594 39.1902C108.511 29.5424 106.158 20.1562 102.544 11.2335C101.651 9.02717 100.683 6.85414 99.6329 4.72546C99.1955 3.84072 98.7186 2.96708 97.9731 2.33734C97.0275 1.53687 95.9092 1.39495 94.7388 1.37278C89.7551 1.27743 84.7673 1.29074 79.7836 1.25082C69.8142 1.16878 59.8427 1.08674 49.8733 1.00469C44.8876 0.96478 39.9039 0.922653 34.9182 0.88274C30.7009 0.847262 26.2358 0.609999 23.4597 4.61459C22.1227 6.54371 21.4729 8.91187 20.796 11.1647C19.9526 13.9764 19.1071 16.788 18.2636 19.5996C16.533 25.3648 14.8023 31.1278 13.0717 36.893C12.4927 38.8066 15.3063 39.6248 15.8769 37.7245Z" fill="#2A1C02"/>
<path d="M30.9766 36.1857C32.5364 32.5337 34.0963 28.8839 35.6562 25.2318C36.0248 24.3671 36.4371 23.4513 37.2056 22.9679C37.7929 22.5976 38.5031 22.5422 39.1841 22.4956C53.6123 21.5155 68.0843 21.2605 82.5376 21.7306C83.1707 21.7506 83.833 21.7816 84.3765 22.1275C85.0763 22.5732 85.422 23.4358 85.726 24.2407C87.3942 28.6821 89.0603 33.1213 90.7285 37.5627" fill="#858585"/>
<path d="M32.2376 36.9708C33.2393 34.6226 34.2432 32.2766 35.2449 29.9284C35.7468 28.7555 36.2466 27.5802 36.7485 26.4072C37.1171 25.5447 37.4254 24.3983 38.3834 24.1477C39.4163 23.8772 40.6013 23.9526 41.6593 23.8861C42.9651 23.804 44.2709 23.7287 45.5788 23.6599C48.055 23.5291 50.5312 23.4182 53.0074 23.3295C58.0306 23.1499 63.0559 23.0568 68.0833 23.0523C72.9816 23.0479 77.9694 22.906 82.8573 23.294C84.034 23.3872 84.2318 24.4138 84.6233 25.4604C85.1294 26.8064 85.6334 28.1523 86.1395 29.4983C87.2016 32.3232 88.2616 35.1504 89.3238 37.9753C89.6174 38.7603 90.2943 39.2902 91.1169 39.0596C91.8146 38.8645 92.4268 37.9265 92.1353 37.1505C91.1252 34.4586 90.1131 31.7667 89.103 29.077C88.5969 27.731 88.093 26.3851 87.5869 25.0391C87.1599 23.8994 86.808 22.6421 86.0624 21.682C84.4817 19.6442 81.4495 20.1387 79.2357 20.0833C76.4825 20.0145 73.7293 19.9724 70.974 19.9569C65.603 19.9258 60.234 19.9946 54.8651 20.1631C52.1119 20.2496 49.3608 20.3627 46.6096 20.5024C43.9148 20.6398 41.1824 20.6864 38.5 21.0035C37.19 21.1587 36.0988 21.6643 35.2865 22.7929C34.5201 23.8595 34.0807 25.1899 33.5622 26.4028C32.2814 29.4029 31.0005 32.4008 29.7177 35.4009C28.9492 37.2081 31.4608 38.7891 32.2376 36.9708Z" fill="#2A1C02"/>
<path d="M18.9531 186.267C35.2661 186.768 51.5937 186.81 67.9088 186.395L18.9531 186.267Z" fill="#858585"/>
<path d="M18.9544 187.819C35.2695 188.315 51.5929 188.358 67.9101 187.947C69.7823 187.901 69.7907 184.796 67.9101 184.843C51.5929 185.253 35.2695 185.211 18.9544 184.714C17.078 184.657 17.08 187.761 18.9544 187.819Z" fill="#2A1C02"/>
<path d="M85.9199 186.699C91.5867 186.546 97.2597 186.586 102.926 186.819L85.9199 186.699Z" fill="#858585"/>
<path d="M85.919 188.251C91.5879 188.103 97.2588 188.143 102.926 188.371C104.802 188.447 104.8 185.342 102.926 185.267C97.2588 185.041 91.5879 185.001 85.919 185.147C84.0468 185.196 84.0384 188.3 85.919 188.251Z" fill="#2A1C02"/>
<path d="M19.3454 52.0133C21.2218 52.0133 21.2239 48.909 19.3454 48.909C17.469 48.909 17.4648 52.0133 19.3454 52.0133Z" fill="#858585"/>
<path d="M70.0709 44.064C55.8051 43.6094 41.5226 43.789 27.2693 44.6205C23.2082 44.8578 19.1492 45.1483 15.0923 45.4898C13.2367 45.645 13.1971 48.5098 15.0923 48.5941C28.2939 49.1839 41.5372 49.7693 54.6097 51.949C54.7388 50.9334 54.8679 49.9156 54.997 48.9001C41.1102 48.2726 27.213 47.9178 13.3117 47.8357C11.4124 47.8247 11.4644 50.7849 13.3117 50.9401C18.9555 51.4168 24.5619 52.2284 30.1204 53.3725C30.2495 52.357 30.3786 51.3392 30.5077 50.3236C25.0825 50.4633 19.6553 50.6053 14.2301 50.7449C12.664 50.7849 12.1558 53.5122 13.8428 53.7938C15.7858 54.1176 17.731 54.4413 19.674 54.7651C19.8032 53.7495 19.9323 52.7317 20.0614 51.7162C17.1458 51.7494 14.2322 51.7849 11.3166 51.8182C11.3166 52.8537 11.3166 53.887 11.3166 54.9225C11.9767 54.836 12.639 54.7495 13.2992 54.6631C13.1701 53.6475 13.041 52.6297 12.9118 51.6142C11.7747 51.9246 10.6501 52.0754 9.47554 52.0798C9.47554 53.1153 9.47554 54.1486 9.47554 55.1841C11.7726 55.1243 14.0677 55.0666 16.3648 55.0068C16.2357 53.9912 16.1065 52.9734 15.9774 51.9579C13.7449 52.4058 11.5123 52.8515 9.27978 53.2994C7.63869 53.6275 8.05521 56.3505 9.66714 56.3483C23.5227 56.3217 37.3803 56.264 51.2358 56.2174C65.1226 56.1709 79.0156 56.2307 92.9024 55.9247C100.77 55.7518 108.636 55.4347 116.49 54.8582C116.361 53.8426 116.232 52.8248 116.103 51.8093C114.351 52.2971 112.543 52.4545 110.744 52.1774C110.615 53.1929 110.486 54.2107 110.357 55.2263C114.441 55.2196 118.039 51.2062 117.769 46.8246C117.494 42.361 113.793 38.9818 109.711 38.7445C109.84 39.7601 109.969 40.7778 110.098 41.7934C111.548 41.5406 113.008 42.6493 113.42 44.0972C114.135 43.5119 114.849 42.9287 115.561 42.3433C108.73 38.8864 101.191 39.494 93.8667 40.1193C89.991 40.4497 86.1361 40.6714 82.2458 40.4807C77.9952 40.2745 73.7592 39.8177 69.5044 39.6381C61.0886 39.2833 52.6478 39.4651 44.2279 39.5339C35.7767 39.6026 27.3234 39.7113 18.8722 39.8576C15.8858 39.9086 8.80078 38.9463 8.89449 44.044C8.93614 46.3013 10.8417 47.155 12.6473 47.3989C14.9903 47.716 17.3374 47.9932 19.6824 48.2903C19.4366 47.3257 19.1909 46.3612 18.9472 45.3988C17.7893 45.9532 16.6293 46.5053 15.4713 47.0597C14.4946 47.5275 13.3242 47.9111 12.5286 48.7116C10.9729 50.2771 11.7268 52.9512 13.8636 53.1907C15.4818 53.3725 15.8754 50.4101 14.2509 50.1418C13.143 49.9578 12.2162 49.5542 11.3082 48.8535C11.3082 49.7471 11.3082 50.6407 11.3082 51.5343C15.1402 49.4034 19.1284 47.665 23.2624 46.3146C24.8222 45.8046 24.5473 43.2857 22.875 43.2657C19.4345 43.2258 15.9941 43.1859 12.5536 43.1438C12.5536 44.1793 12.5536 45.2126 12.5536 46.2481C17.4019 45.9488 22.2502 45.6494 27.0964 45.3501C28.9666 45.2348 28.977 42.3455 27.0964 42.2457C22.3814 41.9952 17.6622 41.9619 12.9472 42.1415C11.0771 42.2125 11.0625 45.2215 12.9472 45.2459C19.876 45.3323 26.8028 45.5629 33.7233 45.9332C35.6018 46.033 35.5893 42.942 33.7233 42.8289C26.0572 42.3655 18.2433 41.9774 10.7813 44.2835C9.24853 44.758 9.47971 47.43 11.1687 47.3324C22.1294 46.7004 33.0922 46.0685 44.053 45.4365C45.9169 45.3301 45.9419 42.3699 44.053 42.3322C34.7437 42.1482 25.4449 42.8821 16.2544 44.4742C14.6446 44.7536 15.0048 47.6694 16.6418 47.5231C28.7313 46.441 40.8208 45.3589 52.9103 44.2791C54.7534 44.115 54.8158 41.188 52.9103 41.1747C47.7079 41.137 42.5202 41.5495 37.3782 42.3921C34.8749 42.8023 32.3862 43.3212 29.9225 43.9465C28.1815 44.3877 25.4491 45.2215 25.7511 47.716C25.8573 48.5963 26.3363 49.2039 27.2089 49.2682C34.6583 49.8114 42.1078 50.3547 49.5593 50.8979C49.5593 49.8624 49.5593 48.8291 49.5593 47.7936C42.1203 48.093 34.7104 48.7981 27.3338 49.8713C25.6344 50.1174 26.1697 52.8293 27.7212 52.9202C34.9582 53.3415 42.2078 53.4812 49.4552 53.3371C51.3462 53.2994 51.3171 50.3613 49.4552 50.2327C43.651 49.8336 37.8343 49.878 32.0384 50.3636C30.1912 50.5188 30.137 53.4479 32.0384 53.4679C41.2144 53.5655 50.3924 53.6608 59.5683 53.7584C61.4468 53.7783 61.4427 50.7117 59.5683 50.654C54.2306 50.4922 48.8908 50.3325 43.5531 50.1706C43.5531 51.2062 43.5531 52.2395 43.5531 53.275C52.1355 53.0599 60.72 53.2173 69.2899 53.7495C70.0834 53.7983 70.7394 53 70.7477 52.1973C70.7561 51.2771 70.0688 50.7427 69.2899 50.6452C61.2677 49.6473 53.2143 48.9954 45.1422 48.6894C45.1422 49.725 45.1422 50.7583 45.1422 51.7938C53.5142 50.8425 61.9383 50.5565 70.352 50.9334C72.2326 51.0177 72.218 47.94 70.352 47.8291C61.5864 47.3058 52.8103 47.0641 44.0321 47.104C44.0321 48.1395 44.0321 49.1728 44.0321 50.2083C53.4247 49.3546 62.8443 48.8713 72.2722 48.756C74.2007 48.7316 74.082 45.8911 72.2722 45.6516C65.0581 44.6959 57.7981 44.2192 50.5278 44.2259C50.5278 45.2614 50.5278 46.2947 50.5278 47.3302C59.1935 46.849 67.8571 46.3701 76.5228 45.8889C78.091 45.8024 78.5908 43.2369 76.9101 42.84C69.7397 41.1437 62.3611 40.6714 55.0574 41.5073C53.2226 41.718 53.1456 44.5141 55.0574 44.6117C63.8106 45.0529 72.5658 45.4964 81.319 45.9377C82.9351 46.0197 83.3391 43.2059 81.7064 42.8888C70.6603 40.7512 59.4038 40.6004 48.3098 42.4231C46.6625 42.6936 47.0894 45.4853 48.6972 45.472C61.0928 45.3678 73.4905 45.7514 85.8591 46.6273C87.7355 46.7603 87.7188 43.6737 85.8591 43.5229C77.7723 42.871 69.6564 43.3433 61.6738 44.86C60.9616 44.9953 60.5409 45.8623 60.6305 46.563C60.7346 47.3767 61.3281 47.8247 62.0633 47.9089C69.9751 48.8136 77.889 49.7183 85.8008 50.623C85.8008 49.5875 85.8008 48.5542 85.8008 47.5187C80.5505 47.7293 75.3024 47.9377 70.0521 48.1484C68.1403 48.2238 68.2174 51.0421 70.0521 51.2527C75.4794 51.878 80.9087 52.5033 86.336 53.1286C87.1253 53.2195 87.7855 52.3503 87.7938 51.5765C87.8021 50.6474 87.1128 50.133 86.336 50.0243C81.319 49.317 76.2604 49.1152 71.208 49.419C69.6627 49.5121 69.115 52.133 70.8206 52.4679C76.781 53.6342 82.806 54.4014 88.858 54.7473C90.472 54.8404 90.8802 51.9933 89.2454 51.6984C83.6411 50.6851 77.9827 50.0842 72.2993 49.9312C70.4041 49.8802 70.452 52.8781 72.2993 53.0355C80.2548 53.7096 88.2291 54.0621 96.2096 54.0954C97.5737 54.0998 98.3047 51.8714 96.9448 51.2039C91.6549 48.5985 85.7383 47.9732 80.0819 49.5232C78.4096 49.9822 78.8969 52.4302 80.4693 52.5721C88.8393 53.3304 97.2446 53.5011 105.635 53.0843C107.233 53.0045 107.67 50.4899 106.023 50.0354C102.472 49.0553 98.8399 48.9533 95.2391 49.6784C93.8667 49.9556 93.8271 52.4302 95.2391 52.6719C100.412 53.5588 105.592 53.5788 110.769 52.7362C112.252 52.4945 112.058 50.1219 110.769 49.7427C107.551 48.7959 104.209 48.7626 100.97 49.623C99.5001 50.0132 99.673 52.1419 100.97 52.6164C104.409 53.8715 108.016 54.1131 111.592 53.4612C112.773 53.2462 113.066 51.1463 111.939 50.6252C109.592 49.5343 107.172 49.2327 104.657 49.787C103.082 50.1352 103.48 52.2528 104.657 52.7805C107.337 53.9823 110.271 53.7828 112.885 52.5078C114.053 51.9379 113.676 49.9866 112.537 49.6717C105.059 47.6051 97.2759 46.9466 89.589 47.7759C87.698 47.9799 87.7334 50.6341 89.589 50.8802C96.799 51.8403 104.067 52.1441 111.327 51.7893C112.922 51.7117 113.366 49.1906 111.715 48.7404C100.791 45.7691 89.3974 44.9687 78.2097 46.4477C77.4225 46.5519 76.7602 47.0863 76.7519 47.9998C76.7435 48.8047 77.4245 49.5963 78.2097 49.552C85.8903 49.1085 93.5689 48.6673 101.249 48.2238C102.786 48.1351 103.351 45.4432 101.637 45.1749C93.7292 43.9398 85.7445 43.5141 77.7619 43.9731C77.7619 45.0086 77.7619 46.0419 77.7619 47.0774C84.9407 46.3612 92.1215 45.645 99.3002 44.931C101.179 44.7447 101.17 42.0306 99.3002 41.8266C92.5838 41.0927 85.8216 41.1747 79.1239 42.0683C78.3367 42.1726 77.6745 42.7069 77.6661 43.6205C77.6578 44.3922 78.3409 45.2592 79.1239 45.1727C86.0861 44.4032 93.0753 43.9797 100.073 43.8977C101.958 43.8755 101.939 40.8953 100.073 40.7933C93.8458 40.4541 87.6105 40.525 81.3919 41.0062C81.3919 42.0417 81.3919 43.075 81.3919 44.1105C85.7883 43.7159 90.193 43.9731 94.5123 44.9376C94.6414 43.9221 94.7705 42.9043 94.8996 41.8887C86.2631 42.9109 77.5224 43.9576 69.3441 47.2681C67.7988 47.8934 68.0508 50.1662 69.7314 50.317C73.3614 50.6407 76.9893 50.9645 80.6192 51.2882C80.6192 50.2527 80.6192 49.2194 80.6192 48.1839C76.8685 48.6562 73.1177 49.1307 69.367 49.603C67.4926 49.8403 67.4968 52.4612 69.367 52.7073C72.7491 53.153 76.1292 53.5965 79.5113 54.0422C79.5113 53.0067 79.5113 51.9734 79.5113 50.9379C75.5544 50.6585 71.5953 50.7693 67.6571 51.266C65.8474 51.4944 65.7328 54.4236 67.6571 54.3704C76.5728 54.1242 85.4904 53.8803 94.4061 53.6342C94.4061 52.5987 94.4061 51.5654 94.4061 50.5299C93.6751 50.6296 92.9441 50.7294 92.2131 50.827C90.7157 51.031 90.0805 53.4302 91.8257 53.8759C94.7788 54.6276 97.784 55.1043 100.814 55.315C102.689 55.4436 102.68 52.3415 100.814 52.2106C98.817 52.0709 96.8198 51.9312 94.8226 51.7893C94.8226 52.8249 94.8226 53.8581 94.8226 54.8937C98.238 54.8338 101.654 54.7739 105.069 54.7141C106.683 54.6852 107.085 52.0998 105.456 51.6652C103.728 51.2039 102.001 50.7427 100.273 50.2793C100.015 51.2771 99.7563 52.2749 99.498 53.2728C103.613 53.8958 107.731 53.9978 111.862 53.4812C113.252 53.306 113.905 51.4722 112.598 50.5897C109.871 48.7493 106.837 47.6938 103.632 47.3501C101.933 47.1683 101.749 49.8868 103.245 50.399C106.275 51.4368 109.534 51.4279 112.558 50.3724C113.768 49.9511 113.978 48.2726 112.906 47.5364C110.35 45.7825 107.426 44.8467 104.392 44.7492C102.695 44.6937 102.487 47.2659 104.005 47.798C107.22 48.9267 110.619 49.062 113.918 48.2726C115.103 47.9887 115.382 46.0264 114.266 45.4365C110.663 43.5296 106.743 42.5429 102.716 42.5894C101.077 42.6094 100.731 45.1572 102.328 45.6383C105.438 46.5763 108.678 46.8579 111.883 46.4188C112.533 46.3301 113.104 45.9975 113.289 45.2791C113.447 44.6671 113.199 43.8046 112.618 43.5252C109.174 41.8754 105.481 41.0927 101.701 41.3588C99.8083 41.4918 99.8458 44.2702 101.701 44.4631C104.609 44.7647 107.516 45.064 110.423 45.3656C112.064 45.5363 112.396 42.7114 110.811 42.3167C107.204 41.4164 103.507 41.0683 99.8104 41.3167C98.2193 41.4231 97.7695 43.8888 99.423 44.3656C102.335 45.2059 105.279 44.4276 108.203 44.9288C110.019 45.2414 112.346 46.4854 112.233 48.7404C113.206 48.7404 114.176 48.7404 115.149 48.7404C115.113 48.144 115.224 47.7581 115.636 47.3391C114.824 47.1107 114.012 46.8823 113.199 46.6539C113.387 47.7847 113.108 48.8447 112.539 49.7981C113.379 50.3214 114.218 50.8425 115.057 51.3658C115.469 50.6341 115.884 49.9023 116.296 49.1706C116.954 48.0043 115.865 46.5341 114.649 46.8911C112.473 47.5275 110.896 50.2904 112.427 52.4324C113.035 53.2816 114.007 53.8072 115.018 53.7828C116.273 53.7517 117.115 52.7872 117.648 51.674C117.098 51.9113 116.55 52.1486 116.001 52.388C118.264 52.7229 116.944 50.4589 116.621 49.8336C116.505 49.6052 116.357 49.3968 116.209 49.1906C115.901 48.7537 115.565 48.3502 115.174 47.9954C114.422 47.3147 113.589 46.7936 112.687 46.3789C110.638 45.4388 108.414 44.9997 106.219 44.6339C101.127 43.7868 95.9743 43.6937 90.8636 44.4032C90.0763 44.5119 89.4141 45.0396 89.4057 45.9554C89.3974 46.7625 90.0784 47.5519 90.8636 47.5076C94.1791 47.3213 97.4966 47.1351 100.812 46.9488C100.812 45.9133 100.812 44.88 100.812 43.8445C95.1475 44.3722 89.5765 45.594 84.1951 47.5541C82.5936 48.1373 82.9497 50.4367 84.5824 50.603C88.9163 51.0443 93.2544 50.807 97.5341 49.9711C99.1877 49.6496 98.7462 46.9444 97.1468 46.9222C94.4665 46.8867 91.7882 46.8512 89.1079 46.8158C87.2294 46.7914 87.2315 49.8757 89.1079 49.9201C97.5966 50.1174 105.987 48.1196 114.291 46.4831C115.884 46.1683 115.538 43.2059 113.903 43.4342C112.019 43.6959 110.796 45.6849 111.802 47.5719C112.729 49.3081 115.249 47.7471 114.32 46.0042C114.412 46.3168 114.274 46.4942 113.903 46.5386C113.774 45.523 113.645 44.5052 113.516 43.4897C105.461 45.0773 97.3467 47.0064 89.11 46.8158C89.11 47.8513 89.11 48.8846 89.11 49.9201C91.7903 49.9556 94.4685 49.991 97.1488 50.0265C97.0197 49.011 96.8906 47.9932 96.7615 46.9776C92.74 47.7626 88.6518 47.9111 84.5845 47.4987C84.7136 48.5143 84.8428 49.532 84.9719 50.5476C90.1013 48.6783 95.412 47.4521 100.812 46.9488C102.655 46.7781 102.705 43.738 100.812 43.8445C97.4966 44.0307 94.1791 44.217 90.8636 44.4032C90.8636 45.4388 90.8636 46.4721 90.8636 47.5076C96.9614 46.6605 103.301 46.8357 109.284 48.4322C110.386 48.7249 111.475 49.0908 112.454 49.7139C112.931 50.0177 113.372 50.3791 113.735 50.8336C114.095 51.286 114.289 51.8514 114.657 52.2993C115.499 53.3171 117.009 53.4967 117.767 52.255C118.373 51.2594 118.012 49.5786 116.777 49.3946C116.159 49.3037 115.447 49.4478 115.13 50.1086C115.109 50.1529 114.791 50.7117 114.857 50.6984C115.097 50.6452 114.701 50.6917 114.73 50.5432C114.793 50.2283 115.053 49.9955 115.424 49.889C114.874 49.1285 114.326 48.3679 113.776 47.6096C113.364 48.3413 112.95 49.073 112.537 49.8048C111.565 51.5255 114.051 53.0532 115.055 51.3725C116.063 49.6828 116.334 47.7892 116.009 45.8357C115.809 44.6361 114.303 44.4077 113.572 45.1505C112.645 46.0951 112.148 47.379 112.231 48.7471C112.352 50.7361 115.049 50.7516 115.147 48.7471C115.303 45.5762 112.897 43.3278 110.307 42.3256C107.043 41.0639 103.503 42.3322 100.196 41.3787C100.067 42.3943 99.9374 43.4121 99.8083 44.4276C103.255 44.1948 106.67 44.4786 110.034 45.3168C110.163 44.3012 110.292 43.2835 110.421 42.2679C107.514 41.9663 104.607 41.667 101.699 41.3654C101.699 42.401 101.699 43.4343 101.699 44.4698C104.942 44.2414 108.172 44.7891 111.144 46.2126C111.39 45.2481 111.635 44.2835 111.879 43.3212C108.911 43.7269 105.979 43.5185 103.099 42.6515C102.97 43.6671 102.841 44.6849 102.711 45.7004C106.214 45.6583 109.647 46.461 112.789 48.124C112.906 47.1794 113.02 46.2326 113.137 45.288C110.334 45.9598 107.499 45.7691 104.775 44.8135C104.646 45.829 104.517 46.8468 104.388 47.8624C106.927 47.9444 109.299 48.7626 111.429 50.2261C111.546 49.2815 111.66 48.3347 111.777 47.3901C109.209 48.2859 106.585 48.297 104.013 47.4167C103.884 48.4322 103.755 49.45 103.626 50.4656C106.312 50.7516 108.847 51.745 111.119 53.2816C111.365 52.3171 111.61 51.3525 111.854 50.3902C108.008 50.8736 104.105 50.8736 100.267 50.2926C98.4671 50.0199 97.6174 52.7849 99.4918 53.2861C101.22 53.7473 102.947 54.2085 104.675 54.6719C104.804 53.6564 104.934 52.6386 105.063 51.623C101.647 51.6829 98.2318 51.7428 94.8163 51.8026C92.9253 51.8359 92.9566 54.7761 94.8163 54.907C96.8136 55.0467 98.8108 55.1864 100.808 55.3283C100.808 54.2928 100.808 53.2595 100.808 52.2239C98.0319 52.031 95.2995 51.5853 92.5942 50.8957C92.4651 51.9113 92.336 52.9291 92.2068 53.9446C92.9378 53.8448 93.6688 53.7451 94.3998 53.6475C96.1992 53.4036 96.3304 50.49 94.3998 50.5432C85.4842 50.7893 76.5665 51.0332 67.6509 51.2793C67.6509 52.3149 67.6509 53.3482 67.6509 54.3837C71.5891 53.887 75.5481 53.7783 79.5051 54.0555C80.2964 54.1109 80.9546 53.3016 80.9629 52.5033C80.9712 51.5787 80.284 51.0532 79.5051 50.9512C76.1229 50.5055 72.7429 50.062 69.3607 49.6163C69.3607 50.6518 69.3607 51.6851 69.3607 52.7206C73.1115 52.2483 76.8622 51.7738 80.613 51.3015C82.4582 51.0687 82.5144 48.3679 80.613 48.1972C76.983 47.8734 73.3551 47.5497 69.7252 47.226C69.8543 48.2415 69.9834 49.2593 70.1125 50.2749C78.0514 47.0619 86.5068 45.9998 94.8913 45.0064C96.3887 44.829 97.026 42.3477 95.2787 41.9575C90.7074 40.9375 86.0382 40.6027 81.3836 41.0195C79.5321 41.1858 79.503 44.268 81.3836 44.1239C87.6022 43.6449 93.8375 43.5739 100.064 43.911C100.064 42.8755 100.064 41.8422 100.064 40.8067C93.0669 40.8865 86.0757 41.3122 79.1156 42.0816C79.1156 43.1172 79.1156 44.1505 79.1156 45.186C85.8133 44.2902 92.5755 44.2103 99.2918 44.9443C99.2918 43.9088 99.2918 42.8755 99.2918 41.84C92.1131 42.5562 84.9323 43.2724 77.7536 43.9864C75.9167 44.1704 75.8563 47.1994 77.7536 47.0907C85.4634 46.6472 93.2107 46.9887 100.854 48.1817C100.983 47.1661 101.112 46.1483 101.241 45.1328C93.5605 45.5762 85.882 46.0175 78.2013 46.461C78.2013 47.4965 78.2013 48.5298 78.2013 49.5653C89.1433 48.1196 100.248 48.8402 110.931 51.7472C111.061 50.7316 111.19 49.7139 111.319 48.6983C104.061 49.0531 96.7906 48.7493 89.5807 47.7892C89.5807 48.8247 89.5807 49.858 89.5807 50.8935C97.0239 50.0908 104.511 50.6762 111.754 52.6785C111.637 51.7339 111.523 50.7871 111.406 49.8425C109.474 50.7849 107.354 50.6673 105.423 49.8026C105.423 50.8004 105.423 51.7982 105.423 52.796C107.106 52.4235 108.876 52.5854 110.459 53.3215C110.575 52.3769 110.69 51.4301 110.807 50.4855C107.749 51.0421 104.663 50.7095 101.737 49.6407C101.737 50.6385 101.737 51.6363 101.737 52.6342C104.475 51.9069 107.264 51.9534 109.984 52.7539C109.984 51.7561 109.984 50.7583 109.984 49.7604C105.365 50.5099 100.616 50.4855 96.0034 49.6961C96.0034 50.6939 96.0034 51.6918 96.0034 52.6896C99.0773 52.0709 102.212 52.2106 105.238 53.0466C105.367 52.031 105.496 51.0133 105.625 49.9977C97.2342 50.4146 88.8289 50.2416 80.4589 49.4855C80.588 50.501 80.7171 51.5188 80.8463 52.5344C85.7008 51.2062 90.9031 51.6585 95.4619 53.9025C95.7077 52.9379 95.9534 51.9734 96.1971 51.011C88.2166 50.9778 80.2423 50.6252 72.2868 49.9511C72.2868 50.9866 72.2868 52.0199 72.2868 53.0555C77.7099 53.2018 83.11 53.7451 88.4582 54.7118C88.5873 53.6963 88.7164 52.6785 88.8455 51.6629C83.0496 51.3326 77.2892 50.6141 71.5829 49.4943C71.4537 50.5099 71.3246 51.5277 71.1955 52.5432C76.2479 52.2395 81.3065 52.4412 86.3235 53.1486C86.3235 52.1131 86.3235 51.0798 86.3235 50.0443C80.8962 49.419 75.4669 48.7937 70.0396 48.1684C70.0396 49.2039 70.0396 50.2372 70.0396 51.2727C75.2899 51.062 80.538 50.8536 85.7883 50.643C87.7001 50.5676 87.623 47.7493 85.7883 47.5386C77.8765 46.6339 69.9626 45.7292 62.0508 44.8245C62.1799 45.8401 62.309 46.8579 62.4381 47.8734C70.1604 46.4055 78.0285 46.0175 85.8487 46.6472C85.8487 45.6117 85.8487 44.5784 85.8487 43.5429C73.4801 42.6693 61.0824 42.2834 48.6867 42.3876C48.8159 43.4032 48.945 44.421 49.0741 45.4365C59.6141 43.707 70.4291 43.8733 80.9212 45.9022C81.0503 44.8866 81.1795 43.8689 81.3086 42.8533C72.5554 42.412 63.8002 41.9686 55.047 41.5273C55.047 42.5628 55.047 43.5961 55.047 44.6316C62.0945 43.8267 69.2045 44.217 76.125 45.8534C76.2541 44.8379 76.3832 43.8201 76.5124 42.8045C67.8467 43.2857 59.183 43.7646 50.5173 44.2458C48.6555 44.35 48.6284 47.3524 50.5173 47.3501C57.7877 47.3435 65.0476 47.8202 72.2618 48.7759C72.2618 47.7404 72.2618 46.7071 72.2618 45.6716C62.8338 45.7869 53.4142 46.2703 44.0217 47.124C42.1807 47.2903 42.1161 50.2372 44.0217 50.2283C52.7999 50.1906 61.578 50.4323 70.3416 50.9534C70.3416 49.9179 70.3416 48.8846 70.3416 47.8491C61.93 47.4699 53.5038 47.7581 45.1317 48.7094C43.299 48.9178 43.2157 51.7406 45.1317 51.8137C53.2018 52.1197 61.2573 52.7738 69.2795 53.7695C69.2795 52.7339 69.2795 51.7006 69.2795 50.6651C60.7096 50.1329 52.1251 49.9755 43.5427 50.1906C41.6663 50.2372 41.6642 53.2373 43.5427 53.2949C48.8804 53.4568 54.2202 53.6165 59.5579 53.7783C59.5579 52.7428 59.5579 51.7095 59.5579 50.674C50.382 50.5764 41.204 50.4811 32.028 50.3835C32.028 51.419 32.028 52.4523 32.028 53.4878C37.826 53.0022 43.6427 52.9579 49.4448 53.357C49.4448 52.3215 49.4448 51.2882 49.4448 50.2527C42.1974 50.3968 34.9478 50.2593 27.7108 49.8358C27.8399 50.8514 27.969 51.8692 28.0982 52.8847C35.2123 51.8514 42.3744 51.2062 49.5469 50.9179C51.4337 50.8425 51.4108 47.9488 49.5469 47.8136C42.0974 47.2703 34.6479 46.7271 27.1964 46.1838C27.6816 46.7004 28.169 47.2193 28.6542 47.736C28.6063 47.3346 28.6854 47.6229 28.5605 47.7338C28.6584 47.6473 28.7646 47.5541 28.8833 47.5054C29.2207 47.3634 29.5518 47.257 29.9079 47.1617C31.0075 46.869 32.1134 46.6051 33.2234 46.3568C35.3768 45.8778 37.5448 45.4742 39.7253 45.1616C44.0884 44.5363 48.4951 44.268 52.8978 44.3012C52.8978 43.2657 52.8978 42.2324 52.8978 41.1969C40.8083 42.279 28.7188 43.3611 16.6293 44.4409C16.7584 45.4565 16.8875 46.4743 17.0166 47.4898C25.9468 45.9421 34.9957 45.2791 44.0405 45.4587C44.0405 44.4232 44.0405 43.3899 44.0405 42.3544C33.0797 42.9863 22.1169 43.6183 11.1562 44.2502C11.2853 45.2658 11.4144 46.2836 11.5436 47.2991C18.7514 45.0707 26.305 45.5097 33.7087 45.9554C33.7087 44.9199 33.7087 43.8866 33.7087 42.8511C26.7882 42.4808 19.8615 42.2524 12.9327 42.1637C12.9327 43.1992 12.9327 44.2325 12.9327 45.268C17.6497 45.0884 22.3689 45.1217 27.0818 45.3722C27.0818 44.3367 27.0818 43.3034 27.0818 42.2679C22.2336 42.5673 17.3853 42.8666 12.539 43.1659C10.6793 43.2813 10.648 46.2481 12.539 46.2703C15.9795 46.3102 19.42 46.3501 22.8604 46.3922C22.7313 45.3767 22.6022 44.3589 22.473 43.3433C18.1058 44.7691 13.8719 46.6251 9.82334 48.8757C8.76954 49.4633 8.99654 50.9179 9.82334 51.5565C10.9021 52.3925 12.1433 52.9402 13.4637 53.1575C13.5928 52.1419 13.722 51.1241 13.8511 50.1086C14.1697 50.144 14.5154 50.878 14.6675 50.8758C14.7903 50.8736 15.0361 50.674 15.1506 50.6141C15.7379 50.317 16.3377 50.0465 16.9292 49.7627C18.0871 49.2083 19.2471 48.6562 20.405 48.1018C20.984 47.8247 21.2318 46.9577 21.0756 46.3479C20.8924 45.6361 20.3155 45.2902 19.6699 45.2082C17.7768 44.9687 15.8837 44.7292 13.9906 44.4897C13.4908 44.4254 12.3287 44.4786 11.8851 44.0972C11.7185 43.9531 11.7768 44.1261 11.8185 43.9176C11.8747 43.6316 12.16 43.4342 12.3891 43.3234C13.0826 42.9841 13.9927 43.0728 14.7362 43.0573C15.6984 43.0396 16.6605 43.0218 17.6227 43.0041C19.547 42.9708 21.4713 42.9376 23.3936 42.9087C31.0888 42.789 38.7861 42.7003 46.4813 42.6426C54.1473 42.585 61.8279 42.4409 69.4898 42.7646C73.3322 42.9265 77.158 43.3079 80.9962 43.5407C84.622 43.758 88.2207 43.7003 91.8424 43.4143C99.1856 42.8333 107.168 41.5517 114.074 45.0485C115.157 45.5962 116.611 44.6826 116.215 43.2946C115.305 40.1037 112.352 38.2877 109.307 38.8221C107.612 39.1192 108.139 41.7801 109.694 41.871C112.169 42.0151 114.599 44.1372 114.836 46.8468C115.072 49.5431 112.868 52.1397 110.34 52.1441C108.757 52.1463 108.28 54.9358 109.953 55.193C112.289 55.5522 114.572 55.4635 116.861 54.8249C118.414 54.3925 118.146 51.6519 116.473 51.776C102.555 52.8005 88.6019 52.9912 74.6568 53.0555C60.7908 53.1198 46.9269 53.1508 33.061 53.1952C25.2575 53.2218 17.454 53.2506 9.65048 53.2661C9.7796 54.2817 9.90872 55.2994 10.0378 56.315C12.2704 55.8671 14.5029 55.4214 16.7355 54.9735C18.362 54.6475 17.9725 51.8825 16.3481 51.9246C14.051 51.9845 11.756 52.0421 9.45888 52.102C7.58662 52.1508 7.57621 55.2152 9.45888 55.2063C10.8834 55.1997 12.2912 55.0045 13.6699 54.6298C15.2152 54.2107 14.9486 51.3636 13.2825 51.5809C12.6223 51.6674 11.9601 51.7539 11.2999 51.8403C9.49429 52.0776 9.36933 54.9668 11.2999 54.9447C14.2155 54.9114 17.1291 54.8759 20.0447 54.8427C21.6233 54.8249 22.1086 52.0732 20.4321 51.7938C18.489 51.47 16.5439 51.1463 14.6008 50.8226C14.4717 51.8381 14.3426 52.8559 14.2135 53.8715C19.6386 53.7318 25.0659 53.5899 30.4911 53.4502C32.0697 53.4102 32.5528 50.745 30.8784 50.4013C25.0659 49.2061 19.195 48.3568 13.293 47.8579C13.293 48.8934 13.293 49.9267 13.293 50.9623C27.1922 51.0443 41.0894 51.3991 54.9783 52.0266C56.586 52.0998 57.0088 49.2527 55.3656 48.9777C42.0307 46.7537 28.5417 46.1128 15.0736 45.5119C15.0736 46.5474 15.0736 47.5807 15.0736 48.6163C29.3019 47.4233 43.576 46.8623 57.8481 46.9554C61.9154 46.9821 65.9827 47.0619 70.05 47.1927C71.9494 47.2282 71.9473 44.1239 70.0709 44.064Z" fill="#858585"/>
<path d="M39.8564 98.8758C39.6121 105.85 40.322 112.846 40.7856 119.797C41.2491 126.756 41.7126 133.718 42.1782 140.677C42.3035 142.543 45.2267 142.558 45.1014 140.677C44.6379 133.718 44.1743 126.756 43.7087 119.797C43.2452 112.844 42.5353 105.85 42.7796 98.8758C42.8443 96.9945 39.9212 96.9966 39.8564 98.8758Z" fill="#2A1C02"/>
<path d="M44.7761 142.33C54.6897 143.558 64.7224 143.527 74.6297 142.238C75.419 142.136 76.083 141.639 76.0913 140.777C76.0997 140.065 75.4127 139.213 74.6297 139.315C64.7224 140.604 54.6918 140.635 44.7761 139.407C43.9869 139.309 43.3229 140.148 43.3145 140.869C43.3062 141.737 43.9973 142.234 44.7761 142.33Z" fill="#2A1C02"/>
<path d="M76.085 139.81C77.1018 125.844 77.7971 111.857 78.1729 97.859C78.223 95.9777 75.2999 95.9777 75.2498 97.859C74.8739 111.857 74.1786 125.844 73.1618 139.81C73.0261 141.687 75.9492 141.679 76.085 139.81Z" fill="#2A1C02"/>
<path d="M42.7336 99.8259C54.1318 100.321 65.5487 100.2 76.9344 99.4626C78.8031 99.3415 78.8156 96.4184 76.9344 96.5395C65.5487 97.2765 54.1318 97.3976 42.7336 96.9028C40.8523 96.8193 40.8565 99.7424 42.7336 99.8259Z" fill="#2A1C02"/>
<path d="M78.3694 105.743C78.8872 105.622 79.405 105.503 79.9228 105.382C80.6306 105.217 81.0628 104.465 80.9689 103.778C80.8666 103.02 80.2673 102.575 79.5324 102.511C78.9603 102.461 78.3902 102.41 77.8181 102.358C77.054 102.291 76.3232 103.079 76.3566 103.82C76.3942 104.67 76.9997 105.208 77.8181 105.281C78.3902 105.332 78.9603 105.382 79.5324 105.434C79.4029 104.478 79.2735 103.519 79.144 102.563C78.6262 102.684 78.1084 102.803 77.5906 102.924C76.8452 103.097 76.3336 103.993 76.5695 104.722C76.8222 105.501 77.5697 105.929 78.3694 105.743Z" fill="#2A1C02"/>
<path d="M39.7105 102.404C39.1238 102.576 38.5371 102.747 37.9504 102.918C36.5723 103.321 36.5494 105.344 37.9504 105.737C38.9735 106.023 40.0467 106.131 41.1053 106.017C41.8904 105.931 42.5669 105.407 42.5669 104.555C42.5669 103.83 41.8945 103.008 41.1053 103.093C40.2868 103.183 39.5205 103.139 38.7292 102.918C38.7292 103.858 38.7292 104.797 38.7292 105.737C39.3159 105.566 39.9026 105.394 40.4893 105.223C42.2892 104.697 41.5229 101.876 39.7105 102.404Z" fill="#2A1C02"/>
<path d="M43.9556 104.849C44.3732 115.045 44.7908 125.24 45.2084 135.438C45.2856 137.313 48.2088 137.321 48.1315 135.438C47.7139 125.243 47.2963 115.047 46.8787 104.849C46.8015 102.974 43.8784 102.964 43.9556 104.849Z" fill="#2A1C02"/>
<path d="M50.6961 104.854C50.4393 115.39 50.6272 125.932 51.262 136.453C51.3747 138.322 54.2979 138.334 54.1851 136.453C53.5504 125.932 53.3625 115.39 53.6193 104.854C53.6652 102.973 50.7421 102.975 50.6961 104.854Z" fill="#2A1C02"/>
<path d="M57.211 104.559C57.3091 115.529 57.4094 126.5 57.5075 137.47C57.5242 139.349 60.4473 139.355 60.4306 137.47C60.3325 126.5 60.2323 115.529 60.1342 104.559C60.1174 102.68 57.1943 102.676 57.211 104.559Z" fill="#2A1C02"/>
<path d="M64.719 104.72C63.8358 115.421 63.3765 126.151 63.3389 136.887C63.3326 138.768 66.2558 138.77 66.262 136.887C66.2996 126.151 66.759 115.419 67.6422 104.72C67.7967 102.845 64.8735 102.855 64.719 104.72Z" fill="#2A1C02"/>
<path d="M71.1198 105.58C70.3515 115.431 69.5852 125.28 68.8168 135.131C68.6707 137.006 71.5938 136.997 71.74 135.131C72.5083 125.28 73.2746 115.431 74.043 105.58C74.1891 103.705 71.266 103.713 71.1198 105.58Z" fill="#2A1C02"/>
<path d="M40.6941 95.8065C52.5558 95.4328 64.4238 95.249 76.2917 95.2532C78.173 95.2532 78.1751 92.3301 76.2917 92.3301C64.4238 92.3238 52.5558 92.5096 40.6941 92.8834C38.8171 92.9419 38.8087 95.8671 40.6941 95.8065Z" fill="#2A1C02"/>
<path d="M55.1248 92.7288C55.2563 92.1295 55.3148 91.4112 55.9224 91.1878C56.3296 91.0375 57.0812 91.1857 57.5176 91.1878C58.0605 91.1899 58.6054 91.192 59.1483 91.192C59.6912 91.1941 60.2361 91.1962 60.779 91.1962C61.1131 91.1962 62.1404 91.025 62.4097 91.2004C62.7354 91.4112 63.1885 92.8331 63.4203 93.3155C64.2325 95.0109 66.7547 93.5305 65.9446 91.8393C65.3892 90.6784 64.9424 89.0853 63.6813 88.5111C62.9254 88.1666 61.9963 88.2751 61.1862 88.271C60.3698 88.2689 59.5555 88.2668 58.7391 88.2626C57.3234 88.2584 55.4944 87.9536 54.2186 88.7011C53.0598 89.3797 52.5796 90.7034 52.304 91.9458C51.901 93.7853 54.7177 94.5682 55.1248 92.7288Z" fill="#2A1C02"/>
</g>
<defs>
<clipPath id="clip0_959_33143">
<rect width="121.128" height="208.092" fill="white" transform="translate(0.75 0.75)"/>
</clipPath>
</defs>
</svg>
