<svg width="92" height="131" viewBox="0 0 92 131" fill="none" xmlns="http://www.w3.org/2000/svg">
<path d="M73.6483 127.481C63.4131 127.767 53.1704 127.805 42.9353 127.805C32.7001 127.805 22.4198 128.136 12.2222 127.406C12.1908 127.398 12.1628 127.381 12.1428 127.355C12.1227 127.33 12.1118 127.299 12.1118 127.266C12.1118 127.234 12.1227 127.203 12.1428 127.178C12.1628 127.152 12.1908 127.135 12.2222 127.127C13.1554 127.059 14.0886 127.014 15.0143 126.962C17.4677 124.877 20.9673 123.131 23.6841 125.253C24.5872 122.243 27.7706 121.611 30.7735 121.784C29.0275 117.878 32.0604 113.618 36.2673 112.964C40.4743 112.309 45.479 114.785 46.352 119.165C48.1507 118.615 49.6709 119.504 51.0481 120.805C53.1253 118.585 56.0303 121.137 57.3021 123.605C58.251 122.97 59.3988 122.703 60.5307 122.853C61.064 122.944 61.5644 123.172 61.9832 123.515C62.3369 123.808 62.6982 124.764 63.0444 124.854C63.3906 124.945 64.5495 124.328 65.0237 124.275C65.8456 124.184 66.677 124.314 67.4319 124.651C67.8993 124.87 68.316 125.184 68.6555 125.573C68.9949 125.961 69.2497 126.416 69.4037 126.909L73.6483 126.999C73.7122 126.999 73.7734 127.025 73.8186 127.07C73.8638 127.115 73.8891 127.176 73.8891 127.24C73.8891 127.304 73.8638 127.365 73.8186 127.41C73.7734 127.456 73.7122 127.481 73.6483 127.481Z" fill="#2A1C02"/>
<path d="M46.5931 38.5543C46.5931 38.5543 28.3579 36.0031 32.6251 13.9974C32.6251 13.9974 52.99 18.5732 46.5931 38.5543Z" fill="#68892C"/>
<path opacity="0.1" d="M46.5931 38.5543C46.5931 38.5543 28.3579 36.0031 32.6251 13.9974C32.6251 13.9974 52.99 18.5732 46.5931 38.5543Z" fill="#2A1C02"/>
<path d="M45.667 33.9646C45.309 32.8505 44.8945 31.7553 44.4252 30.6833L44.3801 30.2694C44.3801 29.9683 44.3274 29.6598 44.3048 29.3588C44.2521 28.704 44.2145 28.0417 44.1769 27.387C44.0941 26.07 44.0113 24.7605 43.9887 23.4434C43.9887 23.4295 43.9832 23.4161 43.9733 23.4062C43.9634 23.3963 43.95 23.3907 43.9361 23.3907C43.9221 23.3907 43.9087 23.3963 43.8988 23.4062C43.8889 23.4161 43.8834 23.4295 43.8834 23.4434C43.8834 24.7605 43.8834 26.0775 43.8834 27.3945C43.8834 28.0493 43.9511 28.7115 43.9887 29.3663C43.9887 29.5093 43.9887 29.6598 43.9887 29.8028C42.9631 27.6132 41.7388 25.5223 40.3312 23.5563C39.7065 22.6758 39.0443 21.8404 38.3368 21.0276C37.6294 20.2148 36.8317 19.402 36.0791 18.5817C36.0339 18.529 35.9511 18.5817 36.0038 18.657C37.3102 20.1087 38.4863 21.6726 39.5184 23.3305C40.0678 24.1659 40.5946 25.0314 41.0913 25.9044L40.9182 25.8367L40.271 25.5732L38.7658 25.0088C37.7874 24.6476 36.8091 24.2939 35.8382 23.9176C35.778 23.9176 35.7329 24.0003 35.7931 24.0229C36.7639 24.4067 37.7197 24.8207 38.683 25.2346L40.0904 25.8367C40.3312 25.942 40.5645 26.0398 40.8429 26.1302C40.9952 26.2088 41.1571 26.267 41.3246 26.3033C41.6934 26.9655 42.0772 27.6278 42.3933 28.3051C43.2517 30.0139 44.0057 31.7731 44.651 33.5732L44.779 33.9571C44.2983 33.666 43.795 33.4144 43.2738 33.2045L41.3848 32.3465C40.1054 31.7595 38.8335 31.1574 37.6219 30.4651C37.5541 30.4651 37.5015 30.5328 37.5692 30.5629C38.8185 31.2477 40.0452 31.9778 41.3321 32.6626C41.9568 33.0013 42.5889 33.3324 43.2286 33.641C43.7614 33.9574 44.3403 34.1885 44.9445 34.3258C45.5527 35.994 45.9545 37.7303 46.1412 39.4961C46.3443 41.9871 46.3218 44.4933 46.3745 47.022C46.3745 47.0671 46.4422 47.0596 46.4422 47.022C46.6228 44.7642 46.7282 42.4688 46.7357 40.2035C46.7188 38.0798 46.3579 35.9728 45.667 33.9646Z" fill="#263238"/>
<path d="M42.86 21.0191C42.6834 22.3055 42.6229 23.6052 42.6794 24.9025H42.7396C42.8073 23.6156 42.8224 22.3286 42.9729 21.0492C42.9804 20.9815 42.8675 20.9514 42.86 21.0191Z" fill="#263238"/>
<path d="M37.6522 22.1188C36.837 21.8052 36.0512 21.4199 35.3041 20.9674C35.2439 20.9222 35.1912 21.0276 35.2514 21.0652C35.9824 21.555 36.7811 21.9353 37.6221 22.1941C37.6672 22.2091 37.6973 22.1188 37.6522 22.1188Z" fill="#263238"/>
<path d="M47.1723 73.4898C47.1723 71.4804 47.1196 69.4635 47.097 67.4691C47.0594 60.7862 47.0067 54.0957 46.8863 47.4052C46.791 42.0919 46.6655 36.7812 46.51 31.4729C46.5098 31.4585 46.5054 31.4444 46.4974 31.4324C46.4894 31.4204 46.4781 31.411 46.4648 31.4052V27.0553C46.4648 27.0553 46.4197 27.0026 46.382 27.0026C46.3444 27.0026 46.2917 27.0026 46.2917 27.0553C46.2917 28.5077 46.2917 29.9602 46.2917 31.4127C46.2917 31.4127 46.2541 31.4504 46.2541 31.4805C45.9832 40.9329 45.7424 50.3854 45.6897 59.8379C45.6897 61.757 45.6897 63.6836 45.6897 65.6027C45.6295 71.7639 45.6069 77.9276 45.6219 84.0938V87.0364C45.6219 92.6808 45.6821 120.903 45.6821 126.532C45.6821 126.833 46.0208 126.984 46.382 126.999C46.7433 127.014 47.225 126.856 47.225 126.509C47.225 120.286 47.2701 91.4917 47.2626 85.2753C47.1873 81.3318 47.2024 77.4108 47.1723 73.4898Z" fill="#263238"/>
<path d="M39.5555 67.3719C39.5555 67.3719 30.7878 60.8771 22.4718 65.2647C14.1557 69.6522 12.8462 86.5779 12.8462 86.5779C12.8462 86.5779 25.0607 88.3239 32.7596 81.0012C40.1726 73.942 39.5555 67.3719 39.5555 67.3719Z" fill="#68892C"/>
<path d="M41.9493 67.7777C40.3369 67.1398 38.592 66.9097 36.8694 67.1079C36.5135 67.0489 36.1538 67.0162 35.7932 67.0101L34.5589 66.9122C33.7085 66.8445 32.8581 66.7993 32.0001 66.7316C30.2767 66.6037 28.5382 66.4983 26.8148 66.3252C26.7546 66.3252 26.7396 66.423 26.8148 66.4306C28.5232 66.6488 30.224 66.8972 31.9399 67.0703C32.8205 67.1606 33.701 67.2509 34.5815 67.3111L35.2287 67.3713C34.9653 67.4315 34.7019 67.4917 34.4761 67.567C33.1 67.9697 31.7685 68.5119 30.5025 69.185C29.8176 69.3055 29.1253 69.5011 28.4479 69.6592C27.3642 69.915 26.288 70.1935 25.2043 70.4795C23.0745 71.0364 20.9748 71.661 18.86 72.2782C18.7923 72.2782 18.86 72.3986 18.86 72.3835C20.9748 71.8642 23.097 71.3901 25.2118 70.8784C26.2353 70.6375 27.2664 70.3967 28.2899 70.1258L29.0952 69.9376C26.7416 71.3989 24.6377 73.2283 22.8637 75.3562C21.1564 77.4551 19.7039 79.749 18.5364 82.1897C18.5364 82.2499 18.5966 82.3101 18.6267 82.2499C20.0763 79.7378 21.8472 77.4254 23.8948 75.3713L23.7819 75.7175C23.6163 76.2368 23.4508 76.7485 23.2927 77.2678C22.9691 78.2988 22.638 79.3299 22.3294 80.3685C22.3294 80.4362 22.4122 80.4588 22.4348 80.3685C22.8111 79.3675 23.1874 78.3591 23.511 77.3581L24.0303 75.8529C24.1206 75.5971 24.2109 75.3337 24.2937 75.1004C24.2937 75.0251 24.3539 74.9423 24.3764 74.8671C25.3546 73.9153 26.3955 73.0303 27.4921 72.218C28.9366 71.1546 30.4969 70.2583 32.1431 69.5463L32.0528 69.9978C31.97 70.3967 31.8797 70.7956 31.7969 71.1944C31.6238 72.0298 31.4658 72.8577 31.3002 73.693C30.9691 75.3863 30.7659 77.1022 30.4498 78.8031C30.4498 78.8708 30.5401 78.9009 30.5552 78.8031C30.9465 77.0947 31.4583 75.4165 31.8346 73.7006C32.0302 72.8501 32.2184 71.9922 32.399 71.1342C32.4818 70.7354 32.5571 70.3365 32.6398 69.9301C32.685 69.7118 32.7377 69.4861 32.7678 69.2603C32.9258 69.2001 33.0763 69.1248 33.2419 69.0646C35.5373 68.2142 38.081 67.5971 40.5345 68.0637C41.6929 68.2804 42.7799 68.7799 43.699 69.5177C44.618 70.2556 45.3406 71.209 45.8026 72.2932C45.8854 72.4889 46.1864 72.3685 46.1412 72.1728C45.8328 71.1645 45.2933 70.2421 44.5655 69.479C43.8378 68.716 42.9419 68.1335 41.9493 67.7777Z" fill="#263238"/>
<path d="M41.5271 55.4427C41.5271 55.4427 30.8178 56.1276 25.8282 49.0608C20.8385 41.994 21.9599 31.9019 21.9599 31.9019C21.9599 31.9019 33.2487 33.2716 37.6889 38.344C42.1292 43.4164 41.5271 55.4427 41.5271 55.4427Z" fill="#68892C"/>
<path d="M46.555 66.0168C46.1788 64.8653 45.7197 63.759 45.2907 62.6151C44.8617 61.4712 44.4252 60.4627 43.9586 59.4016C43.0007 57.2411 41.928 55.1334 40.7451 53.0874C39.9925 51.7854 39.1797 50.521 38.3443 49.2718C38.3443 49.0836 38.2841 48.8955 38.2615 48.7073C38.2089 48.3762 38.1637 48.0375 38.111 47.7064C38.0057 47.0291 37.8853 46.3517 37.7724 45.6744C37.524 44.1692 37.223 42.7243 36.9822 41.2492C36.9822 41.1739 36.8617 41.1815 36.8693 41.2492C37.0875 42.7092 37.238 44.1843 37.4412 45.6443C37.5391 46.3969 37.6369 47.0817 37.7423 47.8042C37.7874 48.0601 37.825 48.3235 37.8627 48.5568C36.2383 46.166 34.4794 43.8695 32.5946 41.6782C32.3387 41.3847 32.0753 41.0987 31.842 40.8052C31.842 40.7224 31.7743 40.6471 31.7442 40.5568C31.7141 40.4665 31.5861 40.1504 31.5108 39.9472L31.0442 38.6678C30.7432 37.8324 30.4798 36.982 30.2465 36.1241C30.2465 36.0488 30.1261 36.0864 30.1411 36.1241C30.3594 37.0046 30.5852 37.8776 30.841 38.7506C30.969 39.1721 31.1045 39.586 31.255 39.9924L31.3302 40.2031C29.9605 38.6979 28.5306 37.268 27.0856 35.8456C27.0405 35.8005 26.9652 35.8456 27.0104 35.9284C29.7799 38.8266 32.3189 41.9367 34.604 45.2304C34.3444 45.1486 34.0806 45.0807 33.8138 45.0272C32.9859 44.8691 32.1581 44.7487 31.3227 44.6434C29.5767 44.4251 27.8307 44.1993 26.0922 43.9284C26.0853 43.9284 26.0785 43.9298 26.0721 43.9324C26.0657 43.9351 26.0599 43.9389 26.055 43.9438C26.0501 43.9487 26.0462 43.9545 26.0436 43.9609C26.0409 43.9673 26.0396 43.9742 26.0396 43.9811C26.0396 43.988 26.0409 43.9948 26.0436 44.0012C26.0462 44.0076 26.0501 44.0134 26.055 44.0183C26.0599 44.0232 26.0657 44.0271 26.0721 44.0298C26.0785 44.0324 26.0853 44.0338 26.0922 44.0338C27.7479 44.3649 29.3961 44.7337 31.0442 45.1175C31.7968 45.2981 32.6021 45.4486 33.3923 45.5992C34.0307 45.7384 34.6592 45.9194 35.2738 46.141C35.4393 46.3894 35.62 46.6302 35.7931 46.8936C36.5833 48.0375 37.3359 49.204 38.0508 50.3856L36.9596 50.1673C36.1317 50.0093 35.2964 49.8588 34.4685 49.7233C32.8354 49.4524 31.1948 49.1739 29.5842 48.8052C29.5703 48.8052 29.5569 48.8107 29.547 48.8206C29.5371 48.8305 29.5316 48.8439 29.5316 48.8578C29.5316 48.8718 29.5371 48.8852 29.547 48.8951C29.5569 48.905 29.5703 48.9105 29.5842 48.9105C31.2249 49.2943 32.8505 49.7459 34.476 50.1749C35.2286 50.3856 36.0489 50.5813 36.8392 50.7543L38.0358 51.0102C38.1931 51.0542 38.3545 51.0819 38.5174 51.093C40.0828 53.6292 41.5278 56.2332 42.9125 58.8823C43.5096 60.0513 44.0866 61.2279 44.6435 62.4119C45.2154 63.6236 45.7046 64.8654 46.2314 66.1071C46.254 66.3856 46.6454 66.2877 46.555 66.0168Z" fill="#263238"/>
<path d="M52.5012 47.014C52.5012 47.014 58.9885 34.9049 68.8549 33.0234C78.7213 31.142 84.7571 41.3019 84.7571 41.3019C84.7571 41.3019 77.5624 50.491 68.5087 52.094C59.4551 53.697 52.5012 47.014 52.5012 47.014Z" fill="#68892C"/>
<path d="M75.4618 38.4574C72.8923 38.1112 70.286 38.1416 67.7252 38.5477C67.8757 38.4649 68.0187 38.3821 68.1692 38.3144L70.3517 37.1855C71.8569 36.4329 73.3997 35.5599 74.9877 34.9277C75.0007 34.9217 75.0107 34.9109 75.0156 34.8974C75.0206 34.884 75.02 34.8692 75.014 34.8562C75.008 34.8433 74.9971 34.8332 74.9837 34.8283C74.9703 34.8233 74.9555 34.8239 74.9425 34.8299C73.3997 35.5449 71.7967 36.1469 70.2539 36.8619C69.5013 37.2156 68.7487 37.6145 67.9585 37.9908C67.4769 38.2466 66.935 38.4875 66.4534 38.796C64.2845 39.2342 62.1769 39.9343 60.1768 40.8807L61.411 39.5411C62.3292 38.5326 63.2398 37.479 64.2483 36.5307C64.301 36.4781 64.2483 36.4028 64.1655 36.448C63.1344 37.3887 62.0432 38.2542 61.0423 39.2325C60.5531 39.7067 60.094 40.1958 59.6425 40.7377C59.4167 40.9861 59.1834 41.2495 58.9726 41.4903C55.5856 43.3056 52.6426 45.8485 50.355 48.9363C48.0675 52.0241 46.4921 55.5802 45.7422 59.3492C45.7422 59.4169 45.825 59.4545 45.8475 59.3868C47.2368 54.7684 49.7264 50.5562 53.1025 47.1121C56.73 43.4086 61.2992 40.7649 66.3179 39.4658C69.3019 38.7179 72.3862 38.4512 75.4543 38.6756C75.4686 38.6761 75.4829 38.6738 75.4963 38.6688C75.5098 38.6637 75.5221 38.6561 75.5325 38.6463C75.543 38.6365 75.5515 38.6248 75.5574 38.6117C75.5634 38.5987 75.5667 38.5846 75.5672 38.5703C75.5677 38.5559 75.5653 38.5416 75.5603 38.5282C75.5553 38.5148 75.5477 38.5025 75.5379 38.492C75.5281 38.4815 75.5163 38.4731 75.5033 38.4671C75.4902 38.4612 75.4761 38.4579 75.4618 38.4574Z" fill="#263238"/>
<path opacity="0.1" d="M84.7561 41.3022C84.7561 41.3022 77.5614 50.4988 68.5078 52.0943C61.5991 53.321 55.917 49.7162 53.6066 47.9476L53.1099 47.1273C53.1099 47.1273 57.7834 43.1912 66.6564 40.9184C75.5294 38.6456 84.7561 41.3022 84.7561 41.3022Z" fill="#2A1C02"/>
<path d="M69.7348 34.1595C68.9789 34.6008 68.2478 35.0832 67.5447 35.6045C66.8593 36.1258 66.222 36.7077 65.6407 37.343C65.6336 37.3545 65.6307 37.3681 65.6323 37.3815C65.6338 37.3949 65.6399 37.4074 65.6495 37.417C65.659 37.4265 65.6715 37.4326 65.685 37.4342C65.6984 37.4358 65.712 37.4328 65.7235 37.4258C66.3782 36.8613 67.0405 36.2894 67.7178 35.7475C68.3795 35.2046 69.0731 34.702 69.795 34.2423C69.8853 34.1972 69.795 34.0993 69.7348 34.1595Z" fill="#263238"/>
<path d="M75.1536 36.1844C74.7924 36.3425 74.401 36.4704 74.0548 36.6209L72.956 37.08C72.8733 37.08 72.9109 37.238 72.9937 37.2079L74.0925 36.7639C74.4612 36.6134 74.845 36.4403 75.1912 36.2973C75.2439 36.2672 75.2138 36.1618 75.1536 36.1844Z" fill="#263238"/>
<path d="M51.2058 62.2619C51.2058 62.2619 52.9368 74.3033 61.9753 78.4877C71.0139 82.672 82.0318 78.4877 82.0318 78.4877C82.0318 78.4877 77.6968 52.4858 51.2058 62.2619Z" fill="#68892C"/>
<path d="M75.8006 70.6676C74.9652 70.5698 74.1374 70.4268 73.3171 70.2763L72.0979 70.0505L71.4657 69.9225C71.2249 69.6968 70.9841 69.4635 70.7131 69.2452C68.9996 67.7393 67.1475 66.3987 65.1816 65.2415C64.1144 64.6037 63.0085 64.0332 61.8702 63.5331H62.0433L65.016 63.6686C67.0029 63.7589 68.9822 63.804 70.969 63.932C71.0367 63.932 71.0367 63.8266 70.969 63.8191C68.9822 63.6836 67.0029 63.4654 65.016 63.2923L62.1261 63.0364L60.6209 62.9085L60.2371 62.8633C59.7254 62.6752 59.2061 62.4945 58.6793 62.329C56.2159 61.4842 53.5667 61.3383 51.0255 61.9075C48.7677 62.487 46.5099 63.9771 45.8928 66.3779C45.8928 66.4607 46.0057 66.5133 46.0433 66.4306C46.8862 64.4287 49.1139 63.4202 51.1158 63.0063C52.4662 62.7492 53.8502 62.7212 55.2098 62.9235C55.3005 63.5446 55.4543 64.1549 55.6689 64.7448C55.9173 65.5877 56.1656 66.4306 56.4215 67.281C56.9333 68.9668 57.4977 70.6375 57.9944 72.3308C57.9994 72.3448 58.0097 72.3562 58.0232 72.3626C58.0298 72.3657 58.037 72.3675 58.0443 72.3679C58.0516 72.3682 58.059 72.3672 58.0659 72.3647C58.0728 72.3622 58.0792 72.3584 58.0846 72.3535C58.0901 72.3485 58.0945 72.3426 58.0977 72.336C58.1008 72.3293 58.1026 72.3221 58.103 72.3148C58.1033 72.3075 58.1022 72.3001 58.0998 72.2932C57.6783 70.6074 57.3472 68.9066 56.9182 67.2208C56.7225 66.3854 56.5118 65.5576 56.3086 64.7297C56.1915 64.1512 56.0382 63.5806 55.8495 63.0213C56.6418 63.1643 57.4256 63.3502 58.1976 63.5782C59.5929 63.9925 60.9604 64.4952 62.2917 65.0834C62.4271 65.9414 62.6153 66.7918 62.811 67.6347C63.0593 68.6958 63.3378 69.7495 63.6689 70.7805C63.6689 70.7945 63.6745 70.8079 63.6843 70.8178C63.6942 70.8276 63.7076 70.8332 63.7216 70.8332C63.7356 70.8332 63.749 70.8276 63.7588 70.8178C63.7687 70.8079 63.7743 70.7945 63.7743 70.7805L63.7291 70.5848C63.5259 69.5989 63.3077 68.6206 63.1045 67.6422C62.9389 66.852 62.7809 66.0543 62.6078 65.264C63.7347 65.7635 64.835 66.3212 65.9041 66.9348C65.9041 67.1756 65.9869 67.424 66.0245 67.6497C66.0847 68.0637 66.16 68.4701 66.2352 68.884C66.4083 69.8097 66.589 70.7354 66.8147 71.6535C67.2225 73.425 67.7403 75.1694 68.3651 76.8765C68.3598 76.887 68.357 76.8985 68.357 76.9103C68.357 76.9221 68.3598 76.9337 68.3651 76.9442L68.4177 77.0044C68.4554 77.0495 68.5231 77.0044 68.5081 76.9517C68.0941 75.1681 67.6125 73.407 67.2211 71.6159C67.033 70.7203 66.8298 69.8322 66.6567 68.9367C66.5664 68.4851 66.4836 68.0411 66.3933 67.5895C66.3933 67.4616 66.3933 67.3261 66.3331 67.1907C67.5608 67.9024 68.7468 68.6839 69.8853 69.5312C71.8328 70.9924 73.6348 72.6382 75.2663 74.4456C75.334 74.5133 75.4619 74.4456 75.4017 74.3402C74.7093 73.4296 74.0245 72.5491 73.2493 71.7062C72.7903 71.2245 72.3237 70.7504 71.842 70.2913H71.9925C72.414 70.3666 72.8354 70.4268 73.2644 70.487C74.0998 70.5999 74.9351 70.6827 75.778 70.773C75.8457 70.7805 75.906 70.6751 75.8006 70.6676Z" fill="#263238"/>
<path d="M69.4492 74.7395C69.4492 74.6341 69.4492 74.5363 69.404 74.4309C69.3588 74.3256 69.3062 74.1675 69.2911 74.0396C69.103 73.2343 68.9449 72.429 68.8019 71.6162C68.798 71.6065 68.7913 71.5981 68.7826 71.5922C68.7738 71.5863 68.7636 71.5831 68.753 71.5831C68.7425 71.5831 68.7322 71.5863 68.7235 71.5922C68.7148 71.5981 68.708 71.6065 68.7041 71.6162C68.7579 72.6929 68.9893 73.7533 69.389 74.7545H69.4567L69.4492 74.7395Z" fill="#263238"/>
<path d="M61.8851 74.5509C61.8864 74.5437 61.886 74.5362 61.8839 74.5292C61.8817 74.5222 61.8778 74.5158 61.8727 74.5106C61.8675 74.5054 61.8611 74.5016 61.8541 74.4994C61.8471 74.4973 61.8396 74.4968 61.8324 74.4982C61.5841 73.437 61.3357 72.3684 61.1175 71.2997C61.0046 70.7353 60.8842 70.1708 60.7788 69.6064C60.7186 69.3053 60.6659 68.9968 60.6057 68.6958C60.5803 68.4362 60.5143 68.1822 60.41 67.9432C60.41 67.898 60.3197 67.9432 60.3122 67.9432C60.3053 68.4884 60.3814 69.0314 60.538 69.5537C60.6509 70.1407 60.7637 70.7277 60.8917 71.3072C61.1551 72.4963 61.4486 73.6779 61.7873 74.8444C61.7873 74.9121 61.9077 74.897 61.9077 74.8444L61.8851 74.5509Z" fill="#263238"/>
<path d="M74.9804 67.2061C73.3247 66.9803 71.6766 66.7395 70.0284 66.5438C69.9531 66.5438 69.923 66.6417 70.0284 66.6492C71.6766 66.89 73.3322 67.0932 74.9804 67.3115C75.018 67.3265 75.0481 67.2136 74.9804 67.2061Z" fill="#263238"/>
<path d="M46.5554 34.0771C46.5554 34.0771 41.0239 9.82125 67.0935 0C67.1161 0 74.3334 31.9021 46.5554 34.0771Z" fill="#68892C"/>
<path d="M52.1995 20.32L52.4855 20.1469L53.953 19.3266L56.9633 17.6333C58.9502 16.5195 60.9144 15.3755 62.9163 14.2767C62.984 14.2391 62.9163 14.1488 62.8636 14.1789C60.8542 15.2702 58.8147 16.2937 56.7978 17.3624L53.7874 18.9428L52.5607 19.5825C53.4337 17.9343 54.3594 16.3238 55.3829 14.7659C56.7451 12.6888 58.2352 10.7095 59.7931 8.74526C59.8032 8.72764 59.807 8.70712 59.8041 8.68703C59.8011 8.66695 59.7914 8.64845 59.7766 8.63453C59.7619 8.62061 59.7428 8.61208 59.7226 8.61032C59.7023 8.60856 59.6821 8.61368 59.6651 8.62484C57.3778 10.8459 55.3572 13.3261 53.6444 16.0152C53.6444 15.9249 53.6444 15.8421 53.6444 15.7593C53.6444 15.1573 53.6896 14.5552 53.6971 13.9456C53.6971 12.7641 53.6595 11.5825 53.6971 10.3934C53.6971 10.3257 53.5842 10.3257 53.5842 10.3934C53.5315 11.5599 53.3961 12.7189 53.3283 13.8854C53.3283 14.4649 53.2681 15.0444 53.2531 15.6314C53.2531 15.94 53.2155 16.3012 53.2531 16.6474C52.7187 17.4978 52.1995 18.3633 51.7479 19.2438C50.8724 20.8233 50.0933 22.4544 49.4149 24.1281C49.4149 23.5261 49.3547 22.924 49.3171 22.3219C49.2418 20.9898 49.0762 19.6653 49.0236 18.3407C49.0193 18.3292 49.0116 18.3193 49.0015 18.3123C48.9914 18.3052 48.9794 18.3015 48.9671 18.3015C48.9548 18.3015 48.9428 18.3052 48.9327 18.3123C48.9227 18.3193 48.9149 18.3292 48.9107 18.3407C48.9107 19.6728 48.873 20.9974 48.9107 22.3294C48.9107 22.9917 48.9483 23.654 48.9934 24.3163L49.0386 25.0689C48.2085 27.236 47.5517 29.4657 47.0744 31.7368C46.6233 34.159 46.2992 36.6033 46.1035 39.0594C46.3838 36.8474 46.847 34.6624 47.4883 32.527C47.8119 31.383 48.1505 30.2692 48.5193 29.1102C49.603 28.5985 50.6416 27.9663 51.6877 27.3868L54.9615 25.5956C57.1364 24.399 59.3039 23.1874 61.5466 22.1337C61.6143 22.1337 61.5466 22.0134 61.4939 22.0359C59.2362 23.067 56.9257 24.0453 54.7206 25.1667C53.6068 25.7236 52.5156 26.3257 51.4318 26.9353C50.5287 27.4395 49.5955 27.9512 48.7301 28.5383C48.9859 27.7857 49.2493 27.0331 49.5353 26.2805C50.3223 24.25 51.2115 22.2607 52.1995 20.32Z" fill="#263238"/>
<path d="M50.0017 14.7731C50.0017 14.7054 49.8888 14.7054 49.8964 14.7731C49.9867 16.1578 50.0318 17.5426 50.1823 18.9274C50.1823 18.9433 50.1887 18.9586 50.2 18.9699C50.2113 18.9812 50.2266 18.9876 50.2425 18.9876C50.2585 18.9876 50.2738 18.9812 50.2851 18.9699C50.2964 18.9586 50.3028 18.9433 50.3028 18.9274C50.2576 17.5351 50.1071 16.1578 50.0017 14.7731Z" fill="#263238"/>
<path d="M62.5027 19.4092C60.8696 20.0639 59.2214 20.6886 57.6033 21.3659C57.5582 21.3659 57.6033 21.4562 57.6033 21.4412C59.2515 20.824 60.8771 20.1542 62.5102 19.5145C62.6005 19.4844 62.5704 19.3791 62.5027 19.4092Z" fill="#263238"/>
<path d="M64.9786 8.21844C63.3847 8.95207 61.8365 9.78142 60.3427 10.702C60.3267 10.7119 60.3154 10.7279 60.3111 10.7462C60.3069 10.7646 60.3101 10.7838 60.3201 10.7998C60.3301 10.8158 60.346 10.8271 60.3644 10.8314C60.3827 10.8356 60.402 10.8324 60.418 10.8224C61.9231 9.94186 63.4659 9.09144 65.0388 8.31628C65.099 8.27865 65.0464 8.18834 64.9786 8.21844Z" fill="#263238"/>
<path d="M0.293607 130.491C15.3453 130.86 30.4799 130.905 45.5767 130.905C60.6736 130.905 75.8232 131.327 90.8598 130.393C90.8861 130.399 90.9133 130.398 90.9393 130.392C90.9654 130.386 90.9897 130.373 91.0105 130.357C91.0313 130.34 91.0481 130.318 91.0596 130.294C91.0711 130.27 91.0771 130.243 91.0771 130.216C91.0771 130.19 91.0711 130.163 91.0596 130.139C91.0481 130.115 91.0313 130.093 91.0105 130.076C90.9897 130.059 90.9654 130.047 90.9393 130.041C90.9133 130.035 90.8861 130.034 90.8598 130.04C89.4901 129.949 88.1129 129.897 86.7432 129.829C83.1232 127.165 77.968 124.945 73.9492 127.654C72.6096 123.846 67.9285 123.003 63.4883 123.229C66.0621 118.239 61.5993 112.813 55.3904 111.985C49.0236 111.127 41.8439 114.296 40.5193 119.887C37.8702 119.187 35.6275 120.316 33.6031 121.972C30.54 119.15 26.2503 122.393 24.3764 125.547C22.9272 124.74 21.2578 124.418 19.6125 124.629C18.8461 124.738 18.1164 125.027 17.4827 125.471C16.9559 125.848 16.4215 127.067 15.9173 127.18C15.4131 127.293 13.6595 126.51 12.9973 126.427C11.7918 126.305 10.5745 126.47 9.44506 126.909C8.7832 127.158 8.18151 127.544 7.67954 128.042C7.17757 128.54 6.78669 129.139 6.53255 129.799L0.278552 129.919C0.240996 129.92 0.204007 129.929 0.169688 129.944C0.135369 129.959 0.1044 129.981 0.0785432 130.008C0.052686 130.036 0.0324484 130.068 0.0189894 130.103C0.00553054 130.138 -0.000889314 130.175 9.89965e-05 130.213C0.00108731 130.25 0.00946912 130.287 0.0247542 130.322C0.0400393 130.356 0.0619336 130.387 0.0891884 130.413C0.116443 130.439 0.148519 130.459 0.183595 130.472C0.21867 130.486 0.256051 130.492 0.293607 130.491Z" fill="#2A1C02"/>
</svg>
